ISO-10303-21;
HEADER;
FILE_DESCRIPTION (( 'STEP AP203' ),
    '1' );
FILE_NAME ('¿ì×°°å.STEP',
    '2026-04-23T10:57:55',
    ( '' ),
    ( '' ),
    'SwSTEP 2.0',
    'SolidWorks 2023',
    '' );
FILE_SCHEMA (( 'CONFIG_CONTROL_DESIGN' ));
ENDSEC;

DATA;
#1 = DIRECTION ( 'NONE',  ( 1.000000000000000000, 0.000000000000000000, 0.000000000000000000 ) ) ;
#2 = ORIENTED_EDGE ( 'NONE', *, *, #853, .T. ) ;
#3 = DIRECTION ( 'NONE',  ( -0.000000000000000000, -0.000000000000000000, 1.000000000000000000 ) ) ;
#4 = DIRECTION ( 'NONE',  ( -0.000000000000000000, -0.000000000000000000, 1.000000000000000000 ) ) ;
#5 = CARTESIAN_POINT ( 'NONE',  ( 33.00000000000000000, 52.00000000000000000, -7.500000000000003553 ) ) ;
#6 = EDGE_CURVE ( 'NONE', #488, #727, #15, .T. ) ;
#7 = CIRCLE ( 'NONE', #591, 1.600000000000000755 ) ;
#8 = CARTESIAN_POINT ( 'NONE',  ( 38.00000000000000000, 52.00000000000000000, -4.653657836759941941E-15 ) ) ;
#9 = ORIENTED_EDGE ( 'NONE', *, *, #911, .F. ) ;
#10 = APPLICATION_PROTOCOL_DEFINITION ( 'international standard', 'config_control_design', 1994, #363 ) ;
#11 = VECTOR ( 'NONE', #819, 1000.000000000000000 ) ;
#12 = EDGE_CURVE ( 'NONE', #1077, #769, #397, .T. ) ;
#13 = APPROVAL_PERSON_ORGANIZATION ( #843, #797, #723 ) ;
#14 = CARTESIAN_POINT ( 'NONE',  ( 12.00000000000001066, 0.000000000000000000, 0.0009999999999999158867 ) ) ;
#15 = LINE ( 'NONE', #582, #712 ) ;
#16 = ORIENTED_EDGE ( 'NONE', *, *, #1056, .F. ) ;
#17 = LINE ( 'NONE', #875, #1076 ) ;
#18 = CARTESIAN_POINT ( 'NONE',  ( 7.999999999999992895, 48.24999999999999289, -7.501000000000002998 ) ) ;
#19 = ORIENTED_EDGE ( 'NONE', *, *, #646, .F. ) ;
#20 = EDGE_CURVE ( 'NONE', #259, #459, #487, .T. ) ;
#21 = DIRECTION ( 'NONE',  ( 1.000000000000000000, 0.000000000000000000, -1.224646799147353207E-16 ) ) ;
#22 = CARTESIAN_POINT ( 'NONE',  ( 11.99999999999999467, 48.24999999999999289, -1.199999999999999956 ) ) ;
#23 = CC_DESIGN_PERSON_AND_ORGANIZATION_ASSIGNMENT ( #1246, #1238, ( #887 ) ) ;
#24 = CARTESIAN_POINT ( 'NONE',  ( 0.000000000000000000, 52.00000000000000000, 0.000000000000000000 ) ) ;
#25 = ORIENTED_EDGE ( 'NONE', *, *, #627, .F. ) ;
#26 = VECTOR ( 'NONE', #191, 1000.000000000000000 ) ;
#27 = CARTESIAN_POINT ( 'NONE',  ( 25.99999999999998934, 3.750000000000027089, -3.183996848728914975E-15 ) ) ;
#28 = CARTESIAN_POINT ( 'NONE',  ( 29.99999999999999289, 3.750000000000027534, -1.199999999999999956 ) ) ;
#29 = EDGE_LOOP ( 'NONE', ( #274, #1254, #367, #478 ) ) ;
#30 = LINE ( 'NONE', #812, #1116 ) ;
#31 = DIRECTION ( 'NONE',  ( 1.000000000000000000, 0.000000000000000000, -1.224646799147353207E-16 ) ) ;
#32 = DIRECTION ( 'NONE',  ( 0.5999999999999996447, 0.000000000000000000, 0.8000000000000002665 ) ) ;
#33 = DIRECTION ( 'NONE',  ( -0.000000000000000000, -0.000000000000000000, 1.000000000000000000 ) ) ;
#34 = ORIENTED_EDGE ( 'NONE', *, *, #1224, .F. ) ;
#35 = ORIENTED_EDGE ( 'NONE', *, *, #417, .T. ) ;
#36 = DIRECTION ( 'NONE',  ( 1.239088197126290570E-16, -1.653442603354426361E-32, 1.000000000000000000 ) ) ;
#37 = FACE_OUTER_BOUND ( 'NONE', #1036, .T. ) ;
#38 = EDGE_CURVE ( 'NONE', #767, #88, #992, .T. ) ;
#39 = LINE ( 'NONE', #806, #803 ) ;
#40 = ORIENTED_EDGE ( 'NONE', *, *, #565, .F. ) ;
#41 = VECTOR ( 'NONE', #1197, 1000.000000000000000 ) ;
#42 = CARTESIAN_POINT ( 'NONE',  ( 2.999999999999995559, 0.000000000000000000, -3.999999999999998224 ) ) ;
#43 = VECTOR ( 'NONE', #241, 1000.000000000000000 ) ;
#44 = EDGE_CURVE ( 'NONE', #779, #100, #17, .T. ) ;
#45 = AXIS2_PLACEMENT_3D ( 'NONE', #854, #331, #59 ) ;
#46 =( GEOMETRIC_REPRESENTATION_CONTEXT ( 3 ) GLOBAL_UNCERTAINTY_ASSIGNED_CONTEXT ( ( #509 ) ) GLOBAL_UNIT_ASSIGNED_CONTEXT ( ( #291, #395, #580 ) ) REPRESENTATION_CONTEXT ( 'NONE', 'WORKASPACE' ) );
#47 = CARTESIAN_POINT ( 'NONE',  ( 25.39999999999999147, 48.25000000000000000, -7.500000000000001776 ) ) ;
#48 = LINE ( 'NONE', #1040, #954 ) ;
#49 = ORIENTED_EDGE ( 'NONE', *, *, #894, .F. ) ;
#50 = DIRECTION ( 'NONE',  ( 0.000000000000000000, 0.000000000000000000, 1.000000000000000000 ) ) ;
#51 = LINE ( 'NONE', #729, #408 ) ;
#52 = COORDINATED_UNIVERSAL_TIME_OFFSET ( 8, 0, .AHEAD. ) ;
#53 = DIRECTION ( 'NONE',  ( -0.000000000000000000, -0.000000000000000000, 1.000000000000000000 ) ) ;
#54 = ORIENTED_EDGE ( 'NONE', *, *, #74, .T. ) ;
#55 = ORIENTED_EDGE ( 'NONE', *, *, #437, .T. ) ;
#56 = FACE_OUTER_BOUND ( 'NONE', #865, .T. ) ;
#57 = EDGE_CURVE ( 'NONE', #410, #525, #507, .T. ) ;
#58 = LINE ( 'NONE', #647, #533 ) ;
#59 = DIRECTION ( 'NONE',  ( 0.000000000000000000, -0.000000000000000000, -1.000000000000000000 ) ) ;
#60 = VERTEX_POINT ( 'NONE', #401 ) ;
#61 = PRODUCT_RELATED_PRODUCT_CATEGORY ( 'detail', '', ( #372 ) ) ;
#62 = ORIENTED_EDGE ( 'NONE', *, *, #1021, .F. ) ;
#63 = FACE_BOUND ( 'NONE', #543, .T. ) ;
#64 = LINE ( 'NONE', #947, #1099 ) ;
#65 = VECTOR ( 'NONE', #558, 1000.000000000000000 ) ;
#66 = LINE ( 'NONE', #1039, #781 ) ;
#67 = DIRECTION ( 'NONE',  ( -4.625929269271485914E-16, 1.000000000000000000, -0.000000000000000000 ) ) ;
#68 = AXIS2_PLACEMENT_3D ( 'NONE', #535, #1038, #645 ) ;
#69 = ORIENTED_EDGE ( 'NONE', *, *, #307, .F. ) ;
#70 = AXIS2_PLACEMENT_3D ( 'NONE', #435, #532, #1225 ) ;
#71 = EDGE_LOOP ( 'NONE', ( #443, #1248, #169, #1122 ) ) ;
#72 = CARTESIAN_POINT ( 'NONE',  ( 9.599999999999994316, 48.24999999999999289, -7.501000000000002998 ) ) ;
#73 = DIRECTION ( 'NONE',  ( 0.000000000000000000, 0.000000000000000000, 1.000000000000000000 ) ) ;
#74 = EDGE_CURVE ( 'NONE', #1150, #1084, #294, .T. ) ;
#75 = CARTESIAN_POINT ( 'NONE',  ( 0.000000000000000000, 0.000000000000000000, 0.000000000000000000 ) ) ;
#76 = ORIENTED_EDGE ( 'NONE', *, *, #897, .F. ) ;
#77 = ORIENTED_EDGE ( 'NONE', *, *, #115, .F. ) ;
#78 = FACE_BOUND ( 'NONE', #554, .T. ) ;
#79 = FACE_OUTER_BOUND ( 'NONE', #423, .T. ) ;
#80 = DIRECTION ( 'NONE',  ( 0.000000000000000000, 1.000000000000000000, 0.000000000000000000 ) ) ;
#81 = EDGE_LOOP ( 'NONE', ( #547, #649, #915, #398 ) ) ;
#82 = EDGE_CURVE ( 'NONE', #382, #135, #7, .T. ) ;
#83 = ORIENTED_EDGE ( 'NONE', *, *, #897, .T. ) ;
#84 = CARTESIAN_POINT ( 'NONE',  ( 9.599999999999994316, 48.24999999999999289, -7.499999999999999112 ) ) ;
#85 = DIRECTION ( 'NONE',  ( -1.000000000000000000, 0.000000000000000000, 0.000000000000000000 ) ) ;
#86 = VECTOR ( 'NONE', #942, 1000.000000000000000 ) ;
#87 = AXIS2_PLACEMENT_3D ( 'NONE', #385, #486, #790 ) ;
#88 = VERTEX_POINT ( 'NONE', #787 ) ;
#89 = AXIS2_PLACEMENT_3D ( 'NONE', #117, #1018, #1113 ) ;
#90 = ORIENTED_EDGE ( 'NONE', *, *, #462, .F. ) ;
#91 = DIRECTION ( 'NONE',  ( -1.000000000000000000, 0.000000000000000000, 1.355252715606880296E-16 ) ) ;
#92 = AXIS2_PLACEMENT_3D ( 'NONE', #163, #555, #562 ) ;
#93 = EDGE_CURVE ( 'NONE', #106, #1162, #184, .T. ) ;
#94 = DIRECTION ( 'NONE',  ( -0.000000000000000000, -1.000000000000000000, -0.000000000000000000 ) ) ;
#95 = CARTESIAN_POINT ( 'NONE',  ( 26.99999999999999289, 48.25000000000000000, -1.199999999999999734 ) ) ;
#96 = ORIENTED_EDGE ( 'NONE', *, *, #916, .F. ) ;
#97 = LINE ( 'NONE', #678, #273 ) ;
#98 = ADVANCED_FACE ( 'NONE', ( #697 ), #199, .T. ) ;
#99 = PLANE ( 'NONE',  #637 ) ;
#100 = VERTEX_POINT ( 'NONE', #598 ) ;
#101 = ORIENTED_EDGE ( 'NONE', *, *, #1152, .T. ) ;
#102 = EDGE_CURVE ( 'NONE', #1114, #1266, #1006, .T. ) ;
#103 = DIRECTION ( 'NONE',  ( -0.000000000000000000, -1.000000000000000000, -0.000000000000000000 ) ) ;
#104 = EDGE_LOOP ( 'NONE', ( #495, #280, #738, #773 ) ) ;
#105 = CIRCLE ( 'NONE', #760, 1.600000000000004086 ) ;
#106 = VERTEX_POINT ( 'NONE', #898 ) ;
#107 = DIRECTION ( 'NONE',  ( 1.000000000000000000, 0.000000000000000000, 0.000000000000000000 ) ) ;
#108 = AXIS2_PLACEMENT_3D ( 'NONE', #204, #908, #893 ) ;
#109 = CIRCLE ( 'NONE', #1101, 1.600000000000002531 ) ;
#110 = DIRECTION ( 'NONE',  ( 0.000000000000000000, 0.000000000000000000, 1.000000000000000000 ) ) ;
#111 = EDGE_CURVE ( 'NONE', #945, #100, #407, .T. ) ;
#112 = CYLINDRICAL_SURFACE ( 'NONE', #825, 1.600000000000000755 ) ;
#113 = ORIENTED_EDGE ( 'NONE', *, *, #93, .T. ) ;
#114 = CARTESIAN_POINT ( 'NONE',  ( 28.59999999999999432, 48.25000000000000000, -7.501000000000002998 ) ) ;
#115 = EDGE_CURVE ( 'NONE', #259, #1133, #473, .T. ) ;
#116 = DIRECTION ( 'NONE',  ( 1.239088197126290570E-16, -1.653442603354426361E-32, 1.000000000000000000 ) ) ;
#117 = CARTESIAN_POINT ( 'NONE',  ( 26.99999999999999289, 48.25000000000000000, -7.501000000000002998 ) ) ;
#118 = ORIENTED_EDGE ( 'NONE', *, *, #209, .T. ) ;
#119 = DIRECTION ( 'NONE',  ( -1.000000000000000000, -4.625929269271485914E-16, 0.000000000000000000 ) ) ;
#120 = DIRECTION ( 'NONE',  ( 0.000000000000000000, 0.000000000000000000, 1.000000000000000000 ) ) ;
#121 = CARTESIAN_POINT ( 'NONE',  ( 0.000000000000000000, 0.000000000000000000, 0.000000000000000000 ) ) ;
#122 = VERTEX_POINT ( 'NONE', #976 ) ;
#123 = CARTESIAN_POINT ( 'NONE',  ( 22.99999999999999289, 48.25000000000000000, 0.0009999999999999158867 ) ) ;
#124 = EDGE_CURVE ( 'NONE', #459, #1003, #1192, .T. ) ;
#125 = VECTOR ( 'NONE', #883, 1000.000000000000000 ) ;
#126 = LINE ( 'NONE', #27, #631 ) ;
#127 = DIRECTION ( 'NONE',  ( -0.000000000000000000, -0.000000000000000000, 1.000000000000000000 ) ) ;
#128 = ORIENTED_EDGE ( 'NONE', *, *, #413, .T. ) ;
#129 = ORIENTED_EDGE ( 'NONE', *, *, #821, .T. ) ;
#130 = CARTESIAN_POINT ( 'NONE',  ( 7.999999999999992895, 48.24999999999999289, -7.499999999999999112 ) ) ;
#131 = EDGE_CURVE ( 'NONE', #252, #656, #386, .T. ) ;
#132 = DIRECTION ( 'NONE',  ( -1.000000000000000000, 1.334402673828313339E-16, 1.355252715606880296E-16 ) ) ;
#133 = CARTESIAN_POINT ( 'NONE',  ( 33.00000000000000000, 52.00000000000000000, -7.500000000000003553 ) ) ;
#134 = PLANE ( 'NONE',  #272 ) ;
#135 = VERTEX_POINT ( 'NONE', #837 ) ;
#136 = ADVANCED_FACE ( 'NONE', ( #919, #219 ), #1125, .T. ) ;
#137 = DIRECTION ( 'NONE',  ( 1.000000000000000000, 0.000000000000000000, 0.000000000000000000 ) ) ;
#138 = DIRECTION ( 'NONE',  ( 0.000000000000000000, 0.000000000000000000, -1.000000000000000000 ) ) ;
#139 = CALENDAR_DATE ( 2026, 23, 4 ) ;
#140 = DIRECTION ( 'NONE',  ( -0.000000000000000000, -0.000000000000000000, 1.000000000000000000 ) ) ;
#141 = EDGE_LOOP ( 'NONE', ( #113, #895 ) ) ;
#142 = VERTEX_POINT ( 'NONE', #722 ) ;
#143 = DIRECTION ( 'NONE',  ( 0.000000000000000000, 0.000000000000000000, -1.000000000000000000 ) ) ;
#144 = AXIS2_PLACEMENT_3D ( 'NONE', #1212, #741, #137 ) ;
#145 = APPROVAL_PERSON_ORGANIZATION ( #529, #1200, #926 ) ;
#146 = DIRECTION ( 'NONE',  ( 0.000000000000000000, 0.000000000000000000, -1.000000000000000000 ) ) ;
#147 = CARTESIAN_POINT ( 'NONE',  ( 4.999999999999996447, 52.00000000000000000, -3.999999999999999112 ) ) ;
#148 = VERTEX_POINT ( 'NONE', #1202 ) ;
#149 = EDGE_CURVE ( 'NONE', #671, #1048, #126, .T. ) ;
#150 = VERTEX_POINT ( 'NONE', #414 ) ;
#151 = DIRECTION ( 'NONE',  ( 0.000000000000000000, -0.000000000000000000, -1.000000000000000000 ) ) ;
#152 = ADVANCED_FACE ( 'NONE', ( #433 ), #809, .T. ) ;
#153 = CYLINDRICAL_SURFACE ( 'NONE', #822, 6.999999999999999112 ) ;
#154 = LINE ( 'NONE', #838, #764 ) ;
#155 = ORIENTED_EDGE ( 'NONE', *, *, #1224, .T. ) ;
#156 = ORIENTED_EDGE ( 'NONE', *, *, #491, .F. ) ;
#157 = CARTESIAN_POINT ( 'NONE',  ( 11.99999999999999467, 52.00000000000000000, -1.199999999999999956 ) ) ;
#158 = FACE_BOUND ( 'NONE', #141, .T. ) ;
#159 = DIRECTION ( 'NONE',  ( 0.000000000000000000, 0.000000000000000000, 1.000000000000000000 ) ) ;
#160 = DIRECTION ( 'NONE',  ( 0.000000000000000000, 0.000000000000000000, 1.000000000000000000 ) ) ;
#161 = ORIENTED_EDGE ( 'NONE', *, *, #660, .T. ) ;
#162 = ORIENTED_EDGE ( 'NONE', *, *, #1195, .F. ) ;
#163 = CARTESIAN_POINT ( 'NONE',  ( 26.99999999999999289, 48.25000000000000000, -7.500000000000001776 ) ) ;
#164 = AXIS2_PLACEMENT_3D ( 'NONE', #174, #73, #1245 ) ;
#165 = EDGE_CURVE ( 'NONE', #1242, #677, #341, .T. ) ;
#166 = DIRECTION ( 'NONE',  ( 1.000000000000000000, 0.000000000000000000, -1.224646799147353207E-16 ) ) ;
#167 = CARTESIAN_POINT ( 'NONE',  ( 6.399999999999992362, 48.24999999999999289, -7.501000000000002998 ) ) ;
#168 = VECTOR ( 'NONE', #103, 1000.000000000000000 ) ;
#169 = ORIENTED_EDGE ( 'NONE', *, *, #590, .T. ) ;
#170 = AXIS2_PLACEMENT_3D ( 'NONE', #1000, #119, #506 ) ;
#171 = ORIENTED_EDGE ( 'NONE', *, *, #1138, .F. ) ;
#172 = CARTESIAN_POINT ( 'NONE',  ( 33.00000000000000000, 52.00000000000000000, -7.500000000000003553 ) ) ;
#173 = ADVANCED_FACE ( 'NONE', ( #736 ), #1112, .T. ) ;
#174 = CARTESIAN_POINT ( 'NONE',  ( 26.99999999999999289, 48.25000000000000000, 0.000000000000000000 ) ) ;
#175 = ORIENTED_EDGE ( 'NONE', *, *, #413, .F. ) ;
#176 = ORIENTED_EDGE ( 'NONE', *, *, #734, .T. ) ;
#177 = FACE_OUTER_BOUND ( 'NONE', #588, .T. ) ;
#178 = ADVANCED_FACE ( 'NONE', ( #315 ), #1117, .F. ) ;
#179 = DIRECTION ( 'NONE',  ( -0.000000000000000000, -0.000000000000000000, -1.000000000000000000 ) ) ;
#180 = ORIENTED_EDGE ( 'NONE', *, *, #975, .F. ) ;
#181 = ORIENTED_EDGE ( 'NONE', *, *, #522, .T. ) ;
#182 = CARTESIAN_POINT ( 'NONE',  ( 3.999999999999977351, 3.749999999999999556, -4.897968017497991711E-16 ) ) ;
#183 = VECTOR ( 'NONE', #892, 1000.000000000000114 ) ;
#184 = CIRCLE ( 'NONE', #426, 1.600000000000000755 ) ;
#185 = LINE ( 'NONE', #1185, #1033 ) ;
#186 = AXIS2_PLACEMENT_3D ( 'NONE', #1181, #1110, #680 ) ;
#187 = ORIENTED_EDGE ( 'NONE', *, *, #956, .T. ) ;
#188 = VECTOR ( 'NONE', #1005, 1000.000000000000000 ) ;
#189 = EDGE_CURVE ( 'NONE', #252, #343, #335, .T. ) ;
#190 = ORIENTED_EDGE ( 'NONE', *, *, #1236, .T. ) ;
#191 = DIRECTION ( 'NONE',  ( -0.000000000000000000, -0.000000000000000000, 1.000000000000000000 ) ) ;
#192 = VECTOR ( 'NONE', #461, 1000.000000000000000 ) ;
#193 = LINE ( 'NONE', #198, #739 ) ;
#194 = DIRECTION ( 'NONE',  ( -1.000000000000000000, 0.000000000000000000, 0.000000000000000000 ) ) ;
#195 = EDGE_LOOP ( 'NONE', ( #128, #675, #977, #381 ) ) ;
#196 = CARTESIAN_POINT ( 'NONE',  ( 6.399999999999992362, 48.24999999999999289, -7.499999999999999112 ) ) ;
#197 = CARTESIAN_POINT ( 'NONE',  ( 25.98552073935794837, -1.084202172485504434E-16, -7.500000000000003553 ) ) ;
#198 = CARTESIAN_POINT ( 'NONE',  ( 28.39999999999999147, 3.750000000000027534, -7.501000000000002998 ) ) ;
#199 = PLANE ( 'NONE',  #531 ) ;
#200 = ORIENTED_EDGE ( 'NONE', *, *, #217, .F. ) ;
#201 = ADVANCED_FACE ( 'NONE', ( #1206 ), #830, .T. ) ;
#202 = DIRECTION ( 'NONE',  ( 0.000000000000000000, -1.000000000000000000, 0.000000000000000000 ) ) ;
#203 = VECTOR ( 'NONE', #31, 1000.000000000000000 ) ;
#204 = CARTESIAN_POINT ( 'NONE',  ( 7.999999999999992895, 48.24999999999999289, 0.000000000000000000 ) ) ;
#205 = ORIENTED_EDGE ( 'NONE', *, *, #878, .F. ) ;
#206 = AXIS2_PLACEMENT_3D ( 'NONE', #841, #1020, #1221 ) ;
#207 = APPROVAL_PERSON_ORGANIZATION ( #301, #245, #1096 ) ;
#208 = CARTESIAN_POINT ( 'NONE',  ( 11.99999999999999467, 48.24999999999999289, 0.000000000000000000 ) ) ;
#209 = EDGE_CURVE ( 'NONE', #587, #222, #516, .T. ) ;
#210 = ORIENTED_EDGE ( 'NONE', *, *, #1210, .F. ) ;
#211 = CYLINDRICAL_SURFACE ( 'NONE', #659, 3.999999999999996447 ) ;
#212 = VERTEX_POINT ( 'NONE', #1022 ) ;
#213 = CARTESIAN_POINT ( 'NONE',  ( 28.59999999999999432, 48.25000000000000000, -1.199999999999999734 ) ) ;
#214 = CARTESIAN_POINT ( 'NONE',  ( 3.999999999999991562, 48.24999999999999289, 0.0009999999999999158867 ) ) ;
#215 = LINE ( 'NONE', #1002, #1009 ) ;
#216 = ORIENTED_EDGE ( 'NONE', *, *, #623, .F. ) ;
#217 = EDGE_CURVE ( 'NONE', #579, #826, #936, .T. ) ;
#218 = CARTESIAN_POINT ( 'NONE',  ( 2.999999999999995559, 52.00000000000000000, -3.999999999999998224 ) ) ;
#219 = FACE_OUTER_BOUND ( 'NONE', #1209, .T. ) ;
#220 = FACE_OUTER_BOUND ( 'NONE', #748, .T. ) ;
#221 = CYLINDRICAL_SURFACE ( 'NONE', #454, 4.000000000000001776 ) ;
#222 = VERTEX_POINT ( 'NONE', #617 ) ;
#223 = AXIS2_PLACEMENT_3D ( 'NONE', #1237, #1166, #669 ) ;
#224 = ADVANCED_FACE ( 'NONE', ( #37 ), #1222, .F. ) ;
#225 = ORIENTED_EDGE ( 'NONE', *, *, #1149, .F. ) ;
#226 = CARTESIAN_POINT ( 'NONE',  ( 28.39999999999999147, 3.750000000000027534, -1.199999999999999734 ) ) ;
#227 = VECTOR ( 'NONE', #342, 1000.000000000000000 ) ;
#228 = DIRECTION ( 'NONE',  ( -0.000000000000000000, -0.000000000000000000, 1.000000000000000000 ) ) ;
#229 = DIRECTION ( 'NONE',  ( 1.355252715606880296E-16, -0.000000000000000000, 1.000000000000000000 ) ) ;
#230 = EDGE_CURVE ( 'NONE', #88, #1109, #51, .T. ) ;
#231 = FACE_OUTER_BOUND ( 'NONE', #29, .T. ) ;
#232 = ORIENTED_EDGE ( 'NONE', *, *, #102, .F. ) ;
#233 = ORIENTED_EDGE ( 'NONE', *, *, #1236, .F. ) ;
#234 = CARTESIAN_POINT ( 'NONE',  ( 25.99999999999998934, 0.000000000000000000, 0.0009999999999999158867 ) ) ;
#235 = CARTESIAN_POINT ( 'NONE',  ( 3.999999999999977351, 3.749999999999999556, -1.199999999999999956 ) ) ;
#236 = APPROVAL_STATUS ( 'not_yet_approved' ) ;
#237 = DIRECTION ( 'NONE',  ( 1.000000000000000000, 0.000000000000000000, -0.000000000000000000 ) ) ;
#238 = VERTEX_POINT ( 'NONE', #823 ) ;
#239 = CARTESIAN_POINT ( 'NONE',  ( 33.00000000000000000, 52.00000000000000000, -7.500000000000003553 ) ) ;
#240 = EDGE_CURVE ( 'NONE', #716, #579, #1215, .T. ) ;
#241 = DIRECTION ( 'NONE',  ( 4.625929269271485914E-16, -1.000000000000000000, -5.665129472695381268E-32 ) ) ;
#242 = LINE ( 'NONE', #844, #227 ) ;
#243 = ORIENTED_EDGE ( 'NONE', *, *, #240, .T. ) ;
#244 = DIRECTION ( 'NONE',  ( 1.000000000000000000, 0.000000000000000000, -1.224646799147353207E-16 ) ) ;
#245 = APPROVAL ( #692, 'æœª' ) ;
#246 = VECTOR ( 'NONE', #874, 1000.000000000000000 ) ;
#247 = VECTOR ( 'NONE', #140, 1000.000000000000000 ) ;
#248 = CIRCLE ( 'NONE', #70, 1.600000000000002531 ) ;
#249 = PLANE ( 'NONE',  #453 ) ;
#250 = CALENDAR_DATE ( 2026, 23, 4 ) ;
#251 = LINE ( 'NONE', #358, #1161 ) ;
#252 = VERTEX_POINT ( 'NONE', #528 ) ;
#253 = ORIENTED_EDGE ( 'NONE', *, *, #131, .F. ) ;
#254 = DIRECTION ( 'NONE',  ( 0.000000000000000000, 1.000000000000000000, 0.000000000000000000 ) ) ;
#255 = DIRECTION ( 'NONE',  ( -0.000000000000000000, -1.000000000000000000, -0.000000000000000000 ) ) ;
#256 = FACE_OUTER_BOUND ( 'NONE', #635, .T. ) ;
#257 = SECURITY_CLASSIFICATION_LEVEL ( 'unclassified' ) ;
#258 = DIRECTION ( 'NONE',  ( -0.000000000000000000, -0.000000000000000000, 1.000000000000000000 ) ) ;
#259 = VERTEX_POINT ( 'NONE', #47 ) ;
#260 = EDGE_CURVE ( 'NONE', #122, #677, #630, .T. ) ;
#261 = ORIENTED_EDGE ( 'NONE', *, *, #853, .F. ) ;
#262 = DIRECTION ( 'NONE',  ( -0.000000000000000000, -0.000000000000000000, 1.000000000000000000 ) ) ;
#263 = CARTESIAN_POINT ( 'NONE',  ( 25.98552073935794837, -1.084202172485504434E-16, -7.500000000000003553 ) ) ;
#264 = SHAPE_DEFINITION_REPRESENTATION ( #361, #1135 ) ;
#265 = CARTESIAN_POINT ( 'NONE',  ( 33.99999999999999289, 3.750000000000027978, 0.0009999999999999158867 ) ) ;
#266 = ORIENTED_EDGE ( 'NONE', *, *, #165, .T. ) ;
#267 = ORIENTED_EDGE ( 'NONE', *, *, #82, .T. ) ;
#268 = CARTESIAN_POINT ( 'NONE',  ( 35.00000000000000000, 0.000000000000000000, -4.000000000000002665 ) ) ;
#269 = EDGE_CURVE ( 'NONE', #148, #1064, #1136, .T. ) ;
#270 = VECTOR ( 'NONE', #1175, 1000.000000000000000 ) ;
#271 = CARTESIAN_POINT ( 'NONE',  ( 30.99999999999999289, 52.00000000000000000, 0.0009999999999999158867 ) ) ;
#272 = AXIS2_PLACEMENT_3D ( 'NONE', #921, #427, #824 ) ;
#273 = VECTOR ( 'NONE', #1267, 1000.000000000000000 ) ;
#274 = ORIENTED_EDGE ( 'NONE', *, *, #522, .F. ) ;
#275 = ADVANCED_FACE ( 'NONE', ( #256 ), #249, .F. ) ;
#276 = ORIENTED_EDGE ( 'NONE', *, *, #189, .F. ) ;
#277 = CARTESIAN_POINT ( 'NONE',  ( 3.999999999999991562, 52.00000000000000000, -1.199999999999999956 ) ) ;
#278 = FACE_OUTER_BOUND ( 'NONE', #726, .T. ) ;
#279 = ORIENTED_EDGE ( 'NONE', *, *, #316, .T. ) ;
#280 = ORIENTED_EDGE ( 'NONE', *, *, #902, .T. ) ;
#281 = DIRECTION ( 'NONE',  ( 0.000000000000000000, 0.000000000000000000, 1.000000000000000000 ) ) ;
#282 = DIRECTION ( 'NONE',  ( -0.000000000000000000, -0.000000000000000000, -1.000000000000000000 ) ) ;
#283 = EDGE_CURVE ( 'NONE', #1242, #1258, #858, .T. ) ;
#284 = ORIENTED_EDGE ( 'NONE', *, *, #754, .T. ) ;
#285 = EDGE_LOOP ( 'NONE', ( #1025, #83, #1083, #403, #310, #460 ) ) ;
#286 = EDGE_CURVE ( 'NONE', #965, #826, #1177, .T. ) ;
#287 = DIRECTION ( 'NONE',  ( -0.000000000000000000, -0.000000000000000000, 1.000000000000000000 ) ) ;
#288 = VECTOR ( 'NONE', #138, 1000.000000000000000 ) ;
#289 = CARTESIAN_POINT ( 'NONE',  ( 30.99999999999999289, 48.25000000000000000, -1.199999999999999956 ) ) ;
#290 = ORIENTED_EDGE ( 'NONE', *, *, #302, .T. ) ;
#291 =( LENGTH_UNIT ( ) NAMED_UNIT ( * ) SI_UNIT ( .MILLI., .METRE. ) );
#292 = AXIS2_PLACEMENT_3D ( 'NONE', #489, #688, #502 ) ;
#293 = LINE ( 'NONE', #586, #928 ) ;
#294 = LINE ( 'NONE', #22, #270 ) ;
#295 = ORIENTED_EDGE ( 'NONE', *, *, #860, .F. ) ;
#296 = CARTESIAN_POINT ( 'NONE',  ( 4.000000000000006217, 3.750000000000000000, 0.000000000000000000 ) ) ;
#297 = ADVANCED_FACE ( 'NONE', ( #550 ), #948, .F. ) ;
#298 = CARTESIAN_POINT ( 'NONE',  ( 11.99999999999999467, 48.24999999999999289, 0.0009999999999999158867 ) ) ;
#299 = CARTESIAN_POINT ( 'NONE',  ( 4.999999999999988454, 0.000000000000000000, -7.500000000000000000 ) ) ;
#300 = VERTEX_POINT ( 'NONE', #1251 ) ;
#301 = PERSON_AND_ORGANIZATION ( #404, #1119 ) ;
#302 = EDGE_CURVE ( 'NONE', #376, #300, #987, .T. ) ;
#303 = DIRECTION ( 'NONE',  ( 1.000000000000000000, 0.000000000000000000, 0.000000000000000000 ) ) ;
#304 = CARTESIAN_POINT ( 'NONE',  ( 7.999999999999992895, 48.24999999999999289, -1.199999999999999734 ) ) ;
#305 = CARTESIAN_POINT ( 'NONE',  ( 25.99999999999999645, 3.750000000000027534, -1.199999999999999956 ) ) ;
#306 = ORIENTED_EDGE ( 'NONE', *, *, #836, .F. ) ;
#307 = EDGE_CURVE ( 'NONE', #212, #587, #66, .T. ) ;
#308 = AXIS2_PLACEMENT_3D ( 'NONE', #914, #600, #605 ) ;
#309 = VECTOR ( 'NONE', #1008, 1000.000000000000000 ) ;
#310 = ORIENTED_EDGE ( 'NONE', *, *, #565, .T. ) ;
#311 = DIRECTION ( 'NONE',  ( 0.000000000000000000, 1.000000000000000000, 0.000000000000000000 ) ) ;
#312 = ORIENTED_EDGE ( 'NONE', *, *, #286, .F. ) ;
#313 = DIRECTION ( 'NONE',  ( -1.334402673828313339E-16, -1.000000000000000000, 0.000000000000000000 ) ) ;
#314 = DIRECTION ( 'NONE',  ( -0.000000000000000000, -0.000000000000000000, 1.000000000000000000 ) ) ;
#315 = FACE_OUTER_BOUND ( 'NONE', #353, .T. ) ;
#316 = EDGE_CURVE ( 'NONE', #212, #656, #1194, .T. ) ;
#317 = FACE_OUTER_BOUND ( 'NONE', #572, .T. ) ;
#318 = ORIENTED_EDGE ( 'NONE', *, *, #975, .T. ) ;
#319 = LINE ( 'NONE', #5, #886 ) ;
#320 = EDGE_CURVE ( 'NONE', #716, #1258, #1029, .T. ) ;
#321 = DIRECTION ( 'NONE',  ( 0.000000000000000000, 0.000000000000000000, 1.000000000000000000 ) ) ;
#322 = CARTESIAN_POINT ( 'NONE',  ( 33.99999999999998579, 3.750000000000027534, 0.000000000000000000 ) ) ;
#323 = DIRECTION ( 'NONE',  ( 0.000000000000000000, 0.000000000000000000, 1.000000000000000000 ) ) ;
#324 = CIRCLE ( 'NONE', #474, 3.999999999999996447 ) ;
#325 = EDGE_LOOP ( 'NONE', ( #596, #654, #665, #216 ) ) ;
#326 = ORIENTED_EDGE ( 'NONE', *, *, #1195, .T. ) ;
#327 = FACE_OUTER_BOUND ( 'NONE', #333, .T. ) ;
#328 = VECTOR ( 'NONE', #521, 1000.000000000000000 ) ;
#329 = VECTOR ( 'NONE', #913, 1000.000000000000000 ) ;
#330 = CARTESIAN_POINT ( 'NONE',  ( 12.00000000000000888, 3.750000000000000444, -1.469602163486211088E-15 ) ) ;
#331 = DIRECTION ( 'NONE',  ( 0.000000000000000000, -1.000000000000000000, 0.000000000000000000 ) ) ;
#332 = ORIENTED_EDGE ( 'NONE', *, *, #1152, .F. ) ;
#333 = EDGE_LOOP ( 'NONE', ( #387, #232, #909, #171 ) ) ;
#334 = FACE_OUTER_BOUND ( 'NONE', #606, .T. ) ;
#335 = LINE ( 'NONE', #608, #406 ) ;
#336 = APPROVAL_DATE_TIME ( #1223, #1200 ) ;
#337 = FACE_BOUND ( 'NONE', #601, .T. ) ;
#338 = ORIENTED_EDGE ( 'NONE', *, *, #44, .T. ) ;
#339 = ORIENTED_EDGE ( 'NONE', *, *, #217, .T. ) ;
#340 = CARTESIAN_POINT ( 'NONE',  ( 0.000000000000000000, 0.000000000000000000, 0.000000000000000000 ) ) ;
#341 = LINE ( 'NONE', #235, #1094 ) ;
#342 = DIRECTION ( 'NONE',  ( 1.000000000000000000, 0.000000000000000000, -1.224646799147353207E-16 ) ) ;
#343 = VERTEX_POINT ( 'NONE', #766 ) ;
#344 = AXIS2_PLACEMENT_3D ( 'NONE', #703, #1106, #578 ) ;
#345 = VERTEX_POINT ( 'NONE', #842 ) ;
#346 = DIRECTION ( 'NONE',  ( -0.000000000000000000, -0.000000000000000000, 1.000000000000000000 ) ) ;
#347 = CARTESIAN_POINT ( 'NONE',  ( 8.000000000000007105, 3.750000000000000000, -1.199999999999999956 ) ) ;
#348 = AXIS2_PLACEMENT_3D ( 'NONE', #880, #282, #418 ) ;
#349 = AXIS2_PLACEMENT_3D ( 'NONE', #835, #1144, #1027 ) ;
#350 = DIRECTION ( 'NONE',  ( -1.224646799147353454E-16, 0.000000000000000000, -1.000000000000000000 ) ) ;
#351 = EDGE_CURVE ( 'NONE', #1065, #779, #324, .T. ) ;
#352 = LINE ( 'NONE', #1054, #432 ) ;
#353 = EDGE_LOOP ( 'NONE', ( #279, #253, #1089, #129 ) ) ;
#354 = ORIENTED_EDGE ( 'NONE', *, *, #131, .T. ) ;
#355 = DIRECTION ( 'NONE',  ( -1.000000000000000000, 0.000000000000000000, 1.239088197126290570E-16 ) ) ;
#356 = DIRECTION ( 'NONE',  ( 1.000000000000000000, 0.000000000000000000, 0.000000000000000000 ) ) ;
#357 = PERSON_AND_ORGANIZATION_ROLE ( 'classification_officer' ) ;
#358 = CARTESIAN_POINT ( 'NONE',  ( 0.000000000000000000, 0.000000000000000000, -1.199999999999999956 ) ) ;
#359 = ORIENTED_EDGE ( 'NONE', *, *, #763, .T. ) ;
#360 = EDGE_CURVE ( 'NONE', #343, #923, #1264, .T. ) ;
#361 = PRODUCT_DEFINITION_SHAPE ( 'NONE', 'NONE',  #935 ) ;
#362 = EDGE_LOOP ( 'NONE', ( #318, #772 ) ) ;
#363 = APPLICATION_CONTEXT ( 'configuration controlled 3d designs of mechanical parts and assemblies' ) ;
#364 = LINE ( 'NONE', #666, #1241 ) ;
#365 = CC_DESIGN_PERSON_AND_ORGANIZATION_ASSIGNMENT ( #399, #789, ( #372 ) ) ;
#366 = CARTESIAN_POINT ( 'NONE',  ( 8.000000000000007105, 3.750000000000000000, -7.499999999999999112 ) ) ;
#367 = ORIENTED_EDGE ( 'NONE', *, *, #878, .T. ) ;
#368 = ORIENTED_EDGE ( 'NONE', *, *, #646, .T. ) ;
#369 = DIRECTION ( 'NONE',  ( 1.000000000000000000, 0.000000000000000000, 0.000000000000000000 ) ) ;
#370 = AXIS2_PLACEMENT_3D ( 'NONE', #713, #1229, #419 ) ;
#371 = CIRCLE ( 'NONE', #87, 1.600000000000001643 ) ;
#372 = PRODUCT ( '\X2\5feb88c5677f\X0\', '\X2\5feb88c5677f\X0\', '', ( #1118 ) ) ;
#373 = CARTESIAN_POINT ( 'NONE',  ( 4.999999999999995559, 52.00000000000000000, -7.500000000000000000 ) ) ;
#374 = VECTOR ( 'NONE', #715, 1000.000000000000000 ) ;
#375 = CIRCLE ( 'NONE', #477, 1.600000000000000755 ) ;
#376 = VERTEX_POINT ( 'NONE', #957 ) ;
#377 = VERTEX_POINT ( 'NONE', #373 ) ;
#378 = DIRECTION ( 'NONE',  ( -0.5999999999999996447, 0.000000000000000000, 0.8000000000000002665 ) ) ;
#379 = EDGE_CURVE ( 'NONE', #479, #871, #757, .T. ) ;
#380 = DIRECTION ( 'NONE',  ( 1.000000000000000000, 0.000000000000000000, -1.355252715606880543E-16 ) ) ;
#381 = ORIENTED_EDGE ( 'NONE', *, *, #894, .T. ) ;
#382 = VERTEX_POINT ( 'NONE', #1159 ) ;
#383 = CARTESIAN_POINT ( 'NONE',  ( 12.00000000000000888, 3.750000000000001776, -1.199999999999999956 ) ) ;
#384 = ADVANCED_FACE ( 'NONE', ( #278 ), #153, .F. ) ;
#385 = CARTESIAN_POINT ( 'NONE',  ( 8.000000000000007105, 3.750000000000000000, -7.499999999999999112 ) ) ;
#386 = LINE ( 'NONE', #289, #679 ) ;
#387 = ORIENTED_EDGE ( 'NONE', *, *, #902, .F. ) ;
#388 = LINE ( 'NONE', #981, #329 ) ;
#389 = CLOSED_SHELL ( 'NONE', ( #794, #808, #685, #991, #718, #275, #889, #969, #815, #178, #743, #530, #1042, #1124, #1130, #676, #840, #297, #484, #1263, #224, #982, #1107, #384, #724, #136, #962, #673, #1069, #152, #930, #667, #538, #173, #98, #201 ) ) ;
#390 = CARTESIAN_POINT ( 'NONE',  ( 12.00000000000001066, 0.000000000000000000, -1.469576158976825131E-15 ) ) ;
#391 = ORIENTED_EDGE ( 'NONE', *, *, #1051, .F. ) ;
#392 = EDGE_CURVE ( 'NONE', #839, #526, #105, .T. ) ;
#393 = VECTOR ( 'NONE', #752, 1000.000000000000000 ) ;
#394 = EDGE_LOOP ( 'NONE', ( #1220, #1078, #187, #960 ) ) ;
#395 =( NAMED_UNIT ( * ) PLANE_ANGLE_UNIT ( ) SI_UNIT ( $, .RADIAN. ) );
#396 = DIRECTION ( 'NONE',  ( -1.000000000000000000, 0.000000000000000000, 1.355252715606880296E-16 ) ) ;
#397 = LINE ( 'NONE', #493, #800 ) ;
#398 = ORIENTED_EDGE ( 'NONE', *, *, #269, .F. ) ;
#399 = PERSON_AND_ORGANIZATION ( #404, #1119 ) ;
#400 = CYLINDRICAL_SURFACE ( 'NONE', #292, 1.600000000000002531 ) ;
#401 = CARTESIAN_POINT ( 'NONE',  ( 9.600000000000010303, 3.750000000000000000, -1.199999999999999734 ) ) ;
#402 = CARTESIAN_POINT ( 'NONE',  ( 7.999999999999992895, 48.24999999999999289, -1.199999999999999956 ) ) ;
#403 = ORIENTED_EDGE ( 'NONE', *, *, #627, .T. ) ;
#404 = PERSON ( 'æœª', 'æœª', 'æœª', ('æœª'), ('æœª'), ('æœª') ) ;
#405 = DIRECTION ( 'NONE',  ( -0.000000000000000000, -0.000000000000000000, 1.000000000000000000 ) ) ;
#406 = VECTOR ( 'NONE', #906, 1000.000000000000000 ) ;
#407 = LINE ( 'NONE', #804, #41 ) ;
#408 = VECTOR ( 'NONE', #425, 1000.000000000000000 ) ;
#409 = LINE ( 'NONE', #1103, #1213 ) ;
#410 = VERTEX_POINT ( 'NONE', #263 ) ;
#411 = AXIS2_PLACEMENT_3D ( 'NONE', #265, #546, #1126 ) ;
#412 = AXIS2_PLACEMENT_3D ( 'NONE', #966, #574, #657 ) ;
#413 = EDGE_CURVE ( 'NONE', #861, #929, #58, .T. ) ;
#414 = CARTESIAN_POINT ( 'NONE',  ( 12.00000000000002487, 0.000000000000000000, -1.199999999999999956 ) ) ;
#415 = CARTESIAN_POINT ( 'NONE',  ( 38.00000000000000000, 52.00000000000000000, -4.653657836759941941E-15 ) ) ;
#416 = ORIENTED_EDGE ( 'NONE', *, *, #491, .T. ) ;
#417 = EDGE_CURVE ( 'NONE', #526, #839, #693, .T. ) ;
#418 = DIRECTION ( 'NONE',  ( 1.000000000000000000, 0.000000000000000000, 0.000000000000000000 ) ) ;
#419 = DIRECTION ( 'NONE',  ( 0.000000000000000000, 0.000000000000000000, -1.000000000000000000 ) ) ;
#420 = APPROVAL_DATE_TIME ( #517, #245 ) ;
#421 = CARTESIAN_POINT ( 'NONE',  ( 32.99999999999999289, 0.000000000000000000, -7.500000000000003553 ) ) ;
#422 = EDGE_LOOP ( 'NONE', ( #101, #758 ) ) ;
#423 = EDGE_LOOP ( 'NONE', ( #90, #709, #180, #483 ) ) ;
#424 = PLANE ( 'NONE',  #494 ) ;
#425 = DIRECTION ( 'NONE',  ( -1.000000000000000000, 0.000000000000000000, 1.355252715606880296E-16 ) ) ;
#426 = AXIS2_PLACEMENT_3D ( 'NONE', #304, #1088, #686 ) ;
#427 = DIRECTION ( 'NONE',  ( 1.355252715606880543E-16, -0.000000000000000000, 1.000000000000000000 ) ) ;
#428 = ORIENTED_EDGE ( 'NONE', *, *, #1031, .F. ) ;
#429 = EDGE_CURVE ( 'NONE', #621, #122, #652, .T. ) ;
#430 = EDGE_LOOP ( 'NONE', ( #62, #999, #499, #747 ) ) ;
#431 = CARTESIAN_POINT ( 'NONE',  ( 0.000000000000000000, 0.000000000000000000, 0.000000000000000000 ) ) ;
#432 = VECTOR ( 'NONE', #1155, 1000.000000000000000 ) ;
#433 = FACE_OUTER_BOUND ( 'NONE', #856, .T. ) ;
#434 = CALENDAR_DATE ( 2026, 23, 4 ) ;
#435 = CARTESIAN_POINT ( 'NONE',  ( 8.000000000000007105, 3.750000000000000000, -1.199999999999999734 ) ) ;
#436 = EDGE_LOOP ( 'NONE', ( #368, #560, #2, #1178 ) ) ;
#437 = EDGE_CURVE ( 'NONE', #1084, #148, #1171, .T. ) ;
#438 = ORIENTED_EDGE ( 'NONE', *, *, #12, .F. ) ;
#439 = CARTESIAN_POINT ( 'NONE',  ( 3.999999999999977351, 0.000000000000000000, -1.199999999999999956 ) ) ;
#440 = DIRECTION ( 'NONE',  ( 1.000000000000000000, 0.000000000000000000, -0.000000000000000000 ) ) ;
#441 = DATE_TIME_ROLE ( 'classification_date' ) ;
#442 = PLANE ( 'NONE',  #744 ) ;
#443 = ORIENTED_EDGE ( 'NONE', *, *, #1012, .F. ) ;
#444 = DIRECTION ( 'NONE',  ( -0.000000000000000000, -0.000000000000000000, -1.000000000000000000 ) ) ;
#445 = DIRECTION ( 'NONE',  ( 1.000000000000000000, 0.000000000000000000, 0.000000000000000000 ) ) ;
#446 = DIRECTION ( 'NONE',  ( 1.334402673828313339E-16, 1.000000000000000000, -0.000000000000000000 ) ) ;
#447 = PERSON_AND_ORGANIZATION ( #404, #1119 ) ;
#448 = DIRECTION ( 'NONE',  ( -1.000000000000000000, 0.000000000000000000, 0.000000000000000000 ) ) ;
#449 = ORIENTED_EDGE ( 'NONE', *, *, #603, .T. ) ;
#450 = ORIENTED_EDGE ( 'NONE', *, *, #320, .F. ) ;
#451 = PLANE ( 'NONE',  #1262 ) ;
#452 = CYLINDRICAL_SURFACE ( 'NONE', #349, 1.600000000000004086 ) ;
#453 = AXIS2_PLACEMENT_3D ( 'NONE', #1256, #350, #571 ) ;
#454 = AXIS2_PLACEMENT_3D ( 'NONE', #1013, #127, #518 ) ;
#455 = VECTOR ( 'NONE', #480, 1000.000000000000000 ) ;
#456 = DIRECTION ( 'NONE',  ( 1.239088197126290570E-16, -1.653442603354426361E-32, 1.000000000000000000 ) ) ;
#457 = DATE_TIME_ROLE ( 'creation_date' ) ;
#458 = PLANE ( 'NONE',  #905 ) ;
#459 = VERTEX_POINT ( 'NONE', #771 ) ;
#460 = ORIENTED_EDGE ( 'NONE', *, *, #836, .T. ) ;
#461 = DIRECTION ( 'NONE',  ( -0.000000000000000000, -0.000000000000000000, 1.000000000000000000 ) ) ;
#462 = EDGE_CURVE ( 'NONE', #300, #376, #371, .T. ) ;
#463 = CARTESIAN_POINT ( 'NONE',  ( 11.99999999999999467, 48.24999999999999289, -1.469602163486211088E-15 ) ) ;
#464 = CARTESIAN_POINT ( 'NONE',  ( 35.00000000000000000, 0.000000000000000000, -4.000000000000002665 ) ) ;
#465 = ORIENTED_EDGE ( 'NONE', *, *, #1176, .F. ) ;
#466 = ORIENTED_EDGE ( 'NONE', *, *, #1165, .T. ) ;
#467 = FACE_BOUND ( 'NONE', #422, .T. ) ;
#468 = CARTESIAN_POINT ( 'NONE',  ( 19.00000000000000000, -0.4499999999999990119, -7.500000000000003553 ) ) ;
#469 = ORIENTED_EDGE ( 'NONE', *, *, #1183, .F. ) ;
#470 = EDGE_CURVE ( 'NONE', #135, #526, #193, .T. ) ;
#471 = ORIENTED_EDGE ( 'NONE', *, *, #1004, .T. ) ;
#472 = CARTESIAN_POINT ( 'NONE',  ( 11.99999999999999467, 48.24999999999999289, -1.199999999999999956 ) ) ;
#473 = CIRCLE ( 'NONE', #344, 1.600000000000000755 ) ;
#474 = AXIS2_PLACEMENT_3D ( 'NONE', #564, #1063, #963 ) ;
#475 = CARTESIAN_POINT ( 'NONE',  ( 3.999999999999991562, 3.750000000000000000, -1.199999999999999956 ) ) ;
#476 = CC_DESIGN_DATE_AND_TIME_ASSIGNMENT ( #1154, #441, ( #1214 ) ) ;
#477 = AXIS2_PLACEMENT_3D ( 'NONE', #1143, #569, #1050 ) ;
#478 = ORIENTED_EDGE ( 'NONE', *, *, #599, .T. ) ;
#479 = VERTEX_POINT ( 'NONE', #706 ) ;
#480 = DIRECTION ( 'NONE',  ( -1.000000000000000000, 0.000000000000000000, 1.355252715606880296E-16 ) ) ;
#481 = FACE_OUTER_BOUND ( 'NONE', #1211, .T. ) ;
#482 = DIRECTION ( 'NONE',  ( -0.000000000000000000, -0.000000000000000000, -1.000000000000000000 ) ) ;
#483 = ORIENTED_EDGE ( 'NONE', *, *, #590, .F. ) ;
#484 = ADVANCED_FACE ( 'NONE', ( #1174 ), #1087, .F. ) ;
#485 = LINE ( 'NONE', #896, #1164 ) ;
#486 = DIRECTION ( 'NONE',  ( 1.239088197126290570E-16, -1.653442603354426361E-32, 1.000000000000000000 ) ) ;
#487 = LINE ( 'NONE', #689, #735 ) ;
#488 = VERTEX_POINT ( 'NONE', #218 ) ;
#489 = CARTESIAN_POINT ( 'NONE',  ( 8.000000000000007105, 3.750000000000000000, -7.501000000000002998 ) ) ;
#490 = FACE_OUTER_BOUND ( 'NONE', #799, .T. ) ;
#491 = EDGE_CURVE ( 'NONE', #1003, #459, #904, .T. ) ;
#492 = CIRCLE ( 'NONE', #206, 4.000000000000001776 ) ;
#493 = CARTESIAN_POINT ( 'NONE',  ( 3.999999999999991562, 48.24999999999999289, -1.199999999999999956 ) ) ;
#494 = AXIS2_PLACEMENT_3D ( 'NONE', #347, #50, #622 ) ;
#495 = ORIENTED_EDGE ( 'NONE', *, *, #603, .F. ) ;
#496 = DIRECTION ( 'NONE',  ( -0.8000000000000002665, 0.000000000000000000, 0.5999999999999996447 ) ) ;
#497 = LOCAL_TIME ( 18, 57, 55.00000000000000000, #1146 ) ;
#498 = EDGE_CURVE ( 'NONE', #727, #621, #581, .T. ) ;
#499 = ORIENTED_EDGE ( 'NONE', *, *, #1090, .T. ) ;
#500 = CARTESIAN_POINT ( 'NONE',  ( 12.00000000000000711, 3.750000000000000000, -1.199999999999999956 ) ) ;
#501 = ORIENTED_EDGE ( 'NONE', *, *, #768, .T. ) ;
#502 = DIRECTION ( 'NONE',  ( 1.000000000000000000, 0.000000000000000000, 0.000000000000000000 ) ) ;
#503 = DIRECTION ( 'NONE',  ( -1.000000000000000000, 0.000000000000000000, 0.000000000000000000 ) ) ;
#504 = CARTESIAN_POINT ( 'NONE',  ( 3.999999999999991562, 52.00000000000000000, -4.898587196589401982E-16 ) ) ;
#505 = ORIENTED_EDGE ( 'NONE', *, *, #462, .T. ) ;
#506 = DIRECTION ( 'NONE',  ( 4.625929269271485914E-16, -1.000000000000000000, 0.000000000000000000 ) ) ;
#507 = CIRCLE ( 'NONE', #820, 6.999999999999999112 ) ;
#508 = CARTESIAN_POINT ( 'NONE',  ( 26.99999999999999289, 48.25000000000000000, -1.199999999999999956 ) ) ;
#509 = UNCERTAINTY_MEASURE_WITH_UNIT (LENGTH_MEASURE( 1.000000000000000082E-05 ), #291, 'distance_accuracy_value', 'NONE');
#510 = EDGE_CURVE ( 'NONE', #811, #1077, #1082, .T. ) ;
#511 = FACE_OUTER_BOUND ( 'NONE', #900, .T. ) ;
#512 = ORIENTED_EDGE ( 'NONE', *, *, #102, .T. ) ;
#513 = CIRCLE ( 'NONE', #108, 4.000000000000001776 ) ;
#514 = VECTOR ( 'NONE', #405, 1000.000000000000000 ) ;
#515 = CARTESIAN_POINT ( 'NONE',  ( 0.000000000000000000, 52.00000000000000000, 0.000000000000000000 ) ) ;
#516 = LINE ( 'NONE', #813, #288 ) ;
#517 = DATE_AND_TIME ( #1011, #1081 ) ;
#518 = DIRECTION ( 'NONE',  ( 1.000000000000000000, 0.000000000000000000, 0.000000000000000000 ) ) ;
#519 = ORIENTED_EDGE ( 'NONE', *, *, #660, .F. ) ;
#520 = ORIENTED_EDGE ( 'NONE', *, *, #124, .T. ) ;
#521 = DIRECTION ( 'NONE',  ( 0.000000000000000000, 0.000000000000000000, 1.000000000000000000 ) ) ;
#522 = EDGE_CURVE ( 'NONE', #1109, #788, #185, .T. ) ;
#523 = DIRECTION ( 'NONE',  ( 1.355252715606880296E-16, 0.000000000000000000, 1.000000000000000000 ) ) ;
#524 = CARTESIAN_POINT ( 'NONE',  ( 12.01447926064205163, 0.000000000000000000, 0.000000000000000000 ) ) ;
#525 = VERTEX_POINT ( 'NONE', #684 ) ;
#526 = VERTEX_POINT ( 'NONE', #226 ) ;
#527 = DIRECTION ( 'NONE',  ( 1.000000000000000000, -0.000000000000000000, -1.239088197126290570E-16 ) ) ;
#528 = CARTESIAN_POINT ( 'NONE',  ( 30.99999999999999289, 48.25000000000000000, -1.199999999999999956 ) ) ;
#529 = PERSON_AND_ORGANIZATION ( #404, #1119 ) ;
#530 = ADVANCED_FACE ( 'NONE', ( #481 ), #607, .F. ) ;
#531 = AXIS2_PLACEMENT_3D ( 'NONE', #298, #194, #1102 ) ;
#532 = DIRECTION ( 'NONE',  ( -0.000000000000000000, -0.000000000000000000, -1.000000000000000000 ) ) ;
#533 = VECTOR ( 'NONE', #446, 1000.000000000000000 ) ;
#534 = ORIENTED_EDGE ( 'NONE', *, *, #283, .F. ) ;
#535 = CARTESIAN_POINT ( 'NONE',  ( 25.99999999999998934, 3.750000000000027089, 0.0009999999999999158867 ) ) ;
#536 = VECTOR ( 'NONE', #94, 1000.000000000000000 ) ;
#537 = LOCAL_TIME ( 18, 57, 55.00000000000000000, #52 ) ;
#538 = ADVANCED_FACE ( 'NONE', ( #490 ), #99, .T. ) ;
#539 = DIRECTION ( 'NONE',  ( 1.000000000000000000, 0.000000000000000000, 0.000000000000000000 ) ) ;
#540 = DATE_AND_TIME ( #920, #931 ) ;
#541 = CARTESIAN_POINT ( 'NONE',  ( 22.99999999999999289, 48.25000000000000000, -1.199999999999999956 ) ) ;
#542 = ORIENTED_EDGE ( 'NONE', *, *, #777, .T. ) ;
#543 = EDGE_LOOP ( 'NONE', ( #290, #505 ) ) ;
#544 = FACE_OUTER_BOUND ( 'NONE', #890, .T. ) ;
#545 = DIRECTION ( 'NONE',  ( 1.000000000000000000, 0.000000000000000000, 0.000000000000000000 ) ) ;
#546 = DIRECTION ( 'NONE',  ( -1.000000000000000000, 0.000000000000000000, -0.000000000000000000 ) ) ;
#547 = ORIENTED_EDGE ( 'NONE', *, *, #437, .F. ) ;
#548 = CARTESIAN_POINT ( 'NONE',  ( 12.01447926064205340, -1.084202172485504434E-16, -7.500000000000003553 ) ) ;
#549 = FACE_OUTER_BOUND ( 'NONE', #436, .T. ) ;
#550 = FACE_OUTER_BOUND ( 'NONE', #611, .T. ) ;
#551 = CARTESIAN_POINT ( 'NONE',  ( 25.98552073935794837, 0.000000000000000000, 0.000000000000000000 ) ) ;
#552 = ORIENTED_EDGE ( 'NONE', *, *, #754, .F. ) ;
#553 = EDGE_CURVE ( 'NONE', #377, #929, #30, .T. ) ;
#554 = EDGE_LOOP ( 'NONE', ( #512, #449 ) ) ;
#555 = DIRECTION ( 'NONE',  ( 1.239088197126290570E-16, -1.653442603354426361E-32, 1.000000000000000000 ) ) ;
#556 = VECTOR ( 'NONE', #143, 1000.000000000000000 ) ;
#557 = CC_DESIGN_APPROVAL ( #245, ( #935 ) ) ;
#558 = DIRECTION ( 'NONE',  ( 0.000000000000000000, -1.000000000000000000, 0.000000000000000000 ) ) ;
#559 = CARTESIAN_POINT ( 'NONE',  ( 30.99999999999999289, 52.00000000000000000, -3.796405077356794326E-15 ) ) ;
#560 = ORIENTED_EDGE ( 'NONE', *, *, #44, .F. ) ;
#561 = ORIENTED_EDGE ( 'NONE', *, *, #710, .F. ) ;
#562 = DIRECTION ( 'NONE',  ( -1.000000000000000000, 0.000000000000000000, 0.000000000000000000 ) ) ;
#563 = CARTESIAN_POINT ( 'NONE',  ( 4.999999999999995559, 52.00000000000000000, -7.500000000000000000 ) ) ;
#564 = CARTESIAN_POINT ( 'NONE',  ( 29.99999999999999289, 3.750000000000027534, -1.199999999999999956 ) ) ;
#565 = EDGE_CURVE ( 'NONE', #1233, #238, #319, .T. ) ;
#566 = ORIENTED_EDGE ( 'NONE', *, *, #57, .F. ) ;
#567 = DESIGN_CONTEXT ( 'detailed design', #1070, 'design' ) ;
#568 = ORIENTED_EDGE ( 'NONE', *, *, #230, .T. ) ;
#569 = DIRECTION ( 'NONE',  ( -0.000000000000000000, -0.000000000000000000, -1.000000000000000000 ) ) ;
#570 = CC_DESIGN_PERSON_AND_ORGANIZATION_ASSIGNMENT ( #447, #1137, ( #887 ) ) ;
#571 = DIRECTION ( 'NONE',  ( -1.000000000000000000, 0.000000000000000000, 1.224646799147353454E-16 ) ) ;
#572 = EDGE_LOOP ( 'NONE', ( #1058, #261, #1072, #922 ) ) ;
#573 = ORIENTED_EDGE ( 'NONE', *, *, #1210, .T. ) ;
#574 = DIRECTION ( 'NONE',  ( 0.000000000000000000, 0.000000000000000000, 1.000000000000000000 ) ) ;
#575 = LINE ( 'NONE', #974, #536 ) ;
#576 = VECTOR ( 'NONE', #53, 1000.000000000000000 ) ;
#577 = VECTOR ( 'NONE', #644, 1000.000000000000000 ) ;
#578 = DIRECTION ( 'NONE',  ( -1.000000000000000000, 0.000000000000000000, 0.000000000000000000 ) ) ;
#579 = VERTEX_POINT ( 'NONE', #390 ) ;
#580 =( NAMED_UNIT ( * ) SI_UNIT ( $, .STERADIAN. ) SOLID_ANGLE_UNIT ( ) );
#581 = LINE ( 'NONE', #515, #168 ) ;
#582 = CARTESIAN_POINT ( 'NONE',  ( 2.999999999999995559, 52.00000000000000000, -3.999999999999998224 ) ) ;
#583 = ORIENTED_EDGE ( 'NONE', *, *, #360, .F. ) ;
#584 = CARTESIAN_POINT ( 'NONE',  ( 0.000000000000000000, 52.00000000000000000, -1.199999999999999956 ) ) ;
#585 = EDGE_CURVE ( 'NONE', #150, #579, #1269, .T. ) ;
#586 = CARTESIAN_POINT ( 'NONE',  ( 9.600000000000010303, 3.750000000000000000, -7.501000000000002998 ) ) ;
#587 = VERTEX_POINT ( 'NONE', #784 ) ;
#588 = EDGE_LOOP ( 'NONE', ( #620, #332, #1184, #1252 ) ) ;
#589 = CARTESIAN_POINT ( 'NONE',  ( 0.000000000000000000, 0.000000000000000000, 0.000000000000000000 ) ) ;
#590 = EDGE_CURVE ( 'NONE', #376, #60, #293, .T. ) ;
#591 = AXIS2_PLACEMENT_3D ( 'NONE', #796, #1092, #1190 ) ;
#592 = AXIS2_PLACEMENT_3D ( 'NONE', #214, #1010, #1001 ) ;
#593 = VECTOR ( 'NONE', #746, 1000.000000000000000 ) ;
#594 = DIRECTION ( 'NONE',  ( -0.5999999999999996447, 0.000000000000000000, 0.8000000000000002665 ) ) ;
#595 = DIRECTION ( 'NONE',  ( 1.000000000000000000, 0.000000000000000000, -1.224646799147353207E-16 ) ) ;
#596 = ORIENTED_EDGE ( 'NONE', *, *, #911, .T. ) ;
#597 = CC_DESIGN_SECURITY_CLASSIFICATION ( #1214, ( #887 ) ) ;
#598 = CARTESIAN_POINT ( 'NONE',  ( 25.99999999999998934, 0.000000000000000000, -1.199999999999999956 ) ) ;
#599 = EDGE_CURVE ( 'NONE', #871, #788, #983, .T. ) ;
#600 = DIRECTION ( 'NONE',  ( 1.239088197126290570E-16, -1.653442603354426361E-32, 1.000000000000000000 ) ) ;
#601 = EDGE_LOOP ( 'NONE', ( #1240, #35 ) ) ;
#602 = DIRECTION ( 'NONE',  ( -0.000000000000000000, -1.000000000000000000, -0.000000000000000000 ) ) ;
#603 = EDGE_CURVE ( 'NONE', #1266, #1114, #868, .T. ) ;
#604 = CARTESIAN_POINT ( 'NONE',  ( 30.99999999999999289, 48.25000000000000000, 0.0009999999999999158867 ) ) ;
#605 = DIRECTION ( 'NONE',  ( -1.000000000000000000, 0.000000000000000000, 0.000000000000000000 ) ) ;
#606 = EDGE_LOOP ( 'NONE', ( #295, #1249, #870, #266 ) ) ;
#607 = CYLINDRICAL_SURFACE ( 'NONE', #1140, 4.000000000000000000 ) ;
#608 = CARTESIAN_POINT ( 'NONE',  ( 30.99999999999999289, 48.25000000000000000, -1.199999999999999956 ) ) ;
#609 = COORDINATED_UNIVERSAL_TIME_OFFSET ( 8, 0, .AHEAD. ) ;
#610 = DIRECTION ( 'NONE',  ( -0.000000000000000000, -0.000000000000000000, 1.000000000000000000 ) ) ;
#611 = EDGE_LOOP ( 'NONE', ( #175, #326, #561, #469 ) ) ;
#612 = VECTOR ( 'NONE', #396, 1000.000000000000000 ) ;
#613 = AXIS2_PLACEMENT_3D ( 'NONE', #672, #281, #369 ) ;
#614 = ORIENTED_EDGE ( 'NONE', *, *, #429, .T. ) ;
#615 = CARTESIAN_POINT ( 'NONE',  ( 35.00000000000000000, 0.000000000000000000, -4.000000000000002665 ) ) ;
#616 = EDGE_CURVE ( 'NONE', #222, #933, #575, .T. ) ;
#617 = CARTESIAN_POINT ( 'NONE',  ( 22.99999999999999289, 52.00000000000000000, -1.199999999999999956 ) ) ;
#618 = CARTESIAN_POINT ( 'NONE',  ( 0.000000000000000000, 0.000000000000000000, 0.000000000000000000 ) ) ;
#619 = CARTESIAN_POINT ( 'NONE',  ( 3.999999999999991562, 48.24999999999999289, -1.199999999999999956 ) ) ;
#620 = ORIENTED_EDGE ( 'NONE', *, *, #20, .F. ) ;
#621 = VERTEX_POINT ( 'NONE', #340 ) ;
#622 = DIRECTION ( 'NONE',  ( 1.000000000000000000, 0.000000000000000000, -0.000000000000000000 ) ) ;
#623 = EDGE_CURVE ( 'NONE', #769, #1150, #492, .T. ) ;
#624 = DIRECTION ( 'NONE',  ( -1.000000000000000000, 0.000000000000000000, 0.000000000000000000 ) ) ;
#625 = DIRECTION ( 'NONE',  ( 0.000000000000000000, -0.000000000000000000, -1.000000000000000000 ) ) ;
#626 = ORIENTED_EDGE ( 'NONE', *, *, #1086, .F. ) ;
#627 = EDGE_CURVE ( 'NONE', #377, #1233, #1129, .T. ) ;
#628 = ORIENTED_EDGE ( 'NONE', *, *, #165, .F. ) ;
#629 = CARTESIAN_POINT ( 'NONE',  ( 30.99999999999999289, 48.25000000000000000, 0.000000000000000000 ) ) ;
#630 = LINE ( 'NONE', #1030, #1007 ) ;
#631 = VECTOR ( 'NONE', #925, 1000.000000000000000 ) ;
#632 = CARTESIAN_POINT ( 'NONE',  ( 4.999999999999993783, 0.000000000000000000, -3.999999999999998224 ) ) ;
#633 = ORIENTED_EDGE ( 'NONE', *, *, #553, .T. ) ;
#634 = VECTOR ( 'NONE', #166, 1000.000000000000000 ) ;
#635 = EDGE_LOOP ( 'NONE', ( #284, #670, #1182, #614, #466, #450, #243, #339, #312, #501, #855, #225, #176, #1141, #428, #391, #940, #951, #1095, #519, #755, #1260 ) ) ;
#636 = PLANE ( 'NONE',  #68 ) ;
#637 = AXIS2_PLACEMENT_3D ( 'NONE', #123, #910, #918 ) ;
#638 = VECTOR ( 'NONE', #4, 1000.000000000000000 ) ;
#639 = DIRECTION ( 'NONE',  ( -0.5999999999999996447, 0.000000000000000000, -0.8000000000000002665 ) ) ;
#640 = CARTESIAN_POINT ( 'NONE',  ( 35.00000000000000000, 52.00000000000000000, -4.000000000000002665 ) ) ;
#641 = ORIENTED_EDGE ( 'NONE', *, *, #510, .F. ) ;
#642 = EDGE_CURVE ( 'NONE', #933, #252, #717, .T. ) ;
#643 = EDGE_LOOP ( 'NONE', ( #416, #520 ) ) ;
#644 = DIRECTION ( 'NONE',  ( 0.000000000000000000, 0.000000000000000000, -1.000000000000000000 ) ) ;
#645 = DIRECTION ( 'NONE',  ( 0.000000000000000000, 0.000000000000000000, -1.000000000000000000 ) ) ;
#646 = EDGE_CURVE ( 'NONE', #671, #100, #728, .T. ) ;
#647 = CARTESIAN_POINT ( 'NONE',  ( 4.999999999999996447, 52.00000000000000000, -3.999999999999999112 ) ) ;
#648 = FACE_OUTER_BOUND ( 'NONE', #876, .T. ) ;
#649 = ORIENTED_EDGE ( 'NONE', *, *, #74, .F. ) ;
#650 = ORIENTED_EDGE ( 'NONE', *, *, #777, .F. ) ;
#651 = CYLINDRICAL_SURFACE ( 'NONE', #661, 1.600000000000000755 ) ;
#652 = LINE ( 'NONE', #1052, #634 ) ;
#653 = CARTESIAN_POINT ( 'NONE',  ( 3.999999999999991562, 48.24999999999999289, 0.000000000000000000 ) ) ;
#654 = ORIENTED_EDGE ( 'NONE', *, *, #782, .T. ) ;
#655 = VECTOR ( 'NONE', #967, 1000.000000000000000 ) ;
#656 = VERTEX_POINT ( 'NONE', #629 ) ;
#657 = DIRECTION ( 'NONE',  ( 1.000000000000000000, 0.000000000000000000, 0.000000000000000000 ) ) ;
#658 = MANIFOLD_SOLID_BREP ( 'ÇÐ³ý-À­Éì4', #389 ) ;
#659 = AXIS2_PLACEMENT_3D ( 'NONE', #28, #690, #1093 ) ;
#660 = EDGE_CURVE ( 'NONE', #148, #587, #64, .T. ) ;
#661 = AXIS2_PLACEMENT_3D ( 'NONE', #961, #346, #740 ) ;
#662 = CC_DESIGN_APPROVAL ( #797, ( #887 ) ) ;
#663 = CARTESIAN_POINT ( 'NONE',  ( 35.00000000000000000, 52.00000000000000000, -4.000000000000002665 ) ) ;
#664 = ORIENTED_EDGE ( 'NONE', *, *, #1165, .F. ) ;
#665 = ORIENTED_EDGE ( 'NONE', *, *, #1268, .F. ) ;
#666 = CARTESIAN_POINT ( 'NONE',  ( 33.99999999999999289, 0.000000000000000000, 0.0009999999999999158867 ) ) ;
#667 = ADVANCED_FACE ( 'NONE', ( #549 ), #636, .T. ) ;
#668 = CYLINDRICAL_SURFACE ( 'NONE', #973, 1.600000000000002531 ) ;
#669 = DIRECTION ( 'NONE',  ( 1.000000000000000000, 0.000000000000000000, 0.000000000000000000 ) ) ;
#670 = ORIENTED_EDGE ( 'NONE', *, *, #873, .F. ) ;
#671 = VERTEX_POINT ( 'NONE', #1235 ) ;
#672 = CARTESIAN_POINT ( 'NONE',  ( 8.000000000000007105, 3.750000000000000000, -1.199999999999999956 ) ) ;
#673 = ADVANCED_FACE ( 'NONE', ( #334, #934 ), #424, .T. ) ;
#674 = CARTESIAN_POINT ( 'NONE',  ( 3.999999999999991562, 52.00000000000000000, 0.0009999999999999158867 ) ) ;
#675 = ORIENTED_EDGE ( 'NONE', *, *, #553, .F. ) ;
#676 = ADVANCED_FACE ( 'NONE', ( #327 ), #924, .F. ) ;
#677 = VERTEX_POINT ( 'NONE', #439 ) ;
#678 = CARTESIAN_POINT ( 'NONE',  ( 30.99999999999999289, 48.25000000000000000, -3.796401669593774120E-15 ) ) ;
#679 = VECTOR ( 'NONE', #682, 1000.000000000000000 ) ;
#680 = DIRECTION ( 'NONE',  ( 0.5999999999999996447, 0.000000000000000000, -0.8000000000000002665 ) ) ;
#681 = VECTOR ( 'NONE', #872, 1000.000000000000000 ) ;
#682 = DIRECTION ( 'NONE',  ( -0.000000000000000000, -0.000000000000000000, 1.000000000000000000 ) ) ;
#683 = ORIENTED_EDGE ( 'NONE', *, *, #956, .F. ) ;
#684 = CARTESIAN_POINT ( 'NONE',  ( 12.01447926064205163, 0.000000000000000000, -7.500000000000000000 ) ) ;
#685 = ADVANCED_FACE ( 'NONE', ( #544 ), #452, .F. ) ;
#686 = DIRECTION ( 'NONE',  ( 1.000000000000000000, 0.000000000000000000, 0.000000000000000000 ) ) ;
#687 = ORIENTED_EDGE ( 'NONE', *, *, #1051, .T. ) ;
#688 = DIRECTION ( 'NONE',  ( -0.000000000000000000, -0.000000000000000000, 1.000000000000000000 ) ) ;
#689 = CARTESIAN_POINT ( 'NONE',  ( 25.39999999999999147, 48.25000000000000000, -7.501000000000002998 ) ) ;
#690 = DIRECTION ( 'NONE',  ( -0.000000000000000000, -0.000000000000000000, 1.000000000000000000 ) ) ;
#691 = VERTEX_POINT ( 'NONE', #42 ) ;
#692 = APPROVAL_STATUS ( 'not_yet_approved' ) ;
#693 = CIRCLE ( 'NONE', #884, 1.600000000000004086 ) ;
#694 = EDGE_CURVE ( 'NONE', #945, #1065, #849, .T. ) ;
#695 = LINE ( 'NONE', #891, #719 ) ;
#696 = AXIS2_PLACEMENT_3D ( 'NONE', #130, #36, #1075 ) ;
#697 = FACE_OUTER_BOUND ( 'NONE', #81, .T. ) ;
#698 = VECTOR ( 'NONE', #254, 1000.000000000000000 ) ;
#699 = CYLINDRICAL_SURFACE ( 'NONE', #89, 1.600000000000000755 ) ;
#700 = ORIENTED_EDGE ( 'NONE', *, *, #20, .T. ) ;
#701 = CC_DESIGN_PERSON_AND_ORGANIZATION_ASSIGNMENT ( #831, #357, ( #1214 ) ) ;
#702 = PLANE ( 'NONE',  #170 ) ;
#703 = CARTESIAN_POINT ( 'NONE',  ( 26.99999999999999289, 48.25000000000000000, -7.500000000000001776 ) ) ;
#704 = PLANE ( 'NONE',  #1180 ) ;
#705 = ORIENTED_EDGE ( 'NONE', *, *, #710, .T. ) ;
#706 = CARTESIAN_POINT ( 'NONE',  ( 38.00000000000000000, 0.000000000000000000, -4.653657836759941941E-15 ) ) ;
#707 = CARTESIAN_POINT ( 'NONE',  ( 26.99999999999999289, 48.25000000000000000, -1.199999999999999956 ) ) ;
#708 = FACE_OUTER_BOUND ( 'NONE', #881, .T. ) ;
#709 = ORIENTED_EDGE ( 'NONE', *, *, #1012, .T. ) ;
#710 = EDGE_CURVE ( 'NONE', #488, #691, #1045, .T. ) ;
#711 = DIRECTION ( 'NONE',  ( -1.334402673828313339E-16, -1.000000000000000000, 0.000000000000000000 ) ) ;
#712 = VECTOR ( 'NONE', #594, 1000.000000000000114 ) ;
#713 = CARTESIAN_POINT ( 'NONE',  ( 3.999999999999977351, 3.749999999999999556, 0.0009999999999999158867 ) ) ;
#714 = AXIS2_PLACEMENT_3D ( 'NONE', #366, #456, #85 ) ;
#715 = DIRECTION ( 'NONE',  ( 1.355252715606880296E-16, -0.000000000000000000, 1.000000000000000000 ) ) ;
#716 = VERTEX_POINT ( 'NONE', #721 ) ;
#717 = CIRCLE ( 'NONE', #1259, 4.000000000000000000 ) ;
#718 = ADVANCED_FACE ( 'NONE', ( #56 ), #941, .T. ) ;
#719 = VECTOR ( 'NONE', #602, 1000.000000000000000 ) ;
#720 = ORIENTED_EDGE ( 'NONE', *, *, #240, .F. ) ;
#721 = CARTESIAN_POINT ( 'NONE',  ( 12.00000000000000711, 3.750000000000001776, 0.000000000000000000 ) ) ;
#722 = CARTESIAN_POINT ( 'NONE',  ( 6.400000000000004796, 3.750000000000000000, -1.199999999999999734 ) ) ;
#723 = APPROVAL_ROLE ( '' ) ;
#724 = ADVANCED_FACE ( 'NONE', ( #158, #511 ), #704, .T. ) ;
#725 = LINE ( 'NONE', #1231, #247 ) ;
#726 = EDGE_LOOP ( 'NONE', ( #471, #1157, #732, #566 ) ) ;
#727 = VERTEX_POINT ( 'NONE', #24 ) ;
#728 = LINE ( 'NONE', #234, #556 ) ;
#729 = CARTESIAN_POINT ( 'NONE',  ( 35.00000000000000000, 52.00000000000000000, -4.000000000000002665 ) ) ;
#730 = APPROVAL_STATUS ( 'not_yet_approved' ) ;
#731 = CARTESIAN_POINT ( 'NONE',  ( 29.99999999999999289, 3.750000000000027534, -1.199999999999999956 ) ) ;
#732 = ORIENTED_EDGE ( 'NONE', *, *, #1176, .T. ) ;
#733 = CARTESIAN_POINT ( 'NONE',  ( 2.999999999999995559, 52.00000000000000000, -3.999999999999998224 ) ) ;
#734 = EDGE_CURVE ( 'NONE', #1265, #345, #409, .T. ) ;
#735 = VECTOR ( 'NONE', #984, 1000.000000000000000 ) ;
#736 = FACE_OUTER_BOUND ( 'NONE', #834, .T. ) ;
#737 = LINE ( 'NONE', #1247, #393 ) ;
#738 = ORIENTED_EDGE ( 'NONE', *, *, #93, .F. ) ;
#739 = VECTOR ( 'NONE', #287, 1000.000000000000000 ) ;
#740 = DIRECTION ( 'NONE',  ( 1.000000000000000000, 0.000000000000000000, 0.000000000000000000 ) ) ;
#741 = DIRECTION ( 'NONE',  ( -0.000000000000000000, -0.000000000000000000, 1.000000000000000000 ) ) ;
#742 = AXIS2_PLACEMENT_3D ( 'NONE', #731, #160, #237 ) ;
#743 = ADVANCED_FACE ( 'NONE', ( #317 ), #211, .F. ) ;
#744 = AXIS2_PLACEMENT_3D ( 'NONE', #563, #750, #775 ) ;
#745 = DIRECTION ( 'NONE',  ( 1.000000000000000000, 0.000000000000000000, 0.000000000000000000 ) ) ;
#746 = DIRECTION ( 'NONE',  ( -0.000000000000000000, -1.000000000000000000, -0.000000000000000000 ) ) ;
#747 = ORIENTED_EDGE ( 'NONE', *, *, #734, .F. ) ;
#748 = EDGE_LOOP ( 'NONE', ( #1218, #205, #1026, #847 ) ) ;
#749 = DIRECTION ( 'NONE',  ( 0.000000000000000000, 0.000000000000000000, 1.000000000000000000 ) ) ;
#750 = DIRECTION ( 'NONE',  ( 1.000000000000000000, -1.334402673828313339E-16, -1.355252715606880296E-16 ) ) ;
#751 = DIRECTION ( 'NONE',  ( 1.000000000000000000, 0.000000000000000000, 0.000000000000000000 ) ) ;
#752 = DIRECTION ( 'NONE',  ( 1.355252715606880296E-16, -0.000000000000000000, 1.000000000000000000 ) ) ;
#753 = VERTEX_POINT ( 'NONE', #500 ) ;
#754 = EDGE_CURVE ( 'NONE', #964, #811, #215, .T. ) ;
#755 = ORIENTED_EDGE ( 'NONE', *, *, #269, .T. ) ;
#756 = LINE ( 'NONE', #1163, #1061 ) ;
#757 = LINE ( 'NONE', #1046, #1053 ) ;
#758 = ORIENTED_EDGE ( 'NONE', *, *, #115, .T. ) ;
#759 = AXIS2_PLACEMENT_3D ( 'NONE', #95, #482, #1 ) ;
#760 = AXIS2_PLACEMENT_3D ( 'NONE', #1068, #1145, #545 ) ;
#761 = EDGE_LOOP ( 'NONE', ( #1055, #1168, #55, #161, #118, #34, #944, #687, #968, #568, #210, #25, #633, #959, #1199, #882 ) ) ;
#762 = FACE_OUTER_BOUND ( 'NONE', #285, .T. ) ;
#763 = EDGE_CURVE ( 'NONE', #135, #382, #988, .T. ) ;
#764 = VECTOR ( 'NONE', #67, 1000.000000000000000 ) ;
#765 = AXIS2_PLACEMENT_3D ( 'NONE', #589, #986, #107 ) ;
#766 = CARTESIAN_POINT ( 'NONE',  ( 30.99999999999999289, 52.00000000000000000, -1.199999999999999956 ) ) ;
#767 = VERTEX_POINT ( 'NONE', #415 ) ;
#768 = EDGE_CURVE ( 'NONE', #965, #671, #1203, .T. ) ;
#769 = VERTEX_POINT ( 'NONE', #619 ) ;
#770 = LINE ( 'NONE', #72, #192 ) ;
#771 = CARTESIAN_POINT ( 'NONE',  ( 25.39999999999999147, 48.25000000000000000, -1.199999999999999734 ) ) ;
#772 = ORIENTED_EDGE ( 'NONE', *, *, #1074, .T. ) ;
#773 = ORIENTED_EDGE ( 'NONE', *, *, #1186, .F. ) ;
#774 = LINE ( 'NONE', #383, #26 ) ;
#775 = DIRECTION ( 'NONE',  ( -1.355252715606880296E-16, 0.000000000000000000, -1.000000000000000000 ) ) ;
#776 = CARTESIAN_POINT ( 'NONE',  ( 11.99999999999999289, 52.00000000000000000, 0.0009999999999999158867 ) ) ;
#777 = EDGE_CURVE ( 'NONE', #238, #788, #798, .T. ) ;
#778 = DIRECTION ( 'NONE',  ( -0.000000000000000000, -1.000000000000000000, -0.000000000000000000 ) ) ;
#779 = VERTEX_POINT ( 'NONE', #305 ) ;
#780 = CARTESIAN_POINT ( 'NONE',  ( 4.000000000000006217, 3.750000000000000000, -1.199999999999999956 ) ) ;
#781 = VECTOR ( 'NONE', #80, 1000.000000000000000 ) ;
#782 = EDGE_CURVE ( 'NONE', #964, #1064, #513, .T. ) ;
#783 = CARTESIAN_POINT ( 'NONE',  ( 25.99999999999999645, 3.750000000000027534, 0.000000000000000000 ) ) ;
#784 = CARTESIAN_POINT ( 'NONE',  ( 22.99999999999999289, 52.00000000000000000, -2.816687638038911563E-15 ) ) ;
#785 = VECTOR ( 'NONE', #816, 1000.000000000000000 ) ;
#786 = VECTOR ( 'NONE', #3, 1000.000000000000000 ) ;
#787 = CARTESIAN_POINT ( 'NONE',  ( 35.00000000000000000, 52.00000000000000000, -4.000000000000002665 ) ) ;
#788 = VERTEX_POINT ( 'NONE', #993 ) ;
#789 = PERSON_AND_ORGANIZATION_ROLE ( 'design_owner' ) ;
#790 = DIRECTION ( 'NONE',  ( -1.000000000000000000, 0.000000000000000000, 0.000000000000000000 ) ) ;
#791 = DIRECTION ( 'NONE',  ( 1.000000000000000000, 0.000000000000000000, 0.000000000000000000 ) ) ;
#792 = ORIENTED_EDGE ( 'NONE', *, *, #623, .T. ) ;
#793 = PLANE ( 'NONE',  #990 ) ;
#794 = ADVANCED_FACE ( 'NONE', ( #810 ), #112, .F. ) ;
#795 = LINE ( 'NONE', #114, #514 ) ;
#796 = CARTESIAN_POINT ( 'NONE',  ( 29.99999999999999289, 3.750000000000027534, -7.500000000000001776 ) ) ;
#797 = APPROVAL ( #236, 'æœª' ) ;
#798 = LINE ( 'NONE', #1191, #374 ) ;
#799 = EDGE_LOOP ( 'NONE', ( #1193, #952, #1172, #69 ) ) ;
#800 = VECTOR ( 'NONE', #778, 1000.000000000000000 ) ;
#801 = AXIS2_PLACEMENT_3D ( 'NONE', #604, #624, #120 ) ;
#802 = CARTESIAN_POINT ( 'NONE',  ( 6.400000000000005684, 3.750000000000000000, -7.501000000000002998 ) ) ;
#803 = VECTOR ( 'NONE', #33, 1000.000000000000000 ) ;
#804 = CARTESIAN_POINT ( 'NONE',  ( 0.000000000000000000, 0.000000000000000000, -1.199999999999999956 ) ) ;
#805 = VECTOR ( 'NONE', #21, 1000.000000000000000 ) ;
#806 = CARTESIAN_POINT ( 'NONE',  ( 22.99999999999999289, 48.25000000000000000, -1.199999999999999956 ) ) ;
#807 = ORIENTED_EDGE ( 'NONE', *, *, #763, .F. ) ;
#808 = ADVANCED_FACE ( 'NONE', ( #708 ), #699, .F. ) ;
#809 = PLANE ( 'NONE',  #370 ) ;
#810 = FACE_OUTER_BOUND ( 'NONE', #104, .T. ) ;
#811 = VERTEX_POINT ( 'NONE', #504 ) ;
#812 = CARTESIAN_POINT ( 'NONE',  ( 4.999999999999995559, 52.00000000000000000, -7.500000000000000000 ) ) ;
#813 = CARTESIAN_POINT ( 'NONE',  ( 22.99999999999999289, 52.00000000000000000, 0.0009999999999999158867 ) ) ;
#814 = PERSON_AND_ORGANIZATION ( #404, #1119 ) ;
#815 = ADVANCED_FACE ( 'NONE', ( #899 ), #221, .F. ) ;
#816 = DIRECTION ( 'NONE',  ( -1.000000000000000000, 0.000000000000000000, 1.239088197126290570E-16 ) ) ;
#817 = ORIENTED_EDGE ( 'NONE', *, *, #768, .F. ) ;
#818 = ORIENTED_EDGE ( 'NONE', *, *, #379, .F. ) ;
#819 = DIRECTION ( 'NONE',  ( -0.000000000000000000, 1.000000000000000000, -0.000000000000000000 ) ) ;
#820 = AXIS2_PLACEMENT_3D ( 'NONE', #979, #110, #791 ) ;
#821 = EDGE_CURVE ( 'NONE', #933, #212, #39, .T. ) ;
#822 = AXIS2_PLACEMENT_3D ( 'NONE', #468, #864, #356 ) ;
#823 = CARTESIAN_POINT ( 'NONE',  ( 32.99999999999999289, 0.000000000000000000, -7.500000000000003553 ) ) ;
#824 = DIRECTION ( 'NONE',  ( 1.000000000000000000, 0.000000000000000000, -1.355252715606880543E-16 ) ) ;
#825 = AXIS2_PLACEMENT_3D ( 'NONE', #18, #610, #998 ) ;
#826 = VERTEX_POINT ( 'NONE', #524 ) ;
#827 = CIRCLE ( 'NONE', #412, 3.999999999999996447 ) ;
#828 = ORIENTED_EDGE ( 'NONE', *, *, #498, .F. ) ;
#829 = CARTESIAN_POINT ( 'NONE',  ( 26.99999999999999289, 48.25000000000000000, -1.199999999999999956 ) ) ;
#830 = PLANE ( 'NONE',  #592 ) ;
#831 = PERSON_AND_ORGANIZATION ( #404, #1119 ) ;
#832 = DIRECTION ( 'NONE',  ( -1.000000000000000000, 0.000000000000000000, 1.239088197126290570E-16 ) ) ;
#833 = ORIENTED_EDGE ( 'NONE', *, *, #694, .T. ) ;
#834 = EDGE_LOOP ( 'NONE', ( #583, #276, #354, #1071 ) ) ;
#835 = CARTESIAN_POINT ( 'NONE',  ( 29.99999999999999289, 3.750000000000027534, -7.501000000000002998 ) ) ;
#836 = EDGE_CURVE ( 'NONE', #238, #410, #1198, .T. ) ;
#837 = CARTESIAN_POINT ( 'NONE',  ( 28.39999999999999147, 3.750000000000027534, -7.500000000000001776 ) ) ;
#838 = CARTESIAN_POINT ( 'NONE',  ( 12.00000000000000888, 3.750000000000000444, -1.199999999999999956 ) ) ;
#839 = VERTEX_POINT ( 'NONE', #1208 ) ;
#840 = ADVANCED_FACE ( 'NONE', ( #231 ), #134, .F. ) ;
#841 = CARTESIAN_POINT ( 'NONE',  ( 7.999999999999992895, 48.24999999999999289, -1.199999999999999956 ) ) ;
#842 = CARTESIAN_POINT ( 'NONE',  ( 33.99999999999999289, 0.000000000000000000, -4.163799117100999770E-15 ) ) ;
#843 = PERSON_AND_ORGANIZATION ( #404, #1119 ) ;
#844 = CARTESIAN_POINT ( 'NONE',  ( 0.000000000000000000, 52.00000000000000000, 0.000000000000000000 ) ) ;
#845 = AXIS2_PLACEMENT_3D ( 'NONE', #707, #228, #539 ) ;
#846 = VERTEX_POINT ( 'NONE', #299 ) ;
#847 = ORIENTED_EDGE ( 'NONE', *, *, #1031, .T. ) ;
#848 = CARTESIAN_POINT ( 'NONE',  ( 28.59999999999999432, 48.25000000000000000, -7.500000000000001776 ) ) ;
#849 = LINE ( 'NONE', #1228, #11 ) ;
#850 = VECTOR ( 'NONE', #595, 1000.000000000000000 ) ;
#851 = CARTESIAN_POINT ( 'NONE',  ( 19.00000000000000000, -0.4499999999999990119, 0.000000000000000000 ) ) ;
#852 = DATE_AND_TIME ( #434, #497 ) ;
#853 = EDGE_CURVE ( 'NONE', #779, #1048, #352, .T. ) ;
#854 = CARTESIAN_POINT ( 'NONE',  ( 0.000000000000000000, 52.00000000000000000, 0.000000000000000000 ) ) ;
#855 = ORIENTED_EDGE ( 'NONE', *, *, #149, .T. ) ;
#856 = EDGE_LOOP ( 'NONE', ( #994, #628, #1188, #664 ) ) ;
#857 = DIRECTION ( 'NONE',  ( -1.239088197126290570E-16, 1.653442603354426361E-32, -1.000000000000000000 ) ) ;
#858 = LINE ( 'NONE', #475, #86 ) ;
#859 = ORIENTED_EDGE ( 'NONE', *, *, #351, .T. ) ;
#860 = EDGE_CURVE ( 'NONE', #150, #677, #251, .T. ) ;
#861 = VERTEX_POINT ( 'NONE', #632 ) ;
#862 = FACE_OUTER_BOUND ( 'NONE', #394, .T. ) ;
#863 = CC_DESIGN_DATE_AND_TIME_ASSIGNMENT ( #540, #457, ( #935 ) ) ;
#864 = DIRECTION ( 'NONE',  ( -0.000000000000000000, -0.000000000000000000, 1.000000000000000000 ) ) ;
#865 = EDGE_LOOP ( 'NONE', ( #980, #19, #817, #1167, #306, #542, #1160, #818, #1227, #1156 ) ) ;
#866 = EDGE_LOOP ( 'NONE', ( #1173, #828, #1204, #705 ) ) ;
#867 = LINE ( 'NONE', #1261, #1142 ) ;
#868 = CIRCLE ( 'NONE', #696, 1.600000000000000755 ) ;
#869 = DIRECTION ( 'NONE',  ( 1.355252715606880543E-16, -0.000000000000000000, 1.000000000000000000 ) ) ;
#870 = ORIENTED_EDGE ( 'NONE', *, *, #1086, .T. ) ;
#871 = VERTEX_POINT ( 'NONE', #464 ) ;
#872 = DIRECTION ( 'NONE',  ( -1.000000000000000000, 0.000000000000000000, 0.000000000000000000 ) ) ;
#873 = EDGE_CURVE ( 'NONE', #727, #811, #242, .T. ) ;
#874 = DIRECTION ( 'NONE',  ( -0.000000000000000000, -0.000000000000000000, 1.000000000000000000 ) ) ;
#875 = CARTESIAN_POINT ( 'NONE',  ( 25.99999999999998934, 3.750000000000027089, -1.199999999999999956 ) ) ;
#876 = EDGE_LOOP ( 'NONE', ( #970, #833, #859, #338 ) ) ;
#877 = CARTESIAN_POINT ( 'NONE',  ( 11.99999999999999467, 48.24999999999999289, -1.199999999999999956 ) ) ;
#878 = EDGE_CURVE ( 'NONE', #88, #871, #927, .T. ) ;
#879 = FACE_OUTER_BOUND ( 'NONE', #71, .T. ) ;
#880 = CARTESIAN_POINT ( 'NONE',  ( 26.99999999999999289, 48.25000000000000000, -1.199999999999999734 ) ) ;
#881 = EDGE_LOOP ( 'NONE', ( #77, #700, #156, #16 ) ) ;
#882 = ORIENTED_EDGE ( 'NONE', *, *, #873, .T. ) ;
#883 = DIRECTION ( 'NONE',  ( 1.000000000000000000, 0.000000000000000000, -1.224646799147353207E-16 ) ) ;
#884 = AXIS2_PLACEMENT_3D ( 'NONE', #1153, #179, #751 ) ;
#885 = DIRECTION ( 'NONE',  ( -0.000000000000000000, -0.000000000000000000, 1.000000000000000000 ) ) ;
#886 = VECTOR ( 'NONE', #711, 1000.000000000000000 ) ;
#887 = PRODUCT_DEFINITION_FORMATION_WITH_SPECIFIED_SOURCE ( 'ä»', '', #372, .NOT_KNOWN. ) ;
#888 = ORIENTED_EDGE ( 'NONE', *, *, #860, .T. ) ;
#889 = ADVANCED_FACE ( 'NONE', ( #1139 ), #1217, .F. ) ;
#890 = EDGE_LOOP ( 'NONE', ( #807, #939, #1019, #683 ) ) ;
#891 = CARTESIAN_POINT ( 'NONE',  ( 38.00000000000000000, 52.00000000000000000, -4.653657836759941941E-15 ) ) ;
#892 = DIRECTION ( 'NONE',  ( -0.5999999999999996447, 0.000000000000000000, -0.8000000000000002665 ) ) ;
#893 = DIRECTION ( 'NONE',  ( 1.000000000000000000, 0.000000000000000000, 0.000000000000000000 ) ) ;
#894 = EDGE_CURVE ( 'NONE', #846, #861, #737, .T. ) ;
#895 = ORIENTED_EDGE ( 'NONE', *, *, #1138, .T. ) ;
#896 = CARTESIAN_POINT ( 'NONE',  ( 33.99999999999999289, 3.750000000000027534, -1.199999999999999956 ) ) ;
#897 = EDGE_CURVE ( 'NONE', #525, #846, #48, .T. ) ;
#898 = CARTESIAN_POINT ( 'NONE',  ( 9.599999999999994316, 48.24999999999999289, -1.199999999999999734 ) ) ;
#899 = FACE_OUTER_BOUND ( 'NONE', #325, .T. ) ;
#900 = EDGE_LOOP ( 'NONE', ( #1121, #1226, #792, #54 ) ) ;
#901 = AXIS2_PLACEMENT_3D ( 'NONE', #508, #321, #440 ) ;
#902 = EDGE_CURVE ( 'NONE', #1266, #1162, #1239, .T. ) ;
#903 = CARTESIAN_POINT ( 'NONE',  ( 8.000000000000007105, 3.750000000000000000, -1.199999999999999734 ) ) ;
#904 = CIRCLE ( 'NONE', #348, 1.600000000000000755 ) ;
#905 = AXIS2_PLACEMENT_3D ( 'NONE', #75, #1024, #625 ) ;
#906 = DIRECTION ( 'NONE',  ( 0.000000000000000000, 1.000000000000000000, 0.000000000000000000 ) ) ;
#907 = VECTOR ( 'NONE', #229, 1000.000000000000000 ) ;
#908 = DIRECTION ( 'NONE',  ( 0.000000000000000000, 0.000000000000000000, 1.000000000000000000 ) ) ;
#909 = ORIENTED_EDGE ( 'NONE', *, *, #1186, .T. ) ;
#910 = DIRECTION ( 'NONE',  ( 1.000000000000000000, -0.000000000000000000, 0.000000000000000000 ) ) ;
#911 = EDGE_CURVE ( 'NONE', #769, #964, #725, .T. ) ;
#912 = CARTESIAN_POINT ( 'NONE',  ( 0.000000000000000000, 0.000000000000000000, 0.000000000000000000 ) ) ;
#913 = DIRECTION ( 'NONE',  ( -1.000000000000000000, 0.000000000000000000, 0.000000000000000000 ) ) ;
#914 = CARTESIAN_POINT ( 'NONE',  ( 29.99999999999999289, 3.750000000000027534, -7.500000000000001776 ) ) ;
#915 = ORIENTED_EDGE ( 'NONE', *, *, #1268, .T. ) ;
#916 = EDGE_CURVE ( 'NONE', #150, #753, #154, .T. ) ;
#917 = ORIENTED_EDGE ( 'NONE', *, *, #429, .F. ) ;
#918 = DIRECTION ( 'NONE',  ( 0.000000000000000000, 0.000000000000000000, -1.000000000000000000 ) ) ;
#919 = FACE_BOUND ( 'NONE', #643, .T. ) ;
#920 = CALENDAR_DATE ( 2026, 23, 4 ) ;
#921 = CARTESIAN_POINT ( 'NONE',  ( 35.00000000000000000, 52.00000000000000000, -4.000000000000002665 ) ) ;
#922 = ORIENTED_EDGE ( 'NONE', *, *, #1021, .T. ) ;
#923 = VERTEX_POINT ( 'NONE', #559 ) ;
#924 = CYLINDRICAL_SURFACE ( 'NONE', #144, 1.600000000000000755 ) ;
#925 = DIRECTION ( 'NONE',  ( 0.000000000000000000, 1.000000000000000000, 0.000000000000000000 ) ) ;
#926 = APPROVAL_ROLE ( '' ) ;
#927 = LINE ( 'NONE', #640, #593 ) ;
#928 = VECTOR ( 'NONE', #1115, 1000.000000000000000 ) ;
#929 = VERTEX_POINT ( 'NONE', #147 ) ;
#930 = ADVANCED_FACE ( 'NONE', ( #958 ), #1147, .T. ) ;
#931 = LOCAL_TIME ( 18, 57, 55.00000000000000000, #1023 ) ;
#932 = LOCAL_TIME ( 18, 57, 55.00000000000000000, #1230 ) ;
#933 = VERTEX_POINT ( 'NONE', #541 ) ;
#934 = FACE_BOUND ( 'NONE', #362, .T. ) ;
#935 = PRODUCT_DEFINITION ( 'æœ', '', #887, #567 ) ;
#936 = LINE ( 'NONE', #912, #203 ) ;
#937 = APPROVAL_DATE_TIME ( #852, #797 ) ;
#938 = LINE ( 'NONE', #1032, #576 ) ;
#939 = ORIENTED_EDGE ( 'NONE', *, *, #470, .T. ) ;
#940 = ORIENTED_EDGE ( 'NONE', *, *, #1244, .T. ) ;
#941 = PLANE ( 'NONE',  #1057 ) ;
#942 = DIRECTION ( 'NONE',  ( -0.000000000000000000, -0.000000000000000000, 1.000000000000000000 ) ) ;
#943 = CARTESIAN_POINT ( 'NONE',  ( 33.99999999999999289, 0.000000000000000000, -1.199999999999999956 ) ) ;
#944 = ORIENTED_EDGE ( 'NONE', *, *, #360, .T. ) ;
#945 = VERTEX_POINT ( 'NONE', #943 ) ;
#946 = CARTESIAN_POINT ( 'NONE',  ( 35.00000000000000000, 52.00000000000000000, -4.000000000000002665 ) ) ;
#947 = CARTESIAN_POINT ( 'NONE',  ( 0.000000000000000000, 52.00000000000000000, 0.000000000000000000 ) ) ;
#948 = PLANE ( 'NONE',  #1098 ) ;
#949 = FACE_OUTER_BOUND ( 'NONE', #1034, .T. ) ;
#950 = AXIS2_PLACEMENT_3D ( 'NONE', #1016, #132, #523 ) ;
#951 = ORIENTED_EDGE ( 'NONE', *, *, #316, .F. ) ;
#952 = ORIENTED_EDGE ( 'NONE', *, *, #616, .F. ) ;
#953 = CARTESIAN_POINT ( 'NONE',  ( 6.399999999999992362, 48.24999999999999289, -1.199999999999999734 ) ) ;
#954 = VECTOR ( 'NONE', #832, 1000.000000000000000 ) ;
#955 = VECTOR ( 'NONE', #91, 1000.000000000000000 ) ;
#956 = EDGE_CURVE ( 'NONE', #382, #839, #938, .T. ) ;
#957 = CARTESIAN_POINT ( 'NONE',  ( 9.600000000000010303, 3.750000000000000000, -7.499999999999999112 ) ) ;
#958 = FACE_OUTER_BOUND ( 'NONE', #430, .T. ) ;
#959 = ORIENTED_EDGE ( 'NONE', *, *, #1183, .T. ) ;
#960 = ORIENTED_EDGE ( 'NONE', *, *, #417, .F. ) ;
#961 = CARTESIAN_POINT ( 'NONE',  ( 26.99999999999999289, 48.25000000000000000, -7.501000000000002998 ) ) ;
#962 = ADVANCED_FACE ( 'NONE', ( #648, #337 ), #1047, .T. ) ;
#963 = DIRECTION ( 'NONE',  ( 1.000000000000000000, 0.000000000000000000, 0.000000000000000000 ) ) ;
#964 = VERTEX_POINT ( 'NONE', #653 ) ;
#965 = VERTEX_POINT ( 'NONE', #551 ) ;
#966 = CARTESIAN_POINT ( 'NONE',  ( 29.99999999999999289, 3.750000000000027534, 0.000000000000000000 ) ) ;
#967 = DIRECTION ( 'NONE',  ( -0.000000000000000000, -0.000000000000000000, 1.000000000000000000 ) ) ;
#968 = ORIENTED_EDGE ( 'NONE', *, *, #38, .T. ) ;
#969 = ADVANCED_FACE ( 'NONE', ( #949 ), #458, .T. ) ;
#970 = ORIENTED_EDGE ( 'NONE', *, *, #111, .F. ) ;
#971 = LINE ( 'NONE', #548, #577 ) ;
#972 = VECTOR ( 'NONE', #258, 1000.000000000000000 ) ;
#973 = AXIS2_PLACEMENT_3D ( 'NONE', #1067, #1111, #303 ) ;
#974 = CARTESIAN_POINT ( 'NONE',  ( 22.99999999999999289, 48.25000000000000000, -1.199999999999999956 ) ) ;
#975 = EDGE_CURVE ( 'NONE', #60, #142, #248, .T. ) ;
#976 = CARTESIAN_POINT ( 'NONE',  ( 3.999999999999991562, 0.000000000000000000, -4.898587196589401982E-16 ) ) ;
#977 = ORIENTED_EDGE ( 'NONE', *, *, #1097, .F. ) ;
#978 = CARTESIAN_POINT ( 'NONE',  ( 8.000000000000007105, 3.750000000000000000, -1.199999999999999956 ) ) ;
#979 = CARTESIAN_POINT ( 'NONE',  ( 19.00000000000000000, -0.4499999999999990119, -7.500000000000003553 ) ) ;
#980 = ORIENTED_EDGE ( 'NONE', *, *, #111, .T. ) ;
#981 = CARTESIAN_POINT ( 'NONE',  ( 0.000000000000000000, 52.00000000000000000, -1.199999999999999956 ) ) ;
#982 = ADVANCED_FACE ( 'NONE', ( #1132 ), #442, .F. ) ;
#983 = LINE ( 'NONE', #615, #612 ) ;
#984 = DIRECTION ( 'NONE',  ( -0.000000000000000000, -0.000000000000000000, 1.000000000000000000 ) ) ;
#985 = ORIENTED_EDGE ( 'NONE', *, *, #585, .T. ) ;
#986 = DIRECTION ( 'NONE',  ( 0.000000000000000000, 0.000000000000000000, 1.000000000000000000 ) ) ;
#987 = CIRCLE ( 'NONE', #714, 1.600000000000001643 ) ;
#988 = CIRCLE ( 'NONE', #308, 1.600000000000000755 ) ;
#989 = CARTESIAN_POINT ( 'NONE',  ( 0.000000000000000000, 52.00000000000000000, 0.000000000000000000 ) ) ;
#990 = AXIS2_PLACEMENT_3D ( 'NONE', #1179, #496, #32 ) ;
#991 = ADVANCED_FACE ( 'NONE', ( #79 ), #668, .F. ) ;
#992 = LINE ( 'NONE', #8, #183 ) ;
#993 = CARTESIAN_POINT ( 'NONE',  ( 33.00000000000000000, 0.000000000000000000, -4.000000000000002665 ) ) ;
#994 = ORIENTED_EDGE ( 'NONE', *, *, #260, .T. ) ;
#995 = CC_DESIGN_PERSON_AND_ORGANIZATION_ASSIGNMENT ( #814, #1207, ( #935 ) ) ;
#996 = FACE_OUTER_BOUND ( 'NONE', #1187, .T. ) ;
#997 = CARTESIAN_POINT ( 'NONE',  ( 7.999999999999992895, 48.24999999999999289, -7.499999999999999112 ) ) ;
#998 = DIRECTION ( 'NONE',  ( 1.000000000000000000, 0.000000000000000000, 0.000000000000000000 ) ) ;
#999 = ORIENTED_EDGE ( 'NONE', *, *, #694, .F. ) ;
#1000 = CARTESIAN_POINT ( 'NONE',  ( 12.00000000000000888, 3.750000000000000444, 0.0009999999999999158867 ) ) ;
#1001 = DIRECTION ( 'NONE',  ( 0.000000000000000000, 0.000000000000000000, -1.000000000000000000 ) ) ;
#1002 = CARTESIAN_POINT ( 'NONE',  ( 3.999999999999991562, 48.24999999999999289, -4.897968017497991711E-16 ) ) ;
#1003 = VERTEX_POINT ( 'NONE', #213 ) ;
#1004 = EDGE_CURVE ( 'NONE', #410, #965, #1100, .T. ) ;
#1005 = DIRECTION ( 'NONE',  ( 0.000000000000000000, 0.000000000000000000, -1.000000000000000000 ) ) ;
#1006 = CIRCLE ( 'NONE', #1028, 1.600000000000000755 ) ;
#1007 = VECTOR ( 'NONE', #146, 1000.000000000000000 ) ;
#1008 = DIRECTION ( 'NONE',  ( -0.000000000000000000, -0.000000000000000000, 1.000000000000000000 ) ) ;
#1009 = VECTOR ( 'NONE', #311, 1000.000000000000000 ) ;
#1010 = DIRECTION ( 'NONE',  ( 1.000000000000000000, -0.000000000000000000, 0.000000000000000000 ) ) ;
#1011 = CALENDAR_DATE ( 2026, 23, 4 ) ;
#1012 = EDGE_CURVE ( 'NONE', #300, #142, #1201, .T. ) ;
#1013 = CARTESIAN_POINT ( 'NONE',  ( 7.999999999999992895, 48.24999999999999289, -1.199999999999999956 ) ) ;
#1014 = EDGE_LOOP ( 'NONE', ( #267, #359 ) ) ;
#1015 = DIRECTION ( 'NONE',  ( 1.000000000000000000, 0.000000000000000000, 0.000000000000000000 ) ) ;
#1016 = CARTESIAN_POINT ( 'NONE',  ( 33.00000000000000000, 52.00000000000000000, -7.500000000000003553 ) ) ;
#1017 = LINE ( 'NONE', #584, #681 ) ;
#1018 = DIRECTION ( 'NONE',  ( -0.000000000000000000, -0.000000000000000000, 1.000000000000000000 ) ) ;
#1019 = ORIENTED_EDGE ( 'NONE', *, *, #392, .F. ) ;
#1020 = DIRECTION ( 'NONE',  ( 0.000000000000000000, 0.000000000000000000, 1.000000000000000000 ) ) ;
#1021 = EDGE_CURVE ( 'NONE', #1065, #1265, #485, .T. ) ;
#1022 = CARTESIAN_POINT ( 'NONE',  ( 22.99999999999999289, 48.25000000000000000, 0.000000000000000000 ) ) ;
#1023 = COORDINATED_UNIVERSAL_TIME_OFFSET ( 8, 0, .AHEAD. ) ;
#1024 = DIRECTION ( 'NONE',  ( 0.000000000000000000, -1.000000000000000000, 0.000000000000000000 ) ) ;
#1025 = ORIENTED_EDGE ( 'NONE', *, *, #57, .T. ) ;
#1026 = ORIENTED_EDGE ( 'NONE', *, *, #38, .F. ) ;
#1027 = DIRECTION ( 'NONE',  ( 1.000000000000000000, 0.000000000000000000, 0.000000000000000000 ) ) ;
#1028 = AXIS2_PLACEMENT_3D ( 'NONE', #997, #116, #503 ) ;
#1029 = CIRCLE ( 'NONE', #223, 4.000000000000000000 ) ;
#1030 = CARTESIAN_POINT ( 'NONE',  ( 3.999999999999991562, 0.000000000000000000, 0.0009999999999999158867 ) ) ;
#1031 = EDGE_CURVE ( 'NONE', #767, #479, #695, .T. ) ;
#1032 = CARTESIAN_POINT ( 'NONE',  ( 31.59999999999999787, 3.750000000000027534, -7.501000000000002998 ) ) ;
#1033 = VECTOR ( 'NONE', #313, 1000.000000000000000 ) ;
#1034 = EDGE_LOOP ( 'NONE', ( #888, #1127, #917, #1049, #162, #49, #76, #465, #200, #1041 ) ) ;
#1035 = CIRCLE ( 'NONE', #613, 4.000000000000000000 ) ;
#1036 = EDGE_LOOP ( 'NONE', ( #181, #650, #40, #573 ) ) ;
#1037 = DIRECTION ( 'NONE',  ( 1.000000000000000000, 0.000000000000000000, 0.000000000000000000 ) ) ;
#1038 = DIRECTION ( 'NONE',  ( 1.000000000000000000, 0.000000000000000000, 0.000000000000000000 ) ) ;
#1039 = CARTESIAN_POINT ( 'NONE',  ( 22.99999999999999289, 48.25000000000000000, -2.816596307857362202E-15 ) ) ;
#1040 = CARTESIAN_POINT ( 'NONE',  ( 32.99999999999999289, 0.000000000000000000, -7.500000000000003553 ) ) ;
#1041 = ORIENTED_EDGE ( 'NONE', *, *, #585, .F. ) ;
#1042 = ADVANCED_FACE ( 'NONE', ( #879 ), #400, .F. ) ;
#1043 = ORIENTED_EDGE ( 'NONE', *, *, #189, .T. ) ;
#1044 = CARTESIAN_POINT ( 'NONE',  ( -9.699737293129240236E-16, 6.613770413417702159E-32, -7.499999999999998224 ) ) ;
#1045 = LINE ( 'NONE', #733, #1080 ) ;
#1046 = CARTESIAN_POINT ( 'NONE',  ( 38.00000000000000000, 0.000000000000000000, -4.653657836759941941E-15 ) ) ;
#1047 = PLANE ( 'NONE',  #742 ) ;
#1048 = VERTEX_POINT ( 'NONE', #783 ) ;
#1049 = ORIENTED_EDGE ( 'NONE', *, *, #1170, .F. ) ;
#1050 = DIRECTION ( 'NONE',  ( 1.000000000000000000, 0.000000000000000000, 0.000000000000000000 ) ) ;
#1051 = EDGE_CURVE ( 'NONE', #923, #767, #1091, .T. ) ;
#1052 = CARTESIAN_POINT ( 'NONE',  ( 0.000000000000000000, 0.000000000000000000, 0.000000000000000000 ) ) ;
#1053 = VECTOR ( 'NONE', #639, 1000.000000000000114 ) ;
#1054 = CARTESIAN_POINT ( 'NONE',  ( 25.99999999999999289, 3.750000000000027534, -1.199999999999999956 ) ) ;
#1055 = ORIENTED_EDGE ( 'NONE', *, *, #510, .T. ) ;
#1056 = EDGE_CURVE ( 'NONE', #1133, #1003, #795, .T. ) ;
#1057 = AXIS2_PLACEMENT_3D ( 'NONE', #431, #1134, #151 ) ;
#1058 = ORIENTED_EDGE ( 'NONE', *, *, #1149, .T. ) ;
#1059 = LINE ( 'NONE', #172, #907 ) ;
#1060 = VECTOR ( 'NONE', #527, 1000.000000000000000 ) ;
#1061 = VECTOR ( 'NONE', #1158, 1000.000000000000000 ) ;
#1062 = CC_DESIGN_APPROVAL ( #1200, ( #1214 ) ) ;
#1063 = DIRECTION ( 'NONE',  ( 0.000000000000000000, 0.000000000000000000, 1.000000000000000000 ) ) ;
#1064 = VERTEX_POINT ( 'NONE', #208 ) ;
#1065 = VERTEX_POINT ( 'NONE', #1105 ) ;
#1066 = CARTESIAN_POINT ( 'NONE',  ( 29.99999999999999289, 3.750000000000027534, -7.501000000000002998 ) ) ;
#1067 = CARTESIAN_POINT ( 'NONE',  ( 8.000000000000007105, 3.750000000000000000, -7.501000000000002998 ) ) ;
#1068 = CARTESIAN_POINT ( 'NONE',  ( 29.99999999999999289, 3.750000000000027534, -1.199999999999999734 ) ) ;
#1069 = ADVANCED_FACE ( 'NONE', ( #996 ), #702, .T. ) ;
#1070 = APPLICATION_CONTEXT ( 'configuration controlled 3d designs of mechanical parts and assemblies' ) ;
#1071 = ORIENTED_EDGE ( 'NONE', *, *, #1244, .F. ) ;
#1072 = ORIENTED_EDGE ( 'NONE', *, *, #351, .F. ) ;
#1073 = CYLINDRICAL_SURFACE ( 'NONE', #1216, 1.600000000000004086 ) ;
#1074 = EDGE_CURVE ( 'NONE', #142, #60, #109, .T. ) ;
#1075 = DIRECTION ( 'NONE',  ( -1.000000000000000000, 0.000000000000000000, 0.000000000000000000 ) ) ;
#1076 = VECTOR ( 'NONE', #202, 1000.000000000000000 ) ;
#1077 = VERTEX_POINT ( 'NONE', #277 ) ;
#1078 = ORIENTED_EDGE ( 'NONE', *, *, #82, .F. ) ;
#1079 = LINE ( 'NONE', #877, #786 ) ;
#1080 = VECTOR ( 'NONE', #255, 1000.000000000000000 ) ;
#1081 = LOCAL_TIME ( 18, 57, 55.00000000000000000, #609 ) ;
#1082 = LINE ( 'NONE', #674, #188 ) ;
#1083 = ORIENTED_EDGE ( 'NONE', *, *, #1097, .T. ) ;
#1084 = VERTEX_POINT ( 'NONE', #157 ) ;
#1085 = LINE ( 'NONE', #618, #125 ) ;
#1086 = EDGE_CURVE ( 'NONE', #753, #1242, #1035, .T. ) ;
#1087 = PLANE ( 'NONE',  #186 ) ;
#1088 = DIRECTION ( 'NONE',  ( -0.000000000000000000, -0.000000000000000000, -1.000000000000000000 ) ) ;
#1089 = ORIENTED_EDGE ( 'NONE', *, *, #642, .F. ) ;
#1090 = EDGE_CURVE ( 'NONE', #945, #345, #364, .T. ) ;
#1091 = LINE ( 'NONE', #989, #805 ) ;
#1092 = DIRECTION ( 'NONE',  ( 1.239088197126290570E-16, -1.653442603354426361E-32, 1.000000000000000000 ) ) ;
#1093 = DIRECTION ( 'NONE',  ( 1.000000000000000000, 0.000000000000000000, 0.000000000000000000 ) ) ;
#1094 = VECTOR ( 'NONE', #1131, 1000.000000000000000 ) ;
#1095 = ORIENTED_EDGE ( 'NONE', *, *, #307, .T. ) ;
#1096 = APPROVAL_ROLE ( '' ) ;
#1097 = EDGE_CURVE ( 'NONE', #846, #377, #756, .T. ) ;
#1098 = AXIS2_PLACEMENT_3D ( 'NONE', #663, #869, #380 ) ;
#1099 = VECTOR ( 'NONE', #244, 1000.000000000000000 ) ;
#1100 = LINE ( 'NONE', #197, #309 ) ;
#1101 = AXIS2_PLACEMENT_3D ( 'NONE', #903, #444, #1037 ) ;
#1102 = DIRECTION ( 'NONE',  ( 0.000000000000000000, 0.000000000000000000, 1.000000000000000000 ) ) ;
#1103 = CARTESIAN_POINT ( 'NONE',  ( 33.99999999999999289, 3.750000000000027978, -4.163802210465326892E-15 ) ) ;
#1104 = ORIENTED_EDGE ( 'NONE', *, *, #616, .T. ) ;
#1105 = CARTESIAN_POINT ( 'NONE',  ( 33.99999999999998579, 3.750000000000027534, -1.199999999999999956 ) ) ;
#1106 = DIRECTION ( 'NONE',  ( 1.239088197126290570E-16, -1.653442603354426361E-32, 1.000000000000000000 ) ) ;
#1107 = ADVANCED_FACE ( 'NONE', ( #762, #78, #467, #1151, #63 ), #451, .T. ) ;
#1108 = DIRECTION ( 'NONE',  ( 0.000000000000000000, -1.000000000000000000, 0.000000000000000000 ) ) ;
#1109 = VERTEX_POINT ( 'NONE', #1255 ) ;
#1110 = DIRECTION ( 'NONE',  ( 0.8000000000000002665, -0.000000000000000000, 0.5999999999999996447 ) ) ;
#1111 = DIRECTION ( 'NONE',  ( -0.000000000000000000, -0.000000000000000000, 1.000000000000000000 ) ) ;
#1112 = PLANE ( 'NONE',  #801 ) ;
#1113 = DIRECTION ( 'NONE',  ( 1.000000000000000000, 0.000000000000000000, 0.000000000000000000 ) ) ;
#1114 = VERTEX_POINT ( 'NONE', #84 ) ;
#1115 = DIRECTION ( 'NONE',  ( -0.000000000000000000, -0.000000000000000000, 1.000000000000000000 ) ) ;
#1116 = VECTOR ( 'NONE', #1205, 1000.000000000000000 ) ;
#1117 = CYLINDRICAL_SURFACE ( 'NONE', #845, 4.000000000000000000 ) ;
#1118 = MECHANICAL_CONTEXT ( 'NONE', #363, 'mechanical' ) ;
#1119 = ORGANIZATION ( 'æœª', 'æœª', '' ) ;
#1120 = DIRECTION ( 'NONE',  ( 1.000000000000000000, 0.000000000000000000, -0.000000000000000000 ) ) ;
#1121 = ORIENTED_EDGE ( 'NONE', *, *, #1219, .T. ) ;
#1122 = ORIENTED_EDGE ( 'NONE', *, *, #1074, .F. ) ;
#1123 = DIRECTION ( 'NONE',  ( 0.000000000000000000, 0.000000000000000000, 1.000000000000000000 ) ) ;
#1124 = ADVANCED_FACE ( 'NONE', ( #862 ), #1073, .F. ) ;
#1125 = PLANE ( 'NONE',  #901 ) ;
#1126 = DIRECTION ( 'NONE',  ( -0.000000000000000000, 0.000000000000000000, 1.000000000000000000 ) ) ;
#1127 = ORIENTED_EDGE ( 'NONE', *, *, #260, .F. ) ;
#1128 = ORIENTED_EDGE ( 'NONE', *, *, #320, .T. ) ;
#1129 = LINE ( 'NONE', #239, #1060 ) ;
#1130 = ADVANCED_FACE ( 'NONE', ( #177 ), #651, .F. ) ;
#1131 = DIRECTION ( 'NONE',  ( 0.000000000000000000, -1.000000000000000000, 0.000000000000000000 ) ) ;
#1132 = FACE_OUTER_BOUND ( 'NONE', #195, .T. ) ;
#1133 = VERTEX_POINT ( 'NONE', #848 ) ;
#1134 = DIRECTION ( 'NONE',  ( 0.000000000000000000, -1.000000000000000000, 0.000000000000000000 ) ) ;
#1135 = ADVANCED_BREP_SHAPE_REPRESENTATION ( '\X2\5feb88c5677f\X0\', ( #658, #765 ), #46 ) ;
#1136 = LINE ( 'NONE', #463, #65 ) ;
#1137 = PERSON_AND_ORGANIZATION_ROLE ( 'creator' ) ;
#1138 = EDGE_CURVE ( 'NONE', #1162, #106, #375, .T. ) ;
#1139 = FACE_OUTER_BOUND ( 'NONE', #761, .T. ) ;
#1140 = AXIS2_PLACEMENT_3D ( 'NONE', #978, #885, #1015 ) ;
#1141 = ORIENTED_EDGE ( 'NONE', *, *, #1253, .T. ) ;
#1142 = VECTOR ( 'NONE', #378, 1000.000000000000114 ) ;
#1143 = CARTESIAN_POINT ( 'NONE',  ( 7.999999999999992895, 48.24999999999999289, -1.199999999999999734 ) ) ;
#1144 = DIRECTION ( 'NONE',  ( -0.000000000000000000, -0.000000000000000000, 1.000000000000000000 ) ) ;
#1145 = DIRECTION ( 'NONE',  ( -0.000000000000000000, -0.000000000000000000, -1.000000000000000000 ) ) ;
#1146 = COORDINATED_UNIVERSAL_TIME_OFFSET ( 8, 0, .AHEAD. ) ;
#1147 = PLANE ( 'NONE',  #411 ) ;
#1148 = EDGE_LOOP ( 'NONE', ( #9, #438, #641, #552 ) ) ;
#1149 = EDGE_CURVE ( 'NONE', #1265, #1048, #827, .T. ) ;
#1150 = VERTEX_POINT ( 'NONE', #472 ) ;
#1151 = FACE_BOUND ( 'NONE', #1014, .T. ) ;
#1152 = EDGE_CURVE ( 'NONE', #1133, #259, #1196, .T. ) ;
#1153 = CARTESIAN_POINT ( 'NONE',  ( 29.99999999999999289, 3.750000000000027534, -1.199999999999999734 ) ) ;
#1154 = DATE_AND_TIME ( #250, #537 ) ;
#1155 = DIRECTION ( 'NONE',  ( -0.000000000000000000, -0.000000000000000000, 1.000000000000000000 ) ) ;
#1156 = ORIENTED_EDGE ( 'NONE', *, *, #1090, .F. ) ;
#1157 = ORIENTED_EDGE ( 'NONE', *, *, #286, .T. ) ;
#1158 = DIRECTION ( 'NONE',  ( 1.334402673828313339E-16, 1.000000000000000000, -0.000000000000000000 ) ) ;
#1159 = CARTESIAN_POINT ( 'NONE',  ( 31.59999999999999787, 3.750000000000027534, -7.500000000000001776 ) ) ;
#1160 = ORIENTED_EDGE ( 'NONE', *, *, #599, .F. ) ;
#1161 = VECTOR ( 'NONE', #448, 1000.000000000000000 ) ;
#1162 = VERTEX_POINT ( 'NONE', #953 ) ;
#1163 = CARTESIAN_POINT ( 'NONE',  ( 4.999999999999995559, 52.00000000000000000, -7.500000000000000000 ) ) ;
#1164 = VECTOR ( 'NONE', #314, 1000.000000000000000 ) ;
#1165 = EDGE_CURVE ( 'NONE', #122, #1258, #1169, .T. ) ;
#1166 = DIRECTION ( 'NONE',  ( 0.000000000000000000, 0.000000000000000000, 1.000000000000000000 ) ) ;
#1167 = ORIENTED_EDGE ( 'NONE', *, *, #1004, .F. ) ;
#1168 = ORIENTED_EDGE ( 'NONE', *, *, #1219, .F. ) ;
#1169 = LINE ( 'NONE', #182, #698 ) ;
#1170 = EDGE_CURVE ( 'NONE', #691, #621, #867, .T. ) ;
#1171 = LINE ( 'NONE', #776, #246 ) ;
#1172 = ORIENTED_EDGE ( 'NONE', *, *, #209, .F. ) ;
#1173 = ORIENTED_EDGE ( 'NONE', *, *, #1170, .T. ) ;
#1174 = FACE_OUTER_BOUND ( 'NONE', #866, .T. ) ;
#1175 = DIRECTION ( 'NONE',  ( 0.000000000000000000, 1.000000000000000000, 0.000000000000000000 ) ) ;
#1176 = EDGE_CURVE ( 'NONE', #826, #525, #971, .T. ) ;
#1177 = CIRCLE ( 'NONE', #1257, 6.999999999999999112 ) ;
#1178 = ORIENTED_EDGE ( 'NONE', *, *, #149, .F. ) ;
#1179 = CARTESIAN_POINT ( 'NONE',  ( 38.00000000000000000, 52.00000000000000000, -4.653657836759941941E-15 ) ) ;
#1180 = AXIS2_PLACEMENT_3D ( 'NONE', #402, #323, #1120 ) ;
#1181 = CARTESIAN_POINT ( 'NONE',  ( 2.999999999999995559, 52.00000000000000000, -3.999999999999998224 ) ) ;
#1182 = ORIENTED_EDGE ( 'NONE', *, *, #498, .T. ) ;
#1183 = EDGE_CURVE ( 'NONE', #929, #488, #1234, .T. ) ;
#1184 = ORIENTED_EDGE ( 'NONE', *, *, #1056, .T. ) ;
#1185 = CARTESIAN_POINT ( 'NONE',  ( 33.00000000000000000, 52.00000000000000000, -4.000000000000002665 ) ) ;
#1186 = EDGE_CURVE ( 'NONE', #1114, #106, #770, .T. ) ;
#1187 = EDGE_LOOP ( 'NONE', ( #233, #96, #985, #720 ) ) ;
#1188 = ORIENTED_EDGE ( 'NONE', *, *, #283, .T. ) ;
#1189 = APPLICATION_PROTOCOL_DEFINITION ( 'international standard', 'config_control_design', 1994, #1070 ) ;
#1190 = DIRECTION ( 'NONE',  ( -1.000000000000000000, 0.000000000000000000, 0.000000000000000000 ) ) ;
#1191 = CARTESIAN_POINT ( 'NONE',  ( 32.99999999999999289, 0.000000000000000000, -7.500000000000003553 ) ) ;
#1192 = CIRCLE ( 'NONE', #759, 1.600000000000000755 ) ;
#1193 = ORIENTED_EDGE ( 'NONE', *, *, #821, .F. ) ;
#1194 = CIRCLE ( 'NONE', #164, 4.000000000000000000 ) ;
#1195 = EDGE_CURVE ( 'NONE', #861, #691, #1250, .T. ) ;
#1196 = CIRCLE ( 'NONE', #92, 1.600000000000000755 ) ;
#1197 = DIRECTION ( 'NONE',  ( -1.000000000000000000, 0.000000000000000000, 0.000000000000000000 ) ) ;
#1198 = LINE ( 'NONE', #421, #785 ) ;
#1199 = ORIENTED_EDGE ( 'NONE', *, *, #6, .T. ) ;
#1200 = APPROVAL ( #730, 'æœª' ) ;
#1201 = LINE ( 'NONE', #802, #638 ) ;
#1202 = CARTESIAN_POINT ( 'NONE',  ( 11.99999999999999289, 52.00000000000000000, -1.469576158976823158E-15 ) ) ;
#1203 = LINE ( 'NONE', #121, #850 ) ;
#1204 = ORIENTED_EDGE ( 'NONE', *, *, #6, .F. ) ;
#1205 = DIRECTION ( 'NONE',  ( 1.355252715606880296E-16, -0.000000000000000000, 1.000000000000000000 ) ) ;
#1206 = FACE_OUTER_BOUND ( 'NONE', #1148, .T. ) ;
#1207 = PERSON_AND_ORGANIZATION_ROLE ( 'creator' ) ;
#1208 = CARTESIAN_POINT ( 'NONE',  ( 31.59999999999999787, 3.750000000000027534, -1.199999999999999734 ) ) ;
#1209 = EDGE_LOOP ( 'NONE', ( #155, #1104, #1232, #1043 ) ) ;
#1210 = EDGE_CURVE ( 'NONE', #1233, #1109, #1059, .T. ) ;
#1211 = EDGE_LOOP ( 'NONE', ( #1128, #534, #626, #190 ) ) ;
#1212 = CARTESIAN_POINT ( 'NONE',  ( 7.999999999999992895, 48.24999999999999289, -7.501000000000002998 ) ) ;
#1213 = VECTOR ( 'NONE', #1108, 1000.000000000000000 ) ;
#1214 = SECURITY_CLASSIFICATION ( '', '', #257 ) ;
#1215 = LINE ( 'NONE', #330, #43 ) ;
#1216 = AXIS2_PLACEMENT_3D ( 'NONE', #1066, #262, #1243 ) ;
#1217 = PLANE ( 'NONE',  #45 ) ;
#1218 = ORIENTED_EDGE ( 'NONE', *, *, #379, .T. ) ;
#1219 = EDGE_CURVE ( 'NONE', #1084, #1077, #388, .T. ) ;
#1220 = ORIENTED_EDGE ( 'NONE', *, *, #470, .F. ) ;
#1221 = DIRECTION ( 'NONE',  ( 1.000000000000000000, 0.000000000000000000, 0.000000000000000000 ) ) ;
#1222 = PLANE ( 'NONE',  #950 ) ;
#1223 = DATE_AND_TIME ( #139, #932 ) ;
#1224 = EDGE_CURVE ( 'NONE', #343, #222, #1017, .T. ) ;
#1225 = DIRECTION ( 'NONE',  ( 1.000000000000000000, 0.000000000000000000, 0.000000000000000000 ) ) ;
#1226 = ORIENTED_EDGE ( 'NONE', *, *, #12, .T. ) ;
#1227 = ORIENTED_EDGE ( 'NONE', *, *, #1253, .F. ) ;
#1228 = CARTESIAN_POINT ( 'NONE',  ( 33.99999999999999289, 3.750000000000027978, -1.199999999999999956 ) ) ;
#1229 = DIRECTION ( 'NONE',  ( 1.000000000000000000, 0.000000000000000000, 0.000000000000000000 ) ) ;
#1230 = COORDINATED_UNIVERSAL_TIME_OFFSET ( 8, 0, .AHEAD. ) ;
#1231 = CARTESIAN_POINT ( 'NONE',  ( 3.999999999999991562, 48.24999999999999289, -1.199999999999999956 ) ) ;
#1232 = ORIENTED_EDGE ( 'NONE', *, *, #642, .T. ) ;
#1233 = VERTEX_POINT ( 'NONE', #133 ) ;
#1234 = LINE ( 'NONE', #946, #455 ) ;
#1235 = CARTESIAN_POINT ( 'NONE',  ( 25.99999999999998934, 0.000000000000000000, -3.184146689056585945E-15 ) ) ;
#1236 = EDGE_CURVE ( 'NONE', #753, #716, #774, .T. ) ;
#1237 = CARTESIAN_POINT ( 'NONE',  ( 8.000000000000007105, 3.750000000000000000, 0.000000000000000000 ) ) ;
#1238 = PERSON_AND_ORGANIZATION_ROLE ( 'design_supplier' ) ;
#1239 = LINE ( 'NONE', #167, #972 ) ;
#1240 = ORIENTED_EDGE ( 'NONE', *, *, #392, .T. ) ;
#1241 = VECTOR ( 'NONE', #749, 1000.000000000000000 ) ;
#1242 = VERTEX_POINT ( 'NONE', #780 ) ;
#1243 = DIRECTION ( 'NONE',  ( 1.000000000000000000, 0.000000000000000000, 0.000000000000000000 ) ) ;
#1244 = EDGE_CURVE ( 'NONE', #923, #656, #97, .T. ) ;
#1245 = DIRECTION ( 'NONE',  ( 1.000000000000000000, 0.000000000000000000, 0.000000000000000000 ) ) ;
#1246 = PERSON_AND_ORGANIZATION ( #404, #1119 ) ;
#1247 = CARTESIAN_POINT ( 'NONE',  ( 4.999999999999988454, 0.000000000000000000, -7.500000000000000000 ) ) ;
#1248 = ORIENTED_EDGE ( 'NONE', *, *, #302, .F. ) ;
#1249 = ORIENTED_EDGE ( 'NONE', *, *, #916, .T. ) ;
#1250 = LINE ( 'NONE', #268, #955 ) ;
#1251 = CARTESIAN_POINT ( 'NONE',  ( 6.400000000000004796, 3.750000000000000000, -7.499999999999999112 ) ) ;
#1252 = ORIENTED_EDGE ( 'NONE', *, *, #124, .F. ) ;
#1253 = EDGE_CURVE ( 'NONE', #345, #479, #1085, .T. ) ;
#1254 = ORIENTED_EDGE ( 'NONE', *, *, #230, .F. ) ;
#1255 = CARTESIAN_POINT ( 'NONE',  ( 33.00000000000000000, 52.00000000000000000, -4.000000000000002665 ) ) ;
#1256 = CARTESIAN_POINT ( 'NONE',  ( 0.000000000000000000, 52.00000000000000000, 0.000000000000000000 ) ) ;
#1257 = AXIS2_PLACEMENT_3D ( 'NONE', #851, #159, #745 ) ;
#1258 = VERTEX_POINT ( 'NONE', #296 ) ;
#1259 = AXIS2_PLACEMENT_3D ( 'NONE', #829, #1123, #445 ) ;
#1260 = ORIENTED_EDGE ( 'NONE', *, *, #782, .F. ) ;
#1261 = CARTESIAN_POINT ( 'NONE',  ( 2.999999999999995559, 0.000000000000000000, -3.999999999999998224 ) ) ;
#1262 = AXIS2_PLACEMENT_3D ( 'NONE', #1044, #857, #355 ) ;
#1263 = ADVANCED_FACE ( 'NONE', ( #220 ), #793, .F. ) ;
#1264 = LINE ( 'NONE', #271, #655 ) ;
#1265 = VERTEX_POINT ( 'NONE', #322 ) ;
#1266 = VERTEX_POINT ( 'NONE', #196 ) ;
#1267 = DIRECTION ( 'NONE',  ( 0.000000000000000000, -1.000000000000000000, 0.000000000000000000 ) ) ;
#1268 = EDGE_CURVE ( 'NONE', #1150, #1064, #1079, .T. ) ;
#1269 = LINE ( 'NONE', #14, #328 ) ;
ENDSEC;
END-ISO-10303-21;
