M48
; DRILL file {KiCad (7.0.0)} date Mon Apr 17 21:08:35 2023
; FORMAT={-:-/ absolute / inch / decimal}
; #@! TF.CreationDate,2023-04-17T21:08:35+08:00
; #@! TF.GenerationSoftware,Kicad,Pcbnew,(7.0.0)
; #@! TF.FileFunction,Plated,1,2,PTH
FMAT,2
INCH
; #@! TA.AperFunction,Plated,PTH,ViaDrill
T1C0.0122
; #@! TA.AperFunction,Plated,PTH,ViaDrill
T2C0.0138
; #@! TA.AperFunction,Plated,PTH,ComponentDrill
T3C0.0138
; #@! TA.AperFunction,Plated,PTH,ViaDrill
T4C0.0157
; #@! TA.AperFunction,Plated,PTH,ComponentDrill
T5C0.0394
%
G90
G05
T1
X1.0315Y-2.878
X1.1575Y-2.9006
X1.253Y-3.0305
X1.2864Y-2.998
X1.2992Y-2.7181
X1.3115Y-2.5512
X1.3414Y-2.5512
X1.3789Y-2.46
X1.3797Y-2.7934
X1.4055Y-3.2008
X1.42Y-2.47
X1.4261Y-2.688
X1.4685Y-3.2323
X1.4843Y-3.2717
X1.4882Y-2.9587
X1.5039Y-3.1791
X1.5118Y-2.9803
X1.5289Y-2.7997
X1.53Y-3.24
X1.5354Y-2.998
X1.5571Y-2.9803
X1.5748Y-2.4646
X1.5768Y-2.4941
X1.5945Y-3.0864
X1.6368Y-3.0656
X1.6405Y-3.021
X1.6491Y-2.8956
X1.6635Y-2.6043
X1.6772Y-2.6969
X1.68Y-2.58
X1.68Y-3.25
X1.6906Y-2.7647
X1.7Y-3.21
X1.7043Y-2.5968
X1.7101Y-3.1068
X1.7352Y-3.1309
X1.7617Y-2.4708
X1.7686Y-3.2786
X1.7717Y-3.1516
X1.78Y-2.4996
X1.7808Y-3.178
X1.7884Y-2.6693
X1.7913Y-2.749
X1.7963Y-2.8455
X1.7972Y-3.2884
X1.8081Y-2.5807
X1.83Y-2.99
X1.8308Y-2.5604
X1.8593Y-2.55
X1.8622Y-2.5866
X1.9055Y-2.6969
X1.9082Y-2.5082
X1.9291Y-2.626
X1.9567Y-2.7598
X1.997Y-2.4229
X1.9972Y-2.5472
X2.0Y-2.6922
X2.01Y-2.36
X2.0354Y-2.3946
X2.07Y-2.63
X2.1Y-2.64
X2.12Y-2.53
X2.25Y-2.44
X2.27Y-3.09
X2.28Y-2.44
X2.39Y-2.42
X2.39Y-3.2371
X2.445Y-3.185
X2.47Y-3.21
X3.105Y-2.425
X3.1488Y-3.1388
X3.19Y-3.13
X3.21Y-3.15
X3.27Y-2.3
X3.3Y-2.38
X3.31Y-2.3
X3.31Y-2.5388
X3.34Y-2.5571
X3.37Y-2.37
X3.3728Y-2.4904
X3.3988Y-2.5012
X3.42Y-2.4
X3.4281Y-2.7972
X3.4582Y-2.3982
X3.4823Y-2.8012
X3.5356Y-2.77
X3.57Y-2.67
X3.58Y-3.33
X3.64Y-3.19
X3.65Y-2.33
X3.65Y-3.28
X3.65Y-3.33
X3.6762Y-3.1024
X3.68Y-2.47
X3.72Y-2.85
X3.72Y-3.15
X3.72Y-3.23
X3.78Y-3.15
X3.78Y-3.23
X3.81Y-3.03
X3.815Y-2.3465
X3.82Y-2.51
X3.82Y-2.67
X3.89Y-3.03
X3.8918Y-2.7614
X3.91Y-2.43
X3.9431Y-2.6911
X3.9606Y-2.6575
X3.97Y-2.56
X3.98Y-2.6071
X3.99Y-3.07
X4.0Y-2.53
X4.0126Y-2.7108
X4.0126Y-2.8126
X4.05Y-2.8
X4.0856Y-3.1437
X4.09Y-2.8
X4.1073Y-2.4734
X4.13Y-2.8571
X4.1437Y-3.1152
X4.1467Y-2.57
X4.1949Y-3.0522
X4.21Y-2.7
X4.24Y-2.76
X4.27Y-2.84
X4.32Y-2.7
X4.32Y-2.75
X4.35Y-2.9
X4.3685Y-2.586
X4.44Y-2.76
X4.44Y-2.81
X4.44Y-2.86
X4.4439Y-3.1171
X4.4481Y-3.0219
X4.4537Y-2.3494
X4.4848Y-3.0252
X4.7126Y-2.9035
T2
X1.0975Y-2.7047
X1.0985Y-2.665
X1.2208Y-2.5601
X1.2608Y-2.5601
X1.3189Y-3.0531
X1.3862Y-2.5951
X1.3898Y-3.0187
X1.4252Y-2.5636
X1.5702Y-3.189
T3
X1.5595Y-2.7397
X1.5595Y-2.7899
X1.5595Y-2.8401
X1.6097Y-2.7397
X1.6097Y-2.7899
X1.6097Y-2.8401
X1.6599Y-2.7397
X1.6599Y-2.7899
X1.6599Y-2.8401
T4
X1.2402Y-2.4606
X1.4528Y-2.9277
X3.9744Y-2.3681
X4.39Y-3.03
X4.5492Y-3.0157
X4.6785Y-2.83
X4.7Y-2.67
T5
X1.0689Y-2.9719
X1.0689Y-3.0719
X2.0315Y-2.9203
X2.0315Y-3.0203
X2.1732Y-2.9203
X2.1732Y-3.0203
T0
M30
