%TF.GenerationSoftware,KiCad,Pcbnew,(7.0.0)*%
%TF.CreationDate,2023-04-17T21:08:14+08:00*%
%TF.ProjectId,opsx_x,6f707378-5f78-42e6-9b69-6361645f7063,rev?*%
%TF.SameCoordinates,Original*%
%TF.FileFunction,Profile,NP*%
%FSLAX46Y46*%
G04 Gerber Fmt 4.6, Leading zero omitted, Abs format (unit mm)*
G04 Created by KiCad (PCBNEW (7.0.0)) date 2023-04-17 21:08:14*
%MOMM*%
%LPD*%
G01*
G04 APERTURE LIST*
%TA.AperFunction,Profile*%
%ADD10C,0.100000*%
%TD*%
%TA.AperFunction,Profile*%
%ADD11C,0.200000*%
%TD*%
G04 APERTURE END LIST*
D10*
%TO.C,sx1*%
X25397599Y-66266200D02*
X27937599Y-66266200D01*
X25397599Y-70076200D02*
X25397599Y-66266200D01*
X25397599Y-71727200D02*
X27937599Y-71727200D01*
X25397599Y-79855200D02*
X25397599Y-71727200D01*
X27429599Y-79855200D02*
X25397599Y-79855200D01*
X27937599Y-70076200D02*
X25397599Y-70076200D01*
X29969599Y-85570200D02*
X29969599Y-82014200D01*
X30223599Y-59535200D02*
X30223599Y-63599200D01*
X30223599Y-59535200D02*
X50416599Y-59535200D01*
X50416599Y-57757200D02*
X97152599Y-57757200D01*
X50416599Y-59535200D02*
X50416599Y-57757200D01*
X56385599Y-69568200D02*
X66799599Y-63091200D01*
X56385599Y-72489200D02*
X65402599Y-78204200D01*
X73403599Y-63091200D02*
X83309599Y-69314200D01*
X83309599Y-72616200D02*
X74546599Y-78204200D01*
X93850599Y-83157200D02*
X93850599Y-85570200D01*
X93850599Y-85570200D02*
X29969599Y-85570200D01*
X97152599Y-57757200D02*
X97914599Y-58519200D01*
X97914599Y-58519200D02*
X114932599Y-58519200D01*
X107566599Y-82776200D02*
X107566599Y-83157200D01*
X107566599Y-83157200D02*
X93850599Y-83157200D01*
X114932599Y-58519200D02*
X114932599Y-61313200D01*
X117091599Y-63472200D02*
X121282599Y-63472200D01*
X121282599Y-63472200D02*
X121282599Y-79855200D01*
X121282599Y-79855200D02*
X109852599Y-79855200D01*
D11*
X90015199Y-59713000D02*
X91894799Y-59713000D01*
X91894799Y-59713000D02*
X91894799Y-60830600D01*
X91894799Y-60830600D02*
X90015199Y-60830600D01*
X90015199Y-60830600D02*
X90015199Y-59713000D01*
X93977599Y-59713000D02*
X95857199Y-59713000D01*
X95857199Y-59713000D02*
X95857199Y-60830600D01*
X95857199Y-60830600D02*
X93977599Y-60830600D01*
X93977599Y-60830600D02*
X93977599Y-59713000D01*
X103426399Y-59865400D02*
X105305999Y-59865400D01*
X105305999Y-59865400D02*
X105305999Y-60983000D01*
X105305999Y-60983000D02*
X103426399Y-60983000D01*
X103426399Y-60983000D02*
X103426399Y-59865400D01*
X109166799Y-65097800D02*
X110284399Y-65097800D01*
X110284399Y-65097800D02*
X110284399Y-63218200D01*
X110284399Y-63218200D02*
X109166799Y-63218200D01*
X109166799Y-63218200D02*
X109166799Y-65097800D01*
X112316399Y-65047000D02*
X114195999Y-65047000D01*
X114195999Y-65047000D02*
X114195999Y-66164600D01*
X114195999Y-66164600D02*
X112316399Y-66164600D01*
X112316399Y-66164600D02*
X112316399Y-65047000D01*
X114653199Y-64234200D02*
X116532799Y-64234200D01*
X116532799Y-64234200D02*
X116532799Y-65351800D01*
X116532799Y-65351800D02*
X114653199Y-65351800D01*
X114653199Y-65351800D02*
X114653199Y-64234200D01*
X116939199Y-65047000D02*
X118818799Y-65047000D01*
X118818799Y-65047000D02*
X118818799Y-66164600D01*
X118818799Y-66164600D02*
X116939199Y-66164600D01*
X116939199Y-66164600D02*
X116939199Y-65047000D01*
D10*
X29969598Y-82014200D02*
G75*
G03*
X27429599Y-79855201I-2952784J-900247D01*
G01*
X27937599Y-71727200D02*
G75*
G03*
X27937599Y-70076200I-219075J825500D01*
G01*
X27937599Y-66266200D02*
G75*
G03*
X30223599Y-63599200I-335670J2600931D01*
G01*
X56385599Y-69568200D02*
G75*
G03*
X56385599Y-72489200I1362075J-1460500D01*
G01*
X73403598Y-63091201D02*
G75*
G03*
X66799600Y-63091201I-3301999J-6773330D01*
G01*
X65402599Y-78204200D02*
G75*
G03*
X74546599Y-78204200I4572000J6896432D01*
G01*
X83309598Y-72616199D02*
G75*
G03*
X83309599Y-69314201I-1088568J1650999D01*
G01*
X109852600Y-79855209D02*
G75*
G03*
X107566599Y-82776200I485900J-2735291D01*
G01*
X114932600Y-61313200D02*
G75*
G03*
X117091599Y-63472199I2581000J422000D01*
G01*
X97899710Y-70787400D02*
G75*
G03*
X97899710Y-70787400I-772511J0D01*
G01*
%TD*%
M02*
