%TF.GenerationSoftware,KiCad,Pcbnew,(7.0.0)*%
%TF.CreationDate,2023-04-17T21:08:14+08:00*%
%TF.ProjectId,opsx_x,6f707378-5f78-42e6-9b69-6361645f7063,rev?*%
%TF.SameCoordinates,Original*%
%TF.FileFunction,Legend,Bot*%
%TF.FilePolarity,Positive*%
%FSLAX46Y46*%
G04 Gerber Fmt 4.6, Leading zero omitted, Abs format (unit mm)*
G04 Created by KiCad (PCBNEW (7.0.0)) date 2023-04-17 21:08:14*
%MOMM*%
%LPD*%
G01*
G04 APERTURE LIST*
%ADD10C,0.150000*%
%ADD11C,0.152400*%
%ADD12C,0.101600*%
%ADD13C,0.120000*%
G04 APERTURE END LIST*
D10*
X38504761Y-71182380D02*
X37933333Y-71182380D01*
X38219047Y-72182380D02*
X38219047Y-71182380D01*
X37647618Y-72134761D02*
X37504761Y-72182380D01*
X37504761Y-72182380D02*
X37266666Y-72182380D01*
X37266666Y-72182380D02*
X37171428Y-72134761D01*
X37171428Y-72134761D02*
X37123809Y-72087142D01*
X37123809Y-72087142D02*
X37076190Y-71991904D01*
X37076190Y-71991904D02*
X37076190Y-71896666D01*
X37076190Y-71896666D02*
X37123809Y-71801428D01*
X37123809Y-71801428D02*
X37171428Y-71753809D01*
X37171428Y-71753809D02*
X37266666Y-71706190D01*
X37266666Y-71706190D02*
X37457142Y-71658571D01*
X37457142Y-71658571D02*
X37552380Y-71610952D01*
X37552380Y-71610952D02*
X37599999Y-71563333D01*
X37599999Y-71563333D02*
X37647618Y-71468095D01*
X37647618Y-71468095D02*
X37647618Y-71372857D01*
X37647618Y-71372857D02*
X37599999Y-71277619D01*
X37599999Y-71277619D02*
X37552380Y-71230000D01*
X37552380Y-71230000D02*
X37457142Y-71182380D01*
X37457142Y-71182380D02*
X37219047Y-71182380D01*
X37219047Y-71182380D02*
X37076190Y-71230000D01*
X36171428Y-72182380D02*
X36647618Y-72182380D01*
X36647618Y-72182380D02*
X36647618Y-71182380D01*
X36076190Y-72277619D02*
X35314285Y-72277619D01*
X35123808Y-71896666D02*
X34647618Y-71896666D01*
X35219046Y-72182380D02*
X34885713Y-71182380D01*
X34885713Y-71182380D02*
X34552380Y-72182380D01*
X34219046Y-72182380D02*
X34219046Y-71182380D01*
X34219046Y-71182380D02*
X33980951Y-71182380D01*
X33980951Y-71182380D02*
X33838094Y-71230000D01*
X33838094Y-71230000D02*
X33742856Y-71325238D01*
X33742856Y-71325238D02*
X33695237Y-71420476D01*
X33695237Y-71420476D02*
X33647618Y-71610952D01*
X33647618Y-71610952D02*
X33647618Y-71753809D01*
X33647618Y-71753809D02*
X33695237Y-71944285D01*
X33695237Y-71944285D02*
X33742856Y-72039523D01*
X33742856Y-72039523D02*
X33838094Y-72134761D01*
X33838094Y-72134761D02*
X33980951Y-72182380D01*
X33980951Y-72182380D02*
X34219046Y-72182380D01*
X33219046Y-72182380D02*
X33219046Y-71182380D01*
X33219046Y-71182380D02*
X32980951Y-71182380D01*
X32980951Y-71182380D02*
X32838094Y-71230000D01*
X32838094Y-71230000D02*
X32742856Y-71325238D01*
X32742856Y-71325238D02*
X32695237Y-71420476D01*
X32695237Y-71420476D02*
X32647618Y-71610952D01*
X32647618Y-71610952D02*
X32647618Y-71753809D01*
X32647618Y-71753809D02*
X32695237Y-71944285D01*
X32695237Y-71944285D02*
X32742856Y-72039523D01*
X32742856Y-72039523D02*
X32838094Y-72134761D01*
X32838094Y-72134761D02*
X32980951Y-72182380D01*
X32980951Y-72182380D02*
X33219046Y-72182380D01*
%TO.C,U4*%
X39692380Y-65047095D02*
X40501904Y-65047095D01*
X40501904Y-65047095D02*
X40597142Y-65094714D01*
X40597142Y-65094714D02*
X40644761Y-65142333D01*
X40644761Y-65142333D02*
X40692380Y-65237571D01*
X40692380Y-65237571D02*
X40692380Y-65428047D01*
X40692380Y-65428047D02*
X40644761Y-65523285D01*
X40644761Y-65523285D02*
X40597142Y-65570904D01*
X40597142Y-65570904D02*
X40501904Y-65618523D01*
X40501904Y-65618523D02*
X39692380Y-65618523D01*
X40025714Y-66523285D02*
X40692380Y-66523285D01*
X39644761Y-66285190D02*
X40359047Y-66047095D01*
X40359047Y-66047095D02*
X40359047Y-66666142D01*
%TO.C,Z3*%
X99489419Y-66392323D02*
X99489419Y-65725657D01*
X99489419Y-65725657D02*
X98489419Y-66392323D01*
X98489419Y-66392323D02*
X98489419Y-65725657D01*
X99489419Y-65439942D02*
X99489419Y-64820895D01*
X99489419Y-64820895D02*
X99108466Y-65154228D01*
X99108466Y-65154228D02*
X99108466Y-65011371D01*
X99108466Y-65011371D02*
X99060847Y-64916133D01*
X99060847Y-64916133D02*
X99013228Y-64868514D01*
X99013228Y-64868514D02*
X98917990Y-64820895D01*
X98917990Y-64820895D02*
X98679895Y-64820895D01*
X98679895Y-64820895D02*
X98584657Y-64868514D01*
X98584657Y-64868514D02*
X98537038Y-64916133D01*
X98537038Y-64916133D02*
X98489419Y-65011371D01*
X98489419Y-65011371D02*
X98489419Y-65297085D01*
X98489419Y-65297085D02*
X98537038Y-65392323D01*
X98537038Y-65392323D02*
X98584657Y-65439942D01*
%TO.C,D2*%
X42378094Y-62967380D02*
X42378094Y-61967380D01*
X42378094Y-61967380D02*
X42139999Y-61967380D01*
X42139999Y-61967380D02*
X41997142Y-62015000D01*
X41997142Y-62015000D02*
X41901904Y-62110238D01*
X41901904Y-62110238D02*
X41854285Y-62205476D01*
X41854285Y-62205476D02*
X41806666Y-62395952D01*
X41806666Y-62395952D02*
X41806666Y-62538809D01*
X41806666Y-62538809D02*
X41854285Y-62729285D01*
X41854285Y-62729285D02*
X41901904Y-62824523D01*
X41901904Y-62824523D02*
X41997142Y-62919761D01*
X41997142Y-62919761D02*
X42139999Y-62967380D01*
X42139999Y-62967380D02*
X42378094Y-62967380D01*
X41425713Y-62062619D02*
X41378094Y-62015000D01*
X41378094Y-62015000D02*
X41282856Y-61967380D01*
X41282856Y-61967380D02*
X41044761Y-61967380D01*
X41044761Y-61967380D02*
X40949523Y-62015000D01*
X40949523Y-62015000D02*
X40901904Y-62062619D01*
X40901904Y-62062619D02*
X40854285Y-62157857D01*
X40854285Y-62157857D02*
X40854285Y-62253095D01*
X40854285Y-62253095D02*
X40901904Y-62395952D01*
X40901904Y-62395952D02*
X41473332Y-62967380D01*
X41473332Y-62967380D02*
X40854285Y-62967380D01*
%TO.C,Z2*%
X105512219Y-65909523D02*
X105512219Y-65242857D01*
X105512219Y-65242857D02*
X104512219Y-65909523D01*
X104512219Y-65909523D02*
X104512219Y-65242857D01*
X105416980Y-64909523D02*
X105464600Y-64861904D01*
X105464600Y-64861904D02*
X105512219Y-64766666D01*
X105512219Y-64766666D02*
X105512219Y-64528571D01*
X105512219Y-64528571D02*
X105464600Y-64433333D01*
X105464600Y-64433333D02*
X105416980Y-64385714D01*
X105416980Y-64385714D02*
X105321742Y-64338095D01*
X105321742Y-64338095D02*
X105226504Y-64338095D01*
X105226504Y-64338095D02*
X105083647Y-64385714D01*
X105083647Y-64385714D02*
X104512219Y-64957142D01*
X104512219Y-64957142D02*
X104512219Y-64338095D01*
%TO.C,Z1*%
X33590476Y-70232619D02*
X34257142Y-70232619D01*
X34257142Y-70232619D02*
X33590476Y-69232619D01*
X33590476Y-69232619D02*
X34257142Y-69232619D01*
X35161904Y-69232619D02*
X34590476Y-69232619D01*
X34876190Y-69232619D02*
X34876190Y-70232619D01*
X34876190Y-70232619D02*
X34780952Y-70089761D01*
X34780952Y-70089761D02*
X34685714Y-69994523D01*
X34685714Y-69994523D02*
X34590476Y-69946904D01*
D11*
%TO.C,Z3*%
X96469200Y-67259200D02*
X97586800Y-67259200D01*
X98044000Y-66802000D02*
X98044000Y-64262000D01*
X96012000Y-64262000D02*
X96012000Y-66802000D01*
X96469200Y-63804800D02*
X97586800Y-63804800D01*
X97586800Y-67259200D02*
G75*
G03*
X98044000Y-66802000I-1J457201D01*
G01*
X96012000Y-66802000D02*
G75*
G03*
X96469200Y-67259200I457201J1D01*
G01*
X98044000Y-64262000D02*
G75*
G03*
X97586800Y-63804800I-457200J0D01*
G01*
X96469200Y-63804800D02*
G75*
G03*
X96012000Y-64262000I0J-457200D01*
G01*
D12*
%TO.C,sx1*%
X42153600Y-65809000D02*
G75*
G03*
X42153600Y-65809000I-500000J0D01*
G01*
X44383600Y-65809000D02*
G75*
G03*
X44383600Y-65809000I-2730000J0D01*
G01*
D13*
%TO.C,D2*%
X45240000Y-67110000D02*
X44050000Y-67110000D01*
X44060000Y-64400000D02*
X45240000Y-64400000D01*
X44050000Y-68000000D02*
X39250000Y-68000000D01*
X44050000Y-67110000D02*
X44050000Y-68000000D01*
X44050000Y-63600000D02*
X44050000Y-64400000D01*
X39250000Y-68000000D02*
X39250000Y-67110000D01*
X39250000Y-64400000D02*
X39250000Y-63600000D01*
X39250000Y-63600000D02*
X44050000Y-63600000D01*
D11*
%TO.C,Z2*%
X102492000Y-66776400D02*
X103609600Y-66776400D01*
X104066800Y-66319200D02*
X104066800Y-63779200D01*
X102034800Y-63779200D02*
X102034800Y-66319200D01*
X102492000Y-63322000D02*
X103609600Y-63322000D01*
X102034800Y-66319200D02*
G75*
G03*
X102492000Y-66776400I457201J1D01*
G01*
X103609600Y-66776400D02*
G75*
G03*
X104066800Y-66319200I-1J457201D01*
G01*
X102492000Y-63322000D02*
G75*
G03*
X102034800Y-63779200I0J-457200D01*
G01*
X104066800Y-63779200D02*
G75*
G03*
X103609600Y-63322000I-457200J0D01*
G01*
%TO.C,Z1*%
X35356800Y-69141200D02*
X35356800Y-70258800D01*
X35814000Y-70716000D02*
X38354000Y-70716000D01*
X38354000Y-68684000D02*
X35814000Y-68684000D01*
X38811200Y-69141200D02*
X38811200Y-70258800D01*
X35814000Y-68684000D02*
G75*
G03*
X35356800Y-69141200I1J-457201D01*
G01*
X35356800Y-70258800D02*
G75*
G03*
X35814000Y-70716000I457201J1D01*
G01*
X38811200Y-69141200D02*
G75*
G03*
X38354000Y-68684000I-457200J0D01*
G01*
X38354000Y-70716000D02*
G75*
G03*
X38811200Y-70258800I0J457200D01*
G01*
%TD*%
M02*
