%TF.GenerationSoftware,KiCad,Pcbnew,(7.0.0)*%
%TF.CreationDate,2023-04-17T21:08:14+08:00*%
%TF.ProjectId,opsx_x,6f707378-5f78-42e6-9b69-6361645f7063,rev?*%
%TF.SameCoordinates,Original*%
%TF.FileFunction,Legend,Top*%
%TF.FilePolarity,Positive*%
%FSLAX46Y46*%
G04 Gerber Fmt 4.6, Leading zero omitted, Abs format (unit mm)*
G04 Created by KiCad (PCBNEW (7.0.0)) date 2023-04-17 21:08:14*
%MOMM*%
%LPD*%
G01*
G04 APERTURE LIST*
%ADD10C,0.150000*%
%ADD11C,0.200000*%
%ADD12C,0.120000*%
G04 APERTURE END LIST*
D10*
X27475000Y-68125000D02*
X30700000Y-68125000D01*
X30700000Y-68125000D02*
X30700000Y-70500000D01*
X30700000Y-70500000D02*
X27475000Y-70500000D01*
X27475000Y-70500000D02*
X27475000Y-68125000D01*
X34825000Y-81175000D02*
X39325000Y-81175000D01*
X39325000Y-81175000D02*
X39325000Y-82750000D01*
X39325000Y-82750000D02*
X34825000Y-82750000D01*
X34825000Y-82750000D02*
X34825000Y-81175000D01*
X98806000Y-75946000D02*
X102362000Y-75946000D01*
X102362000Y-75946000D02*
X102362000Y-78994000D01*
X102362000Y-78994000D02*
X98806000Y-78994000D01*
X98806000Y-78994000D02*
X98806000Y-75946000D01*
X102362000Y-75946000D02*
X104902000Y-75946000D01*
X104902000Y-75946000D02*
X104902000Y-78994000D01*
X104902000Y-78994000D02*
X102362000Y-78994000D01*
X102362000Y-78994000D02*
X102362000Y-75946000D01*
X102108000Y-71882000D02*
X104648000Y-71882000D01*
X104648000Y-71882000D02*
X104648000Y-75184000D01*
X104648000Y-75184000D02*
X102108000Y-75184000D01*
X102108000Y-75184000D02*
X102108000Y-71882000D01*
X104648000Y-67310000D02*
X106934000Y-67310000D01*
X106934000Y-67310000D02*
X106934000Y-73152000D01*
X106934000Y-73152000D02*
X104648000Y-73152000D01*
X104648000Y-73152000D02*
X104648000Y-67310000D01*
X95504000Y-68834000D02*
X95758000Y-68834000D01*
X94742000Y-69342000D02*
X95504000Y-68834000D01*
X93218000Y-70358000D02*
X94742000Y-69342000D01*
X90170000Y-70358000D02*
X93218000Y-70358000D01*
X95250000Y-68326000D02*
X97282000Y-68326000D01*
X92964000Y-69850000D02*
X95250000Y-68326000D01*
X91440000Y-69850000D02*
X92964000Y-69850000D01*
X90170000Y-69088000D02*
X91440000Y-69850000D01*
X87122000Y-66040000D02*
X90170000Y-66040000D01*
X90170000Y-66040000D02*
X90170000Y-69088000D01*
X90170000Y-69088000D02*
X87122000Y-69088000D01*
X87122000Y-69088000D02*
X87122000Y-66040000D01*
X97282000Y-66294000D02*
X99822000Y-66294000D01*
X99822000Y-66294000D02*
X99822000Y-68580000D01*
X99822000Y-68580000D02*
X97282000Y-68580000D01*
X97282000Y-68580000D02*
X97282000Y-66294000D01*
X117856000Y-72390000D02*
X117348000Y-71374000D01*
X119380000Y-71120000D02*
X118872000Y-70866000D01*
X118872000Y-67564000D02*
X121158000Y-67564000D01*
X121158000Y-67564000D02*
X121158000Y-70612000D01*
X121158000Y-70612000D02*
X118872000Y-70612000D01*
X118872000Y-70612000D02*
X118872000Y-67564000D01*
X43275000Y-76600000D02*
X46925000Y-76600000D01*
X46925000Y-76600000D02*
X46925000Y-80600000D01*
X46925000Y-80600000D02*
X43275000Y-80600000D01*
X43275000Y-80600000D02*
X43275000Y-76600000D01*
X54300000Y-79400000D02*
X57600000Y-79400000D01*
X57600000Y-79400000D02*
X57600000Y-83500000D01*
X57600000Y-83500000D02*
X54300000Y-83500000D01*
X54300000Y-83500000D02*
X54300000Y-79400000D01*
X116840000Y-78486000D02*
X117094000Y-78994000D01*
X47400000Y-63800000D02*
X54900000Y-63800000D01*
X54900000Y-63800000D02*
X54900000Y-67000000D01*
X54900000Y-67000000D02*
X47400000Y-67000000D01*
X47400000Y-67000000D02*
X47400000Y-63800000D01*
X117094000Y-78994000D02*
X116586000Y-79248000D01*
X50800000Y-79400000D02*
X54300000Y-79400000D01*
X54300000Y-79400000D02*
X54300000Y-83500000D01*
X54300000Y-83500000D02*
X50800000Y-83500000D01*
X50800000Y-83500000D02*
X50800000Y-79400000D01*
X116078000Y-78486000D02*
X117094000Y-78994000D01*
X117094000Y-78994000D02*
X116840000Y-78486000D01*
X54945238Y-80207380D02*
X55278571Y-81207380D01*
X55278571Y-81207380D02*
X55611904Y-80207380D01*
X55945238Y-80826428D02*
X56707143Y-80826428D01*
X56326190Y-81207380D02*
X56326190Y-80445476D01*
X43863095Y-77212380D02*
X43863095Y-78021904D01*
X43863095Y-78021904D02*
X43910714Y-78117142D01*
X43910714Y-78117142D02*
X43958333Y-78164761D01*
X43958333Y-78164761D02*
X44053571Y-78212380D01*
X44053571Y-78212380D02*
X44244047Y-78212380D01*
X44244047Y-78212380D02*
X44339285Y-78164761D01*
X44339285Y-78164761D02*
X44386904Y-78117142D01*
X44386904Y-78117142D02*
X44434523Y-78021904D01*
X44434523Y-78021904D02*
X44434523Y-77212380D01*
X44910714Y-78212380D02*
X44910714Y-77212380D01*
X44910714Y-77212380D02*
X45148809Y-77212380D01*
X45148809Y-77212380D02*
X45291666Y-77260000D01*
X45291666Y-77260000D02*
X45386904Y-77355238D01*
X45386904Y-77355238D02*
X45434523Y-77450476D01*
X45434523Y-77450476D02*
X45482142Y-77640952D01*
X45482142Y-77640952D02*
X45482142Y-77783809D01*
X45482142Y-77783809D02*
X45434523Y-77974285D01*
X45434523Y-77974285D02*
X45386904Y-78069523D01*
X45386904Y-78069523D02*
X45291666Y-78164761D01*
X45291666Y-78164761D02*
X45148809Y-78212380D01*
X45148809Y-78212380D02*
X44910714Y-78212380D01*
X45910714Y-77831428D02*
X46672619Y-77831428D01*
X46291666Y-78212380D02*
X46291666Y-77450476D01*
X43863095Y-78832380D02*
X43863095Y-79641904D01*
X43863095Y-79641904D02*
X43910714Y-79737142D01*
X43910714Y-79737142D02*
X43958333Y-79784761D01*
X43958333Y-79784761D02*
X44053571Y-79832380D01*
X44053571Y-79832380D02*
X44244047Y-79832380D01*
X44244047Y-79832380D02*
X44339285Y-79784761D01*
X44339285Y-79784761D02*
X44386904Y-79737142D01*
X44386904Y-79737142D02*
X44434523Y-79641904D01*
X44434523Y-79641904D02*
X44434523Y-78832380D01*
X44910714Y-79832380D02*
X44910714Y-78832380D01*
X44910714Y-78832380D02*
X45148809Y-78832380D01*
X45148809Y-78832380D02*
X45291666Y-78880000D01*
X45291666Y-78880000D02*
X45386904Y-78975238D01*
X45386904Y-78975238D02*
X45434523Y-79070476D01*
X45434523Y-79070476D02*
X45482142Y-79260952D01*
X45482142Y-79260952D02*
X45482142Y-79403809D01*
X45482142Y-79403809D02*
X45434523Y-79594285D01*
X45434523Y-79594285D02*
X45386904Y-79689523D01*
X45386904Y-79689523D02*
X45291666Y-79784761D01*
X45291666Y-79784761D02*
X45148809Y-79832380D01*
X45148809Y-79832380D02*
X44910714Y-79832380D01*
X45910714Y-79451428D02*
X46672619Y-79451428D01*
X30961904Y-62180000D02*
X30866666Y-62132380D01*
X30866666Y-62132380D02*
X30723809Y-62132380D01*
X30723809Y-62132380D02*
X30580952Y-62180000D01*
X30580952Y-62180000D02*
X30485714Y-62275238D01*
X30485714Y-62275238D02*
X30438095Y-62370476D01*
X30438095Y-62370476D02*
X30390476Y-62560952D01*
X30390476Y-62560952D02*
X30390476Y-62703809D01*
X30390476Y-62703809D02*
X30438095Y-62894285D01*
X30438095Y-62894285D02*
X30485714Y-62989523D01*
X30485714Y-62989523D02*
X30580952Y-63084761D01*
X30580952Y-63084761D02*
X30723809Y-63132380D01*
X30723809Y-63132380D02*
X30819047Y-63132380D01*
X30819047Y-63132380D02*
X30961904Y-63084761D01*
X30961904Y-63084761D02*
X31009523Y-63037142D01*
X31009523Y-63037142D02*
X31009523Y-62703809D01*
X31009523Y-62703809D02*
X30819047Y-62703809D01*
X31438095Y-63132380D02*
X31438095Y-62132380D01*
X31438095Y-62132380D02*
X32009523Y-63132380D01*
X32009523Y-63132380D02*
X32009523Y-62132380D01*
X32485714Y-63132380D02*
X32485714Y-62132380D01*
X32485714Y-62132380D02*
X32723809Y-62132380D01*
X32723809Y-62132380D02*
X32866666Y-62180000D01*
X32866666Y-62180000D02*
X32961904Y-62275238D01*
X32961904Y-62275238D02*
X33009523Y-62370476D01*
X33009523Y-62370476D02*
X33057142Y-62560952D01*
X33057142Y-62560952D02*
X33057142Y-62703809D01*
X33057142Y-62703809D02*
X33009523Y-62894285D01*
X33009523Y-62894285D02*
X32961904Y-62989523D01*
X32961904Y-62989523D02*
X32866666Y-63084761D01*
X32866666Y-63084761D02*
X32723809Y-63132380D01*
X32723809Y-63132380D02*
X32485714Y-63132380D01*
X55161904Y-82030000D02*
X55066666Y-81982380D01*
X55066666Y-81982380D02*
X54923809Y-81982380D01*
X54923809Y-81982380D02*
X54780952Y-82030000D01*
X54780952Y-82030000D02*
X54685714Y-82125238D01*
X54685714Y-82125238D02*
X54638095Y-82220476D01*
X54638095Y-82220476D02*
X54590476Y-82410952D01*
X54590476Y-82410952D02*
X54590476Y-82553809D01*
X54590476Y-82553809D02*
X54638095Y-82744285D01*
X54638095Y-82744285D02*
X54685714Y-82839523D01*
X54685714Y-82839523D02*
X54780952Y-82934761D01*
X54780952Y-82934761D02*
X54923809Y-82982380D01*
X54923809Y-82982380D02*
X55019047Y-82982380D01*
X55019047Y-82982380D02*
X55161904Y-82934761D01*
X55161904Y-82934761D02*
X55209523Y-82887142D01*
X55209523Y-82887142D02*
X55209523Y-82553809D01*
X55209523Y-82553809D02*
X55019047Y-82553809D01*
X55638095Y-82982380D02*
X55638095Y-81982380D01*
X55638095Y-81982380D02*
X56209523Y-82982380D01*
X56209523Y-82982380D02*
X56209523Y-81982380D01*
X56685714Y-82982380D02*
X56685714Y-81982380D01*
X56685714Y-81982380D02*
X56923809Y-81982380D01*
X56923809Y-81982380D02*
X57066666Y-82030000D01*
X57066666Y-82030000D02*
X57161904Y-82125238D01*
X57161904Y-82125238D02*
X57209523Y-82220476D01*
X57209523Y-82220476D02*
X57257142Y-82410952D01*
X57257142Y-82410952D02*
X57257142Y-82553809D01*
X57257142Y-82553809D02*
X57209523Y-82744285D01*
X57209523Y-82744285D02*
X57161904Y-82839523D01*
X57161904Y-82839523D02*
X57066666Y-82934761D01*
X57066666Y-82934761D02*
X56923809Y-82982380D01*
X56923809Y-82982380D02*
X56685714Y-82982380D01*
X51162380Y-83136904D02*
X51971904Y-83136904D01*
X51971904Y-83136904D02*
X52067142Y-83089285D01*
X52067142Y-83089285D02*
X52114761Y-83041666D01*
X52114761Y-83041666D02*
X52162380Y-82946428D01*
X52162380Y-82946428D02*
X52162380Y-82755952D01*
X52162380Y-82755952D02*
X52114761Y-82660714D01*
X52114761Y-82660714D02*
X52067142Y-82613095D01*
X52067142Y-82613095D02*
X51971904Y-82565476D01*
X51971904Y-82565476D02*
X51162380Y-82565476D01*
X52114761Y-82136904D02*
X52162380Y-81994047D01*
X52162380Y-81994047D02*
X52162380Y-81755952D01*
X52162380Y-81755952D02*
X52114761Y-81660714D01*
X52114761Y-81660714D02*
X52067142Y-81613095D01*
X52067142Y-81613095D02*
X51971904Y-81565476D01*
X51971904Y-81565476D02*
X51876666Y-81565476D01*
X51876666Y-81565476D02*
X51781428Y-81613095D01*
X51781428Y-81613095D02*
X51733809Y-81660714D01*
X51733809Y-81660714D02*
X51686190Y-81755952D01*
X51686190Y-81755952D02*
X51638571Y-81946428D01*
X51638571Y-81946428D02*
X51590952Y-82041666D01*
X51590952Y-82041666D02*
X51543333Y-82089285D01*
X51543333Y-82089285D02*
X51448095Y-82136904D01*
X51448095Y-82136904D02*
X51352857Y-82136904D01*
X51352857Y-82136904D02*
X51257619Y-82089285D01*
X51257619Y-82089285D02*
X51210000Y-82041666D01*
X51210000Y-82041666D02*
X51162380Y-81946428D01*
X51162380Y-81946428D02*
X51162380Y-81708333D01*
X51162380Y-81708333D02*
X51210000Y-81565476D01*
X51638571Y-80803571D02*
X51686190Y-80660714D01*
X51686190Y-80660714D02*
X51733809Y-80613095D01*
X51733809Y-80613095D02*
X51829047Y-80565476D01*
X51829047Y-80565476D02*
X51971904Y-80565476D01*
X51971904Y-80565476D02*
X52067142Y-80613095D01*
X52067142Y-80613095D02*
X52114761Y-80660714D01*
X52114761Y-80660714D02*
X52162380Y-80755952D01*
X52162380Y-80755952D02*
X52162380Y-81136904D01*
X52162380Y-81136904D02*
X51162380Y-81136904D01*
X51162380Y-81136904D02*
X51162380Y-80803571D01*
X51162380Y-80803571D02*
X51210000Y-80708333D01*
X51210000Y-80708333D02*
X51257619Y-80660714D01*
X51257619Y-80660714D02*
X51352857Y-80613095D01*
X51352857Y-80613095D02*
X51448095Y-80613095D01*
X51448095Y-80613095D02*
X51543333Y-80660714D01*
X51543333Y-80660714D02*
X51590952Y-80708333D01*
X51590952Y-80708333D02*
X51638571Y-80803571D01*
X51638571Y-80803571D02*
X51638571Y-81136904D01*
X53258571Y-82803571D02*
X53306190Y-82660714D01*
X53306190Y-82660714D02*
X53353809Y-82613095D01*
X53353809Y-82613095D02*
X53449047Y-82565476D01*
X53449047Y-82565476D02*
X53591904Y-82565476D01*
X53591904Y-82565476D02*
X53687142Y-82613095D01*
X53687142Y-82613095D02*
X53734761Y-82660714D01*
X53734761Y-82660714D02*
X53782380Y-82755952D01*
X53782380Y-82755952D02*
X53782380Y-83136904D01*
X53782380Y-83136904D02*
X52782380Y-83136904D01*
X52782380Y-83136904D02*
X52782380Y-82803571D01*
X52782380Y-82803571D02*
X52830000Y-82708333D01*
X52830000Y-82708333D02*
X52877619Y-82660714D01*
X52877619Y-82660714D02*
X52972857Y-82613095D01*
X52972857Y-82613095D02*
X53068095Y-82613095D01*
X53068095Y-82613095D02*
X53163333Y-82660714D01*
X53163333Y-82660714D02*
X53210952Y-82708333D01*
X53210952Y-82708333D02*
X53258571Y-82803571D01*
X53258571Y-82803571D02*
X53258571Y-83136904D01*
X52782380Y-81946428D02*
X52782380Y-81755952D01*
X52782380Y-81755952D02*
X52830000Y-81660714D01*
X52830000Y-81660714D02*
X52925238Y-81565476D01*
X52925238Y-81565476D02*
X53115714Y-81517857D01*
X53115714Y-81517857D02*
X53449047Y-81517857D01*
X53449047Y-81517857D02*
X53639523Y-81565476D01*
X53639523Y-81565476D02*
X53734761Y-81660714D01*
X53734761Y-81660714D02*
X53782380Y-81755952D01*
X53782380Y-81755952D02*
X53782380Y-81946428D01*
X53782380Y-81946428D02*
X53734761Y-82041666D01*
X53734761Y-82041666D02*
X53639523Y-82136904D01*
X53639523Y-82136904D02*
X53449047Y-82184523D01*
X53449047Y-82184523D02*
X53115714Y-82184523D01*
X53115714Y-82184523D02*
X52925238Y-82136904D01*
X52925238Y-82136904D02*
X52830000Y-82041666D01*
X52830000Y-82041666D02*
X52782380Y-81946428D01*
X52782380Y-80898809D02*
X52782380Y-80708333D01*
X52782380Y-80708333D02*
X52830000Y-80613095D01*
X52830000Y-80613095D02*
X52925238Y-80517857D01*
X52925238Y-80517857D02*
X53115714Y-80470238D01*
X53115714Y-80470238D02*
X53449047Y-80470238D01*
X53449047Y-80470238D02*
X53639523Y-80517857D01*
X53639523Y-80517857D02*
X53734761Y-80613095D01*
X53734761Y-80613095D02*
X53782380Y-80708333D01*
X53782380Y-80708333D02*
X53782380Y-80898809D01*
X53782380Y-80898809D02*
X53734761Y-80994047D01*
X53734761Y-80994047D02*
X53639523Y-81089285D01*
X53639523Y-81089285D02*
X53449047Y-81136904D01*
X53449047Y-81136904D02*
X53115714Y-81136904D01*
X53115714Y-81136904D02*
X52925238Y-81089285D01*
X52925238Y-81089285D02*
X52830000Y-80994047D01*
X52830000Y-80994047D02*
X52782380Y-80898809D01*
X52782380Y-80184523D02*
X52782380Y-79613095D01*
X53782380Y-79898809D02*
X52782380Y-79898809D01*
X37115476Y-60859761D02*
X37258333Y-60907380D01*
X37258333Y-60907380D02*
X37496428Y-60907380D01*
X37496428Y-60907380D02*
X37591666Y-60859761D01*
X37591666Y-60859761D02*
X37639285Y-60812142D01*
X37639285Y-60812142D02*
X37686904Y-60716904D01*
X37686904Y-60716904D02*
X37686904Y-60621666D01*
X37686904Y-60621666D02*
X37639285Y-60526428D01*
X37639285Y-60526428D02*
X37591666Y-60478809D01*
X37591666Y-60478809D02*
X37496428Y-60431190D01*
X37496428Y-60431190D02*
X37305952Y-60383571D01*
X37305952Y-60383571D02*
X37210714Y-60335952D01*
X37210714Y-60335952D02*
X37163095Y-60288333D01*
X37163095Y-60288333D02*
X37115476Y-60193095D01*
X37115476Y-60193095D02*
X37115476Y-60097857D01*
X37115476Y-60097857D02*
X37163095Y-60002619D01*
X37163095Y-60002619D02*
X37210714Y-59955000D01*
X37210714Y-59955000D02*
X37305952Y-59907380D01*
X37305952Y-59907380D02*
X37544047Y-59907380D01*
X37544047Y-59907380D02*
X37686904Y-59955000D01*
X38067857Y-60002619D02*
X38115476Y-59955000D01*
X38115476Y-59955000D02*
X38210714Y-59907380D01*
X38210714Y-59907380D02*
X38448809Y-59907380D01*
X38448809Y-59907380D02*
X38544047Y-59955000D01*
X38544047Y-59955000D02*
X38591666Y-60002619D01*
X38591666Y-60002619D02*
X38639285Y-60097857D01*
X38639285Y-60097857D02*
X38639285Y-60193095D01*
X38639285Y-60193095D02*
X38591666Y-60335952D01*
X38591666Y-60335952D02*
X38020238Y-60907380D01*
X38020238Y-60907380D02*
X38639285Y-60907380D01*
%TO.C,U2*%
X37586904Y-79626619D02*
X37586904Y-78817095D01*
X37586904Y-78817095D02*
X37539285Y-78721857D01*
X37539285Y-78721857D02*
X37491666Y-78674238D01*
X37491666Y-78674238D02*
X37396428Y-78626619D01*
X37396428Y-78626619D02*
X37205952Y-78626619D01*
X37205952Y-78626619D02*
X37110714Y-78674238D01*
X37110714Y-78674238D02*
X37063095Y-78721857D01*
X37063095Y-78721857D02*
X37015476Y-78817095D01*
X37015476Y-78817095D02*
X37015476Y-79626619D01*
X36586904Y-79531380D02*
X36539285Y-79579000D01*
X36539285Y-79579000D02*
X36444047Y-79626619D01*
X36444047Y-79626619D02*
X36205952Y-79626619D01*
X36205952Y-79626619D02*
X36110714Y-79579000D01*
X36110714Y-79579000D02*
X36063095Y-79531380D01*
X36063095Y-79531380D02*
X36015476Y-79436142D01*
X36015476Y-79436142D02*
X36015476Y-79340904D01*
X36015476Y-79340904D02*
X36063095Y-79198047D01*
X36063095Y-79198047D02*
X36634523Y-78626619D01*
X36634523Y-78626619D02*
X36015476Y-78626619D01*
%TO.C,R35*%
X45632142Y-72487380D02*
X45298809Y-72011190D01*
X45060714Y-72487380D02*
X45060714Y-71487380D01*
X45060714Y-71487380D02*
X45441666Y-71487380D01*
X45441666Y-71487380D02*
X45536904Y-71535000D01*
X45536904Y-71535000D02*
X45584523Y-71582619D01*
X45584523Y-71582619D02*
X45632142Y-71677857D01*
X45632142Y-71677857D02*
X45632142Y-71820714D01*
X45632142Y-71820714D02*
X45584523Y-71915952D01*
X45584523Y-71915952D02*
X45536904Y-71963571D01*
X45536904Y-71963571D02*
X45441666Y-72011190D01*
X45441666Y-72011190D02*
X45060714Y-72011190D01*
X45965476Y-71487380D02*
X46584523Y-71487380D01*
X46584523Y-71487380D02*
X46251190Y-71868333D01*
X46251190Y-71868333D02*
X46394047Y-71868333D01*
X46394047Y-71868333D02*
X46489285Y-71915952D01*
X46489285Y-71915952D02*
X46536904Y-71963571D01*
X46536904Y-71963571D02*
X46584523Y-72058809D01*
X46584523Y-72058809D02*
X46584523Y-72296904D01*
X46584523Y-72296904D02*
X46536904Y-72392142D01*
X46536904Y-72392142D02*
X46489285Y-72439761D01*
X46489285Y-72439761D02*
X46394047Y-72487380D01*
X46394047Y-72487380D02*
X46108333Y-72487380D01*
X46108333Y-72487380D02*
X46013095Y-72439761D01*
X46013095Y-72439761D02*
X45965476Y-72392142D01*
X47489285Y-71487380D02*
X47013095Y-71487380D01*
X47013095Y-71487380D02*
X46965476Y-71963571D01*
X46965476Y-71963571D02*
X47013095Y-71915952D01*
X47013095Y-71915952D02*
X47108333Y-71868333D01*
X47108333Y-71868333D02*
X47346428Y-71868333D01*
X47346428Y-71868333D02*
X47441666Y-71915952D01*
X47441666Y-71915952D02*
X47489285Y-71963571D01*
X47489285Y-71963571D02*
X47536904Y-72058809D01*
X47536904Y-72058809D02*
X47536904Y-72296904D01*
X47536904Y-72296904D02*
X47489285Y-72392142D01*
X47489285Y-72392142D02*
X47441666Y-72439761D01*
X47441666Y-72439761D02*
X47346428Y-72487380D01*
X47346428Y-72487380D02*
X47108333Y-72487380D01*
X47108333Y-72487380D02*
X47013095Y-72439761D01*
X47013095Y-72439761D02*
X46965476Y-72392142D01*
%TO.C,D6*%
X55286905Y-59067380D02*
X55286905Y-58067380D01*
X55286905Y-58067380D02*
X55525000Y-58067380D01*
X55525000Y-58067380D02*
X55667857Y-58115000D01*
X55667857Y-58115000D02*
X55763095Y-58210238D01*
X55763095Y-58210238D02*
X55810714Y-58305476D01*
X55810714Y-58305476D02*
X55858333Y-58495952D01*
X55858333Y-58495952D02*
X55858333Y-58638809D01*
X55858333Y-58638809D02*
X55810714Y-58829285D01*
X55810714Y-58829285D02*
X55763095Y-58924523D01*
X55763095Y-58924523D02*
X55667857Y-59019761D01*
X55667857Y-59019761D02*
X55525000Y-59067380D01*
X55525000Y-59067380D02*
X55286905Y-59067380D01*
X56715476Y-58067380D02*
X56525000Y-58067380D01*
X56525000Y-58067380D02*
X56429762Y-58115000D01*
X56429762Y-58115000D02*
X56382143Y-58162619D01*
X56382143Y-58162619D02*
X56286905Y-58305476D01*
X56286905Y-58305476D02*
X56239286Y-58495952D01*
X56239286Y-58495952D02*
X56239286Y-58876904D01*
X56239286Y-58876904D02*
X56286905Y-58972142D01*
X56286905Y-58972142D02*
X56334524Y-59019761D01*
X56334524Y-59019761D02*
X56429762Y-59067380D01*
X56429762Y-59067380D02*
X56620238Y-59067380D01*
X56620238Y-59067380D02*
X56715476Y-59019761D01*
X56715476Y-59019761D02*
X56763095Y-58972142D01*
X56763095Y-58972142D02*
X56810714Y-58876904D01*
X56810714Y-58876904D02*
X56810714Y-58638809D01*
X56810714Y-58638809D02*
X56763095Y-58543571D01*
X56763095Y-58543571D02*
X56715476Y-58495952D01*
X56715476Y-58495952D02*
X56620238Y-58448333D01*
X56620238Y-58448333D02*
X56429762Y-58448333D01*
X56429762Y-58448333D02*
X56334524Y-58495952D01*
X56334524Y-58495952D02*
X56286905Y-58543571D01*
X56286905Y-58543571D02*
X56239286Y-58638809D01*
%TO.C,D5*%
X55286905Y-60617380D02*
X55286905Y-59617380D01*
X55286905Y-59617380D02*
X55525000Y-59617380D01*
X55525000Y-59617380D02*
X55667857Y-59665000D01*
X55667857Y-59665000D02*
X55763095Y-59760238D01*
X55763095Y-59760238D02*
X55810714Y-59855476D01*
X55810714Y-59855476D02*
X55858333Y-60045952D01*
X55858333Y-60045952D02*
X55858333Y-60188809D01*
X55858333Y-60188809D02*
X55810714Y-60379285D01*
X55810714Y-60379285D02*
X55763095Y-60474523D01*
X55763095Y-60474523D02*
X55667857Y-60569761D01*
X55667857Y-60569761D02*
X55525000Y-60617380D01*
X55525000Y-60617380D02*
X55286905Y-60617380D01*
X56763095Y-59617380D02*
X56286905Y-59617380D01*
X56286905Y-59617380D02*
X56239286Y-60093571D01*
X56239286Y-60093571D02*
X56286905Y-60045952D01*
X56286905Y-60045952D02*
X56382143Y-59998333D01*
X56382143Y-59998333D02*
X56620238Y-59998333D01*
X56620238Y-59998333D02*
X56715476Y-60045952D01*
X56715476Y-60045952D02*
X56763095Y-60093571D01*
X56763095Y-60093571D02*
X56810714Y-60188809D01*
X56810714Y-60188809D02*
X56810714Y-60426904D01*
X56810714Y-60426904D02*
X56763095Y-60522142D01*
X56763095Y-60522142D02*
X56715476Y-60569761D01*
X56715476Y-60569761D02*
X56620238Y-60617380D01*
X56620238Y-60617380D02*
X56382143Y-60617380D01*
X56382143Y-60617380D02*
X56286905Y-60569761D01*
X56286905Y-60569761D02*
X56239286Y-60522142D01*
%TO.C,R34*%
X35457142Y-63167380D02*
X35123809Y-62691190D01*
X34885714Y-63167380D02*
X34885714Y-62167380D01*
X34885714Y-62167380D02*
X35266666Y-62167380D01*
X35266666Y-62167380D02*
X35361904Y-62215000D01*
X35361904Y-62215000D02*
X35409523Y-62262619D01*
X35409523Y-62262619D02*
X35457142Y-62357857D01*
X35457142Y-62357857D02*
X35457142Y-62500714D01*
X35457142Y-62500714D02*
X35409523Y-62595952D01*
X35409523Y-62595952D02*
X35361904Y-62643571D01*
X35361904Y-62643571D02*
X35266666Y-62691190D01*
X35266666Y-62691190D02*
X34885714Y-62691190D01*
X35790476Y-62167380D02*
X36409523Y-62167380D01*
X36409523Y-62167380D02*
X36076190Y-62548333D01*
X36076190Y-62548333D02*
X36219047Y-62548333D01*
X36219047Y-62548333D02*
X36314285Y-62595952D01*
X36314285Y-62595952D02*
X36361904Y-62643571D01*
X36361904Y-62643571D02*
X36409523Y-62738809D01*
X36409523Y-62738809D02*
X36409523Y-62976904D01*
X36409523Y-62976904D02*
X36361904Y-63072142D01*
X36361904Y-63072142D02*
X36314285Y-63119761D01*
X36314285Y-63119761D02*
X36219047Y-63167380D01*
X36219047Y-63167380D02*
X35933333Y-63167380D01*
X35933333Y-63167380D02*
X35838095Y-63119761D01*
X35838095Y-63119761D02*
X35790476Y-63072142D01*
X37266666Y-62500714D02*
X37266666Y-63167380D01*
X37028571Y-62119761D02*
X36790476Y-62834047D01*
X36790476Y-62834047D02*
X37409523Y-62834047D01*
%TO.C,Q3*%
X109886761Y-70312619D02*
X109791523Y-70265000D01*
X109791523Y-70265000D02*
X109696285Y-70169761D01*
X109696285Y-70169761D02*
X109553428Y-70026904D01*
X109553428Y-70026904D02*
X109458190Y-69979285D01*
X109458190Y-69979285D02*
X109362952Y-69979285D01*
X109410571Y-70217380D02*
X109315333Y-70169761D01*
X109315333Y-70169761D02*
X109220095Y-70074523D01*
X109220095Y-70074523D02*
X109172476Y-69884047D01*
X109172476Y-69884047D02*
X109172476Y-69550714D01*
X109172476Y-69550714D02*
X109220095Y-69360238D01*
X109220095Y-69360238D02*
X109315333Y-69265000D01*
X109315333Y-69265000D02*
X109410571Y-69217380D01*
X109410571Y-69217380D02*
X109601047Y-69217380D01*
X109601047Y-69217380D02*
X109696285Y-69265000D01*
X109696285Y-69265000D02*
X109791523Y-69360238D01*
X109791523Y-69360238D02*
X109839142Y-69550714D01*
X109839142Y-69550714D02*
X109839142Y-69884047D01*
X109839142Y-69884047D02*
X109791523Y-70074523D01*
X109791523Y-70074523D02*
X109696285Y-70169761D01*
X109696285Y-70169761D02*
X109601047Y-70217380D01*
X109601047Y-70217380D02*
X109410571Y-70217380D01*
X110172476Y-69217380D02*
X110791523Y-69217380D01*
X110791523Y-69217380D02*
X110458190Y-69598333D01*
X110458190Y-69598333D02*
X110601047Y-69598333D01*
X110601047Y-69598333D02*
X110696285Y-69645952D01*
X110696285Y-69645952D02*
X110743904Y-69693571D01*
X110743904Y-69693571D02*
X110791523Y-69788809D01*
X110791523Y-69788809D02*
X110791523Y-70026904D01*
X110791523Y-70026904D02*
X110743904Y-70122142D01*
X110743904Y-70122142D02*
X110696285Y-70169761D01*
X110696285Y-70169761D02*
X110601047Y-70217380D01*
X110601047Y-70217380D02*
X110315333Y-70217380D01*
X110315333Y-70217380D02*
X110220095Y-70169761D01*
X110220095Y-70169761D02*
X110172476Y-70122142D01*
%TO.C,R33*%
X100607142Y-66442380D02*
X100273809Y-65966190D01*
X100035714Y-66442380D02*
X100035714Y-65442380D01*
X100035714Y-65442380D02*
X100416666Y-65442380D01*
X100416666Y-65442380D02*
X100511904Y-65490000D01*
X100511904Y-65490000D02*
X100559523Y-65537619D01*
X100559523Y-65537619D02*
X100607142Y-65632857D01*
X100607142Y-65632857D02*
X100607142Y-65775714D01*
X100607142Y-65775714D02*
X100559523Y-65870952D01*
X100559523Y-65870952D02*
X100511904Y-65918571D01*
X100511904Y-65918571D02*
X100416666Y-65966190D01*
X100416666Y-65966190D02*
X100035714Y-65966190D01*
X100940476Y-65442380D02*
X101559523Y-65442380D01*
X101559523Y-65442380D02*
X101226190Y-65823333D01*
X101226190Y-65823333D02*
X101369047Y-65823333D01*
X101369047Y-65823333D02*
X101464285Y-65870952D01*
X101464285Y-65870952D02*
X101511904Y-65918571D01*
X101511904Y-65918571D02*
X101559523Y-66013809D01*
X101559523Y-66013809D02*
X101559523Y-66251904D01*
X101559523Y-66251904D02*
X101511904Y-66347142D01*
X101511904Y-66347142D02*
X101464285Y-66394761D01*
X101464285Y-66394761D02*
X101369047Y-66442380D01*
X101369047Y-66442380D02*
X101083333Y-66442380D01*
X101083333Y-66442380D02*
X100988095Y-66394761D01*
X100988095Y-66394761D02*
X100940476Y-66347142D01*
X101892857Y-65442380D02*
X102511904Y-65442380D01*
X102511904Y-65442380D02*
X102178571Y-65823333D01*
X102178571Y-65823333D02*
X102321428Y-65823333D01*
X102321428Y-65823333D02*
X102416666Y-65870952D01*
X102416666Y-65870952D02*
X102464285Y-65918571D01*
X102464285Y-65918571D02*
X102511904Y-66013809D01*
X102511904Y-66013809D02*
X102511904Y-66251904D01*
X102511904Y-66251904D02*
X102464285Y-66347142D01*
X102464285Y-66347142D02*
X102416666Y-66394761D01*
X102416666Y-66394761D02*
X102321428Y-66442380D01*
X102321428Y-66442380D02*
X102035714Y-66442380D01*
X102035714Y-66442380D02*
X101940476Y-66394761D01*
X101940476Y-66394761D02*
X101892857Y-66347142D01*
%TO.C,R32*%
X85971142Y-62343380D02*
X85637809Y-61867190D01*
X85399714Y-62343380D02*
X85399714Y-61343380D01*
X85399714Y-61343380D02*
X85780666Y-61343380D01*
X85780666Y-61343380D02*
X85875904Y-61391000D01*
X85875904Y-61391000D02*
X85923523Y-61438619D01*
X85923523Y-61438619D02*
X85971142Y-61533857D01*
X85971142Y-61533857D02*
X85971142Y-61676714D01*
X85971142Y-61676714D02*
X85923523Y-61771952D01*
X85923523Y-61771952D02*
X85875904Y-61819571D01*
X85875904Y-61819571D02*
X85780666Y-61867190D01*
X85780666Y-61867190D02*
X85399714Y-61867190D01*
X86304476Y-61343380D02*
X86923523Y-61343380D01*
X86923523Y-61343380D02*
X86590190Y-61724333D01*
X86590190Y-61724333D02*
X86733047Y-61724333D01*
X86733047Y-61724333D02*
X86828285Y-61771952D01*
X86828285Y-61771952D02*
X86875904Y-61819571D01*
X86875904Y-61819571D02*
X86923523Y-61914809D01*
X86923523Y-61914809D02*
X86923523Y-62152904D01*
X86923523Y-62152904D02*
X86875904Y-62248142D01*
X86875904Y-62248142D02*
X86828285Y-62295761D01*
X86828285Y-62295761D02*
X86733047Y-62343380D01*
X86733047Y-62343380D02*
X86447333Y-62343380D01*
X86447333Y-62343380D02*
X86352095Y-62295761D01*
X86352095Y-62295761D02*
X86304476Y-62248142D01*
X87304476Y-61438619D02*
X87352095Y-61391000D01*
X87352095Y-61391000D02*
X87447333Y-61343380D01*
X87447333Y-61343380D02*
X87685428Y-61343380D01*
X87685428Y-61343380D02*
X87780666Y-61391000D01*
X87780666Y-61391000D02*
X87828285Y-61438619D01*
X87828285Y-61438619D02*
X87875904Y-61533857D01*
X87875904Y-61533857D02*
X87875904Y-61629095D01*
X87875904Y-61629095D02*
X87828285Y-61771952D01*
X87828285Y-61771952D02*
X87256857Y-62343380D01*
X87256857Y-62343380D02*
X87875904Y-62343380D01*
%TO.C,R31*%
X93083142Y-62851380D02*
X92749809Y-62375190D01*
X92511714Y-62851380D02*
X92511714Y-61851380D01*
X92511714Y-61851380D02*
X92892666Y-61851380D01*
X92892666Y-61851380D02*
X92987904Y-61899000D01*
X92987904Y-61899000D02*
X93035523Y-61946619D01*
X93035523Y-61946619D02*
X93083142Y-62041857D01*
X93083142Y-62041857D02*
X93083142Y-62184714D01*
X93083142Y-62184714D02*
X93035523Y-62279952D01*
X93035523Y-62279952D02*
X92987904Y-62327571D01*
X92987904Y-62327571D02*
X92892666Y-62375190D01*
X92892666Y-62375190D02*
X92511714Y-62375190D01*
X93416476Y-61851380D02*
X94035523Y-61851380D01*
X94035523Y-61851380D02*
X93702190Y-62232333D01*
X93702190Y-62232333D02*
X93845047Y-62232333D01*
X93845047Y-62232333D02*
X93940285Y-62279952D01*
X93940285Y-62279952D02*
X93987904Y-62327571D01*
X93987904Y-62327571D02*
X94035523Y-62422809D01*
X94035523Y-62422809D02*
X94035523Y-62660904D01*
X94035523Y-62660904D02*
X93987904Y-62756142D01*
X93987904Y-62756142D02*
X93940285Y-62803761D01*
X93940285Y-62803761D02*
X93845047Y-62851380D01*
X93845047Y-62851380D02*
X93559333Y-62851380D01*
X93559333Y-62851380D02*
X93464095Y-62803761D01*
X93464095Y-62803761D02*
X93416476Y-62756142D01*
X94987904Y-62851380D02*
X94416476Y-62851380D01*
X94702190Y-62851380D02*
X94702190Y-61851380D01*
X94702190Y-61851380D02*
X94606952Y-61994238D01*
X94606952Y-61994238D02*
X94511714Y-62089476D01*
X94511714Y-62089476D02*
X94416476Y-62137095D01*
%TO.C,Q4*%
X88550761Y-64724619D02*
X88455523Y-64677000D01*
X88455523Y-64677000D02*
X88360285Y-64581761D01*
X88360285Y-64581761D02*
X88217428Y-64438904D01*
X88217428Y-64438904D02*
X88122190Y-64391285D01*
X88122190Y-64391285D02*
X88026952Y-64391285D01*
X88074571Y-64629380D02*
X87979333Y-64581761D01*
X87979333Y-64581761D02*
X87884095Y-64486523D01*
X87884095Y-64486523D02*
X87836476Y-64296047D01*
X87836476Y-64296047D02*
X87836476Y-63962714D01*
X87836476Y-63962714D02*
X87884095Y-63772238D01*
X87884095Y-63772238D02*
X87979333Y-63677000D01*
X87979333Y-63677000D02*
X88074571Y-63629380D01*
X88074571Y-63629380D02*
X88265047Y-63629380D01*
X88265047Y-63629380D02*
X88360285Y-63677000D01*
X88360285Y-63677000D02*
X88455523Y-63772238D01*
X88455523Y-63772238D02*
X88503142Y-63962714D01*
X88503142Y-63962714D02*
X88503142Y-64296047D01*
X88503142Y-64296047D02*
X88455523Y-64486523D01*
X88455523Y-64486523D02*
X88360285Y-64581761D01*
X88360285Y-64581761D02*
X88265047Y-64629380D01*
X88265047Y-64629380D02*
X88074571Y-64629380D01*
X89360285Y-63962714D02*
X89360285Y-64629380D01*
X89122190Y-63581761D02*
X88884095Y-64296047D01*
X88884095Y-64296047D02*
X89503142Y-64296047D01*
%TO.C,R30*%
X99327380Y-81414857D02*
X98851190Y-81748190D01*
X99327380Y-81986285D02*
X98327380Y-81986285D01*
X98327380Y-81986285D02*
X98327380Y-81605333D01*
X98327380Y-81605333D02*
X98375000Y-81510095D01*
X98375000Y-81510095D02*
X98422619Y-81462476D01*
X98422619Y-81462476D02*
X98517857Y-81414857D01*
X98517857Y-81414857D02*
X98660714Y-81414857D01*
X98660714Y-81414857D02*
X98755952Y-81462476D01*
X98755952Y-81462476D02*
X98803571Y-81510095D01*
X98803571Y-81510095D02*
X98851190Y-81605333D01*
X98851190Y-81605333D02*
X98851190Y-81986285D01*
X98327380Y-81081523D02*
X98327380Y-80462476D01*
X98327380Y-80462476D02*
X98708333Y-80795809D01*
X98708333Y-80795809D02*
X98708333Y-80652952D01*
X98708333Y-80652952D02*
X98755952Y-80557714D01*
X98755952Y-80557714D02*
X98803571Y-80510095D01*
X98803571Y-80510095D02*
X98898809Y-80462476D01*
X98898809Y-80462476D02*
X99136904Y-80462476D01*
X99136904Y-80462476D02*
X99232142Y-80510095D01*
X99232142Y-80510095D02*
X99279761Y-80557714D01*
X99279761Y-80557714D02*
X99327380Y-80652952D01*
X99327380Y-80652952D02*
X99327380Y-80938666D01*
X99327380Y-80938666D02*
X99279761Y-81033904D01*
X99279761Y-81033904D02*
X99232142Y-81081523D01*
X98327380Y-79843428D02*
X98327380Y-79748190D01*
X98327380Y-79748190D02*
X98375000Y-79652952D01*
X98375000Y-79652952D02*
X98422619Y-79605333D01*
X98422619Y-79605333D02*
X98517857Y-79557714D01*
X98517857Y-79557714D02*
X98708333Y-79510095D01*
X98708333Y-79510095D02*
X98946428Y-79510095D01*
X98946428Y-79510095D02*
X99136904Y-79557714D01*
X99136904Y-79557714D02*
X99232142Y-79605333D01*
X99232142Y-79605333D02*
X99279761Y-79652952D01*
X99279761Y-79652952D02*
X99327380Y-79748190D01*
X99327380Y-79748190D02*
X99327380Y-79843428D01*
X99327380Y-79843428D02*
X99279761Y-79938666D01*
X99279761Y-79938666D02*
X99232142Y-79986285D01*
X99232142Y-79986285D02*
X99136904Y-80033904D01*
X99136904Y-80033904D02*
X98946428Y-80081523D01*
X98946428Y-80081523D02*
X98708333Y-80081523D01*
X98708333Y-80081523D02*
X98517857Y-80033904D01*
X98517857Y-80033904D02*
X98422619Y-79986285D01*
X98422619Y-79986285D02*
X98375000Y-79938666D01*
X98375000Y-79938666D02*
X98327380Y-79843428D01*
%TO.C,R29*%
X41057142Y-81892380D02*
X40723809Y-81416190D01*
X40485714Y-81892380D02*
X40485714Y-80892380D01*
X40485714Y-80892380D02*
X40866666Y-80892380D01*
X40866666Y-80892380D02*
X40961904Y-80940000D01*
X40961904Y-80940000D02*
X41009523Y-80987619D01*
X41009523Y-80987619D02*
X41057142Y-81082857D01*
X41057142Y-81082857D02*
X41057142Y-81225714D01*
X41057142Y-81225714D02*
X41009523Y-81320952D01*
X41009523Y-81320952D02*
X40961904Y-81368571D01*
X40961904Y-81368571D02*
X40866666Y-81416190D01*
X40866666Y-81416190D02*
X40485714Y-81416190D01*
X41438095Y-80987619D02*
X41485714Y-80940000D01*
X41485714Y-80940000D02*
X41580952Y-80892380D01*
X41580952Y-80892380D02*
X41819047Y-80892380D01*
X41819047Y-80892380D02*
X41914285Y-80940000D01*
X41914285Y-80940000D02*
X41961904Y-80987619D01*
X41961904Y-80987619D02*
X42009523Y-81082857D01*
X42009523Y-81082857D02*
X42009523Y-81178095D01*
X42009523Y-81178095D02*
X41961904Y-81320952D01*
X41961904Y-81320952D02*
X41390476Y-81892380D01*
X41390476Y-81892380D02*
X42009523Y-81892380D01*
X42485714Y-81892380D02*
X42676190Y-81892380D01*
X42676190Y-81892380D02*
X42771428Y-81844761D01*
X42771428Y-81844761D02*
X42819047Y-81797142D01*
X42819047Y-81797142D02*
X42914285Y-81654285D01*
X42914285Y-81654285D02*
X42961904Y-81463809D01*
X42961904Y-81463809D02*
X42961904Y-81082857D01*
X42961904Y-81082857D02*
X42914285Y-80987619D01*
X42914285Y-80987619D02*
X42866666Y-80940000D01*
X42866666Y-80940000D02*
X42771428Y-80892380D01*
X42771428Y-80892380D02*
X42580952Y-80892380D01*
X42580952Y-80892380D02*
X42485714Y-80940000D01*
X42485714Y-80940000D02*
X42438095Y-80987619D01*
X42438095Y-80987619D02*
X42390476Y-81082857D01*
X42390476Y-81082857D02*
X42390476Y-81320952D01*
X42390476Y-81320952D02*
X42438095Y-81416190D01*
X42438095Y-81416190D02*
X42485714Y-81463809D01*
X42485714Y-81463809D02*
X42580952Y-81511428D01*
X42580952Y-81511428D02*
X42771428Y-81511428D01*
X42771428Y-81511428D02*
X42866666Y-81463809D01*
X42866666Y-81463809D02*
X42914285Y-81416190D01*
X42914285Y-81416190D02*
X42961904Y-81320952D01*
%TO.C,R27*%
X104387380Y-74302857D02*
X103911190Y-74636190D01*
X104387380Y-74874285D02*
X103387380Y-74874285D01*
X103387380Y-74874285D02*
X103387380Y-74493333D01*
X103387380Y-74493333D02*
X103435000Y-74398095D01*
X103435000Y-74398095D02*
X103482619Y-74350476D01*
X103482619Y-74350476D02*
X103577857Y-74302857D01*
X103577857Y-74302857D02*
X103720714Y-74302857D01*
X103720714Y-74302857D02*
X103815952Y-74350476D01*
X103815952Y-74350476D02*
X103863571Y-74398095D01*
X103863571Y-74398095D02*
X103911190Y-74493333D01*
X103911190Y-74493333D02*
X103911190Y-74874285D01*
X103482619Y-73921904D02*
X103435000Y-73874285D01*
X103435000Y-73874285D02*
X103387380Y-73779047D01*
X103387380Y-73779047D02*
X103387380Y-73540952D01*
X103387380Y-73540952D02*
X103435000Y-73445714D01*
X103435000Y-73445714D02*
X103482619Y-73398095D01*
X103482619Y-73398095D02*
X103577857Y-73350476D01*
X103577857Y-73350476D02*
X103673095Y-73350476D01*
X103673095Y-73350476D02*
X103815952Y-73398095D01*
X103815952Y-73398095D02*
X104387380Y-73969523D01*
X104387380Y-73969523D02*
X104387380Y-73350476D01*
X103387380Y-73017142D02*
X103387380Y-72350476D01*
X103387380Y-72350476D02*
X104387380Y-72779047D01*
%TO.C,C15*%
X109847142Y-68598142D02*
X109799523Y-68645761D01*
X109799523Y-68645761D02*
X109656666Y-68693380D01*
X109656666Y-68693380D02*
X109561428Y-68693380D01*
X109561428Y-68693380D02*
X109418571Y-68645761D01*
X109418571Y-68645761D02*
X109323333Y-68550523D01*
X109323333Y-68550523D02*
X109275714Y-68455285D01*
X109275714Y-68455285D02*
X109228095Y-68264809D01*
X109228095Y-68264809D02*
X109228095Y-68121952D01*
X109228095Y-68121952D02*
X109275714Y-67931476D01*
X109275714Y-67931476D02*
X109323333Y-67836238D01*
X109323333Y-67836238D02*
X109418571Y-67741000D01*
X109418571Y-67741000D02*
X109561428Y-67693380D01*
X109561428Y-67693380D02*
X109656666Y-67693380D01*
X109656666Y-67693380D02*
X109799523Y-67741000D01*
X109799523Y-67741000D02*
X109847142Y-67788619D01*
X110799523Y-68693380D02*
X110228095Y-68693380D01*
X110513809Y-68693380D02*
X110513809Y-67693380D01*
X110513809Y-67693380D02*
X110418571Y-67836238D01*
X110418571Y-67836238D02*
X110323333Y-67931476D01*
X110323333Y-67931476D02*
X110228095Y-67979095D01*
X111704285Y-67693380D02*
X111228095Y-67693380D01*
X111228095Y-67693380D02*
X111180476Y-68169571D01*
X111180476Y-68169571D02*
X111228095Y-68121952D01*
X111228095Y-68121952D02*
X111323333Y-68074333D01*
X111323333Y-68074333D02*
X111561428Y-68074333D01*
X111561428Y-68074333D02*
X111656666Y-68121952D01*
X111656666Y-68121952D02*
X111704285Y-68169571D01*
X111704285Y-68169571D02*
X111751904Y-68264809D01*
X111751904Y-68264809D02*
X111751904Y-68502904D01*
X111751904Y-68502904D02*
X111704285Y-68598142D01*
X111704285Y-68598142D02*
X111656666Y-68645761D01*
X111656666Y-68645761D02*
X111561428Y-68693380D01*
X111561428Y-68693380D02*
X111323333Y-68693380D01*
X111323333Y-68693380D02*
X111228095Y-68645761D01*
X111228095Y-68645761D02*
X111180476Y-68598142D01*
%TO.C,U6*%
X97506380Y-76961904D02*
X98315904Y-76961904D01*
X98315904Y-76961904D02*
X98411142Y-76914285D01*
X98411142Y-76914285D02*
X98458761Y-76866666D01*
X98458761Y-76866666D02*
X98506380Y-76771428D01*
X98506380Y-76771428D02*
X98506380Y-76580952D01*
X98506380Y-76580952D02*
X98458761Y-76485714D01*
X98458761Y-76485714D02*
X98411142Y-76438095D01*
X98411142Y-76438095D02*
X98315904Y-76390476D01*
X98315904Y-76390476D02*
X97506380Y-76390476D01*
X97506380Y-75485714D02*
X97506380Y-75676190D01*
X97506380Y-75676190D02*
X97554000Y-75771428D01*
X97554000Y-75771428D02*
X97601619Y-75819047D01*
X97601619Y-75819047D02*
X97744476Y-75914285D01*
X97744476Y-75914285D02*
X97934952Y-75961904D01*
X97934952Y-75961904D02*
X98315904Y-75961904D01*
X98315904Y-75961904D02*
X98411142Y-75914285D01*
X98411142Y-75914285D02*
X98458761Y-75866666D01*
X98458761Y-75866666D02*
X98506380Y-75771428D01*
X98506380Y-75771428D02*
X98506380Y-75580952D01*
X98506380Y-75580952D02*
X98458761Y-75485714D01*
X98458761Y-75485714D02*
X98411142Y-75438095D01*
X98411142Y-75438095D02*
X98315904Y-75390476D01*
X98315904Y-75390476D02*
X98077809Y-75390476D01*
X98077809Y-75390476D02*
X97982571Y-75438095D01*
X97982571Y-75438095D02*
X97934952Y-75485714D01*
X97934952Y-75485714D02*
X97887333Y-75580952D01*
X97887333Y-75580952D02*
X97887333Y-75771428D01*
X97887333Y-75771428D02*
X97934952Y-75866666D01*
X97934952Y-75866666D02*
X97982571Y-75914285D01*
X97982571Y-75914285D02*
X98077809Y-75961904D01*
%TO.C,R28*%
X99941142Y-78091380D02*
X99607809Y-77615190D01*
X99369714Y-78091380D02*
X99369714Y-77091380D01*
X99369714Y-77091380D02*
X99750666Y-77091380D01*
X99750666Y-77091380D02*
X99845904Y-77139000D01*
X99845904Y-77139000D02*
X99893523Y-77186619D01*
X99893523Y-77186619D02*
X99941142Y-77281857D01*
X99941142Y-77281857D02*
X99941142Y-77424714D01*
X99941142Y-77424714D02*
X99893523Y-77519952D01*
X99893523Y-77519952D02*
X99845904Y-77567571D01*
X99845904Y-77567571D02*
X99750666Y-77615190D01*
X99750666Y-77615190D02*
X99369714Y-77615190D01*
X100322095Y-77186619D02*
X100369714Y-77139000D01*
X100369714Y-77139000D02*
X100464952Y-77091380D01*
X100464952Y-77091380D02*
X100703047Y-77091380D01*
X100703047Y-77091380D02*
X100798285Y-77139000D01*
X100798285Y-77139000D02*
X100845904Y-77186619D01*
X100845904Y-77186619D02*
X100893523Y-77281857D01*
X100893523Y-77281857D02*
X100893523Y-77377095D01*
X100893523Y-77377095D02*
X100845904Y-77519952D01*
X100845904Y-77519952D02*
X100274476Y-78091380D01*
X100274476Y-78091380D02*
X100893523Y-78091380D01*
X101464952Y-77519952D02*
X101369714Y-77472333D01*
X101369714Y-77472333D02*
X101322095Y-77424714D01*
X101322095Y-77424714D02*
X101274476Y-77329476D01*
X101274476Y-77329476D02*
X101274476Y-77281857D01*
X101274476Y-77281857D02*
X101322095Y-77186619D01*
X101322095Y-77186619D02*
X101369714Y-77139000D01*
X101369714Y-77139000D02*
X101464952Y-77091380D01*
X101464952Y-77091380D02*
X101655428Y-77091380D01*
X101655428Y-77091380D02*
X101750666Y-77139000D01*
X101750666Y-77139000D02*
X101798285Y-77186619D01*
X101798285Y-77186619D02*
X101845904Y-77281857D01*
X101845904Y-77281857D02*
X101845904Y-77329476D01*
X101845904Y-77329476D02*
X101798285Y-77424714D01*
X101798285Y-77424714D02*
X101750666Y-77472333D01*
X101750666Y-77472333D02*
X101655428Y-77519952D01*
X101655428Y-77519952D02*
X101464952Y-77519952D01*
X101464952Y-77519952D02*
X101369714Y-77567571D01*
X101369714Y-77567571D02*
X101322095Y-77615190D01*
X101322095Y-77615190D02*
X101274476Y-77710428D01*
X101274476Y-77710428D02*
X101274476Y-77900904D01*
X101274476Y-77900904D02*
X101322095Y-77996142D01*
X101322095Y-77996142D02*
X101369714Y-78043761D01*
X101369714Y-78043761D02*
X101464952Y-78091380D01*
X101464952Y-78091380D02*
X101655428Y-78091380D01*
X101655428Y-78091380D02*
X101750666Y-78043761D01*
X101750666Y-78043761D02*
X101798285Y-77996142D01*
X101798285Y-77996142D02*
X101845904Y-77900904D01*
X101845904Y-77900904D02*
X101845904Y-77710428D01*
X101845904Y-77710428D02*
X101798285Y-77615190D01*
X101798285Y-77615190D02*
X101750666Y-77567571D01*
X101750666Y-77567571D02*
X101655428Y-77519952D01*
%TO.C,R26*%
X99442380Y-70917857D02*
X98966190Y-71251190D01*
X99442380Y-71489285D02*
X98442380Y-71489285D01*
X98442380Y-71489285D02*
X98442380Y-71108333D01*
X98442380Y-71108333D02*
X98490000Y-71013095D01*
X98490000Y-71013095D02*
X98537619Y-70965476D01*
X98537619Y-70965476D02*
X98632857Y-70917857D01*
X98632857Y-70917857D02*
X98775714Y-70917857D01*
X98775714Y-70917857D02*
X98870952Y-70965476D01*
X98870952Y-70965476D02*
X98918571Y-71013095D01*
X98918571Y-71013095D02*
X98966190Y-71108333D01*
X98966190Y-71108333D02*
X98966190Y-71489285D01*
X98537619Y-70536904D02*
X98490000Y-70489285D01*
X98490000Y-70489285D02*
X98442380Y-70394047D01*
X98442380Y-70394047D02*
X98442380Y-70155952D01*
X98442380Y-70155952D02*
X98490000Y-70060714D01*
X98490000Y-70060714D02*
X98537619Y-70013095D01*
X98537619Y-70013095D02*
X98632857Y-69965476D01*
X98632857Y-69965476D02*
X98728095Y-69965476D01*
X98728095Y-69965476D02*
X98870952Y-70013095D01*
X98870952Y-70013095D02*
X99442380Y-70584523D01*
X99442380Y-70584523D02*
X99442380Y-69965476D01*
X98442380Y-69108333D02*
X98442380Y-69298809D01*
X98442380Y-69298809D02*
X98490000Y-69394047D01*
X98490000Y-69394047D02*
X98537619Y-69441666D01*
X98537619Y-69441666D02*
X98680476Y-69536904D01*
X98680476Y-69536904D02*
X98870952Y-69584523D01*
X98870952Y-69584523D02*
X99251904Y-69584523D01*
X99251904Y-69584523D02*
X99347142Y-69536904D01*
X99347142Y-69536904D02*
X99394761Y-69489285D01*
X99394761Y-69489285D02*
X99442380Y-69394047D01*
X99442380Y-69394047D02*
X99442380Y-69203571D01*
X99442380Y-69203571D02*
X99394761Y-69108333D01*
X99394761Y-69108333D02*
X99347142Y-69060714D01*
X99347142Y-69060714D02*
X99251904Y-69013095D01*
X99251904Y-69013095D02*
X99013809Y-69013095D01*
X99013809Y-69013095D02*
X98918571Y-69060714D01*
X98918571Y-69060714D02*
X98870952Y-69108333D01*
X98870952Y-69108333D02*
X98823333Y-69203571D01*
X98823333Y-69203571D02*
X98823333Y-69394047D01*
X98823333Y-69394047D02*
X98870952Y-69489285D01*
X98870952Y-69489285D02*
X98918571Y-69536904D01*
X98918571Y-69536904D02*
X99013809Y-69584523D01*
%TO.C,R8*%
X97395380Y-74080666D02*
X96919190Y-74413999D01*
X97395380Y-74652094D02*
X96395380Y-74652094D01*
X96395380Y-74652094D02*
X96395380Y-74271142D01*
X96395380Y-74271142D02*
X96443000Y-74175904D01*
X96443000Y-74175904D02*
X96490619Y-74128285D01*
X96490619Y-74128285D02*
X96585857Y-74080666D01*
X96585857Y-74080666D02*
X96728714Y-74080666D01*
X96728714Y-74080666D02*
X96823952Y-74128285D01*
X96823952Y-74128285D02*
X96871571Y-74175904D01*
X96871571Y-74175904D02*
X96919190Y-74271142D01*
X96919190Y-74271142D02*
X96919190Y-74652094D01*
X96823952Y-73509237D02*
X96776333Y-73604475D01*
X96776333Y-73604475D02*
X96728714Y-73652094D01*
X96728714Y-73652094D02*
X96633476Y-73699713D01*
X96633476Y-73699713D02*
X96585857Y-73699713D01*
X96585857Y-73699713D02*
X96490619Y-73652094D01*
X96490619Y-73652094D02*
X96443000Y-73604475D01*
X96443000Y-73604475D02*
X96395380Y-73509237D01*
X96395380Y-73509237D02*
X96395380Y-73318761D01*
X96395380Y-73318761D02*
X96443000Y-73223523D01*
X96443000Y-73223523D02*
X96490619Y-73175904D01*
X96490619Y-73175904D02*
X96585857Y-73128285D01*
X96585857Y-73128285D02*
X96633476Y-73128285D01*
X96633476Y-73128285D02*
X96728714Y-73175904D01*
X96728714Y-73175904D02*
X96776333Y-73223523D01*
X96776333Y-73223523D02*
X96823952Y-73318761D01*
X96823952Y-73318761D02*
X96823952Y-73509237D01*
X96823952Y-73509237D02*
X96871571Y-73604475D01*
X96871571Y-73604475D02*
X96919190Y-73652094D01*
X96919190Y-73652094D02*
X97014428Y-73699713D01*
X97014428Y-73699713D02*
X97204904Y-73699713D01*
X97204904Y-73699713D02*
X97300142Y-73652094D01*
X97300142Y-73652094D02*
X97347761Y-73604475D01*
X97347761Y-73604475D02*
X97395380Y-73509237D01*
X97395380Y-73509237D02*
X97395380Y-73318761D01*
X97395380Y-73318761D02*
X97347761Y-73223523D01*
X97347761Y-73223523D02*
X97300142Y-73175904D01*
X97300142Y-73175904D02*
X97204904Y-73128285D01*
X97204904Y-73128285D02*
X97014428Y-73128285D01*
X97014428Y-73128285D02*
X96919190Y-73175904D01*
X96919190Y-73175904D02*
X96871571Y-73223523D01*
X96871571Y-73223523D02*
X96823952Y-73318761D01*
%TO.C,U5*%
X101854095Y-68455380D02*
X101854095Y-69264904D01*
X101854095Y-69264904D02*
X101901714Y-69360142D01*
X101901714Y-69360142D02*
X101949333Y-69407761D01*
X101949333Y-69407761D02*
X102044571Y-69455380D01*
X102044571Y-69455380D02*
X102235047Y-69455380D01*
X102235047Y-69455380D02*
X102330285Y-69407761D01*
X102330285Y-69407761D02*
X102377904Y-69360142D01*
X102377904Y-69360142D02*
X102425523Y-69264904D01*
X102425523Y-69264904D02*
X102425523Y-68455380D01*
X103377904Y-68455380D02*
X102901714Y-68455380D01*
X102901714Y-68455380D02*
X102854095Y-68931571D01*
X102854095Y-68931571D02*
X102901714Y-68883952D01*
X102901714Y-68883952D02*
X102996952Y-68836333D01*
X102996952Y-68836333D02*
X103235047Y-68836333D01*
X103235047Y-68836333D02*
X103330285Y-68883952D01*
X103330285Y-68883952D02*
X103377904Y-68931571D01*
X103377904Y-68931571D02*
X103425523Y-69026809D01*
X103425523Y-69026809D02*
X103425523Y-69264904D01*
X103425523Y-69264904D02*
X103377904Y-69360142D01*
X103377904Y-69360142D02*
X103330285Y-69407761D01*
X103330285Y-69407761D02*
X103235047Y-69455380D01*
X103235047Y-69455380D02*
X102996952Y-69455380D01*
X102996952Y-69455380D02*
X102901714Y-69407761D01*
X102901714Y-69407761D02*
X102854095Y-69360142D01*
%TO.C,R7*%
X106285380Y-72302666D02*
X105809190Y-72635999D01*
X106285380Y-72874094D02*
X105285380Y-72874094D01*
X105285380Y-72874094D02*
X105285380Y-72493142D01*
X105285380Y-72493142D02*
X105333000Y-72397904D01*
X105333000Y-72397904D02*
X105380619Y-72350285D01*
X105380619Y-72350285D02*
X105475857Y-72302666D01*
X105475857Y-72302666D02*
X105618714Y-72302666D01*
X105618714Y-72302666D02*
X105713952Y-72350285D01*
X105713952Y-72350285D02*
X105761571Y-72397904D01*
X105761571Y-72397904D02*
X105809190Y-72493142D01*
X105809190Y-72493142D02*
X105809190Y-72874094D01*
X105285380Y-71969332D02*
X105285380Y-71302666D01*
X105285380Y-71302666D02*
X106285380Y-71731237D01*
%TO.C,R10*%
X51567380Y-65902857D02*
X51091190Y-66236190D01*
X51567380Y-66474285D02*
X50567380Y-66474285D01*
X50567380Y-66474285D02*
X50567380Y-66093333D01*
X50567380Y-66093333D02*
X50615000Y-65998095D01*
X50615000Y-65998095D02*
X50662619Y-65950476D01*
X50662619Y-65950476D02*
X50757857Y-65902857D01*
X50757857Y-65902857D02*
X50900714Y-65902857D01*
X50900714Y-65902857D02*
X50995952Y-65950476D01*
X50995952Y-65950476D02*
X51043571Y-65998095D01*
X51043571Y-65998095D02*
X51091190Y-66093333D01*
X51091190Y-66093333D02*
X51091190Y-66474285D01*
X51567380Y-64950476D02*
X51567380Y-65521904D01*
X51567380Y-65236190D02*
X50567380Y-65236190D01*
X50567380Y-65236190D02*
X50710238Y-65331428D01*
X50710238Y-65331428D02*
X50805476Y-65426666D01*
X50805476Y-65426666D02*
X50853095Y-65521904D01*
X50567380Y-64331428D02*
X50567380Y-64236190D01*
X50567380Y-64236190D02*
X50615000Y-64140952D01*
X50615000Y-64140952D02*
X50662619Y-64093333D01*
X50662619Y-64093333D02*
X50757857Y-64045714D01*
X50757857Y-64045714D02*
X50948333Y-63998095D01*
X50948333Y-63998095D02*
X51186428Y-63998095D01*
X51186428Y-63998095D02*
X51376904Y-64045714D01*
X51376904Y-64045714D02*
X51472142Y-64093333D01*
X51472142Y-64093333D02*
X51519761Y-64140952D01*
X51519761Y-64140952D02*
X51567380Y-64236190D01*
X51567380Y-64236190D02*
X51567380Y-64331428D01*
X51567380Y-64331428D02*
X51519761Y-64426666D01*
X51519761Y-64426666D02*
X51472142Y-64474285D01*
X51472142Y-64474285D02*
X51376904Y-64521904D01*
X51376904Y-64521904D02*
X51186428Y-64569523D01*
X51186428Y-64569523D02*
X50948333Y-64569523D01*
X50948333Y-64569523D02*
X50757857Y-64521904D01*
X50757857Y-64521904D02*
X50662619Y-64474285D01*
X50662619Y-64474285D02*
X50615000Y-64426666D01*
X50615000Y-64426666D02*
X50567380Y-64331428D01*
%TO.C,C8*%
X32357142Y-69002666D02*
X32404761Y-69050285D01*
X32404761Y-69050285D02*
X32452380Y-69193142D01*
X32452380Y-69193142D02*
X32452380Y-69288380D01*
X32452380Y-69288380D02*
X32404761Y-69431237D01*
X32404761Y-69431237D02*
X32309523Y-69526475D01*
X32309523Y-69526475D02*
X32214285Y-69574094D01*
X32214285Y-69574094D02*
X32023809Y-69621713D01*
X32023809Y-69621713D02*
X31880952Y-69621713D01*
X31880952Y-69621713D02*
X31690476Y-69574094D01*
X31690476Y-69574094D02*
X31595238Y-69526475D01*
X31595238Y-69526475D02*
X31500000Y-69431237D01*
X31500000Y-69431237D02*
X31452380Y-69288380D01*
X31452380Y-69288380D02*
X31452380Y-69193142D01*
X31452380Y-69193142D02*
X31500000Y-69050285D01*
X31500000Y-69050285D02*
X31547619Y-69002666D01*
X31880952Y-68431237D02*
X31833333Y-68526475D01*
X31833333Y-68526475D02*
X31785714Y-68574094D01*
X31785714Y-68574094D02*
X31690476Y-68621713D01*
X31690476Y-68621713D02*
X31642857Y-68621713D01*
X31642857Y-68621713D02*
X31547619Y-68574094D01*
X31547619Y-68574094D02*
X31500000Y-68526475D01*
X31500000Y-68526475D02*
X31452380Y-68431237D01*
X31452380Y-68431237D02*
X31452380Y-68240761D01*
X31452380Y-68240761D02*
X31500000Y-68145523D01*
X31500000Y-68145523D02*
X31547619Y-68097904D01*
X31547619Y-68097904D02*
X31642857Y-68050285D01*
X31642857Y-68050285D02*
X31690476Y-68050285D01*
X31690476Y-68050285D02*
X31785714Y-68097904D01*
X31785714Y-68097904D02*
X31833333Y-68145523D01*
X31833333Y-68145523D02*
X31880952Y-68240761D01*
X31880952Y-68240761D02*
X31880952Y-68431237D01*
X31880952Y-68431237D02*
X31928571Y-68526475D01*
X31928571Y-68526475D02*
X31976190Y-68574094D01*
X31976190Y-68574094D02*
X32071428Y-68621713D01*
X32071428Y-68621713D02*
X32261904Y-68621713D01*
X32261904Y-68621713D02*
X32357142Y-68574094D01*
X32357142Y-68574094D02*
X32404761Y-68526475D01*
X32404761Y-68526475D02*
X32452380Y-68431237D01*
X32452380Y-68431237D02*
X32452380Y-68240761D01*
X32452380Y-68240761D02*
X32404761Y-68145523D01*
X32404761Y-68145523D02*
X32357142Y-68097904D01*
X32357142Y-68097904D02*
X32261904Y-68050285D01*
X32261904Y-68050285D02*
X32071428Y-68050285D01*
X32071428Y-68050285D02*
X31976190Y-68097904D01*
X31976190Y-68097904D02*
X31928571Y-68145523D01*
X31928571Y-68145523D02*
X31880952Y-68240761D01*
%TO.C,R12*%
X37857142Y-65267380D02*
X37523809Y-64791190D01*
X37285714Y-65267380D02*
X37285714Y-64267380D01*
X37285714Y-64267380D02*
X37666666Y-64267380D01*
X37666666Y-64267380D02*
X37761904Y-64315000D01*
X37761904Y-64315000D02*
X37809523Y-64362619D01*
X37809523Y-64362619D02*
X37857142Y-64457857D01*
X37857142Y-64457857D02*
X37857142Y-64600714D01*
X37857142Y-64600714D02*
X37809523Y-64695952D01*
X37809523Y-64695952D02*
X37761904Y-64743571D01*
X37761904Y-64743571D02*
X37666666Y-64791190D01*
X37666666Y-64791190D02*
X37285714Y-64791190D01*
X38809523Y-65267380D02*
X38238095Y-65267380D01*
X38523809Y-65267380D02*
X38523809Y-64267380D01*
X38523809Y-64267380D02*
X38428571Y-64410238D01*
X38428571Y-64410238D02*
X38333333Y-64505476D01*
X38333333Y-64505476D02*
X38238095Y-64553095D01*
X39190476Y-64362619D02*
X39238095Y-64315000D01*
X39238095Y-64315000D02*
X39333333Y-64267380D01*
X39333333Y-64267380D02*
X39571428Y-64267380D01*
X39571428Y-64267380D02*
X39666666Y-64315000D01*
X39666666Y-64315000D02*
X39714285Y-64362619D01*
X39714285Y-64362619D02*
X39761904Y-64457857D01*
X39761904Y-64457857D02*
X39761904Y-64553095D01*
X39761904Y-64553095D02*
X39714285Y-64695952D01*
X39714285Y-64695952D02*
X39142857Y-65267380D01*
X39142857Y-65267380D02*
X39761904Y-65267380D01*
%TO.C,R1*%
X33567380Y-65616666D02*
X33091190Y-65949999D01*
X33567380Y-66188094D02*
X32567380Y-66188094D01*
X32567380Y-66188094D02*
X32567380Y-65807142D01*
X32567380Y-65807142D02*
X32615000Y-65711904D01*
X32615000Y-65711904D02*
X32662619Y-65664285D01*
X32662619Y-65664285D02*
X32757857Y-65616666D01*
X32757857Y-65616666D02*
X32900714Y-65616666D01*
X32900714Y-65616666D02*
X32995952Y-65664285D01*
X32995952Y-65664285D02*
X33043571Y-65711904D01*
X33043571Y-65711904D02*
X33091190Y-65807142D01*
X33091190Y-65807142D02*
X33091190Y-66188094D01*
X33567380Y-64664285D02*
X33567380Y-65235713D01*
X33567380Y-64949999D02*
X32567380Y-64949999D01*
X32567380Y-64949999D02*
X32710238Y-65045237D01*
X32710238Y-65045237D02*
X32805476Y-65140475D01*
X32805476Y-65140475D02*
X32853095Y-65235713D01*
%TO.C,Q2*%
X113354761Y-61312619D02*
X113259523Y-61265000D01*
X113259523Y-61265000D02*
X113164285Y-61169761D01*
X113164285Y-61169761D02*
X113021428Y-61026904D01*
X113021428Y-61026904D02*
X112926190Y-60979285D01*
X112926190Y-60979285D02*
X112830952Y-60979285D01*
X112878571Y-61217380D02*
X112783333Y-61169761D01*
X112783333Y-61169761D02*
X112688095Y-61074523D01*
X112688095Y-61074523D02*
X112640476Y-60884047D01*
X112640476Y-60884047D02*
X112640476Y-60550714D01*
X112640476Y-60550714D02*
X112688095Y-60360238D01*
X112688095Y-60360238D02*
X112783333Y-60265000D01*
X112783333Y-60265000D02*
X112878571Y-60217380D01*
X112878571Y-60217380D02*
X113069047Y-60217380D01*
X113069047Y-60217380D02*
X113164285Y-60265000D01*
X113164285Y-60265000D02*
X113259523Y-60360238D01*
X113259523Y-60360238D02*
X113307142Y-60550714D01*
X113307142Y-60550714D02*
X113307142Y-60884047D01*
X113307142Y-60884047D02*
X113259523Y-61074523D01*
X113259523Y-61074523D02*
X113164285Y-61169761D01*
X113164285Y-61169761D02*
X113069047Y-61217380D01*
X113069047Y-61217380D02*
X112878571Y-61217380D01*
X113688095Y-60312619D02*
X113735714Y-60265000D01*
X113735714Y-60265000D02*
X113830952Y-60217380D01*
X113830952Y-60217380D02*
X114069047Y-60217380D01*
X114069047Y-60217380D02*
X114164285Y-60265000D01*
X114164285Y-60265000D02*
X114211904Y-60312619D01*
X114211904Y-60312619D02*
X114259523Y-60407857D01*
X114259523Y-60407857D02*
X114259523Y-60503095D01*
X114259523Y-60503095D02*
X114211904Y-60645952D01*
X114211904Y-60645952D02*
X113640476Y-61217380D01*
X113640476Y-61217380D02*
X114259523Y-61217380D01*
%TO.C,R25*%
X107017380Y-65517857D02*
X106541190Y-65851190D01*
X107017380Y-66089285D02*
X106017380Y-66089285D01*
X106017380Y-66089285D02*
X106017380Y-65708333D01*
X106017380Y-65708333D02*
X106065000Y-65613095D01*
X106065000Y-65613095D02*
X106112619Y-65565476D01*
X106112619Y-65565476D02*
X106207857Y-65517857D01*
X106207857Y-65517857D02*
X106350714Y-65517857D01*
X106350714Y-65517857D02*
X106445952Y-65565476D01*
X106445952Y-65565476D02*
X106493571Y-65613095D01*
X106493571Y-65613095D02*
X106541190Y-65708333D01*
X106541190Y-65708333D02*
X106541190Y-66089285D01*
X106112619Y-65136904D02*
X106065000Y-65089285D01*
X106065000Y-65089285D02*
X106017380Y-64994047D01*
X106017380Y-64994047D02*
X106017380Y-64755952D01*
X106017380Y-64755952D02*
X106065000Y-64660714D01*
X106065000Y-64660714D02*
X106112619Y-64613095D01*
X106112619Y-64613095D02*
X106207857Y-64565476D01*
X106207857Y-64565476D02*
X106303095Y-64565476D01*
X106303095Y-64565476D02*
X106445952Y-64613095D01*
X106445952Y-64613095D02*
X107017380Y-65184523D01*
X107017380Y-65184523D02*
X107017380Y-64565476D01*
X106017380Y-63660714D02*
X106017380Y-64136904D01*
X106017380Y-64136904D02*
X106493571Y-64184523D01*
X106493571Y-64184523D02*
X106445952Y-64136904D01*
X106445952Y-64136904D02*
X106398333Y-64041666D01*
X106398333Y-64041666D02*
X106398333Y-63803571D01*
X106398333Y-63803571D02*
X106445952Y-63708333D01*
X106445952Y-63708333D02*
X106493571Y-63660714D01*
X106493571Y-63660714D02*
X106588809Y-63613095D01*
X106588809Y-63613095D02*
X106826904Y-63613095D01*
X106826904Y-63613095D02*
X106922142Y-63660714D01*
X106922142Y-63660714D02*
X106969761Y-63708333D01*
X106969761Y-63708333D02*
X107017380Y-63803571D01*
X107017380Y-63803571D02*
X107017380Y-64041666D01*
X107017380Y-64041666D02*
X106969761Y-64136904D01*
X106969761Y-64136904D02*
X106922142Y-64184523D01*
%TO.C,sx1*%
X113505931Y-73356195D02*
X113334732Y-73439695D01*
X113334732Y-73439695D02*
X113270008Y-73524244D01*
X113270008Y-73524244D02*
X113248083Y-73587919D01*
X113248083Y-73587919D02*
X113225108Y-73758067D01*
X113225108Y-73758067D02*
X113265808Y-73950141D01*
X113265808Y-73950141D02*
X113432806Y-74292539D01*
X113432806Y-74292539D02*
X113517355Y-74357263D01*
X113517355Y-74357263D02*
X113581030Y-74379188D01*
X113581030Y-74379188D02*
X113687504Y-74380238D01*
X113687504Y-74380238D02*
X113858703Y-74296739D01*
X113858703Y-74296739D02*
X113923428Y-74212190D01*
X113923428Y-74212190D02*
X113945353Y-74148515D01*
X113945353Y-74148515D02*
X113946403Y-74042041D01*
X113946403Y-74042041D02*
X113842029Y-73828042D01*
X113842029Y-73828042D02*
X113757479Y-73763318D01*
X113757479Y-73763318D02*
X113693805Y-73741393D01*
X113693805Y-73741393D02*
X113587330Y-73740343D01*
X113587330Y-73740343D02*
X113416132Y-73823842D01*
X113416132Y-73823842D02*
X113351407Y-73908391D01*
X113351407Y-73908391D02*
X113329482Y-73972066D01*
X113329482Y-73972066D02*
X113328432Y-74078540D01*
X113848329Y-73189197D02*
X114586298Y-73941867D01*
X114586298Y-73941867D02*
X114447525Y-72896949D01*
X86804476Y-59424761D02*
X86947333Y-59472380D01*
X86947333Y-59472380D02*
X87185428Y-59472380D01*
X87185428Y-59472380D02*
X87280666Y-59424761D01*
X87280666Y-59424761D02*
X87328285Y-59377142D01*
X87328285Y-59377142D02*
X87375904Y-59281904D01*
X87375904Y-59281904D02*
X87375904Y-59186666D01*
X87375904Y-59186666D02*
X87328285Y-59091428D01*
X87328285Y-59091428D02*
X87280666Y-59043809D01*
X87280666Y-59043809D02*
X87185428Y-58996190D01*
X87185428Y-58996190D02*
X86994952Y-58948571D01*
X86994952Y-58948571D02*
X86899714Y-58900952D01*
X86899714Y-58900952D02*
X86852095Y-58853333D01*
X86852095Y-58853333D02*
X86804476Y-58758095D01*
X86804476Y-58758095D02*
X86804476Y-58662857D01*
X86804476Y-58662857D02*
X86852095Y-58567619D01*
X86852095Y-58567619D02*
X86899714Y-58520000D01*
X86899714Y-58520000D02*
X86994952Y-58472380D01*
X86994952Y-58472380D02*
X87233047Y-58472380D01*
X87233047Y-58472380D02*
X87375904Y-58520000D01*
X87756857Y-58567619D02*
X87804476Y-58520000D01*
X87804476Y-58520000D02*
X87899714Y-58472380D01*
X87899714Y-58472380D02*
X88137809Y-58472380D01*
X88137809Y-58472380D02*
X88233047Y-58520000D01*
X88233047Y-58520000D02*
X88280666Y-58567619D01*
X88280666Y-58567619D02*
X88328285Y-58662857D01*
X88328285Y-58662857D02*
X88328285Y-58758095D01*
X88328285Y-58758095D02*
X88280666Y-58900952D01*
X88280666Y-58900952D02*
X87709238Y-59472380D01*
X87709238Y-59472380D02*
X88328285Y-59472380D01*
X88756857Y-59091428D02*
X89518762Y-59091428D01*
X89137809Y-59472380D02*
X89137809Y-58710476D01*
X119645238Y-64198476D02*
X119597619Y-64341333D01*
X119597619Y-64341333D02*
X119597619Y-64579428D01*
X119597619Y-64579428D02*
X119645238Y-64674666D01*
X119645238Y-64674666D02*
X119692857Y-64722285D01*
X119692857Y-64722285D02*
X119788095Y-64769904D01*
X119788095Y-64769904D02*
X119883333Y-64769904D01*
X119883333Y-64769904D02*
X119978571Y-64722285D01*
X119978571Y-64722285D02*
X120026190Y-64674666D01*
X120026190Y-64674666D02*
X120073809Y-64579428D01*
X120073809Y-64579428D02*
X120121428Y-64388952D01*
X120121428Y-64388952D02*
X120169047Y-64293714D01*
X120169047Y-64293714D02*
X120216666Y-64246095D01*
X120216666Y-64246095D02*
X120311904Y-64198476D01*
X120311904Y-64198476D02*
X120407142Y-64198476D01*
X120407142Y-64198476D02*
X120502380Y-64246095D01*
X120502380Y-64246095D02*
X120550000Y-64293714D01*
X120550000Y-64293714D02*
X120597619Y-64388952D01*
X120597619Y-64388952D02*
X120597619Y-64627047D01*
X120597619Y-64627047D02*
X120550000Y-64769904D01*
X119597619Y-65722285D02*
X119597619Y-65150857D01*
X119597619Y-65436571D02*
X120597619Y-65436571D01*
X120597619Y-65436571D02*
X120454761Y-65341333D01*
X120454761Y-65341333D02*
X120359523Y-65246095D01*
X120359523Y-65246095D02*
X120311904Y-65150857D01*
X120597619Y-66008000D02*
X120597619Y-66579428D01*
X119597619Y-66293714D02*
X120597619Y-66293714D01*
X48326190Y-62978571D02*
X47992857Y-62978571D01*
X47992857Y-63502380D02*
X47992857Y-62502380D01*
X47992857Y-62502380D02*
X48469047Y-62502380D01*
X48850000Y-63121428D02*
X49611905Y-63121428D01*
X95557503Y-63412366D02*
X95361574Y-63142693D01*
X94937803Y-63450581D02*
X95746820Y-62862795D01*
X95746820Y-62862795D02*
X96026718Y-63248042D01*
X96166667Y-63440665D02*
X96502544Y-63902960D01*
X95525589Y-64259598D02*
X96334606Y-63671813D01*
X107378476Y-66536761D02*
X107521333Y-66584380D01*
X107521333Y-66584380D02*
X107759428Y-66584380D01*
X107759428Y-66584380D02*
X107854666Y-66536761D01*
X107854666Y-66536761D02*
X107902285Y-66489142D01*
X107902285Y-66489142D02*
X107949904Y-66393904D01*
X107949904Y-66393904D02*
X107949904Y-66298666D01*
X107949904Y-66298666D02*
X107902285Y-66203428D01*
X107902285Y-66203428D02*
X107854666Y-66155809D01*
X107854666Y-66155809D02*
X107759428Y-66108190D01*
X107759428Y-66108190D02*
X107568952Y-66060571D01*
X107568952Y-66060571D02*
X107473714Y-66012952D01*
X107473714Y-66012952D02*
X107426095Y-65965333D01*
X107426095Y-65965333D02*
X107378476Y-65870095D01*
X107378476Y-65870095D02*
X107378476Y-65774857D01*
X107378476Y-65774857D02*
X107426095Y-65679619D01*
X107426095Y-65679619D02*
X107473714Y-65632000D01*
X107473714Y-65632000D02*
X107568952Y-65584380D01*
X107568952Y-65584380D02*
X107807047Y-65584380D01*
X107807047Y-65584380D02*
X107949904Y-65632000D01*
X108568952Y-65584380D02*
X108759428Y-65584380D01*
X108759428Y-65584380D02*
X108854666Y-65632000D01*
X108854666Y-65632000D02*
X108949904Y-65727238D01*
X108949904Y-65727238D02*
X108997523Y-65917714D01*
X108997523Y-65917714D02*
X108997523Y-66251047D01*
X108997523Y-66251047D02*
X108949904Y-66441523D01*
X108949904Y-66441523D02*
X108854666Y-66536761D01*
X108854666Y-66536761D02*
X108759428Y-66584380D01*
X108759428Y-66584380D02*
X108568952Y-66584380D01*
X108568952Y-66584380D02*
X108473714Y-66536761D01*
X108473714Y-66536761D02*
X108378476Y-66441523D01*
X108378476Y-66441523D02*
X108330857Y-66251047D01*
X108330857Y-66251047D02*
X108330857Y-65917714D01*
X108330857Y-65917714D02*
X108378476Y-65727238D01*
X108378476Y-65727238D02*
X108473714Y-65632000D01*
X108473714Y-65632000D02*
X108568952Y-65584380D01*
X109902285Y-66584380D02*
X109426095Y-66584380D01*
X109426095Y-66584380D02*
X109426095Y-65584380D01*
X110188000Y-65679619D02*
X110235619Y-65632000D01*
X110235619Y-65632000D02*
X110330857Y-65584380D01*
X110330857Y-65584380D02*
X110568952Y-65584380D01*
X110568952Y-65584380D02*
X110664190Y-65632000D01*
X110664190Y-65632000D02*
X110711809Y-65679619D01*
X110711809Y-65679619D02*
X110759428Y-65774857D01*
X110759428Y-65774857D02*
X110759428Y-65870095D01*
X110759428Y-65870095D02*
X110711809Y-66012952D01*
X110711809Y-66012952D02*
X110140381Y-66584380D01*
X110140381Y-66584380D02*
X110759428Y-66584380D01*
X111188000Y-66203428D02*
X111949905Y-66203428D01*
X111568952Y-66584380D02*
X111568952Y-65822476D01*
X92649117Y-64031582D02*
X92036029Y-64889039D01*
X92036029Y-64889039D02*
X93040974Y-64570926D01*
X92840812Y-65834700D02*
X92774298Y-65824165D01*
X92774298Y-65824165D02*
X92651804Y-65736581D01*
X92651804Y-65736581D02*
X92595824Y-65659532D01*
X92595824Y-65659532D02*
X92550379Y-65515968D01*
X92550379Y-65515968D02*
X92571449Y-65382939D01*
X92571449Y-65382939D02*
X92620509Y-65288435D01*
X92620509Y-65288435D02*
X92746617Y-65137951D01*
X92746617Y-65137951D02*
X92862191Y-65053982D01*
X92862191Y-65053982D02*
X93044279Y-64980548D01*
X93044279Y-64980548D02*
X93149318Y-64963093D01*
X93149318Y-64963093D02*
X93282347Y-64984162D01*
X93282347Y-64984162D02*
X93404841Y-65071747D01*
X93404841Y-65071747D02*
X93460821Y-65148796D01*
X93460821Y-65148796D02*
X93506265Y-65292359D01*
X93506265Y-65292359D02*
X93495731Y-65358874D01*
X93428597Y-66643717D02*
X93362083Y-66633182D01*
X93362083Y-66633182D02*
X93239589Y-66545598D01*
X93239589Y-66545598D02*
X93183609Y-66468549D01*
X93183609Y-66468549D02*
X93138165Y-66324985D01*
X93138165Y-66324985D02*
X93159234Y-66191956D01*
X93159234Y-66191956D02*
X93208294Y-66097452D01*
X93208294Y-66097452D02*
X93334403Y-65946968D01*
X93334403Y-65946968D02*
X93449976Y-65862999D01*
X93449976Y-65862999D02*
X93632065Y-65789565D01*
X93632065Y-65789565D02*
X93737104Y-65772110D01*
X93737104Y-65772110D02*
X93870132Y-65793179D01*
X93870132Y-65793179D02*
X93992626Y-65880764D01*
X93992626Y-65880764D02*
X94048606Y-65957813D01*
X94048606Y-65957813D02*
X94094051Y-66101376D01*
X94094051Y-66101376D02*
X94083516Y-66167891D01*
X97070584Y-60681476D02*
X97116029Y-60825039D01*
X97116029Y-60825039D02*
X97255977Y-61017662D01*
X97255977Y-61017662D02*
X97350482Y-61066722D01*
X97350482Y-61066722D02*
X97416996Y-61077257D01*
X97416996Y-61077257D02*
X97522035Y-61059802D01*
X97522035Y-61059802D02*
X97599084Y-61003822D01*
X97599084Y-61003822D02*
X97648144Y-60909318D01*
X97648144Y-60909318D02*
X97658679Y-60842804D01*
X97658679Y-60842804D02*
X97641224Y-60737765D01*
X97641224Y-60737765D02*
X97567789Y-60555676D01*
X97567789Y-60555676D02*
X97550334Y-60450637D01*
X97550334Y-60450637D02*
X97560869Y-60384123D01*
X97560869Y-60384123D02*
X97609928Y-60289619D01*
X97609928Y-60289619D02*
X97686978Y-60233639D01*
X97686978Y-60233639D02*
X97792017Y-60216184D01*
X97792017Y-60216184D02*
X97858531Y-60226719D01*
X97858531Y-60226719D02*
X97953035Y-60275779D01*
X97953035Y-60275779D02*
X98092984Y-60468402D01*
X98092984Y-60468402D02*
X98138429Y-60611965D01*
X97927732Y-61942253D02*
X97591855Y-61479958D01*
X97759793Y-61711105D02*
X98568810Y-61123320D01*
X98568810Y-61123320D02*
X98397257Y-61130240D01*
X98397257Y-61130240D02*
X98264228Y-61109171D01*
X98264228Y-61109171D02*
X98169724Y-61060111D01*
X98799339Y-62250760D02*
X98603411Y-61981087D01*
X98179640Y-62288975D02*
X98988657Y-61701190D01*
X98988657Y-61701190D02*
X99268555Y-62086436D01*
X113293912Y-76975858D02*
X112855541Y-76077064D01*
X112855541Y-76077064D02*
X113468261Y-76572936D01*
X113468261Y-76572936D02*
X113454737Y-75784817D01*
X113454737Y-75784817D02*
X113893108Y-76683611D01*
X114053933Y-75492570D02*
X114225132Y-75409070D01*
X114225132Y-75409070D02*
X114331606Y-75410120D01*
X114331606Y-75410120D02*
X114458955Y-75453970D01*
X114458955Y-75453970D02*
X114585254Y-75604294D01*
X114585254Y-75604294D02*
X114731378Y-75903892D01*
X114731378Y-75903892D02*
X114772077Y-76095966D01*
X114772077Y-76095966D02*
X114728227Y-76223315D01*
X114728227Y-76223315D02*
X114663503Y-76307864D01*
X114663503Y-76307864D02*
X114492304Y-76391364D01*
X114492304Y-76391364D02*
X114385830Y-76390314D01*
X114385830Y-76390314D02*
X114258481Y-76346464D01*
X114258481Y-76346464D02*
X114132182Y-76196140D01*
X114132182Y-76196140D02*
X113986058Y-75896542D01*
X113986058Y-75896542D02*
X113945358Y-75704468D01*
X113945358Y-75704468D02*
X113989208Y-75577119D01*
X113989208Y-75577119D02*
X114053933Y-75492570D01*
X114695928Y-75179447D02*
X115209525Y-74928950D01*
X115391098Y-75952992D02*
X114952727Y-75054198D01*
X111631831Y-70906688D02*
X111781105Y-70886863D01*
X111781105Y-70886863D02*
X111995104Y-70782489D01*
X111995104Y-70782489D02*
X112059828Y-70697939D01*
X112059828Y-70697939D02*
X112081753Y-70634265D01*
X112081753Y-70634265D02*
X112082803Y-70527791D01*
X112082803Y-70527791D02*
X112041054Y-70442191D01*
X112041054Y-70442191D02*
X111956504Y-70377467D01*
X111956504Y-70377467D02*
X111892830Y-70355542D01*
X111892830Y-70355542D02*
X111786356Y-70354492D01*
X111786356Y-70354492D02*
X111594282Y-70395191D01*
X111594282Y-70395191D02*
X111487808Y-70394141D01*
X111487808Y-70394141D02*
X111424133Y-70372216D01*
X111424133Y-70372216D02*
X111339584Y-70307492D01*
X111339584Y-70307492D02*
X111297834Y-70221892D01*
X111297834Y-70221892D02*
X111298884Y-70115418D01*
X111298884Y-70115418D02*
X111320809Y-70051743D01*
X111320809Y-70051743D02*
X111385534Y-69967194D01*
X111385534Y-69967194D02*
X111599532Y-69862820D01*
X111599532Y-69862820D02*
X111748806Y-69842995D01*
X112429401Y-69934895D02*
X112322927Y-69933845D01*
X112322927Y-69933845D02*
X112259253Y-69911920D01*
X112259253Y-69911920D02*
X112174703Y-69847195D01*
X112174703Y-69847195D02*
X112153828Y-69804396D01*
X112153828Y-69804396D02*
X112154879Y-69697921D01*
X112154879Y-69697921D02*
X112176803Y-69634247D01*
X112176803Y-69634247D02*
X112241528Y-69549698D01*
X112241528Y-69549698D02*
X112412727Y-69466198D01*
X112412727Y-69466198D02*
X112519201Y-69467248D01*
X112519201Y-69467248D02*
X112582876Y-69489173D01*
X112582876Y-69489173D02*
X112667425Y-69553898D01*
X112667425Y-69553898D02*
X112688300Y-69596698D01*
X112688300Y-69596698D02*
X112687250Y-69703172D01*
X112687250Y-69703172D02*
X112665325Y-69766846D01*
X112665325Y-69766846D02*
X112600600Y-69851396D01*
X112600600Y-69851396D02*
X112429401Y-69934895D01*
X112429401Y-69934895D02*
X112364677Y-70019444D01*
X112364677Y-70019444D02*
X112342752Y-70083119D01*
X112342752Y-70083119D02*
X112341702Y-70189593D01*
X112341702Y-70189593D02*
X112425201Y-70360792D01*
X112425201Y-70360792D02*
X112509750Y-70425517D01*
X112509750Y-70425517D02*
X112573425Y-70447442D01*
X112573425Y-70447442D02*
X112679899Y-70448492D01*
X112679899Y-70448492D02*
X112851098Y-70364992D01*
X112851098Y-70364992D02*
X112915823Y-70280443D01*
X112915823Y-70280443D02*
X112937748Y-70216769D01*
X112937748Y-70216769D02*
X112938798Y-70110294D01*
X112938798Y-70110294D02*
X112855298Y-69939095D01*
X112855298Y-69939095D02*
X112770749Y-69874371D01*
X112770749Y-69874371D02*
X112707075Y-69852446D01*
X112707075Y-69852446D02*
X112600600Y-69851396D01*
X94231523Y-64859316D02*
X94035595Y-64589644D01*
X93611824Y-64897532D02*
X94420841Y-64309746D01*
X94420841Y-64309746D02*
X94700739Y-64694993D01*
X94735339Y-65552760D02*
X94539411Y-65283087D01*
X94115640Y-65590975D02*
X94924657Y-65003190D01*
X94924657Y-65003190D02*
X95204555Y-65388436D01*
X100766818Y-60017509D02*
X100661779Y-60034964D01*
X100661779Y-60034964D02*
X100546205Y-60118933D01*
X100546205Y-60118933D02*
X100458621Y-60241427D01*
X100458621Y-60241427D02*
X100437551Y-60374456D01*
X100437551Y-60374456D02*
X100455006Y-60479495D01*
X100455006Y-60479495D02*
X100528441Y-60661583D01*
X100528441Y-60661583D02*
X100612410Y-60777157D01*
X100612410Y-60777157D02*
X100762894Y-60903265D01*
X100762894Y-60903265D02*
X100857398Y-60952325D01*
X100857398Y-60952325D02*
X100990427Y-60973395D01*
X100990427Y-60973395D02*
X101133990Y-60927950D01*
X101133990Y-60927950D02*
X101211039Y-60871970D01*
X101211039Y-60871970D02*
X101298624Y-60749476D01*
X101298624Y-60749476D02*
X101309158Y-60682962D01*
X101309158Y-60682962D02*
X101113230Y-60413290D01*
X101113230Y-60413290D02*
X100959131Y-60525249D01*
X101711860Y-60508103D02*
X101124074Y-59699086D01*
X101124074Y-59699086D02*
X102174155Y-60172226D01*
X102174155Y-60172226D02*
X101586370Y-59363209D01*
X102559401Y-59892328D02*
X101971616Y-59083311D01*
X101971616Y-59083311D02*
X102164239Y-58943362D01*
X102164239Y-58943362D02*
X102307803Y-58897918D01*
X102307803Y-58897918D02*
X102440831Y-58918987D01*
X102440831Y-58918987D02*
X102535336Y-58968047D01*
X102535336Y-58968047D02*
X102685819Y-59094156D01*
X102685819Y-59094156D02*
X102769789Y-59209729D01*
X102769789Y-59209729D02*
X102843223Y-59391818D01*
X102843223Y-59391818D02*
X102860678Y-59496857D01*
X102860678Y-59496857D02*
X102839608Y-59629885D01*
X102839608Y-59629885D02*
X102752024Y-59752379D01*
X102752024Y-59752379D02*
X102559401Y-59892328D01*
X118849613Y-74407991D02*
X118743139Y-74406941D01*
X118743139Y-74406941D02*
X118614740Y-74469565D01*
X118614740Y-74469565D02*
X118507215Y-74574989D01*
X118507215Y-74574989D02*
X118463366Y-74702338D01*
X118463366Y-74702338D02*
X118462316Y-74808813D01*
X118462316Y-74808813D02*
X118503015Y-75000886D01*
X118503015Y-75000886D02*
X118565640Y-75129285D01*
X118565640Y-75129285D02*
X118691939Y-75279609D01*
X118691939Y-75279609D02*
X118776488Y-75344334D01*
X118776488Y-75344334D02*
X118903837Y-75388184D01*
X118903837Y-75388184D02*
X119053111Y-75368359D01*
X119053111Y-75368359D02*
X119138710Y-75326609D01*
X119138710Y-75326609D02*
X119246235Y-75221185D01*
X119246235Y-75221185D02*
X119268160Y-75157511D01*
X119268160Y-75157511D02*
X119122036Y-74857913D01*
X119122036Y-74857913D02*
X118950837Y-74941412D01*
X119695107Y-75055237D02*
X119256735Y-74156443D01*
X119256735Y-74156443D02*
X120208703Y-74804739D01*
X120208703Y-74804739D02*
X119770332Y-73905945D01*
X120636700Y-74595991D02*
X120198329Y-73697197D01*
X120198329Y-73697197D02*
X120412328Y-73592823D01*
X120412328Y-73592823D02*
X120561602Y-73572998D01*
X120561602Y-73572998D02*
X120688951Y-73616848D01*
X120688951Y-73616848D02*
X120773500Y-73681572D01*
X120773500Y-73681572D02*
X120899799Y-73831896D01*
X120899799Y-73831896D02*
X120962424Y-73960296D01*
X120962424Y-73960296D02*
X121003123Y-74152369D01*
X121003123Y-74152369D02*
X121002073Y-74258844D01*
X121002073Y-74258844D02*
X120958223Y-74386193D01*
X120958223Y-74386193D02*
X120850699Y-74491617D01*
X120850699Y-74491617D02*
X120636700Y-74595991D01*
X95856563Y-61520525D02*
X95902008Y-61664088D01*
X95902008Y-61664088D02*
X96041957Y-61856711D01*
X96041957Y-61856711D02*
X96136461Y-61905771D01*
X96136461Y-61905771D02*
X96202975Y-61916306D01*
X96202975Y-61916306D02*
X96308014Y-61898851D01*
X96308014Y-61898851D02*
X96385064Y-61842871D01*
X96385064Y-61842871D02*
X96434123Y-61748367D01*
X96434123Y-61748367D02*
X96444658Y-61681853D01*
X96444658Y-61681853D02*
X96427203Y-61576814D01*
X96427203Y-61576814D02*
X96353769Y-61394725D01*
X96353769Y-61394725D02*
X96336314Y-61289686D01*
X96336314Y-61289686D02*
X96346849Y-61223172D01*
X96346849Y-61223172D02*
X96395908Y-61128668D01*
X96395908Y-61128668D02*
X96472957Y-61072688D01*
X96472957Y-61072688D02*
X96577996Y-61055233D01*
X96577996Y-61055233D02*
X96644511Y-61065768D01*
X96644511Y-61065768D02*
X96739015Y-61114828D01*
X96739015Y-61114828D02*
X96878964Y-61307451D01*
X96878964Y-61307451D02*
X96924408Y-61451014D01*
X96713711Y-62781302D02*
X96377834Y-62319007D01*
X96545773Y-62550155D02*
X97354790Y-61962369D01*
X97354790Y-61962369D02*
X97183236Y-61969289D01*
X97183236Y-61969289D02*
X97050208Y-61948220D01*
X97050208Y-61948220D02*
X96955703Y-61899160D01*
X97690667Y-62424665D02*
X98026544Y-62886960D01*
X97049589Y-63243598D02*
X97858606Y-62655813D01*
X113728476Y-67806761D02*
X113871333Y-67854380D01*
X113871333Y-67854380D02*
X114109428Y-67854380D01*
X114109428Y-67854380D02*
X114204666Y-67806761D01*
X114204666Y-67806761D02*
X114252285Y-67759142D01*
X114252285Y-67759142D02*
X114299904Y-67663904D01*
X114299904Y-67663904D02*
X114299904Y-67568666D01*
X114299904Y-67568666D02*
X114252285Y-67473428D01*
X114252285Y-67473428D02*
X114204666Y-67425809D01*
X114204666Y-67425809D02*
X114109428Y-67378190D01*
X114109428Y-67378190D02*
X113918952Y-67330571D01*
X113918952Y-67330571D02*
X113823714Y-67282952D01*
X113823714Y-67282952D02*
X113776095Y-67235333D01*
X113776095Y-67235333D02*
X113728476Y-67140095D01*
X113728476Y-67140095D02*
X113728476Y-67044857D01*
X113728476Y-67044857D02*
X113776095Y-66949619D01*
X113776095Y-66949619D02*
X113823714Y-66902000D01*
X113823714Y-66902000D02*
X113918952Y-66854380D01*
X113918952Y-66854380D02*
X114157047Y-66854380D01*
X114157047Y-66854380D02*
X114299904Y-66902000D01*
X115252285Y-67854380D02*
X114680857Y-67854380D01*
X114966571Y-67854380D02*
X114966571Y-66854380D01*
X114966571Y-66854380D02*
X114871333Y-66997238D01*
X114871333Y-66997238D02*
X114776095Y-67092476D01*
X114776095Y-67092476D02*
X114680857Y-67140095D01*
X116014190Y-67330571D02*
X115680857Y-67330571D01*
X115680857Y-67854380D02*
X115680857Y-66854380D01*
X115680857Y-66854380D02*
X116157047Y-66854380D01*
X112204476Y-63359361D02*
X112347333Y-63406980D01*
X112347333Y-63406980D02*
X112585428Y-63406980D01*
X112585428Y-63406980D02*
X112680666Y-63359361D01*
X112680666Y-63359361D02*
X112728285Y-63311742D01*
X112728285Y-63311742D02*
X112775904Y-63216504D01*
X112775904Y-63216504D02*
X112775904Y-63121266D01*
X112775904Y-63121266D02*
X112728285Y-63026028D01*
X112728285Y-63026028D02*
X112680666Y-62978409D01*
X112680666Y-62978409D02*
X112585428Y-62930790D01*
X112585428Y-62930790D02*
X112394952Y-62883171D01*
X112394952Y-62883171D02*
X112299714Y-62835552D01*
X112299714Y-62835552D02*
X112252095Y-62787933D01*
X112252095Y-62787933D02*
X112204476Y-62692695D01*
X112204476Y-62692695D02*
X112204476Y-62597457D01*
X112204476Y-62597457D02*
X112252095Y-62502219D01*
X112252095Y-62502219D02*
X112299714Y-62454600D01*
X112299714Y-62454600D02*
X112394952Y-62406980D01*
X112394952Y-62406980D02*
X112633047Y-62406980D01*
X112633047Y-62406980D02*
X112775904Y-62454600D01*
X113728285Y-63406980D02*
X113156857Y-63406980D01*
X113442571Y-63406980D02*
X113442571Y-62406980D01*
X113442571Y-62406980D02*
X113347333Y-62549838D01*
X113347333Y-62549838D02*
X113252095Y-62645076D01*
X113252095Y-62645076D02*
X113156857Y-62692695D01*
X114728285Y-63311742D02*
X114680666Y-63359361D01*
X114680666Y-63359361D02*
X114537809Y-63406980D01*
X114537809Y-63406980D02*
X114442571Y-63406980D01*
X114442571Y-63406980D02*
X114299714Y-63359361D01*
X114299714Y-63359361D02*
X114204476Y-63264123D01*
X114204476Y-63264123D02*
X114156857Y-63168885D01*
X114156857Y-63168885D02*
X114109238Y-62978409D01*
X114109238Y-62978409D02*
X114109238Y-62835552D01*
X114109238Y-62835552D02*
X114156857Y-62645076D01*
X114156857Y-62645076D02*
X114204476Y-62549838D01*
X114204476Y-62549838D02*
X114299714Y-62454600D01*
X114299714Y-62454600D02*
X114442571Y-62406980D01*
X114442571Y-62406980D02*
X114537809Y-62406980D01*
X114537809Y-62406980D02*
X114680666Y-62454600D01*
X114680666Y-62454600D02*
X114728285Y-62502219D01*
X98844400Y-60358919D02*
X98889845Y-60502482D01*
X98889845Y-60502482D02*
X99029793Y-60695106D01*
X99029793Y-60695106D02*
X99124298Y-60744165D01*
X99124298Y-60744165D02*
X99190812Y-60754700D01*
X99190812Y-60754700D02*
X99295851Y-60737245D01*
X99295851Y-60737245D02*
X99372900Y-60681265D01*
X99372900Y-60681265D02*
X99421960Y-60586761D01*
X99421960Y-60586761D02*
X99432495Y-60520247D01*
X99432495Y-60520247D02*
X99415040Y-60415208D01*
X99415040Y-60415208D02*
X99341605Y-60233120D01*
X99341605Y-60233120D02*
X99324150Y-60128081D01*
X99324150Y-60128081D02*
X99334685Y-60061566D01*
X99334685Y-60061566D02*
X99383744Y-59967062D01*
X99383744Y-59967062D02*
X99460794Y-59911082D01*
X99460794Y-59911082D02*
X99565833Y-59893628D01*
X99565833Y-59893628D02*
X99632347Y-59904162D01*
X99632347Y-59904162D02*
X99726851Y-59953222D01*
X99726851Y-59953222D02*
X99866800Y-60145845D01*
X99866800Y-60145845D02*
X99912245Y-60289409D01*
X100097638Y-60625595D02*
X100164153Y-60636130D01*
X100164153Y-60636130D02*
X100258657Y-60685190D01*
X100258657Y-60685190D02*
X100398606Y-60877813D01*
X100398606Y-60877813D02*
X100416061Y-60982852D01*
X100416061Y-60982852D02*
X100405526Y-61049366D01*
X100405526Y-61049366D02*
X100356467Y-61143870D01*
X100356467Y-61143870D02*
X100279417Y-61199850D01*
X100279417Y-61199850D02*
X100135854Y-61245295D01*
X100135854Y-61245295D02*
X99337681Y-61118876D01*
X99337681Y-61118876D02*
X99701548Y-61619696D01*
X96456476Y-59932761D02*
X96599333Y-59980380D01*
X96599333Y-59980380D02*
X96837428Y-59980380D01*
X96837428Y-59980380D02*
X96932666Y-59932761D01*
X96932666Y-59932761D02*
X96980285Y-59885142D01*
X96980285Y-59885142D02*
X97027904Y-59789904D01*
X97027904Y-59789904D02*
X97027904Y-59694666D01*
X97027904Y-59694666D02*
X96980285Y-59599428D01*
X96980285Y-59599428D02*
X96932666Y-59551809D01*
X96932666Y-59551809D02*
X96837428Y-59504190D01*
X96837428Y-59504190D02*
X96646952Y-59456571D01*
X96646952Y-59456571D02*
X96551714Y-59408952D01*
X96551714Y-59408952D02*
X96504095Y-59361333D01*
X96504095Y-59361333D02*
X96456476Y-59266095D01*
X96456476Y-59266095D02*
X96456476Y-59170857D01*
X96456476Y-59170857D02*
X96504095Y-59075619D01*
X96504095Y-59075619D02*
X96551714Y-59028000D01*
X96551714Y-59028000D02*
X96646952Y-58980380D01*
X96646952Y-58980380D02*
X96885047Y-58980380D01*
X96885047Y-58980380D02*
X97027904Y-59028000D01*
X97408857Y-59075619D02*
X97456476Y-59028000D01*
X97456476Y-59028000D02*
X97551714Y-58980380D01*
X97551714Y-58980380D02*
X97789809Y-58980380D01*
X97789809Y-58980380D02*
X97885047Y-59028000D01*
X97885047Y-59028000D02*
X97932666Y-59075619D01*
X97932666Y-59075619D02*
X97980285Y-59170857D01*
X97980285Y-59170857D02*
X97980285Y-59266095D01*
X97980285Y-59266095D02*
X97932666Y-59408952D01*
X97932666Y-59408952D02*
X97361238Y-59980380D01*
X97361238Y-59980380D02*
X97980285Y-59980380D01*
X98408857Y-59599428D02*
X99170762Y-59599428D01*
X45794330Y-63164171D02*
X45460997Y-63164171D01*
X45460997Y-63687980D02*
X45460997Y-62687980D01*
X45460997Y-62687980D02*
X45937187Y-62687980D01*
X46175283Y-62687980D02*
X46746711Y-62687980D01*
X46460997Y-63687980D02*
X46460997Y-62687980D01*
X41319190Y-63028571D02*
X40985857Y-63028571D01*
X40985857Y-63552380D02*
X40985857Y-62552380D01*
X40985857Y-62552380D02*
X41462047Y-62552380D01*
X41843000Y-63171428D02*
X42604905Y-63171428D01*
X42223952Y-63552380D02*
X42223952Y-62790476D01*
X106108476Y-59932761D02*
X106251333Y-59980380D01*
X106251333Y-59980380D02*
X106489428Y-59980380D01*
X106489428Y-59980380D02*
X106584666Y-59932761D01*
X106584666Y-59932761D02*
X106632285Y-59885142D01*
X106632285Y-59885142D02*
X106679904Y-59789904D01*
X106679904Y-59789904D02*
X106679904Y-59694666D01*
X106679904Y-59694666D02*
X106632285Y-59599428D01*
X106632285Y-59599428D02*
X106584666Y-59551809D01*
X106584666Y-59551809D02*
X106489428Y-59504190D01*
X106489428Y-59504190D02*
X106298952Y-59456571D01*
X106298952Y-59456571D02*
X106203714Y-59408952D01*
X106203714Y-59408952D02*
X106156095Y-59361333D01*
X106156095Y-59361333D02*
X106108476Y-59266095D01*
X106108476Y-59266095D02*
X106108476Y-59170857D01*
X106108476Y-59170857D02*
X106156095Y-59075619D01*
X106156095Y-59075619D02*
X106203714Y-59028000D01*
X106203714Y-59028000D02*
X106298952Y-58980380D01*
X106298952Y-58980380D02*
X106537047Y-58980380D01*
X106537047Y-58980380D02*
X106679904Y-59028000D01*
X107298952Y-58980380D02*
X107489428Y-58980380D01*
X107489428Y-58980380D02*
X107584666Y-59028000D01*
X107584666Y-59028000D02*
X107679904Y-59123238D01*
X107679904Y-59123238D02*
X107727523Y-59313714D01*
X107727523Y-59313714D02*
X107727523Y-59647047D01*
X107727523Y-59647047D02*
X107679904Y-59837523D01*
X107679904Y-59837523D02*
X107584666Y-59932761D01*
X107584666Y-59932761D02*
X107489428Y-59980380D01*
X107489428Y-59980380D02*
X107298952Y-59980380D01*
X107298952Y-59980380D02*
X107203714Y-59932761D01*
X107203714Y-59932761D02*
X107108476Y-59837523D01*
X107108476Y-59837523D02*
X107060857Y-59647047D01*
X107060857Y-59647047D02*
X107060857Y-59313714D01*
X107060857Y-59313714D02*
X107108476Y-59123238D01*
X107108476Y-59123238D02*
X107203714Y-59028000D01*
X107203714Y-59028000D02*
X107298952Y-58980380D01*
X108632285Y-59980380D02*
X108156095Y-59980380D01*
X108156095Y-59980380D02*
X108156095Y-58980380D01*
X108918000Y-59075619D02*
X108965619Y-59028000D01*
X108965619Y-59028000D02*
X109060857Y-58980380D01*
X109060857Y-58980380D02*
X109298952Y-58980380D01*
X109298952Y-58980380D02*
X109394190Y-59028000D01*
X109394190Y-59028000D02*
X109441809Y-59075619D01*
X109441809Y-59075619D02*
X109489428Y-59170857D01*
X109489428Y-59170857D02*
X109489428Y-59266095D01*
X109489428Y-59266095D02*
X109441809Y-59408952D01*
X109441809Y-59408952D02*
X108870381Y-59980380D01*
X108870381Y-59980380D02*
X109489428Y-59980380D01*
X109918000Y-59599428D02*
X110679905Y-59599428D01*
X44092142Y-63028571D02*
X43758809Y-63028571D01*
X43758809Y-63552380D02*
X43758809Y-62552380D01*
X43758809Y-62552380D02*
X44234999Y-62552380D01*
X44949285Y-63028571D02*
X44615952Y-63028571D01*
X44615952Y-63552380D02*
X44615952Y-62552380D01*
X44615952Y-62552380D02*
X45092142Y-62552380D01*
X112393831Y-72430688D02*
X112543105Y-72410863D01*
X112543105Y-72410863D02*
X112757104Y-72306489D01*
X112757104Y-72306489D02*
X112821828Y-72221939D01*
X112821828Y-72221939D02*
X112843753Y-72158265D01*
X112843753Y-72158265D02*
X112844803Y-72051791D01*
X112844803Y-72051791D02*
X112803054Y-71966191D01*
X112803054Y-71966191D02*
X112718504Y-71901467D01*
X112718504Y-71901467D02*
X112654830Y-71879542D01*
X112654830Y-71879542D02*
X112548356Y-71878492D01*
X112548356Y-71878492D02*
X112356282Y-71919191D01*
X112356282Y-71919191D02*
X112249808Y-71918141D01*
X112249808Y-71918141D02*
X112186133Y-71896216D01*
X112186133Y-71896216D02*
X112101584Y-71831492D01*
X112101584Y-71831492D02*
X112059834Y-71745892D01*
X112059834Y-71745892D02*
X112060884Y-71639418D01*
X112060884Y-71639418D02*
X112082809Y-71575743D01*
X112082809Y-71575743D02*
X112147534Y-71491194D01*
X112147534Y-71491194D02*
X112361532Y-71386820D01*
X112361532Y-71386820D02*
X112510806Y-71366995D01*
X113356300Y-72014241D02*
X113527499Y-71930742D01*
X113527499Y-71930742D02*
X113592223Y-71846193D01*
X113592223Y-71846193D02*
X113614148Y-71782518D01*
X113614148Y-71782518D02*
X113637123Y-71612369D01*
X113637123Y-71612369D02*
X113596424Y-71420296D01*
X113596424Y-71420296D02*
X113429425Y-71077898D01*
X113429425Y-71077898D02*
X113344876Y-71013173D01*
X113344876Y-71013173D02*
X113281201Y-70991248D01*
X113281201Y-70991248D02*
X113174727Y-70990198D01*
X113174727Y-70990198D02*
X113003528Y-71073698D01*
X113003528Y-71073698D02*
X112938803Y-71158247D01*
X112938803Y-71158247D02*
X112916879Y-71221921D01*
X112916879Y-71221921D02*
X112915828Y-71328396D01*
X112915828Y-71328396D02*
X113020203Y-71542394D01*
X113020203Y-71542394D02*
X113104752Y-71607119D01*
X113104752Y-71607119D02*
X113168426Y-71629044D01*
X113168426Y-71629044D02*
X113274901Y-71630094D01*
X113274901Y-71630094D02*
X113446100Y-71546595D01*
X113446100Y-71546595D02*
X113510824Y-71462045D01*
X113510824Y-71462045D02*
X113532749Y-71398371D01*
X113532749Y-71398371D02*
X113533799Y-71291897D01*
X114679831Y-78780688D02*
X114829105Y-78760863D01*
X114829105Y-78760863D02*
X115043104Y-78656489D01*
X115043104Y-78656489D02*
X115107828Y-78571939D01*
X115107828Y-78571939D02*
X115129753Y-78508265D01*
X115129753Y-78508265D02*
X115130803Y-78401791D01*
X115130803Y-78401791D02*
X115089054Y-78316191D01*
X115089054Y-78316191D02*
X115004504Y-78251467D01*
X115004504Y-78251467D02*
X114940830Y-78229542D01*
X114940830Y-78229542D02*
X114834356Y-78228492D01*
X114834356Y-78228492D02*
X114642282Y-78269191D01*
X114642282Y-78269191D02*
X114535808Y-78268141D01*
X114535808Y-78268141D02*
X114472133Y-78246216D01*
X114472133Y-78246216D02*
X114387584Y-78181492D01*
X114387584Y-78181492D02*
X114345834Y-78095892D01*
X114345834Y-78095892D02*
X114346884Y-77989418D01*
X114346884Y-77989418D02*
X114368809Y-77925743D01*
X114368809Y-77925743D02*
X114433534Y-77841194D01*
X114433534Y-77841194D02*
X114647532Y-77736820D01*
X114647532Y-77736820D02*
X114796806Y-77716995D01*
X115589126Y-77277574D02*
X115161129Y-77486322D01*
X115161129Y-77486322D02*
X115327077Y-77935194D01*
X115327077Y-77935194D02*
X115349002Y-77871520D01*
X115349002Y-77871520D02*
X115413727Y-77786970D01*
X115413727Y-77786970D02*
X115627725Y-77682596D01*
X115627725Y-77682596D02*
X115734200Y-77683646D01*
X115734200Y-77683646D02*
X115797874Y-77705571D01*
X115797874Y-77705571D02*
X115882424Y-77770296D01*
X115882424Y-77770296D02*
X115986798Y-77984294D01*
X115986798Y-77984294D02*
X115985748Y-78090769D01*
X115985748Y-78090769D02*
X115963823Y-78154443D01*
X115963823Y-78154443D02*
X115899098Y-78238992D01*
X115899098Y-78238992D02*
X115685099Y-78343366D01*
X115685099Y-78343366D02*
X115578625Y-78342316D01*
X115578625Y-78342316D02*
X115514951Y-78320391D01*
X119505831Y-77002688D02*
X119655105Y-76982863D01*
X119655105Y-76982863D02*
X119869104Y-76878489D01*
X119869104Y-76878489D02*
X119933828Y-76793939D01*
X119933828Y-76793939D02*
X119955753Y-76730265D01*
X119955753Y-76730265D02*
X119956803Y-76623791D01*
X119956803Y-76623791D02*
X119915054Y-76538191D01*
X119915054Y-76538191D02*
X119830504Y-76473467D01*
X119830504Y-76473467D02*
X119766830Y-76451542D01*
X119766830Y-76451542D02*
X119660356Y-76450492D01*
X119660356Y-76450492D02*
X119468282Y-76491191D01*
X119468282Y-76491191D02*
X119361808Y-76490141D01*
X119361808Y-76490141D02*
X119298133Y-76468216D01*
X119298133Y-76468216D02*
X119213584Y-76403492D01*
X119213584Y-76403492D02*
X119171834Y-76317892D01*
X119171834Y-76317892D02*
X119172884Y-76211418D01*
X119172884Y-76211418D02*
X119194809Y-76147743D01*
X119194809Y-76147743D02*
X119259534Y-76063194D01*
X119259534Y-76063194D02*
X119473532Y-75958820D01*
X119473532Y-75958820D02*
X119622806Y-75938995D01*
X119901529Y-75750072D02*
X120457926Y-75478699D01*
X120457926Y-75478699D02*
X120325326Y-75967221D01*
X120325326Y-75967221D02*
X120453725Y-75904596D01*
X120453725Y-75904596D02*
X120560200Y-75905646D01*
X120560200Y-75905646D02*
X120623874Y-75927571D01*
X120623874Y-75927571D02*
X120708424Y-75992296D01*
X120708424Y-75992296D02*
X120812798Y-76206294D01*
X120812798Y-76206294D02*
X120811748Y-76312769D01*
X120811748Y-76312769D02*
X120789823Y-76376443D01*
X120789823Y-76376443D02*
X120725098Y-76460992D01*
X120725098Y-76460992D02*
X120468300Y-76586241D01*
X120468300Y-76586241D02*
X120361826Y-76585191D01*
X120361826Y-76585191D02*
X120298151Y-76563266D01*
X91534429Y-65437965D02*
X91516974Y-65332926D01*
X91516974Y-65332926D02*
X91433005Y-65217352D01*
X91433005Y-65217352D02*
X91310511Y-65129768D01*
X91310511Y-65129768D02*
X91177482Y-65108699D01*
X91177482Y-65108699D02*
X91072443Y-65126154D01*
X91072443Y-65126154D02*
X90890355Y-65199588D01*
X90890355Y-65199588D02*
X90774781Y-65283557D01*
X90774781Y-65283557D02*
X90648672Y-65434041D01*
X90648672Y-65434041D02*
X90599613Y-65528545D01*
X90599613Y-65528545D02*
X90578543Y-65661574D01*
X90578543Y-65661574D02*
X90623988Y-65805138D01*
X90623988Y-65805138D02*
X90679967Y-65882187D01*
X90679967Y-65882187D02*
X90802461Y-65969771D01*
X90802461Y-65969771D02*
X90868975Y-65980306D01*
X90868975Y-65980306D02*
X91138648Y-65784377D01*
X91138648Y-65784377D02*
X91026689Y-65630279D01*
X91768882Y-65679648D02*
X92104759Y-66141943D01*
X91127804Y-66498581D02*
X91936821Y-65910796D01*
X91491671Y-66999401D02*
X92300688Y-66411616D01*
X92300688Y-66411616D02*
X92440637Y-66604239D01*
X92440637Y-66604239D02*
X92486081Y-66747803D01*
X92486081Y-66747803D02*
X92465012Y-66880831D01*
X92465012Y-66880831D02*
X92415952Y-66975336D01*
X92415952Y-66975336D02*
X92289843Y-67125819D01*
X92289843Y-67125819D02*
X92174270Y-67209789D01*
X92174270Y-67209789D02*
X91992181Y-67283223D01*
X91992181Y-67283223D02*
X91887142Y-67300678D01*
X91887142Y-67300678D02*
X91754114Y-67279608D01*
X91754114Y-67279608D02*
X91631620Y-67192024D01*
X91631620Y-67192024D02*
X91491671Y-66999401D01*
%TO.C,Q1*%
X110648761Y-77424619D02*
X110553523Y-77377000D01*
X110553523Y-77377000D02*
X110458285Y-77281761D01*
X110458285Y-77281761D02*
X110315428Y-77138904D01*
X110315428Y-77138904D02*
X110220190Y-77091285D01*
X110220190Y-77091285D02*
X110124952Y-77091285D01*
X110172571Y-77329380D02*
X110077333Y-77281761D01*
X110077333Y-77281761D02*
X109982095Y-77186523D01*
X109982095Y-77186523D02*
X109934476Y-76996047D01*
X109934476Y-76996047D02*
X109934476Y-76662714D01*
X109934476Y-76662714D02*
X109982095Y-76472238D01*
X109982095Y-76472238D02*
X110077333Y-76377000D01*
X110077333Y-76377000D02*
X110172571Y-76329380D01*
X110172571Y-76329380D02*
X110363047Y-76329380D01*
X110363047Y-76329380D02*
X110458285Y-76377000D01*
X110458285Y-76377000D02*
X110553523Y-76472238D01*
X110553523Y-76472238D02*
X110601142Y-76662714D01*
X110601142Y-76662714D02*
X110601142Y-76996047D01*
X110601142Y-76996047D02*
X110553523Y-77186523D01*
X110553523Y-77186523D02*
X110458285Y-77281761D01*
X110458285Y-77281761D02*
X110363047Y-77329380D01*
X110363047Y-77329380D02*
X110172571Y-77329380D01*
X111553523Y-77329380D02*
X110982095Y-77329380D01*
X111267809Y-77329380D02*
X111267809Y-76329380D01*
X111267809Y-76329380D02*
X111172571Y-76472238D01*
X111172571Y-76472238D02*
X111077333Y-76567476D01*
X111077333Y-76567476D02*
X110982095Y-76615095D01*
%TO.C,R15*%
X88003142Y-70725380D02*
X87669809Y-70249190D01*
X87431714Y-70725380D02*
X87431714Y-69725380D01*
X87431714Y-69725380D02*
X87812666Y-69725380D01*
X87812666Y-69725380D02*
X87907904Y-69773000D01*
X87907904Y-69773000D02*
X87955523Y-69820619D01*
X87955523Y-69820619D02*
X88003142Y-69915857D01*
X88003142Y-69915857D02*
X88003142Y-70058714D01*
X88003142Y-70058714D02*
X87955523Y-70153952D01*
X87955523Y-70153952D02*
X87907904Y-70201571D01*
X87907904Y-70201571D02*
X87812666Y-70249190D01*
X87812666Y-70249190D02*
X87431714Y-70249190D01*
X88955523Y-70725380D02*
X88384095Y-70725380D01*
X88669809Y-70725380D02*
X88669809Y-69725380D01*
X88669809Y-69725380D02*
X88574571Y-69868238D01*
X88574571Y-69868238D02*
X88479333Y-69963476D01*
X88479333Y-69963476D02*
X88384095Y-70011095D01*
X89860285Y-69725380D02*
X89384095Y-69725380D01*
X89384095Y-69725380D02*
X89336476Y-70201571D01*
X89336476Y-70201571D02*
X89384095Y-70153952D01*
X89384095Y-70153952D02*
X89479333Y-70106333D01*
X89479333Y-70106333D02*
X89717428Y-70106333D01*
X89717428Y-70106333D02*
X89812666Y-70153952D01*
X89812666Y-70153952D02*
X89860285Y-70201571D01*
X89860285Y-70201571D02*
X89907904Y-70296809D01*
X89907904Y-70296809D02*
X89907904Y-70534904D01*
X89907904Y-70534904D02*
X89860285Y-70630142D01*
X89860285Y-70630142D02*
X89812666Y-70677761D01*
X89812666Y-70677761D02*
X89717428Y-70725380D01*
X89717428Y-70725380D02*
X89479333Y-70725380D01*
X89479333Y-70725380D02*
X89384095Y-70677761D01*
X89384095Y-70677761D02*
X89336476Y-70630142D01*
%TO.C,C4*%
X41472142Y-79841666D02*
X41519761Y-79889285D01*
X41519761Y-79889285D02*
X41567380Y-80032142D01*
X41567380Y-80032142D02*
X41567380Y-80127380D01*
X41567380Y-80127380D02*
X41519761Y-80270237D01*
X41519761Y-80270237D02*
X41424523Y-80365475D01*
X41424523Y-80365475D02*
X41329285Y-80413094D01*
X41329285Y-80413094D02*
X41138809Y-80460713D01*
X41138809Y-80460713D02*
X40995952Y-80460713D01*
X40995952Y-80460713D02*
X40805476Y-80413094D01*
X40805476Y-80413094D02*
X40710238Y-80365475D01*
X40710238Y-80365475D02*
X40615000Y-80270237D01*
X40615000Y-80270237D02*
X40567380Y-80127380D01*
X40567380Y-80127380D02*
X40567380Y-80032142D01*
X40567380Y-80032142D02*
X40615000Y-79889285D01*
X40615000Y-79889285D02*
X40662619Y-79841666D01*
X40900714Y-78984523D02*
X41567380Y-78984523D01*
X40519761Y-79222618D02*
X41234047Y-79460713D01*
X41234047Y-79460713D02*
X41234047Y-78841666D01*
%TO.C,C14*%
X26507142Y-74427142D02*
X26459523Y-74474761D01*
X26459523Y-74474761D02*
X26316666Y-74522380D01*
X26316666Y-74522380D02*
X26221428Y-74522380D01*
X26221428Y-74522380D02*
X26078571Y-74474761D01*
X26078571Y-74474761D02*
X25983333Y-74379523D01*
X25983333Y-74379523D02*
X25935714Y-74284285D01*
X25935714Y-74284285D02*
X25888095Y-74093809D01*
X25888095Y-74093809D02*
X25888095Y-73950952D01*
X25888095Y-73950952D02*
X25935714Y-73760476D01*
X25935714Y-73760476D02*
X25983333Y-73665238D01*
X25983333Y-73665238D02*
X26078571Y-73570000D01*
X26078571Y-73570000D02*
X26221428Y-73522380D01*
X26221428Y-73522380D02*
X26316666Y-73522380D01*
X26316666Y-73522380D02*
X26459523Y-73570000D01*
X26459523Y-73570000D02*
X26507142Y-73617619D01*
X27459523Y-74522380D02*
X26888095Y-74522380D01*
X27173809Y-74522380D02*
X27173809Y-73522380D01*
X27173809Y-73522380D02*
X27078571Y-73665238D01*
X27078571Y-73665238D02*
X26983333Y-73760476D01*
X26983333Y-73760476D02*
X26888095Y-73808095D01*
X28316666Y-73855714D02*
X28316666Y-74522380D01*
X28078571Y-73474761D02*
X27840476Y-74189047D01*
X27840476Y-74189047D02*
X28459523Y-74189047D01*
%TO.C,C6*%
X31313142Y-64501166D02*
X31360761Y-64548785D01*
X31360761Y-64548785D02*
X31408380Y-64691642D01*
X31408380Y-64691642D02*
X31408380Y-64786880D01*
X31408380Y-64786880D02*
X31360761Y-64929737D01*
X31360761Y-64929737D02*
X31265523Y-65024975D01*
X31265523Y-65024975D02*
X31170285Y-65072594D01*
X31170285Y-65072594D02*
X30979809Y-65120213D01*
X30979809Y-65120213D02*
X30836952Y-65120213D01*
X30836952Y-65120213D02*
X30646476Y-65072594D01*
X30646476Y-65072594D02*
X30551238Y-65024975D01*
X30551238Y-65024975D02*
X30456000Y-64929737D01*
X30456000Y-64929737D02*
X30408380Y-64786880D01*
X30408380Y-64786880D02*
X30408380Y-64691642D01*
X30408380Y-64691642D02*
X30456000Y-64548785D01*
X30456000Y-64548785D02*
X30503619Y-64501166D01*
X30408380Y-63644023D02*
X30408380Y-63834499D01*
X30408380Y-63834499D02*
X30456000Y-63929737D01*
X30456000Y-63929737D02*
X30503619Y-63977356D01*
X30503619Y-63977356D02*
X30646476Y-64072594D01*
X30646476Y-64072594D02*
X30836952Y-64120213D01*
X30836952Y-64120213D02*
X31217904Y-64120213D01*
X31217904Y-64120213D02*
X31313142Y-64072594D01*
X31313142Y-64072594D02*
X31360761Y-64024975D01*
X31360761Y-64024975D02*
X31408380Y-63929737D01*
X31408380Y-63929737D02*
X31408380Y-63739261D01*
X31408380Y-63739261D02*
X31360761Y-63644023D01*
X31360761Y-63644023D02*
X31313142Y-63596404D01*
X31313142Y-63596404D02*
X31217904Y-63548785D01*
X31217904Y-63548785D02*
X30979809Y-63548785D01*
X30979809Y-63548785D02*
X30884571Y-63596404D01*
X30884571Y-63596404D02*
X30836952Y-63644023D01*
X30836952Y-63644023D02*
X30789333Y-63739261D01*
X30789333Y-63739261D02*
X30789333Y-63929737D01*
X30789333Y-63929737D02*
X30836952Y-64024975D01*
X30836952Y-64024975D02*
X30884571Y-64072594D01*
X30884571Y-64072594D02*
X30979809Y-64120213D01*
%TO.C,R16*%
X94855380Y-73032857D02*
X94379190Y-73366190D01*
X94855380Y-73604285D02*
X93855380Y-73604285D01*
X93855380Y-73604285D02*
X93855380Y-73223333D01*
X93855380Y-73223333D02*
X93903000Y-73128095D01*
X93903000Y-73128095D02*
X93950619Y-73080476D01*
X93950619Y-73080476D02*
X94045857Y-73032857D01*
X94045857Y-73032857D02*
X94188714Y-73032857D01*
X94188714Y-73032857D02*
X94283952Y-73080476D01*
X94283952Y-73080476D02*
X94331571Y-73128095D01*
X94331571Y-73128095D02*
X94379190Y-73223333D01*
X94379190Y-73223333D02*
X94379190Y-73604285D01*
X94855380Y-72080476D02*
X94855380Y-72651904D01*
X94855380Y-72366190D02*
X93855380Y-72366190D01*
X93855380Y-72366190D02*
X93998238Y-72461428D01*
X93998238Y-72461428D02*
X94093476Y-72556666D01*
X94093476Y-72556666D02*
X94141095Y-72651904D01*
X93855380Y-71223333D02*
X93855380Y-71413809D01*
X93855380Y-71413809D02*
X93903000Y-71509047D01*
X93903000Y-71509047D02*
X93950619Y-71556666D01*
X93950619Y-71556666D02*
X94093476Y-71651904D01*
X94093476Y-71651904D02*
X94283952Y-71699523D01*
X94283952Y-71699523D02*
X94664904Y-71699523D01*
X94664904Y-71699523D02*
X94760142Y-71651904D01*
X94760142Y-71651904D02*
X94807761Y-71604285D01*
X94807761Y-71604285D02*
X94855380Y-71509047D01*
X94855380Y-71509047D02*
X94855380Y-71318571D01*
X94855380Y-71318571D02*
X94807761Y-71223333D01*
X94807761Y-71223333D02*
X94760142Y-71175714D01*
X94760142Y-71175714D02*
X94664904Y-71128095D01*
X94664904Y-71128095D02*
X94426809Y-71128095D01*
X94426809Y-71128095D02*
X94331571Y-71175714D01*
X94331571Y-71175714D02*
X94283952Y-71223333D01*
X94283952Y-71223333D02*
X94236333Y-71318571D01*
X94236333Y-71318571D02*
X94236333Y-71509047D01*
X94236333Y-71509047D02*
X94283952Y-71604285D01*
X94283952Y-71604285D02*
X94331571Y-71651904D01*
X94331571Y-71651904D02*
X94426809Y-71699523D01*
%TO.C,C2*%
X54072142Y-65441666D02*
X54119761Y-65489285D01*
X54119761Y-65489285D02*
X54167380Y-65632142D01*
X54167380Y-65632142D02*
X54167380Y-65727380D01*
X54167380Y-65727380D02*
X54119761Y-65870237D01*
X54119761Y-65870237D02*
X54024523Y-65965475D01*
X54024523Y-65965475D02*
X53929285Y-66013094D01*
X53929285Y-66013094D02*
X53738809Y-66060713D01*
X53738809Y-66060713D02*
X53595952Y-66060713D01*
X53595952Y-66060713D02*
X53405476Y-66013094D01*
X53405476Y-66013094D02*
X53310238Y-65965475D01*
X53310238Y-65965475D02*
X53215000Y-65870237D01*
X53215000Y-65870237D02*
X53167380Y-65727380D01*
X53167380Y-65727380D02*
X53167380Y-65632142D01*
X53167380Y-65632142D02*
X53215000Y-65489285D01*
X53215000Y-65489285D02*
X53262619Y-65441666D01*
X53262619Y-65060713D02*
X53215000Y-65013094D01*
X53215000Y-65013094D02*
X53167380Y-64917856D01*
X53167380Y-64917856D02*
X53167380Y-64679761D01*
X53167380Y-64679761D02*
X53215000Y-64584523D01*
X53215000Y-64584523D02*
X53262619Y-64536904D01*
X53262619Y-64536904D02*
X53357857Y-64489285D01*
X53357857Y-64489285D02*
X53453095Y-64489285D01*
X53453095Y-64489285D02*
X53595952Y-64536904D01*
X53595952Y-64536904D02*
X54167380Y-65108332D01*
X54167380Y-65108332D02*
X54167380Y-64489285D01*
%TO.C,R6*%
X35858333Y-84717380D02*
X35525000Y-84241190D01*
X35286905Y-84717380D02*
X35286905Y-83717380D01*
X35286905Y-83717380D02*
X35667857Y-83717380D01*
X35667857Y-83717380D02*
X35763095Y-83765000D01*
X35763095Y-83765000D02*
X35810714Y-83812619D01*
X35810714Y-83812619D02*
X35858333Y-83907857D01*
X35858333Y-83907857D02*
X35858333Y-84050714D01*
X35858333Y-84050714D02*
X35810714Y-84145952D01*
X35810714Y-84145952D02*
X35763095Y-84193571D01*
X35763095Y-84193571D02*
X35667857Y-84241190D01*
X35667857Y-84241190D02*
X35286905Y-84241190D01*
X36715476Y-83717380D02*
X36525000Y-83717380D01*
X36525000Y-83717380D02*
X36429762Y-83765000D01*
X36429762Y-83765000D02*
X36382143Y-83812619D01*
X36382143Y-83812619D02*
X36286905Y-83955476D01*
X36286905Y-83955476D02*
X36239286Y-84145952D01*
X36239286Y-84145952D02*
X36239286Y-84526904D01*
X36239286Y-84526904D02*
X36286905Y-84622142D01*
X36286905Y-84622142D02*
X36334524Y-84669761D01*
X36334524Y-84669761D02*
X36429762Y-84717380D01*
X36429762Y-84717380D02*
X36620238Y-84717380D01*
X36620238Y-84717380D02*
X36715476Y-84669761D01*
X36715476Y-84669761D02*
X36763095Y-84622142D01*
X36763095Y-84622142D02*
X36810714Y-84526904D01*
X36810714Y-84526904D02*
X36810714Y-84288809D01*
X36810714Y-84288809D02*
X36763095Y-84193571D01*
X36763095Y-84193571D02*
X36715476Y-84145952D01*
X36715476Y-84145952D02*
X36620238Y-84098333D01*
X36620238Y-84098333D02*
X36429762Y-84098333D01*
X36429762Y-84098333D02*
X36334524Y-84145952D01*
X36334524Y-84145952D02*
X36286905Y-84193571D01*
X36286905Y-84193571D02*
X36239286Y-84288809D01*
%TO.C,R14*%
X88003142Y-68693380D02*
X87669809Y-68217190D01*
X87431714Y-68693380D02*
X87431714Y-67693380D01*
X87431714Y-67693380D02*
X87812666Y-67693380D01*
X87812666Y-67693380D02*
X87907904Y-67741000D01*
X87907904Y-67741000D02*
X87955523Y-67788619D01*
X87955523Y-67788619D02*
X88003142Y-67883857D01*
X88003142Y-67883857D02*
X88003142Y-68026714D01*
X88003142Y-68026714D02*
X87955523Y-68121952D01*
X87955523Y-68121952D02*
X87907904Y-68169571D01*
X87907904Y-68169571D02*
X87812666Y-68217190D01*
X87812666Y-68217190D02*
X87431714Y-68217190D01*
X88955523Y-68693380D02*
X88384095Y-68693380D01*
X88669809Y-68693380D02*
X88669809Y-67693380D01*
X88669809Y-67693380D02*
X88574571Y-67836238D01*
X88574571Y-67836238D02*
X88479333Y-67931476D01*
X88479333Y-67931476D02*
X88384095Y-67979095D01*
X89812666Y-68026714D02*
X89812666Y-68693380D01*
X89574571Y-67645761D02*
X89336476Y-68360047D01*
X89336476Y-68360047D02*
X89955523Y-68360047D01*
%TO.C,C10*%
X41561142Y-65650142D02*
X41513523Y-65697761D01*
X41513523Y-65697761D02*
X41370666Y-65745380D01*
X41370666Y-65745380D02*
X41275428Y-65745380D01*
X41275428Y-65745380D02*
X41132571Y-65697761D01*
X41132571Y-65697761D02*
X41037333Y-65602523D01*
X41037333Y-65602523D02*
X40989714Y-65507285D01*
X40989714Y-65507285D02*
X40942095Y-65316809D01*
X40942095Y-65316809D02*
X40942095Y-65173952D01*
X40942095Y-65173952D02*
X40989714Y-64983476D01*
X40989714Y-64983476D02*
X41037333Y-64888238D01*
X41037333Y-64888238D02*
X41132571Y-64793000D01*
X41132571Y-64793000D02*
X41275428Y-64745380D01*
X41275428Y-64745380D02*
X41370666Y-64745380D01*
X41370666Y-64745380D02*
X41513523Y-64793000D01*
X41513523Y-64793000D02*
X41561142Y-64840619D01*
X42513523Y-65745380D02*
X41942095Y-65745380D01*
X42227809Y-65745380D02*
X42227809Y-64745380D01*
X42227809Y-64745380D02*
X42132571Y-64888238D01*
X42132571Y-64888238D02*
X42037333Y-64983476D01*
X42037333Y-64983476D02*
X41942095Y-65031095D01*
X43132571Y-64745380D02*
X43227809Y-64745380D01*
X43227809Y-64745380D02*
X43323047Y-64793000D01*
X43323047Y-64793000D02*
X43370666Y-64840619D01*
X43370666Y-64840619D02*
X43418285Y-64935857D01*
X43418285Y-64935857D02*
X43465904Y-65126333D01*
X43465904Y-65126333D02*
X43465904Y-65364428D01*
X43465904Y-65364428D02*
X43418285Y-65554904D01*
X43418285Y-65554904D02*
X43370666Y-65650142D01*
X43370666Y-65650142D02*
X43323047Y-65697761D01*
X43323047Y-65697761D02*
X43227809Y-65745380D01*
X43227809Y-65745380D02*
X43132571Y-65745380D01*
X43132571Y-65745380D02*
X43037333Y-65697761D01*
X43037333Y-65697761D02*
X42989714Y-65650142D01*
X42989714Y-65650142D02*
X42942095Y-65554904D01*
X42942095Y-65554904D02*
X42894476Y-65364428D01*
X42894476Y-65364428D02*
X42894476Y-65126333D01*
X42894476Y-65126333D02*
X42942095Y-64935857D01*
X42942095Y-64935857D02*
X42989714Y-64840619D01*
X42989714Y-64840619D02*
X43037333Y-64793000D01*
X43037333Y-64793000D02*
X43132571Y-64745380D01*
%TO.C,R23*%
X106031380Y-75318857D02*
X105555190Y-75652190D01*
X106031380Y-75890285D02*
X105031380Y-75890285D01*
X105031380Y-75890285D02*
X105031380Y-75509333D01*
X105031380Y-75509333D02*
X105079000Y-75414095D01*
X105079000Y-75414095D02*
X105126619Y-75366476D01*
X105126619Y-75366476D02*
X105221857Y-75318857D01*
X105221857Y-75318857D02*
X105364714Y-75318857D01*
X105364714Y-75318857D02*
X105459952Y-75366476D01*
X105459952Y-75366476D02*
X105507571Y-75414095D01*
X105507571Y-75414095D02*
X105555190Y-75509333D01*
X105555190Y-75509333D02*
X105555190Y-75890285D01*
X105126619Y-74937904D02*
X105079000Y-74890285D01*
X105079000Y-74890285D02*
X105031380Y-74795047D01*
X105031380Y-74795047D02*
X105031380Y-74556952D01*
X105031380Y-74556952D02*
X105079000Y-74461714D01*
X105079000Y-74461714D02*
X105126619Y-74414095D01*
X105126619Y-74414095D02*
X105221857Y-74366476D01*
X105221857Y-74366476D02*
X105317095Y-74366476D01*
X105317095Y-74366476D02*
X105459952Y-74414095D01*
X105459952Y-74414095D02*
X106031380Y-74985523D01*
X106031380Y-74985523D02*
X106031380Y-74366476D01*
X105031380Y-74033142D02*
X105031380Y-73414095D01*
X105031380Y-73414095D02*
X105412333Y-73747428D01*
X105412333Y-73747428D02*
X105412333Y-73604571D01*
X105412333Y-73604571D02*
X105459952Y-73509333D01*
X105459952Y-73509333D02*
X105507571Y-73461714D01*
X105507571Y-73461714D02*
X105602809Y-73414095D01*
X105602809Y-73414095D02*
X105840904Y-73414095D01*
X105840904Y-73414095D02*
X105936142Y-73461714D01*
X105936142Y-73461714D02*
X105983761Y-73509333D01*
X105983761Y-73509333D02*
X106031380Y-73604571D01*
X106031380Y-73604571D02*
X106031380Y-73890285D01*
X106031380Y-73890285D02*
X105983761Y-73985523D01*
X105983761Y-73985523D02*
X105936142Y-74033142D01*
%TO.C,Y1*%
X44991190Y-68826190D02*
X45467380Y-68826190D01*
X44467380Y-69159523D02*
X44991190Y-68826190D01*
X44991190Y-68826190D02*
X44467380Y-68492857D01*
X45467380Y-67635714D02*
X45467380Y-68207142D01*
X45467380Y-67921428D02*
X44467380Y-67921428D01*
X44467380Y-67921428D02*
X44610238Y-68016666D01*
X44610238Y-68016666D02*
X44705476Y-68111904D01*
X44705476Y-68111904D02*
X44753095Y-68207142D01*
%TO.C,D4*%
X107301380Y-62460094D02*
X106301380Y-62460094D01*
X106301380Y-62460094D02*
X106301380Y-62221999D01*
X106301380Y-62221999D02*
X106349000Y-62079142D01*
X106349000Y-62079142D02*
X106444238Y-61983904D01*
X106444238Y-61983904D02*
X106539476Y-61936285D01*
X106539476Y-61936285D02*
X106729952Y-61888666D01*
X106729952Y-61888666D02*
X106872809Y-61888666D01*
X106872809Y-61888666D02*
X107063285Y-61936285D01*
X107063285Y-61936285D02*
X107158523Y-61983904D01*
X107158523Y-61983904D02*
X107253761Y-62079142D01*
X107253761Y-62079142D02*
X107301380Y-62221999D01*
X107301380Y-62221999D02*
X107301380Y-62460094D01*
X106634714Y-61031523D02*
X107301380Y-61031523D01*
X106253761Y-61269618D02*
X106968047Y-61507713D01*
X106968047Y-61507713D02*
X106968047Y-60888666D01*
%TO.C,R18*%
X120917380Y-69730857D02*
X120441190Y-70064190D01*
X120917380Y-70302285D02*
X119917380Y-70302285D01*
X119917380Y-70302285D02*
X119917380Y-69921333D01*
X119917380Y-69921333D02*
X119965000Y-69826095D01*
X119965000Y-69826095D02*
X120012619Y-69778476D01*
X120012619Y-69778476D02*
X120107857Y-69730857D01*
X120107857Y-69730857D02*
X120250714Y-69730857D01*
X120250714Y-69730857D02*
X120345952Y-69778476D01*
X120345952Y-69778476D02*
X120393571Y-69826095D01*
X120393571Y-69826095D02*
X120441190Y-69921333D01*
X120441190Y-69921333D02*
X120441190Y-70302285D01*
X120917380Y-68778476D02*
X120917380Y-69349904D01*
X120917380Y-69064190D02*
X119917380Y-69064190D01*
X119917380Y-69064190D02*
X120060238Y-69159428D01*
X120060238Y-69159428D02*
X120155476Y-69254666D01*
X120155476Y-69254666D02*
X120203095Y-69349904D01*
X120345952Y-68207047D02*
X120298333Y-68302285D01*
X120298333Y-68302285D02*
X120250714Y-68349904D01*
X120250714Y-68349904D02*
X120155476Y-68397523D01*
X120155476Y-68397523D02*
X120107857Y-68397523D01*
X120107857Y-68397523D02*
X120012619Y-68349904D01*
X120012619Y-68349904D02*
X119965000Y-68302285D01*
X119965000Y-68302285D02*
X119917380Y-68207047D01*
X119917380Y-68207047D02*
X119917380Y-68016571D01*
X119917380Y-68016571D02*
X119965000Y-67921333D01*
X119965000Y-67921333D02*
X120012619Y-67873714D01*
X120012619Y-67873714D02*
X120107857Y-67826095D01*
X120107857Y-67826095D02*
X120155476Y-67826095D01*
X120155476Y-67826095D02*
X120250714Y-67873714D01*
X120250714Y-67873714D02*
X120298333Y-67921333D01*
X120298333Y-67921333D02*
X120345952Y-68016571D01*
X120345952Y-68016571D02*
X120345952Y-68207047D01*
X120345952Y-68207047D02*
X120393571Y-68302285D01*
X120393571Y-68302285D02*
X120441190Y-68349904D01*
X120441190Y-68349904D02*
X120536428Y-68397523D01*
X120536428Y-68397523D02*
X120726904Y-68397523D01*
X120726904Y-68397523D02*
X120822142Y-68349904D01*
X120822142Y-68349904D02*
X120869761Y-68302285D01*
X120869761Y-68302285D02*
X120917380Y-68207047D01*
X120917380Y-68207047D02*
X120917380Y-68016571D01*
X120917380Y-68016571D02*
X120869761Y-67921333D01*
X120869761Y-67921333D02*
X120822142Y-67873714D01*
X120822142Y-67873714D02*
X120726904Y-67826095D01*
X120726904Y-67826095D02*
X120536428Y-67826095D01*
X120536428Y-67826095D02*
X120441190Y-67873714D01*
X120441190Y-67873714D02*
X120393571Y-67921333D01*
X120393571Y-67921333D02*
X120345952Y-68016571D01*
%TO.C,R5*%
X38008333Y-82467380D02*
X37675000Y-81991190D01*
X37436905Y-82467380D02*
X37436905Y-81467380D01*
X37436905Y-81467380D02*
X37817857Y-81467380D01*
X37817857Y-81467380D02*
X37913095Y-81515000D01*
X37913095Y-81515000D02*
X37960714Y-81562619D01*
X37960714Y-81562619D02*
X38008333Y-81657857D01*
X38008333Y-81657857D02*
X38008333Y-81800714D01*
X38008333Y-81800714D02*
X37960714Y-81895952D01*
X37960714Y-81895952D02*
X37913095Y-81943571D01*
X37913095Y-81943571D02*
X37817857Y-81991190D01*
X37817857Y-81991190D02*
X37436905Y-81991190D01*
X38913095Y-81467380D02*
X38436905Y-81467380D01*
X38436905Y-81467380D02*
X38389286Y-81943571D01*
X38389286Y-81943571D02*
X38436905Y-81895952D01*
X38436905Y-81895952D02*
X38532143Y-81848333D01*
X38532143Y-81848333D02*
X38770238Y-81848333D01*
X38770238Y-81848333D02*
X38865476Y-81895952D01*
X38865476Y-81895952D02*
X38913095Y-81943571D01*
X38913095Y-81943571D02*
X38960714Y-82038809D01*
X38960714Y-82038809D02*
X38960714Y-82276904D01*
X38960714Y-82276904D02*
X38913095Y-82372142D01*
X38913095Y-82372142D02*
X38865476Y-82419761D01*
X38865476Y-82419761D02*
X38770238Y-82467380D01*
X38770238Y-82467380D02*
X38532143Y-82467380D01*
X38532143Y-82467380D02*
X38436905Y-82419761D01*
X38436905Y-82419761D02*
X38389286Y-82372142D01*
%TO.C,R19*%
X118985380Y-73286857D02*
X118509190Y-73620190D01*
X118985380Y-73858285D02*
X117985380Y-73858285D01*
X117985380Y-73858285D02*
X117985380Y-73477333D01*
X117985380Y-73477333D02*
X118033000Y-73382095D01*
X118033000Y-73382095D02*
X118080619Y-73334476D01*
X118080619Y-73334476D02*
X118175857Y-73286857D01*
X118175857Y-73286857D02*
X118318714Y-73286857D01*
X118318714Y-73286857D02*
X118413952Y-73334476D01*
X118413952Y-73334476D02*
X118461571Y-73382095D01*
X118461571Y-73382095D02*
X118509190Y-73477333D01*
X118509190Y-73477333D02*
X118509190Y-73858285D01*
X118985380Y-72334476D02*
X118985380Y-72905904D01*
X118985380Y-72620190D02*
X117985380Y-72620190D01*
X117985380Y-72620190D02*
X118128238Y-72715428D01*
X118128238Y-72715428D02*
X118223476Y-72810666D01*
X118223476Y-72810666D02*
X118271095Y-72905904D01*
X118985380Y-71858285D02*
X118985380Y-71667809D01*
X118985380Y-71667809D02*
X118937761Y-71572571D01*
X118937761Y-71572571D02*
X118890142Y-71524952D01*
X118890142Y-71524952D02*
X118747285Y-71429714D01*
X118747285Y-71429714D02*
X118556809Y-71382095D01*
X118556809Y-71382095D02*
X118175857Y-71382095D01*
X118175857Y-71382095D02*
X118080619Y-71429714D01*
X118080619Y-71429714D02*
X118033000Y-71477333D01*
X118033000Y-71477333D02*
X117985380Y-71572571D01*
X117985380Y-71572571D02*
X117985380Y-71763047D01*
X117985380Y-71763047D02*
X118033000Y-71858285D01*
X118033000Y-71858285D02*
X118080619Y-71905904D01*
X118080619Y-71905904D02*
X118175857Y-71953523D01*
X118175857Y-71953523D02*
X118413952Y-71953523D01*
X118413952Y-71953523D02*
X118509190Y-71905904D01*
X118509190Y-71905904D02*
X118556809Y-71858285D01*
X118556809Y-71858285D02*
X118604428Y-71763047D01*
X118604428Y-71763047D02*
X118604428Y-71572571D01*
X118604428Y-71572571D02*
X118556809Y-71477333D01*
X118556809Y-71477333D02*
X118509190Y-71429714D01*
X118509190Y-71429714D02*
X118413952Y-71382095D01*
%TO.C,R9*%
X52892380Y-65426666D02*
X52416190Y-65759999D01*
X52892380Y-65998094D02*
X51892380Y-65998094D01*
X51892380Y-65998094D02*
X51892380Y-65617142D01*
X51892380Y-65617142D02*
X51940000Y-65521904D01*
X51940000Y-65521904D02*
X51987619Y-65474285D01*
X51987619Y-65474285D02*
X52082857Y-65426666D01*
X52082857Y-65426666D02*
X52225714Y-65426666D01*
X52225714Y-65426666D02*
X52320952Y-65474285D01*
X52320952Y-65474285D02*
X52368571Y-65521904D01*
X52368571Y-65521904D02*
X52416190Y-65617142D01*
X52416190Y-65617142D02*
X52416190Y-65998094D01*
X52892380Y-64950475D02*
X52892380Y-64759999D01*
X52892380Y-64759999D02*
X52844761Y-64664761D01*
X52844761Y-64664761D02*
X52797142Y-64617142D01*
X52797142Y-64617142D02*
X52654285Y-64521904D01*
X52654285Y-64521904D02*
X52463809Y-64474285D01*
X52463809Y-64474285D02*
X52082857Y-64474285D01*
X52082857Y-64474285D02*
X51987619Y-64521904D01*
X51987619Y-64521904D02*
X51940000Y-64569523D01*
X51940000Y-64569523D02*
X51892380Y-64664761D01*
X51892380Y-64664761D02*
X51892380Y-64855237D01*
X51892380Y-64855237D02*
X51940000Y-64950475D01*
X51940000Y-64950475D02*
X51987619Y-64998094D01*
X51987619Y-64998094D02*
X52082857Y-65045713D01*
X52082857Y-65045713D02*
X52320952Y-65045713D01*
X52320952Y-65045713D02*
X52416190Y-64998094D01*
X52416190Y-64998094D02*
X52463809Y-64950475D01*
X52463809Y-64950475D02*
X52511428Y-64855237D01*
X52511428Y-64855237D02*
X52511428Y-64664761D01*
X52511428Y-64664761D02*
X52463809Y-64569523D01*
X52463809Y-64569523D02*
X52416190Y-64521904D01*
X52416190Y-64521904D02*
X52320952Y-64474285D01*
%TO.C,R17*%
X117467142Y-67523380D02*
X117133809Y-67047190D01*
X116895714Y-67523380D02*
X116895714Y-66523380D01*
X116895714Y-66523380D02*
X117276666Y-66523380D01*
X117276666Y-66523380D02*
X117371904Y-66571000D01*
X117371904Y-66571000D02*
X117419523Y-66618619D01*
X117419523Y-66618619D02*
X117467142Y-66713857D01*
X117467142Y-66713857D02*
X117467142Y-66856714D01*
X117467142Y-66856714D02*
X117419523Y-66951952D01*
X117419523Y-66951952D02*
X117371904Y-66999571D01*
X117371904Y-66999571D02*
X117276666Y-67047190D01*
X117276666Y-67047190D02*
X116895714Y-67047190D01*
X118419523Y-67523380D02*
X117848095Y-67523380D01*
X118133809Y-67523380D02*
X118133809Y-66523380D01*
X118133809Y-66523380D02*
X118038571Y-66666238D01*
X118038571Y-66666238D02*
X117943333Y-66761476D01*
X117943333Y-66761476D02*
X117848095Y-66809095D01*
X118752857Y-66523380D02*
X119419523Y-66523380D01*
X119419523Y-66523380D02*
X118990952Y-67523380D01*
%TO.C,C12*%
X27097142Y-68692857D02*
X27144761Y-68740476D01*
X27144761Y-68740476D02*
X27192380Y-68883333D01*
X27192380Y-68883333D02*
X27192380Y-68978571D01*
X27192380Y-68978571D02*
X27144761Y-69121428D01*
X27144761Y-69121428D02*
X27049523Y-69216666D01*
X27049523Y-69216666D02*
X26954285Y-69264285D01*
X26954285Y-69264285D02*
X26763809Y-69311904D01*
X26763809Y-69311904D02*
X26620952Y-69311904D01*
X26620952Y-69311904D02*
X26430476Y-69264285D01*
X26430476Y-69264285D02*
X26335238Y-69216666D01*
X26335238Y-69216666D02*
X26240000Y-69121428D01*
X26240000Y-69121428D02*
X26192380Y-68978571D01*
X26192380Y-68978571D02*
X26192380Y-68883333D01*
X26192380Y-68883333D02*
X26240000Y-68740476D01*
X26240000Y-68740476D02*
X26287619Y-68692857D01*
X27192380Y-67740476D02*
X27192380Y-68311904D01*
X27192380Y-68026190D02*
X26192380Y-68026190D01*
X26192380Y-68026190D02*
X26335238Y-68121428D01*
X26335238Y-68121428D02*
X26430476Y-68216666D01*
X26430476Y-68216666D02*
X26478095Y-68311904D01*
X26287619Y-67359523D02*
X26240000Y-67311904D01*
X26240000Y-67311904D02*
X26192380Y-67216666D01*
X26192380Y-67216666D02*
X26192380Y-66978571D01*
X26192380Y-66978571D02*
X26240000Y-66883333D01*
X26240000Y-66883333D02*
X26287619Y-66835714D01*
X26287619Y-66835714D02*
X26382857Y-66788095D01*
X26382857Y-66788095D02*
X26478095Y-66788095D01*
X26478095Y-66788095D02*
X26620952Y-66835714D01*
X26620952Y-66835714D02*
X27192380Y-67407142D01*
X27192380Y-67407142D02*
X27192380Y-66788095D01*
%TO.C,D3*%
X110259905Y-79107380D02*
X110259905Y-78107380D01*
X110259905Y-78107380D02*
X110498000Y-78107380D01*
X110498000Y-78107380D02*
X110640857Y-78155000D01*
X110640857Y-78155000D02*
X110736095Y-78250238D01*
X110736095Y-78250238D02*
X110783714Y-78345476D01*
X110783714Y-78345476D02*
X110831333Y-78535952D01*
X110831333Y-78535952D02*
X110831333Y-78678809D01*
X110831333Y-78678809D02*
X110783714Y-78869285D01*
X110783714Y-78869285D02*
X110736095Y-78964523D01*
X110736095Y-78964523D02*
X110640857Y-79059761D01*
X110640857Y-79059761D02*
X110498000Y-79107380D01*
X110498000Y-79107380D02*
X110259905Y-79107380D01*
X111164667Y-78107380D02*
X111783714Y-78107380D01*
X111783714Y-78107380D02*
X111450381Y-78488333D01*
X111450381Y-78488333D02*
X111593238Y-78488333D01*
X111593238Y-78488333D02*
X111688476Y-78535952D01*
X111688476Y-78535952D02*
X111736095Y-78583571D01*
X111736095Y-78583571D02*
X111783714Y-78678809D01*
X111783714Y-78678809D02*
X111783714Y-78916904D01*
X111783714Y-78916904D02*
X111736095Y-79012142D01*
X111736095Y-79012142D02*
X111688476Y-79059761D01*
X111688476Y-79059761D02*
X111593238Y-79107380D01*
X111593238Y-79107380D02*
X111307524Y-79107380D01*
X111307524Y-79107380D02*
X111212286Y-79059761D01*
X111212286Y-79059761D02*
X111164667Y-79012142D01*
%TO.C,D1*%
X42261905Y-84417380D02*
X42261905Y-83417380D01*
X42261905Y-83417380D02*
X42500000Y-83417380D01*
X42500000Y-83417380D02*
X42642857Y-83465000D01*
X42642857Y-83465000D02*
X42738095Y-83560238D01*
X42738095Y-83560238D02*
X42785714Y-83655476D01*
X42785714Y-83655476D02*
X42833333Y-83845952D01*
X42833333Y-83845952D02*
X42833333Y-83988809D01*
X42833333Y-83988809D02*
X42785714Y-84179285D01*
X42785714Y-84179285D02*
X42738095Y-84274523D01*
X42738095Y-84274523D02*
X42642857Y-84369761D01*
X42642857Y-84369761D02*
X42500000Y-84417380D01*
X42500000Y-84417380D02*
X42261905Y-84417380D01*
X43785714Y-84417380D02*
X43214286Y-84417380D01*
X43500000Y-84417380D02*
X43500000Y-83417380D01*
X43500000Y-83417380D02*
X43404762Y-83560238D01*
X43404762Y-83560238D02*
X43309524Y-83655476D01*
X43309524Y-83655476D02*
X43214286Y-83703095D01*
%TO.C,R24*%
X103707142Y-66442380D02*
X103373809Y-65966190D01*
X103135714Y-66442380D02*
X103135714Y-65442380D01*
X103135714Y-65442380D02*
X103516666Y-65442380D01*
X103516666Y-65442380D02*
X103611904Y-65490000D01*
X103611904Y-65490000D02*
X103659523Y-65537619D01*
X103659523Y-65537619D02*
X103707142Y-65632857D01*
X103707142Y-65632857D02*
X103707142Y-65775714D01*
X103707142Y-65775714D02*
X103659523Y-65870952D01*
X103659523Y-65870952D02*
X103611904Y-65918571D01*
X103611904Y-65918571D02*
X103516666Y-65966190D01*
X103516666Y-65966190D02*
X103135714Y-65966190D01*
X104088095Y-65537619D02*
X104135714Y-65490000D01*
X104135714Y-65490000D02*
X104230952Y-65442380D01*
X104230952Y-65442380D02*
X104469047Y-65442380D01*
X104469047Y-65442380D02*
X104564285Y-65490000D01*
X104564285Y-65490000D02*
X104611904Y-65537619D01*
X104611904Y-65537619D02*
X104659523Y-65632857D01*
X104659523Y-65632857D02*
X104659523Y-65728095D01*
X104659523Y-65728095D02*
X104611904Y-65870952D01*
X104611904Y-65870952D02*
X104040476Y-66442380D01*
X104040476Y-66442380D02*
X104659523Y-66442380D01*
X105516666Y-65775714D02*
X105516666Y-66442380D01*
X105278571Y-65394761D02*
X105040476Y-66109047D01*
X105040476Y-66109047D02*
X105659523Y-66109047D01*
%TO.C,U3*%
X29951380Y-76361904D02*
X30760904Y-76361904D01*
X30760904Y-76361904D02*
X30856142Y-76314285D01*
X30856142Y-76314285D02*
X30903761Y-76266666D01*
X30903761Y-76266666D02*
X30951380Y-76171428D01*
X30951380Y-76171428D02*
X30951380Y-75980952D01*
X30951380Y-75980952D02*
X30903761Y-75885714D01*
X30903761Y-75885714D02*
X30856142Y-75838095D01*
X30856142Y-75838095D02*
X30760904Y-75790476D01*
X30760904Y-75790476D02*
X29951380Y-75790476D01*
X29951380Y-75409523D02*
X29951380Y-74790476D01*
X29951380Y-74790476D02*
X30332333Y-75123809D01*
X30332333Y-75123809D02*
X30332333Y-74980952D01*
X30332333Y-74980952D02*
X30379952Y-74885714D01*
X30379952Y-74885714D02*
X30427571Y-74838095D01*
X30427571Y-74838095D02*
X30522809Y-74790476D01*
X30522809Y-74790476D02*
X30760904Y-74790476D01*
X30760904Y-74790476D02*
X30856142Y-74838095D01*
X30856142Y-74838095D02*
X30903761Y-74885714D01*
X30903761Y-74885714D02*
X30951380Y-74980952D01*
X30951380Y-74980952D02*
X30951380Y-75266666D01*
X30951380Y-75266666D02*
X30903761Y-75361904D01*
X30903761Y-75361904D02*
X30856142Y-75409523D01*
%TO.C,C7*%
X35572142Y-73316666D02*
X35619761Y-73364285D01*
X35619761Y-73364285D02*
X35667380Y-73507142D01*
X35667380Y-73507142D02*
X35667380Y-73602380D01*
X35667380Y-73602380D02*
X35619761Y-73745237D01*
X35619761Y-73745237D02*
X35524523Y-73840475D01*
X35524523Y-73840475D02*
X35429285Y-73888094D01*
X35429285Y-73888094D02*
X35238809Y-73935713D01*
X35238809Y-73935713D02*
X35095952Y-73935713D01*
X35095952Y-73935713D02*
X34905476Y-73888094D01*
X34905476Y-73888094D02*
X34810238Y-73840475D01*
X34810238Y-73840475D02*
X34715000Y-73745237D01*
X34715000Y-73745237D02*
X34667380Y-73602380D01*
X34667380Y-73602380D02*
X34667380Y-73507142D01*
X34667380Y-73507142D02*
X34715000Y-73364285D01*
X34715000Y-73364285D02*
X34762619Y-73316666D01*
X34667380Y-72983332D02*
X34667380Y-72316666D01*
X34667380Y-72316666D02*
X35667380Y-72745237D01*
%TO.C,C1*%
X35597142Y-65216666D02*
X35644761Y-65264285D01*
X35644761Y-65264285D02*
X35692380Y-65407142D01*
X35692380Y-65407142D02*
X35692380Y-65502380D01*
X35692380Y-65502380D02*
X35644761Y-65645237D01*
X35644761Y-65645237D02*
X35549523Y-65740475D01*
X35549523Y-65740475D02*
X35454285Y-65788094D01*
X35454285Y-65788094D02*
X35263809Y-65835713D01*
X35263809Y-65835713D02*
X35120952Y-65835713D01*
X35120952Y-65835713D02*
X34930476Y-65788094D01*
X34930476Y-65788094D02*
X34835238Y-65740475D01*
X34835238Y-65740475D02*
X34740000Y-65645237D01*
X34740000Y-65645237D02*
X34692380Y-65502380D01*
X34692380Y-65502380D02*
X34692380Y-65407142D01*
X34692380Y-65407142D02*
X34740000Y-65264285D01*
X34740000Y-65264285D02*
X34787619Y-65216666D01*
X35692380Y-64264285D02*
X35692380Y-64835713D01*
X35692380Y-64549999D02*
X34692380Y-64549999D01*
X34692380Y-64549999D02*
X34835238Y-64645237D01*
X34835238Y-64645237D02*
X34930476Y-64740475D01*
X34930476Y-64740475D02*
X34978095Y-64835713D01*
%TO.C,R2*%
X34567380Y-69866666D02*
X34091190Y-70199999D01*
X34567380Y-70438094D02*
X33567380Y-70438094D01*
X33567380Y-70438094D02*
X33567380Y-70057142D01*
X33567380Y-70057142D02*
X33615000Y-69961904D01*
X33615000Y-69961904D02*
X33662619Y-69914285D01*
X33662619Y-69914285D02*
X33757857Y-69866666D01*
X33757857Y-69866666D02*
X33900714Y-69866666D01*
X33900714Y-69866666D02*
X33995952Y-69914285D01*
X33995952Y-69914285D02*
X34043571Y-69961904D01*
X34043571Y-69961904D02*
X34091190Y-70057142D01*
X34091190Y-70057142D02*
X34091190Y-70438094D01*
X33662619Y-69485713D02*
X33615000Y-69438094D01*
X33615000Y-69438094D02*
X33567380Y-69342856D01*
X33567380Y-69342856D02*
X33567380Y-69104761D01*
X33567380Y-69104761D02*
X33615000Y-69009523D01*
X33615000Y-69009523D02*
X33662619Y-68961904D01*
X33662619Y-68961904D02*
X33757857Y-68914285D01*
X33757857Y-68914285D02*
X33853095Y-68914285D01*
X33853095Y-68914285D02*
X33995952Y-68961904D01*
X33995952Y-68961904D02*
X34567380Y-69533332D01*
X34567380Y-69533332D02*
X34567380Y-68914285D01*
%TO.C,R21*%
X110355142Y-74535380D02*
X110021809Y-74059190D01*
X109783714Y-74535380D02*
X109783714Y-73535380D01*
X109783714Y-73535380D02*
X110164666Y-73535380D01*
X110164666Y-73535380D02*
X110259904Y-73583000D01*
X110259904Y-73583000D02*
X110307523Y-73630619D01*
X110307523Y-73630619D02*
X110355142Y-73725857D01*
X110355142Y-73725857D02*
X110355142Y-73868714D01*
X110355142Y-73868714D02*
X110307523Y-73963952D01*
X110307523Y-73963952D02*
X110259904Y-74011571D01*
X110259904Y-74011571D02*
X110164666Y-74059190D01*
X110164666Y-74059190D02*
X109783714Y-74059190D01*
X110736095Y-73630619D02*
X110783714Y-73583000D01*
X110783714Y-73583000D02*
X110878952Y-73535380D01*
X110878952Y-73535380D02*
X111117047Y-73535380D01*
X111117047Y-73535380D02*
X111212285Y-73583000D01*
X111212285Y-73583000D02*
X111259904Y-73630619D01*
X111259904Y-73630619D02*
X111307523Y-73725857D01*
X111307523Y-73725857D02*
X111307523Y-73821095D01*
X111307523Y-73821095D02*
X111259904Y-73963952D01*
X111259904Y-73963952D02*
X110688476Y-74535380D01*
X110688476Y-74535380D02*
X111307523Y-74535380D01*
X112259904Y-74535380D02*
X111688476Y-74535380D01*
X111974190Y-74535380D02*
X111974190Y-73535380D01*
X111974190Y-73535380D02*
X111878952Y-73678238D01*
X111878952Y-73678238D02*
X111783714Y-73773476D01*
X111783714Y-73773476D02*
X111688476Y-73821095D01*
%TO.C,R11*%
X38832142Y-62092380D02*
X38498809Y-61616190D01*
X38260714Y-62092380D02*
X38260714Y-61092380D01*
X38260714Y-61092380D02*
X38641666Y-61092380D01*
X38641666Y-61092380D02*
X38736904Y-61140000D01*
X38736904Y-61140000D02*
X38784523Y-61187619D01*
X38784523Y-61187619D02*
X38832142Y-61282857D01*
X38832142Y-61282857D02*
X38832142Y-61425714D01*
X38832142Y-61425714D02*
X38784523Y-61520952D01*
X38784523Y-61520952D02*
X38736904Y-61568571D01*
X38736904Y-61568571D02*
X38641666Y-61616190D01*
X38641666Y-61616190D02*
X38260714Y-61616190D01*
X39784523Y-62092380D02*
X39213095Y-62092380D01*
X39498809Y-62092380D02*
X39498809Y-61092380D01*
X39498809Y-61092380D02*
X39403571Y-61235238D01*
X39403571Y-61235238D02*
X39308333Y-61330476D01*
X39308333Y-61330476D02*
X39213095Y-61378095D01*
X40736904Y-62092380D02*
X40165476Y-62092380D01*
X40451190Y-62092380D02*
X40451190Y-61092380D01*
X40451190Y-61092380D02*
X40355952Y-61235238D01*
X40355952Y-61235238D02*
X40260714Y-61330476D01*
X40260714Y-61330476D02*
X40165476Y-61378095D01*
%TO.C,R4*%
X33467380Y-84666666D02*
X32991190Y-84999999D01*
X33467380Y-85238094D02*
X32467380Y-85238094D01*
X32467380Y-85238094D02*
X32467380Y-84857142D01*
X32467380Y-84857142D02*
X32515000Y-84761904D01*
X32515000Y-84761904D02*
X32562619Y-84714285D01*
X32562619Y-84714285D02*
X32657857Y-84666666D01*
X32657857Y-84666666D02*
X32800714Y-84666666D01*
X32800714Y-84666666D02*
X32895952Y-84714285D01*
X32895952Y-84714285D02*
X32943571Y-84761904D01*
X32943571Y-84761904D02*
X32991190Y-84857142D01*
X32991190Y-84857142D02*
X32991190Y-85238094D01*
X32800714Y-83809523D02*
X33467380Y-83809523D01*
X32419761Y-84047618D02*
X33134047Y-84285713D01*
X33134047Y-84285713D02*
X33134047Y-83666666D01*
%TO.C,R13*%
X88003142Y-67423380D02*
X87669809Y-66947190D01*
X87431714Y-67423380D02*
X87431714Y-66423380D01*
X87431714Y-66423380D02*
X87812666Y-66423380D01*
X87812666Y-66423380D02*
X87907904Y-66471000D01*
X87907904Y-66471000D02*
X87955523Y-66518619D01*
X87955523Y-66518619D02*
X88003142Y-66613857D01*
X88003142Y-66613857D02*
X88003142Y-66756714D01*
X88003142Y-66756714D02*
X87955523Y-66851952D01*
X87955523Y-66851952D02*
X87907904Y-66899571D01*
X87907904Y-66899571D02*
X87812666Y-66947190D01*
X87812666Y-66947190D02*
X87431714Y-66947190D01*
X88955523Y-67423380D02*
X88384095Y-67423380D01*
X88669809Y-67423380D02*
X88669809Y-66423380D01*
X88669809Y-66423380D02*
X88574571Y-66566238D01*
X88574571Y-66566238D02*
X88479333Y-66661476D01*
X88479333Y-66661476D02*
X88384095Y-66709095D01*
X89288857Y-66423380D02*
X89907904Y-66423380D01*
X89907904Y-66423380D02*
X89574571Y-66804333D01*
X89574571Y-66804333D02*
X89717428Y-66804333D01*
X89717428Y-66804333D02*
X89812666Y-66851952D01*
X89812666Y-66851952D02*
X89860285Y-66899571D01*
X89860285Y-66899571D02*
X89907904Y-66994809D01*
X89907904Y-66994809D02*
X89907904Y-67232904D01*
X89907904Y-67232904D02*
X89860285Y-67328142D01*
X89860285Y-67328142D02*
X89812666Y-67375761D01*
X89812666Y-67375761D02*
X89717428Y-67423380D01*
X89717428Y-67423380D02*
X89431714Y-67423380D01*
X89431714Y-67423380D02*
X89336476Y-67375761D01*
X89336476Y-67375761D02*
X89288857Y-67328142D01*
%TO.C,C3*%
X29158333Y-70147142D02*
X29110714Y-70194761D01*
X29110714Y-70194761D02*
X28967857Y-70242380D01*
X28967857Y-70242380D02*
X28872619Y-70242380D01*
X28872619Y-70242380D02*
X28729762Y-70194761D01*
X28729762Y-70194761D02*
X28634524Y-70099523D01*
X28634524Y-70099523D02*
X28586905Y-70004285D01*
X28586905Y-70004285D02*
X28539286Y-69813809D01*
X28539286Y-69813809D02*
X28539286Y-69670952D01*
X28539286Y-69670952D02*
X28586905Y-69480476D01*
X28586905Y-69480476D02*
X28634524Y-69385238D01*
X28634524Y-69385238D02*
X28729762Y-69290000D01*
X28729762Y-69290000D02*
X28872619Y-69242380D01*
X28872619Y-69242380D02*
X28967857Y-69242380D01*
X28967857Y-69242380D02*
X29110714Y-69290000D01*
X29110714Y-69290000D02*
X29158333Y-69337619D01*
X29491667Y-69242380D02*
X30110714Y-69242380D01*
X30110714Y-69242380D02*
X29777381Y-69623333D01*
X29777381Y-69623333D02*
X29920238Y-69623333D01*
X29920238Y-69623333D02*
X30015476Y-69670952D01*
X30015476Y-69670952D02*
X30063095Y-69718571D01*
X30063095Y-69718571D02*
X30110714Y-69813809D01*
X30110714Y-69813809D02*
X30110714Y-70051904D01*
X30110714Y-70051904D02*
X30063095Y-70147142D01*
X30063095Y-70147142D02*
X30015476Y-70194761D01*
X30015476Y-70194761D02*
X29920238Y-70242380D01*
X29920238Y-70242380D02*
X29634524Y-70242380D01*
X29634524Y-70242380D02*
X29539286Y-70194761D01*
X29539286Y-70194761D02*
X29491667Y-70147142D01*
%TO.C,R20*%
X120509380Y-72778857D02*
X120033190Y-73112190D01*
X120509380Y-73350285D02*
X119509380Y-73350285D01*
X119509380Y-73350285D02*
X119509380Y-72969333D01*
X119509380Y-72969333D02*
X119557000Y-72874095D01*
X119557000Y-72874095D02*
X119604619Y-72826476D01*
X119604619Y-72826476D02*
X119699857Y-72778857D01*
X119699857Y-72778857D02*
X119842714Y-72778857D01*
X119842714Y-72778857D02*
X119937952Y-72826476D01*
X119937952Y-72826476D02*
X119985571Y-72874095D01*
X119985571Y-72874095D02*
X120033190Y-72969333D01*
X120033190Y-72969333D02*
X120033190Y-73350285D01*
X119604619Y-72397904D02*
X119557000Y-72350285D01*
X119557000Y-72350285D02*
X119509380Y-72255047D01*
X119509380Y-72255047D02*
X119509380Y-72016952D01*
X119509380Y-72016952D02*
X119557000Y-71921714D01*
X119557000Y-71921714D02*
X119604619Y-71874095D01*
X119604619Y-71874095D02*
X119699857Y-71826476D01*
X119699857Y-71826476D02*
X119795095Y-71826476D01*
X119795095Y-71826476D02*
X119937952Y-71874095D01*
X119937952Y-71874095D02*
X120509380Y-72445523D01*
X120509380Y-72445523D02*
X120509380Y-71826476D01*
X119509380Y-71207428D02*
X119509380Y-71112190D01*
X119509380Y-71112190D02*
X119557000Y-71016952D01*
X119557000Y-71016952D02*
X119604619Y-70969333D01*
X119604619Y-70969333D02*
X119699857Y-70921714D01*
X119699857Y-70921714D02*
X119890333Y-70874095D01*
X119890333Y-70874095D02*
X120128428Y-70874095D01*
X120128428Y-70874095D02*
X120318904Y-70921714D01*
X120318904Y-70921714D02*
X120414142Y-70969333D01*
X120414142Y-70969333D02*
X120461761Y-71016952D01*
X120461761Y-71016952D02*
X120509380Y-71112190D01*
X120509380Y-71112190D02*
X120509380Y-71207428D01*
X120509380Y-71207428D02*
X120461761Y-71302666D01*
X120461761Y-71302666D02*
X120414142Y-71350285D01*
X120414142Y-71350285D02*
X120318904Y-71397904D01*
X120318904Y-71397904D02*
X120128428Y-71445523D01*
X120128428Y-71445523D02*
X119890333Y-71445523D01*
X119890333Y-71445523D02*
X119699857Y-71397904D01*
X119699857Y-71397904D02*
X119604619Y-71350285D01*
X119604619Y-71350285D02*
X119557000Y-71302666D01*
X119557000Y-71302666D02*
X119509380Y-71207428D01*
%TO.C,C9*%
X39172142Y-76620666D02*
X39219761Y-76668285D01*
X39219761Y-76668285D02*
X39267380Y-76811142D01*
X39267380Y-76811142D02*
X39267380Y-76906380D01*
X39267380Y-76906380D02*
X39219761Y-77049237D01*
X39219761Y-77049237D02*
X39124523Y-77144475D01*
X39124523Y-77144475D02*
X39029285Y-77192094D01*
X39029285Y-77192094D02*
X38838809Y-77239713D01*
X38838809Y-77239713D02*
X38695952Y-77239713D01*
X38695952Y-77239713D02*
X38505476Y-77192094D01*
X38505476Y-77192094D02*
X38410238Y-77144475D01*
X38410238Y-77144475D02*
X38315000Y-77049237D01*
X38315000Y-77049237D02*
X38267380Y-76906380D01*
X38267380Y-76906380D02*
X38267380Y-76811142D01*
X38267380Y-76811142D02*
X38315000Y-76668285D01*
X38315000Y-76668285D02*
X38362619Y-76620666D01*
X39267380Y-76144475D02*
X39267380Y-75953999D01*
X39267380Y-75953999D02*
X39219761Y-75858761D01*
X39219761Y-75858761D02*
X39172142Y-75811142D01*
X39172142Y-75811142D02*
X39029285Y-75715904D01*
X39029285Y-75715904D02*
X38838809Y-75668285D01*
X38838809Y-75668285D02*
X38457857Y-75668285D01*
X38457857Y-75668285D02*
X38362619Y-75715904D01*
X38362619Y-75715904D02*
X38315000Y-75763523D01*
X38315000Y-75763523D02*
X38267380Y-75858761D01*
X38267380Y-75858761D02*
X38267380Y-76049237D01*
X38267380Y-76049237D02*
X38315000Y-76144475D01*
X38315000Y-76144475D02*
X38362619Y-76192094D01*
X38362619Y-76192094D02*
X38457857Y-76239713D01*
X38457857Y-76239713D02*
X38695952Y-76239713D01*
X38695952Y-76239713D02*
X38791190Y-76192094D01*
X38791190Y-76192094D02*
X38838809Y-76144475D01*
X38838809Y-76144475D02*
X38886428Y-76049237D01*
X38886428Y-76049237D02*
X38886428Y-75858761D01*
X38886428Y-75858761D02*
X38838809Y-75763523D01*
X38838809Y-75763523D02*
X38791190Y-75715904D01*
X38791190Y-75715904D02*
X38695952Y-75668285D01*
%TO.C,C13*%
X36447142Y-69917857D02*
X36494761Y-69965476D01*
X36494761Y-69965476D02*
X36542380Y-70108333D01*
X36542380Y-70108333D02*
X36542380Y-70203571D01*
X36542380Y-70203571D02*
X36494761Y-70346428D01*
X36494761Y-70346428D02*
X36399523Y-70441666D01*
X36399523Y-70441666D02*
X36304285Y-70489285D01*
X36304285Y-70489285D02*
X36113809Y-70536904D01*
X36113809Y-70536904D02*
X35970952Y-70536904D01*
X35970952Y-70536904D02*
X35780476Y-70489285D01*
X35780476Y-70489285D02*
X35685238Y-70441666D01*
X35685238Y-70441666D02*
X35590000Y-70346428D01*
X35590000Y-70346428D02*
X35542380Y-70203571D01*
X35542380Y-70203571D02*
X35542380Y-70108333D01*
X35542380Y-70108333D02*
X35590000Y-69965476D01*
X35590000Y-69965476D02*
X35637619Y-69917857D01*
X36542380Y-68965476D02*
X36542380Y-69536904D01*
X36542380Y-69251190D02*
X35542380Y-69251190D01*
X35542380Y-69251190D02*
X35685238Y-69346428D01*
X35685238Y-69346428D02*
X35780476Y-69441666D01*
X35780476Y-69441666D02*
X35828095Y-69536904D01*
X35542380Y-68632142D02*
X35542380Y-68013095D01*
X35542380Y-68013095D02*
X35923333Y-68346428D01*
X35923333Y-68346428D02*
X35923333Y-68203571D01*
X35923333Y-68203571D02*
X35970952Y-68108333D01*
X35970952Y-68108333D02*
X36018571Y-68060714D01*
X36018571Y-68060714D02*
X36113809Y-68013095D01*
X36113809Y-68013095D02*
X36351904Y-68013095D01*
X36351904Y-68013095D02*
X36447142Y-68060714D01*
X36447142Y-68060714D02*
X36494761Y-68108333D01*
X36494761Y-68108333D02*
X36542380Y-68203571D01*
X36542380Y-68203571D02*
X36542380Y-68489285D01*
X36542380Y-68489285D02*
X36494761Y-68584523D01*
X36494761Y-68584523D02*
X36447142Y-68632142D01*
%TO.C,C5*%
X36783333Y-75872142D02*
X36735714Y-75919761D01*
X36735714Y-75919761D02*
X36592857Y-75967380D01*
X36592857Y-75967380D02*
X36497619Y-75967380D01*
X36497619Y-75967380D02*
X36354762Y-75919761D01*
X36354762Y-75919761D02*
X36259524Y-75824523D01*
X36259524Y-75824523D02*
X36211905Y-75729285D01*
X36211905Y-75729285D02*
X36164286Y-75538809D01*
X36164286Y-75538809D02*
X36164286Y-75395952D01*
X36164286Y-75395952D02*
X36211905Y-75205476D01*
X36211905Y-75205476D02*
X36259524Y-75110238D01*
X36259524Y-75110238D02*
X36354762Y-75015000D01*
X36354762Y-75015000D02*
X36497619Y-74967380D01*
X36497619Y-74967380D02*
X36592857Y-74967380D01*
X36592857Y-74967380D02*
X36735714Y-75015000D01*
X36735714Y-75015000D02*
X36783333Y-75062619D01*
X37688095Y-74967380D02*
X37211905Y-74967380D01*
X37211905Y-74967380D02*
X37164286Y-75443571D01*
X37164286Y-75443571D02*
X37211905Y-75395952D01*
X37211905Y-75395952D02*
X37307143Y-75348333D01*
X37307143Y-75348333D02*
X37545238Y-75348333D01*
X37545238Y-75348333D02*
X37640476Y-75395952D01*
X37640476Y-75395952D02*
X37688095Y-75443571D01*
X37688095Y-75443571D02*
X37735714Y-75538809D01*
X37735714Y-75538809D02*
X37735714Y-75776904D01*
X37735714Y-75776904D02*
X37688095Y-75872142D01*
X37688095Y-75872142D02*
X37640476Y-75919761D01*
X37640476Y-75919761D02*
X37545238Y-75967380D01*
X37545238Y-75967380D02*
X37307143Y-75967380D01*
X37307143Y-75967380D02*
X37211905Y-75919761D01*
X37211905Y-75919761D02*
X37164286Y-75872142D01*
%TO.C,U1*%
X37973880Y-73407404D02*
X38783404Y-73407404D01*
X38783404Y-73407404D02*
X38878642Y-73359785D01*
X38878642Y-73359785D02*
X38926261Y-73312166D01*
X38926261Y-73312166D02*
X38973880Y-73216928D01*
X38973880Y-73216928D02*
X38973880Y-73026452D01*
X38973880Y-73026452D02*
X38926261Y-72931214D01*
X38926261Y-72931214D02*
X38878642Y-72883595D01*
X38878642Y-72883595D02*
X38783404Y-72835976D01*
X38783404Y-72835976D02*
X37973880Y-72835976D01*
X38973880Y-71835976D02*
X38973880Y-72407404D01*
X38973880Y-72121690D02*
X37973880Y-72121690D01*
X37973880Y-72121690D02*
X38116738Y-72216928D01*
X38116738Y-72216928D02*
X38211976Y-72312166D01*
X38211976Y-72312166D02*
X38259595Y-72407404D01*
%TO.C,R3*%
X31709380Y-82716666D02*
X31233190Y-83049999D01*
X31709380Y-83288094D02*
X30709380Y-83288094D01*
X30709380Y-83288094D02*
X30709380Y-82907142D01*
X30709380Y-82907142D02*
X30757000Y-82811904D01*
X30757000Y-82811904D02*
X30804619Y-82764285D01*
X30804619Y-82764285D02*
X30899857Y-82716666D01*
X30899857Y-82716666D02*
X31042714Y-82716666D01*
X31042714Y-82716666D02*
X31137952Y-82764285D01*
X31137952Y-82764285D02*
X31185571Y-82811904D01*
X31185571Y-82811904D02*
X31233190Y-82907142D01*
X31233190Y-82907142D02*
X31233190Y-83288094D01*
X30709380Y-82383332D02*
X30709380Y-81764285D01*
X30709380Y-81764285D02*
X31090333Y-82097618D01*
X31090333Y-82097618D02*
X31090333Y-81954761D01*
X31090333Y-81954761D02*
X31137952Y-81859523D01*
X31137952Y-81859523D02*
X31185571Y-81811904D01*
X31185571Y-81811904D02*
X31280809Y-81764285D01*
X31280809Y-81764285D02*
X31518904Y-81764285D01*
X31518904Y-81764285D02*
X31614142Y-81811904D01*
X31614142Y-81811904D02*
X31661761Y-81859523D01*
X31661761Y-81859523D02*
X31709380Y-81954761D01*
X31709380Y-81954761D02*
X31709380Y-82240475D01*
X31709380Y-82240475D02*
X31661761Y-82335713D01*
X31661761Y-82335713D02*
X31614142Y-82383332D01*
%TO.C,R22*%
X103745380Y-78112857D02*
X103269190Y-78446190D01*
X103745380Y-78684285D02*
X102745380Y-78684285D01*
X102745380Y-78684285D02*
X102745380Y-78303333D01*
X102745380Y-78303333D02*
X102793000Y-78208095D01*
X102793000Y-78208095D02*
X102840619Y-78160476D01*
X102840619Y-78160476D02*
X102935857Y-78112857D01*
X102935857Y-78112857D02*
X103078714Y-78112857D01*
X103078714Y-78112857D02*
X103173952Y-78160476D01*
X103173952Y-78160476D02*
X103221571Y-78208095D01*
X103221571Y-78208095D02*
X103269190Y-78303333D01*
X103269190Y-78303333D02*
X103269190Y-78684285D01*
X102840619Y-77731904D02*
X102793000Y-77684285D01*
X102793000Y-77684285D02*
X102745380Y-77589047D01*
X102745380Y-77589047D02*
X102745380Y-77350952D01*
X102745380Y-77350952D02*
X102793000Y-77255714D01*
X102793000Y-77255714D02*
X102840619Y-77208095D01*
X102840619Y-77208095D02*
X102935857Y-77160476D01*
X102935857Y-77160476D02*
X103031095Y-77160476D01*
X103031095Y-77160476D02*
X103173952Y-77208095D01*
X103173952Y-77208095D02*
X103745380Y-77779523D01*
X103745380Y-77779523D02*
X103745380Y-77160476D01*
X102840619Y-76779523D02*
X102793000Y-76731904D01*
X102793000Y-76731904D02*
X102745380Y-76636666D01*
X102745380Y-76636666D02*
X102745380Y-76398571D01*
X102745380Y-76398571D02*
X102793000Y-76303333D01*
X102793000Y-76303333D02*
X102840619Y-76255714D01*
X102840619Y-76255714D02*
X102935857Y-76208095D01*
X102935857Y-76208095D02*
X103031095Y-76208095D01*
X103031095Y-76208095D02*
X103173952Y-76255714D01*
X103173952Y-76255714D02*
X103745380Y-76827142D01*
X103745380Y-76827142D02*
X103745380Y-76208095D01*
%TO.C,C11*%
X42572142Y-77967857D02*
X42619761Y-78015476D01*
X42619761Y-78015476D02*
X42667380Y-78158333D01*
X42667380Y-78158333D02*
X42667380Y-78253571D01*
X42667380Y-78253571D02*
X42619761Y-78396428D01*
X42619761Y-78396428D02*
X42524523Y-78491666D01*
X42524523Y-78491666D02*
X42429285Y-78539285D01*
X42429285Y-78539285D02*
X42238809Y-78586904D01*
X42238809Y-78586904D02*
X42095952Y-78586904D01*
X42095952Y-78586904D02*
X41905476Y-78539285D01*
X41905476Y-78539285D02*
X41810238Y-78491666D01*
X41810238Y-78491666D02*
X41715000Y-78396428D01*
X41715000Y-78396428D02*
X41667380Y-78253571D01*
X41667380Y-78253571D02*
X41667380Y-78158333D01*
X41667380Y-78158333D02*
X41715000Y-78015476D01*
X41715000Y-78015476D02*
X41762619Y-77967857D01*
X42667380Y-77015476D02*
X42667380Y-77586904D01*
X42667380Y-77301190D02*
X41667380Y-77301190D01*
X41667380Y-77301190D02*
X41810238Y-77396428D01*
X41810238Y-77396428D02*
X41905476Y-77491666D01*
X41905476Y-77491666D02*
X41953095Y-77586904D01*
X42667380Y-76063095D02*
X42667380Y-76634523D01*
X42667380Y-76348809D02*
X41667380Y-76348809D01*
X41667380Y-76348809D02*
X41810238Y-76444047D01*
X41810238Y-76444047D02*
X41905476Y-76539285D01*
X41905476Y-76539285D02*
X41953095Y-76634523D01*
D11*
%TO.C,U2*%
X37224999Y-77444001D02*
X36449997Y-77444001D01*
X38450001Y-80543999D02*
X36475001Y-80543999D01*
D12*
%TO.C,R35*%
X46442621Y-71330000D02*
X46107379Y-71330000D01*
X46442621Y-70570000D02*
X46107379Y-70570000D01*
%TO.C,D6*%
X55000000Y-57939000D02*
X52540000Y-57939000D01*
X55000000Y-59409000D02*
X55000000Y-57939000D01*
X52540000Y-59409000D02*
X55000000Y-59409000D01*
%TO.C,D5*%
X55000000Y-59463000D02*
X52540000Y-59463000D01*
X55000000Y-60933000D02*
X55000000Y-59463000D01*
X52540000Y-60933000D02*
X55000000Y-60933000D01*
%TO.C,R34*%
X36154379Y-63374000D02*
X36489621Y-63374000D01*
X36154379Y-64134000D02*
X36489621Y-64134000D01*
%TO.C,Q3*%
X110018000Y-71120000D02*
X110018000Y-71770000D01*
X106898000Y-71120000D02*
X106898000Y-72795000D01*
X110018000Y-71120000D02*
X110018000Y-70470000D01*
X106898000Y-71120000D02*
X106898000Y-70470000D01*
%TO.C,R33*%
X102996000Y-64094379D02*
X102996000Y-64429621D01*
X102236000Y-64094379D02*
X102236000Y-64429621D01*
%TO.C,R32*%
X89026000Y-60538379D02*
X89026000Y-60873621D01*
X88266000Y-60538379D02*
X88266000Y-60873621D01*
%TO.C,R31*%
X93558379Y-63374000D02*
X93893621Y-63374000D01*
X93558379Y-64134000D02*
X93893621Y-64134000D01*
%TO.C,Q4*%
X90502500Y-64232000D02*
X89852500Y-64232000D01*
X90502500Y-61112000D02*
X89852500Y-61112000D01*
X90502500Y-64232000D02*
X92177500Y-64232000D01*
X90502500Y-61112000D02*
X91152500Y-61112000D01*
%TO.C,R30*%
X97410000Y-80604379D02*
X97410000Y-80939621D01*
X98170000Y-80604379D02*
X98170000Y-80939621D01*
%TO.C,R29*%
X40807621Y-82930000D02*
X40472379Y-82930000D01*
X40807621Y-82170000D02*
X40472379Y-82170000D01*
%TO.C,R27*%
X102370000Y-73492379D02*
X102370000Y-73827621D01*
X103130000Y-73492379D02*
X103130000Y-73827621D01*
%TO.C,C15*%
X107834165Y-67458000D02*
X108065835Y-67458000D01*
X107834165Y-68178000D02*
X108065835Y-68178000D01*
%TO.C,U6*%
X101985000Y-73914000D02*
X101985000Y-74714000D01*
X101985000Y-73914000D02*
X101985000Y-73114000D01*
X98865000Y-73914000D02*
X98865000Y-75714000D01*
X98865000Y-73914000D02*
X98865000Y-73114000D01*
%TO.C,R28*%
X100751621Y-76074000D02*
X100416379Y-76074000D01*
X100751621Y-76834000D02*
X100416379Y-76834000D01*
%TO.C,R26*%
X99720000Y-70107379D02*
X99720000Y-70442621D01*
X100480000Y-70107379D02*
X100480000Y-70442621D01*
%TO.C,R8*%
X97664000Y-73746379D02*
X97664000Y-74081621D01*
X98424000Y-73746379D02*
X98424000Y-74081621D01*
%TO.C,U5*%
X104430000Y-69088000D02*
X104430000Y-69888000D01*
X104430000Y-69088000D02*
X104430000Y-68288000D01*
X101310000Y-69088000D02*
X101310000Y-70888000D01*
X101310000Y-69088000D02*
X101310000Y-68288000D01*
%TO.C,R7*%
X106399000Y-69114936D02*
X106399000Y-69569064D01*
X104929000Y-69114936D02*
X104929000Y-69569064D01*
%TO.C,R10*%
X47620000Y-65132379D02*
X47620000Y-65467621D01*
X48380000Y-65132379D02*
X48380000Y-65467621D01*
%TO.C,C8*%
X31665000Y-66665835D02*
X31665000Y-66434165D01*
X32385000Y-66665835D02*
X32385000Y-66434165D01*
%TO.C,R12*%
X38432379Y-63320000D02*
X38767621Y-63320000D01*
X38432379Y-64080000D02*
X38767621Y-64080000D01*
%TO.C,R1*%
X32804000Y-67667621D02*
X32804000Y-67332379D01*
X33564000Y-67667621D02*
X33564000Y-67332379D01*
%TO.C,Q2*%
X110650000Y-62160000D02*
X112325000Y-62160000D01*
X110650000Y-62160000D02*
X110000000Y-62160000D01*
X110650000Y-59040000D02*
X111300000Y-59040000D01*
X110650000Y-59040000D02*
X110000000Y-59040000D01*
%TO.C,R25*%
X105705000Y-64292621D02*
X105705000Y-63957379D01*
X104945000Y-64292621D02*
X104945000Y-63957379D01*
%TO.C,Q1*%
X107975000Y-74390000D02*
X106300000Y-74390000D01*
X107975000Y-74390000D02*
X108625000Y-74390000D01*
X107975000Y-77510000D02*
X107325000Y-77510000D01*
X107975000Y-77510000D02*
X108625000Y-77510000D01*
%TO.C,R15*%
X97195621Y-69214000D02*
X96860379Y-69214000D01*
X97195621Y-68454000D02*
X96860379Y-68454000D01*
%TO.C,J2*%
X28480000Y-79355000D02*
X27150000Y-79355000D01*
X28480000Y-78025000D02*
X28480000Y-79355000D01*
X28480000Y-76755000D02*
X28480000Y-74155000D01*
X28480000Y-76755000D02*
X25820000Y-76755000D01*
X28480000Y-74155000D02*
X25820000Y-74155000D01*
X25820000Y-76755000D02*
X25820000Y-74155000D01*
%TO.C,C4*%
X40244000Y-79584165D02*
X40244000Y-79815835D01*
X39524000Y-79584165D02*
X39524000Y-79815835D01*
%TO.C,C14*%
X27565835Y-73510000D02*
X27334165Y-73510000D01*
X27565835Y-72790000D02*
X27334165Y-72790000D01*
%TO.C,C6*%
X30665000Y-66640835D02*
X30665000Y-66409165D01*
X31385000Y-66640835D02*
X31385000Y-66409165D01*
%TO.C,R16*%
X95124000Y-70698379D02*
X95124000Y-71033621D01*
X95884000Y-70698379D02*
X95884000Y-71033621D01*
%TO.C,C2*%
X50360000Y-65390835D02*
X50360000Y-65159165D01*
X49640000Y-65390835D02*
X49640000Y-65159165D01*
%TO.C,R6*%
X36270121Y-83480000D02*
X35934879Y-83480000D01*
X36270121Y-82720000D02*
X35934879Y-82720000D01*
%TO.C,R14*%
X98384379Y-67438000D02*
X98719621Y-67438000D01*
X98384379Y-68198000D02*
X98719621Y-68198000D01*
%TO.C,C10*%
X44588165Y-64918000D02*
X44819835Y-64918000D01*
X44588165Y-65638000D02*
X44819835Y-65638000D01*
%TO.C,R23*%
X105120000Y-77383621D02*
X105120000Y-77048379D01*
X105880000Y-77383621D02*
X105880000Y-77048379D01*
%TO.C,Y1*%
X45900000Y-70350000D02*
X47900000Y-70350000D01*
X47900000Y-70350000D02*
X48300000Y-70350000D01*
X45900000Y-70150000D02*
X45900000Y-69150000D01*
X47900000Y-70150000D02*
X45900000Y-70150000D01*
X47900000Y-70150000D02*
X48300000Y-70150000D01*
X48300000Y-69150000D02*
X48300000Y-70150000D01*
X48300000Y-69150000D02*
X48700000Y-69150000D01*
X45900000Y-67350000D02*
X45900000Y-66550000D01*
X45900000Y-66550000D02*
X47900000Y-66550000D01*
X47900000Y-66550000D02*
X48300000Y-66550000D01*
X48300000Y-66550000D02*
X48300000Y-67350000D01*
%TO.C,D4*%
X105975000Y-63410000D02*
X107675000Y-63410000D01*
X105975000Y-63410000D02*
X105975000Y-60750000D01*
X107675000Y-63410000D02*
X107675000Y-60750000D01*
%TO.C,R18*%
X119760000Y-69428379D02*
X119760000Y-69763621D01*
X119000000Y-69428379D02*
X119000000Y-69763621D01*
%TO.C,R5*%
X35934879Y-81720000D02*
X36270121Y-81720000D01*
X35934879Y-82480000D02*
X36270121Y-82480000D01*
%TO.C,R19*%
X117712000Y-69933879D02*
X117712000Y-70269121D01*
X116952000Y-69933879D02*
X116952000Y-70269121D01*
%TO.C,J1*%
X53870000Y-72845000D02*
X55200000Y-72845000D01*
X53870000Y-74175000D02*
X53870000Y-72845000D01*
X53870000Y-75445000D02*
X53870000Y-78045000D01*
X53870000Y-75445000D02*
X56530000Y-75445000D01*
X53870000Y-78045000D02*
X56530000Y-78045000D01*
X56530000Y-75445000D02*
X56530000Y-78045000D01*
%TO.C,R9*%
X49405000Y-65467621D02*
X49405000Y-65132379D01*
X48645000Y-65467621D02*
X48645000Y-65132379D01*
%TO.C,R17*%
X117434379Y-68706000D02*
X117769621Y-68706000D01*
X117434379Y-67946000D02*
X117769621Y-67946000D01*
%TO.C,C12*%
X29515835Y-68060000D02*
X29284165Y-68060000D01*
X29515835Y-67340000D02*
X29284165Y-67340000D01*
%TO.C,D3*%
X106365000Y-77750000D02*
X106365000Y-79450000D01*
X106365000Y-77750000D02*
X109025000Y-77750000D01*
X106365000Y-79450000D02*
X109025000Y-79450000D01*
%TO.C,D1*%
X38490000Y-83150000D02*
X38490000Y-84850000D01*
X38490000Y-83150000D02*
X41150000Y-83150000D01*
X38490000Y-84850000D02*
X41150000Y-84850000D01*
%TO.C,R24*%
X104705000Y-63982379D02*
X104705000Y-64317621D01*
X103945000Y-63982379D02*
X103945000Y-64317621D01*
%TO.C,U3*%
X28875000Y-78325000D02*
X29135000Y-78325000D01*
X29135000Y-78325000D02*
X29135000Y-80000000D01*
X34325000Y-78325000D02*
X34065000Y-78325000D01*
X28875000Y-75600000D02*
X28875000Y-78325000D01*
X28875000Y-75600000D02*
X28875000Y-72875000D01*
X34325000Y-75600000D02*
X34325000Y-78325000D01*
X34325000Y-75600000D02*
X34325000Y-72875000D01*
X28875000Y-72875000D02*
X29135000Y-72875000D01*
X34325000Y-72875000D02*
X34065000Y-72875000D01*
%TO.C,C7*%
X35610000Y-75184165D02*
X35610000Y-75415835D01*
X34890000Y-75184165D02*
X34890000Y-75415835D01*
%TO.C,C1*%
X34815000Y-67515835D02*
X34815000Y-67284165D01*
X35535000Y-67515835D02*
X35535000Y-67284165D01*
%TO.C,R2*%
X33820000Y-67667621D02*
X33820000Y-67332379D01*
X34580000Y-67667621D02*
X34580000Y-67332379D01*
%TO.C,R21*%
X112759879Y-74804000D02*
X113095121Y-74804000D01*
X112759879Y-75564000D02*
X113095121Y-75564000D01*
%TO.C,J3*%
X50270000Y-72845000D02*
X51600000Y-72845000D01*
X50270000Y-74175000D02*
X50270000Y-72845000D01*
X50270000Y-75445000D02*
X50270000Y-78045000D01*
X50270000Y-75445000D02*
X52930000Y-75445000D01*
X50270000Y-78045000D02*
X52930000Y-78045000D01*
X52930000Y-75445000D02*
X52930000Y-78045000D01*
%TO.C,R11*%
X38432379Y-62320000D02*
X38767621Y-62320000D01*
X38432379Y-63080000D02*
X38767621Y-63080000D01*
%TO.C,R4*%
X33148000Y-82717621D02*
X33148000Y-82382379D01*
X33908000Y-82717621D02*
X33908000Y-82382379D01*
%TO.C,R13*%
X98719621Y-67182000D02*
X98384379Y-67182000D01*
X98719621Y-66422000D02*
X98384379Y-66422000D01*
%TO.C,C3*%
X29515835Y-69060000D02*
X29284165Y-69060000D01*
X29515835Y-68340000D02*
X29284165Y-68340000D01*
%TO.C,R20*%
X117984000Y-70271621D02*
X117984000Y-69936379D01*
X118744000Y-70271621D02*
X118744000Y-69936379D01*
%TO.C,C9*%
X40360000Y-77184165D02*
X40360000Y-77415835D01*
X39640000Y-77184165D02*
X39640000Y-77415835D01*
%TO.C,C13*%
X35815000Y-66740835D02*
X35815000Y-66509165D01*
X36535000Y-66740835D02*
X36535000Y-66509165D01*
%TO.C,C5*%
X37065835Y-77060000D02*
X36834165Y-77060000D01*
X37065835Y-76340000D02*
X36834165Y-76340000D01*
%TO.C,U1*%
X44497500Y-74472500D02*
X43847500Y-74472500D01*
X37277500Y-73822500D02*
X37277500Y-74472500D01*
X44497500Y-73822500D02*
X44497500Y-74472500D01*
X37277500Y-67902500D02*
X37277500Y-67252500D01*
X44497500Y-67902500D02*
X44497500Y-67252500D01*
X37277500Y-67252500D02*
X37927500Y-67252500D01*
X44497500Y-67252500D02*
X43847500Y-67252500D01*
%TO.C,R3*%
X32132000Y-82717621D02*
X32132000Y-82382379D01*
X32892000Y-82717621D02*
X32892000Y-82382379D01*
%TO.C,R22*%
X104095000Y-77733621D02*
X104095000Y-77398379D01*
X104855000Y-77733621D02*
X104855000Y-77398379D01*
%TO.C,C11*%
X41335000Y-77184165D02*
X41335000Y-77415835D01*
X40615000Y-77184165D02*
X40615000Y-77415835D01*
%TD*%
M02*
