%TF.GenerationSoftware,KiCad,Pcbnew,(7.0.0)*%
%TF.CreationDate,2023-04-17T21:08:14+08:00*%
%TF.ProjectId,opsx_x,6f707378-5f78-42e6-9b69-6361645f7063,rev?*%
%TF.SameCoordinates,Original*%
%TF.FileFunction,Copper,L2,Bot*%
%TF.FilePolarity,Positive*%
%FSLAX46Y46*%
G04 Gerber Fmt 4.6, Leading zero omitted, Abs format (unit mm)*
G04 Created by KiCad (PCBNEW (7.0.0)) date 2023-04-17 21:08:14*
%MOMM*%
%LPD*%
G01*
G04 APERTURE LIST*
G04 Aperture macros list*
%AMRoundRect*
0 Rectangle with rounded corners*
0 $1 Rounding radius*
0 $2 $3 $4 $5 $6 $7 $8 $9 X,Y pos of 4 corners*
0 Add a 4 corners polygon primitive as box body*
4,1,4,$2,$3,$4,$5,$6,$7,$8,$9,$2,$3,0*
0 Add four circle primitives for the rounded corners*
1,1,$1+$1,$2,$3*
1,1,$1+$1,$4,$5*
1,1,$1+$1,$6,$7*
1,1,$1+$1,$8,$9*
0 Add four rect primitives between the rounded corners*
20,1,$1+$1,$2,$3,$4,$5,0*
20,1,$1+$1,$4,$5,$6,$7,0*
20,1,$1+$1,$6,$7,$8,$9,0*
20,1,$1+$1,$8,$9,$2,$3,0*%
G04 Aperture macros list end*
%TA.AperFunction,SMDPad,CuDef*%
%ADD10R,0.700000X1.300000*%
%TD*%
%TA.AperFunction,SMDPad,CuDef*%
%ADD11R,1.270000X0.635000*%
%TD*%
%TA.AperFunction,ComponentPad*%
%ADD12R,1.700000X1.700000*%
%TD*%
%TA.AperFunction,ComponentPad*%
%ADD13O,1.700000X1.700000*%
%TD*%
%TA.AperFunction,ComponentPad*%
%ADD14C,0.600000*%
%TD*%
%TA.AperFunction,SMDPad,CuDef*%
%ADD15RoundRect,0.175000X-0.525000X-0.825000X0.525000X-0.825000X0.525000X0.825000X-0.525000X0.825000X0*%
%TD*%
%TA.AperFunction,SMDPad,CuDef*%
%ADD16RoundRect,0.150000X-0.550000X-0.450000X0.550000X-0.450000X0.550000X0.450000X-0.550000X0.450000X0*%
%TD*%
%TA.AperFunction,SMDPad,CuDef*%
%ADD17R,0.635000X1.270000*%
%TD*%
%TA.AperFunction,ViaPad*%
%ADD18C,0.510000*%
%TD*%
%TA.AperFunction,ViaPad*%
%ADD19C,0.800000*%
%TD*%
%TA.AperFunction,ViaPad*%
%ADD20C,0.600000*%
%TD*%
%TA.AperFunction,Conductor*%
%ADD21C,0.254000*%
%TD*%
%TA.AperFunction,Conductor*%
%ADD22C,0.508000*%
%TD*%
%TA.AperFunction,Conductor*%
%ADD23C,0.127000*%
%TD*%
%TA.AperFunction,Conductor*%
%ADD24C,0.200000*%
%TD*%
%TA.AperFunction,Conductor*%
%ADD25C,0.250000*%
%TD*%
%TA.AperFunction,Conductor*%
%ADD26C,0.700000*%
%TD*%
G04 APERTURE END LIST*
D10*
%TO.P,U4,1,VDD*%
%TO.N,+3.3V*%
X42599999Y-67349999D03*
%TO.P,U4,2,ADDR*%
%TO.N,GND*%
X41649999Y-67349999D03*
%TO.P,U4,3,GND*%
X40699999Y-67349999D03*
%TO.P,U4,4,SCL*%
%TO.N,/SCL0*%
X40699999Y-64249999D03*
%TO.P,U4,5,INT*%
%TO.N,unconnected-(U4-INT-Pad5)*%
X41649999Y-64249999D03*
%TO.P,U4,6,SDA*%
%TO.N,/SDA0*%
X42599999Y-64249999D03*
%TD*%
D11*
%TO.P,Z3,1,1*%
%TO.N,/S1T-3*%
X97027999Y-66547999D03*
%TO.P,Z3,2,2*%
%TO.N,/S1T*%
X97027999Y-65531999D03*
%TO.P,Z3,3,3*%
X97027999Y-64515999D03*
%TD*%
D12*
%TO.P,J2,1,Pin_1*%
%TO.N,/USB_D-*%
X27149999Y-78024999D03*
D13*
%TO.P,J2,2,Pin_2*%
%TO.N,/USB_D+*%
X27149999Y-75484999D03*
%TD*%
D12*
%TO.P,J1,1,Pin_1*%
%TO.N,GND*%
X55199999Y-74174999D03*
D13*
%TO.P,J1,2,Pin_2*%
%TO.N,/~{USB_BOOT}*%
X55199999Y-76714999D03*
%TD*%
D12*
%TO.P,J3,1,Pin_1*%
%TO.N,GND*%
X51599999Y-74174999D03*
D13*
%TO.P,J3,2,Pin_2*%
%TO.N,VBUS*%
X51599999Y-76714999D03*
%TD*%
D14*
%TO.P,U1,57,GND*%
%TO.N,GND*%
X39612500Y-72137500D03*
X40887500Y-72137500D03*
X42162500Y-72137500D03*
X39612500Y-70862500D03*
X40887500Y-70862500D03*
X42162500Y-70862500D03*
X39612500Y-69587500D03*
X40887500Y-69587500D03*
X42162500Y-69587500D03*
%TD*%
D15*
%TO.P,D2,1,K*%
%TO.N,Net-(D2-K)*%
X44700000Y-65800000D03*
D16*
%TO.P,D2,2,A*%
%TO.N,GND*%
X38600000Y-65800000D03*
%TD*%
D11*
%TO.P,Z2,1,1*%
%TO.N,/S1F*%
X103050799Y-66065199D03*
%TO.P,Z2,2,2*%
%TO.N,/S1F_FPC*%
X103050799Y-65049199D03*
%TO.P,Z2,3,3*%
X103050799Y-64033199D03*
%TD*%
D17*
%TO.P,Z1,1,1*%
%TO.N,+3.3V*%
X36067999Y-69699999D03*
%TO.P,Z1,2,2*%
%TO.N,GND*%
X37083999Y-69699999D03*
%TO.P,Z1,3,3*%
X38099999Y-69699999D03*
%TD*%
D18*
%TO.N,GND*%
X100600000Y-67500000D03*
X112875000Y-79175000D03*
X105250000Y-79125000D03*
X45625000Y-72275000D03*
X45925000Y-65550000D03*
X32675000Y-76150000D03*
X29400000Y-73675000D03*
X31825000Y-76975000D03*
%TO.N,/USB_D-*%
X34072000Y-64800000D03*
%TO.N,/USB_D+*%
X33312000Y-64800000D03*
%TO.N,+3.3V*%
X33000000Y-69039545D03*
%TO.N,GND*%
X108458000Y-72136000D03*
X109728000Y-69850000D03*
X112776000Y-70104000D03*
X112776000Y-71374000D03*
X112776000Y-72644000D03*
X109728000Y-68580000D03*
X51054000Y-59944000D03*
X43180000Y-81534000D03*
X90932000Y-84582000D03*
X92710000Y-84582000D03*
X92710000Y-83312000D03*
X94488000Y-82042000D03*
X96012000Y-82042000D03*
X94488000Y-80010000D03*
X96012000Y-80010000D03*
X84074000Y-58420000D03*
X83058000Y-58420000D03*
X83820000Y-60452000D03*
%TO.N,/LED1*%
X52578000Y-66802000D03*
X57150000Y-61976000D03*
%TO.N,/LED2*%
X57912000Y-61976000D03*
X53340000Y-67056000D03*
%TO.N,Net-(D5-A)*%
X51698500Y-60823500D03*
X36068000Y-62738000D03*
%TO.N,GND*%
X98852797Y-70139332D03*
%TO.N,/S1F_FPC*%
X101600000Y-64262000D03*
X100838000Y-65024000D03*
X107696000Y-70104000D03*
%TO.N,GND*%
X98806000Y-76962000D03*
%TO.N,Net-(Q3-G)*%
X86868000Y-60960000D03*
X85668683Y-63256317D03*
X89803182Y-70358000D03*
X104902000Y-72570500D03*
%TO.N,/S1F_PF_MCU*%
X47225500Y-64770000D03*
X60706000Y-61468000D03*
X85598000Y-60198000D03*
X93472000Y-62738000D03*
%TO.N,VCC*%
X86329817Y-63530183D03*
X87839250Y-60915250D03*
%TO.N,/S2*%
X99314000Y-61722000D03*
X92710000Y-59182000D03*
%TO.N,/S4A_3*%
X92456000Y-81026000D03*
X46482000Y-75946000D03*
X42672000Y-82550000D03*
%TO.N,GND*%
X38862000Y-82296000D03*
%TO.N,/S1T*%
X97028000Y-63754000D03*
%TO.N,/SFH_L*%
X94488000Y-72390000D03*
X88450000Y-71150000D03*
X84836000Y-64950500D03*
X44746167Y-62759333D03*
%TO.N,GND*%
X105325000Y-65278000D03*
X50800000Y-68381500D03*
X50730000Y-64700000D03*
%TO.N,/S1F*%
X100154500Y-68354500D03*
%TO.N,/SFH_H*%
X101920000Y-71440000D03*
X84074000Y-64485817D03*
X87075000Y-71050000D03*
X45212000Y-63490000D03*
%TO.N,Net-(D2-K)*%
X106934000Y-68580000D03*
%TO.N,GND*%
X103886000Y-71120000D03*
X102870000Y-71120000D03*
%TO.N,+3.3V*%
X101920000Y-68855000D03*
D19*
%TO.N,Net-(U1-GPIO5)*%
X111506000Y-76962000D03*
%TO.N,/S8-3*%
X119380000Y-67818000D03*
%TO.N,/S9-3*%
X118834500Y-71882000D03*
D18*
%TO.N,+1V1*%
X49700000Y-70100000D03*
X45500000Y-69825000D03*
X42942000Y-70223544D03*
X38833000Y-71111500D03*
X35045000Y-70953000D03*
%TO.N,GND*%
X113125000Y-59675000D03*
X38200001Y-80750001D03*
X106550000Y-77525000D03*
X119700000Y-73750000D03*
X48400000Y-68500000D03*
X41575000Y-77867500D03*
D20*
X35300000Y-76675000D03*
X31009000Y-65026000D03*
D18*
X26200000Y-73100000D03*
D20*
X33500000Y-77550000D03*
X36200000Y-65116500D03*
D18*
X37300000Y-82100000D03*
D20*
X32025000Y-65026000D03*
X27901000Y-67690000D03*
X27876000Y-68700000D03*
D19*
X31500000Y-62500000D03*
D20*
X35209000Y-65916500D03*
D19*
X100950000Y-60150000D03*
D18*
X47300000Y-65700000D03*
D20*
X39884000Y-81000000D03*
D19*
X115550000Y-76600000D03*
D18*
X96900000Y-59600000D03*
X40500000Y-78395500D03*
%TO.N,VCC*%
X103775000Y-79850000D03*
X101346000Y-77978000D03*
X110959400Y-65684400D03*
X110490000Y-73660000D03*
%TO.N,/S8-3*%
X62103000Y-80899000D03*
%TO.N,/S3*%
X79979817Y-79725817D03*
X113914500Y-76839500D03*
%TO.N,/S5*%
X81026000Y-79502000D03*
X112981500Y-76756500D03*
%TO.N,+3.3V*%
X36223996Y-68276004D03*
X41667500Y-76732500D03*
X42600000Y-68500000D03*
D19*
X36900000Y-74362500D03*
D18*
X41887705Y-73548956D03*
%TO.N,/~{USB_BOOT}*%
X45650000Y-83525000D03*
%TO.N,Net-(U1-GPIO5)*%
X81534000Y-80010000D03*
%TO.N,/S9-3*%
X62738000Y-81534000D03*
X43437500Y-78912500D03*
X39550000Y-75700000D03*
%TO.N,/SOL2_MCU*%
X45425000Y-67800000D03*
X104325000Y-62825000D03*
%TO.N,/GTD-3*%
X37800000Y-75150000D03*
X35700000Y-81300000D03*
%TO.N,/GTD-6*%
X45232086Y-80720470D03*
X37700000Y-83100000D03*
%TO.N,VBUS*%
X44923000Y-83277000D03*
%TO.N,/FF*%
X48467500Y-63707500D03*
X46501832Y-65034000D03*
%TO.N,/FT*%
X49000000Y-66700000D03*
X53848000Y-64262000D03*
%TO.N,/SCL0*%
X42254162Y-66150000D03*
X40050000Y-63350000D03*
%TO.N,/SDA0*%
X40000000Y-62600000D03*
X42672000Y-65532000D03*
%TO.N,/S1T-3*%
X90678000Y-67818000D03*
%TO.N,/S1T*%
X78867000Y-61595000D03*
%TO.N,/S1T-3*%
X97028000Y-67818000D03*
X38400000Y-75700000D03*
X45000000Y-80050000D03*
%TO.N,/S2*%
X43290162Y-65959275D03*
X50725000Y-61541500D03*
X35024200Y-62484000D03*
%TO.N,/S1F*%
X101092000Y-66220500D03*
%TO.N,/S1F-3*%
X60706000Y-82222500D03*
X39000000Y-76150000D03*
X44075000Y-79525000D03*
X96774000Y-76962000D03*
%TO.N,/SOL1_MCU*%
X93375000Y-78800000D03*
X57658000Y-78486000D03*
%TD*%
D21*
%TO.N,/S1F*%
X99850000Y-66675000D02*
X100304500Y-66220500D01*
X100304500Y-66220500D02*
X101092000Y-66220500D01*
X99850000Y-68050000D02*
X99850000Y-66675000D01*
X100154500Y-68354500D02*
X99850000Y-68050000D01*
%TO.N,+3.3V*%
X48879044Y-73548956D02*
X41887705Y-73548956D01*
X59436000Y-62992000D02*
X48879044Y-73548956D01*
X61214000Y-62992000D02*
X59436000Y-62992000D01*
X62738000Y-61468000D02*
X61214000Y-62992000D01*
X77470000Y-61468000D02*
X62738000Y-61468000D01*
X84582000Y-68580000D02*
X77470000Y-61468000D01*
X99283963Y-69088500D02*
X98775463Y-68580000D01*
X101071000Y-68855000D02*
X100837500Y-69088500D01*
X101920000Y-68855000D02*
X101071000Y-68855000D01*
X100837500Y-69088500D02*
X99283963Y-69088500D01*
X98775463Y-68580000D02*
X84582000Y-68580000D01*
%TO.N,/S1F*%
X101092000Y-66220500D02*
X102079500Y-66220500D01*
X102079500Y-66220500D02*
X102133200Y-66166800D01*
X102133200Y-66166800D02*
X102949200Y-66166800D01*
%TO.N,/SFH_H*%
X87075000Y-70000000D02*
X87075000Y-71050000D01*
X99060000Y-69596000D02*
X98552000Y-69088000D01*
X100076000Y-69596000D02*
X99060000Y-69596000D01*
X101920000Y-71440000D02*
X100076000Y-69596000D01*
X98552000Y-69088000D02*
X87987000Y-69088000D01*
X87987000Y-69088000D02*
X87075000Y-70000000D01*
%TO.N,Net-(Q3-G)*%
X95995500Y-72570500D02*
X104902000Y-72570500D01*
X93783000Y-70358000D02*
X95995500Y-72570500D01*
X89803182Y-70358000D02*
X93783000Y-70358000D01*
%TO.N,/SFH_L*%
X93248000Y-71150000D02*
X94488000Y-72390000D01*
X88450000Y-71150000D02*
X93248000Y-71150000D01*
%TO.N,Net-(Q3-G)*%
X85668683Y-62159317D02*
X86868000Y-60960000D01*
X85668683Y-63256317D02*
X85668683Y-62159317D01*
D22*
%TO.N,VCC*%
X101903000Y-77978000D02*
X101346000Y-77978000D01*
X103775000Y-79850000D02*
X101903000Y-77978000D01*
D21*
%TO.N,GND*%
X40887500Y-69587500D02*
X40887500Y-70862500D01*
X40887500Y-70862500D02*
X40887500Y-72137500D01*
X39612500Y-70862500D02*
X40887500Y-70862500D01*
X40887500Y-70862500D02*
X42162500Y-70862500D01*
X46075000Y-65700000D02*
X47300000Y-65700000D01*
X45925000Y-65550000D02*
X46075000Y-65700000D01*
D23*
%TO.N,/FF*%
X46782500Y-63707500D02*
X48467500Y-63707500D01*
X46492500Y-63997500D02*
X46782500Y-63707500D01*
X46492500Y-65024668D02*
X46492500Y-63997500D01*
X46501832Y-65034000D02*
X46492500Y-65024668D01*
D21*
%TO.N,GND*%
X38875000Y-69725000D02*
X38125000Y-69725000D01*
X38125000Y-69725000D02*
X38100000Y-69700000D01*
X39012500Y-69587500D02*
X38875000Y-69725000D01*
X39612500Y-69587500D02*
X39012500Y-69587500D01*
%TO.N,/FT*%
X51410000Y-66700000D02*
X53848000Y-64262000D01*
X49000000Y-66700000D02*
X51410000Y-66700000D01*
%TO.N,GND*%
X50730000Y-64700000D02*
X49730000Y-65700000D01*
X49730000Y-65700000D02*
X47300000Y-65700000D01*
%TO.N,/S1F_PF_MCU*%
X47670500Y-64325000D02*
X47225500Y-64770000D01*
X53325000Y-63625000D02*
X49700000Y-63625000D01*
X56900000Y-61000000D02*
X55100000Y-62800000D01*
X49700000Y-63625000D02*
X49000000Y-64325000D01*
X49000000Y-64325000D02*
X47670500Y-64325000D01*
X60238000Y-61000000D02*
X56900000Y-61000000D01*
X60706000Y-61468000D02*
X60238000Y-61000000D01*
X55100000Y-62800000D02*
X54150000Y-62800000D01*
X54150000Y-62800000D02*
X53325000Y-63625000D01*
%TO.N,Net-(D2-K)*%
X43942000Y-62230000D02*
X43942000Y-65042000D01*
X44196000Y-61976000D02*
X43942000Y-62230000D01*
X45212000Y-61976000D02*
X44196000Y-61976000D01*
X45361000Y-62125000D02*
X45212000Y-61976000D01*
X52429000Y-62125000D02*
X45361000Y-62125000D01*
X53340000Y-61214000D02*
X52429000Y-62125000D01*
X54356000Y-61214000D02*
X53340000Y-61214000D01*
X56134000Y-59436000D02*
X54356000Y-61214000D01*
X43942000Y-65042000D02*
X44700000Y-65800000D01*
X81026000Y-59436000D02*
X56134000Y-59436000D01*
X86360000Y-64770000D02*
X81026000Y-59436000D01*
X93472000Y-64770000D02*
X86360000Y-64770000D01*
X103229464Y-62484000D02*
X95758000Y-62484000D01*
X103737464Y-61976000D02*
X103229464Y-62484000D01*
X95758000Y-62484000D02*
X93472000Y-64770000D01*
X105664000Y-61976000D02*
X103737464Y-61976000D01*
X107188000Y-68326000D02*
X107188000Y-63500000D01*
X106934000Y-68580000D02*
X107188000Y-68326000D01*
X107188000Y-63500000D02*
X105664000Y-61976000D01*
%TO.N,/SFH_H*%
X56642000Y-60452000D02*
X80040183Y-60452000D01*
X53895000Y-62230000D02*
X54864000Y-62230000D01*
X53000000Y-63125000D02*
X53895000Y-62230000D01*
X54864000Y-62230000D02*
X56642000Y-60452000D01*
X45577000Y-63125000D02*
X53000000Y-63125000D01*
X80040183Y-60452000D02*
X84074000Y-64485817D01*
X45212000Y-63490000D02*
X45577000Y-63125000D01*
%TO.N,/SFH_L*%
X84836000Y-64262000D02*
X84836000Y-64950500D01*
X56388000Y-59944000D02*
X80518000Y-59944000D01*
X54610000Y-61722000D02*
X56388000Y-59944000D01*
X53653974Y-61722000D02*
X54610000Y-61722000D01*
X52725974Y-62650000D02*
X53653974Y-61722000D01*
X44855500Y-62650000D02*
X52725974Y-62650000D01*
X44746167Y-62759333D02*
X44855500Y-62650000D01*
X80518000Y-59944000D02*
X84836000Y-64262000D01*
%TO.N,Net-(D5-A)*%
X37846000Y-60960000D02*
X36068000Y-62738000D01*
X51698500Y-60823500D02*
X51562000Y-60960000D01*
X51562000Y-60960000D02*
X37846000Y-60960000D01*
%TO.N,/S2*%
X50651500Y-61468000D02*
X43493974Y-61468000D01*
X50725000Y-61541500D02*
X50651500Y-61468000D01*
D23*
%TO.N,+1V1*%
X45500000Y-69825000D02*
X45101456Y-70223544D01*
X45101456Y-70223544D02*
X42942000Y-70223544D01*
X49600000Y-70200000D02*
X49700000Y-70100000D01*
X45875000Y-70200000D02*
X49600000Y-70200000D01*
X45500000Y-69825000D02*
X45875000Y-70200000D01*
%TO.N,/SCL0*%
X40700000Y-65800000D02*
X40700000Y-64250000D01*
X42254162Y-66150000D02*
X41050000Y-66150000D01*
X41050000Y-66150000D02*
X40700000Y-65800000D01*
D21*
%TO.N,+3.3V*%
X34600000Y-69525000D02*
X34600000Y-69700000D01*
X34114545Y-69039545D02*
X34600000Y-69525000D01*
X33000000Y-69039545D02*
X34114545Y-69039545D01*
D24*
%TO.N,/USB_D-*%
X32950000Y-72225000D02*
X27150000Y-78025000D01*
X32950000Y-70054302D02*
X32950000Y-72225000D01*
X32165132Y-69269434D02*
X32950000Y-70054302D01*
X32165132Y-68809656D02*
X32165132Y-69269434D01*
X33917001Y-67057787D02*
X32165132Y-68809656D01*
X33917001Y-64954999D02*
X33917001Y-67057787D01*
X34072000Y-64800000D02*
X33917001Y-64954999D01*
%TO.N,/USB_D+*%
X32500019Y-72038584D02*
X29053603Y-75485000D01*
X32500019Y-70240691D02*
X32500019Y-72038584D01*
X31715151Y-69455823D02*
X32500019Y-70240691D01*
X31715151Y-68623268D02*
X31715151Y-69455823D01*
X33466999Y-66871420D02*
X31715151Y-68623268D01*
X29053603Y-75485000D02*
X27150000Y-75485000D01*
X33466999Y-64954999D02*
X33466999Y-66871420D01*
X33312000Y-64800000D02*
X33466999Y-64954999D01*
X33312000Y-64800000D02*
X33312000Y-64923603D01*
D21*
%TO.N,GND*%
X38100000Y-69700000D02*
X37084000Y-69700000D01*
%TO.N,/S1F_FPC*%
X103050800Y-64033200D02*
X103050800Y-65049200D01*
%TO.N,/S1T*%
X97028000Y-64516000D02*
X97028000Y-65532000D01*
%TO.N,/S1T-3*%
X90678000Y-67818000D02*
X97028000Y-67818000D01*
%TO.N,/SOL2_MCU*%
X53612000Y-67800000D02*
X45425000Y-67800000D01*
X59182000Y-62230000D02*
X53612000Y-67800000D01*
X62230000Y-60960000D02*
X60960000Y-62230000D01*
X79502000Y-60960000D02*
X62230000Y-60960000D01*
X84074000Y-65532000D02*
X79502000Y-60960000D01*
X60960000Y-62230000D02*
X59182000Y-62230000D01*
X93726000Y-65532000D02*
X84074000Y-65532000D01*
X103978000Y-63172000D02*
X96086000Y-63172000D01*
X96086000Y-63172000D02*
X93726000Y-65532000D01*
X104325000Y-62825000D02*
X103978000Y-63172000D01*
%TO.N,/LED2*%
X57912000Y-62484000D02*
X53340000Y-67056000D01*
X57912000Y-61976000D02*
X57912000Y-62484000D01*
%TO.N,/S1T*%
X95504000Y-65532000D02*
X97028000Y-65532000D01*
X94742000Y-66294000D02*
X95504000Y-65532000D01*
X83566000Y-66294000D02*
X94742000Y-66294000D01*
X78867000Y-61595000D02*
X83566000Y-66294000D01*
%TO.N,/LED1*%
X57150000Y-61976000D02*
X57150000Y-62230000D01*
X57150000Y-62230000D02*
X52578000Y-66802000D01*
D23*
%TO.N,/S2*%
X43493974Y-61916026D02*
X43493974Y-61468000D01*
X43325785Y-62084215D02*
X43493974Y-61916026D01*
X43325785Y-65923652D02*
X43325785Y-62084215D01*
X43290162Y-65959275D02*
X43325785Y-65923652D01*
D21*
X35560000Y-63754000D02*
X37338000Y-63754000D01*
X37338000Y-63754000D02*
X39624000Y-61468000D01*
X39624000Y-61468000D02*
X43493974Y-61468000D01*
X35024200Y-63218200D02*
X35560000Y-63754000D01*
X35024200Y-62484000D02*
X35024200Y-63218200D01*
%TO.N,/S1F_FPC*%
X101600000Y-64262000D02*
X101854000Y-64008000D01*
X101854000Y-64008000D02*
X103025600Y-64008000D01*
X103025600Y-64008000D02*
X103050800Y-64033200D01*
X100838000Y-65024000D02*
X101600000Y-65024000D01*
X101600000Y-65024000D02*
X101625200Y-65049200D01*
X101625200Y-65049200D02*
X103050800Y-65049200D01*
X104648000Y-64516000D02*
X104165200Y-64033200D01*
X104165200Y-64033200D02*
X103050800Y-64033200D01*
X104648000Y-68072000D02*
X104648000Y-64516000D01*
X106680000Y-70104000D02*
X104648000Y-68072000D01*
X107696000Y-70104000D02*
X106680000Y-70104000D01*
%TO.N,/S1F-3*%
X96774000Y-76962000D02*
X93963000Y-76962000D01*
X93963000Y-76962000D02*
X88702500Y-82222500D01*
X88702500Y-82222500D02*
X60706000Y-82222500D01*
%TO.N,/S1F_PF_MCU*%
X85598000Y-60198000D02*
X88138000Y-60198000D01*
X90678000Y-62738000D02*
X88138000Y-60198000D01*
X93472000Y-62738000D02*
X90678000Y-62738000D01*
%TO.N,VCC*%
X86329817Y-62424683D02*
X86329817Y-63530183D01*
X87839250Y-60915250D02*
X86329817Y-62424683D01*
%TO.N,/S2*%
X92710000Y-60706000D02*
X92710000Y-59182000D01*
X93726000Y-61722000D02*
X92710000Y-60706000D01*
X99314000Y-61722000D02*
X93726000Y-61722000D01*
%TO.N,/S1T*%
X97028000Y-64516000D02*
X97028000Y-63754000D01*
%TO.N,/S4A_3*%
X89662000Y-83820000D02*
X46736000Y-83820000D01*
X46736000Y-83820000D02*
X46228000Y-84328000D01*
X46228000Y-84328000D02*
X44450000Y-84328000D01*
X44450000Y-84328000D02*
X42672000Y-82550000D01*
X92456000Y-81026000D02*
X89662000Y-83820000D01*
%TO.N,/SOL1_MCU*%
X57658000Y-81137573D02*
X59578427Y-83058000D01*
X59578427Y-83058000D02*
X89117000Y-83058000D01*
X57658000Y-78486000D02*
X57658000Y-81137573D01*
X89117000Y-83058000D02*
X93375000Y-78800000D01*
%TO.N,/S9-3*%
X93625000Y-76200000D02*
X103886000Y-76200000D01*
X88291000Y-81534000D02*
X93625000Y-76200000D01*
X62738000Y-81534000D02*
X88291000Y-81534000D01*
%TO.N,/S8-3*%
X93412000Y-75438000D02*
X105664000Y-75438000D01*
X62103000Y-80899000D02*
X62230000Y-80772000D01*
X62230000Y-80772000D02*
X88078000Y-80772000D01*
X88078000Y-80772000D02*
X93412000Y-75438000D01*
%TO.N,Net-(U1-GPIO5)*%
X106172000Y-74676000D02*
X108458000Y-76962000D01*
X93218000Y-74676000D02*
X106172000Y-74676000D01*
X87884000Y-80010000D02*
X93218000Y-74676000D01*
X81534000Y-80010000D02*
X87884000Y-80010000D01*
X108458000Y-76962000D02*
X111506000Y-76962000D01*
%TO.N,/S5*%
X112376927Y-76200000D02*
X112933427Y-76756500D01*
X108966000Y-76200000D02*
X112376927Y-76200000D01*
X106680000Y-73914000D02*
X108966000Y-76200000D01*
X92837000Y-73914000D02*
X106680000Y-73914000D01*
X87503000Y-79248000D02*
X92837000Y-73914000D01*
X81280000Y-79248000D02*
X87503000Y-79248000D01*
X112933427Y-76756500D02*
X112981500Y-76756500D01*
X81026000Y-79502000D02*
X81280000Y-79248000D01*
%TO.N,VBUS*%
X46500000Y-81700000D02*
X51175000Y-81700000D01*
X44923000Y-83277000D02*
X46500000Y-81700000D01*
X51600000Y-81275000D02*
X51600000Y-76715000D01*
X51175000Y-81700000D02*
X51600000Y-81275000D01*
%TO.N,/S3*%
X112513000Y-75438000D02*
X113914500Y-76839500D01*
X109474000Y-75438000D02*
X112513000Y-75438000D01*
X107188000Y-73152000D02*
X109474000Y-75438000D01*
X80965634Y-78740000D02*
X86868000Y-78740000D01*
X92456000Y-73152000D02*
X107188000Y-73152000D01*
X79979817Y-79725817D02*
X80965634Y-78740000D01*
X86868000Y-78740000D02*
X92456000Y-73152000D01*
%TO.N,/S4A_3*%
X46482000Y-80518000D02*
X46482000Y-75946000D01*
X44450000Y-82550000D02*
X46482000Y-80518000D01*
X42672000Y-82550000D02*
X44450000Y-82550000D01*
%TO.N,/S1T-3*%
X97028000Y-66548000D02*
X97028000Y-67818000D01*
D25*
%TO.N,/S8-3*%
X119380000Y-68834000D02*
X119380000Y-67818000D01*
X118110000Y-70104000D02*
X119380000Y-68834000D01*
X107950000Y-77724000D02*
X116332000Y-77724000D01*
X105664000Y-75438000D02*
X107950000Y-77724000D01*
X116332000Y-77724000D02*
X118110000Y-75946000D01*
X118110000Y-75946000D02*
X118110000Y-70104000D01*
%TO.N,/S9-3*%
X118834500Y-75983500D02*
X118834500Y-71882000D01*
X105918000Y-78232000D02*
X116586000Y-78232000D01*
X103886000Y-76200000D02*
X105918000Y-78232000D01*
X116586000Y-78232000D02*
X118834500Y-75983500D01*
D23*
%TO.N,/SDA0*%
X42672000Y-65532000D02*
X42600000Y-65460000D01*
X42600000Y-65460000D02*
X42600000Y-64250000D01*
D21*
%TO.N,GND*%
X50681500Y-68500000D02*
X50800000Y-68381500D01*
X48400000Y-68500000D02*
X50681500Y-68500000D01*
D22*
%TO.N,VCC*%
X111300000Y-66025000D02*
X111300000Y-72850000D01*
X111300000Y-72850000D02*
X110490000Y-73660000D01*
X110959400Y-65684400D02*
X111300000Y-66025000D01*
D23*
%TO.N,+1V1*%
X35045000Y-70953000D02*
X38674500Y-70953000D01*
X38674500Y-70953000D02*
X38833000Y-71111500D01*
D21*
%TO.N,GND*%
X37400000Y-68500000D02*
X37084000Y-68816000D01*
X37084000Y-68816000D02*
X37084000Y-69700000D01*
X41300000Y-68500000D02*
X37400000Y-68500000D01*
X41650000Y-68150000D02*
X41300000Y-68500000D01*
X41650000Y-67350000D02*
X41650000Y-68150000D01*
D26*
%TO.N,+3.3V*%
X34400000Y-74300000D02*
X33600000Y-73500000D01*
X34600000Y-69700000D02*
X36068000Y-69700000D01*
D23*
X41900000Y-73561251D02*
X41887705Y-73548956D01*
D26*
X33600000Y-70700000D02*
X34600000Y-69700000D01*
X36900000Y-74362500D02*
X36837500Y-74300000D01*
D21*
X41667500Y-75332500D02*
X41900000Y-75100000D01*
D26*
X36837500Y-74300000D02*
X34400000Y-74300000D01*
D23*
X42600000Y-67350000D02*
X42600000Y-68500000D01*
D26*
X36068000Y-69700000D02*
X36068000Y-68432000D01*
X33600000Y-73500000D02*
X33600000Y-70700000D01*
X36068000Y-68432000D02*
X36223996Y-68276004D01*
D21*
X41900000Y-75100000D02*
X41900000Y-73561251D01*
X41667500Y-76732500D02*
X41667500Y-75332500D01*
%TO.N,/~{USB_BOOT}*%
X54175000Y-82300000D02*
X55200000Y-81275000D01*
X45650000Y-83525000D02*
X46875000Y-82300000D01*
X55200000Y-81275000D02*
X55200000Y-76715000D01*
X46875000Y-82300000D02*
X54175000Y-82300000D01*
%TO.N,/S9-3*%
X39582000Y-78382000D02*
X39582000Y-75732000D01*
X40250000Y-79050000D02*
X39582000Y-78382000D01*
X43300000Y-79050000D02*
X40250000Y-79050000D01*
X43437500Y-78912500D02*
X43300000Y-79050000D01*
X39582000Y-75732000D02*
X39550000Y-75700000D01*
%TO.N,/GTD-3*%
X37300000Y-80200000D02*
X36800000Y-80200000D01*
X37800000Y-79700000D02*
X37300000Y-80200000D01*
X36800000Y-80200000D02*
X35700000Y-81300000D01*
X37800000Y-75150000D02*
X37800000Y-79700000D01*
%TO.N,/GTD-6*%
X45232086Y-80720470D02*
X41354530Y-80720470D01*
X41354530Y-80720470D02*
X38975000Y-83100000D01*
X38975000Y-83100000D02*
X37700000Y-83100000D01*
D23*
%TO.N,/SCL0*%
X40700000Y-63500000D02*
X40700000Y-64250000D01*
X40050000Y-63350000D02*
X40550000Y-63350000D01*
X40550000Y-63350000D02*
X40700000Y-63500000D01*
%TO.N,/SDA0*%
X42227000Y-63100000D02*
X42600000Y-63473000D01*
X40481224Y-62600000D02*
X40981224Y-63100000D01*
X40981224Y-63100000D02*
X42227000Y-63100000D01*
X40000000Y-62600000D02*
X40481224Y-62600000D01*
X42600000Y-63473000D02*
X42600000Y-64250000D01*
D21*
%TO.N,/S1T-3*%
X45000000Y-80050000D02*
X44850000Y-80200000D01*
X38400000Y-79050000D02*
X38400000Y-75700000D01*
X44850000Y-80200000D02*
X39550000Y-80200000D01*
X39550000Y-80200000D02*
X38400000Y-79050000D01*
%TO.N,/S1F-3*%
X39000000Y-78700000D02*
X39000000Y-76150000D01*
X43950000Y-79650000D02*
X39950000Y-79650000D01*
X39950000Y-79650000D02*
X39000000Y-78700000D01*
X44075000Y-79525000D02*
X43950000Y-79650000D01*
%TD*%
%TA.AperFunction,Conductor*%
%TO.N,GND*%
G36*
X97044141Y-58019042D02*
G01*
X97092480Y-58051341D01*
X97709644Y-58668506D01*
X97722878Y-58684632D01*
X97725844Y-58687598D01*
X97733998Y-58699801D01*
X97754915Y-58713777D01*
X97754916Y-58713778D01*
X97816859Y-58755166D01*
X97914599Y-58774609D01*
X97928992Y-58771746D01*
X97933179Y-58771746D01*
X97953954Y-58769700D01*
X114533099Y-58769700D01*
X114590119Y-58781042D01*
X114638458Y-58813341D01*
X114670757Y-58861680D01*
X114682099Y-58918700D01*
X114682099Y-61275739D01*
X114680768Y-61289930D01*
X114680676Y-61297228D01*
X114678255Y-61310030D01*
X114680357Y-61322886D01*
X114680357Y-61322889D01*
X114682071Y-61333370D01*
X114682099Y-61333584D01*
X114682099Y-61337874D01*
X114683526Y-61345050D01*
X114683527Y-61345059D01*
X114685570Y-61355331D01*
X114686488Y-61360405D01*
X114708738Y-61496841D01*
X114708740Y-61496854D01*
X114709364Y-61500675D01*
X114710382Y-61504415D01*
X114710385Y-61504425D01*
X114785648Y-61780712D01*
X114787686Y-61788193D01*
X114789088Y-61791811D01*
X114789089Y-61791812D01*
X114837024Y-61915456D01*
X114895403Y-62066038D01*
X114897166Y-62069478D01*
X114897172Y-62069490D01*
X114966155Y-62204046D01*
X115031351Y-62331215D01*
X115078937Y-62404225D01*
X115174286Y-62550517D01*
X115194066Y-62580864D01*
X115196496Y-62583860D01*
X115196497Y-62583861D01*
X115288879Y-62697750D01*
X115381792Y-62812293D01*
X115592506Y-63023007D01*
X115823935Y-63210733D01*
X116073584Y-63373448D01*
X116077021Y-63375210D01*
X116331914Y-63505887D01*
X116338761Y-63509397D01*
X116616606Y-63617113D01*
X116904124Y-63695436D01*
X117044498Y-63718327D01*
X117049491Y-63719231D01*
X117066925Y-63722700D01*
X117071218Y-63722700D01*
X117071417Y-63722726D01*
X117094769Y-63726544D01*
X117107575Y-63724120D01*
X117114868Y-63724030D01*
X117129060Y-63722700D01*
X120883099Y-63722700D01*
X120940119Y-63734042D01*
X120988458Y-63766341D01*
X121020757Y-63814680D01*
X121032099Y-63871700D01*
X121032099Y-79455700D01*
X121020757Y-79512720D01*
X120988458Y-79561059D01*
X120940119Y-79593358D01*
X120883099Y-79604700D01*
X109887286Y-79604700D01*
X109868635Y-79603080D01*
X109865116Y-79603084D01*
X109852275Y-79600837D01*
X109839439Y-79603116D01*
X109839437Y-79603117D01*
X109830528Y-79604700D01*
X109830248Y-79603129D01*
X109829251Y-79603130D01*
X109827704Y-79603611D01*
X109827920Y-79604700D01*
X109821604Y-79605957D01*
X109807355Y-79608791D01*
X109804332Y-79609360D01*
X109656789Y-79635548D01*
X109656786Y-79635548D01*
X109652953Y-79636229D01*
X109649212Y-79637305D01*
X109649206Y-79637307D01*
X109385923Y-79713080D01*
X109348762Y-79723775D01*
X109345169Y-79725229D01*
X109345153Y-79725235D01*
X109058962Y-79841088D01*
X109058945Y-79841095D01*
X109055353Y-79842550D01*
X109051926Y-79844373D01*
X109051917Y-79844378D01*
X108779354Y-79989433D01*
X108779339Y-79989441D01*
X108775921Y-79991261D01*
X108772704Y-79993430D01*
X108772691Y-79993439D01*
X108516736Y-80166111D01*
X108516722Y-80166120D01*
X108513512Y-80168287D01*
X108510542Y-80170777D01*
X108510534Y-80170784D01*
X108275237Y-80368133D01*
X108270984Y-80371700D01*
X108268280Y-80374496D01*
X108268279Y-80374498D01*
X108053681Y-80596488D01*
X108053672Y-80596497D01*
X108050979Y-80599284D01*
X108048582Y-80602345D01*
X108048580Y-80602349D01*
X107858294Y-80845491D01*
X107858286Y-80845501D01*
X107855893Y-80848560D01*
X107853828Y-80851855D01*
X107853824Y-80851862D01*
X107689915Y-81113516D01*
X107689906Y-81113531D01*
X107687852Y-81116811D01*
X107686148Y-81120290D01*
X107686143Y-81120301D01*
X107550399Y-81397615D01*
X107550390Y-81397634D01*
X107548686Y-81401117D01*
X107547348Y-81404771D01*
X107547346Y-81404778D01*
X107441250Y-81694721D01*
X107441247Y-81694730D01*
X107439912Y-81698379D01*
X107438967Y-81702136D01*
X107438962Y-81702153D01*
X107363662Y-82001587D01*
X107363659Y-82001601D01*
X107362714Y-82005360D01*
X107362163Y-82009209D01*
X107362163Y-82009214D01*
X107318483Y-82314860D01*
X107318481Y-82314877D01*
X107317933Y-82318715D01*
X107317787Y-82322600D01*
X107317787Y-82322602D01*
X107309562Y-82541684D01*
X107306057Y-82635031D01*
X107306317Y-82638915D01*
X107306318Y-82638927D01*
X107313623Y-82747718D01*
X107305308Y-82807729D01*
X107273789Y-82859469D01*
X107224277Y-82894383D01*
X107164958Y-82906700D01*
X93889949Y-82906700D01*
X93869186Y-82904655D01*
X93864992Y-82904655D01*
X93850599Y-82901792D01*
X93836206Y-82904655D01*
X93825925Y-82906700D01*
X93767249Y-82918371D01*
X93767246Y-82918372D01*
X93752859Y-82921234D01*
X93740663Y-82929382D01*
X93740660Y-82929384D01*
X93682199Y-82968446D01*
X93682196Y-82968448D01*
X93669998Y-82976599D01*
X93661847Y-82988797D01*
X93661845Y-82988800D01*
X93622783Y-83047261D01*
X93622781Y-83047264D01*
X93614633Y-83059460D01*
X93611771Y-83073847D01*
X93611770Y-83073850D01*
X93600387Y-83131080D01*
X93595191Y-83157200D01*
X93598054Y-83171593D01*
X93598054Y-83175787D01*
X93600099Y-83196550D01*
X93600099Y-85170700D01*
X93588757Y-85227720D01*
X93556458Y-85276059D01*
X93508119Y-85308358D01*
X93451099Y-85319700D01*
X30369099Y-85319700D01*
X30312079Y-85308358D01*
X30263740Y-85276059D01*
X30231441Y-85227720D01*
X30220099Y-85170700D01*
X30220099Y-82024826D01*
X30220309Y-82016909D01*
X30220718Y-82009214D01*
X30222092Y-81983401D01*
X30215017Y-81960194D01*
X30211403Y-81945809D01*
X30208428Y-81930853D01*
X30205565Y-81916460D01*
X30198746Y-81906254D01*
X30197181Y-81901893D01*
X30168759Y-81808782D01*
X30158601Y-81775504D01*
X30155101Y-81767218D01*
X30119777Y-81683579D01*
X30023824Y-81456385D01*
X29856736Y-81152933D01*
X29659132Y-80868408D01*
X29642358Y-80848922D01*
X29539290Y-80729187D01*
X29433136Y-80605868D01*
X29430268Y-80603162D01*
X29183988Y-80370786D01*
X29183985Y-80370783D01*
X29181176Y-80368133D01*
X29178112Y-80365791D01*
X29178104Y-80365784D01*
X28909028Y-80160103D01*
X28909025Y-80160101D01*
X28905960Y-80157758D01*
X28885641Y-80145330D01*
X28613740Y-79979019D01*
X28613739Y-79979018D01*
X28610444Y-79977003D01*
X28606966Y-79975343D01*
X28606960Y-79975340D01*
X28326868Y-79841681D01*
X28297805Y-79827812D01*
X28294180Y-79826523D01*
X28294167Y-79826518D01*
X28008068Y-79724820D01*
X27971401Y-79711786D01*
X27967667Y-79710880D01*
X27967651Y-79710876D01*
X27796165Y-79669305D01*
X27732820Y-79636342D01*
X27692087Y-79577690D01*
X27683321Y-79506822D01*
X27708537Y-79440014D01*
X27761941Y-79392610D01*
X27831268Y-79375499D01*
X28047872Y-79375499D01*
X28107483Y-79369091D01*
X28242331Y-79318796D01*
X28357546Y-79232546D01*
X28443796Y-79117331D01*
X28494091Y-78982483D01*
X28500500Y-78922873D01*
X28500499Y-77585451D01*
X28511841Y-77528432D01*
X28544137Y-77480096D01*
X32503014Y-73521220D01*
X32559268Y-73485904D01*
X32625282Y-73478544D01*
X32687935Y-73500603D01*
X32734777Y-73547698D01*
X32756497Y-73610469D01*
X32763611Y-73675879D01*
X32763614Y-73675893D01*
X32764486Y-73683910D01*
X32767061Y-73691553D01*
X32767540Y-73693728D01*
X32767685Y-73694543D01*
X32767912Y-73695512D01*
X32768148Y-73696319D01*
X32768683Y-73698471D01*
X32769773Y-73706468D01*
X32772557Y-73714046D01*
X32772558Y-73714050D01*
X32797004Y-73780594D01*
X32798342Y-73784395D01*
X32820975Y-73851563D01*
X32820977Y-73851567D01*
X32823556Y-73859221D01*
X32827719Y-73866141D01*
X32828645Y-73868142D01*
X32828970Y-73868927D01*
X32829391Y-73869805D01*
X32829790Y-73870534D01*
X32830782Y-73872534D01*
X32833568Y-73880116D01*
X32837919Y-73886923D01*
X32876095Y-73946650D01*
X32878218Y-73950072D01*
X32918930Y-74017736D01*
X32924487Y-74023603D01*
X32925826Y-74025364D01*
X32926306Y-74026051D01*
X32926916Y-74026832D01*
X32927467Y-74027463D01*
X32928848Y-74029182D01*
X32933200Y-74035989D01*
X32938910Y-74041699D01*
X32989027Y-74091816D01*
X32991841Y-74094707D01*
X33046151Y-74152041D01*
X33052831Y-74156570D01*
X33054518Y-74158003D01*
X33063417Y-74166206D01*
X33769882Y-74872670D01*
X33778075Y-74881557D01*
X33811663Y-74921100D01*
X33837390Y-74940657D01*
X33874510Y-74968875D01*
X33877690Y-74971361D01*
X33926427Y-75010538D01*
X33939246Y-75020842D01*
X33946488Y-75024433D01*
X33948342Y-75025618D01*
X33949022Y-75026092D01*
X33949893Y-75026633D01*
X33950638Y-75027041D01*
X33952502Y-75028162D01*
X33958936Y-75033054D01*
X34030597Y-75066207D01*
X34034210Y-75067938D01*
X34039199Y-75070413D01*
X34097737Y-75099446D01*
X34097742Y-75099448D01*
X34104979Y-75103037D01*
X34112823Y-75104987D01*
X34114867Y-75105738D01*
X34115652Y-75106063D01*
X34116615Y-75106402D01*
X34117418Y-75106637D01*
X34119497Y-75107337D01*
X34126833Y-75110732D01*
X34203991Y-75127715D01*
X34207863Y-75128623D01*
X34284506Y-75147684D01*
X34292586Y-75147902D01*
X34294768Y-75148200D01*
X34295584Y-75148345D01*
X34296586Y-75148468D01*
X34297433Y-75148525D01*
X34299603Y-75148761D01*
X34307503Y-75150500D01*
X34386466Y-75150500D01*
X34390499Y-75150554D01*
X34469432Y-75152693D01*
X34477365Y-75151170D01*
X34479574Y-75150991D01*
X34491663Y-75150500D01*
X36424244Y-75150500D01*
X36484848Y-75163382D01*
X36620197Y-75223644D01*
X36805354Y-75263000D01*
X36813165Y-75263000D01*
X36933403Y-75263000D01*
X36992987Y-75275432D01*
X37042628Y-75310655D01*
X37074042Y-75362789D01*
X37112246Y-75471973D01*
X37112248Y-75471978D01*
X37115011Y-75479873D01*
X37119461Y-75486956D01*
X37119463Y-75486959D01*
X37149662Y-75535020D01*
X37166677Y-75573045D01*
X37172500Y-75614293D01*
X37172500Y-79378363D01*
X37161158Y-79435383D01*
X37128859Y-79483722D01*
X37083722Y-79528859D01*
X37035383Y-79561158D01*
X36978363Y-79572500D01*
X36877132Y-79572500D01*
X36867176Y-79572030D01*
X36859523Y-79570320D01*
X36850156Y-79570614D01*
X36850154Y-79570614D01*
X36792463Y-79572427D01*
X36787784Y-79572500D01*
X36760524Y-79572500D01*
X36755879Y-79573086D01*
X36751212Y-79573380D01*
X36751211Y-79573368D01*
X36743701Y-79573958D01*
X36710430Y-79575004D01*
X36710426Y-79575004D01*
X36701057Y-79575299D01*
X36692060Y-79577912D01*
X36692052Y-79577914D01*
X36683604Y-79580369D01*
X36660722Y-79585107D01*
X36652015Y-79586207D01*
X36652006Y-79586209D01*
X36642707Y-79587384D01*
X36633989Y-79590835D01*
X36633987Y-79590836D01*
X36603051Y-79603084D01*
X36589777Y-79607629D01*
X36557812Y-79616916D01*
X36557810Y-79616916D01*
X36548809Y-79619532D01*
X36540743Y-79624301D01*
X36540734Y-79624306D01*
X36533173Y-79628778D01*
X36512184Y-79639060D01*
X36504022Y-79642291D01*
X36504011Y-79642296D01*
X36495297Y-79645747D01*
X36487712Y-79651257D01*
X36487704Y-79651262D01*
X36460793Y-79670814D01*
X36449066Y-79678518D01*
X36420413Y-79695463D01*
X36420402Y-79695470D01*
X36412344Y-79700237D01*
X36399496Y-79713083D01*
X36381731Y-79728257D01*
X36374616Y-79733426D01*
X36374609Y-79733431D01*
X36367033Y-79738937D01*
X36361059Y-79746156D01*
X36361061Y-79746156D01*
X36339847Y-79771798D01*
X36330402Y-79782177D01*
X35589701Y-80522878D01*
X35556431Y-80547919D01*
X35530487Y-80557827D01*
X35530822Y-80558782D01*
X35378026Y-80612246D01*
X35378018Y-80612249D01*
X35370127Y-80615011D01*
X35363047Y-80619459D01*
X35363040Y-80619463D01*
X35233057Y-80701137D01*
X35233052Y-80701140D01*
X35225973Y-80705589D01*
X35220060Y-80711501D01*
X35220056Y-80711505D01*
X35111505Y-80820056D01*
X35111501Y-80820060D01*
X35105589Y-80825973D01*
X35101140Y-80833052D01*
X35101137Y-80833057D01*
X35019463Y-80963040D01*
X35019459Y-80963047D01*
X35015011Y-80970127D01*
X35012249Y-80978018D01*
X35012246Y-80978026D01*
X34962463Y-81120301D01*
X34958782Y-81130822D01*
X34957845Y-81139133D01*
X34957844Y-81139140D01*
X34941350Y-81285533D01*
X34939720Y-81300000D01*
X34940657Y-81308316D01*
X34957844Y-81460859D01*
X34957845Y-81460864D01*
X34958782Y-81469178D01*
X34961546Y-81477077D01*
X35012246Y-81621973D01*
X35012248Y-81621978D01*
X35015011Y-81629873D01*
X35019461Y-81636956D01*
X35019463Y-81636959D01*
X35099155Y-81763787D01*
X35105589Y-81774027D01*
X35225973Y-81894411D01*
X35370127Y-81984989D01*
X35530822Y-82041218D01*
X35700000Y-82060280D01*
X35869178Y-82041218D01*
X36029873Y-81984989D01*
X36174027Y-81894411D01*
X36294411Y-81774027D01*
X36384989Y-81629873D01*
X36441218Y-81469178D01*
X36442176Y-81469513D01*
X36452059Y-81443604D01*
X36477117Y-81410300D01*
X37016277Y-80871141D01*
X37064617Y-80838842D01*
X37121637Y-80827500D01*
X37222868Y-80827500D01*
X37232823Y-80827969D01*
X37240477Y-80829680D01*
X37307536Y-80827573D01*
X37312216Y-80827500D01*
X37334785Y-80827500D01*
X37339476Y-80827500D01*
X37344131Y-80826911D01*
X37348797Y-80826618D01*
X37348797Y-80826631D01*
X37356294Y-80826040D01*
X37398943Y-80824701D01*
X37416380Y-80819634D01*
X37439288Y-80814890D01*
X37457293Y-80812616D01*
X37496972Y-80796905D01*
X37510209Y-80792373D01*
X37551191Y-80780468D01*
X37566815Y-80771226D01*
X37587818Y-80760937D01*
X37604703Y-80754253D01*
X37639219Y-80729173D01*
X37650919Y-80721487D01*
X37687656Y-80699763D01*
X37700503Y-80686915D01*
X37718273Y-80671737D01*
X37732967Y-80661063D01*
X37760158Y-80628192D01*
X37769584Y-80617833D01*
X38189186Y-80198231D01*
X38196537Y-80191543D01*
X38203162Y-80187340D01*
X38249122Y-80138395D01*
X38252317Y-80135100D01*
X38271623Y-80115796D01*
X38274499Y-80112087D01*
X38277600Y-80108570D01*
X38277610Y-80108579D01*
X38282488Y-80102864D01*
X38311693Y-80071767D01*
X38311692Y-80071767D01*
X38311695Y-80071765D01*
X38313189Y-80073168D01*
X38349713Y-80040697D01*
X38410834Y-80022144D01*
X38474107Y-80030889D01*
X38527905Y-80065324D01*
X39051754Y-80589173D01*
X39058457Y-80596539D01*
X39062660Y-80603162D01*
X39069492Y-80609578D01*
X39069494Y-80609580D01*
X39111551Y-80649074D01*
X39114903Y-80652322D01*
X39134205Y-80671624D01*
X39137899Y-80674490D01*
X39141417Y-80677591D01*
X39141409Y-80677600D01*
X39147145Y-80682499D01*
X39169040Y-80703061D01*
X39178233Y-80711693D01*
X39190098Y-80718215D01*
X39194147Y-80720442D01*
X39213685Y-80733274D01*
X39228038Y-80744408D01*
X39236640Y-80748130D01*
X39236643Y-80748132D01*
X39267175Y-80761344D01*
X39279785Y-80767521D01*
X39317166Y-80788072D01*
X39326244Y-80790402D01*
X39326245Y-80790403D01*
X39334748Y-80792586D01*
X39356872Y-80800160D01*
X39373542Y-80807374D01*
X39415667Y-80814045D01*
X39429413Y-80816891D01*
X39470728Y-80827500D01*
X39488887Y-80827500D01*
X39512196Y-80829335D01*
X39520865Y-80830708D01*
X39520872Y-80830708D01*
X39530133Y-80832175D01*
X39572594Y-80828161D01*
X39586618Y-80827500D01*
X40000363Y-80827500D01*
X40068008Y-80843740D01*
X40120907Y-80888920D01*
X40147529Y-80953191D01*
X40142070Y-81022544D01*
X40105722Y-81081859D01*
X38758722Y-82428859D01*
X38710383Y-82461158D01*
X38653363Y-82472500D01*
X38164293Y-82472500D01*
X38123045Y-82466677D01*
X38085020Y-82449662D01*
X38036959Y-82419463D01*
X38036956Y-82419461D01*
X38029873Y-82415011D01*
X38021978Y-82412248D01*
X38021973Y-82412246D01*
X37877077Y-82361546D01*
X37869178Y-82358782D01*
X37860864Y-82357845D01*
X37860859Y-82357844D01*
X37708316Y-82340657D01*
X37700000Y-82339720D01*
X37691684Y-82340657D01*
X37539140Y-82357844D01*
X37539133Y-82357845D01*
X37530822Y-82358782D01*
X37522924Y-82361545D01*
X37522922Y-82361546D01*
X37378026Y-82412246D01*
X37378018Y-82412249D01*
X37370127Y-82415011D01*
X37363047Y-82419459D01*
X37363040Y-82419463D01*
X37233057Y-82501137D01*
X37233052Y-82501140D01*
X37225973Y-82505589D01*
X37220060Y-82511501D01*
X37220056Y-82511505D01*
X37111505Y-82620056D01*
X37111501Y-82620060D01*
X37105589Y-82625973D01*
X37101140Y-82633052D01*
X37101137Y-82633057D01*
X37019463Y-82763040D01*
X37019459Y-82763047D01*
X37015011Y-82770127D01*
X37012249Y-82778018D01*
X37012246Y-82778026D01*
X36962137Y-82921234D01*
X36958782Y-82930822D01*
X36957845Y-82939133D01*
X36957844Y-82939140D01*
X36945662Y-83047261D01*
X36939720Y-83100000D01*
X36940657Y-83108316D01*
X36957844Y-83260859D01*
X36957845Y-83260864D01*
X36958782Y-83269178D01*
X36961546Y-83277077D01*
X37012246Y-83421973D01*
X37012248Y-83421978D01*
X37015011Y-83429873D01*
X37019461Y-83436956D01*
X37019463Y-83436959D01*
X37092904Y-83553839D01*
X37105589Y-83574027D01*
X37225973Y-83694411D01*
X37370127Y-83784989D01*
X37530822Y-83841218D01*
X37700000Y-83860280D01*
X37869178Y-83841218D01*
X38029873Y-83784989D01*
X38085018Y-83750338D01*
X38123045Y-83733323D01*
X38164293Y-83727500D01*
X38897868Y-83727500D01*
X38907823Y-83727969D01*
X38915477Y-83729680D01*
X38982536Y-83727573D01*
X38987216Y-83727500D01*
X39009785Y-83727500D01*
X39014476Y-83727500D01*
X39019131Y-83726911D01*
X39023797Y-83726618D01*
X39023797Y-83726631D01*
X39031294Y-83726040D01*
X39073943Y-83724701D01*
X39091380Y-83719634D01*
X39114288Y-83714890D01*
X39132293Y-83712616D01*
X39171972Y-83696905D01*
X39185209Y-83692373D01*
X39226191Y-83680468D01*
X39241815Y-83671226D01*
X39262818Y-83660937D01*
X39279703Y-83654253D01*
X39314219Y-83629173D01*
X39325919Y-83621487D01*
X39362656Y-83599763D01*
X39375503Y-83586915D01*
X39393273Y-83571737D01*
X39407967Y-83561063D01*
X39435158Y-83528192D01*
X39444584Y-83517833D01*
X41570807Y-81391611D01*
X41619147Y-81359312D01*
X41676167Y-81347970D01*
X44404893Y-81347970D01*
X44472538Y-81364210D01*
X44525437Y-81409390D01*
X44552059Y-81473661D01*
X44546600Y-81543014D01*
X44510252Y-81602329D01*
X44233722Y-81878859D01*
X44185383Y-81911158D01*
X44128363Y-81922500D01*
X43136293Y-81922500D01*
X43095045Y-81916677D01*
X43057020Y-81899662D01*
X43008959Y-81869463D01*
X43008956Y-81869461D01*
X43001873Y-81865011D01*
X42993978Y-81862248D01*
X42993973Y-81862246D01*
X42849077Y-81811546D01*
X42841178Y-81808782D01*
X42832864Y-81807845D01*
X42832859Y-81807844D01*
X42680316Y-81790657D01*
X42672000Y-81789720D01*
X42663684Y-81790657D01*
X42511140Y-81807844D01*
X42511133Y-81807845D01*
X42502822Y-81808782D01*
X42494924Y-81811545D01*
X42494922Y-81811546D01*
X42350026Y-81862246D01*
X42350018Y-81862249D01*
X42342127Y-81865011D01*
X42335047Y-81869459D01*
X42335040Y-81869463D01*
X42205057Y-81951137D01*
X42205052Y-81951140D01*
X42197973Y-81955589D01*
X42192060Y-81961501D01*
X42192056Y-81961505D01*
X42083505Y-82070056D01*
X42083501Y-82070060D01*
X42077589Y-82075973D01*
X42073140Y-82083052D01*
X42073137Y-82083057D01*
X41991463Y-82213040D01*
X41991459Y-82213047D01*
X41987011Y-82220127D01*
X41984249Y-82228018D01*
X41984246Y-82228026D01*
X41948613Y-82329862D01*
X41930782Y-82380822D01*
X41929845Y-82389133D01*
X41929844Y-82389140D01*
X41916724Y-82505589D01*
X41911720Y-82550000D01*
X41912657Y-82558316D01*
X41929844Y-82710859D01*
X41929845Y-82710864D01*
X41930782Y-82719178D01*
X41933546Y-82727077D01*
X41984246Y-82871973D01*
X41984248Y-82871978D01*
X41987011Y-82879873D01*
X41991461Y-82886956D01*
X41991463Y-82886959D01*
X42019024Y-82930822D01*
X42077589Y-83024027D01*
X42197973Y-83144411D01*
X42342127Y-83234989D01*
X42350025Y-83237752D01*
X42350026Y-83237753D01*
X42502822Y-83291218D01*
X42502486Y-83292175D01*
X42528404Y-83302065D01*
X42561702Y-83327121D01*
X43951754Y-84717173D01*
X43958457Y-84724539D01*
X43962660Y-84731162D01*
X43969492Y-84737578D01*
X43969494Y-84737580D01*
X44011551Y-84777074D01*
X44014912Y-84780331D01*
X44034204Y-84799623D01*
X44037906Y-84802494D01*
X44041418Y-84805590D01*
X44041409Y-84805599D01*
X44047138Y-84810492D01*
X44071396Y-84833273D01*
X44071398Y-84833274D01*
X44078233Y-84839693D01*
X44094150Y-84848443D01*
X44113691Y-84861279D01*
X44128038Y-84872408D01*
X44136641Y-84876131D01*
X44136645Y-84876133D01*
X44167175Y-84889344D01*
X44179785Y-84895521D01*
X44217166Y-84916072D01*
X44226244Y-84918402D01*
X44226245Y-84918403D01*
X44234748Y-84920586D01*
X44256872Y-84928160D01*
X44273542Y-84935374D01*
X44315667Y-84942045D01*
X44329413Y-84944891D01*
X44370728Y-84955500D01*
X44388887Y-84955500D01*
X44412196Y-84957335D01*
X44420865Y-84958708D01*
X44420872Y-84958708D01*
X44430133Y-84960175D01*
X44472594Y-84956161D01*
X44486618Y-84955500D01*
X46150868Y-84955500D01*
X46160823Y-84955969D01*
X46168477Y-84957680D01*
X46235536Y-84955573D01*
X46240216Y-84955500D01*
X46262785Y-84955500D01*
X46267476Y-84955500D01*
X46272131Y-84954911D01*
X46276797Y-84954618D01*
X46276797Y-84954631D01*
X46284294Y-84954040D01*
X46326943Y-84952701D01*
X46344380Y-84947634D01*
X46367288Y-84942890D01*
X46385293Y-84940616D01*
X46424972Y-84924905D01*
X46438209Y-84920373D01*
X46479191Y-84908468D01*
X46494815Y-84899226D01*
X46515818Y-84888937D01*
X46532703Y-84882253D01*
X46567219Y-84857173D01*
X46578919Y-84849487D01*
X46615656Y-84827763D01*
X46628503Y-84814915D01*
X46646273Y-84799737D01*
X46660967Y-84789063D01*
X46688158Y-84756192D01*
X46697596Y-84745822D01*
X46952279Y-84491141D01*
X47000617Y-84458842D01*
X47057637Y-84447500D01*
X89584868Y-84447500D01*
X89594823Y-84447969D01*
X89602477Y-84449680D01*
X89669536Y-84447573D01*
X89674216Y-84447500D01*
X89696785Y-84447500D01*
X89701476Y-84447500D01*
X89706131Y-84446911D01*
X89710797Y-84446618D01*
X89710797Y-84446631D01*
X89718294Y-84446040D01*
X89760943Y-84444701D01*
X89778380Y-84439634D01*
X89801288Y-84434890D01*
X89819293Y-84432616D01*
X89858972Y-84416905D01*
X89872209Y-84412373D01*
X89913191Y-84400468D01*
X89928815Y-84391226D01*
X89949818Y-84380937D01*
X89966703Y-84374253D01*
X90001219Y-84349173D01*
X90012919Y-84341487D01*
X90049656Y-84319763D01*
X90062503Y-84306915D01*
X90080273Y-84291737D01*
X90094967Y-84281063D01*
X90122158Y-84248192D01*
X90131584Y-84237833D01*
X92566300Y-81803117D01*
X92599604Y-81778059D01*
X92625513Y-81768176D01*
X92625178Y-81767218D01*
X92639119Y-81762340D01*
X92785873Y-81710989D01*
X92930027Y-81620411D01*
X93050411Y-81500027D01*
X93140989Y-81355873D01*
X93197218Y-81195178D01*
X93216280Y-81026000D01*
X93197218Y-80856822D01*
X93140989Y-80696127D01*
X93050411Y-80551973D01*
X92930027Y-80431589D01*
X92922945Y-80427139D01*
X92922940Y-80427135D01*
X92904482Y-80415537D01*
X92857595Y-80368647D01*
X92835695Y-80306058D01*
X92843120Y-80240165D01*
X92878397Y-80184020D01*
X93485300Y-79577117D01*
X93518604Y-79552059D01*
X93544513Y-79542176D01*
X93544178Y-79541218D01*
X93642477Y-79506822D01*
X93704873Y-79484989D01*
X93849027Y-79394411D01*
X93969411Y-79274027D01*
X94059989Y-79129873D01*
X94116218Y-78969178D01*
X94135280Y-78800000D01*
X94116218Y-78630822D01*
X94059989Y-78470127D01*
X93969411Y-78325973D01*
X93849027Y-78205589D01*
X93843390Y-78202047D01*
X93804493Y-78154651D01*
X93788106Y-78094617D01*
X93797669Y-78033126D01*
X93831510Y-77980907D01*
X93834417Y-77978000D01*
X100585720Y-77978000D01*
X100586657Y-77986317D01*
X100586657Y-77986322D01*
X100587263Y-77991704D01*
X100587619Y-78004844D01*
X100587649Y-78004843D01*
X100588153Y-78013503D01*
X100587649Y-78022169D01*
X100589155Y-78030715D01*
X100589156Y-78030716D01*
X100595284Y-78065471D01*
X100596610Y-78074657D01*
X100603845Y-78138867D01*
X100603846Y-78138871D01*
X100604782Y-78147178D01*
X100607543Y-78155069D01*
X100607545Y-78155077D01*
X100610684Y-78164048D01*
X100616734Y-78187202D01*
X100616770Y-78187325D01*
X100618277Y-78195866D01*
X100621711Y-78203828D01*
X100621712Y-78203830D01*
X100634951Y-78234523D01*
X100638773Y-78244322D01*
X100661011Y-78307873D01*
X100665459Y-78314952D01*
X100665460Y-78314954D01*
X100672708Y-78326490D01*
X100683353Y-78346732D01*
X100684698Y-78349849D01*
X100688136Y-78357818D01*
X100693315Y-78364775D01*
X100693316Y-78364776D01*
X100711914Y-78389758D01*
X100718558Y-78399460D01*
X100739354Y-78432556D01*
X100751589Y-78452027D01*
X100757505Y-78457943D01*
X100770067Y-78470505D01*
X100784220Y-78486882D01*
X100793461Y-78499294D01*
X100800110Y-78504873D01*
X100822006Y-78523246D01*
X100831589Y-78532027D01*
X100871973Y-78572411D01*
X100879058Y-78576862D01*
X100879057Y-78576862D01*
X100897647Y-78588543D01*
X100914149Y-78600564D01*
X100921920Y-78607085D01*
X100921922Y-78607086D01*
X100928573Y-78612667D01*
X100959404Y-78628150D01*
X100971809Y-78635141D01*
X101016127Y-78662989D01*
X101048766Y-78674409D01*
X101066405Y-78681888D01*
X101086189Y-78691824D01*
X101116923Y-78699107D01*
X101131742Y-78703443D01*
X101176822Y-78719218D01*
X101215443Y-78723569D01*
X101233126Y-78726648D01*
X101257812Y-78732500D01*
X101286335Y-78732500D01*
X101303017Y-78733436D01*
X101346000Y-78738280D01*
X101388982Y-78733436D01*
X101405665Y-78732500D01*
X101528758Y-78732500D01*
X101585778Y-78743842D01*
X101634117Y-78776141D01*
X103175019Y-80317043D01*
X103178998Y-80321495D01*
X103180589Y-80324027D01*
X103300973Y-80444411D01*
X103339495Y-80468616D01*
X103352626Y-80477892D01*
X103376209Y-80496539D01*
X103397740Y-80506579D01*
X103414036Y-80515454D01*
X103438036Y-80530534D01*
X103438040Y-80530535D01*
X103445127Y-80534989D01*
X103476756Y-80546056D01*
X103492343Y-80551510D01*
X103506105Y-80557110D01*
X103536060Y-80571079D01*
X103556122Y-80575221D01*
X103575200Y-80580502D01*
X103605822Y-80591218D01*
X103660171Y-80597341D01*
X103673617Y-80599483D01*
X103700291Y-80604991D01*
X103700297Y-80604991D01*
X103708794Y-80606746D01*
X103725951Y-80606246D01*
X103746949Y-80607119D01*
X103775000Y-80610280D01*
X103834200Y-80603609D01*
X103846513Y-80602738D01*
X103885096Y-80601616D01*
X103898397Y-80598051D01*
X103920276Y-80593910D01*
X103944178Y-80591218D01*
X104005234Y-80569853D01*
X104015828Y-80566585D01*
X104055463Y-80555966D01*
X104064567Y-80551056D01*
X104086069Y-80541567D01*
X104104873Y-80534989D01*
X104164239Y-80497685D01*
X104172797Y-80492698D01*
X104175657Y-80491156D01*
X104210709Y-80472257D01*
X104217199Y-80466480D01*
X104220909Y-80463883D01*
X104235631Y-80452827D01*
X104249027Y-80444411D01*
X104302791Y-80390645D01*
X104309060Y-80384730D01*
X104342467Y-80355003D01*
X104347446Y-80347891D01*
X104353216Y-80341408D01*
X104353374Y-80341548D01*
X104361106Y-80332331D01*
X104369411Y-80324027D01*
X104413385Y-80254041D01*
X104417454Y-80247909D01*
X104443633Y-80210523D01*
X104446839Y-80202452D01*
X104450761Y-80195178D01*
X104455458Y-80187120D01*
X104455532Y-80186964D01*
X104459989Y-80179873D01*
X104489853Y-80094522D01*
X104491997Y-80088781D01*
X104508752Y-80046608D01*
X104509985Y-80038188D01*
X104513104Y-80028076D01*
X104516218Y-80019178D01*
X104527437Y-79919595D01*
X104528055Y-79914822D01*
X104534315Y-79872094D01*
X104533757Y-79865727D01*
X104534179Y-79859759D01*
X104535280Y-79850000D01*
X104522522Y-79736773D01*
X104522154Y-79733093D01*
X104521731Y-79728257D01*
X104518943Y-79696388D01*
X104517625Y-79692413D01*
X104517277Y-79690224D01*
X104517264Y-79690109D01*
X104516218Y-79680822D01*
X104470680Y-79550683D01*
X104469933Y-79548486D01*
X104463464Y-79528964D01*
X104462579Y-79527529D01*
X104459989Y-79520127D01*
X104369411Y-79375973D01*
X104249027Y-79255589D01*
X104246497Y-79254000D01*
X104242047Y-79250023D01*
X102483051Y-77491027D01*
X102468893Y-77474643D01*
X102460725Y-77463671D01*
X102460721Y-77463666D01*
X102455539Y-77456706D01*
X102430895Y-77436027D01*
X102418203Y-77425377D01*
X102408620Y-77416596D01*
X102408512Y-77416488D01*
X102408511Y-77416487D01*
X102405441Y-77413417D01*
X102381257Y-77394295D01*
X102377938Y-77391591D01*
X102320427Y-77343333D01*
X102312887Y-77339546D01*
X102312308Y-77339128D01*
X102309046Y-77337049D01*
X102308406Y-77336691D01*
X102301791Y-77331461D01*
X102293930Y-77327795D01*
X102293928Y-77327794D01*
X102233760Y-77299736D01*
X102229863Y-77297849D01*
X102170568Y-77268071D01*
X102170563Y-77268069D01*
X102162811Y-77264176D01*
X102154603Y-77262230D01*
X102153921Y-77261948D01*
X102150293Y-77260687D01*
X102149588Y-77260487D01*
X102141940Y-77256921D01*
X102133451Y-77255168D01*
X102133445Y-77255166D01*
X102068417Y-77241739D01*
X102064211Y-77240806D01*
X102029754Y-77232640D01*
X101999624Y-77225499D01*
X101999621Y-77225498D01*
X101991188Y-77223500D01*
X101982755Y-77223500D01*
X101982030Y-77223383D01*
X101978204Y-77222992D01*
X101977468Y-77222960D01*
X101969206Y-77221254D01*
X101960536Y-77221506D01*
X101960533Y-77221506D01*
X101894183Y-77223437D01*
X101889849Y-77223500D01*
X101405665Y-77223500D01*
X101388982Y-77222563D01*
X101354316Y-77218657D01*
X101346000Y-77217720D01*
X101337684Y-77218657D01*
X101185132Y-77235845D01*
X101185126Y-77235846D01*
X101176822Y-77236782D01*
X101171002Y-77238818D01*
X101170816Y-77238840D01*
X101168811Y-77239569D01*
X101168800Y-77239572D01*
X101168561Y-77239660D01*
X101166827Y-77240279D01*
X101024025Y-77290247D01*
X101024022Y-77290248D01*
X101016127Y-77293011D01*
X101009044Y-77297461D01*
X101009036Y-77297465D01*
X101008427Y-77297848D01*
X101007946Y-77298119D01*
X101005076Y-77299164D01*
X100998994Y-77303163D01*
X100998992Y-77303165D01*
X100979440Y-77316024D01*
X100976843Y-77317693D01*
X100879056Y-77379138D01*
X100879053Y-77379139D01*
X100871973Y-77383589D01*
X100866059Y-77389501D01*
X100866053Y-77389507D01*
X100865079Y-77390481D01*
X100862138Y-77393174D01*
X100857715Y-77396085D01*
X100851774Y-77402381D01*
X100851769Y-77402386D01*
X100829802Y-77425669D01*
X100826787Y-77428773D01*
X100757502Y-77498059D01*
X100757498Y-77498063D01*
X100751589Y-77503973D01*
X100747145Y-77511044D01*
X100747137Y-77511055D01*
X100746406Y-77512220D01*
X100741793Y-77518954D01*
X100736678Y-77524377D01*
X100732344Y-77531882D01*
X100732342Y-77531886D01*
X100714401Y-77562960D01*
X100711528Y-77567728D01*
X100683498Y-77612338D01*
X100661011Y-77648127D01*
X100658248Y-77656021D01*
X100658245Y-77656028D01*
X100658091Y-77656469D01*
X100654277Y-77666247D01*
X100652823Y-77669616D01*
X100648490Y-77677124D01*
X100646003Y-77685429D01*
X100646001Y-77685435D01*
X100635393Y-77720865D01*
X100633294Y-77727334D01*
X100607543Y-77800929D01*
X100607541Y-77800935D01*
X100604782Y-77808822D01*
X100603845Y-77817129D01*
X100603843Y-77817141D01*
X100603689Y-77818507D01*
X100601513Y-77829169D01*
X100601899Y-77829238D01*
X100600393Y-77837778D01*
X100597905Y-77846091D01*
X100597400Y-77854748D01*
X100597400Y-77854752D01*
X100595272Y-77891280D01*
X100594587Y-77899293D01*
X100586657Y-77969682D01*
X100585720Y-77978000D01*
X93834417Y-77978000D01*
X94179277Y-77633141D01*
X94227617Y-77600842D01*
X94284637Y-77589500D01*
X96309707Y-77589500D01*
X96350955Y-77595323D01*
X96388980Y-77612338D01*
X96437040Y-77642536D01*
X96444127Y-77646989D01*
X96604822Y-77703218D01*
X96774000Y-77722280D01*
X96943178Y-77703218D01*
X97103873Y-77646989D01*
X97248027Y-77556411D01*
X97368411Y-77436027D01*
X97458989Y-77291873D01*
X97515218Y-77131178D01*
X97534280Y-76962000D01*
X97536184Y-76962214D01*
X97544685Y-76919480D01*
X97576984Y-76871141D01*
X97625323Y-76838842D01*
X97682343Y-76827500D01*
X103567192Y-76827500D01*
X103624212Y-76838842D01*
X103672550Y-76871140D01*
X104548955Y-77747546D01*
X105421361Y-78619952D01*
X105428024Y-78627275D01*
X105432214Y-78633877D01*
X105439044Y-78640291D01*
X105439045Y-78640292D01*
X105480928Y-78679623D01*
X105484289Y-78682880D01*
X105503529Y-78702120D01*
X105507227Y-78704989D01*
X105510738Y-78708084D01*
X105510728Y-78708094D01*
X105516437Y-78712970D01*
X105540583Y-78735645D01*
X105540589Y-78735649D01*
X105547418Y-78742062D01*
X105563251Y-78750766D01*
X105582789Y-78763600D01*
X105597064Y-78774673D01*
X105636079Y-78791556D01*
X105648666Y-78797723D01*
X105676876Y-78813232D01*
X105685908Y-78818197D01*
X105694985Y-78820527D01*
X105694992Y-78820530D01*
X105703401Y-78822689D01*
X105725523Y-78830263D01*
X105733494Y-78833712D01*
X105742104Y-78837438D01*
X105751365Y-78838904D01*
X105751366Y-78838905D01*
X105753311Y-78839213D01*
X105784082Y-78844086D01*
X105797817Y-78846930D01*
X105838981Y-78857500D01*
X105857045Y-78857500D01*
X105880352Y-78859333D01*
X105898196Y-78862160D01*
X105940500Y-78858160D01*
X105954522Y-78857500D01*
X116509142Y-78857500D01*
X116519031Y-78857966D01*
X116526667Y-78859673D01*
X116593459Y-78857573D01*
X116598139Y-78857500D01*
X116620659Y-78857500D01*
X116625350Y-78857500D01*
X116630004Y-78856911D01*
X116634671Y-78856618D01*
X116634671Y-78856632D01*
X116642143Y-78856043D01*
X116684627Y-78854709D01*
X116701964Y-78849671D01*
X116724873Y-78844927D01*
X116725001Y-78844910D01*
X116742792Y-78842664D01*
X116782323Y-78827012D01*
X116795568Y-78822477D01*
X116836390Y-78810618D01*
X116844461Y-78805845D01*
X116851939Y-78801423D01*
X116872939Y-78791135D01*
X116875124Y-78790269D01*
X116889732Y-78784486D01*
X116924126Y-78759495D01*
X116935823Y-78751812D01*
X116972420Y-78730170D01*
X116985193Y-78717395D01*
X117002972Y-78702212D01*
X117010000Y-78697106D01*
X117009999Y-78697106D01*
X117017587Y-78691594D01*
X117044681Y-78658841D01*
X117054108Y-78648480D01*
X119222462Y-76480127D01*
X119229770Y-76473477D01*
X119236377Y-76469286D01*
X119282171Y-76420519D01*
X119285366Y-76417223D01*
X119304620Y-76397971D01*
X119307496Y-76394262D01*
X119310589Y-76390755D01*
X119310599Y-76390764D01*
X119315463Y-76385067D01*
X119344562Y-76354082D01*
X119353262Y-76338254D01*
X119366100Y-76318709D01*
X119377173Y-76304436D01*
X119394048Y-76265437D01*
X119400220Y-76252837D01*
X119420697Y-76215592D01*
X119425190Y-76198092D01*
X119432765Y-76175969D01*
X119439937Y-76159396D01*
X119446585Y-76117418D01*
X119449425Y-76103703D01*
X119460000Y-76062519D01*
X119460000Y-76044456D01*
X119461834Y-76021148D01*
X119462603Y-76016293D01*
X119464660Y-76003304D01*
X119460660Y-75960999D01*
X119460000Y-75946978D01*
X119460000Y-72590285D01*
X119469897Y-72536888D01*
X119498271Y-72490585D01*
X119561807Y-72420020D01*
X119561806Y-72420020D01*
X119567033Y-72414216D01*
X119661679Y-72250284D01*
X119720174Y-72070256D01*
X119739960Y-71882000D01*
X119720174Y-71693744D01*
X119714003Y-71674753D01*
X119673565Y-71550297D01*
X119661679Y-71513716D01*
X119567033Y-71349784D01*
X119488822Y-71262922D01*
X119445599Y-71214918D01*
X119445597Y-71214916D01*
X119440371Y-71209112D01*
X119433201Y-71203903D01*
X119293545Y-71102437D01*
X119293544Y-71102436D01*
X119287230Y-71097849D01*
X119280096Y-71094673D01*
X119280095Y-71094672D01*
X119121437Y-71024032D01*
X119121434Y-71024031D01*
X119114303Y-71020856D01*
X119106666Y-71019232D01*
X119106664Y-71019232D01*
X118973703Y-70990970D01*
X118929146Y-70981500D01*
X118884500Y-70981500D01*
X118827480Y-70970158D01*
X118779141Y-70937859D01*
X118746842Y-70889520D01*
X118735500Y-70832500D01*
X118735500Y-70424808D01*
X118746842Y-70367788D01*
X118779141Y-70319449D01*
X119273488Y-69825102D01*
X119767962Y-69330627D01*
X119775270Y-69323977D01*
X119781877Y-69319786D01*
X119827671Y-69271019D01*
X119830866Y-69267723D01*
X119850120Y-69248471D01*
X119852996Y-69244762D01*
X119856089Y-69241255D01*
X119856099Y-69241264D01*
X119860963Y-69235567D01*
X119890062Y-69204582D01*
X119898762Y-69188754D01*
X119911600Y-69169209D01*
X119922673Y-69154936D01*
X119939548Y-69115937D01*
X119945720Y-69103337D01*
X119966197Y-69066092D01*
X119970690Y-69048592D01*
X119978265Y-69026469D01*
X119979256Y-69024178D01*
X119985437Y-69009896D01*
X119992085Y-68967918D01*
X119994925Y-68954203D01*
X120005500Y-68913019D01*
X120005500Y-68894956D01*
X120007334Y-68871648D01*
X120008131Y-68866616D01*
X120010160Y-68853804D01*
X120006160Y-68811499D01*
X120005500Y-68797478D01*
X120005500Y-68526285D01*
X120015397Y-68472888D01*
X120043771Y-68426585D01*
X120107307Y-68356020D01*
X120107306Y-68356020D01*
X120112533Y-68350216D01*
X120207179Y-68186284D01*
X120265674Y-68006256D01*
X120285460Y-67818000D01*
X120265674Y-67629744D01*
X120207179Y-67449716D01*
X120112533Y-67285784D01*
X120061794Y-67229433D01*
X119991099Y-67150918D01*
X119991097Y-67150916D01*
X119985871Y-67145112D01*
X119972400Y-67135325D01*
X119839045Y-67038437D01*
X119839044Y-67038436D01*
X119832730Y-67033849D01*
X119825596Y-67030673D01*
X119825595Y-67030672D01*
X119666937Y-66960032D01*
X119666934Y-66960031D01*
X119659803Y-66956856D01*
X119652166Y-66955232D01*
X119652164Y-66955232D01*
X119503721Y-66923680D01*
X119474646Y-66917500D01*
X119285354Y-66917500D01*
X119277714Y-66919123D01*
X119277713Y-66919124D01*
X119107835Y-66955232D01*
X119107830Y-66955233D01*
X119100197Y-66956856D01*
X119093068Y-66960029D01*
X119093062Y-66960032D01*
X118934404Y-67030672D01*
X118934398Y-67030675D01*
X118927270Y-67033849D01*
X118920959Y-67038433D01*
X118920954Y-67038437D01*
X118780448Y-67140520D01*
X118780442Y-67140525D01*
X118774129Y-67145112D01*
X118768906Y-67150912D01*
X118768900Y-67150918D01*
X118652693Y-67279979D01*
X118652689Y-67279983D01*
X118647467Y-67285784D01*
X118643563Y-67292544D01*
X118643562Y-67292547D01*
X118556724Y-67442954D01*
X118556720Y-67442961D01*
X118552821Y-67449716D01*
X118550409Y-67457136D01*
X118550407Y-67457143D01*
X118496740Y-67622311D01*
X118496737Y-67622321D01*
X118494326Y-67629744D01*
X118493509Y-67637510D01*
X118493509Y-67637514D01*
X118480005Y-67766005D01*
X118474540Y-67818000D01*
X118475356Y-67825764D01*
X118493383Y-67997290D01*
X118494326Y-68006256D01*
X118496738Y-68013680D01*
X118496740Y-68013688D01*
X118547795Y-68170816D01*
X118552821Y-68186284D01*
X118556722Y-68193041D01*
X118556724Y-68193045D01*
X118594241Y-68258026D01*
X118647467Y-68350216D01*
X118652688Y-68356014D01*
X118652692Y-68356020D01*
X118710024Y-68419693D01*
X118744477Y-68485876D01*
X118742524Y-68560464D01*
X118704655Y-68624753D01*
X117722048Y-69607359D01*
X117714721Y-69614025D01*
X117708123Y-69618214D01*
X117701711Y-69625041D01*
X117701707Y-69625045D01*
X117662357Y-69666947D01*
X117659108Y-69670299D01*
X117643195Y-69686213D01*
X117643188Y-69686220D01*
X117639880Y-69689529D01*
X117637010Y-69693227D01*
X117633918Y-69696735D01*
X117633908Y-69696726D01*
X117629038Y-69702427D01*
X117606356Y-69726582D01*
X117606351Y-69726587D01*
X117599938Y-69733418D01*
X117595423Y-69741630D01*
X117595416Y-69741640D01*
X117591229Y-69749256D01*
X117578403Y-69768782D01*
X117573073Y-69775653D01*
X117573065Y-69775665D01*
X117567327Y-69783064D01*
X117563606Y-69791661D01*
X117563606Y-69791662D01*
X117550448Y-69822067D01*
X117544276Y-69834665D01*
X117528316Y-69863696D01*
X117528312Y-69863705D01*
X117523803Y-69871908D01*
X117521474Y-69880975D01*
X117521471Y-69880985D01*
X117519308Y-69889410D01*
X117511740Y-69911514D01*
X117508285Y-69919497D01*
X117508281Y-69919507D01*
X117504562Y-69928104D01*
X117503096Y-69937355D01*
X117503095Y-69937361D01*
X117497912Y-69970084D01*
X117495067Y-69983820D01*
X117486831Y-70015899D01*
X117486830Y-70015904D01*
X117484500Y-70024981D01*
X117484500Y-70034355D01*
X117484500Y-70043045D01*
X117482666Y-70066353D01*
X117481520Y-70073590D01*
X117479840Y-70084196D01*
X117480721Y-70093517D01*
X117480721Y-70093522D01*
X117483839Y-70126500D01*
X117484500Y-70140522D01*
X117484500Y-75625192D01*
X117473158Y-75682212D01*
X117440859Y-75730551D01*
X116116550Y-77054859D01*
X116068211Y-77087158D01*
X116011191Y-77098500D01*
X114812329Y-77098500D01*
X114751471Y-77085505D01*
X114701228Y-77048786D01*
X114670366Y-76994748D01*
X114664266Y-76932818D01*
X114673843Y-76847817D01*
X114673843Y-76847816D01*
X114674780Y-76839500D01*
X114655718Y-76670322D01*
X114599489Y-76509627D01*
X114508911Y-76365473D01*
X114388527Y-76245089D01*
X114302749Y-76191191D01*
X114251459Y-76158963D01*
X114251456Y-76158961D01*
X114244373Y-76154511D01*
X114236478Y-76151748D01*
X114236473Y-76151746D01*
X114083678Y-76098282D01*
X114084012Y-76097326D01*
X114058077Y-76087425D01*
X114024797Y-76062378D01*
X113011244Y-75048825D01*
X113004540Y-75041457D01*
X113000340Y-75034838D01*
X112990943Y-75026014D01*
X112951447Y-74988924D01*
X112948086Y-74985667D01*
X112932101Y-74969682D01*
X112928796Y-74966377D01*
X112925101Y-74963511D01*
X112921581Y-74960408D01*
X112921589Y-74960398D01*
X112915858Y-74955504D01*
X112899050Y-74939720D01*
X112884767Y-74926307D01*
X112876555Y-74921792D01*
X112876553Y-74921791D01*
X112868845Y-74917554D01*
X112849309Y-74904720D01*
X112842374Y-74899341D01*
X112842371Y-74899339D01*
X112834962Y-74893592D01*
X112795815Y-74876651D01*
X112783214Y-74870478D01*
X112754049Y-74854444D01*
X112754047Y-74854443D01*
X112745834Y-74849928D01*
X112736752Y-74847596D01*
X112728240Y-74845410D01*
X112706132Y-74837841D01*
X112698064Y-74834350D01*
X112698063Y-74834349D01*
X112689458Y-74830626D01*
X112670481Y-74827620D01*
X112647330Y-74823953D01*
X112633591Y-74821108D01*
X112601351Y-74812831D01*
X112601350Y-74812830D01*
X112592272Y-74810500D01*
X112582898Y-74810500D01*
X112574113Y-74810500D01*
X112550804Y-74808665D01*
X112542134Y-74807291D01*
X112542120Y-74807290D01*
X112532867Y-74805825D01*
X112523535Y-74806707D01*
X112523533Y-74806707D01*
X112490405Y-74809839D01*
X112476382Y-74810500D01*
X109795637Y-74810500D01*
X109738617Y-74799158D01*
X109690278Y-74766859D01*
X107686244Y-72762825D01*
X107679540Y-72755457D01*
X107675340Y-72748838D01*
X107654438Y-72729210D01*
X107626447Y-72702924D01*
X107623086Y-72699667D01*
X107607101Y-72683682D01*
X107607100Y-72683681D01*
X107603796Y-72680377D01*
X107600101Y-72677511D01*
X107596581Y-72674408D01*
X107596589Y-72674398D01*
X107590858Y-72669504D01*
X107566600Y-72646724D01*
X107559767Y-72640307D01*
X107551555Y-72635792D01*
X107551553Y-72635791D01*
X107543845Y-72631554D01*
X107524309Y-72618720D01*
X107517374Y-72613341D01*
X107517371Y-72613339D01*
X107509962Y-72607592D01*
X107470815Y-72590651D01*
X107458214Y-72584478D01*
X107429049Y-72568444D01*
X107429047Y-72568443D01*
X107420834Y-72563928D01*
X107411752Y-72561596D01*
X107403240Y-72559410D01*
X107381132Y-72551841D01*
X107373064Y-72548350D01*
X107373063Y-72548349D01*
X107364458Y-72544626D01*
X107345481Y-72541620D01*
X107322330Y-72537953D01*
X107308591Y-72535108D01*
X107276351Y-72526831D01*
X107276350Y-72526830D01*
X107267272Y-72524500D01*
X107257898Y-72524500D01*
X107249113Y-72524500D01*
X107225804Y-72522665D01*
X107217134Y-72521291D01*
X107217120Y-72521290D01*
X107207867Y-72519825D01*
X107198535Y-72520707D01*
X107198533Y-72520707D01*
X107165405Y-72523839D01*
X107151382Y-72524500D01*
X105789195Y-72524500D01*
X105724546Y-72509744D01*
X105672701Y-72468399D01*
X105644078Y-72408962D01*
X105643218Y-72401322D01*
X105586989Y-72240627D01*
X105496411Y-72096473D01*
X105376027Y-71976089D01*
X105368479Y-71971346D01*
X105238959Y-71889963D01*
X105238956Y-71889961D01*
X105231873Y-71885511D01*
X105223978Y-71882748D01*
X105223973Y-71882746D01*
X105079077Y-71832046D01*
X105071178Y-71829282D01*
X105062864Y-71828345D01*
X105062859Y-71828344D01*
X104910316Y-71811157D01*
X104902000Y-71810220D01*
X104893684Y-71811157D01*
X104741140Y-71828344D01*
X104741133Y-71828345D01*
X104732822Y-71829282D01*
X104724924Y-71832045D01*
X104724922Y-71832046D01*
X104580026Y-71882746D01*
X104580018Y-71882749D01*
X104572127Y-71885511D01*
X104565047Y-71889959D01*
X104565040Y-71889963D01*
X104516980Y-71920162D01*
X104478955Y-71937177D01*
X104437707Y-71943000D01*
X102754405Y-71943000D01*
X102686017Y-71926378D01*
X102632887Y-71880222D01*
X102606868Y-71814829D01*
X102613766Y-71744789D01*
X102616452Y-71737112D01*
X102661218Y-71609178D01*
X102680280Y-71440000D01*
X102661218Y-71270822D01*
X102604989Y-71110127D01*
X102514411Y-70965973D01*
X102394027Y-70845589D01*
X102372485Y-70832053D01*
X102256959Y-70759463D01*
X102256956Y-70759461D01*
X102249873Y-70755011D01*
X102241978Y-70752248D01*
X102241973Y-70752246D01*
X102089178Y-70698782D01*
X102089512Y-70697826D01*
X102063577Y-70687925D01*
X102030297Y-70662878D01*
X101191652Y-69824233D01*
X101156043Y-69767133D01*
X101149187Y-69700190D01*
X101172483Y-69637058D01*
X101210924Y-69600394D01*
X101209675Y-69598784D01*
X101217083Y-69593037D01*
X101225156Y-69588263D01*
X101238003Y-69575415D01*
X101255773Y-69560237D01*
X101270467Y-69549563D01*
X101281251Y-69536525D01*
X101332618Y-69496681D01*
X101396060Y-69482500D01*
X101455707Y-69482500D01*
X101496955Y-69488323D01*
X101534980Y-69505338D01*
X101583040Y-69535536D01*
X101590127Y-69539989D01*
X101750822Y-69596218D01*
X101920000Y-69615280D01*
X102089178Y-69596218D01*
X102249873Y-69539989D01*
X102394027Y-69449411D01*
X102514411Y-69329027D01*
X102604989Y-69184873D01*
X102661218Y-69024178D01*
X102680280Y-68855000D01*
X102661218Y-68685822D01*
X102604989Y-68525127D01*
X102597772Y-68513642D01*
X102555870Y-68446955D01*
X102514411Y-68380973D01*
X102394027Y-68260589D01*
X102377377Y-68250127D01*
X102256959Y-68174463D01*
X102256956Y-68174461D01*
X102249873Y-68170011D01*
X102241978Y-68167248D01*
X102241973Y-68167246D01*
X102097077Y-68116546D01*
X102089178Y-68113782D01*
X102080864Y-68112845D01*
X102080859Y-68112844D01*
X101928316Y-68095657D01*
X101920000Y-68094720D01*
X101911684Y-68095657D01*
X101759140Y-68112844D01*
X101759133Y-68112845D01*
X101750822Y-68113782D01*
X101742924Y-68116545D01*
X101742922Y-68116546D01*
X101598026Y-68167246D01*
X101598018Y-68167249D01*
X101590127Y-68170011D01*
X101583047Y-68174459D01*
X101583040Y-68174463D01*
X101534980Y-68204662D01*
X101496955Y-68221677D01*
X101455707Y-68227500D01*
X101148132Y-68227500D01*
X101138176Y-68227030D01*
X101130523Y-68225320D01*
X101121156Y-68225614D01*
X101121154Y-68225614D01*
X101063463Y-68227427D01*
X101058784Y-68227500D01*
X101031524Y-68227500D01*
X101026884Y-68228085D01*
X101025879Y-68228149D01*
X100962712Y-68218385D01*
X100909448Y-68183052D01*
X100875889Y-68128654D01*
X100871538Y-68116219D01*
X100839489Y-68024627D01*
X100828321Y-68006854D01*
X100779073Y-67928476D01*
X100748911Y-67880473D01*
X100628527Y-67760089D01*
X100547226Y-67709004D01*
X100496092Y-67654917D01*
X100477500Y-67582843D01*
X100477500Y-66997000D01*
X100488842Y-66939980D01*
X100521141Y-66891641D01*
X100569480Y-66859342D01*
X100626500Y-66848000D01*
X100627707Y-66848000D01*
X100668955Y-66853823D01*
X100706980Y-66870838D01*
X100726654Y-66883200D01*
X100762127Y-66905489D01*
X100770025Y-66908252D01*
X100770026Y-66908253D01*
X100773267Y-66909387D01*
X100922822Y-66961718D01*
X101092000Y-66980780D01*
X101261178Y-66961718D01*
X101421873Y-66905489D01*
X101467095Y-66877074D01*
X101477020Y-66870838D01*
X101515045Y-66853823D01*
X101556293Y-66848000D01*
X102002368Y-66848000D01*
X102012323Y-66848469D01*
X102019977Y-66850180D01*
X102087036Y-66848073D01*
X102091716Y-66848000D01*
X102114285Y-66848000D01*
X102118976Y-66848000D01*
X102123631Y-66847411D01*
X102128297Y-66847118D01*
X102128297Y-66847131D01*
X102135794Y-66846540D01*
X102176786Y-66845253D01*
X102178445Y-66845201D01*
X102178482Y-66846400D01*
X102244611Y-66853029D01*
X102308317Y-66876791D01*
X102367927Y-66883200D01*
X103733672Y-66883199D01*
X103793283Y-66876791D01*
X103810755Y-66870274D01*
X103819431Y-66867039D01*
X103890070Y-66858807D01*
X103956479Y-66884254D01*
X104003528Y-66937583D01*
X104020500Y-67006645D01*
X104020500Y-67994868D01*
X104020030Y-68004823D01*
X104018320Y-68012477D01*
X104018614Y-68021842D01*
X104018614Y-68021845D01*
X104020427Y-68079537D01*
X104020500Y-68084216D01*
X104020500Y-68111476D01*
X104021085Y-68116107D01*
X104021380Y-68120791D01*
X104021368Y-68120791D01*
X104021958Y-68128299D01*
X104022586Y-68148265D01*
X104023299Y-68170943D01*
X104025912Y-68179938D01*
X104025914Y-68179948D01*
X104028367Y-68188389D01*
X104033109Y-68211285D01*
X104035384Y-68229293D01*
X104038833Y-68238006D01*
X104038834Y-68238007D01*
X104051085Y-68268950D01*
X104055631Y-68282229D01*
X104064915Y-68314186D01*
X104064917Y-68314191D01*
X104067532Y-68323191D01*
X104072303Y-68331258D01*
X104072306Y-68331265D01*
X104076777Y-68338825D01*
X104087062Y-68359818D01*
X104090294Y-68367983D01*
X104090296Y-68367987D01*
X104093747Y-68376703D01*
X104099261Y-68384292D01*
X104099262Y-68384294D01*
X104118815Y-68411207D01*
X104126522Y-68422939D01*
X104143462Y-68451583D01*
X104143464Y-68451586D01*
X104148237Y-68459656D01*
X104154867Y-68466286D01*
X104161079Y-68472498D01*
X104176262Y-68490275D01*
X104181425Y-68497382D01*
X104181429Y-68497386D01*
X104186937Y-68504967D01*
X104194156Y-68510939D01*
X104194158Y-68510941D01*
X104219797Y-68532151D01*
X104230180Y-68541599D01*
X106181754Y-70493173D01*
X106188457Y-70500539D01*
X106192660Y-70507162D01*
X106199492Y-70513578D01*
X106199494Y-70513580D01*
X106241551Y-70553074D01*
X106244912Y-70556331D01*
X106264204Y-70575623D01*
X106267906Y-70578494D01*
X106271418Y-70581590D01*
X106271409Y-70581599D01*
X106277138Y-70586492D01*
X106301396Y-70609273D01*
X106301398Y-70609274D01*
X106308233Y-70615693D01*
X106324150Y-70624443D01*
X106343691Y-70637279D01*
X106358038Y-70648408D01*
X106366641Y-70652131D01*
X106366645Y-70652133D01*
X106397175Y-70665344D01*
X106409785Y-70671521D01*
X106447166Y-70692072D01*
X106463980Y-70696389D01*
X106464748Y-70696586D01*
X106486872Y-70704160D01*
X106503542Y-70711374D01*
X106545667Y-70718045D01*
X106559413Y-70720891D01*
X106600728Y-70731500D01*
X106618887Y-70731500D01*
X106642196Y-70733335D01*
X106650865Y-70734708D01*
X106650872Y-70734708D01*
X106660133Y-70736175D01*
X106702594Y-70732161D01*
X106716618Y-70731500D01*
X107231707Y-70731500D01*
X107272955Y-70737323D01*
X107310980Y-70754338D01*
X107342751Y-70774301D01*
X107366127Y-70788989D01*
X107526822Y-70845218D01*
X107696000Y-70864280D01*
X107865178Y-70845218D01*
X108025873Y-70788989D01*
X108170027Y-70698411D01*
X108290411Y-70578027D01*
X108380989Y-70433873D01*
X108437218Y-70273178D01*
X108456280Y-70104000D01*
X108437218Y-69934822D01*
X108384116Y-69783064D01*
X108383753Y-69782026D01*
X108383752Y-69782025D01*
X108380989Y-69774127D01*
X108290411Y-69629973D01*
X108170027Y-69509589D01*
X108159582Y-69503026D01*
X108032959Y-69423463D01*
X108032956Y-69423461D01*
X108025873Y-69419011D01*
X108017978Y-69416248D01*
X108017973Y-69416246D01*
X107879096Y-69367652D01*
X107865178Y-69362782D01*
X107856864Y-69361845D01*
X107856859Y-69361844D01*
X107704316Y-69344657D01*
X107696000Y-69343720D01*
X107687684Y-69344657D01*
X107687683Y-69344657D01*
X107603791Y-69354109D01*
X107531637Y-69344335D01*
X107472729Y-69301536D01*
X107441137Y-69235933D01*
X107444405Y-69163192D01*
X107481749Y-69100688D01*
X107528411Y-69054027D01*
X107618989Y-68909873D01*
X107675218Y-68749178D01*
X107675317Y-68748295D01*
X107696930Y-68700708D01*
X107699693Y-68697767D01*
X107708439Y-68681855D01*
X107721280Y-68662307D01*
X107726661Y-68655370D01*
X107732408Y-68647962D01*
X107749351Y-68608805D01*
X107755516Y-68596223D01*
X107776072Y-68558834D01*
X107780589Y-68541240D01*
X107788164Y-68519117D01*
X107788172Y-68519099D01*
X107795373Y-68502459D01*
X107802044Y-68460332D01*
X107804886Y-68446606D01*
X107815500Y-68405272D01*
X107815500Y-68387107D01*
X107817333Y-68363809D01*
X107820175Y-68345867D01*
X107816161Y-68303405D01*
X107815500Y-68289382D01*
X107815500Y-65097800D01*
X108911391Y-65097800D01*
X108930833Y-65195540D01*
X108938982Y-65207736D01*
X108938983Y-65207738D01*
X108958496Y-65236942D01*
X108986198Y-65278401D01*
X109069059Y-65333766D01*
X109134096Y-65346703D01*
X109166799Y-65353208D01*
X109181192Y-65350345D01*
X109185386Y-65350345D01*
X109206149Y-65348300D01*
X110070402Y-65348300D01*
X110135056Y-65363058D01*
X110186902Y-65404409D01*
X110215670Y-65464162D01*
X110215663Y-65514940D01*
X110218182Y-65515224D01*
X110206967Y-65614749D01*
X110206331Y-65619655D01*
X110201342Y-65653715D01*
X110201341Y-65653726D01*
X110200085Y-65662306D01*
X110200641Y-65668668D01*
X110200220Y-65674624D01*
X110200056Y-65676078D01*
X110200056Y-65676091D01*
X110199120Y-65684400D01*
X110200056Y-65692708D01*
X110200056Y-65692714D01*
X110211873Y-65797594D01*
X110212243Y-65801286D01*
X110215457Y-65838012D01*
X110216773Y-65841984D01*
X110217120Y-65844164D01*
X110217243Y-65845263D01*
X110217246Y-65845278D01*
X110218182Y-65853578D01*
X110220940Y-65861462D01*
X110220943Y-65861472D01*
X110263686Y-65983627D01*
X110264481Y-65985961D01*
X110269941Y-66002434D01*
X110270936Y-66005436D01*
X110271820Y-66006870D01*
X110274411Y-66014273D01*
X110319228Y-66085599D01*
X110344142Y-66125250D01*
X110364989Y-66158427D01*
X110485373Y-66278811D01*
X110487903Y-66280400D01*
X110492353Y-66284377D01*
X110501859Y-66293883D01*
X110534158Y-66342222D01*
X110545500Y-66399242D01*
X110545500Y-72475758D01*
X110534158Y-72532778D01*
X110501859Y-72581117D01*
X110022954Y-73060020D01*
X110018501Y-73063999D01*
X110015973Y-73065589D01*
X110010068Y-73071493D01*
X110010064Y-73071497D01*
X109901507Y-73180054D01*
X109901503Y-73180058D01*
X109895589Y-73185973D01*
X109891139Y-73193053D01*
X109891137Y-73193057D01*
X109871384Y-73224493D01*
X109862108Y-73237623D01*
X109848847Y-73254395D01*
X109848841Y-73254403D01*
X109843461Y-73261209D01*
X109839796Y-73269068D01*
X109839793Y-73269073D01*
X109833420Y-73282741D01*
X109824547Y-73299033D01*
X109809461Y-73323042D01*
X109809455Y-73323053D01*
X109805011Y-73330127D01*
X109790402Y-73371878D01*
X109788490Y-73377341D01*
X109782894Y-73391091D01*
X109772588Y-73413193D01*
X109772584Y-73413202D01*
X109768921Y-73421060D01*
X109767167Y-73429549D01*
X109767165Y-73429558D01*
X109764776Y-73441128D01*
X109759497Y-73460196D01*
X109751545Y-73482923D01*
X109751543Y-73482929D01*
X109748782Y-73490822D01*
X109747845Y-73499135D01*
X109747845Y-73499136D01*
X109742656Y-73545183D01*
X109740517Y-73558611D01*
X109733254Y-73593794D01*
X109733506Y-73602462D01*
X109733505Y-73602474D01*
X109733752Y-73610957D01*
X109732879Y-73631956D01*
X109729720Y-73660000D01*
X109730657Y-73668317D01*
X109736387Y-73719175D01*
X109737261Y-73731521D01*
X109738131Y-73761424D01*
X109738131Y-73761428D01*
X109738384Y-73770096D01*
X109740627Y-73778470D01*
X109740629Y-73778479D01*
X109741950Y-73783408D01*
X109746089Y-73805281D01*
X109748782Y-73829178D01*
X109751544Y-73837073D01*
X109751545Y-73837075D01*
X109770135Y-73890204D01*
X109773418Y-73900844D01*
X109784034Y-73940463D01*
X109788152Y-73948100D01*
X109788154Y-73948105D01*
X109788944Y-73949571D01*
X109798431Y-73971069D01*
X109805011Y-73989873D01*
X109809459Y-73996952D01*
X109809461Y-73996956D01*
X109842306Y-74049227D01*
X109847292Y-74057781D01*
X109867743Y-74095709D01*
X109873509Y-74102188D01*
X109876099Y-74105887D01*
X109887167Y-74120624D01*
X109895589Y-74134027D01*
X109901505Y-74139943D01*
X109949339Y-74187777D01*
X109955287Y-74194082D01*
X109972874Y-74213845D01*
X109984997Y-74227467D01*
X109992109Y-74232447D01*
X109998591Y-74238215D01*
X109998451Y-74238371D01*
X110007663Y-74246101D01*
X110015973Y-74254411D01*
X110085937Y-74298372D01*
X110092127Y-74302479D01*
X110129477Y-74328632D01*
X110137539Y-74331835D01*
X110144824Y-74335763D01*
X110152894Y-74340467D01*
X110153047Y-74340541D01*
X110160127Y-74344989D01*
X110168015Y-74347749D01*
X110168017Y-74347750D01*
X110245475Y-74374853D01*
X110251254Y-74377011D01*
X110293392Y-74393752D01*
X110301809Y-74394984D01*
X110311941Y-74398110D01*
X110320822Y-74401218D01*
X110420395Y-74412436D01*
X110425191Y-74413057D01*
X110467906Y-74419315D01*
X110474274Y-74418757D01*
X110480222Y-74419177D01*
X110490000Y-74420280D01*
X110603296Y-74407514D01*
X110606861Y-74407158D01*
X110643612Y-74403943D01*
X110647584Y-74402625D01*
X110649776Y-74402277D01*
X110650227Y-74402225D01*
X110659178Y-74401218D01*
X110668055Y-74398112D01*
X110689674Y-74390547D01*
X110789282Y-74355692D01*
X110791516Y-74354931D01*
X110811036Y-74348464D01*
X110812470Y-74347579D01*
X110819873Y-74344989D01*
X110964027Y-74254411D01*
X111084411Y-74134027D01*
X111086002Y-74131493D01*
X111089968Y-74127054D01*
X111786979Y-73430043D01*
X111803352Y-73415895D01*
X111821294Y-73402539D01*
X111852637Y-73365184D01*
X111861416Y-73355607D01*
X111864583Y-73352441D01*
X111883695Y-73328268D01*
X111886394Y-73324954D01*
X111934667Y-73267427D01*
X111938453Y-73259885D01*
X111938862Y-73259320D01*
X111940960Y-73256027D01*
X111941304Y-73255410D01*
X111946539Y-73248791D01*
X111978281Y-73180718D01*
X111980137Y-73176886D01*
X112013824Y-73109811D01*
X112015770Y-73101595D01*
X112016044Y-73100935D01*
X112017316Y-73097277D01*
X112017509Y-73096592D01*
X112021079Y-73088940D01*
X112036262Y-73015405D01*
X112037190Y-73011220D01*
X112054500Y-72938188D01*
X112054500Y-72929748D01*
X112054615Y-72929033D01*
X112055007Y-72925198D01*
X112055039Y-72924472D01*
X112056746Y-72916206D01*
X112054563Y-72841183D01*
X112054500Y-72836849D01*
X112054500Y-66549470D01*
X112068806Y-66485764D01*
X112108976Y-66434291D01*
X112167296Y-66404935D01*
X112232569Y-66403333D01*
X112252884Y-66407374D01*
X112316399Y-66420008D01*
X112330792Y-66417145D01*
X112334986Y-66417145D01*
X112355749Y-66415100D01*
X114156649Y-66415100D01*
X114177412Y-66417145D01*
X114181606Y-66417145D01*
X114195999Y-66420008D01*
X114259514Y-66407374D01*
X114293739Y-66400566D01*
X114376600Y-66345201D01*
X114431965Y-66262340D01*
X114443918Y-66202250D01*
X114446499Y-66189274D01*
X114451407Y-66164600D01*
X114448544Y-66150207D01*
X114448544Y-66146013D01*
X114446499Y-66125250D01*
X114446499Y-65747650D01*
X114460804Y-65683945D01*
X114500974Y-65632472D01*
X114559294Y-65603116D01*
X114624566Y-65601513D01*
X114638804Y-65604345D01*
X114638806Y-65604345D01*
X114653199Y-65607208D01*
X114667592Y-65604345D01*
X114671786Y-65604345D01*
X114692549Y-65602300D01*
X116493449Y-65602300D01*
X116514212Y-65604345D01*
X116518406Y-65604345D01*
X116532799Y-65607208D01*
X116543445Y-65605090D01*
X116596719Y-65615687D01*
X116645058Y-65647986D01*
X116677357Y-65696325D01*
X116688699Y-65753345D01*
X116688699Y-66125250D01*
X116686654Y-66146013D01*
X116686654Y-66150207D01*
X116683791Y-66164600D01*
X116688699Y-66189274D01*
X116689736Y-66194490D01*
X116691280Y-66202248D01*
X116691280Y-66202250D01*
X116700343Y-66247814D01*
X116703233Y-66262340D01*
X116711382Y-66274536D01*
X116711383Y-66274538D01*
X116740788Y-66318546D01*
X116758598Y-66345201D01*
X116841459Y-66400566D01*
X116875684Y-66407374D01*
X116939199Y-66420008D01*
X116953592Y-66417145D01*
X116957786Y-66417145D01*
X116978549Y-66415100D01*
X118779449Y-66415100D01*
X118800212Y-66417145D01*
X118804406Y-66417145D01*
X118818799Y-66420008D01*
X118882314Y-66407374D01*
X118916539Y-66400566D01*
X118999400Y-66345201D01*
X119054765Y-66262340D01*
X119066718Y-66202250D01*
X119069299Y-66189274D01*
X119074207Y-66164600D01*
X119071344Y-66150207D01*
X119071344Y-66146013D01*
X119069299Y-66125250D01*
X119069299Y-65086350D01*
X119071344Y-65065587D01*
X119071344Y-65061393D01*
X119074207Y-65047000D01*
X119054765Y-64949260D01*
X118999400Y-64866399D01*
X118987198Y-64858246D01*
X118928737Y-64819184D01*
X118928735Y-64819183D01*
X118916539Y-64811034D01*
X118902149Y-64808171D01*
X118902148Y-64808171D01*
X118843473Y-64796500D01*
X118833192Y-64794455D01*
X118818799Y-64791592D01*
X118804406Y-64794455D01*
X118800212Y-64794455D01*
X118779449Y-64796500D01*
X116978549Y-64796500D01*
X116957786Y-64794455D01*
X116953592Y-64794455D01*
X116939199Y-64791592D01*
X116928552Y-64793709D01*
X116875279Y-64783113D01*
X116826940Y-64750814D01*
X116794641Y-64702475D01*
X116783299Y-64645455D01*
X116783299Y-64273550D01*
X116785344Y-64252787D01*
X116785344Y-64248593D01*
X116788207Y-64234200D01*
X116768765Y-64136460D01*
X116713400Y-64053599D01*
X116630539Y-63998234D01*
X116616149Y-63995371D01*
X116616148Y-63995371D01*
X116557473Y-63983700D01*
X116547192Y-63981655D01*
X116532799Y-63978792D01*
X116518406Y-63981655D01*
X116514212Y-63981655D01*
X116493449Y-63983700D01*
X114692549Y-63983700D01*
X114671786Y-63981655D01*
X114667592Y-63981655D01*
X114653199Y-63978792D01*
X114638806Y-63981655D01*
X114628525Y-63983700D01*
X114569849Y-63995371D01*
X114569846Y-63995372D01*
X114555459Y-63998234D01*
X114543263Y-64006382D01*
X114543260Y-64006384D01*
X114484799Y-64045446D01*
X114484796Y-64045448D01*
X114472598Y-64053599D01*
X114464447Y-64065797D01*
X114464445Y-64065800D01*
X114425383Y-64124261D01*
X114425381Y-64124264D01*
X114417233Y-64136460D01*
X114414371Y-64150847D01*
X114414370Y-64150850D01*
X114403035Y-64207839D01*
X114397791Y-64234200D01*
X114400654Y-64248593D01*
X114400654Y-64252787D01*
X114402699Y-64273550D01*
X114402699Y-64651150D01*
X114388394Y-64714855D01*
X114348225Y-64766327D01*
X114289906Y-64795684D01*
X114224634Y-64797288D01*
X114220673Y-64796500D01*
X114195999Y-64791592D01*
X114181606Y-64794455D01*
X114177412Y-64794455D01*
X114156649Y-64796500D01*
X112355749Y-64796500D01*
X112334986Y-64794455D01*
X112330792Y-64794455D01*
X112316399Y-64791592D01*
X112302006Y-64794455D01*
X112291725Y-64796500D01*
X112233049Y-64808171D01*
X112233046Y-64808172D01*
X112218659Y-64811034D01*
X112206463Y-64819182D01*
X112206460Y-64819184D01*
X112147999Y-64858246D01*
X112147996Y-64858248D01*
X112135798Y-64866399D01*
X112127647Y-64878597D01*
X112127645Y-64878600D01*
X112088583Y-64937061D01*
X112088581Y-64937064D01*
X112080433Y-64949260D01*
X112077571Y-64963647D01*
X112077570Y-64963650D01*
X112067220Y-65015684D01*
X112060991Y-65047000D01*
X112063854Y-65061393D01*
X112063854Y-65065587D01*
X112065899Y-65086350D01*
X112065899Y-65364157D01*
X112049659Y-65431802D01*
X112004479Y-65484701D01*
X111940208Y-65511323D01*
X111870855Y-65505864D01*
X111811540Y-65469516D01*
X111559377Y-65217353D01*
X111555400Y-65212903D01*
X111553811Y-65210373D01*
X111433427Y-65089989D01*
X111394905Y-65065783D01*
X111381772Y-65056505D01*
X111365003Y-65043246D01*
X111364996Y-65043242D01*
X111358191Y-65037861D01*
X111336655Y-65027818D01*
X111320360Y-65018944D01*
X111296360Y-65003864D01*
X111296359Y-65003863D01*
X111289273Y-64999411D01*
X111281378Y-64996648D01*
X111281367Y-64996643D01*
X111242051Y-64982886D01*
X111228294Y-64977288D01*
X111206206Y-64966988D01*
X111206198Y-64966985D01*
X111198340Y-64963321D01*
X111189845Y-64961566D01*
X111189840Y-64961565D01*
X111178273Y-64959177D01*
X111159195Y-64953895D01*
X111157097Y-64953161D01*
X111152442Y-64951532D01*
X111136476Y-64945945D01*
X111136471Y-64945944D01*
X111128578Y-64943182D01*
X111120265Y-64942245D01*
X111120264Y-64942245D01*
X111074218Y-64937056D01*
X111060781Y-64934916D01*
X111044142Y-64931481D01*
X111034102Y-64929408D01*
X111034100Y-64929407D01*
X111025606Y-64927654D01*
X111016936Y-64927906D01*
X111016925Y-64927905D01*
X111008441Y-64928152D01*
X110987441Y-64927279D01*
X110986413Y-64927163D01*
X110959400Y-64924120D01*
X110951083Y-64925057D01*
X110951082Y-64925057D01*
X110900222Y-64930787D01*
X110887877Y-64931661D01*
X110857978Y-64932531D01*
X110857973Y-64932531D01*
X110849304Y-64932784D01*
X110840924Y-64935029D01*
X110840918Y-64935030D01*
X110835984Y-64936352D01*
X110814125Y-64940487D01*
X110798543Y-64942243D01*
X110798531Y-64942245D01*
X110790222Y-64943182D01*
X110782323Y-64945945D01*
X110782322Y-64945946D01*
X110733109Y-64963166D01*
X110663069Y-64970064D01*
X110597676Y-64944045D01*
X110551520Y-64890915D01*
X110534899Y-64822527D01*
X110534899Y-63257550D01*
X110536944Y-63236787D01*
X110536944Y-63232593D01*
X110539807Y-63218200D01*
X110536944Y-63203808D01*
X110536944Y-63203805D01*
X110530840Y-63173122D01*
X110530839Y-63173118D01*
X110528387Y-63160793D01*
X110520365Y-63120460D01*
X110465000Y-63037599D01*
X110452798Y-63029446D01*
X110394337Y-62990384D01*
X110394335Y-62990383D01*
X110382139Y-62982234D01*
X110367749Y-62979371D01*
X110367748Y-62979371D01*
X110298792Y-62965655D01*
X110284399Y-62962792D01*
X110270006Y-62965655D01*
X110265812Y-62965655D01*
X110245049Y-62967700D01*
X109206149Y-62967700D01*
X109185386Y-62965655D01*
X109181192Y-62965655D01*
X109166799Y-62962792D01*
X109152406Y-62965655D01*
X109083449Y-62979371D01*
X109083446Y-62979372D01*
X109069059Y-62982234D01*
X109056863Y-62990382D01*
X109056860Y-62990384D01*
X108998399Y-63029446D01*
X108998396Y-63029448D01*
X108986198Y-63037599D01*
X108978047Y-63049797D01*
X108978045Y-63049800D01*
X108938985Y-63108258D01*
X108938983Y-63108261D01*
X108930833Y-63120460D01*
X108927970Y-63134852D01*
X108927970Y-63134853D01*
X108920359Y-63173118D01*
X108920358Y-63173122D01*
X108914254Y-63203805D01*
X108914254Y-63203808D01*
X108911391Y-63218200D01*
X108914254Y-63232593D01*
X108914254Y-63236787D01*
X108916299Y-63257550D01*
X108916299Y-65058450D01*
X108914254Y-65079213D01*
X108914254Y-65083407D01*
X108911391Y-65097800D01*
X107815500Y-65097800D01*
X107815500Y-63577123D01*
X107815968Y-63567177D01*
X107817680Y-63559523D01*
X107815573Y-63492508D01*
X107815500Y-63487829D01*
X107815500Y-63465215D01*
X107815500Y-63460524D01*
X107814911Y-63455868D01*
X107814618Y-63451204D01*
X107814631Y-63451203D01*
X107814039Y-63443691D01*
X107813530Y-63427500D01*
X107812700Y-63401057D01*
X107807632Y-63383616D01*
X107802892Y-63360728D01*
X107800616Y-63342707D01*
X107784911Y-63303041D01*
X107780368Y-63289769D01*
X107771084Y-63257811D01*
X107771082Y-63257807D01*
X107768468Y-63248808D01*
X107763695Y-63240738D01*
X107763694Y-63240735D01*
X107759225Y-63233179D01*
X107748937Y-63212180D01*
X107742253Y-63195297D01*
X107717182Y-63160790D01*
X107709476Y-63149059D01*
X107709396Y-63148924D01*
X107687763Y-63112344D01*
X107674917Y-63099498D01*
X107659739Y-63081727D01*
X107649063Y-63067033D01*
X107616207Y-63039852D01*
X107605824Y-63030405D01*
X106162244Y-61586825D01*
X106155540Y-61579457D01*
X106151340Y-61572838D01*
X106130438Y-61553210D01*
X106102447Y-61526924D01*
X106099086Y-61523667D01*
X106083101Y-61507682D01*
X106079796Y-61504377D01*
X106076101Y-61501511D01*
X106072581Y-61498408D01*
X106072589Y-61498398D01*
X106066858Y-61493504D01*
X106042600Y-61470724D01*
X106035767Y-61464307D01*
X106027555Y-61459792D01*
X106027553Y-61459791D01*
X106019845Y-61455554D01*
X106000309Y-61442720D01*
X105993374Y-61437341D01*
X105993371Y-61437339D01*
X105985962Y-61431592D01*
X105946815Y-61414651D01*
X105934214Y-61408478D01*
X105905049Y-61392444D01*
X105905047Y-61392443D01*
X105896834Y-61387928D01*
X105885587Y-61385040D01*
X105879240Y-61383410D01*
X105857132Y-61375841D01*
X105849064Y-61372350D01*
X105849063Y-61372349D01*
X105840458Y-61368626D01*
X105821481Y-61365620D01*
X105798330Y-61361953D01*
X105784591Y-61359108D01*
X105752351Y-61350831D01*
X105752350Y-61350830D01*
X105743272Y-61348500D01*
X105733898Y-61348500D01*
X105725113Y-61348500D01*
X105701804Y-61346665D01*
X105693134Y-61345291D01*
X105693120Y-61345290D01*
X105683867Y-61343825D01*
X105674534Y-61344707D01*
X105674527Y-61344707D01*
X105656804Y-61346382D01*
X105590772Y-61337670D01*
X105535133Y-61301057D01*
X105501005Y-61243861D01*
X105495208Y-61177510D01*
X105518896Y-61115265D01*
X105541965Y-61080740D01*
X105556499Y-61007674D01*
X105561407Y-60983000D01*
X105558544Y-60968607D01*
X105558544Y-60964413D01*
X105556499Y-60943650D01*
X105556499Y-59904750D01*
X105558544Y-59883987D01*
X105558544Y-59879793D01*
X105561407Y-59865400D01*
X105558544Y-59851008D01*
X105558544Y-59851005D01*
X105553104Y-59823660D01*
X105553103Y-59823656D01*
X105544828Y-59782053D01*
X105544827Y-59782052D01*
X105541965Y-59767660D01*
X105486600Y-59684799D01*
X105474398Y-59676646D01*
X105415937Y-59637584D01*
X105415935Y-59637583D01*
X105403739Y-59629434D01*
X105389349Y-59626571D01*
X105389348Y-59626571D01*
X105320392Y-59612855D01*
X105305999Y-59609992D01*
X105291606Y-59612855D01*
X105287412Y-59612855D01*
X105266649Y-59614900D01*
X103465749Y-59614900D01*
X103444986Y-59612855D01*
X103440792Y-59612855D01*
X103426399Y-59609992D01*
X103412006Y-59612855D01*
X103343049Y-59626571D01*
X103343046Y-59626572D01*
X103328659Y-59629434D01*
X103316463Y-59637582D01*
X103316460Y-59637584D01*
X103257999Y-59676646D01*
X103257996Y-59676648D01*
X103245798Y-59684799D01*
X103237647Y-59696997D01*
X103237645Y-59697000D01*
X103198585Y-59755458D01*
X103198583Y-59755461D01*
X103190433Y-59767660D01*
X103187571Y-59782047D01*
X103187569Y-59782053D01*
X103179295Y-59823656D01*
X103179294Y-59823660D01*
X103173854Y-59851005D01*
X103173854Y-59851008D01*
X103170991Y-59865400D01*
X103173854Y-59879793D01*
X103173854Y-59883987D01*
X103175899Y-59904750D01*
X103175899Y-60943650D01*
X103173854Y-60964413D01*
X103173854Y-60968607D01*
X103170991Y-60983000D01*
X103173854Y-60997393D01*
X103175899Y-61007674D01*
X103185992Y-61058417D01*
X103190433Y-61080740D01*
X103198582Y-61092936D01*
X103198583Y-61092938D01*
X103213184Y-61114790D01*
X103245798Y-61163601D01*
X103328659Y-61218966D01*
X103332169Y-61219664D01*
X103386587Y-61261362D01*
X103416171Y-61332387D01*
X103406379Y-61408700D01*
X103359823Y-61469955D01*
X103357875Y-61471465D01*
X103349808Y-61476237D01*
X103336960Y-61489083D01*
X103319195Y-61504257D01*
X103312080Y-61509426D01*
X103312073Y-61509431D01*
X103304497Y-61514937D01*
X103298523Y-61522156D01*
X103298525Y-61522156D01*
X103277311Y-61547798D01*
X103267866Y-61558176D01*
X103013186Y-61812858D01*
X102964847Y-61845158D01*
X102907827Y-61856500D01*
X100222343Y-61856500D01*
X100165323Y-61845158D01*
X100116984Y-61812859D01*
X100084685Y-61764520D01*
X100076184Y-61721785D01*
X100074280Y-61722000D01*
X100055218Y-61552822D01*
X99998989Y-61392127D01*
X99908411Y-61247973D01*
X99788027Y-61127589D01*
X99739886Y-61097340D01*
X99650959Y-61041463D01*
X99650956Y-61041461D01*
X99643873Y-61037011D01*
X99635978Y-61034248D01*
X99635973Y-61034246D01*
X99491077Y-60983546D01*
X99483178Y-60980782D01*
X99474864Y-60979845D01*
X99474859Y-60979844D01*
X99322316Y-60962657D01*
X99314000Y-60961720D01*
X99305684Y-60962657D01*
X99153140Y-60979844D01*
X99153133Y-60979845D01*
X99144822Y-60980782D01*
X99136924Y-60983545D01*
X99136922Y-60983546D01*
X98992026Y-61034246D01*
X98992018Y-61034249D01*
X98984127Y-61037011D01*
X98977047Y-61041459D01*
X98977040Y-61041463D01*
X98928980Y-61071662D01*
X98890955Y-61088677D01*
X98849707Y-61094500D01*
X96241671Y-61094500D01*
X96177965Y-61080194D01*
X96126492Y-61040025D01*
X96097136Y-60981704D01*
X96095534Y-60916431D01*
X96109744Y-60844993D01*
X96112607Y-60830600D01*
X96109744Y-60816207D01*
X96109744Y-60812013D01*
X96107699Y-60791250D01*
X96107699Y-59752350D01*
X96109744Y-59731587D01*
X96109744Y-59727393D01*
X96112607Y-59713000D01*
X96093165Y-59615260D01*
X96037800Y-59532399D01*
X95983100Y-59495850D01*
X95967137Y-59485184D01*
X95967135Y-59485183D01*
X95954939Y-59477034D01*
X95940549Y-59474171D01*
X95940548Y-59474171D01*
X95881873Y-59462500D01*
X95871592Y-59460455D01*
X95857199Y-59457592D01*
X95842806Y-59460455D01*
X95838612Y-59460455D01*
X95817849Y-59462500D01*
X94016949Y-59462500D01*
X93996186Y-59460455D01*
X93991992Y-59460455D01*
X93977599Y-59457592D01*
X93963206Y-59460455D01*
X93952925Y-59462500D01*
X93894249Y-59474171D01*
X93894246Y-59474172D01*
X93879859Y-59477034D01*
X93867663Y-59485182D01*
X93867660Y-59485184D01*
X93809199Y-59524246D01*
X93809196Y-59524248D01*
X93796998Y-59532399D01*
X93788847Y-59544597D01*
X93788845Y-59544600D01*
X93749783Y-59603061D01*
X93749781Y-59603064D01*
X93741633Y-59615260D01*
X93738771Y-59629647D01*
X93738770Y-59629650D01*
X93730365Y-59671907D01*
X93722191Y-59713000D01*
X93725054Y-59727393D01*
X93725054Y-59731587D01*
X93727099Y-59752350D01*
X93727099Y-60475962D01*
X93710859Y-60543607D01*
X93665679Y-60596506D01*
X93601408Y-60623128D01*
X93532055Y-60617669D01*
X93472740Y-60581321D01*
X93381141Y-60489722D01*
X93348842Y-60441383D01*
X93337500Y-60384363D01*
X93337500Y-59646293D01*
X93343323Y-59605045D01*
X93360338Y-59567020D01*
X93374425Y-59544600D01*
X93394989Y-59511873D01*
X93451218Y-59351178D01*
X93470280Y-59182000D01*
X93451218Y-59012822D01*
X93394989Y-58852127D01*
X93304411Y-58707973D01*
X93184027Y-58587589D01*
X93075187Y-58519200D01*
X93046959Y-58501463D01*
X93046956Y-58501461D01*
X93039873Y-58497011D01*
X93031978Y-58494248D01*
X93031973Y-58494246D01*
X92887077Y-58443546D01*
X92879178Y-58440782D01*
X92870864Y-58439845D01*
X92870859Y-58439844D01*
X92718316Y-58422657D01*
X92710000Y-58421720D01*
X92701684Y-58422657D01*
X92549140Y-58439844D01*
X92549133Y-58439845D01*
X92540822Y-58440782D01*
X92532924Y-58443545D01*
X92532922Y-58443546D01*
X92388026Y-58494246D01*
X92388018Y-58494249D01*
X92380127Y-58497011D01*
X92373047Y-58501459D01*
X92373040Y-58501463D01*
X92243057Y-58583137D01*
X92243052Y-58583140D01*
X92235973Y-58587589D01*
X92230060Y-58593501D01*
X92230056Y-58593505D01*
X92121505Y-58702056D01*
X92121501Y-58702060D01*
X92115589Y-58707973D01*
X92111140Y-58715052D01*
X92111137Y-58715057D01*
X92029463Y-58845040D01*
X92029459Y-58845047D01*
X92025011Y-58852127D01*
X92022249Y-58860018D01*
X92022246Y-58860026D01*
X91977844Y-58986924D01*
X91968782Y-59012822D01*
X91967845Y-59021133D01*
X91967844Y-59021140D01*
X91950682Y-59173458D01*
X91949720Y-59182000D01*
X91950657Y-59190316D01*
X91962657Y-59296817D01*
X91956558Y-59358748D01*
X91925695Y-59412786D01*
X91875452Y-59449505D01*
X91814594Y-59462500D01*
X90054549Y-59462500D01*
X90033786Y-59460455D01*
X90029592Y-59460455D01*
X90015199Y-59457592D01*
X90000806Y-59460455D01*
X89990525Y-59462500D01*
X89931849Y-59474171D01*
X89931846Y-59474172D01*
X89917459Y-59477034D01*
X89905263Y-59485182D01*
X89905260Y-59485184D01*
X89846799Y-59524246D01*
X89846796Y-59524248D01*
X89834598Y-59532399D01*
X89826447Y-59544597D01*
X89826445Y-59544600D01*
X89787383Y-59603061D01*
X89787381Y-59603064D01*
X89779233Y-59615260D01*
X89776371Y-59629647D01*
X89776370Y-59629650D01*
X89767965Y-59671907D01*
X89759791Y-59713000D01*
X89762654Y-59727393D01*
X89762654Y-59731587D01*
X89764699Y-59752350D01*
X89764699Y-60577562D01*
X89748459Y-60645207D01*
X89703279Y-60698106D01*
X89639008Y-60724728D01*
X89569655Y-60719269D01*
X89510340Y-60682921D01*
X88636244Y-59808825D01*
X88629540Y-59801457D01*
X88625340Y-59794838D01*
X88611725Y-59782053D01*
X88576447Y-59748924D01*
X88573086Y-59745667D01*
X88557101Y-59729682D01*
X88553796Y-59726377D01*
X88550101Y-59723511D01*
X88546581Y-59720408D01*
X88546589Y-59720398D01*
X88540858Y-59715504D01*
X88522865Y-59698607D01*
X88509767Y-59686307D01*
X88501555Y-59681792D01*
X88501553Y-59681791D01*
X88493845Y-59677554D01*
X88474309Y-59664720D01*
X88467374Y-59659341D01*
X88467371Y-59659339D01*
X88459962Y-59653592D01*
X88420815Y-59636651D01*
X88408214Y-59630478D01*
X88379049Y-59614444D01*
X88379047Y-59614443D01*
X88370834Y-59609928D01*
X88361752Y-59607596D01*
X88353240Y-59605410D01*
X88331132Y-59597841D01*
X88323064Y-59594350D01*
X88323063Y-59594349D01*
X88314458Y-59590626D01*
X88295481Y-59587620D01*
X88272330Y-59583953D01*
X88258591Y-59581108D01*
X88226351Y-59572831D01*
X88226350Y-59572830D01*
X88217272Y-59570500D01*
X88207898Y-59570500D01*
X88199113Y-59570500D01*
X88175804Y-59568665D01*
X88167134Y-59567291D01*
X88167120Y-59567290D01*
X88157867Y-59565825D01*
X88148535Y-59566707D01*
X88148533Y-59566707D01*
X88115405Y-59569839D01*
X88101382Y-59570500D01*
X86062293Y-59570500D01*
X86021045Y-59564677D01*
X85983020Y-59547662D01*
X85934959Y-59517463D01*
X85934956Y-59517461D01*
X85927873Y-59513011D01*
X85919978Y-59510248D01*
X85919973Y-59510246D01*
X85775077Y-59459546D01*
X85767178Y-59456782D01*
X85758864Y-59455845D01*
X85758859Y-59455844D01*
X85606316Y-59438657D01*
X85598000Y-59437720D01*
X85589684Y-59438657D01*
X85437140Y-59455844D01*
X85437133Y-59455845D01*
X85428822Y-59456782D01*
X85420924Y-59459545D01*
X85420922Y-59459546D01*
X85276026Y-59510246D01*
X85276018Y-59510249D01*
X85268127Y-59513011D01*
X85261047Y-59517459D01*
X85261040Y-59517463D01*
X85131057Y-59599137D01*
X85131052Y-59599140D01*
X85123973Y-59603589D01*
X85118060Y-59609501D01*
X85118056Y-59609505D01*
X85009505Y-59718056D01*
X85009501Y-59718060D01*
X85003589Y-59723973D01*
X84999140Y-59731052D01*
X84999137Y-59731057D01*
X84917463Y-59861040D01*
X84917459Y-59861047D01*
X84913011Y-59868127D01*
X84910249Y-59876018D01*
X84910246Y-59876026D01*
X84859546Y-60020922D01*
X84856782Y-60028822D01*
X84855845Y-60037133D01*
X84855844Y-60037140D01*
X84844734Y-60135746D01*
X84837720Y-60198000D01*
X84838657Y-60206316D01*
X84855844Y-60358859D01*
X84855845Y-60358864D01*
X84856782Y-60367178D01*
X84859546Y-60375077D01*
X84910246Y-60519973D01*
X84910248Y-60519978D01*
X84913011Y-60527873D01*
X84917461Y-60534956D01*
X84917463Y-60534959D01*
X84991672Y-60653061D01*
X85003589Y-60672027D01*
X85123973Y-60792411D01*
X85268127Y-60882989D01*
X85428822Y-60939218D01*
X85598000Y-60958280D01*
X85607946Y-60957159D01*
X85609303Y-60957343D01*
X85614683Y-60957343D01*
X85614683Y-60958071D01*
X85680102Y-60966926D01*
X85739014Y-61009723D01*
X85770611Y-61075326D01*
X85767347Y-61148069D01*
X85730000Y-61210579D01*
X85279510Y-61661069D01*
X85272138Y-61667776D01*
X85265521Y-61671977D01*
X85259110Y-61678803D01*
X85259106Y-61678807D01*
X85219590Y-61720886D01*
X85216340Y-61724239D01*
X85200379Y-61740201D01*
X85200372Y-61740208D01*
X85197060Y-61743521D01*
X85194189Y-61747221D01*
X85191091Y-61750736D01*
X85191081Y-61750727D01*
X85186191Y-61756452D01*
X85163409Y-61780712D01*
X85163401Y-61780722D01*
X85156990Y-61787550D01*
X85152475Y-61795761D01*
X85152473Y-61795765D01*
X85148236Y-61803472D01*
X85135408Y-61823001D01*
X85130022Y-61829944D01*
X85130017Y-61829951D01*
X85124275Y-61837355D01*
X85120552Y-61845957D01*
X85120549Y-61845963D01*
X85107334Y-61876499D01*
X85101163Y-61889096D01*
X85085125Y-61918269D01*
X85085120Y-61918279D01*
X85080611Y-61926483D01*
X85078281Y-61935554D01*
X85078279Y-61935561D01*
X85076092Y-61944078D01*
X85068526Y-61966177D01*
X85065032Y-61974252D01*
X85065029Y-61974261D01*
X85061309Y-61982859D01*
X85059843Y-61992110D01*
X85059842Y-61992116D01*
X85054636Y-62024988D01*
X85051790Y-62038731D01*
X85043514Y-62070963D01*
X85043513Y-62070968D01*
X85041183Y-62080045D01*
X85041183Y-62089419D01*
X85041183Y-62098204D01*
X85039348Y-62121513D01*
X85037974Y-62130182D01*
X85037973Y-62130196D01*
X85036508Y-62139450D01*
X85037390Y-62148780D01*
X85037390Y-62148783D01*
X85040522Y-62181912D01*
X85041183Y-62195935D01*
X85041183Y-62204046D01*
X85024943Y-62271691D01*
X84979763Y-62324590D01*
X84915492Y-62351212D01*
X84846139Y-62345753D01*
X84786824Y-62309405D01*
X81524244Y-59046825D01*
X81517540Y-59039457D01*
X81513340Y-59032838D01*
X81492438Y-59013210D01*
X81464447Y-58986924D01*
X81461086Y-58983667D01*
X81445101Y-58967682D01*
X81441796Y-58964377D01*
X81438101Y-58961511D01*
X81434581Y-58958408D01*
X81434589Y-58958398D01*
X81428858Y-58953504D01*
X81404600Y-58930724D01*
X81397767Y-58924307D01*
X81389555Y-58919792D01*
X81389553Y-58919791D01*
X81381845Y-58915554D01*
X81362309Y-58902720D01*
X81355374Y-58897341D01*
X81355371Y-58897339D01*
X81347962Y-58891592D01*
X81308815Y-58874651D01*
X81296214Y-58868478D01*
X81267049Y-58852444D01*
X81267047Y-58852443D01*
X81258834Y-58847928D01*
X81247587Y-58845040D01*
X81241240Y-58843410D01*
X81219132Y-58835841D01*
X81211064Y-58832350D01*
X81211063Y-58832349D01*
X81202458Y-58828626D01*
X81183481Y-58825620D01*
X81160330Y-58821953D01*
X81146591Y-58819108D01*
X81114351Y-58810831D01*
X81114350Y-58810830D01*
X81105272Y-58808500D01*
X81095898Y-58808500D01*
X81087113Y-58808500D01*
X81063804Y-58806665D01*
X81055134Y-58805291D01*
X81055120Y-58805290D01*
X81045867Y-58803825D01*
X81036535Y-58804707D01*
X81036533Y-58804707D01*
X81003405Y-58807839D01*
X80989382Y-58808500D01*
X56211132Y-58808500D01*
X56201176Y-58808030D01*
X56193523Y-58806320D01*
X56184156Y-58806614D01*
X56184154Y-58806614D01*
X56126464Y-58808427D01*
X56121785Y-58808500D01*
X56094524Y-58808500D01*
X56089879Y-58809086D01*
X56085212Y-58809380D01*
X56085211Y-58809368D01*
X56077702Y-58809958D01*
X56044428Y-58811004D01*
X56044424Y-58811004D01*
X56035058Y-58811299D01*
X56026062Y-58813912D01*
X56026057Y-58813913D01*
X56017601Y-58816370D01*
X55994719Y-58821108D01*
X55986009Y-58822208D01*
X55986004Y-58822209D01*
X55976707Y-58823384D01*
X55967993Y-58826833D01*
X55967989Y-58826835D01*
X55937051Y-58839084D01*
X55923777Y-58843629D01*
X55891812Y-58852916D01*
X55891810Y-58852916D01*
X55882809Y-58855532D01*
X55874743Y-58860301D01*
X55874734Y-58860306D01*
X55867173Y-58864778D01*
X55846184Y-58875060D01*
X55838022Y-58878291D01*
X55838011Y-58878296D01*
X55829297Y-58881747D01*
X55821712Y-58887257D01*
X55821704Y-58887262D01*
X55794793Y-58906814D01*
X55783066Y-58914518D01*
X55754413Y-58931463D01*
X55754402Y-58931470D01*
X55746344Y-58936237D01*
X55733496Y-58949083D01*
X55715731Y-58964257D01*
X55708616Y-58969426D01*
X55708609Y-58969431D01*
X55701033Y-58974937D01*
X55695059Y-58982156D01*
X55695061Y-58982156D01*
X55673847Y-59007798D01*
X55664402Y-59018177D01*
X54139722Y-60542859D01*
X54091383Y-60575158D01*
X54034363Y-60586500D01*
X53417132Y-60586500D01*
X53407176Y-60586030D01*
X53399523Y-60584320D01*
X53390156Y-60584614D01*
X53390154Y-60584614D01*
X53332464Y-60586427D01*
X53327785Y-60586500D01*
X53300524Y-60586500D01*
X53295879Y-60587086D01*
X53291212Y-60587380D01*
X53291211Y-60587368D01*
X53283702Y-60587958D01*
X53250429Y-60589004D01*
X53250425Y-60589004D01*
X53241058Y-60589299D01*
X53232060Y-60591912D01*
X53232058Y-60591913D01*
X53227078Y-60593359D01*
X53223598Y-60594370D01*
X53200725Y-60599107D01*
X53182707Y-60601384D01*
X53173993Y-60604833D01*
X53173992Y-60604834D01*
X53143054Y-60617082D01*
X53129784Y-60621625D01*
X53097812Y-60630914D01*
X53097803Y-60630917D01*
X53088809Y-60633531D01*
X53080744Y-60638299D01*
X53080742Y-60638301D01*
X53073169Y-60642780D01*
X53052185Y-60653059D01*
X53035297Y-60659747D01*
X53027718Y-60665253D01*
X53027715Y-60665255D01*
X53000790Y-60684817D01*
X52989062Y-60692521D01*
X52960411Y-60709465D01*
X52960407Y-60709467D01*
X52952345Y-60714236D01*
X52945721Y-60720859D01*
X52945718Y-60720862D01*
X52942420Y-60724160D01*
X52939496Y-60727083D01*
X52921731Y-60742257D01*
X52914616Y-60747426D01*
X52914609Y-60747431D01*
X52907033Y-60752937D01*
X52901059Y-60760156D01*
X52901061Y-60760156D01*
X52879847Y-60785798D01*
X52870402Y-60796177D01*
X52711079Y-60955500D01*
X52648569Y-60992847D01*
X52575826Y-60996111D01*
X52510223Y-60964514D01*
X52467426Y-60905602D01*
X52458571Y-60840183D01*
X52457843Y-60840183D01*
X52457843Y-60834803D01*
X52457659Y-60833446D01*
X52458780Y-60823500D01*
X52439718Y-60654322D01*
X52383489Y-60493627D01*
X52292911Y-60349473D01*
X52172527Y-60229089D01*
X52136284Y-60206316D01*
X52035459Y-60142963D01*
X52035456Y-60142961D01*
X52028373Y-60138511D01*
X52020478Y-60135748D01*
X52020473Y-60135746D01*
X51875577Y-60085046D01*
X51867678Y-60082282D01*
X51859364Y-60081345D01*
X51859359Y-60081344D01*
X51706816Y-60064157D01*
X51698500Y-60063220D01*
X51690184Y-60064157D01*
X51537640Y-60081344D01*
X51537633Y-60081345D01*
X51529322Y-60082282D01*
X51521424Y-60085045D01*
X51521422Y-60085046D01*
X51376526Y-60135746D01*
X51376518Y-60135749D01*
X51368627Y-60138511D01*
X51361547Y-60142959D01*
X51361540Y-60142963D01*
X51231557Y-60224637D01*
X51231552Y-60224640D01*
X51224473Y-60229089D01*
X51218560Y-60235001D01*
X51218556Y-60235005D01*
X51164703Y-60288859D01*
X51116364Y-60321158D01*
X51059344Y-60332500D01*
X37923132Y-60332500D01*
X37913176Y-60332030D01*
X37905523Y-60330320D01*
X37896156Y-60330614D01*
X37896154Y-60330614D01*
X37838464Y-60332427D01*
X37833785Y-60332500D01*
X37806524Y-60332500D01*
X37801879Y-60333086D01*
X37797212Y-60333380D01*
X37797211Y-60333368D01*
X37789702Y-60333958D01*
X37756428Y-60335004D01*
X37756424Y-60335004D01*
X37747058Y-60335299D01*
X37738062Y-60337912D01*
X37738057Y-60337913D01*
X37729601Y-60340370D01*
X37706719Y-60345108D01*
X37698009Y-60346208D01*
X37698004Y-60346209D01*
X37688707Y-60347384D01*
X37679993Y-60350833D01*
X37679989Y-60350835D01*
X37649051Y-60363084D01*
X37635777Y-60367629D01*
X37603812Y-60376916D01*
X37603810Y-60376916D01*
X37594809Y-60379532D01*
X37586743Y-60384301D01*
X37586734Y-60384306D01*
X37579173Y-60388778D01*
X37558184Y-60399060D01*
X37550022Y-60402291D01*
X37550011Y-60402296D01*
X37541297Y-60405747D01*
X37533712Y-60411257D01*
X37533704Y-60411262D01*
X37506793Y-60430814D01*
X37495066Y-60438518D01*
X37466413Y-60455463D01*
X37466402Y-60455470D01*
X37458344Y-60460237D01*
X37445496Y-60473083D01*
X37427731Y-60488257D01*
X37420616Y-60493426D01*
X37420609Y-60493431D01*
X37413033Y-60498937D01*
X37407059Y-60506156D01*
X37407061Y-60506156D01*
X37385847Y-60531798D01*
X37376402Y-60542177D01*
X35957701Y-61960878D01*
X35924431Y-61985919D01*
X35898487Y-61995827D01*
X35898821Y-61996782D01*
X35769840Y-62041913D01*
X35715058Y-62050170D01*
X35661046Y-62037842D01*
X35615271Y-62006633D01*
X35504143Y-61895505D01*
X35504142Y-61895504D01*
X35498227Y-61889589D01*
X35487653Y-61882945D01*
X35361159Y-61803463D01*
X35361156Y-61803461D01*
X35354073Y-61799011D01*
X35346178Y-61796248D01*
X35346173Y-61796246D01*
X35201277Y-61745546D01*
X35193378Y-61742782D01*
X35185064Y-61741845D01*
X35185059Y-61741844D01*
X35032516Y-61724657D01*
X35024200Y-61723720D01*
X35015884Y-61724657D01*
X34863340Y-61741844D01*
X34863333Y-61741845D01*
X34855022Y-61742782D01*
X34847124Y-61745545D01*
X34847122Y-61745546D01*
X34702226Y-61796246D01*
X34702218Y-61796249D01*
X34694327Y-61799011D01*
X34687247Y-61803459D01*
X34687240Y-61803463D01*
X34557257Y-61885137D01*
X34557252Y-61885140D01*
X34550173Y-61889589D01*
X34544260Y-61895501D01*
X34544256Y-61895505D01*
X34435705Y-62004056D01*
X34435701Y-62004060D01*
X34429789Y-62009973D01*
X34425340Y-62017052D01*
X34425337Y-62017057D01*
X34343663Y-62147040D01*
X34343659Y-62147047D01*
X34339211Y-62154127D01*
X34336449Y-62162018D01*
X34336446Y-62162026D01*
X34285746Y-62306922D01*
X34282982Y-62314822D01*
X34282045Y-62323133D01*
X34282044Y-62323140D01*
X34272469Y-62408127D01*
X34263920Y-62484000D01*
X34264857Y-62492316D01*
X34282044Y-62644859D01*
X34282045Y-62644864D01*
X34282982Y-62653178D01*
X34285746Y-62661077D01*
X34336446Y-62805973D01*
X34336448Y-62805978D01*
X34339211Y-62813873D01*
X34343661Y-62820956D01*
X34343663Y-62820959D01*
X34373862Y-62869020D01*
X34390877Y-62907045D01*
X34396700Y-62948293D01*
X34396700Y-63141068D01*
X34396230Y-63151023D01*
X34394520Y-63158677D01*
X34394814Y-63168042D01*
X34394814Y-63168045D01*
X34396627Y-63225737D01*
X34396700Y-63230416D01*
X34396700Y-63257676D01*
X34397286Y-63262316D01*
X34397580Y-63266991D01*
X34397568Y-63266991D01*
X34398158Y-63274499D01*
X34399204Y-63307770D01*
X34399499Y-63317143D01*
X34402112Y-63326138D01*
X34402114Y-63326148D01*
X34404567Y-63334589D01*
X34409309Y-63357485D01*
X34410321Y-63365500D01*
X34411584Y-63375493D01*
X34415033Y-63384206D01*
X34415034Y-63384207D01*
X34427285Y-63415150D01*
X34431831Y-63428429D01*
X34441115Y-63460386D01*
X34441117Y-63460391D01*
X34443732Y-63469391D01*
X34448503Y-63477458D01*
X34448506Y-63477465D01*
X34452977Y-63485025D01*
X34463262Y-63506018D01*
X34466494Y-63514183D01*
X34466496Y-63514187D01*
X34469947Y-63522903D01*
X34475461Y-63530492D01*
X34475462Y-63530494D01*
X34495015Y-63557407D01*
X34502722Y-63569139D01*
X34519662Y-63597783D01*
X34519664Y-63597786D01*
X34524437Y-63605856D01*
X34531066Y-63612485D01*
X34531067Y-63612486D01*
X34537279Y-63618698D01*
X34552462Y-63636475D01*
X34557625Y-63643582D01*
X34557629Y-63643586D01*
X34563137Y-63651167D01*
X34570356Y-63657139D01*
X34570358Y-63657141D01*
X34595997Y-63678351D01*
X34606380Y-63687799D01*
X35061754Y-64143173D01*
X35068457Y-64150539D01*
X35072660Y-64157162D01*
X35079492Y-64163578D01*
X35079494Y-64163580D01*
X35121551Y-64203074D01*
X35124911Y-64206330D01*
X35144205Y-64225624D01*
X35147899Y-64228490D01*
X35151417Y-64231591D01*
X35151409Y-64231600D01*
X35157139Y-64236494D01*
X35161862Y-64240929D01*
X35176789Y-64254947D01*
X35188233Y-64265693D01*
X35200098Y-64272215D01*
X35204147Y-64274442D01*
X35223685Y-64287274D01*
X35238038Y-64298408D01*
X35246640Y-64302130D01*
X35246643Y-64302132D01*
X35277175Y-64315344D01*
X35289785Y-64321521D01*
X35327166Y-64342072D01*
X35336244Y-64344402D01*
X35336245Y-64344403D01*
X35344748Y-64346586D01*
X35366872Y-64354160D01*
X35383542Y-64361374D01*
X35425667Y-64368045D01*
X35439413Y-64370891D01*
X35480728Y-64381500D01*
X35498887Y-64381500D01*
X35522196Y-64383335D01*
X35530865Y-64384708D01*
X35530872Y-64384708D01*
X35540133Y-64386175D01*
X35582594Y-64382161D01*
X35596618Y-64381500D01*
X37260868Y-64381500D01*
X37270823Y-64381969D01*
X37278477Y-64383680D01*
X37345536Y-64381573D01*
X37350216Y-64381500D01*
X37372785Y-64381500D01*
X37377476Y-64381500D01*
X37382131Y-64380911D01*
X37386797Y-64380618D01*
X37386797Y-64380631D01*
X37394294Y-64380040D01*
X37436943Y-64378701D01*
X37454380Y-64373634D01*
X37477288Y-64368890D01*
X37495293Y-64366616D01*
X37534972Y-64350905D01*
X37548209Y-64346373D01*
X37589191Y-64334468D01*
X37604815Y-64325226D01*
X37625818Y-64314937D01*
X37642703Y-64308253D01*
X37677219Y-64283173D01*
X37688919Y-64275487D01*
X37725656Y-64253763D01*
X37738503Y-64240915D01*
X37756273Y-64225737D01*
X37770967Y-64215063D01*
X37798158Y-64182192D01*
X37807584Y-64171833D01*
X39080937Y-62898480D01*
X39141045Y-62861878D01*
X39211250Y-62856946D01*
X39275887Y-62884786D01*
X39313614Y-62930753D01*
X39315012Y-62929875D01*
X39329236Y-62952513D01*
X39351136Y-63015102D01*
X39343712Y-63080994D01*
X39311547Y-63172918D01*
X39311545Y-63172923D01*
X39308782Y-63180822D01*
X39307845Y-63189133D01*
X39307844Y-63189140D01*
X39291907Y-63330588D01*
X39289720Y-63350000D01*
X39290657Y-63358316D01*
X39307844Y-63510859D01*
X39307845Y-63510864D01*
X39308782Y-63519178D01*
X39311546Y-63527077D01*
X39362246Y-63671973D01*
X39362248Y-63671978D01*
X39365011Y-63679873D01*
X39369461Y-63686956D01*
X39369463Y-63686959D01*
X39440684Y-63800306D01*
X39455589Y-63824027D01*
X39575973Y-63944411D01*
X39720127Y-64034989D01*
X39749710Y-64045340D01*
X39801844Y-64076752D01*
X39837067Y-64126394D01*
X39849500Y-64185979D01*
X39849500Y-64770543D01*
X39833260Y-64838188D01*
X39788080Y-64891087D01*
X39723809Y-64917709D01*
X39654456Y-64912250D01*
X39595141Y-64875902D01*
X39558186Y-64838947D01*
X39543485Y-64827544D01*
X39418261Y-64753486D01*
X39401201Y-64746104D01*
X39259802Y-64705024D01*
X39244900Y-64702302D01*
X39218546Y-64700228D01*
X39212725Y-64700000D01*
X38814675Y-64700000D01*
X38802434Y-64702434D01*
X38800000Y-64714675D01*
X38800000Y-65585325D01*
X38802434Y-65597565D01*
X38814675Y-65600000D01*
X39785325Y-65600000D01*
X39797565Y-65597565D01*
X39800000Y-65585325D01*
X39800000Y-65411141D01*
X39814363Y-65347315D01*
X39854682Y-65295794D01*
X39913184Y-65266510D01*
X39978591Y-65265109D01*
X40038293Y-65291861D01*
X40076293Y-65320308D01*
X40120240Y-65372894D01*
X40136000Y-65439588D01*
X40136000Y-65753267D01*
X40134725Y-65772715D01*
X40134396Y-65775218D01*
X40131133Y-65800000D01*
X40150517Y-65947234D01*
X40184327Y-66028859D01*
X40196735Y-66058813D01*
X40208071Y-66117152D01*
X40195704Y-66175281D01*
X40161600Y-66223953D01*
X40126266Y-66246010D01*
X40127251Y-66247814D01*
X40099380Y-66263033D01*
X40038293Y-66308763D01*
X39978591Y-66335515D01*
X39913184Y-66334114D01*
X39854681Y-66304830D01*
X39814363Y-66253309D01*
X39800000Y-66189483D01*
X39800000Y-66014675D01*
X39797565Y-66002434D01*
X39785325Y-66000000D01*
X38814675Y-66000000D01*
X38802434Y-66002434D01*
X38800000Y-66014675D01*
X38800000Y-66885325D01*
X38802434Y-66897565D01*
X38814675Y-66900000D01*
X39212725Y-66900000D01*
X39218546Y-66899771D01*
X39244900Y-66897697D01*
X39259802Y-66894975D01*
X39401201Y-66853895D01*
X39418261Y-66846513D01*
X39543485Y-66772455D01*
X39558186Y-66761052D01*
X39595641Y-66723598D01*
X39654956Y-66687250D01*
X39724309Y-66681791D01*
X39788580Y-66708413D01*
X39833760Y-66761312D01*
X39850000Y-66828957D01*
X39850000Y-67135325D01*
X39852434Y-67147565D01*
X39864675Y-67150000D01*
X41600500Y-67150000D01*
X41675000Y-67169962D01*
X41729538Y-67224500D01*
X41749500Y-67299000D01*
X41749500Y-68043883D01*
X41749500Y-68043901D01*
X41749501Y-68047872D01*
X41749926Y-68051827D01*
X41749927Y-68051842D01*
X41753408Y-68084216D01*
X41755909Y-68107483D01*
X41759166Y-68116215D01*
X41759167Y-68116219D01*
X41802480Y-68232348D01*
X41802481Y-68232350D01*
X41806204Y-68242331D01*
X41812587Y-68250857D01*
X41812589Y-68250861D01*
X41820280Y-68261134D01*
X41842375Y-68303372D01*
X41850000Y-68350427D01*
X41850000Y-68400397D01*
X41849063Y-68417079D01*
X41839720Y-68500000D01*
X41840657Y-68508316D01*
X41857844Y-68660859D01*
X41857845Y-68660864D01*
X41858782Y-68669178D01*
X41861545Y-68677075D01*
X41861546Y-68677078D01*
X41866678Y-68691744D01*
X41874102Y-68757639D01*
X41852201Y-68820228D01*
X41805311Y-68867117D01*
X41770183Y-68889188D01*
X41760714Y-68898657D01*
X41767837Y-68909994D01*
X42339984Y-69482141D01*
X42372283Y-69530480D01*
X42383625Y-69587500D01*
X42372283Y-69644520D01*
X42339984Y-69692859D01*
X42267859Y-69764984D01*
X42219520Y-69797283D01*
X42162500Y-69808625D01*
X42105480Y-69797283D01*
X42057141Y-69764984D01*
X41535376Y-69243219D01*
X41525000Y-69236286D01*
X41514623Y-69243219D01*
X40992859Y-69764984D01*
X40944520Y-69797283D01*
X40887500Y-69808625D01*
X40830480Y-69797283D01*
X40782141Y-69764984D01*
X40260376Y-69243219D01*
X40250000Y-69236286D01*
X40239623Y-69243219D01*
X39717859Y-69764984D01*
X39669520Y-69797283D01*
X39612500Y-69808625D01*
X39555480Y-69797283D01*
X39507141Y-69764984D01*
X39435015Y-69692858D01*
X39402716Y-69644519D01*
X39391374Y-69587499D01*
X39402716Y-69530479D01*
X39435015Y-69482140D01*
X40007161Y-68909994D01*
X40014284Y-68898658D01*
X40014283Y-68898657D01*
X40485714Y-68898657D01*
X40492837Y-68909994D01*
X40877123Y-69294280D01*
X40887499Y-69301213D01*
X40897876Y-69294280D01*
X41282161Y-68909994D01*
X41289284Y-68898658D01*
X41279816Y-68889190D01*
X41243889Y-68866616D01*
X41228903Y-68859399D01*
X41074542Y-68805387D01*
X41058324Y-68801685D01*
X41017298Y-68797063D01*
X40947759Y-68770518D01*
X40933279Y-68753370D01*
X40926958Y-68760484D01*
X40859476Y-68785595D01*
X40716674Y-68801685D01*
X40700457Y-68805387D01*
X40546087Y-68859402D01*
X40531119Y-68866611D01*
X40495180Y-68889191D01*
X40485714Y-68898657D01*
X40014283Y-68898657D01*
X40004816Y-68889190D01*
X39968889Y-68866616D01*
X39953903Y-68859399D01*
X39799542Y-68805387D01*
X39783324Y-68801685D01*
X39620816Y-68783375D01*
X39604184Y-68783375D01*
X39441675Y-68801685D01*
X39425457Y-68805387D01*
X39271096Y-68859399D01*
X39256110Y-68866616D01*
X39117636Y-68953625D01*
X39104635Y-68963993D01*
X38988993Y-69079635D01*
X38978625Y-69092635D01*
X38956236Y-69128268D01*
X38907933Y-69176033D01*
X38905032Y-69177810D01*
X38205359Y-69877484D01*
X38157020Y-69909783D01*
X38100000Y-69921125D01*
X38042980Y-69909783D01*
X37994641Y-69877484D01*
X37922515Y-69805358D01*
X37890216Y-69757019D01*
X37878874Y-69699999D01*
X37890216Y-69642979D01*
X37922515Y-69594640D01*
X38776929Y-68740226D01*
X38784812Y-68727293D01*
X38779408Y-68714675D01*
X38766157Y-68701424D01*
X38668119Y-68628033D01*
X38649606Y-68617923D01*
X38533607Y-68574658D01*
X38515607Y-68570405D01*
X38469294Y-68565426D01*
X38461341Y-68565000D01*
X37738659Y-68565000D01*
X37730705Y-68565426D01*
X37684394Y-68570405D01*
X37666389Y-68574659D01*
X37644067Y-68582985D01*
X37592000Y-68592378D01*
X37539933Y-68582985D01*
X37517610Y-68574659D01*
X37499605Y-68570405D01*
X37453294Y-68565426D01*
X37445341Y-68565000D01*
X37217837Y-68565000D01*
X37156192Y-68551650D01*
X37105593Y-68513991D01*
X37075108Y-68458773D01*
X37070292Y-68397076D01*
X37071680Y-68391498D01*
X37076689Y-68206572D01*
X37045463Y-68043841D01*
X39850000Y-68043841D01*
X39850426Y-68051794D01*
X39855405Y-68098107D01*
X39859658Y-68116107D01*
X39902923Y-68232106D01*
X39913033Y-68250619D01*
X39986423Y-68348656D01*
X40001343Y-68363576D01*
X40099380Y-68436966D01*
X40117893Y-68447076D01*
X40233892Y-68490341D01*
X40251892Y-68494594D01*
X40298205Y-68499573D01*
X40306159Y-68500000D01*
X40485325Y-68500000D01*
X40497565Y-68497565D01*
X40500000Y-68485325D01*
X40900000Y-68485325D01*
X40902576Y-68498277D01*
X40925571Y-68513642D01*
X40944783Y-68534780D01*
X40961907Y-68518592D01*
X41033981Y-68500000D01*
X41093841Y-68500000D01*
X41101794Y-68499573D01*
X41157376Y-68493598D01*
X41157672Y-68496355D01*
X41192328Y-68496355D01*
X41192624Y-68493598D01*
X41248205Y-68499573D01*
X41256159Y-68500000D01*
X41435325Y-68500000D01*
X41447565Y-68497565D01*
X41450000Y-68485325D01*
X41450000Y-67564675D01*
X41447565Y-67552434D01*
X41435325Y-67550000D01*
X40914675Y-67550000D01*
X40902434Y-67552434D01*
X40900000Y-67564675D01*
X40900000Y-68485325D01*
X40500000Y-68485325D01*
X40500000Y-67564675D01*
X40497565Y-67552434D01*
X40485325Y-67550000D01*
X39864675Y-67550000D01*
X39852434Y-67552434D01*
X39850000Y-67564675D01*
X39850000Y-68043841D01*
X37045463Y-68043841D01*
X37041827Y-68024890D01*
X37021259Y-67977077D01*
X36971917Y-67862373D01*
X36971916Y-67862372D01*
X36968725Y-67854953D01*
X36860800Y-67704702D01*
X36854788Y-67699308D01*
X36854786Y-67699306D01*
X36760724Y-67614919D01*
X36723099Y-67581164D01*
X36562060Y-67490116D01*
X36554333Y-67487743D01*
X36554332Y-67487743D01*
X36392940Y-67438189D01*
X36392938Y-67438188D01*
X36385214Y-67435817D01*
X36377163Y-67435161D01*
X36377156Y-67435160D01*
X36208880Y-67421458D01*
X36208874Y-67421458D01*
X36200829Y-67420803D01*
X36192829Y-67421892D01*
X36192826Y-67421893D01*
X36025528Y-67444686D01*
X36025518Y-67444688D01*
X36017528Y-67445777D01*
X36009958Y-67448557D01*
X36009950Y-67448560D01*
X35851464Y-67506784D01*
X35851457Y-67506787D01*
X35843880Y-67509571D01*
X35837076Y-67513919D01*
X35837068Y-67513924D01*
X35694814Y-67604852D01*
X35694807Y-67604856D01*
X35688007Y-67609204D01*
X35682300Y-67614910D01*
X35682290Y-67614919D01*
X35495325Y-67801883D01*
X35486431Y-67810084D01*
X35453055Y-67838434D01*
X35453051Y-67838437D01*
X35446900Y-67843663D01*
X35442012Y-67850092D01*
X35442007Y-67850098D01*
X35399123Y-67906510D01*
X35396641Y-67909685D01*
X35352217Y-67964951D01*
X35352213Y-67964957D01*
X35347158Y-67971246D01*
X35343571Y-67978476D01*
X35342365Y-67980364D01*
X35341890Y-67981044D01*
X35341386Y-67981857D01*
X35340976Y-67982606D01*
X35339831Y-67984508D01*
X35334946Y-67990936D01*
X35331556Y-67998261D01*
X35331554Y-67998266D01*
X35301783Y-68062614D01*
X35300041Y-68066249D01*
X35268553Y-68129741D01*
X35268551Y-68129745D01*
X35264964Y-68136979D01*
X35263015Y-68144814D01*
X35262256Y-68146881D01*
X35261927Y-68147674D01*
X35261604Y-68148593D01*
X35261372Y-68149386D01*
X35260657Y-68151505D01*
X35257268Y-68158833D01*
X35255532Y-68166715D01*
X35255530Y-68166724D01*
X35240298Y-68235927D01*
X35239378Y-68239856D01*
X35232143Y-68268950D01*
X35220316Y-68316505D01*
X35220096Y-68324571D01*
X35219794Y-68326794D01*
X35219649Y-68327610D01*
X35219532Y-68328563D01*
X35219475Y-68329410D01*
X35219234Y-68331617D01*
X35217500Y-68339503D01*
X35217500Y-68347577D01*
X35217500Y-68418466D01*
X35217445Y-68422500D01*
X35215525Y-68493353D01*
X35215525Y-68493360D01*
X35215307Y-68501432D01*
X35216829Y-68509364D01*
X35217009Y-68511574D01*
X35217500Y-68523663D01*
X35217500Y-68700500D01*
X35206158Y-68757520D01*
X35173859Y-68805859D01*
X35125520Y-68838158D01*
X35068500Y-68849500D01*
X34873637Y-68849500D01*
X34816617Y-68838158D01*
X34768278Y-68805859D01*
X34612789Y-68650370D01*
X34606085Y-68643002D01*
X34601885Y-68636383D01*
X34592993Y-68628033D01*
X34552992Y-68590469D01*
X34549631Y-68587212D01*
X34533646Y-68571227D01*
X34530341Y-68567922D01*
X34526646Y-68565056D01*
X34523126Y-68561953D01*
X34523134Y-68561943D01*
X34517403Y-68557049D01*
X34500545Y-68541218D01*
X34486312Y-68527852D01*
X34478100Y-68523337D01*
X34478098Y-68523336D01*
X34470390Y-68519099D01*
X34450854Y-68506265D01*
X34443919Y-68500886D01*
X34443916Y-68500884D01*
X34436507Y-68495137D01*
X34397360Y-68478196D01*
X34384759Y-68472023D01*
X34355594Y-68455989D01*
X34355592Y-68455988D01*
X34347379Y-68451473D01*
X34338297Y-68449141D01*
X34329785Y-68446955D01*
X34307677Y-68439386D01*
X34299609Y-68435895D01*
X34299608Y-68435894D01*
X34291003Y-68432171D01*
X34272026Y-68429165D01*
X34248875Y-68425498D01*
X34235136Y-68422653D01*
X34202896Y-68414376D01*
X34202895Y-68414375D01*
X34193817Y-68412045D01*
X34184443Y-68412045D01*
X34175658Y-68412045D01*
X34152349Y-68410210D01*
X34143679Y-68408836D01*
X34143665Y-68408835D01*
X34134412Y-68407370D01*
X34125080Y-68408252D01*
X34125078Y-68408252D01*
X34091950Y-68411384D01*
X34077927Y-68412045D01*
X33771695Y-68412045D01*
X33704050Y-68395805D01*
X33651151Y-68350625D01*
X33624529Y-68286354D01*
X33629988Y-68217002D01*
X33666336Y-68157686D01*
X33985588Y-67838434D01*
X34306883Y-67517138D01*
X34321533Y-67504292D01*
X34345283Y-67486069D01*
X34441537Y-67360628D01*
X34502045Y-67214549D01*
X34509462Y-67158210D01*
X34512967Y-67131587D01*
X34521408Y-67067472D01*
X34522683Y-67057787D01*
X34518775Y-67028109D01*
X34517501Y-67008663D01*
X34517501Y-66312725D01*
X37400000Y-66312725D01*
X37400228Y-66318546D01*
X37402302Y-66344900D01*
X37405024Y-66359802D01*
X37446104Y-66501201D01*
X37453486Y-66518261D01*
X37527544Y-66643485D01*
X37538947Y-66658186D01*
X37641813Y-66761052D01*
X37656514Y-66772455D01*
X37781738Y-66846513D01*
X37798798Y-66853895D01*
X37940197Y-66894975D01*
X37955099Y-66897697D01*
X37981453Y-66899771D01*
X37987275Y-66900000D01*
X38385325Y-66900000D01*
X38397565Y-66897565D01*
X38400000Y-66885325D01*
X38400000Y-66014675D01*
X38397565Y-66002434D01*
X38385325Y-66000000D01*
X37414675Y-66000000D01*
X37402434Y-66002434D01*
X37400000Y-66014675D01*
X37400000Y-66312725D01*
X34517501Y-66312725D01*
X34517501Y-65585325D01*
X37400000Y-65585325D01*
X37402434Y-65597565D01*
X37414675Y-65600000D01*
X38385325Y-65600000D01*
X38397565Y-65597565D01*
X38400000Y-65585325D01*
X38400000Y-64714675D01*
X38397565Y-64702434D01*
X38385325Y-64700000D01*
X37987275Y-64700000D01*
X37981453Y-64700228D01*
X37955099Y-64702302D01*
X37940197Y-64705024D01*
X37798798Y-64746104D01*
X37781738Y-64753486D01*
X37656514Y-64827544D01*
X37641813Y-64838947D01*
X37538947Y-64941813D01*
X37527544Y-64956514D01*
X37453486Y-65081738D01*
X37446104Y-65098798D01*
X37405024Y-65240197D01*
X37402302Y-65255099D01*
X37400228Y-65281453D01*
X37400000Y-65287275D01*
X37400000Y-65585325D01*
X34517501Y-65585325D01*
X34517501Y-65484655D01*
X34528843Y-65427635D01*
X34561142Y-65379296D01*
X34606672Y-65333766D01*
X34666411Y-65274027D01*
X34756989Y-65129873D01*
X34813218Y-64969178D01*
X34832280Y-64800000D01*
X34813218Y-64630822D01*
X34756989Y-64470127D01*
X34666411Y-64325973D01*
X34546027Y-64205589D01*
X34507766Y-64181548D01*
X34408959Y-64119463D01*
X34408956Y-64119461D01*
X34401873Y-64115011D01*
X34393978Y-64112248D01*
X34393973Y-64112246D01*
X34249077Y-64061546D01*
X34241178Y-64058782D01*
X34232864Y-64057845D01*
X34232859Y-64057844D01*
X34080316Y-64040657D01*
X34072000Y-64039720D01*
X34063684Y-64040657D01*
X33911140Y-64057844D01*
X33911133Y-64057845D01*
X33902822Y-64058782D01*
X33894924Y-64061545D01*
X33894922Y-64061546D01*
X33742127Y-64115011D01*
X33741272Y-64112569D01*
X33692000Y-64123813D01*
X33642727Y-64112569D01*
X33641873Y-64115011D01*
X33481178Y-64058782D01*
X33472864Y-64057845D01*
X33472859Y-64057844D01*
X33320316Y-64040657D01*
X33312000Y-64039720D01*
X33303684Y-64040657D01*
X33151140Y-64057844D01*
X33151133Y-64057845D01*
X33142822Y-64058782D01*
X33134924Y-64061545D01*
X33134922Y-64061546D01*
X32990026Y-64112246D01*
X32990018Y-64112249D01*
X32982127Y-64115011D01*
X32975047Y-64119459D01*
X32975040Y-64119463D01*
X32845057Y-64201137D01*
X32845052Y-64201140D01*
X32837973Y-64205589D01*
X32832060Y-64211501D01*
X32832056Y-64211505D01*
X32723505Y-64320056D01*
X32723501Y-64320060D01*
X32717589Y-64325973D01*
X32713140Y-64333052D01*
X32713137Y-64333057D01*
X32631463Y-64463040D01*
X32631459Y-64463047D01*
X32627011Y-64470127D01*
X32624249Y-64478018D01*
X32624246Y-64478026D01*
X32586719Y-64585275D01*
X32570782Y-64630822D01*
X32569845Y-64639133D01*
X32569844Y-64639140D01*
X32557603Y-64747789D01*
X32551720Y-64800000D01*
X32552657Y-64808316D01*
X32569844Y-64960859D01*
X32569845Y-64960864D01*
X32570782Y-64969178D01*
X32573546Y-64977077D01*
X32624246Y-65121973D01*
X32624248Y-65121978D01*
X32627011Y-65129873D01*
X32631461Y-65136956D01*
X32631463Y-65136959D01*
X32681978Y-65217353D01*
X32717589Y-65274027D01*
X32723504Y-65279942D01*
X32723505Y-65279943D01*
X32822858Y-65379296D01*
X32855157Y-65427635D01*
X32866499Y-65484655D01*
X32866499Y-66560967D01*
X32855157Y-66617987D01*
X32822858Y-66666326D01*
X31325269Y-68163913D01*
X31310620Y-68176760D01*
X31294618Y-68189039D01*
X31294614Y-68189042D01*
X31286869Y-68194986D01*
X31280926Y-68202730D01*
X31280923Y-68202734D01*
X31224702Y-68276004D01*
X31196558Y-68312681D01*
X31196555Y-68312684D01*
X31190615Y-68320427D01*
X31186879Y-68329445D01*
X31186878Y-68329448D01*
X31133843Y-68457484D01*
X31133841Y-68457491D01*
X31130107Y-68466506D01*
X31128832Y-68476185D01*
X31128832Y-68476188D01*
X31115165Y-68580000D01*
X31109469Y-68623268D01*
X31112720Y-68647962D01*
X31113376Y-68652943D01*
X31114651Y-68672392D01*
X31114651Y-69406699D01*
X31113376Y-69426145D01*
X31109469Y-69455823D01*
X31110744Y-69465508D01*
X31114651Y-69495184D01*
X31128075Y-69597155D01*
X31130107Y-69612585D01*
X31133841Y-69621601D01*
X31133843Y-69621606D01*
X31180158Y-69733418D01*
X31190615Y-69758664D01*
X31196559Y-69766410D01*
X31196560Y-69766412D01*
X31280922Y-69876355D01*
X31286869Y-69884105D01*
X31294617Y-69890050D01*
X31310618Y-69902328D01*
X31325272Y-69915179D01*
X31855878Y-70445785D01*
X31888177Y-70494124D01*
X31899519Y-70551144D01*
X31899519Y-71728131D01*
X31888177Y-71785151D01*
X31855878Y-71833490D01*
X28848509Y-74840859D01*
X28800170Y-74873158D01*
X28743150Y-74884500D01*
X28454052Y-74884500D01*
X28379553Y-74864538D01*
X28325651Y-74810637D01*
X28324035Y-74807171D01*
X28232170Y-74675973D01*
X28192224Y-74618924D01*
X28192221Y-74618921D01*
X28188495Y-74613599D01*
X28021401Y-74446505D01*
X28016079Y-74442779D01*
X28016075Y-74442775D01*
X27833161Y-74314698D01*
X27833162Y-74314698D01*
X27827830Y-74310965D01*
X27821931Y-74308214D01*
X27821929Y-74308213D01*
X27634855Y-74220979D01*
X27613663Y-74211097D01*
X27607378Y-74209413D01*
X27391686Y-74151619D01*
X27391684Y-74151618D01*
X27385408Y-74149937D01*
X27378936Y-74149370D01*
X27378932Y-74149370D01*
X27156481Y-74129908D01*
X27150000Y-74129341D01*
X27143519Y-74129908D01*
X26921067Y-74149370D01*
X26921061Y-74149370D01*
X26914592Y-74149937D01*
X26908317Y-74151618D01*
X26908313Y-74151619D01*
X26692619Y-74209413D01*
X26692611Y-74209415D01*
X26686337Y-74211097D01*
X26680457Y-74213838D01*
X26680443Y-74213844D01*
X26478059Y-74308218D01*
X26478046Y-74308225D01*
X26472171Y-74310965D01*
X26466854Y-74314687D01*
X26466847Y-74314692D01*
X26283924Y-74442775D01*
X26283913Y-74442783D01*
X26278599Y-74446505D01*
X26274006Y-74451097D01*
X26274000Y-74451103D01*
X26116103Y-74609000D01*
X26116097Y-74609006D01*
X26111505Y-74613599D01*
X26107783Y-74618913D01*
X26107775Y-74618924D01*
X25979692Y-74801847D01*
X25979687Y-74801854D01*
X25975965Y-74807171D01*
X25973222Y-74813051D01*
X25973218Y-74813060D01*
X25932139Y-74901155D01*
X25891204Y-74953706D01*
X25831460Y-74983168D01*
X25764849Y-74983652D01*
X25704684Y-74955062D01*
X25662989Y-74903111D01*
X25648099Y-74838184D01*
X25648099Y-72126700D01*
X25659441Y-72069680D01*
X25691740Y-72021341D01*
X25740079Y-71989042D01*
X25797099Y-71977700D01*
X27919683Y-71977700D01*
X27933021Y-71978298D01*
X27959168Y-71980648D01*
X27989695Y-71972544D01*
X27998798Y-71970433D01*
X28035339Y-71963166D01*
X28042063Y-71958672D01*
X28042520Y-71958517D01*
X28095429Y-71944466D01*
X28271081Y-71862997D01*
X28429882Y-71752214D01*
X28566990Y-71615495D01*
X28678224Y-71457009D01*
X28760192Y-71281590D01*
X28810394Y-71094586D01*
X28827300Y-70901700D01*
X28810394Y-70708814D01*
X28760192Y-70521810D01*
X28678224Y-70346391D01*
X28566990Y-70187905D01*
X28429882Y-70051186D01*
X28271081Y-69940403D01*
X28265165Y-69937659D01*
X28101334Y-69861672D01*
X28101326Y-69861669D01*
X28095429Y-69858934D01*
X28042525Y-69844882D01*
X28042062Y-69844726D01*
X28035339Y-69840234D01*
X28020947Y-69837371D01*
X27998818Y-69832969D01*
X27989666Y-69830846D01*
X27971767Y-69826095D01*
X27971762Y-69826094D01*
X27959168Y-69822752D01*
X27946191Y-69823918D01*
X27946187Y-69823918D01*
X27933021Y-69825102D01*
X27919683Y-69825700D01*
X25797099Y-69825700D01*
X25740079Y-69814358D01*
X25691740Y-69782059D01*
X25659441Y-69733720D01*
X25648099Y-69676700D01*
X25648099Y-66665700D01*
X25659441Y-66608680D01*
X25691740Y-66560341D01*
X25740079Y-66528042D01*
X25797099Y-66516700D01*
X27893689Y-66516700D01*
X27900568Y-66516859D01*
X27913138Y-66517439D01*
X27925855Y-66520293D01*
X27938781Y-66518624D01*
X27938783Y-66518625D01*
X27947432Y-66517509D01*
X27951903Y-66517000D01*
X27954949Y-66516700D01*
X27962273Y-66516700D01*
X27973222Y-66514521D01*
X27983134Y-66512896D01*
X28130664Y-66493805D01*
X28445949Y-66416233D01*
X28750489Y-66303637D01*
X29040405Y-66157449D01*
X29312007Y-65979531D01*
X29561836Y-65772148D01*
X29786712Y-65537940D01*
X29983772Y-65279890D01*
X30150506Y-65001282D01*
X30284792Y-64705665D01*
X30384919Y-64396801D01*
X30449614Y-64078623D01*
X30478053Y-63755183D01*
X30474144Y-63597958D01*
X30474099Y-63594257D01*
X30474099Y-59934700D01*
X30485441Y-59877680D01*
X30517740Y-59829341D01*
X30566079Y-59797042D01*
X30623099Y-59785700D01*
X50377249Y-59785700D01*
X50398012Y-59787745D01*
X50402206Y-59787745D01*
X50416599Y-59790608D01*
X50514339Y-59771166D01*
X50597200Y-59715801D01*
X50652565Y-59632940D01*
X50667099Y-59559874D01*
X50672007Y-59535200D01*
X50669144Y-59520807D01*
X50669144Y-59516613D01*
X50667099Y-59495850D01*
X50667099Y-58156700D01*
X50678441Y-58099680D01*
X50710740Y-58051341D01*
X50759079Y-58019042D01*
X50816099Y-58007700D01*
X96987121Y-58007700D01*
X97044141Y-58019042D01*
G37*
%TD.AperFunction*%
%TA.AperFunction,Conductor*%
G36*
X67949134Y-62112365D02*
G01*
X68002404Y-62159143D01*
X68028026Y-62225244D01*
X68020202Y-62295704D01*
X67980701Y-62354572D01*
X67918465Y-62388523D01*
X67864448Y-62402846D01*
X67864439Y-62402848D01*
X67862126Y-62403462D01*
X67859873Y-62404218D01*
X67859855Y-62404224D01*
X67385981Y-62563367D01*
X67385973Y-62563369D01*
X67383689Y-62564137D01*
X67381444Y-62565056D01*
X67381435Y-62565060D01*
X66918910Y-62754533D01*
X66918891Y-62754541D01*
X66916661Y-62755455D01*
X66914495Y-62756510D01*
X66914488Y-62756514D01*
X66706646Y-62857833D01*
X66696179Y-62862342D01*
X66695086Y-62862880D01*
X66688253Y-62865454D01*
X66682044Y-62869314D01*
X66678908Y-62870862D01*
X66671368Y-62875030D01*
X66661839Y-62879676D01*
X66661835Y-62879678D01*
X66650127Y-62885387D01*
X66641657Y-62894152D01*
X66636161Y-62897851D01*
X56279623Y-69339113D01*
X56259168Y-69349735D01*
X56259047Y-69349785D01*
X56259037Y-69349791D01*
X56247050Y-69354881D01*
X56237522Y-69363766D01*
X56237519Y-69363768D01*
X56232586Y-69368369D01*
X56231775Y-69367499D01*
X56231539Y-69367652D01*
X56232349Y-69368517D01*
X56214110Y-69385601D01*
X56152068Y-69443494D01*
X56116558Y-69476630D01*
X56110927Y-69481884D01*
X56107936Y-69485478D01*
X56107922Y-69485493D01*
X55932276Y-69696562D01*
X55932265Y-69696576D01*
X55929265Y-69700182D01*
X55926740Y-69704138D01*
X55926734Y-69704148D01*
X55779046Y-69935650D01*
X55779041Y-69935657D01*
X55776521Y-69939609D01*
X55774518Y-69943843D01*
X55774513Y-69943854D01*
X55657132Y-70192109D01*
X55657128Y-70192117D01*
X55655125Y-70196355D01*
X55653670Y-70200812D01*
X55653668Y-70200818D01*
X55568467Y-70461866D01*
X55568463Y-70461879D01*
X55567008Y-70466339D01*
X55566125Y-70470945D01*
X55566122Y-70470959D01*
X55515093Y-70737323D01*
X55513571Y-70745266D01*
X55513275Y-70749944D01*
X55513275Y-70749948D01*
X55499676Y-70965200D01*
X55495664Y-71028700D01*
X55495960Y-71033385D01*
X55512014Y-71287499D01*
X55513571Y-71312134D01*
X55514454Y-71316743D01*
X55566122Y-71586440D01*
X55566124Y-71586450D01*
X55567008Y-71591061D01*
X55568464Y-71595524D01*
X55568467Y-71595533D01*
X55645660Y-71832046D01*
X55655125Y-71861045D01*
X55657131Y-71865288D01*
X55657132Y-71865290D01*
X55769790Y-72103557D01*
X55776521Y-72117791D01*
X55779045Y-72121748D01*
X55779046Y-72121749D01*
X55888612Y-72293495D01*
X55929265Y-72357218D01*
X55932271Y-72360830D01*
X55932276Y-72360837D01*
X55963876Y-72398809D01*
X56110046Y-72574457D01*
X56110927Y-72575516D01*
X56110745Y-72575666D01*
X56144003Y-72633189D01*
X56148033Y-72701814D01*
X56120826Y-72764944D01*
X56068175Y-72809142D01*
X56001286Y-72825000D01*
X55414675Y-72825000D01*
X55402434Y-72827434D01*
X55400000Y-72839675D01*
X55400000Y-73960325D01*
X55402434Y-73972565D01*
X55414675Y-73975000D01*
X56535325Y-73975000D01*
X56547565Y-73972565D01*
X56550000Y-73960325D01*
X56550000Y-73281159D01*
X56549573Y-73273205D01*
X56544594Y-73226892D01*
X56540340Y-73208888D01*
X56536395Y-73198311D01*
X56528489Y-73125221D01*
X56556493Y-73057248D01*
X56613590Y-73010938D01*
X56685879Y-72997566D01*
X56755763Y-73020386D01*
X60692964Y-75515796D01*
X65265045Y-78413594D01*
X65267594Y-78415246D01*
X65313329Y-78445557D01*
X65495373Y-78566208D01*
X65727277Y-78699104D01*
X65974557Y-78840812D01*
X65974563Y-78840815D01*
X65976655Y-78842014D01*
X66474848Y-79085952D01*
X66987843Y-79296992D01*
X67513471Y-79474240D01*
X67515818Y-79474865D01*
X67515822Y-79474866D01*
X68003509Y-79604700D01*
X68049508Y-79616946D01*
X68593688Y-79724507D01*
X69143709Y-79796468D01*
X69697245Y-79832525D01*
X70249538Y-79832525D01*
X70251953Y-79832525D01*
X70805489Y-79796468D01*
X71355510Y-79724507D01*
X71899690Y-79616946D01*
X72435727Y-79474240D01*
X72961355Y-79296992D01*
X73474350Y-79085952D01*
X73972543Y-78842014D01*
X74453825Y-78566208D01*
X74682117Y-78414905D01*
X74684214Y-78413541D01*
X83408702Y-72850100D01*
X83410443Y-72852831D01*
X83411980Y-72851719D01*
X83410614Y-72849647D01*
X83444887Y-72827047D01*
X83446744Y-72825841D01*
X83465088Y-72814145D01*
X83465087Y-72814145D01*
X83465093Y-72814142D01*
X83465850Y-72815329D01*
X83467600Y-72814457D01*
X83466501Y-72812791D01*
X83466501Y-72812790D01*
X83562473Y-72749492D01*
X83772030Y-72570676D01*
X83957967Y-72367411D01*
X84117451Y-72142791D01*
X84248055Y-71900238D01*
X84347789Y-71643445D01*
X84415134Y-71376323D01*
X84449065Y-71102940D01*
X84449065Y-70827460D01*
X84415135Y-70554078D01*
X84347789Y-70286956D01*
X84248055Y-70030163D01*
X84117452Y-69787610D01*
X83957967Y-69562990D01*
X83950723Y-69555071D01*
X83775133Y-69363115D01*
X83775132Y-69363114D01*
X83772031Y-69359724D01*
X83562473Y-69180908D01*
X83465787Y-69117137D01*
X83466808Y-69115588D01*
X83464287Y-69114350D01*
X83463748Y-69115209D01*
X83446539Y-69104399D01*
X83443773Y-69102619D01*
X83440841Y-69100686D01*
X83427203Y-69091693D01*
X83410615Y-69080755D01*
X83411743Y-69079044D01*
X83409525Y-69077445D01*
X83407858Y-69080099D01*
X73568396Y-62898898D01*
X73561844Y-62894468D01*
X73553072Y-62885387D01*
X73541356Y-62879675D01*
X73541352Y-62879672D01*
X73532648Y-62875429D01*
X73526572Y-62872053D01*
X73522159Y-62869851D01*
X73515959Y-62865957D01*
X73509122Y-62863348D01*
X73508793Y-62863184D01*
X73497359Y-62858227D01*
X73494731Y-62856946D01*
X73412140Y-62816684D01*
X73288724Y-62756520D01*
X73288707Y-62756512D01*
X73286538Y-62755455D01*
X73284298Y-62754537D01*
X73284286Y-62754532D01*
X72851252Y-62577140D01*
X72819510Y-62564137D01*
X72761169Y-62544544D01*
X72343347Y-62404225D01*
X72343327Y-62404219D01*
X72341073Y-62403462D01*
X72338776Y-62402852D01*
X72338743Y-62402843D01*
X72284735Y-62388523D01*
X72222499Y-62354572D01*
X72182998Y-62295704D01*
X72175174Y-62225244D01*
X72200796Y-62159143D01*
X72254066Y-62112365D01*
X72322924Y-62095500D01*
X77148363Y-62095500D01*
X77205383Y-62106842D01*
X77253722Y-62139141D01*
X84083754Y-68969173D01*
X84090457Y-68976539D01*
X84094660Y-68983162D01*
X84101492Y-68989578D01*
X84101494Y-68989580D01*
X84143551Y-69029074D01*
X84146912Y-69032331D01*
X84166204Y-69051623D01*
X84169906Y-69054494D01*
X84173418Y-69057590D01*
X84173409Y-69057599D01*
X84179138Y-69062492D01*
X84203396Y-69085273D01*
X84203398Y-69085274D01*
X84210233Y-69091693D01*
X84226150Y-69100443D01*
X84245691Y-69113279D01*
X84260038Y-69124408D01*
X84268641Y-69128131D01*
X84268645Y-69128133D01*
X84299175Y-69141344D01*
X84311785Y-69147521D01*
X84349166Y-69168072D01*
X84358244Y-69170402D01*
X84358245Y-69170403D01*
X84366748Y-69172586D01*
X84388872Y-69180160D01*
X84405542Y-69187374D01*
X84447667Y-69194045D01*
X84461413Y-69196891D01*
X84502728Y-69207500D01*
X84520887Y-69207500D01*
X84544196Y-69209335D01*
X84552865Y-69210708D01*
X84552872Y-69210708D01*
X84562133Y-69212175D01*
X84604594Y-69208161D01*
X84618618Y-69207500D01*
X86620362Y-69207500D01*
X86688007Y-69223740D01*
X86740906Y-69268921D01*
X86767528Y-69333192D01*
X86762069Y-69402545D01*
X86725720Y-69461860D01*
X86685826Y-69501753D01*
X86678455Y-69508459D01*
X86671838Y-69512660D01*
X86665427Y-69519486D01*
X86665423Y-69519490D01*
X86625907Y-69561569D01*
X86622657Y-69564922D01*
X86606696Y-69580884D01*
X86606689Y-69580891D01*
X86603377Y-69584204D01*
X86600506Y-69587904D01*
X86597408Y-69591419D01*
X86597398Y-69591410D01*
X86592508Y-69597135D01*
X86569726Y-69621395D01*
X86569718Y-69621405D01*
X86563307Y-69628233D01*
X86558792Y-69636444D01*
X86558790Y-69636448D01*
X86554553Y-69644155D01*
X86541725Y-69663684D01*
X86536339Y-69670627D01*
X86536334Y-69670634D01*
X86530592Y-69678038D01*
X86526869Y-69686640D01*
X86526866Y-69686646D01*
X86513651Y-69717182D01*
X86507480Y-69729779D01*
X86491442Y-69758952D01*
X86491437Y-69758962D01*
X86486928Y-69767166D01*
X86484598Y-69776237D01*
X86484596Y-69776244D01*
X86482409Y-69784761D01*
X86474843Y-69806860D01*
X86471349Y-69814935D01*
X86471346Y-69814944D01*
X86467626Y-69823542D01*
X86466160Y-69832793D01*
X86466159Y-69832799D01*
X86460953Y-69865671D01*
X86458107Y-69879414D01*
X86449831Y-69911646D01*
X86449830Y-69911651D01*
X86447500Y-69920728D01*
X86447500Y-69930102D01*
X86447500Y-69938887D01*
X86445665Y-69962196D01*
X86444291Y-69970865D01*
X86444290Y-69970879D01*
X86442825Y-69980133D01*
X86443707Y-69989463D01*
X86443707Y-69989466D01*
X86446839Y-70022595D01*
X86447500Y-70036618D01*
X86447500Y-70585707D01*
X86441677Y-70626955D01*
X86424662Y-70664980D01*
X86394463Y-70713040D01*
X86394459Y-70713047D01*
X86390011Y-70720127D01*
X86387249Y-70728018D01*
X86387246Y-70728026D01*
X86340970Y-70860280D01*
X86333782Y-70880822D01*
X86332845Y-70889133D01*
X86332844Y-70889140D01*
X86323975Y-70967859D01*
X86314720Y-71050000D01*
X86315657Y-71058316D01*
X86332844Y-71210859D01*
X86332845Y-71210864D01*
X86333782Y-71219178D01*
X86336546Y-71227077D01*
X86387246Y-71371973D01*
X86387248Y-71371978D01*
X86390011Y-71379873D01*
X86394461Y-71386956D01*
X86394463Y-71386959D01*
X86474110Y-71513716D01*
X86480589Y-71524027D01*
X86600973Y-71644411D01*
X86675840Y-71691453D01*
X86734212Y-71728131D01*
X86745127Y-71734989D01*
X86905822Y-71791218D01*
X87075000Y-71810280D01*
X87244178Y-71791218D01*
X87404873Y-71734989D01*
X87549027Y-71644411D01*
X87613044Y-71580393D01*
X87669190Y-71545114D01*
X87735086Y-71537690D01*
X87797677Y-71559592D01*
X87844564Y-71606481D01*
X87855589Y-71624027D01*
X87975973Y-71744411D01*
X88046685Y-71788842D01*
X88109551Y-71828344D01*
X88120127Y-71834989D01*
X88280822Y-71891218D01*
X88450000Y-71910280D01*
X88619178Y-71891218D01*
X88779873Y-71834989D01*
X88835018Y-71800338D01*
X88873045Y-71783323D01*
X88914293Y-71777500D01*
X92926363Y-71777500D01*
X92983383Y-71788842D01*
X93031722Y-71821141D01*
X93480722Y-72270141D01*
X93517070Y-72329456D01*
X93522529Y-72398809D01*
X93495907Y-72463080D01*
X93443008Y-72508260D01*
X93375363Y-72524500D01*
X92533123Y-72524500D01*
X92523177Y-72524031D01*
X92515523Y-72522320D01*
X92506152Y-72522614D01*
X92506147Y-72522614D01*
X92448509Y-72524426D01*
X92443829Y-72524500D01*
X92416524Y-72524500D01*
X92411882Y-72525086D01*
X92407209Y-72525380D01*
X92407208Y-72525368D01*
X92399692Y-72525959D01*
X92366426Y-72527005D01*
X92366422Y-72527005D01*
X92357057Y-72527300D01*
X92348064Y-72529912D01*
X92348054Y-72529914D01*
X92339609Y-72532368D01*
X92316728Y-72537106D01*
X92308010Y-72538207D01*
X92307997Y-72538210D01*
X92298707Y-72539384D01*
X92289998Y-72542831D01*
X92289990Y-72542834D01*
X92259038Y-72555088D01*
X92245767Y-72559631D01*
X92213812Y-72568915D01*
X92213802Y-72568918D01*
X92204809Y-72571532D01*
X92196751Y-72576297D01*
X92196738Y-72576303D01*
X92189173Y-72580778D01*
X92168184Y-72591060D01*
X92160022Y-72594291D01*
X92160011Y-72594296D01*
X92151297Y-72597747D01*
X92143712Y-72603257D01*
X92143704Y-72603262D01*
X92116793Y-72622814D01*
X92105066Y-72630518D01*
X92076413Y-72647463D01*
X92076402Y-72647470D01*
X92068344Y-72652237D01*
X92055496Y-72665083D01*
X92037731Y-72680257D01*
X92030616Y-72685426D01*
X92030609Y-72685431D01*
X92023033Y-72690937D01*
X92017059Y-72698156D01*
X92017061Y-72698156D01*
X91995847Y-72723798D01*
X91986402Y-72734177D01*
X86651722Y-78068859D01*
X86603383Y-78101158D01*
X86546363Y-78112500D01*
X81042766Y-78112500D01*
X81032810Y-78112030D01*
X81025157Y-78110320D01*
X81015790Y-78110614D01*
X81015788Y-78110614D01*
X80958098Y-78112427D01*
X80953419Y-78112500D01*
X80926158Y-78112500D01*
X80921513Y-78113086D01*
X80916846Y-78113380D01*
X80916845Y-78113368D01*
X80909336Y-78113958D01*
X80876062Y-78115004D01*
X80876058Y-78115004D01*
X80866692Y-78115299D01*
X80857696Y-78117912D01*
X80857691Y-78117913D01*
X80849235Y-78120370D01*
X80826353Y-78125108D01*
X80817643Y-78126208D01*
X80817638Y-78126209D01*
X80808341Y-78127384D01*
X80799627Y-78130833D01*
X80799623Y-78130835D01*
X80768685Y-78143084D01*
X80755411Y-78147629D01*
X80723446Y-78156916D01*
X80723444Y-78156916D01*
X80714443Y-78159532D01*
X80706377Y-78164301D01*
X80706368Y-78164306D01*
X80698807Y-78168778D01*
X80677818Y-78179060D01*
X80669656Y-78182291D01*
X80669645Y-78182296D01*
X80660931Y-78185747D01*
X80653346Y-78191257D01*
X80653338Y-78191262D01*
X80626427Y-78210814D01*
X80614700Y-78218518D01*
X80586047Y-78235463D01*
X80586036Y-78235470D01*
X80577978Y-78240237D01*
X80565130Y-78253083D01*
X80547365Y-78268257D01*
X80540250Y-78273426D01*
X80540243Y-78273431D01*
X80532667Y-78278937D01*
X80526693Y-78286156D01*
X80526695Y-78286156D01*
X80505481Y-78311798D01*
X80496036Y-78322177D01*
X79869518Y-78948695D01*
X79836248Y-78973736D01*
X79810304Y-78983644D01*
X79810639Y-78984599D01*
X79657843Y-79038063D01*
X79657835Y-79038066D01*
X79649944Y-79040828D01*
X79642864Y-79045276D01*
X79642857Y-79045280D01*
X79512874Y-79126954D01*
X79512869Y-79126957D01*
X79505790Y-79131406D01*
X79499877Y-79137318D01*
X79499873Y-79137322D01*
X79391322Y-79245873D01*
X79391318Y-79245877D01*
X79385406Y-79251790D01*
X79380957Y-79258869D01*
X79380954Y-79258874D01*
X79299280Y-79388857D01*
X79299276Y-79388864D01*
X79294828Y-79395944D01*
X79292066Y-79403835D01*
X79292063Y-79403843D01*
X79242974Y-79544135D01*
X79238599Y-79556639D01*
X79237662Y-79564950D01*
X79237661Y-79564957D01*
X79221220Y-79710876D01*
X79219537Y-79725817D01*
X79220474Y-79734133D01*
X79237661Y-79886676D01*
X79237662Y-79886681D01*
X79238599Y-79894995D01*
X79241363Y-79902895D01*
X79241364Y-79902898D01*
X79256547Y-79946290D01*
X79263445Y-80016330D01*
X79237426Y-80081723D01*
X79184296Y-80127879D01*
X79115908Y-80144500D01*
X62307127Y-80144500D01*
X62297177Y-80144030D01*
X62289523Y-80142320D01*
X62280155Y-80142614D01*
X62280151Y-80142614D01*
X62222509Y-80144426D01*
X62217829Y-80144500D01*
X62190524Y-80144500D01*
X62185891Y-80145084D01*
X62181994Y-80145330D01*
X62155964Y-80144687D01*
X62111318Y-80139657D01*
X62111316Y-80139657D01*
X62103000Y-80138720D01*
X62094684Y-80139657D01*
X61942140Y-80156844D01*
X61942133Y-80156845D01*
X61933822Y-80157782D01*
X61925924Y-80160545D01*
X61925922Y-80160546D01*
X61781026Y-80211246D01*
X61781018Y-80211249D01*
X61773127Y-80214011D01*
X61766047Y-80218459D01*
X61766040Y-80218463D01*
X61636057Y-80300137D01*
X61636052Y-80300140D01*
X61628973Y-80304589D01*
X61623060Y-80310501D01*
X61623056Y-80310505D01*
X61514505Y-80419056D01*
X61514501Y-80419060D01*
X61508589Y-80424973D01*
X61504140Y-80432052D01*
X61504137Y-80432057D01*
X61422463Y-80562040D01*
X61422459Y-80562047D01*
X61418011Y-80569127D01*
X61415249Y-80577018D01*
X61415246Y-80577026D01*
X61364559Y-80721886D01*
X61361782Y-80729822D01*
X61360845Y-80738133D01*
X61360844Y-80738140D01*
X61345654Y-80872956D01*
X61342720Y-80899000D01*
X61343657Y-80907316D01*
X61360844Y-81059859D01*
X61360845Y-81059864D01*
X61361782Y-81068178D01*
X61364546Y-81076077D01*
X61415246Y-81220973D01*
X61415248Y-81220978D01*
X61418011Y-81228873D01*
X61422461Y-81235956D01*
X61422463Y-81235959D01*
X61504630Y-81366727D01*
X61526120Y-81425999D01*
X61521173Y-81488852D01*
X61490676Y-81544033D01*
X61440088Y-81581661D01*
X61378468Y-81595000D01*
X61170293Y-81595000D01*
X61129045Y-81589177D01*
X61091020Y-81572162D01*
X61042959Y-81541963D01*
X61042956Y-81541961D01*
X61035873Y-81537511D01*
X61027978Y-81534748D01*
X61027973Y-81534746D01*
X60883077Y-81484046D01*
X60875178Y-81481282D01*
X60866864Y-81480345D01*
X60866859Y-81480344D01*
X60714316Y-81463157D01*
X60706000Y-81462220D01*
X60697684Y-81463157D01*
X60545140Y-81480344D01*
X60545133Y-81480345D01*
X60536822Y-81481282D01*
X60528924Y-81484045D01*
X60528922Y-81484046D01*
X60384026Y-81534746D01*
X60384018Y-81534749D01*
X60376127Y-81537511D01*
X60369047Y-81541959D01*
X60369040Y-81541963D01*
X60239057Y-81623637D01*
X60239052Y-81623640D01*
X60231973Y-81628089D01*
X60226060Y-81634001D01*
X60226056Y-81634005D01*
X60117505Y-81742556D01*
X60117501Y-81742560D01*
X60111589Y-81748473D01*
X60107140Y-81755552D01*
X60107137Y-81755557D01*
X60025463Y-81885540D01*
X60025459Y-81885547D01*
X60021011Y-81892627D01*
X60018249Y-81900518D01*
X60018246Y-81900526D01*
X59969017Y-82041218D01*
X59964782Y-82053322D01*
X59963845Y-82061633D01*
X59963844Y-82061640D01*
X59948426Y-82198482D01*
X59926525Y-82261072D01*
X59879636Y-82307961D01*
X59817046Y-82329862D01*
X59751151Y-82322438D01*
X59695004Y-82287158D01*
X58329141Y-80921295D01*
X58296842Y-80872956D01*
X58285500Y-80815936D01*
X58285500Y-78950293D01*
X58291323Y-78909045D01*
X58308338Y-78871020D01*
X58324733Y-78844927D01*
X58342989Y-78815873D01*
X58399218Y-78655178D01*
X58418280Y-78486000D01*
X58399218Y-78316822D01*
X58342989Y-78156127D01*
X58252411Y-78011973D01*
X58132027Y-77891589D01*
X58124942Y-77887137D01*
X57994959Y-77805463D01*
X57994956Y-77805461D01*
X57987873Y-77801011D01*
X57979978Y-77798248D01*
X57979973Y-77798246D01*
X57835077Y-77747546D01*
X57827178Y-77744782D01*
X57818864Y-77743845D01*
X57818859Y-77743844D01*
X57666316Y-77726657D01*
X57658000Y-77725720D01*
X57649684Y-77726657D01*
X57497140Y-77743844D01*
X57497133Y-77743845D01*
X57488822Y-77744782D01*
X57480924Y-77747545D01*
X57480922Y-77747546D01*
X57336026Y-77798246D01*
X57336018Y-77798249D01*
X57328127Y-77801011D01*
X57321047Y-77805459D01*
X57321040Y-77805463D01*
X57191057Y-77887137D01*
X57191052Y-77887140D01*
X57183973Y-77891589D01*
X57178060Y-77897501D01*
X57178056Y-77897505D01*
X57069505Y-78006056D01*
X57069501Y-78006060D01*
X57063589Y-78011973D01*
X57059140Y-78019052D01*
X57059137Y-78019057D01*
X56977463Y-78149040D01*
X56977459Y-78149047D01*
X56973011Y-78156127D01*
X56970249Y-78164018D01*
X56970246Y-78164026D01*
X56919913Y-78307873D01*
X56916782Y-78316822D01*
X56915845Y-78325133D01*
X56915844Y-78325140D01*
X56902277Y-78445557D01*
X56897720Y-78486000D01*
X56898657Y-78494316D01*
X56915844Y-78646859D01*
X56915845Y-78646864D01*
X56916782Y-78655178D01*
X56919546Y-78663077D01*
X56970246Y-78807973D01*
X56970248Y-78807978D01*
X56973011Y-78815873D01*
X56977461Y-78822956D01*
X56977463Y-78822959D01*
X57007662Y-78871020D01*
X57024677Y-78909045D01*
X57030500Y-78950293D01*
X57030500Y-81060441D01*
X57030030Y-81070396D01*
X57028320Y-81078050D01*
X57028614Y-81087415D01*
X57028614Y-81087418D01*
X57030427Y-81145110D01*
X57030500Y-81149764D01*
X57030500Y-81177049D01*
X57031086Y-81181689D01*
X57031380Y-81186364D01*
X57031368Y-81186364D01*
X57031958Y-81193872D01*
X57032810Y-81220973D01*
X57033299Y-81236516D01*
X57035912Y-81245511D01*
X57035914Y-81245521D01*
X57038367Y-81253962D01*
X57043109Y-81276858D01*
X57045384Y-81294866D01*
X57048833Y-81303579D01*
X57048834Y-81303580D01*
X57061085Y-81334523D01*
X57065631Y-81347802D01*
X57074915Y-81379759D01*
X57074917Y-81379764D01*
X57077532Y-81388764D01*
X57082303Y-81396831D01*
X57082306Y-81396838D01*
X57086777Y-81404398D01*
X57097062Y-81425391D01*
X57100294Y-81433556D01*
X57100296Y-81433560D01*
X57103747Y-81442276D01*
X57109261Y-81449865D01*
X57109262Y-81449867D01*
X57128815Y-81476780D01*
X57136522Y-81488512D01*
X57153462Y-81517156D01*
X57153464Y-81517159D01*
X57158237Y-81525229D01*
X57164867Y-81531859D01*
X57171079Y-81538071D01*
X57186262Y-81555848D01*
X57191425Y-81562955D01*
X57191429Y-81562959D01*
X57196937Y-81570540D01*
X57204156Y-81576512D01*
X57204158Y-81576514D01*
X57229797Y-81597724D01*
X57240180Y-81607172D01*
X58571149Y-82938141D01*
X58607497Y-82997456D01*
X58612956Y-83066809D01*
X58586334Y-83131080D01*
X58533435Y-83176260D01*
X58465790Y-83192500D01*
X54406471Y-83192500D01*
X54340222Y-83176962D01*
X54287790Y-83133588D01*
X54260111Y-83071424D01*
X54262958Y-83003437D01*
X54295738Y-82943805D01*
X54351609Y-82904967D01*
X54371972Y-82896905D01*
X54385209Y-82892373D01*
X54426191Y-82880468D01*
X54441815Y-82871226D01*
X54462818Y-82860937D01*
X54479703Y-82854253D01*
X54514219Y-82829173D01*
X54525919Y-82821487D01*
X54562656Y-82799763D01*
X54575503Y-82786915D01*
X54593273Y-82771737D01*
X54607967Y-82761063D01*
X54635158Y-82728192D01*
X54644584Y-82717833D01*
X55589186Y-81773231D01*
X55596537Y-81766543D01*
X55603162Y-81762340D01*
X55649122Y-81713395D01*
X55652317Y-81710100D01*
X55671623Y-81690796D01*
X55674499Y-81687087D01*
X55677600Y-81683570D01*
X55677610Y-81683579D01*
X55682488Y-81677864D01*
X55711693Y-81646767D01*
X55720439Y-81630855D01*
X55733280Y-81611307D01*
X55738661Y-81604370D01*
X55744408Y-81596962D01*
X55761352Y-81557804D01*
X55767522Y-81545212D01*
X55788072Y-81507834D01*
X55792587Y-81490244D01*
X55800165Y-81468115D01*
X55801808Y-81464319D01*
X55807374Y-81451458D01*
X55814046Y-81409326D01*
X55816894Y-81395577D01*
X55818643Y-81388764D01*
X55827500Y-81354272D01*
X55827500Y-81336113D01*
X55829335Y-81312804D01*
X55830708Y-81304134D01*
X55830708Y-81304128D01*
X55832175Y-81294867D01*
X55828161Y-81252405D01*
X55827500Y-81238382D01*
X55827500Y-78001841D01*
X55844335Y-77933040D01*
X55891036Y-77879787D01*
X56071401Y-77753495D01*
X56238495Y-77586401D01*
X56374035Y-77392830D01*
X56473903Y-77178663D01*
X56535063Y-76950408D01*
X56554567Y-76727480D01*
X56555092Y-76721481D01*
X56555659Y-76715000D01*
X56535063Y-76479592D01*
X56473903Y-76251337D01*
X56470989Y-76245089D01*
X56376781Y-76043059D01*
X56376779Y-76043055D01*
X56374035Y-76037171D01*
X56312061Y-75948663D01*
X56242224Y-75848924D01*
X56242221Y-75848921D01*
X56238495Y-75843599D01*
X56143687Y-75748791D01*
X56106082Y-75685411D01*
X56103452Y-75611760D01*
X56136441Y-75545858D01*
X56196978Y-75503827D01*
X56282104Y-75472077D01*
X56300619Y-75461966D01*
X56398656Y-75388576D01*
X56413576Y-75373656D01*
X56486966Y-75275619D01*
X56497076Y-75257106D01*
X56540341Y-75141107D01*
X56544594Y-75123107D01*
X56549573Y-75076794D01*
X56550000Y-75068841D01*
X56550000Y-74389675D01*
X56547565Y-74377434D01*
X56535325Y-74375000D01*
X53864675Y-74375000D01*
X53852434Y-74377434D01*
X53850000Y-74389675D01*
X53850000Y-75068841D01*
X53850426Y-75076794D01*
X53855405Y-75123107D01*
X53859658Y-75141107D01*
X53902923Y-75257106D01*
X53913033Y-75275619D01*
X53986423Y-75373656D01*
X54001343Y-75388576D01*
X54099380Y-75461966D01*
X54117895Y-75472077D01*
X54203021Y-75503827D01*
X54263558Y-75545858D01*
X54296547Y-75611760D01*
X54293917Y-75685410D01*
X54256311Y-75748791D01*
X54166108Y-75838994D01*
X54166097Y-75839006D01*
X54161505Y-75843599D01*
X54157783Y-75848913D01*
X54157775Y-75848924D01*
X54029692Y-76031847D01*
X54029687Y-76031854D01*
X54025965Y-76037171D01*
X54023225Y-76043046D01*
X54023218Y-76043059D01*
X53928844Y-76245443D01*
X53928838Y-76245457D01*
X53926097Y-76251337D01*
X53924415Y-76257611D01*
X53924413Y-76257619D01*
X53866619Y-76473313D01*
X53864937Y-76479592D01*
X53864370Y-76486061D01*
X53864370Y-76486067D01*
X53849237Y-76659035D01*
X53844341Y-76715000D01*
X53844908Y-76721481D01*
X53861542Y-76911613D01*
X53864937Y-76950408D01*
X53866618Y-76956684D01*
X53866619Y-76956686D01*
X53912288Y-77127127D01*
X53926097Y-77178663D01*
X53928845Y-77184556D01*
X54001290Y-77339916D01*
X54025965Y-77392830D01*
X54045167Y-77420253D01*
X54157775Y-77581075D01*
X54157779Y-77581079D01*
X54161505Y-77586401D01*
X54328599Y-77753495D01*
X54333921Y-77757221D01*
X54333924Y-77757224D01*
X54392510Y-77798246D01*
X54508963Y-77879787D01*
X54555665Y-77933040D01*
X54572500Y-78001841D01*
X54572500Y-80953363D01*
X54561158Y-81010383D01*
X54528859Y-81058722D01*
X53958722Y-81628859D01*
X53910383Y-81661158D01*
X53853363Y-81672500D01*
X52338551Y-81672500D01*
X52267796Y-81654629D01*
X52214014Y-81605302D01*
X52190106Y-81536352D01*
X52201036Y-81469068D01*
X52201034Y-81469068D01*
X52201039Y-81469048D01*
X52201808Y-81464319D01*
X52202311Y-81463157D01*
X52207374Y-81451458D01*
X52214046Y-81409326D01*
X52216894Y-81395577D01*
X52218643Y-81388764D01*
X52227500Y-81354272D01*
X52227500Y-81336113D01*
X52229335Y-81312804D01*
X52230708Y-81304134D01*
X52230708Y-81304128D01*
X52232175Y-81294867D01*
X52228161Y-81252405D01*
X52227500Y-81238382D01*
X52227500Y-78001841D01*
X52244335Y-77933040D01*
X52291036Y-77879787D01*
X52471401Y-77753495D01*
X52638495Y-77586401D01*
X52774035Y-77392830D01*
X52873903Y-77178663D01*
X52935063Y-76950408D01*
X52954567Y-76727480D01*
X52955092Y-76721481D01*
X52955659Y-76715000D01*
X52935063Y-76479592D01*
X52873903Y-76251337D01*
X52870989Y-76245089D01*
X52776781Y-76043059D01*
X52776779Y-76043055D01*
X52774035Y-76037171D01*
X52712061Y-75948663D01*
X52642224Y-75848924D01*
X52642221Y-75848921D01*
X52638495Y-75843599D01*
X52543687Y-75748791D01*
X52506082Y-75685411D01*
X52503452Y-75611760D01*
X52536441Y-75545858D01*
X52596978Y-75503827D01*
X52682104Y-75472077D01*
X52700619Y-75461966D01*
X52798656Y-75388576D01*
X52813576Y-75373656D01*
X52886966Y-75275619D01*
X52897076Y-75257106D01*
X52940341Y-75141107D01*
X52944594Y-75123107D01*
X52949573Y-75076794D01*
X52950000Y-75068841D01*
X52950000Y-74389675D01*
X52947565Y-74377434D01*
X52935325Y-74375000D01*
X50264675Y-74375000D01*
X50252434Y-74377434D01*
X50250000Y-74389675D01*
X50250000Y-75068841D01*
X50250426Y-75076794D01*
X50255405Y-75123107D01*
X50259658Y-75141107D01*
X50302923Y-75257106D01*
X50313033Y-75275619D01*
X50386423Y-75373656D01*
X50401343Y-75388576D01*
X50499380Y-75461966D01*
X50517895Y-75472077D01*
X50603021Y-75503827D01*
X50663558Y-75545858D01*
X50696547Y-75611760D01*
X50693917Y-75685410D01*
X50656311Y-75748791D01*
X50566108Y-75838994D01*
X50566097Y-75839006D01*
X50561505Y-75843599D01*
X50557783Y-75848913D01*
X50557775Y-75848924D01*
X50429692Y-76031847D01*
X50429687Y-76031854D01*
X50425965Y-76037171D01*
X50423225Y-76043046D01*
X50423218Y-76043059D01*
X50328844Y-76245443D01*
X50328838Y-76245457D01*
X50326097Y-76251337D01*
X50324415Y-76257611D01*
X50324413Y-76257619D01*
X50266619Y-76473313D01*
X50264937Y-76479592D01*
X50264370Y-76486061D01*
X50264370Y-76486067D01*
X50249237Y-76659035D01*
X50244341Y-76715000D01*
X50244908Y-76721481D01*
X50261542Y-76911613D01*
X50264937Y-76950408D01*
X50266618Y-76956684D01*
X50266619Y-76956686D01*
X50312288Y-77127127D01*
X50326097Y-77178663D01*
X50328845Y-77184556D01*
X50401290Y-77339916D01*
X50425965Y-77392830D01*
X50445167Y-77420253D01*
X50557775Y-77581075D01*
X50557779Y-77581079D01*
X50561505Y-77586401D01*
X50728599Y-77753495D01*
X50733921Y-77757221D01*
X50733924Y-77757224D01*
X50792510Y-77798246D01*
X50908963Y-77879787D01*
X50955665Y-77933040D01*
X50972500Y-78001841D01*
X50972500Y-80923500D01*
X50961158Y-80980520D01*
X50928859Y-81028859D01*
X50880520Y-81061158D01*
X50823500Y-81072500D01*
X47148745Y-81072500D01*
X47087856Y-81059491D01*
X47037599Y-81022735D01*
X47006751Y-80968651D01*
X47000697Y-80906682D01*
X47020496Y-80847651D01*
X47020664Y-80847365D01*
X47026408Y-80839962D01*
X47043352Y-80800804D01*
X47049522Y-80788212D01*
X47070072Y-80750834D01*
X47074587Y-80733244D01*
X47082165Y-80711115D01*
X47089374Y-80694458D01*
X47096047Y-80652321D01*
X47098892Y-80638584D01*
X47109500Y-80597272D01*
X47109500Y-80579113D01*
X47111335Y-80555804D01*
X47112708Y-80547134D01*
X47112708Y-80547128D01*
X47114175Y-80537867D01*
X47110161Y-80495405D01*
X47109500Y-80481382D01*
X47109500Y-76410293D01*
X47115323Y-76369045D01*
X47132338Y-76331020D01*
X47145888Y-76309455D01*
X47166989Y-76275873D01*
X47223218Y-76115178D01*
X47242280Y-75946000D01*
X47223218Y-75776822D01*
X47166989Y-75616127D01*
X47076411Y-75471973D01*
X46956027Y-75351589D01*
X46948942Y-75347137D01*
X46818959Y-75265463D01*
X46818956Y-75265461D01*
X46811873Y-75261011D01*
X46803978Y-75258248D01*
X46803973Y-75258246D01*
X46659077Y-75207546D01*
X46651178Y-75204782D01*
X46642864Y-75203845D01*
X46642859Y-75203844D01*
X46490316Y-75186657D01*
X46482000Y-75185720D01*
X46473684Y-75186657D01*
X46321140Y-75203844D01*
X46321133Y-75203845D01*
X46312822Y-75204782D01*
X46304924Y-75207545D01*
X46304922Y-75207546D01*
X46160026Y-75258246D01*
X46160018Y-75258249D01*
X46152127Y-75261011D01*
X46145047Y-75265459D01*
X46145040Y-75265463D01*
X46015057Y-75347137D01*
X46015052Y-75347140D01*
X46007973Y-75351589D01*
X46002060Y-75357501D01*
X46002056Y-75357505D01*
X45893505Y-75466056D01*
X45893501Y-75466060D01*
X45887589Y-75471973D01*
X45883140Y-75479052D01*
X45883137Y-75479057D01*
X45801463Y-75609040D01*
X45801459Y-75609047D01*
X45797011Y-75616127D01*
X45794249Y-75624018D01*
X45794246Y-75624026D01*
X45750590Y-75748791D01*
X45740782Y-75776822D01*
X45739845Y-75785133D01*
X45739844Y-75785140D01*
X45732658Y-75848924D01*
X45721720Y-75946000D01*
X45722657Y-75954316D01*
X45739844Y-76106859D01*
X45739845Y-76106864D01*
X45740782Y-76115178D01*
X45743546Y-76123077D01*
X45794246Y-76267973D01*
X45794248Y-76267978D01*
X45797011Y-76275873D01*
X45801461Y-76282956D01*
X45801463Y-76282959D01*
X45831662Y-76331020D01*
X45848677Y-76369045D01*
X45854500Y-76410293D01*
X45854500Y-79477799D01*
X45836709Y-79548405D01*
X45787584Y-79602150D01*
X45718857Y-79626199D01*
X45646941Y-79614809D01*
X45595068Y-79575315D01*
X45594411Y-79575973D01*
X45474027Y-79455589D01*
X45466942Y-79451137D01*
X45336959Y-79369463D01*
X45336956Y-79369461D01*
X45329873Y-79365011D01*
X45321978Y-79362248D01*
X45321973Y-79362246D01*
X45177077Y-79311546D01*
X45169178Y-79308782D01*
X45160864Y-79307845D01*
X45160859Y-79307844D01*
X45008316Y-79290657D01*
X45000000Y-79289720D01*
X44991684Y-79290657D01*
X44919013Y-79298845D01*
X44853112Y-79291419D01*
X44796962Y-79256132D01*
X44767882Y-79209841D01*
X44766383Y-79210564D01*
X44762753Y-79203026D01*
X44759989Y-79195127D01*
X44669411Y-79050973D01*
X44549027Y-78930589D01*
X44536747Y-78922873D01*
X44411959Y-78844463D01*
X44411956Y-78844461D01*
X44404873Y-78840011D01*
X44396978Y-78837248D01*
X44396973Y-78837246D01*
X44253446Y-78787025D01*
X44197298Y-78751745D01*
X44162018Y-78695597D01*
X44160698Y-78691824D01*
X44122489Y-78582627D01*
X44031911Y-78438473D01*
X43911527Y-78318089D01*
X43896938Y-78308922D01*
X43774459Y-78231963D01*
X43774456Y-78231961D01*
X43767373Y-78227511D01*
X43759478Y-78224748D01*
X43759473Y-78224746D01*
X43614577Y-78174046D01*
X43606678Y-78171282D01*
X43598364Y-78170345D01*
X43598359Y-78170344D01*
X43445816Y-78153157D01*
X43437500Y-78152220D01*
X43429184Y-78153157D01*
X43276640Y-78170344D01*
X43276633Y-78170345D01*
X43268322Y-78171282D01*
X43260424Y-78174045D01*
X43260422Y-78174046D01*
X43115526Y-78224746D01*
X43115518Y-78224749D01*
X43107627Y-78227511D01*
X43100547Y-78231959D01*
X43100540Y-78231963D01*
X42970557Y-78313637D01*
X42970552Y-78313640D01*
X42963473Y-78318089D01*
X42957560Y-78324001D01*
X42957556Y-78324005D01*
X42902703Y-78378859D01*
X42854364Y-78411158D01*
X42797344Y-78422500D01*
X40571637Y-78422500D01*
X40514617Y-78411158D01*
X40466278Y-78378859D01*
X40253141Y-78165722D01*
X40220842Y-78117383D01*
X40209500Y-78060363D01*
X40209500Y-76113363D01*
X40215324Y-76072111D01*
X40227545Y-76044801D01*
X40226907Y-76044494D01*
X40230532Y-76036964D01*
X40234989Y-76029873D01*
X40291218Y-75869178D01*
X40310280Y-75700000D01*
X40291218Y-75530822D01*
X40234989Y-75370127D01*
X40144411Y-75225973D01*
X40024027Y-75105589D01*
X40014601Y-75099666D01*
X39886959Y-75019463D01*
X39886956Y-75019461D01*
X39879873Y-75015011D01*
X39871978Y-75012248D01*
X39871973Y-75012246D01*
X39727077Y-74961546D01*
X39719178Y-74958782D01*
X39710864Y-74957845D01*
X39710859Y-74957844D01*
X39558316Y-74940657D01*
X39550000Y-74939720D01*
X39541684Y-74940657D01*
X39389140Y-74957844D01*
X39389133Y-74957845D01*
X39380822Y-74958782D01*
X39372924Y-74961545D01*
X39372922Y-74961546D01*
X39228026Y-75012246D01*
X39228018Y-75012249D01*
X39220127Y-75015011D01*
X39213047Y-75019459D01*
X39213040Y-75019463D01*
X39083053Y-75101140D01*
X39083050Y-75101141D01*
X39075973Y-75105589D01*
X39070063Y-75111498D01*
X39067896Y-75113227D01*
X39008151Y-75141997D01*
X38941840Y-75141996D01*
X38882097Y-75113223D01*
X38879943Y-75111505D01*
X38874027Y-75105589D01*
X38866946Y-75101140D01*
X38866944Y-75101138D01*
X38736959Y-75019463D01*
X38736956Y-75019461D01*
X38729873Y-75015011D01*
X38721978Y-75012248D01*
X38721973Y-75012246D01*
X38596257Y-74968257D01*
X38540108Y-74932976D01*
X38504829Y-74876828D01*
X38504768Y-74876654D01*
X38484989Y-74820127D01*
X38476002Y-74805825D01*
X38398862Y-74683057D01*
X38394411Y-74675973D01*
X38274027Y-74555589D01*
X38266942Y-74551137D01*
X38136959Y-74469463D01*
X38136956Y-74469461D01*
X38129873Y-74465011D01*
X38121978Y-74462248D01*
X38121973Y-74462246D01*
X37977077Y-74411546D01*
X37969178Y-74408782D01*
X37960866Y-74407845D01*
X37960860Y-74407844D01*
X37927404Y-74404075D01*
X37864500Y-74381975D01*
X37817532Y-74334653D01*
X37795904Y-74271587D01*
X37785674Y-74174244D01*
X37782295Y-74163846D01*
X37732314Y-74010019D01*
X37727179Y-73994216D01*
X37632533Y-73830284D01*
X37532490Y-73719175D01*
X37511099Y-73695418D01*
X37511097Y-73695416D01*
X37505871Y-73689612D01*
X37465113Y-73660000D01*
X37359045Y-73582937D01*
X37359044Y-73582936D01*
X37352730Y-73578349D01*
X37345596Y-73575173D01*
X37345595Y-73575172D01*
X37186937Y-73504532D01*
X37186934Y-73504531D01*
X37179803Y-73501356D01*
X37172166Y-73499732D01*
X37172164Y-73499732D01*
X36995108Y-73462098D01*
X36995102Y-73462097D01*
X36994646Y-73462000D01*
X36994551Y-73462000D01*
X36985593Y-73460423D01*
X36960837Y-73454266D01*
X36960834Y-73454265D01*
X36952995Y-73452316D01*
X36944920Y-73452096D01*
X36942699Y-73451794D01*
X36941881Y-73451648D01*
X36940928Y-73451531D01*
X36940082Y-73451474D01*
X36937879Y-73451234D01*
X36929997Y-73449500D01*
X36921924Y-73449500D01*
X36851034Y-73449500D01*
X36847000Y-73449445D01*
X36776146Y-73447525D01*
X36776138Y-73447525D01*
X36768068Y-73447307D01*
X36760135Y-73448829D01*
X36757926Y-73449009D01*
X36745837Y-73449500D01*
X34814007Y-73449500D01*
X34756987Y-73438158D01*
X34708648Y-73405859D01*
X34494141Y-73191352D01*
X34461842Y-73143013D01*
X34450500Y-73085993D01*
X34450500Y-72826340D01*
X39210714Y-72826340D01*
X39220180Y-72835807D01*
X39256119Y-72858389D01*
X39271087Y-72865597D01*
X39425457Y-72919612D01*
X39441675Y-72923314D01*
X39604184Y-72941625D01*
X39620816Y-72941625D01*
X39783324Y-72923314D01*
X39799542Y-72919612D01*
X39953903Y-72865600D01*
X39968889Y-72858383D01*
X40004818Y-72835807D01*
X40014285Y-72826340D01*
X40007163Y-72815006D01*
X39626371Y-72434214D01*
X39612499Y-72426205D01*
X39598628Y-72434214D01*
X39217837Y-72815004D01*
X39210714Y-72826340D01*
X34450500Y-72826340D01*
X34450500Y-71741308D01*
X34463839Y-71679688D01*
X34501467Y-71629100D01*
X34556648Y-71598603D01*
X34619501Y-71593657D01*
X34678773Y-71615147D01*
X34708034Y-71633533D01*
X34708039Y-71633535D01*
X34715127Y-71637989D01*
X34723025Y-71640752D01*
X34723026Y-71640753D01*
X34732761Y-71644159D01*
X34875822Y-71694218D01*
X35045000Y-71713280D01*
X35214178Y-71694218D01*
X35374873Y-71637989D01*
X35519027Y-71547411D01*
X35519444Y-71546993D01*
X35558584Y-71525362D01*
X35607796Y-71517000D01*
X38113385Y-71517000D01*
X38178035Y-71531756D01*
X38229880Y-71573103D01*
X38234136Y-71578440D01*
X38238589Y-71585527D01*
X38358973Y-71705911D01*
X38406404Y-71735714D01*
X38492559Y-71789849D01*
X38503127Y-71796489D01*
X38663822Y-71852718D01*
X38689259Y-71855584D01*
X38744650Y-71873238D01*
X38789070Y-71910747D01*
X38815754Y-71962398D01*
X38820640Y-72020330D01*
X38808375Y-72129184D01*
X38808375Y-72145816D01*
X38826685Y-72308324D01*
X38830387Y-72324542D01*
X38884399Y-72478903D01*
X38891616Y-72493889D01*
X38914190Y-72529816D01*
X38923658Y-72539284D01*
X38934994Y-72532161D01*
X39507140Y-71960015D01*
X39555479Y-71927716D01*
X39612499Y-71916374D01*
X39669519Y-71927716D01*
X39717858Y-71960015D01*
X40239623Y-72481780D01*
X40249999Y-72488713D01*
X40260376Y-72481780D01*
X40782141Y-71960016D01*
X40830480Y-71927717D01*
X40887500Y-71916375D01*
X40944520Y-71927717D01*
X40992859Y-71960016D01*
X41064983Y-72032140D01*
X41103547Y-72098935D01*
X41103547Y-72176063D01*
X41064983Y-72242858D01*
X40492837Y-72815004D01*
X40485714Y-72826340D01*
X40495180Y-72835807D01*
X40531119Y-72858389D01*
X40546087Y-72865597D01*
X40700457Y-72919612D01*
X40716675Y-72923314D01*
X40879184Y-72941625D01*
X40895816Y-72941625D01*
X41058324Y-72923314D01*
X41074542Y-72919612D01*
X41078114Y-72918363D01*
X41081259Y-72918079D01*
X41082700Y-72917751D01*
X41082744Y-72917946D01*
X41150635Y-72911834D01*
X41217591Y-72940450D01*
X41262990Y-72997378D01*
X41275993Y-73069022D01*
X41253492Y-73138272D01*
X41207170Y-73211992D01*
X41207164Y-73212002D01*
X41202716Y-73219083D01*
X41199954Y-73226974D01*
X41199951Y-73226982D01*
X41154985Y-73355492D01*
X41146487Y-73379778D01*
X41145550Y-73388089D01*
X41145549Y-73388096D01*
X41134865Y-73482923D01*
X41127425Y-73548956D01*
X41128362Y-73557272D01*
X41145549Y-73709815D01*
X41145550Y-73709820D01*
X41146487Y-73718134D01*
X41149251Y-73726033D01*
X41199951Y-73870929D01*
X41199953Y-73870934D01*
X41202716Y-73878829D01*
X41236179Y-73932086D01*
X41249662Y-73953543D01*
X41266677Y-73991567D01*
X41272500Y-74032816D01*
X41272500Y-74777474D01*
X41262035Y-74832328D01*
X41232111Y-74879477D01*
X41218404Y-74894072D01*
X41215157Y-74897422D01*
X41199196Y-74913384D01*
X41199189Y-74913391D01*
X41195877Y-74916704D01*
X41193006Y-74920404D01*
X41189908Y-74923919D01*
X41189898Y-74923910D01*
X41185008Y-74929635D01*
X41162226Y-74953895D01*
X41162218Y-74953905D01*
X41155807Y-74960733D01*
X41151292Y-74968944D01*
X41151290Y-74968948D01*
X41147053Y-74976655D01*
X41134225Y-74996184D01*
X41128839Y-75003127D01*
X41128834Y-75003134D01*
X41123092Y-75010538D01*
X41119369Y-75019140D01*
X41119366Y-75019146D01*
X41106151Y-75049682D01*
X41099980Y-75062279D01*
X41083942Y-75091452D01*
X41083937Y-75091462D01*
X41079428Y-75099666D01*
X41077098Y-75108737D01*
X41077096Y-75108744D01*
X41074909Y-75117261D01*
X41067343Y-75139360D01*
X41063849Y-75147435D01*
X41063846Y-75147444D01*
X41060126Y-75156042D01*
X41058660Y-75165293D01*
X41058659Y-75165299D01*
X41053453Y-75198171D01*
X41050607Y-75211914D01*
X41042331Y-75244146D01*
X41042330Y-75244151D01*
X41040000Y-75253228D01*
X41040000Y-75262602D01*
X41040000Y-75271387D01*
X41038165Y-75294696D01*
X41036791Y-75303365D01*
X41036790Y-75303379D01*
X41035325Y-75312633D01*
X41036207Y-75321963D01*
X41036207Y-75321966D01*
X41039339Y-75355095D01*
X41040000Y-75369118D01*
X41040000Y-76268207D01*
X41034177Y-76309455D01*
X41017162Y-76347480D01*
X40986963Y-76395540D01*
X40986959Y-76395547D01*
X40982511Y-76402627D01*
X40979749Y-76410518D01*
X40979746Y-76410526D01*
X40929046Y-76555422D01*
X40926282Y-76563322D01*
X40925345Y-76571633D01*
X40925344Y-76571640D01*
X40913033Y-76680909D01*
X40907220Y-76732500D01*
X40908157Y-76740816D01*
X40925344Y-76893359D01*
X40925345Y-76893364D01*
X40926282Y-76901678D01*
X40929046Y-76909577D01*
X40979746Y-77054473D01*
X40979748Y-77054478D01*
X40982511Y-77062373D01*
X40986961Y-77069456D01*
X40986963Y-77069459D01*
X41068637Y-77199442D01*
X41073089Y-77206527D01*
X41193473Y-77326911D01*
X41288991Y-77386929D01*
X41326860Y-77410724D01*
X41337627Y-77417489D01*
X41498322Y-77473718D01*
X41667500Y-77492780D01*
X41836678Y-77473718D01*
X41997373Y-77417489D01*
X42141527Y-77326911D01*
X42261911Y-77206527D01*
X42352489Y-77062373D01*
X42408718Y-76901678D01*
X42427780Y-76732500D01*
X42408718Y-76563322D01*
X42352489Y-76402627D01*
X42329144Y-76365473D01*
X42317838Y-76347480D01*
X42300823Y-76309455D01*
X42295000Y-76268207D01*
X42295000Y-75655025D01*
X42305462Y-75600178D01*
X42335378Y-75553034D01*
X42349083Y-75538438D01*
X42352318Y-75535099D01*
X42371623Y-75515796D01*
X42374499Y-75512087D01*
X42377600Y-75508570D01*
X42377610Y-75508579D01*
X42382488Y-75502864D01*
X42411693Y-75471767D01*
X42420439Y-75455855D01*
X42433280Y-75436307D01*
X42438661Y-75429370D01*
X42444408Y-75421962D01*
X42461352Y-75382804D01*
X42467522Y-75370212D01*
X42488072Y-75332834D01*
X42492587Y-75315244D01*
X42500165Y-75293115D01*
X42507374Y-75276458D01*
X42514046Y-75234326D01*
X42516894Y-75220577D01*
X42517028Y-75220056D01*
X42527500Y-75179272D01*
X42527500Y-75161113D01*
X42529335Y-75137804D01*
X42530708Y-75129134D01*
X42530708Y-75129128D01*
X42532175Y-75119867D01*
X42528161Y-75077405D01*
X42527500Y-75063382D01*
X42527500Y-74325456D01*
X42538842Y-74268436D01*
X42571141Y-74220097D01*
X42619480Y-74187798D01*
X42676500Y-74176456D01*
X48801912Y-74176456D01*
X48811867Y-74176925D01*
X48819521Y-74178636D01*
X48886580Y-74176529D01*
X48891260Y-74176456D01*
X48913829Y-74176456D01*
X48918520Y-74176456D01*
X48923175Y-74175867D01*
X48927841Y-74175574D01*
X48927841Y-74175587D01*
X48935338Y-74174996D01*
X48977987Y-74173657D01*
X48995424Y-74168590D01*
X49018332Y-74163846D01*
X49036337Y-74161572D01*
X49076016Y-74145861D01*
X49089253Y-74141329D01*
X49130235Y-74129424D01*
X49145859Y-74120182D01*
X49166862Y-74109893D01*
X49183747Y-74103209D01*
X49218263Y-74078129D01*
X49229963Y-74070443D01*
X49266700Y-74048719D01*
X49279547Y-74035871D01*
X49297317Y-74020693D01*
X49312011Y-74010019D01*
X49339202Y-73977148D01*
X49348628Y-73966789D01*
X49995641Y-73319776D01*
X50054957Y-73283429D01*
X50124309Y-73277970D01*
X50188580Y-73304592D01*
X50233760Y-73357491D01*
X50250000Y-73425136D01*
X50250000Y-73960325D01*
X50252434Y-73972565D01*
X50264675Y-73975000D01*
X51385325Y-73975000D01*
X51397565Y-73972565D01*
X51400000Y-73960325D01*
X51800000Y-73960325D01*
X51802434Y-73972565D01*
X51814675Y-73975000D01*
X52935325Y-73975000D01*
X52947565Y-73972565D01*
X52950000Y-73960325D01*
X53850000Y-73960325D01*
X53852434Y-73972565D01*
X53864675Y-73975000D01*
X54985325Y-73975000D01*
X54997565Y-73972565D01*
X55000000Y-73960325D01*
X55000000Y-72839675D01*
X54997565Y-72827434D01*
X54985325Y-72825000D01*
X54306159Y-72825000D01*
X54298205Y-72825426D01*
X54251892Y-72830405D01*
X54233892Y-72834658D01*
X54117893Y-72877923D01*
X54099380Y-72888033D01*
X54001343Y-72961423D01*
X53986423Y-72976343D01*
X53913033Y-73074380D01*
X53902923Y-73092893D01*
X53859658Y-73208892D01*
X53855405Y-73226892D01*
X53850426Y-73273205D01*
X53850000Y-73281159D01*
X53850000Y-73960325D01*
X52950000Y-73960325D01*
X52950000Y-73281159D01*
X52949573Y-73273205D01*
X52944594Y-73226892D01*
X52940341Y-73208892D01*
X52897076Y-73092893D01*
X52886966Y-73074380D01*
X52813576Y-72976343D01*
X52798656Y-72961423D01*
X52700619Y-72888033D01*
X52682106Y-72877923D01*
X52566107Y-72834658D01*
X52548107Y-72830405D01*
X52501794Y-72825426D01*
X52493841Y-72825000D01*
X51814675Y-72825000D01*
X51802434Y-72827434D01*
X51800000Y-72839675D01*
X51800000Y-73960325D01*
X51400000Y-73960325D01*
X51400000Y-72839675D01*
X51397565Y-72827434D01*
X51385325Y-72825000D01*
X50850136Y-72825000D01*
X50782491Y-72808760D01*
X50729592Y-72763580D01*
X50702970Y-72699309D01*
X50708429Y-72629956D01*
X50744777Y-72570641D01*
X54529824Y-68785595D01*
X59652277Y-63663141D01*
X59700617Y-63630842D01*
X59757637Y-63619500D01*
X61136868Y-63619500D01*
X61146823Y-63619969D01*
X61154477Y-63621680D01*
X61221536Y-63619573D01*
X61226216Y-63619500D01*
X61248785Y-63619500D01*
X61253476Y-63619500D01*
X61258131Y-63618911D01*
X61262797Y-63618618D01*
X61262797Y-63618631D01*
X61270294Y-63618040D01*
X61312943Y-63616701D01*
X61330380Y-63611634D01*
X61353288Y-63606890D01*
X61371293Y-63604616D01*
X61410972Y-63588905D01*
X61424209Y-63584373D01*
X61465191Y-63572468D01*
X61480815Y-63563226D01*
X61501818Y-63552937D01*
X61518703Y-63546253D01*
X61553219Y-63521173D01*
X61564919Y-63513487D01*
X61601656Y-63491763D01*
X61614503Y-63478915D01*
X61632273Y-63463737D01*
X61646967Y-63453063D01*
X61674158Y-63420192D01*
X61683584Y-63409833D01*
X62954277Y-62139141D01*
X63002617Y-62106842D01*
X63059637Y-62095500D01*
X67880276Y-62095500D01*
X67949134Y-62112365D01*
G37*
%TD.AperFunction*%
%TA.AperFunction,Conductor*%
G36*
X105402212Y-76076842D02*
G01*
X105450551Y-76109141D01*
X106693550Y-77352141D01*
X106729898Y-77411457D01*
X106735357Y-77480809D01*
X106708735Y-77545080D01*
X106655836Y-77590260D01*
X106588191Y-77606500D01*
X106238808Y-77606500D01*
X106181788Y-77595158D01*
X106133449Y-77562859D01*
X104890450Y-76319859D01*
X104854102Y-76260543D01*
X104848643Y-76191191D01*
X104875265Y-76126920D01*
X104928164Y-76081740D01*
X104995809Y-76065500D01*
X105345192Y-76065500D01*
X105402212Y-76076842D01*
G37*
%TD.AperFunction*%
%TA.AperFunction,Conductor*%
G36*
X43645542Y-67073811D02*
G01*
X43704857Y-67110158D01*
X43755347Y-67160648D01*
X43895730Y-67245512D01*
X44052343Y-67294315D01*
X44120406Y-67300500D01*
X44589370Y-67300500D01*
X44657758Y-67317122D01*
X44710888Y-67363278D01*
X44736907Y-67428671D01*
X44730009Y-67498711D01*
X44686546Y-67622921D01*
X44686544Y-67622926D01*
X44683782Y-67630822D01*
X44682845Y-67639133D01*
X44682844Y-67639140D01*
X44669217Y-67760089D01*
X44664720Y-67800000D01*
X44665657Y-67808316D01*
X44682844Y-67960859D01*
X44682845Y-67960864D01*
X44683782Y-67969178D01*
X44686546Y-67977077D01*
X44737246Y-68121973D01*
X44737248Y-68121978D01*
X44740011Y-68129873D01*
X44744461Y-68136956D01*
X44744463Y-68136959D01*
X44826137Y-68266942D01*
X44830589Y-68274027D01*
X44950973Y-68394411D01*
X45095127Y-68484989D01*
X45255822Y-68541218D01*
X45425000Y-68560280D01*
X45594178Y-68541218D01*
X45754873Y-68484989D01*
X45801026Y-68455989D01*
X45810020Y-68450338D01*
X45848045Y-68433323D01*
X45889293Y-68427500D01*
X52753363Y-68427500D01*
X52821008Y-68443740D01*
X52873907Y-68488920D01*
X52900529Y-68553191D01*
X52895070Y-68622544D01*
X52858722Y-68681859D01*
X48662766Y-72877815D01*
X48614427Y-72910114D01*
X48557407Y-72921456D01*
X42706400Y-72921456D01*
X42634327Y-72902865D01*
X42580239Y-72851730D01*
X42557163Y-72815006D01*
X41985016Y-72242859D01*
X41952717Y-72194520D01*
X41941375Y-72137500D01*
X42451205Y-72137500D01*
X42459214Y-72151371D01*
X42840006Y-72532163D01*
X42851340Y-72539285D01*
X42860807Y-72529818D01*
X42883383Y-72493889D01*
X42890600Y-72478903D01*
X42944612Y-72324542D01*
X42948314Y-72308324D01*
X42966625Y-72145816D01*
X42966625Y-72129184D01*
X42948314Y-71966675D01*
X42944612Y-71950457D01*
X42890597Y-71796087D01*
X42883389Y-71781119D01*
X42860807Y-71745180D01*
X42851340Y-71735714D01*
X42840004Y-71742837D01*
X42459214Y-72123628D01*
X42451205Y-72137500D01*
X41941375Y-72137500D01*
X41952717Y-72080480D01*
X41985016Y-72032141D01*
X42506780Y-71510376D01*
X42513713Y-71500000D01*
X42506780Y-71489623D01*
X41985016Y-70967859D01*
X41952717Y-70919520D01*
X41941375Y-70862500D01*
X41952717Y-70805480D01*
X41985016Y-70757141D01*
X42057141Y-70685016D01*
X42105480Y-70652717D01*
X42162500Y-70641375D01*
X42219520Y-70652717D01*
X42267859Y-70685016D01*
X42840006Y-71257163D01*
X42851340Y-71264285D01*
X42860807Y-71254818D01*
X42883383Y-71218889D01*
X42890599Y-71203903D01*
X42937738Y-71069189D01*
X42965439Y-71021209D01*
X43008754Y-70986667D01*
X43061692Y-70970337D01*
X43111178Y-70964762D01*
X43271873Y-70908533D01*
X43416027Y-70817955D01*
X43416444Y-70817537D01*
X43455584Y-70795906D01*
X43504796Y-70787544D01*
X45054723Y-70787544D01*
X45074171Y-70788819D01*
X45091770Y-70791136D01*
X45091772Y-70791136D01*
X45101456Y-70792411D01*
X45248690Y-70773027D01*
X45385889Y-70716197D01*
X45413388Y-70695096D01*
X45465528Y-70669383D01*
X45523540Y-70665581D01*
X45578592Y-70684268D01*
X45582822Y-70686710D01*
X45590567Y-70692653D01*
X45599584Y-70696388D01*
X45599586Y-70696389D01*
X45618347Y-70704160D01*
X45727766Y-70749483D01*
X45875000Y-70768867D01*
X45884684Y-70767592D01*
X45884686Y-70767592D01*
X45902285Y-70765275D01*
X45921733Y-70764000D01*
X49294694Y-70764000D01*
X49359343Y-70778756D01*
X49363042Y-70780537D01*
X49370127Y-70784989D01*
X49530822Y-70841218D01*
X49700000Y-70860280D01*
X49869178Y-70841218D01*
X50029873Y-70784989D01*
X50174027Y-70694411D01*
X50294411Y-70574027D01*
X50384989Y-70429873D01*
X50441218Y-70269178D01*
X50460280Y-70100000D01*
X50441218Y-69930822D01*
X50391159Y-69787761D01*
X50387753Y-69778026D01*
X50387752Y-69778025D01*
X50384989Y-69770127D01*
X50380193Y-69762495D01*
X50322263Y-69670299D01*
X50294411Y-69625973D01*
X50174027Y-69505589D01*
X50157377Y-69495127D01*
X50036959Y-69419463D01*
X50036956Y-69419461D01*
X50029873Y-69415011D01*
X50021978Y-69412248D01*
X50021973Y-69412246D01*
X49877077Y-69361546D01*
X49869178Y-69358782D01*
X49860864Y-69357845D01*
X49860859Y-69357844D01*
X49708316Y-69340657D01*
X49700000Y-69339720D01*
X49691684Y-69340657D01*
X49539140Y-69357844D01*
X49539133Y-69357845D01*
X49530822Y-69358782D01*
X49522924Y-69361545D01*
X49522922Y-69361546D01*
X49378026Y-69412246D01*
X49378018Y-69412249D01*
X49370127Y-69415011D01*
X49363047Y-69419459D01*
X49363040Y-69419463D01*
X49233057Y-69501137D01*
X49233052Y-69501140D01*
X49225973Y-69505589D01*
X49220060Y-69511501D01*
X49220056Y-69511505D01*
X49139203Y-69592359D01*
X49090864Y-69624658D01*
X49033844Y-69636000D01*
X46340004Y-69636000D01*
X46280420Y-69623568D01*
X46230779Y-69588346D01*
X46199365Y-69536212D01*
X46199217Y-69535790D01*
X46184989Y-69495127D01*
X46094411Y-69350973D01*
X45974027Y-69230589D01*
X45963127Y-69223740D01*
X45836959Y-69144463D01*
X45836956Y-69144461D01*
X45829873Y-69140011D01*
X45821978Y-69137248D01*
X45821973Y-69137246D01*
X45677077Y-69086546D01*
X45669178Y-69083782D01*
X45660864Y-69082845D01*
X45660859Y-69082844D01*
X45508316Y-69065657D01*
X45500000Y-69064720D01*
X45491684Y-69065657D01*
X45339140Y-69082844D01*
X45339133Y-69082845D01*
X45330822Y-69083782D01*
X45322924Y-69086545D01*
X45322922Y-69086546D01*
X45178026Y-69137246D01*
X45178018Y-69137249D01*
X45170127Y-69140011D01*
X45163047Y-69144459D01*
X45163040Y-69144463D01*
X45033057Y-69226137D01*
X45033052Y-69226140D01*
X45025973Y-69230589D01*
X45020060Y-69236501D01*
X45020056Y-69236505D01*
X44911505Y-69345056D01*
X44911501Y-69345060D01*
X44905589Y-69350973D01*
X44901140Y-69358052D01*
X44901137Y-69358057D01*
X44819463Y-69488040D01*
X44819459Y-69488047D01*
X44815011Y-69495127D01*
X44812249Y-69503018D01*
X44812246Y-69503026D01*
X44792397Y-69559755D01*
X44760983Y-69611889D01*
X44711342Y-69647112D01*
X44651758Y-69659544D01*
X43504796Y-69659544D01*
X43455584Y-69651182D01*
X43416444Y-69629550D01*
X43416027Y-69629133D01*
X43408947Y-69624684D01*
X43408943Y-69624681D01*
X43278959Y-69543007D01*
X43278956Y-69543005D01*
X43271873Y-69538555D01*
X43263978Y-69535792D01*
X43263973Y-69535790D01*
X43119077Y-69485090D01*
X43111178Y-69482326D01*
X43102866Y-69481389D01*
X43102860Y-69481388D01*
X43060631Y-69476630D01*
X43007692Y-69460299D01*
X42964378Y-69425758D01*
X42936678Y-69377779D01*
X42919395Y-69328388D01*
X42911970Y-69262494D01*
X42933871Y-69199903D01*
X42980761Y-69153014D01*
X43066939Y-69098865D01*
X43066940Y-69098863D01*
X43074027Y-69094411D01*
X43194411Y-68974027D01*
X43284989Y-68829873D01*
X43341218Y-68669178D01*
X43360280Y-68500000D01*
X43346043Y-68373645D01*
X43350316Y-68317908D01*
X43374825Y-68267671D01*
X43393796Y-68242331D01*
X43444091Y-68107483D01*
X43450500Y-68047873D01*
X43450499Y-67215516D01*
X43466739Y-67147874D01*
X43511919Y-67094975D01*
X43576190Y-67068352D01*
X43645542Y-67073811D01*
G37*
%TD.AperFunction*%
%TA.AperFunction,Conductor*%
G36*
X98287383Y-69726842D02*
G01*
X98335722Y-69759141D01*
X98561754Y-69985173D01*
X98568457Y-69992539D01*
X98572660Y-69999162D01*
X98579492Y-70005578D01*
X98579494Y-70005580D01*
X98621551Y-70045074D01*
X98624912Y-70048331D01*
X98644204Y-70067623D01*
X98647906Y-70070494D01*
X98651418Y-70073590D01*
X98651409Y-70073599D01*
X98657138Y-70078492D01*
X98681396Y-70101273D01*
X98681398Y-70101274D01*
X98688233Y-70107693D01*
X98704150Y-70116443D01*
X98723691Y-70129279D01*
X98738038Y-70140408D01*
X98777184Y-70157347D01*
X98789781Y-70163519D01*
X98827166Y-70184072D01*
X98844761Y-70188589D01*
X98866872Y-70196160D01*
X98883541Y-70203373D01*
X98925662Y-70210044D01*
X98939408Y-70212890D01*
X98980728Y-70223500D01*
X98998894Y-70223500D01*
X99022200Y-70225333D01*
X99040133Y-70228174D01*
X99082586Y-70224160D01*
X99096608Y-70223500D01*
X99754363Y-70223500D01*
X99811383Y-70234842D01*
X99859722Y-70267141D01*
X101142878Y-71550297D01*
X101167925Y-71583577D01*
X101177826Y-71609512D01*
X101178782Y-71609178D01*
X101223058Y-71735714D01*
X101226234Y-71744789D01*
X101233132Y-71814829D01*
X101207113Y-71880222D01*
X101153983Y-71926378D01*
X101085595Y-71943000D01*
X97730234Y-71943000D01*
X97666528Y-71928694D01*
X97615055Y-71888525D01*
X97585699Y-71830204D01*
X97584097Y-71764931D01*
X97610556Y-71705241D01*
X97659996Y-71662594D01*
X97698304Y-71642118D01*
X97854077Y-71514278D01*
X97981917Y-71358505D01*
X98076911Y-71180784D01*
X98135408Y-70987945D01*
X98155160Y-70787400D01*
X98135408Y-70586855D01*
X98076911Y-70394016D01*
X97991831Y-70234842D01*
X97985369Y-70222753D01*
X97985368Y-70222752D01*
X97981917Y-70216295D01*
X97854077Y-70060522D01*
X97846576Y-70054366D01*
X97755569Y-69979678D01*
X97712436Y-69921519D01*
X97701812Y-69849895D01*
X97726205Y-69781720D01*
X97779856Y-69733094D01*
X97850094Y-69715500D01*
X98230363Y-69715500D01*
X98287383Y-69726842D01*
G37*
%TD.AperFunction*%
%TA.AperFunction,Conductor*%
G36*
X105399383Y-62614842D02*
G01*
X105447722Y-62647141D01*
X106516859Y-63716278D01*
X106549158Y-63764617D01*
X106560500Y-63821637D01*
X106560500Y-67840074D01*
X106541908Y-67912148D01*
X106490773Y-67966236D01*
X106467057Y-67981137D01*
X106467051Y-67981141D01*
X106459973Y-67985589D01*
X106454060Y-67991501D01*
X106454056Y-67991505D01*
X106345505Y-68100056D01*
X106345501Y-68100060D01*
X106339589Y-68105973D01*
X106335140Y-68113052D01*
X106335137Y-68113057D01*
X106253463Y-68243040D01*
X106253459Y-68243047D01*
X106249011Y-68250127D01*
X106246249Y-68258018D01*
X106246246Y-68258026D01*
X106195543Y-68402929D01*
X106195541Y-68402935D01*
X106192782Y-68410822D01*
X106192682Y-68411701D01*
X106167642Y-68465224D01*
X106119700Y-68506169D01*
X106059117Y-68523622D01*
X105996740Y-68514458D01*
X105943737Y-68480318D01*
X105319141Y-67855722D01*
X105286842Y-67807383D01*
X105275500Y-67750363D01*
X105275500Y-64593123D01*
X105275968Y-64583177D01*
X105277680Y-64575523D01*
X105275573Y-64508508D01*
X105275500Y-64503829D01*
X105275500Y-64481215D01*
X105275500Y-64476524D01*
X105274911Y-64471868D01*
X105274618Y-64467204D01*
X105274631Y-64467203D01*
X105274039Y-64459691D01*
X105273657Y-64447544D01*
X105272700Y-64417057D01*
X105267632Y-64399616D01*
X105262892Y-64376728D01*
X105260616Y-64358707D01*
X105257164Y-64349989D01*
X105257163Y-64349984D01*
X105244913Y-64319044D01*
X105240365Y-64305761D01*
X105234492Y-64285546D01*
X105228468Y-64264809D01*
X105223692Y-64256734D01*
X105223691Y-64256731D01*
X105219225Y-64249180D01*
X105208938Y-64228184D01*
X105202253Y-64211297D01*
X105177180Y-64176788D01*
X105169484Y-64165073D01*
X105147763Y-64128344D01*
X105134916Y-64115497D01*
X105119739Y-64097727D01*
X105109063Y-64083033D01*
X105098655Y-64074423D01*
X105076207Y-64055852D01*
X105065824Y-64046405D01*
X104709938Y-63690519D01*
X104674658Y-63634371D01*
X104667234Y-63568477D01*
X104689135Y-63505887D01*
X104736025Y-63458998D01*
X104791939Y-63423865D01*
X104791940Y-63423863D01*
X104799027Y-63419411D01*
X104919411Y-63299027D01*
X105009989Y-63154873D01*
X105066218Y-62994178D01*
X105085280Y-62825000D01*
X105078990Y-62769183D01*
X105085091Y-62707252D01*
X105115953Y-62653214D01*
X105166196Y-62616495D01*
X105227054Y-62603500D01*
X105342363Y-62603500D01*
X105399383Y-62614842D01*
G37*
%TD.AperFunction*%
%TA.AperFunction,Conductor*%
G36*
X52678008Y-64268740D02*
G01*
X52730907Y-64313920D01*
X52757529Y-64378191D01*
X52752070Y-64447544D01*
X52715722Y-64506859D01*
X51193722Y-66028859D01*
X51145383Y-66061158D01*
X51088363Y-66072500D01*
X49464293Y-66072500D01*
X49423045Y-66066677D01*
X49385020Y-66049662D01*
X49336959Y-66019463D01*
X49336956Y-66019461D01*
X49329873Y-66015011D01*
X49321978Y-66012248D01*
X49321973Y-66012246D01*
X49177077Y-65961546D01*
X49169178Y-65958782D01*
X49160864Y-65957845D01*
X49160859Y-65957844D01*
X49008316Y-65940657D01*
X49000000Y-65939720D01*
X48991684Y-65940657D01*
X48839140Y-65957844D01*
X48839133Y-65957845D01*
X48830822Y-65958782D01*
X48822924Y-65961545D01*
X48822922Y-65961546D01*
X48678026Y-66012246D01*
X48678018Y-66012249D01*
X48670127Y-66015011D01*
X48663047Y-66019459D01*
X48663040Y-66019463D01*
X48533057Y-66101137D01*
X48533052Y-66101140D01*
X48525973Y-66105589D01*
X48520060Y-66111501D01*
X48520056Y-66111505D01*
X48411505Y-66220056D01*
X48411501Y-66220060D01*
X48405589Y-66225973D01*
X48401140Y-66233052D01*
X48401137Y-66233057D01*
X48319463Y-66363040D01*
X48319459Y-66363047D01*
X48315011Y-66370127D01*
X48312249Y-66378018D01*
X48312246Y-66378026D01*
X48263618Y-66517000D01*
X48258782Y-66530822D01*
X48257845Y-66539133D01*
X48257844Y-66539140D01*
X48244775Y-66655133D01*
X48239720Y-66700000D01*
X48240657Y-66708316D01*
X48257844Y-66860859D01*
X48257845Y-66860864D01*
X48258782Y-66869178D01*
X48295562Y-66974291D01*
X48302460Y-67044329D01*
X48276442Y-67109722D01*
X48223311Y-67155878D01*
X48154923Y-67172500D01*
X45947545Y-67172500D01*
X45886393Y-67159373D01*
X45836017Y-67122305D01*
X45805291Y-67067828D01*
X45799631Y-67005540D01*
X45820034Y-66946416D01*
X45840850Y-66911982D01*
X45840850Y-66911981D01*
X45845512Y-66904270D01*
X45894315Y-66747657D01*
X45900500Y-66679594D01*
X45900500Y-65818015D01*
X45913839Y-65756395D01*
X45951467Y-65705807D01*
X46006648Y-65675310D01*
X46069502Y-65670364D01*
X46128774Y-65691854D01*
X46164870Y-65714535D01*
X46164872Y-65714536D01*
X46171959Y-65718989D01*
X46332654Y-65775218D01*
X46501832Y-65794280D01*
X46671010Y-65775218D01*
X46831705Y-65718989D01*
X46975859Y-65628411D01*
X47038595Y-65565673D01*
X47094740Y-65530395D01*
X47160634Y-65522971D01*
X47225500Y-65530280D01*
X47394678Y-65511218D01*
X47555373Y-65454989D01*
X47699527Y-65364411D01*
X47819911Y-65244027D01*
X47910489Y-65099873D01*
X47927139Y-65052288D01*
X47958553Y-65000155D01*
X48008194Y-64964932D01*
X48067778Y-64952500D01*
X48922868Y-64952500D01*
X48932823Y-64952969D01*
X48940477Y-64954680D01*
X49007536Y-64952573D01*
X49012216Y-64952500D01*
X49034785Y-64952500D01*
X49039476Y-64952500D01*
X49044131Y-64951911D01*
X49048797Y-64951618D01*
X49048797Y-64951631D01*
X49056294Y-64951040D01*
X49098943Y-64949701D01*
X49116380Y-64944634D01*
X49139288Y-64939890D01*
X49157293Y-64937616D01*
X49196972Y-64921905D01*
X49210209Y-64917373D01*
X49251191Y-64905468D01*
X49266815Y-64896226D01*
X49287818Y-64885937D01*
X49304703Y-64879253D01*
X49339219Y-64854173D01*
X49350919Y-64846487D01*
X49387656Y-64824763D01*
X49400503Y-64811915D01*
X49418273Y-64796737D01*
X49432967Y-64786063D01*
X49460158Y-64753192D01*
X49469584Y-64742833D01*
X49916277Y-64296141D01*
X49964617Y-64263842D01*
X50021637Y-64252500D01*
X52610363Y-64252500D01*
X52678008Y-64268740D01*
G37*
%TD.AperFunction*%
%TD*%
M02*
