%TF.GenerationSoftware,KiCad,Pcbnew,(7.0.0)*%
%TF.CreationDate,2023-04-17T21:08:14+08:00*%
%TF.ProjectId,opsx_x,6f707378-5f78-42e6-9b69-6361645f7063,rev?*%
%TF.SameCoordinates,Original*%
%TF.FileFunction,Paste,Top*%
%TF.FilePolarity,Positive*%
%FSLAX46Y46*%
G04 Gerber Fmt 4.6, Leading zero omitted, Abs format (unit mm)*
G04 Created by KiCad (PCBNEW (7.0.0)) date 2023-04-17 21:08:14*
%MOMM*%
%LPD*%
G01*
G04 APERTURE LIST*
G04 Aperture macros list*
%AMRoundRect*
0 Rectangle with rounded corners*
0 $1 Rounding radius*
0 $2 $3 $4 $5 $6 $7 $8 $9 X,Y pos of 4 corners*
0 Add a 4 corners polygon primitive as box body*
4,1,4,$2,$3,$4,$5,$6,$7,$8,$9,$2,$3,0*
0 Add four circle primitives for the rounded corners*
1,1,$1+$1,$2,$3*
1,1,$1+$1,$4,$5*
1,1,$1+$1,$6,$7*
1,1,$1+$1,$8,$9*
0 Add four rect primitives between the rounded corners*
20,1,$1+$1,$2,$3,$4,$5,0*
20,1,$1+$1,$4,$5,$6,$7,0*
20,1,$1+$1,$6,$7,$8,$9,0*
20,1,$1+$1,$8,$9,$2,$3,0*%
%AMRotRect*
0 Rectangle, with rotation*
0 The origin of the aperture is its center*
0 $1 length*
0 $2 width*
0 $3 Rotation angle, in degrees counterclockwise*
0 Add horizontal line*
21,1,$1,$2,0,0,$3*%
G04 Aperture macros list end*
%ADD10R,1.000001X0.599999*%
%ADD11RoundRect,0.160000X0.197500X0.160000X-0.197500X0.160000X-0.197500X-0.160000X0.197500X-0.160000X0*%
%ADD12RoundRect,0.237500X0.287500X0.237500X-0.287500X0.237500X-0.287500X-0.237500X0.287500X-0.237500X0*%
%ADD13RoundRect,0.160000X-0.197500X-0.160000X0.197500X-0.160000X0.197500X0.160000X-0.197500X0.160000X0*%
%ADD14RoundRect,0.150000X0.150000X-0.587500X0.150000X0.587500X-0.150000X0.587500X-0.150000X-0.587500X0*%
%ADD15RoundRect,0.160000X-0.160000X0.197500X-0.160000X-0.197500X0.160000X-0.197500X0.160000X0.197500X0*%
%ADD16RoundRect,0.150000X0.587500X0.150000X-0.587500X0.150000X-0.587500X-0.150000X0.587500X-0.150000X0*%
%ADD17RoundRect,0.155000X-0.212500X-0.155000X0.212500X-0.155000X0.212500X0.155000X-0.212500X0.155000X0*%
%ADD18RoundRect,0.150000X0.150000X-0.512500X0.150000X0.512500X-0.150000X0.512500X-0.150000X-0.512500X0*%
%ADD19RoundRect,0.250000X-0.450000X0.350000X-0.450000X-0.350000X0.450000X-0.350000X0.450000X0.350000X0*%
%ADD20RoundRect,0.155000X0.155000X-0.212500X0.155000X0.212500X-0.155000X0.212500X-0.155000X-0.212500X0*%
%ADD21RoundRect,0.160000X0.160000X-0.197500X0.160000X0.197500X-0.160000X0.197500X-0.160000X-0.197500X0*%
%ADD22R,1.950000X1.950000*%
%ADD23R,1.050000X1.950000*%
%ADD24RotRect,1.780000X1.060000X126.000000*%
%ADD25R,2.310000X2.310000*%
%ADD26RotRect,2.159000X1.310000X26.000000*%
%ADD27R,2.413000X1.143000*%
%ADD28R,3.500000X2.310000*%
%ADD29R,1.371600X2.540000*%
%ADD30R,1.143000X2.413000*%
%ADD31RoundRect,0.150000X-0.587500X-0.150000X0.587500X-0.150000X0.587500X0.150000X-0.587500X0.150000X0*%
%ADD32RoundRect,0.155000X-0.155000X0.212500X-0.155000X-0.212500X0.155000X-0.212500X0.155000X0.212500X0*%
%ADD33RoundRect,0.155000X0.212500X0.155000X-0.212500X0.155000X-0.212500X-0.155000X0.212500X-0.155000X0*%
%ADD34R,1.900000X0.400000*%
%ADD35RoundRect,0.112500X0.112500X-0.187500X0.112500X0.187500X-0.112500X0.187500X-0.112500X-0.187500X0*%
%ADD36RoundRect,0.112500X-0.187500X-0.112500X0.187500X-0.112500X0.187500X0.112500X-0.187500X0.112500X0*%
%ADD37RoundRect,0.150000X0.150000X-0.650000X0.150000X0.650000X-0.150000X0.650000X-0.150000X-0.650000X0*%
%ADD38RoundRect,0.250000X0.292217X-0.292217X0.292217X0.292217X-0.292217X0.292217X-0.292217X-0.292217X0*%
%ADD39RoundRect,0.050000X0.050000X-0.387500X0.050000X0.387500X-0.050000X0.387500X-0.050000X-0.387500X0*%
%ADD40RoundRect,0.050000X0.387500X-0.050000X0.387500X0.050000X-0.387500X0.050000X-0.387500X-0.050000X0*%
G04 APERTURE END LIST*
D10*
%TO.C,U2*%
X38200000Y-79944000D03*
X38200000Y-78993999D03*
X38200000Y-78044001D03*
X35450000Y-78044001D03*
X35450000Y-79944000D03*
%TD*%
D11*
%TO.C,R35*%
X46872500Y-70950000D03*
X45677500Y-70950000D03*
%TD*%
D12*
%TO.C,D6*%
X54215000Y-58674000D03*
X52465000Y-58674000D03*
%TD*%
%TO.C,D5*%
X54215000Y-60198000D03*
X52465000Y-60198000D03*
%TD*%
D13*
%TO.C,R34*%
X35724500Y-63754000D03*
X36919500Y-63754000D03*
%TD*%
D14*
%TO.C,Q3*%
X108458000Y-70182500D03*
X109408000Y-72057500D03*
X107508000Y-72057500D03*
%TD*%
D15*
%TO.C,R33*%
X102616000Y-63664500D03*
X102616000Y-64859500D03*
%TD*%
%TO.C,R32*%
X88646000Y-60108500D03*
X88646000Y-61303500D03*
%TD*%
D13*
%TO.C,R31*%
X93128500Y-63754000D03*
X94323500Y-63754000D03*
%TD*%
D16*
%TO.C,Q4*%
X91440000Y-63622000D03*
X91440000Y-61722000D03*
X89565000Y-62672000D03*
%TD*%
D15*
%TO.C,R30*%
X97790000Y-81369500D03*
X97790000Y-80174500D03*
%TD*%
D11*
%TO.C,R29*%
X41237500Y-82550000D03*
X40042500Y-82550000D03*
%TD*%
D15*
%TO.C,R27*%
X102750000Y-74257500D03*
X102750000Y-73062500D03*
%TD*%
D17*
%TO.C,C15*%
X107382500Y-67818000D03*
X108517500Y-67818000D03*
%TD*%
D18*
%TO.C,U6*%
X99475000Y-75051500D03*
X100425000Y-75051500D03*
X101375000Y-75051500D03*
X101375000Y-72776500D03*
X99475000Y-72776500D03*
%TD*%
D11*
%TO.C,R28*%
X99986500Y-76454000D03*
X101181500Y-76454000D03*
%TD*%
D15*
%TO.C,R26*%
X100100000Y-70872500D03*
X100100000Y-69677500D03*
%TD*%
%TO.C,R8*%
X98044000Y-74511500D03*
X98044000Y-73316500D03*
%TD*%
D18*
%TO.C,U5*%
X101920000Y-70225500D03*
X102870000Y-70225500D03*
X103820000Y-70225500D03*
X103820000Y-67950500D03*
X101920000Y-67950500D03*
%TD*%
D19*
%TO.C,R7*%
X105664000Y-68342000D03*
X105664000Y-70342000D03*
%TD*%
D15*
%TO.C,R10*%
X48000000Y-65897500D03*
X48000000Y-64702500D03*
%TD*%
D20*
%TO.C,C8*%
X32025000Y-67117500D03*
X32025000Y-65982500D03*
%TD*%
D13*
%TO.C,R12*%
X38002500Y-63700000D03*
X39197500Y-63700000D03*
%TD*%
D21*
%TO.C,R1*%
X33184000Y-68097500D03*
X33184000Y-66902500D03*
%TD*%
D16*
%TO.C,Q2*%
X111587500Y-61550000D03*
X111587500Y-59650000D03*
X109712500Y-60600000D03*
%TD*%
D21*
%TO.C,R25*%
X105325000Y-63527500D03*
X105325000Y-64722500D03*
%TD*%
D22*
%TO.C,sx1*%
X42085399Y-61173499D03*
X48232199Y-61160799D03*
D23*
X44447599Y-61160799D03*
D24*
X95735063Y-66269481D03*
D23*
X46098599Y-61135399D03*
D24*
X97029490Y-65329024D03*
D25*
X31483593Y-60801427D03*
D24*
X102207199Y-61567199D03*
D26*
X117243999Y-75587999D03*
D24*
X93146208Y-68150394D03*
D26*
X116476849Y-74015109D03*
D27*
X113250917Y-64393880D03*
X115577599Y-66077599D03*
D24*
X99618344Y-63448112D03*
X98323917Y-64388568D03*
D27*
X117955199Y-64361199D03*
D28*
X35024199Y-60830599D03*
D24*
X100912771Y-62507655D03*
D27*
X90939702Y-59027677D03*
X94901999Y-58990999D03*
D26*
X118011148Y-77160889D03*
D29*
X100038343Y-81536678D03*
X101816343Y-81536678D03*
D26*
X118778298Y-78733778D03*
X114175401Y-69296441D03*
X114942550Y-70869330D03*
D29*
X103578799Y-81531599D03*
X105356799Y-81531599D03*
D30*
X108502280Y-64147999D03*
X110959399Y-64147999D03*
D27*
X104456286Y-59242830D03*
D24*
X94440635Y-67209937D03*
D26*
X115709700Y-72442220D03*
%TD*%
D31*
%TO.C,Q1*%
X107037500Y-75000000D03*
X107037500Y-76900000D03*
X108912500Y-75950000D03*
%TD*%
D11*
%TO.C,R15*%
X97625500Y-68834000D03*
X96430500Y-68834000D03*
%TD*%
D32*
%TO.C,C4*%
X39884000Y-79132500D03*
X39884000Y-80267500D03*
%TD*%
D33*
%TO.C,C14*%
X28017500Y-73150000D03*
X26882500Y-73150000D03*
%TD*%
D20*
%TO.C,C6*%
X31025000Y-67092500D03*
X31025000Y-65957500D03*
%TD*%
D15*
%TO.C,R16*%
X95504000Y-71463500D03*
X95504000Y-70268500D03*
%TD*%
D20*
%TO.C,C2*%
X50000000Y-64707500D03*
X50000000Y-65842500D03*
%TD*%
D11*
%TO.C,R6*%
X36700000Y-83100000D03*
X35505000Y-83100000D03*
%TD*%
D13*
%TO.C,R14*%
X97954500Y-67818000D03*
X99149500Y-67818000D03*
%TD*%
D17*
%TO.C,C10*%
X44136500Y-65278000D03*
X45271500Y-65278000D03*
%TD*%
D21*
%TO.C,R23*%
X105500000Y-77813500D03*
X105500000Y-76618500D03*
%TD*%
D34*
%TO.C,Y1*%
X47099999Y-69549999D03*
X47099999Y-68349999D03*
X47099999Y-67149999D03*
%TD*%
D35*
%TO.C,D4*%
X106825000Y-62850000D03*
X106825000Y-60750000D03*
%TD*%
D15*
%TO.C,R18*%
X119380000Y-68998500D03*
X119380000Y-70193500D03*
%TD*%
D13*
%TO.C,R5*%
X35505000Y-82100000D03*
X36700000Y-82100000D03*
%TD*%
D15*
%TO.C,R19*%
X117332000Y-69504000D03*
X117332000Y-70699000D03*
%TD*%
D21*
%TO.C,R9*%
X49025000Y-64702500D03*
X49025000Y-65897500D03*
%TD*%
D13*
%TO.C,R17*%
X118199500Y-68326000D03*
X117004500Y-68326000D03*
%TD*%
D33*
%TO.C,C12*%
X29967500Y-67700000D03*
X28832500Y-67700000D03*
%TD*%
D36*
%TO.C,D3*%
X106925000Y-78600000D03*
X109025000Y-78600000D03*
%TD*%
%TO.C,D1*%
X39050000Y-84000000D03*
X41150000Y-84000000D03*
%TD*%
D15*
%TO.C,R24*%
X104325000Y-63552500D03*
X104325000Y-64747500D03*
%TD*%
D37*
%TO.C,U3*%
X29695000Y-79200000D03*
X30965000Y-79200000D03*
X32235000Y-79200000D03*
X33505000Y-79200000D03*
X33505000Y-72000000D03*
X32235000Y-72000000D03*
X30965000Y-72000000D03*
X29695000Y-72000000D03*
%TD*%
D32*
%TO.C,C7*%
X35250000Y-74732500D03*
X35250000Y-75867500D03*
%TD*%
D20*
%TO.C,C1*%
X35175000Y-67967500D03*
X35175000Y-66832500D03*
%TD*%
D21*
%TO.C,R2*%
X34200000Y-68097500D03*
X34200000Y-66902500D03*
%TD*%
D13*
%TO.C,R21*%
X112330000Y-75184000D03*
X113525000Y-75184000D03*
%TD*%
%TO.C,R11*%
X38002500Y-62700000D03*
X39197500Y-62700000D03*
%TD*%
D21*
%TO.C,R4*%
X33528000Y-83147500D03*
X33528000Y-81952500D03*
%TD*%
D11*
%TO.C,R13*%
X99149500Y-66802000D03*
X97954500Y-66802000D03*
%TD*%
D33*
%TO.C,C3*%
X29967500Y-68700000D03*
X28832500Y-68700000D03*
%TD*%
D21*
%TO.C,R20*%
X118364000Y-70701500D03*
X118364000Y-69506500D03*
%TD*%
D32*
%TO.C,C9*%
X40000000Y-76732500D03*
X40000000Y-77867500D03*
%TD*%
D20*
%TO.C,C13*%
X36175000Y-67192500D03*
X36175000Y-66057500D03*
%TD*%
D33*
%TO.C,C5*%
X37517500Y-76700000D03*
X36382500Y-76700000D03*
%TD*%
D38*
%TO.C,U1*%
X40250000Y-71500000D03*
X41525000Y-71500000D03*
X40250000Y-70225000D03*
X41525000Y-70225000D03*
D39*
X38287500Y-74300000D03*
X38687500Y-74300000D03*
X39087500Y-74300000D03*
X39487500Y-74300000D03*
X39887500Y-74300000D03*
X40287500Y-74300000D03*
X40687500Y-74300000D03*
X41087500Y-74300000D03*
X41487500Y-74300000D03*
X41887500Y-74300000D03*
X42287500Y-74300000D03*
X42687500Y-74300000D03*
X43087500Y-74300000D03*
X43487500Y-74300000D03*
D40*
X44325000Y-73462500D03*
X44325000Y-73062500D03*
X44325000Y-72662500D03*
X44325000Y-72262500D03*
X44325000Y-71862500D03*
X44325000Y-71462500D03*
X44325000Y-71062500D03*
X44325000Y-70662500D03*
X44325000Y-70262500D03*
X44325000Y-69862500D03*
X44325000Y-69462500D03*
X44325000Y-69062500D03*
X44325000Y-68662500D03*
X44325000Y-68262500D03*
D39*
X43487500Y-67425000D03*
X43087500Y-67425000D03*
X42687500Y-67425000D03*
X42287500Y-67425000D03*
X41887500Y-67425000D03*
X41487500Y-67425000D03*
X41087500Y-67425000D03*
X40687500Y-67425000D03*
X40287500Y-67425000D03*
X39887500Y-67425000D03*
X39487500Y-67425000D03*
X39087500Y-67425000D03*
X38687500Y-67425000D03*
X38287500Y-67425000D03*
D40*
X37450000Y-68262500D03*
X37450000Y-68662500D03*
X37450000Y-69062500D03*
X37450000Y-69462500D03*
X37450000Y-69862500D03*
X37450000Y-70262500D03*
X37450000Y-70662500D03*
X37450000Y-71062500D03*
X37450000Y-71462500D03*
X37450000Y-71862500D03*
X37450000Y-72262500D03*
X37450000Y-72662500D03*
X37450000Y-73062500D03*
X37450000Y-73462500D03*
%TD*%
D21*
%TO.C,R3*%
X32512000Y-83147500D03*
X32512000Y-81952500D03*
%TD*%
%TO.C,R22*%
X104475000Y-78163500D03*
X104475000Y-76968500D03*
%TD*%
D32*
%TO.C,C11*%
X40975000Y-76732500D03*
X40975000Y-77867500D03*
%TD*%
M02*
