%TF.GenerationSoftware,KiCad,Pcbnew,(6.0.7)*%
%TF.CreationDate,2023-03-26T23:22:16+08:00*%
%TF.ProjectId,sx70battery,73783730-6261-4747-9465-72792e6b6963,rev?*%
%TF.SameCoordinates,Original*%
%TF.FileFunction,Soldermask,Top*%
%TF.FilePolarity,Negative*%
%FSLAX46Y46*%
G04 Gerber Fmt 4.6, Leading zero omitted, Abs format (unit mm)*
G04 Created by KiCad (PCBNEW (6.0.7)) date 2023-03-26 23:22:16*
%MOMM*%
%LPD*%
G01*
G04 APERTURE LIST*
G04 Aperture macros list*
%AMRoundRect*
0 Rectangle with rounded corners*
0 $1 Rounding radius*
0 $2 $3 $4 $5 $6 $7 $8 $9 X,Y pos of 4 corners*
0 Add a 4 corners polygon primitive as box body*
4,1,4,$2,$3,$4,$5,$6,$7,$8,$9,$2,$3,0*
0 Add four circle primitives for the rounded corners*
1,1,$1+$1,$2,$3*
1,1,$1+$1,$4,$5*
1,1,$1+$1,$6,$7*
1,1,$1+$1,$8,$9*
0 Add four rect primitives between the rounded corners*
20,1,$1+$1,$2,$3,$4,$5,0*
20,1,$1+$1,$4,$5,$6,$7,0*
20,1,$1+$1,$6,$7,$8,$9,0*
20,1,$1+$1,$8,$9,$2,$3,0*%
G04 Aperture macros list end*
%ADD10RoundRect,0.250000X0.337500X0.475000X-0.337500X0.475000X-0.337500X-0.475000X0.337500X-0.475000X0*%
%ADD11C,2.000000*%
%ADD12RoundRect,0.250000X0.450000X-0.350000X0.450000X0.350000X-0.450000X0.350000X-0.450000X-0.350000X0*%
%ADD13R,2.000000X0.650000*%
%ADD14R,2.200000X3.900000*%
%ADD15RoundRect,0.250000X-0.250000X-0.750000X0.250000X-0.750000X0.250000X0.750000X-0.250000X0.750000X0*%
%ADD16RoundRect,0.250000X0.475000X-0.337500X0.475000X0.337500X-0.475000X0.337500X-0.475000X-0.337500X0*%
%ADD17O,1.100000X1.700000*%
%ADD18R,0.700000X1.200000*%
%ADD19R,0.760000X1.200000*%
%ADD20R,0.800000X1.200000*%
%ADD21RoundRect,1.680000X-0.420000X-0.820000X0.420000X-0.820000X0.420000X0.820000X-0.420000X0.820000X0*%
%ADD22RoundRect,0.250000X-0.350000X-0.450000X0.350000X-0.450000X0.350000X0.450000X-0.350000X0.450000X0*%
%ADD23RoundRect,0.250000X-0.450000X0.325000X-0.450000X-0.325000X0.450000X-0.325000X0.450000X0.325000X0*%
%ADD24C,2.500000*%
%ADD25R,0.550000X1.200000*%
%ADD26RoundRect,0.500000X-0.500000X-1.500000X0.500000X-1.500000X0.500000X1.500000X-0.500000X1.500000X0*%
%ADD27RoundRect,0.250000X-0.450000X0.350000X-0.450000X-0.350000X0.450000X-0.350000X0.450000X0.350000X0*%
%ADD28R,1.308000X1.308000*%
%ADD29C,1.308000*%
%ADD30O,2.460000X1.230000*%
%ADD31RoundRect,0.250000X0.325000X0.450000X-0.325000X0.450000X-0.325000X-0.450000X0.325000X-0.450000X0*%
%ADD32C,10.000000*%
%ADD33R,0.650000X1.560000*%
%ADD34R,1.800000X2.500000*%
%ADD35RoundRect,0.250000X0.350000X0.450000X-0.350000X0.450000X-0.350000X-0.450000X0.350000X-0.450000X0*%
%ADD36RoundRect,0.250000X-0.337500X-0.475000X0.337500X-0.475000X0.337500X0.475000X-0.337500X0.475000X0*%
G04 APERTURE END LIST*
D10*
%TO.C,C7*%
X126737500Y-95000000D03*
X124662500Y-95000000D03*
%TD*%
D11*
%TO.C,SW1*%
X124900000Y-62200000D03*
X124900000Y-55700000D03*
X129400000Y-62200000D03*
X129400000Y-55700000D03*
%TD*%
D12*
%TO.C,R4*%
X167000000Y-105100000D03*
X167000000Y-103100000D03*
%TD*%
D13*
%TO.C,U2*%
X167010000Y-109750000D03*
X167010000Y-108800000D03*
X167010000Y-107850000D03*
X163590000Y-107850000D03*
X163590000Y-108800000D03*
X163590000Y-109750000D03*
%TD*%
D12*
%TO.C,R_PROG1*%
X131800000Y-116050000D03*
X131800000Y-114050000D03*
%TD*%
D14*
%TO.C,L1*%
X166000000Y-114000000D03*
X162200000Y-114000000D03*
%TD*%
D15*
%TO.C,5V+1*%
X140970000Y-111125000D03*
%TD*%
D16*
%TO.C,C3*%
X158600000Y-108237500D03*
X158600000Y-106162500D03*
%TD*%
%TO.C,C5*%
X174350000Y-106787500D03*
X174350000Y-104712500D03*
%TD*%
D17*
%TO.C,USB1*%
X145680000Y-122400000D03*
X154320000Y-122400000D03*
X145680000Y-118600000D03*
X154320000Y-118600000D03*
D18*
X149500000Y-118450000D03*
D19*
X151520000Y-118450000D03*
D20*
X152750000Y-118450000D03*
D18*
X150500000Y-118450000D03*
D19*
X148480000Y-118450000D03*
D20*
X147250000Y-118450000D03*
%TD*%
D21*
%TO.C,Bolt2*%
X175000000Y-51000000D03*
%TD*%
D16*
%TO.C,C4*%
X160800000Y-108237500D03*
X160800000Y-106162500D03*
%TD*%
D22*
%TO.C,R1*%
X126635000Y-114300000D03*
X128635000Y-114300000D03*
%TD*%
D23*
%TO.C,STDBY1*%
X129540000Y-118990000D03*
X129540000Y-121040000D03*
%TD*%
D24*
%TO.C,Sx70_Pogopin1*%
X133500000Y-61200000D03*
X169500000Y-61200000D03*
%TD*%
D25*
%TO.C,U1*%
X132395000Y-109189900D03*
X131445000Y-109189900D03*
X130495000Y-109189900D03*
X130495000Y-111790100D03*
X131445000Y-111790100D03*
X132395000Y-111790100D03*
%TD*%
D26*
%TO.C,BAT-1*%
X135255000Y-95250000D03*
%TD*%
D27*
%TO.C,R2*%
X169100000Y-99200000D03*
X169100000Y-101200000D03*
%TD*%
D15*
%TO.C,GND1*%
X138430000Y-111125000D03*
%TD*%
D10*
%TO.C,C1*%
X128672500Y-111760000D03*
X126597500Y-111760000D03*
%TD*%
D23*
%TO.C,CHARG1*%
X132080000Y-118990000D03*
X132080000Y-121040000D03*
%TD*%
D28*
%TO.C,S1*%
X130810000Y-97060000D03*
D29*
X130810000Y-99060000D03*
X130810000Y-101060000D03*
D30*
X130810000Y-94860000D03*
X130810000Y-103260000D03*
%TD*%
D31*
%TO.C,D2*%
X122625000Y-101100000D03*
X120575000Y-101100000D03*
%TD*%
D32*
%TO.C,Hole1*%
X150000000Y-100000000D03*
%TD*%
D26*
%TO.C,BAT+1*%
X139700000Y-95250000D03*
%TD*%
%TO.C,6V+1*%
X166370000Y-95350000D03*
%TD*%
D33*
%TO.C,U3*%
X126750000Y-101050000D03*
X125800000Y-101050000D03*
X124850000Y-101050000D03*
X124850000Y-103750000D03*
X125800000Y-103750000D03*
X126750000Y-103750000D03*
%TD*%
D12*
%TO.C,R3*%
X169100000Y-105100000D03*
X169100000Y-103100000D03*
%TD*%
D31*
%TO.C,D4*%
X122625000Y-105900000D03*
X120575000Y-105900000D03*
%TD*%
D21*
%TO.C,Bolt1*%
X122000000Y-51000000D03*
%TD*%
D34*
%TO.C,D1*%
X171350000Y-109100000D03*
X171350000Y-113100000D03*
%TD*%
D16*
%TO.C,C6*%
X176500000Y-106787500D03*
X176500000Y-104712500D03*
%TD*%
D31*
%TO.C,D3*%
X122625000Y-103500000D03*
X120575000Y-103500000D03*
%TD*%
D35*
%TO.C,R5*%
X126700000Y-97200000D03*
X124700000Y-97200000D03*
%TD*%
D12*
%TO.C,R_OC1*%
X163600000Y-105400000D03*
X163600000Y-103400000D03*
%TD*%
D26*
%TO.C,GND2*%
X162640000Y-95350000D03*
%TD*%
D36*
%TO.C,C2*%
X126597500Y-109220000D03*
X128672500Y-109220000D03*
%TD*%
D31*
%TO.C,D5*%
X122625000Y-108200000D03*
X120575000Y-108200000D03*
%TD*%
M02*
