M48
; DRILL file {KiCad (6.0.7)} date Sun Mar 26 23:22:35 2023
; FORMAT={-:-/ absolute / metric / decimal}
; #@! TF.CreationDate,2023-03-26T23:22:35+08:00
; #@! TF.GenerationSoftware,Kicad,Pcbnew,(6.0.7)
; #@! TF.FileFunction,Plated,1,2,PTH
FMAT,2
METRIC
; #@! TA.AperFunction,Plated,PTH,ViaDrill
T1C0.400
; #@! TA.AperFunction,Plated,PTH,ComponentDrill
T2C0.600
; #@! TA.AperFunction,Plated,PTH,ComponentDrill
T3C0.700
; #@! TA.AperFunction,Plated,PTH,ComponentDrill
T4C0.800
; #@! TA.AperFunction,Plated,PTH,ComponentDrill
T5C1.100
; #@! TA.AperFunction,Plated,PTH,ComponentDrill
T6C3.200
; #@! TA.AperFunction,Plated,PTH,ComponentDrill
T7C3.300
%
G90
G05
T1
X122.85Y-98.95
X125.3Y-98.95
X125.6Y-109.2
X125.6Y-111.8
X126.7Y-92.7
X129.0Y-116.4
X131.4Y-107.1
X131.8Y-117.4
X137.16Y-111.125
X146.9Y-120.6
X148.0Y-116.4
X153.1Y-120.5
X160.6Y-95.35
X163.6Y-106.4
X163.6Y-110.7
X165.3Y-104.8
X165.3Y-105.7
X165.3Y-106.6
X165.3Y-107.6
X165.3Y-108.5
X165.3Y-110.3
X170.45Y-99.2
X176.0Y-108.5
T4
X130.81Y-97.06
X130.81Y-99.06
X130.81Y-101.06
T5
X124.9Y-55.7
X124.9Y-62.2
X129.4Y-55.7
X129.4Y-62.2
X133.5Y-61.2
X169.5Y-61.2
T6
X122.0Y-51.0
X175.0Y-51.0
T7
X150.0Y-100.0
T2
G00X145.68Y-118.3
M15
G01X145.68Y-118.9
M16
G05
G00X145.68Y-122.1
M15
G01X145.68Y-122.7
M16
G05
G00X154.32Y-118.3
M15
G01X154.32Y-118.9
M16
G05
G00X154.32Y-122.1
M15
G01X154.32Y-122.7
M16
G05
T3
G00X131.21Y-94.86
M15
G01X130.41Y-94.86
M16
G05
G00X131.21Y-103.26
M15
G01X130.41Y-103.26
M16
G05
T0
M30
