%TF.GenerationSoftware,KiCad,Pcbnew,8.0.4*%
%TF.CreationDate,2024-09-10T22:23:10+08:00*%
%TF.ProjectId,sx70battery,73783730-6261-4747-9465-72792e6b6963,2*%
%TF.SameCoordinates,Original*%
%TF.FileFunction,Copper,L2,Bot*%
%TF.FilePolarity,Positive*%
%FSLAX46Y46*%
G04 Gerber Fmt 4.6, Leading zero omitted, Abs format (unit mm)*
G04 Created by KiCad (PCBNEW 8.0.4) date 2024-09-10 22:23:10*
%MOMM*%
%LPD*%
G01*
G04 APERTURE LIST*
%TA.AperFunction,EtchedComponent*%
%ADD10C,0.010000*%
%TD*%
%TA.AperFunction,ComponentPad*%
%ADD11C,6.400000*%
%TD*%
%TA.AperFunction,ComponentPad*%
%ADD12O,1.100000X1.700000*%
%TD*%
%TA.AperFunction,ComponentPad*%
%ADD13C,2.500000*%
%TD*%
%TA.AperFunction,ComponentPad*%
%ADD14R,1.308000X1.308000*%
%TD*%
%TA.AperFunction,ComponentPad*%
%ADD15C,1.308000*%
%TD*%
%TA.AperFunction,ComponentPad*%
%ADD16O,2.460000X1.230000*%
%TD*%
%TA.AperFunction,ComponentPad*%
%ADD17C,10.000000*%
%TD*%
%TA.AperFunction,ViaPad*%
%ADD18C,0.700000*%
%TD*%
%TA.AperFunction,ViaPad*%
%ADD19C,0.800000*%
%TD*%
%TA.AperFunction,Conductor*%
%ADD20C,0.254000*%
%TD*%
G04 APERTURE END LIST*
D10*
%TO.C,REF\u002A\u002A*%
X173461782Y-122448278D02*
X173492608Y-122457901D01*
X173530570Y-122473896D01*
X173548950Y-122482492D01*
X173562215Y-122484046D01*
X173565149Y-122472131D01*
X173565152Y-122471794D01*
X173571363Y-122460420D01*
X173592785Y-122454589D01*
X173634307Y-122452947D01*
X173703466Y-122452947D01*
X173703466Y-123056512D01*
X173565149Y-123056512D01*
X173565149Y-122640360D01*
X173530764Y-122608494D01*
X173520022Y-122599437D01*
X173488024Y-122583963D01*
X173448619Y-122583343D01*
X173394966Y-122596997D01*
X173376879Y-122597862D01*
X173355662Y-122584616D01*
X173327422Y-122553133D01*
X173313723Y-122535718D01*
X173297522Y-122511130D01*
X173295025Y-122495478D01*
X173304096Y-122482274D01*
X173331943Y-122465578D01*
X173375194Y-122452363D01*
X173422118Y-122445811D01*
X173461782Y-122448278D01*
%TA.AperFunction,EtchedComponent*%
G36*
X173461782Y-122448278D02*
G01*
X173492608Y-122457901D01*
X173530570Y-122473896D01*
X173548950Y-122482492D01*
X173562215Y-122484046D01*
X173565149Y-122472131D01*
X173565152Y-122471794D01*
X173571363Y-122460420D01*
X173592785Y-122454589D01*
X173634307Y-122452947D01*
X173703466Y-122452947D01*
X173703466Y-123056512D01*
X173565149Y-123056512D01*
X173565149Y-122640360D01*
X173530764Y-122608494D01*
X173520022Y-122599437D01*
X173488024Y-122583963D01*
X173448619Y-122583343D01*
X173394966Y-122596997D01*
X173376879Y-122597862D01*
X173355662Y-122584616D01*
X173327422Y-122553133D01*
X173313723Y-122535718D01*
X173297522Y-122511130D01*
X173295025Y-122495478D01*
X173304096Y-122482274D01*
X173331943Y-122465578D01*
X173375194Y-122452363D01*
X173422118Y-122445811D01*
X173461782Y-122448278D01*
G37*
%TD.AperFunction*%
X173644919Y-123404298D02*
X173682909Y-123422078D01*
X173716040Y-123448139D01*
X173716040Y-123422078D01*
X173716865Y-123412182D01*
X173724547Y-123401691D01*
X173745321Y-123397058D01*
X173785198Y-123396016D01*
X173854357Y-123396016D01*
X173854357Y-124012155D01*
X173716040Y-124012155D01*
X173716040Y-123811559D01*
X173716023Y-123800043D01*
X173714843Y-123719091D01*
X173711948Y-123653150D01*
X173707542Y-123605591D01*
X173701835Y-123579785D01*
X173696594Y-123570043D01*
X173664330Y-123539489D01*
X173620384Y-123525964D01*
X173572397Y-123532274D01*
X173560627Y-123536550D01*
X173535552Y-123544109D01*
X173518416Y-123541761D01*
X173501172Y-123526397D01*
X173475778Y-123494904D01*
X173434590Y-123442901D01*
X173463540Y-123419458D01*
X173491059Y-123405348D01*
X173539399Y-123395819D01*
X173593884Y-123395507D01*
X173644919Y-123404298D01*
%TA.AperFunction,EtchedComponent*%
G36*
X173644919Y-123404298D02*
G01*
X173682909Y-123422078D01*
X173716040Y-123448139D01*
X173716040Y-123422078D01*
X173716865Y-123412182D01*
X173724547Y-123401691D01*
X173745321Y-123397058D01*
X173785198Y-123396016D01*
X173854357Y-123396016D01*
X173854357Y-124012155D01*
X173716040Y-124012155D01*
X173716040Y-123811559D01*
X173716023Y-123800043D01*
X173714843Y-123719091D01*
X173711948Y-123653150D01*
X173707542Y-123605591D01*
X173701835Y-123579785D01*
X173696594Y-123570043D01*
X173664330Y-123539489D01*
X173620384Y-123525964D01*
X173572397Y-123532274D01*
X173560627Y-123536550D01*
X173535552Y-123544109D01*
X173518416Y-123541761D01*
X173501172Y-123526397D01*
X173475778Y-123494904D01*
X173434590Y-123442901D01*
X173463540Y-123419458D01*
X173491059Y-123405348D01*
X173539399Y-123395819D01*
X173593884Y-123395507D01*
X173644919Y-123404298D01*
G37*
%TD.AperFunction*%
X176268614Y-124012155D02*
X176142872Y-124012155D01*
X176142872Y-123818073D01*
X176142732Y-123772927D01*
X176141303Y-123698156D01*
X176137683Y-123642800D01*
X176131088Y-123603035D01*
X176120733Y-123575033D01*
X176105832Y-123554968D01*
X176085600Y-123539014D01*
X176063513Y-123527125D01*
X176037359Y-123523754D01*
X176000162Y-123531250D01*
X175988209Y-123534371D01*
X175958372Y-123539068D01*
X175937037Y-123532338D01*
X175912309Y-123511510D01*
X175907617Y-123506980D01*
X175881674Y-123478959D01*
X175864945Y-123456176D01*
X175862650Y-123450688D01*
X175867197Y-123430421D01*
X175890256Y-123414217D01*
X175926649Y-123402846D01*
X175971198Y-123397073D01*
X176018726Y-123397667D01*
X176064054Y-123405396D01*
X176102005Y-123421027D01*
X176114035Y-123428326D01*
X176134286Y-123439009D01*
X176141783Y-123436563D01*
X176142872Y-123420980D01*
X176143127Y-123415386D01*
X176149193Y-123402993D01*
X176168010Y-123397353D01*
X176205743Y-123396016D01*
X176268614Y-123396016D01*
X176268614Y-124012155D01*
%TA.AperFunction,EtchedComponent*%
G36*
X176268614Y-124012155D02*
G01*
X176142872Y-124012155D01*
X176142872Y-123818073D01*
X176142732Y-123772927D01*
X176141303Y-123698156D01*
X176137683Y-123642800D01*
X176131088Y-123603035D01*
X176120733Y-123575033D01*
X176105832Y-123554968D01*
X176085600Y-123539014D01*
X176063513Y-123527125D01*
X176037359Y-123523754D01*
X176000162Y-123531250D01*
X175988209Y-123534371D01*
X175958372Y-123539068D01*
X175937037Y-123532338D01*
X175912309Y-123511510D01*
X175907617Y-123506980D01*
X175881674Y-123478959D01*
X175864945Y-123456176D01*
X175862650Y-123450688D01*
X175867197Y-123430421D01*
X175890256Y-123414217D01*
X175926649Y-123402846D01*
X175971198Y-123397073D01*
X176018726Y-123397667D01*
X176064054Y-123405396D01*
X176102005Y-123421027D01*
X176114035Y-123428326D01*
X176134286Y-123439009D01*
X176141783Y-123436563D01*
X176142872Y-123420980D01*
X176143127Y-123415386D01*
X176149193Y-123402993D01*
X176168010Y-123397353D01*
X176205743Y-123396016D01*
X176268614Y-123396016D01*
X176268614Y-124012155D01*
G37*
%TD.AperFunction*%
X173954951Y-122648675D02*
X173956011Y-122736727D01*
X173960163Y-122807843D01*
X173968575Y-122859532D01*
X173982411Y-122894693D01*
X174002836Y-122916222D01*
X174031018Y-122927015D01*
X174068119Y-122929969D01*
X174103544Y-122927333D01*
X174132154Y-122917012D01*
X174152950Y-122896105D01*
X174167096Y-122861714D01*
X174175757Y-122810943D01*
X174180099Y-122740896D01*
X174181287Y-122648675D01*
X174181287Y-122452947D01*
X174307030Y-122452947D01*
X174307030Y-122688911D01*
X174306814Y-122751894D01*
X174305138Y-122833340D01*
X174300931Y-122895454D01*
X174293175Y-122941791D01*
X174280850Y-122975906D01*
X174262939Y-123001355D01*
X174238421Y-123021695D01*
X174206277Y-123040480D01*
X174138779Y-123064261D01*
X174068335Y-123065813D01*
X174001918Y-123043913D01*
X173972940Y-123029716D01*
X173958563Y-123027594D01*
X173954951Y-123037626D01*
X173948953Y-123048889D01*
X173927484Y-123054822D01*
X173885792Y-123056512D01*
X173816634Y-123056512D01*
X173816634Y-122452947D01*
X173954951Y-122452947D01*
X173954951Y-122648675D01*
%TA.AperFunction,EtchedComponent*%
G36*
X173954951Y-122648675D02*
G01*
X173956011Y-122736727D01*
X173960163Y-122807843D01*
X173968575Y-122859532D01*
X173982411Y-122894693D01*
X174002836Y-122916222D01*
X174031018Y-122927015D01*
X174068119Y-122929969D01*
X174103544Y-122927333D01*
X174132154Y-122917012D01*
X174152950Y-122896105D01*
X174167096Y-122861714D01*
X174175757Y-122810943D01*
X174180099Y-122740896D01*
X174181287Y-122648675D01*
X174181287Y-122452947D01*
X174307030Y-122452947D01*
X174307030Y-122688911D01*
X174306814Y-122751894D01*
X174305138Y-122833340D01*
X174300931Y-122895454D01*
X174293175Y-122941791D01*
X174280850Y-122975906D01*
X174262939Y-123001355D01*
X174238421Y-123021695D01*
X174206277Y-123040480D01*
X174138779Y-123064261D01*
X174068335Y-123065813D01*
X174001918Y-123043913D01*
X173972940Y-123029716D01*
X173958563Y-123027594D01*
X173954951Y-123037626D01*
X173948953Y-123048889D01*
X173927484Y-123054822D01*
X173885792Y-123056512D01*
X173816634Y-123056512D01*
X173816634Y-122452947D01*
X173954951Y-122452947D01*
X173954951Y-122648675D01*
G37*
%TD.AperFunction*%
X176057259Y-122451757D02*
X176114580Y-122469767D01*
X176139853Y-122482007D01*
X176152564Y-122483271D01*
X176155446Y-122472131D01*
X176155449Y-122471794D01*
X176161660Y-122460420D01*
X176183082Y-122454589D01*
X176224604Y-122452947D01*
X176293763Y-122452947D01*
X176293763Y-123056512D01*
X176155446Y-123056512D01*
X176155446Y-122848465D01*
X176155351Y-122778212D01*
X176154705Y-122720503D01*
X176152974Y-122680120D01*
X176149628Y-122652948D01*
X176144135Y-122634873D01*
X176135964Y-122621780D01*
X176124582Y-122609554D01*
X176109078Y-122596550D01*
X176064497Y-122579078D01*
X176017701Y-122584206D01*
X175974834Y-122611840D01*
X175962581Y-122624701D01*
X175953786Y-122637717D01*
X175947887Y-122655039D01*
X175944305Y-122680834D01*
X175942463Y-122719272D01*
X175941782Y-122774522D01*
X175941684Y-122850751D01*
X175941684Y-123056512D01*
X175803367Y-123056512D01*
X175803643Y-122833318D01*
X175803662Y-122823377D01*
X175804861Y-122728439D01*
X175808545Y-122654691D01*
X175815660Y-122598547D01*
X175827154Y-122556420D01*
X175843972Y-122524724D01*
X175867063Y-122499874D01*
X175897371Y-122478283D01*
X175928666Y-122463335D01*
X175991691Y-122449754D01*
X176057259Y-122451757D01*
%TA.AperFunction,EtchedComponent*%
G36*
X176057259Y-122451757D02*
G01*
X176114580Y-122469767D01*
X176139853Y-122482007D01*
X176152564Y-122483271D01*
X176155446Y-122472131D01*
X176155449Y-122471794D01*
X176161660Y-122460420D01*
X176183082Y-122454589D01*
X176224604Y-122452947D01*
X176293763Y-122452947D01*
X176293763Y-123056512D01*
X176155446Y-123056512D01*
X176155446Y-122848465D01*
X176155351Y-122778212D01*
X176154705Y-122720503D01*
X176152974Y-122680120D01*
X176149628Y-122652948D01*
X176144135Y-122634873D01*
X176135964Y-122621780D01*
X176124582Y-122609554D01*
X176109078Y-122596550D01*
X176064497Y-122579078D01*
X176017701Y-122584206D01*
X175974834Y-122611840D01*
X175962581Y-122624701D01*
X175953786Y-122637717D01*
X175947887Y-122655039D01*
X175944305Y-122680834D01*
X175942463Y-122719272D01*
X175941782Y-122774522D01*
X175941684Y-122850751D01*
X175941684Y-123056512D01*
X175803367Y-123056512D01*
X175803643Y-122833318D01*
X175803662Y-122823377D01*
X175804861Y-122728439D01*
X175808545Y-122654691D01*
X175815660Y-122598547D01*
X175827154Y-122556420D01*
X175843972Y-122524724D01*
X175867063Y-122499874D01*
X175897371Y-122478283D01*
X175928666Y-122463335D01*
X175991691Y-122449754D01*
X176057259Y-122451757D01*
G37*
%TD.AperFunction*%
X173108063Y-122455826D02*
X173176675Y-122482557D01*
X173234702Y-122526684D01*
X173277561Y-122587291D01*
X173280455Y-122593470D01*
X173298830Y-122653742D01*
X173308011Y-122725740D01*
X173307939Y-122800702D01*
X173298555Y-122869869D01*
X173279803Y-122924482D01*
X173256649Y-122962545D01*
X173205684Y-123016468D01*
X173141960Y-123050744D01*
X173087439Y-123064605D01*
X173004421Y-123066118D01*
X172924980Y-123045215D01*
X172854533Y-123002797D01*
X172808938Y-122965213D01*
X172850005Y-122922843D01*
X172875950Y-122897742D01*
X172899418Y-122883767D01*
X172921178Y-122886844D01*
X172949010Y-122905620D01*
X172960108Y-122912971D01*
X173006991Y-122928016D01*
X173060878Y-122928006D01*
X173111329Y-122912501D01*
X173130326Y-122900049D01*
X173158191Y-122863279D01*
X173172160Y-122809272D01*
X173173059Y-122735664D01*
X173173057Y-122735622D01*
X173162663Y-122669766D01*
X173139768Y-122624105D01*
X173102093Y-122595861D01*
X173047362Y-122582253D01*
X173012895Y-122580423D01*
X172982780Y-122587917D01*
X172951894Y-122609628D01*
X172911926Y-122643259D01*
X172861310Y-122602583D01*
X172842817Y-122587000D01*
X172819719Y-122564673D01*
X172810693Y-122551516D01*
X172813890Y-122545586D01*
X172832300Y-122527381D01*
X172861627Y-122504228D01*
X172884574Y-122489163D01*
X172957428Y-122458213D01*
X173033453Y-122447406D01*
X173108063Y-122455826D01*
%TA.AperFunction,EtchedComponent*%
G36*
X173108063Y-122455826D02*
G01*
X173176675Y-122482557D01*
X173234702Y-122526684D01*
X173277561Y-122587291D01*
X173280455Y-122593470D01*
X173298830Y-122653742D01*
X173308011Y-122725740D01*
X173307939Y-122800702D01*
X173298555Y-122869869D01*
X173279803Y-122924482D01*
X173256649Y-122962545D01*
X173205684Y-123016468D01*
X173141960Y-123050744D01*
X173087439Y-123064605D01*
X173004421Y-123066118D01*
X172924980Y-123045215D01*
X172854533Y-123002797D01*
X172808938Y-122965213D01*
X172850005Y-122922843D01*
X172875950Y-122897742D01*
X172899418Y-122883767D01*
X172921178Y-122886844D01*
X172949010Y-122905620D01*
X172960108Y-122912971D01*
X173006991Y-122928016D01*
X173060878Y-122928006D01*
X173111329Y-122912501D01*
X173130326Y-122900049D01*
X173158191Y-122863279D01*
X173172160Y-122809272D01*
X173173059Y-122735664D01*
X173173057Y-122735622D01*
X173162663Y-122669766D01*
X173139768Y-122624105D01*
X173102093Y-122595861D01*
X173047362Y-122582253D01*
X173012895Y-122580423D01*
X172982780Y-122587917D01*
X172951894Y-122609628D01*
X172911926Y-122643259D01*
X172861310Y-122602583D01*
X172842817Y-122587000D01*
X172819719Y-122564673D01*
X172810693Y-122551516D01*
X172813890Y-122545586D01*
X172832300Y-122527381D01*
X172861627Y-122504228D01*
X172884574Y-122489163D01*
X172957428Y-122458213D01*
X173033453Y-122447406D01*
X173108063Y-122455826D01*
G37*
%TD.AperFunction*%
X174907511Y-122798104D02*
X174904003Y-122837898D01*
X174888498Y-122913871D01*
X174860764Y-122971844D01*
X174818552Y-123015633D01*
X174759614Y-123049055D01*
X174736730Y-123057009D01*
X174677466Y-123066934D01*
X174615101Y-123066664D01*
X174562477Y-123055763D01*
X174561443Y-123055367D01*
X174519035Y-123030420D01*
X174476191Y-122991801D01*
X174440640Y-122947639D01*
X174420113Y-122906060D01*
X174414028Y-122875667D01*
X174408818Y-122818762D01*
X174407945Y-122768038D01*
X174534630Y-122768038D01*
X174542203Y-122828878D01*
X174559995Y-122878871D01*
X174586950Y-122911537D01*
X174597167Y-122917145D01*
X174636127Y-122927340D01*
X174681190Y-122929437D01*
X174719102Y-122922353D01*
X174733898Y-122912194D01*
X174754668Y-122876667D01*
X174767737Y-122821065D01*
X174772278Y-122748099D01*
X174772205Y-122727095D01*
X174770628Y-122684536D01*
X174765382Y-122656772D01*
X174754377Y-122636258D01*
X174735522Y-122615445D01*
X174699643Y-122590220D01*
X174652934Y-122579906D01*
X174607805Y-122589729D01*
X174570334Y-122618138D01*
X174546597Y-122663586D01*
X174538329Y-122702830D01*
X174534630Y-122768038D01*
X174407945Y-122768038D01*
X174407703Y-122753954D01*
X174410498Y-122689449D01*
X174417020Y-122633454D01*
X174427086Y-122594175D01*
X174450531Y-122549705D01*
X174500291Y-122495025D01*
X174563892Y-122460388D01*
X174639444Y-122446678D01*
X174725053Y-122454781D01*
X174739298Y-122458232D01*
X174805636Y-122487997D01*
X174855625Y-122536863D01*
X174889266Y-122604834D01*
X174906560Y-122691913D01*
X174907064Y-122748099D01*
X174907511Y-122798104D01*
%TA.AperFunction,EtchedComponent*%
G36*
X174907511Y-122798104D02*
G01*
X174904003Y-122837898D01*
X174888498Y-122913871D01*
X174860764Y-122971844D01*
X174818552Y-123015633D01*
X174759614Y-123049055D01*
X174736730Y-123057009D01*
X174677466Y-123066934D01*
X174615101Y-123066664D01*
X174562477Y-123055763D01*
X174561443Y-123055367D01*
X174519035Y-123030420D01*
X174476191Y-122991801D01*
X174440640Y-122947639D01*
X174420113Y-122906060D01*
X174414028Y-122875667D01*
X174408818Y-122818762D01*
X174407945Y-122768038D01*
X174534630Y-122768038D01*
X174542203Y-122828878D01*
X174559995Y-122878871D01*
X174586950Y-122911537D01*
X174597167Y-122917145D01*
X174636127Y-122927340D01*
X174681190Y-122929437D01*
X174719102Y-122922353D01*
X174733898Y-122912194D01*
X174754668Y-122876667D01*
X174767737Y-122821065D01*
X174772278Y-122748099D01*
X174772205Y-122727095D01*
X174770628Y-122684536D01*
X174765382Y-122656772D01*
X174754377Y-122636258D01*
X174735522Y-122615445D01*
X174699643Y-122590220D01*
X174652934Y-122579906D01*
X174607805Y-122589729D01*
X174570334Y-122618138D01*
X174546597Y-122663586D01*
X174538329Y-122702830D01*
X174534630Y-122768038D01*
X174407945Y-122768038D01*
X174407703Y-122753954D01*
X174410498Y-122689449D01*
X174417020Y-122633454D01*
X174427086Y-122594175D01*
X174450531Y-122549705D01*
X174500291Y-122495025D01*
X174563892Y-122460388D01*
X174639444Y-122446678D01*
X174725053Y-122454781D01*
X174739298Y-122458232D01*
X174805636Y-122487997D01*
X174855625Y-122536863D01*
X174889266Y-122604834D01*
X174906560Y-122691913D01*
X174907064Y-122748099D01*
X174907511Y-122798104D01*
G37*
%TD.AperFunction*%
X175007651Y-123593463D02*
X175024651Y-123644183D01*
X175044761Y-123700330D01*
X175061553Y-123742865D01*
X175073640Y-123768323D01*
X175079634Y-123773236D01*
X175081080Y-123768963D01*
X175088908Y-123742755D01*
X175101377Y-123698982D01*
X175117101Y-123642544D01*
X175134697Y-123578343D01*
X175182568Y-123402304D01*
X175255661Y-123398485D01*
X175261831Y-123398179D01*
X175301246Y-123397774D01*
X175320187Y-123401820D01*
X175322599Y-123411059D01*
X175319552Y-123420082D01*
X175309528Y-123450965D01*
X175293834Y-123499877D01*
X175273588Y-123563320D01*
X175249910Y-123637795D01*
X175223917Y-123719804D01*
X175131390Y-124012155D01*
X175015647Y-124012155D01*
X174961111Y-123826685D01*
X174951040Y-123792627D01*
X174932429Y-123730711D01*
X174916526Y-123679120D01*
X174904763Y-123642463D01*
X174898572Y-123625351D01*
X174896808Y-123624074D01*
X174888225Y-123635112D01*
X174875970Y-123664302D01*
X174862080Y-123707083D01*
X174861346Y-123709596D01*
X174842750Y-123772733D01*
X174821472Y-123844222D01*
X174801975Y-123909067D01*
X174770359Y-124013455D01*
X174712056Y-124009661D01*
X174653752Y-124005868D01*
X174599752Y-123836115D01*
X174576044Y-123761526D01*
X174549487Y-123677872D01*
X174524058Y-123597675D01*
X174503008Y-123531190D01*
X174460263Y-123396016D01*
X174603266Y-123396016D01*
X174637928Y-123524903D01*
X174647142Y-123558958D01*
X174664569Y-123622448D01*
X174680708Y-123680207D01*
X174692976Y-123722947D01*
X174713363Y-123792106D01*
X174843399Y-123402304D01*
X174893130Y-123398570D01*
X174942860Y-123394837D01*
X175007651Y-123593463D01*
%TA.AperFunction,EtchedComponent*%
G36*
X175007651Y-123593463D02*
G01*
X175024651Y-123644183D01*
X175044761Y-123700330D01*
X175061553Y-123742865D01*
X175073640Y-123768323D01*
X175079634Y-123773236D01*
X175081080Y-123768963D01*
X175088908Y-123742755D01*
X175101377Y-123698982D01*
X175117101Y-123642544D01*
X175134697Y-123578343D01*
X175182568Y-123402304D01*
X175255661Y-123398485D01*
X175261831Y-123398179D01*
X175301246Y-123397774D01*
X175320187Y-123401820D01*
X175322599Y-123411059D01*
X175319552Y-123420082D01*
X175309528Y-123450965D01*
X175293834Y-123499877D01*
X175273588Y-123563320D01*
X175249910Y-123637795D01*
X175223917Y-123719804D01*
X175131390Y-124012155D01*
X175015647Y-124012155D01*
X174961111Y-123826685D01*
X174951040Y-123792627D01*
X174932429Y-123730711D01*
X174916526Y-123679120D01*
X174904763Y-123642463D01*
X174898572Y-123625351D01*
X174896808Y-123624074D01*
X174888225Y-123635112D01*
X174875970Y-123664302D01*
X174862080Y-123707083D01*
X174861346Y-123709596D01*
X174842750Y-123772733D01*
X174821472Y-123844222D01*
X174801975Y-123909067D01*
X174770359Y-124013455D01*
X174712056Y-124009661D01*
X174653752Y-124005868D01*
X174599752Y-123836115D01*
X174576044Y-123761526D01*
X174549487Y-123677872D01*
X174524058Y-123597675D01*
X174503008Y-123531190D01*
X174460263Y-123396016D01*
X174603266Y-123396016D01*
X174637928Y-123524903D01*
X174647142Y-123558958D01*
X174664569Y-123622448D01*
X174680708Y-123680207D01*
X174692976Y-123722947D01*
X174713363Y-123792106D01*
X174843399Y-123402304D01*
X174893130Y-123398570D01*
X174942860Y-123394837D01*
X175007651Y-123593463D01*
G37*
%TD.AperFunction*%
X175865415Y-123751146D02*
X175863821Y-123804904D01*
X175860616Y-123842351D01*
X175860067Y-123845783D01*
X175838492Y-123907168D01*
X175799092Y-123959210D01*
X175747406Y-123994468D01*
X175691902Y-124009062D01*
X175623631Y-124007930D01*
X175560827Y-123988362D01*
X175544469Y-123980104D01*
X175523433Y-123971256D01*
X175515428Y-123974009D01*
X175514159Y-123988362D01*
X175513576Y-123995519D01*
X175506048Y-124006105D01*
X175485142Y-124010978D01*
X175445000Y-124012155D01*
X175375842Y-124012155D01*
X175375842Y-123710263D01*
X175514159Y-123710263D01*
X175515150Y-123762563D01*
X175519173Y-123797383D01*
X175527762Y-123821238D01*
X175542451Y-123841228D01*
X175581238Y-123870951D01*
X175626628Y-123880915D01*
X175670643Y-123868593D01*
X175707714Y-123834221D01*
X175717513Y-123809068D01*
X175724751Y-123764527D01*
X175727933Y-123710488D01*
X175726931Y-123655061D01*
X175721615Y-123606355D01*
X175711858Y-123572481D01*
X175708741Y-123566926D01*
X175678692Y-123539007D01*
X175637969Y-123526639D01*
X175594233Y-123529516D01*
X175555145Y-123547333D01*
X175528364Y-123579785D01*
X175527257Y-123582514D01*
X175520617Y-123612967D01*
X175515932Y-123658472D01*
X175514159Y-123710263D01*
X175375842Y-123710263D01*
X175375842Y-123157106D01*
X175514159Y-123157106D01*
X175514159Y-123450211D01*
X175539778Y-123427026D01*
X175564446Y-123412615D01*
X175611134Y-123400569D01*
X175665710Y-123396687D01*
X175719008Y-123401453D01*
X175761861Y-123415347D01*
X175792532Y-123435112D01*
X175824125Y-123468782D01*
X175845387Y-123514063D01*
X175858168Y-123575314D01*
X175864318Y-123656896D01*
X175865222Y-123689873D01*
X175865287Y-123710488D01*
X175865415Y-123751146D01*
%TA.AperFunction,EtchedComponent*%
G36*
X175865415Y-123751146D02*
G01*
X175863821Y-123804904D01*
X175860616Y-123842351D01*
X175860067Y-123845783D01*
X175838492Y-123907168D01*
X175799092Y-123959210D01*
X175747406Y-123994468D01*
X175691902Y-124009062D01*
X175623631Y-124007930D01*
X175560827Y-123988362D01*
X175544469Y-123980104D01*
X175523433Y-123971256D01*
X175515428Y-123974009D01*
X175514159Y-123988362D01*
X175513576Y-123995519D01*
X175506048Y-124006105D01*
X175485142Y-124010978D01*
X175445000Y-124012155D01*
X175375842Y-124012155D01*
X175375842Y-123710263D01*
X175514159Y-123710263D01*
X175515150Y-123762563D01*
X175519173Y-123797383D01*
X175527762Y-123821238D01*
X175542451Y-123841228D01*
X175581238Y-123870951D01*
X175626628Y-123880915D01*
X175670643Y-123868593D01*
X175707714Y-123834221D01*
X175717513Y-123809068D01*
X175724751Y-123764527D01*
X175727933Y-123710488D01*
X175726931Y-123655061D01*
X175721615Y-123606355D01*
X175711858Y-123572481D01*
X175708741Y-123566926D01*
X175678692Y-123539007D01*
X175637969Y-123526639D01*
X175594233Y-123529516D01*
X175555145Y-123547333D01*
X175528364Y-123579785D01*
X175527257Y-123582514D01*
X175520617Y-123612967D01*
X175515932Y-123658472D01*
X175514159Y-123710263D01*
X175375842Y-123710263D01*
X175375842Y-123157106D01*
X175514159Y-123157106D01*
X175514159Y-123450211D01*
X175539778Y-123427026D01*
X175564446Y-123412615D01*
X175611134Y-123400569D01*
X175665710Y-123396687D01*
X175719008Y-123401453D01*
X175761861Y-123415347D01*
X175792532Y-123435112D01*
X175824125Y-123468782D01*
X175845387Y-123514063D01*
X175858168Y-123575314D01*
X175864318Y-123656896D01*
X175865222Y-123689873D01*
X175865287Y-123710488D01*
X175865415Y-123751146D01*
G37*
%TD.AperFunction*%
X178039651Y-122789264D02*
X178038027Y-122828643D01*
X178034342Y-122876665D01*
X178028064Y-122910701D01*
X178017698Y-122937671D01*
X178001746Y-122964491D01*
X178001066Y-122965508D01*
X177961786Y-123008962D01*
X177913726Y-123042105D01*
X177857839Y-123061772D01*
X177784320Y-123068157D01*
X177712263Y-123055601D01*
X177647855Y-123025344D01*
X177597281Y-122978627D01*
X177582762Y-122956554D01*
X177555647Y-122887935D01*
X177542200Y-122803272D01*
X177542430Y-122781856D01*
X177677574Y-122781856D01*
X177677828Y-122821907D01*
X177682075Y-122848646D01*
X177691750Y-122869192D01*
X177708292Y-122890664D01*
X177731247Y-122911972D01*
X177777159Y-122930986D01*
X177826456Y-122927455D01*
X177873571Y-122901027D01*
X177886861Y-122888405D01*
X177901051Y-122866798D01*
X177908920Y-122836427D01*
X177913380Y-122789103D01*
X177914609Y-122753552D01*
X177907878Y-122680953D01*
X177887221Y-122628975D01*
X177852548Y-122597332D01*
X177811903Y-122582180D01*
X177763431Y-122583456D01*
X177718499Y-122609036D01*
X177707757Y-122618775D01*
X177694202Y-122635813D01*
X177686159Y-122658105D01*
X177681697Y-122692280D01*
X177678882Y-122744971D01*
X177677574Y-122781856D01*
X177542430Y-122781856D01*
X177543237Y-122706684D01*
X177544561Y-122692984D01*
X177563028Y-122605241D01*
X177597194Y-122537126D01*
X177647133Y-122488564D01*
X177712915Y-122459481D01*
X177794615Y-122449804D01*
X177825482Y-122450712D01*
X177888782Y-122461826D01*
X177940543Y-122488354D01*
X177988801Y-122533769D01*
X177996519Y-122542884D01*
X178017335Y-122573581D01*
X178031016Y-122608340D01*
X178038602Y-122652389D01*
X178041133Y-122710954D01*
X178040326Y-122753552D01*
X178039651Y-122789264D01*
%TA.AperFunction,EtchedComponent*%
G36*
X178039651Y-122789264D02*
G01*
X178038027Y-122828643D01*
X178034342Y-122876665D01*
X178028064Y-122910701D01*
X178017698Y-122937671D01*
X178001746Y-122964491D01*
X178001066Y-122965508D01*
X177961786Y-123008962D01*
X177913726Y-123042105D01*
X177857839Y-123061772D01*
X177784320Y-123068157D01*
X177712263Y-123055601D01*
X177647855Y-123025344D01*
X177597281Y-122978627D01*
X177582762Y-122956554D01*
X177555647Y-122887935D01*
X177542200Y-122803272D01*
X177542430Y-122781856D01*
X177677574Y-122781856D01*
X177677828Y-122821907D01*
X177682075Y-122848646D01*
X177691750Y-122869192D01*
X177708292Y-122890664D01*
X177731247Y-122911972D01*
X177777159Y-122930986D01*
X177826456Y-122927455D01*
X177873571Y-122901027D01*
X177886861Y-122888405D01*
X177901051Y-122866798D01*
X177908920Y-122836427D01*
X177913380Y-122789103D01*
X177914609Y-122753552D01*
X177907878Y-122680953D01*
X177887221Y-122628975D01*
X177852548Y-122597332D01*
X177811903Y-122582180D01*
X177763431Y-122583456D01*
X177718499Y-122609036D01*
X177707757Y-122618775D01*
X177694202Y-122635813D01*
X177686159Y-122658105D01*
X177681697Y-122692280D01*
X177678882Y-122744971D01*
X177677574Y-122781856D01*
X177542430Y-122781856D01*
X177543237Y-122706684D01*
X177544561Y-122692984D01*
X177563028Y-122605241D01*
X177597194Y-122537126D01*
X177647133Y-122488564D01*
X177712915Y-122459481D01*
X177794615Y-122449804D01*
X177825482Y-122450712D01*
X177888782Y-122461826D01*
X177940543Y-122488354D01*
X177988801Y-122533769D01*
X177996519Y-122542884D01*
X178017335Y-122573581D01*
X178031016Y-122608340D01*
X178038602Y-122652389D01*
X178041133Y-122710954D01*
X178040326Y-122753552D01*
X178039651Y-122789264D01*
G37*
%TD.AperFunction*%
X172794098Y-122714211D02*
X172792479Y-122810454D01*
X172792269Y-122812347D01*
X172774189Y-122900658D01*
X172741524Y-122969319D01*
X172693255Y-123019839D01*
X172628367Y-123053726D01*
X172616455Y-123057601D01*
X172542625Y-123069021D01*
X172466268Y-123062653D01*
X172395280Y-123039896D01*
X172337558Y-123002152D01*
X172294321Y-122962205D01*
X172340279Y-122925865D01*
X172386237Y-122889526D01*
X172441623Y-122916434D01*
X172505710Y-122938238D01*
X172562286Y-122938891D01*
X172608574Y-122918858D01*
X172641884Y-122878648D01*
X172653825Y-122854555D01*
X172660491Y-122833963D01*
X172656634Y-122820053D01*
X172639329Y-122811514D01*
X172605651Y-122807037D01*
X172552675Y-122805311D01*
X172477476Y-122805026D01*
X172295149Y-122805026D01*
X172295149Y-122717825D01*
X172296511Y-122679543D01*
X172424888Y-122679543D01*
X172431053Y-122686584D01*
X172449308Y-122690249D01*
X172484006Y-122691639D01*
X172539500Y-122691858D01*
X172569257Y-122691509D01*
X172616216Y-122689200D01*
X172648070Y-122685155D01*
X172659802Y-122679875D01*
X172656800Y-122660395D01*
X172635642Y-122623119D01*
X172600385Y-122592497D01*
X172558353Y-122574001D01*
X172516874Y-122573106D01*
X172485651Y-122587937D01*
X172450272Y-122621688D01*
X172427776Y-122663566D01*
X172426459Y-122668023D01*
X172424888Y-122679543D01*
X172296511Y-122679543D01*
X172296790Y-122671704D01*
X172301609Y-122626073D01*
X172308494Y-122595226D01*
X172313513Y-122583450D01*
X172350044Y-122531000D01*
X172402829Y-122487254D01*
X172464558Y-122458612D01*
X172496756Y-122450790D01*
X172573474Y-122447229D01*
X172641833Y-122465342D01*
X172699953Y-122503112D01*
X172745956Y-122558524D01*
X172777964Y-122629562D01*
X172787554Y-122679875D01*
X172794098Y-122714211D01*
%TA.AperFunction,EtchedComponent*%
G36*
X172794098Y-122714211D02*
G01*
X172792479Y-122810454D01*
X172792269Y-122812347D01*
X172774189Y-122900658D01*
X172741524Y-122969319D01*
X172693255Y-123019839D01*
X172628367Y-123053726D01*
X172616455Y-123057601D01*
X172542625Y-123069021D01*
X172466268Y-123062653D01*
X172395280Y-123039896D01*
X172337558Y-123002152D01*
X172294321Y-122962205D01*
X172340279Y-122925865D01*
X172386237Y-122889526D01*
X172441623Y-122916434D01*
X172505710Y-122938238D01*
X172562286Y-122938891D01*
X172608574Y-122918858D01*
X172641884Y-122878648D01*
X172653825Y-122854555D01*
X172660491Y-122833963D01*
X172656634Y-122820053D01*
X172639329Y-122811514D01*
X172605651Y-122807037D01*
X172552675Y-122805311D01*
X172477476Y-122805026D01*
X172295149Y-122805026D01*
X172295149Y-122717825D01*
X172296511Y-122679543D01*
X172424888Y-122679543D01*
X172431053Y-122686584D01*
X172449308Y-122690249D01*
X172484006Y-122691639D01*
X172539500Y-122691858D01*
X172569257Y-122691509D01*
X172616216Y-122689200D01*
X172648070Y-122685155D01*
X172659802Y-122679875D01*
X172656800Y-122660395D01*
X172635642Y-122623119D01*
X172600385Y-122592497D01*
X172558353Y-122574001D01*
X172516874Y-122573106D01*
X172485651Y-122587937D01*
X172450272Y-122621688D01*
X172427776Y-122663566D01*
X172426459Y-122668023D01*
X172424888Y-122679543D01*
X172296511Y-122679543D01*
X172296790Y-122671704D01*
X172301609Y-122626073D01*
X172308494Y-122595226D01*
X172313513Y-122583450D01*
X172350044Y-122531000D01*
X172402829Y-122487254D01*
X172464558Y-122458612D01*
X172496756Y-122450790D01*
X172573474Y-122447229D01*
X172641833Y-122465342D01*
X172699953Y-122503112D01*
X172745956Y-122558524D01*
X172777964Y-122629562D01*
X172787554Y-122679875D01*
X172794098Y-122714211D01*
G37*
%TD.AperFunction*%
X175273528Y-122452540D02*
X175346149Y-122470741D01*
X175399200Y-122504477D01*
X175432983Y-122553975D01*
X175447801Y-122619459D01*
X175444801Y-122682153D01*
X175423147Y-122735032D01*
X175381621Y-122774129D01*
X175319390Y-122800206D01*
X175235623Y-122814028D01*
X175181194Y-122821273D01*
X175131514Y-122836948D01*
X175105865Y-122859647D01*
X175104316Y-122889331D01*
X175114638Y-122907840D01*
X175146605Y-122929776D01*
X175192049Y-122940151D01*
X175245303Y-122938732D01*
X175300702Y-122925285D01*
X175352582Y-122899576D01*
X175404307Y-122865346D01*
X175449802Y-122911382D01*
X175495297Y-122957417D01*
X175457575Y-122988209D01*
X175442907Y-122998907D01*
X175401637Y-123023213D01*
X175356981Y-123044158D01*
X175321638Y-123056178D01*
X175269888Y-123064885D01*
X175206089Y-123065000D01*
X175127854Y-123055414D01*
X175057376Y-123031116D01*
X175007490Y-122992521D01*
X174978077Y-122939531D01*
X174969019Y-122872051D01*
X174975575Y-122812687D01*
X174996624Y-122764085D01*
X175034518Y-122729279D01*
X175091658Y-122706131D01*
X175170439Y-122692503D01*
X175179488Y-122691516D01*
X175228539Y-122685225D01*
X175268329Y-122678642D01*
X175290966Y-122673041D01*
X175298520Y-122668530D01*
X175311291Y-122645274D01*
X175309217Y-122615504D01*
X175292149Y-122589660D01*
X175283187Y-122584024D01*
X175245842Y-122574993D01*
X175197604Y-122575600D01*
X175147304Y-122585211D01*
X175103769Y-122603191D01*
X175058026Y-122630180D01*
X175022544Y-122588717D01*
X175013934Y-122578183D01*
X174994537Y-122549965D01*
X174986551Y-122530841D01*
X174994937Y-122519114D01*
X175020880Y-122500809D01*
X175058342Y-122481110D01*
X175063620Y-122478703D01*
X175113020Y-122459815D01*
X175160637Y-122450785D01*
X175219726Y-122448972D01*
X175273528Y-122452540D01*
%TA.AperFunction,EtchedComponent*%
G36*
X175273528Y-122452540D02*
G01*
X175346149Y-122470741D01*
X175399200Y-122504477D01*
X175432983Y-122553975D01*
X175447801Y-122619459D01*
X175444801Y-122682153D01*
X175423147Y-122735032D01*
X175381621Y-122774129D01*
X175319390Y-122800206D01*
X175235623Y-122814028D01*
X175181194Y-122821273D01*
X175131514Y-122836948D01*
X175105865Y-122859647D01*
X175104316Y-122889331D01*
X175114638Y-122907840D01*
X175146605Y-122929776D01*
X175192049Y-122940151D01*
X175245303Y-122938732D01*
X175300702Y-122925285D01*
X175352582Y-122899576D01*
X175404307Y-122865346D01*
X175449802Y-122911382D01*
X175495297Y-122957417D01*
X175457575Y-122988209D01*
X175442907Y-122998907D01*
X175401637Y-123023213D01*
X175356981Y-123044158D01*
X175321638Y-123056178D01*
X175269888Y-123064885D01*
X175206089Y-123065000D01*
X175127854Y-123055414D01*
X175057376Y-123031116D01*
X175007490Y-122992521D01*
X174978077Y-122939531D01*
X174969019Y-122872051D01*
X174975575Y-122812687D01*
X174996624Y-122764085D01*
X175034518Y-122729279D01*
X175091658Y-122706131D01*
X175170439Y-122692503D01*
X175179488Y-122691516D01*
X175228539Y-122685225D01*
X175268329Y-122678642D01*
X175290966Y-122673041D01*
X175298520Y-122668530D01*
X175311291Y-122645274D01*
X175309217Y-122615504D01*
X175292149Y-122589660D01*
X175283187Y-122584024D01*
X175245842Y-122574993D01*
X175197604Y-122575600D01*
X175147304Y-122585211D01*
X175103769Y-122603191D01*
X175058026Y-122630180D01*
X175022544Y-122588717D01*
X175013934Y-122578183D01*
X174994537Y-122549965D01*
X174986551Y-122530841D01*
X174994937Y-122519114D01*
X175020880Y-122500809D01*
X175058342Y-122481110D01*
X175063620Y-122478703D01*
X175113020Y-122459815D01*
X175160637Y-122450785D01*
X175219726Y-122448972D01*
X175273528Y-122452540D01*
G37*
%TD.AperFunction*%
X173439007Y-123704086D02*
X173437372Y-123751025D01*
X173422481Y-123840792D01*
X173391839Y-123911378D01*
X173345178Y-123963285D01*
X173282228Y-123997019D01*
X173261889Y-124002980D01*
X173189266Y-124011304D01*
X173112582Y-124004279D01*
X173043317Y-123982598D01*
X173018916Y-123970292D01*
X172983929Y-123949212D01*
X172962726Y-123931867D01*
X172959596Y-123927904D01*
X172953739Y-123913410D01*
X172962178Y-123897654D01*
X172987875Y-123873793D01*
X173000276Y-123863405D01*
X173024706Y-123844396D01*
X173037515Y-123836626D01*
X173041184Y-123837427D01*
X173062215Y-123846078D01*
X173093614Y-123861264D01*
X173103851Y-123866259D01*
X173164244Y-123884808D01*
X173216711Y-123880027D01*
X173262719Y-123851833D01*
X173268073Y-123846624D01*
X173293667Y-123813992D01*
X173308291Y-123782675D01*
X173316390Y-123748096D01*
X172936436Y-123748096D01*
X172936506Y-123682081D01*
X172936546Y-123675515D01*
X172941676Y-123622551D01*
X173074753Y-123622551D01*
X173076324Y-123633536D01*
X173084392Y-123641106D01*
X173103621Y-123645308D01*
X173138673Y-123647116D01*
X173194208Y-123647502D01*
X173225083Y-123647101D01*
X173270656Y-123644762D01*
X173302002Y-123640798D01*
X173313664Y-123635746D01*
X173303718Y-123594160D01*
X173274601Y-123555346D01*
X173232606Y-123528419D01*
X173184094Y-123519105D01*
X173148377Y-123529605D01*
X173112674Y-123555273D01*
X173085533Y-123588714D01*
X173074753Y-123622551D01*
X172941676Y-123622551D01*
X172944412Y-123594298D01*
X172967309Y-123528228D01*
X173007261Y-123471273D01*
X173031633Y-123447181D01*
X173081969Y-123414930D01*
X173142073Y-123399303D01*
X173217992Y-123398204D01*
X173254664Y-123402512D01*
X173322357Y-123424882D01*
X173374184Y-123465596D01*
X173410599Y-123525282D01*
X173432055Y-123604569D01*
X173434233Y-123635746D01*
X173439007Y-123704086D01*
%TA.AperFunction,EtchedComponent*%
G36*
X173439007Y-123704086D02*
G01*
X173437372Y-123751025D01*
X173422481Y-123840792D01*
X173391839Y-123911378D01*
X173345178Y-123963285D01*
X173282228Y-123997019D01*
X173261889Y-124002980D01*
X173189266Y-124011304D01*
X173112582Y-124004279D01*
X173043317Y-123982598D01*
X173018916Y-123970292D01*
X172983929Y-123949212D01*
X172962726Y-123931867D01*
X172959596Y-123927904D01*
X172953739Y-123913410D01*
X172962178Y-123897654D01*
X172987875Y-123873793D01*
X173000276Y-123863405D01*
X173024706Y-123844396D01*
X173037515Y-123836626D01*
X173041184Y-123837427D01*
X173062215Y-123846078D01*
X173093614Y-123861264D01*
X173103851Y-123866259D01*
X173164244Y-123884808D01*
X173216711Y-123880027D01*
X173262719Y-123851833D01*
X173268073Y-123846624D01*
X173293667Y-123813992D01*
X173308291Y-123782675D01*
X173316390Y-123748096D01*
X172936436Y-123748096D01*
X172936506Y-123682081D01*
X172936546Y-123675515D01*
X172941676Y-123622551D01*
X173074753Y-123622551D01*
X173076324Y-123633536D01*
X173084392Y-123641106D01*
X173103621Y-123645308D01*
X173138673Y-123647116D01*
X173194208Y-123647502D01*
X173225083Y-123647101D01*
X173270656Y-123644762D01*
X173302002Y-123640798D01*
X173313664Y-123635746D01*
X173303718Y-123594160D01*
X173274601Y-123555346D01*
X173232606Y-123528419D01*
X173184094Y-123519105D01*
X173148377Y-123529605D01*
X173112674Y-123555273D01*
X173085533Y-123588714D01*
X173074753Y-123622551D01*
X172941676Y-123622551D01*
X172944412Y-123594298D01*
X172967309Y-123528228D01*
X173007261Y-123471273D01*
X173031633Y-123447181D01*
X173081969Y-123414930D01*
X173142073Y-123399303D01*
X173217992Y-123398204D01*
X173254664Y-123402512D01*
X173322357Y-123424882D01*
X173374184Y-123465596D01*
X173410599Y-123525282D01*
X173432055Y-123604569D01*
X173434233Y-123635746D01*
X173439007Y-123704086D01*
G37*
%TD.AperFunction*%
X176881676Y-122679194D02*
X176886075Y-122767269D01*
X176884976Y-122805704D01*
X176872580Y-122889700D01*
X176845262Y-122955928D01*
X176801595Y-123007117D01*
X176740149Y-123045996D01*
X176680542Y-123064145D01*
X176605764Y-123067617D01*
X176530318Y-123054263D01*
X176463020Y-123024758D01*
X176438082Y-123008345D01*
X176410605Y-122987306D01*
X176398068Y-122973462D01*
X176398778Y-122967750D01*
X176412812Y-122948288D01*
X176439187Y-122924709D01*
X176484894Y-122889846D01*
X176538453Y-122916595D01*
X176552936Y-122923215D01*
X176595570Y-122937606D01*
X176631303Y-122943343D01*
X176657652Y-122938615D01*
X176699001Y-122915847D01*
X176733758Y-122880503D01*
X176753637Y-122839606D01*
X176761737Y-122805026D01*
X176381783Y-122805026D01*
X176381853Y-122739012D01*
X176382428Y-122718090D01*
X176386626Y-122673195D01*
X176520099Y-122673195D01*
X176520344Y-122675767D01*
X176527258Y-122683776D01*
X176546795Y-122688697D01*
X176583121Y-122691176D01*
X176640402Y-122691858D01*
X176659229Y-122691850D01*
X176708124Y-122691398D01*
X176737517Y-122689446D01*
X176751769Y-122684891D01*
X176755236Y-122676632D01*
X176752279Y-122663566D01*
X176751827Y-122662085D01*
X176726353Y-122616618D01*
X176686193Y-122585314D01*
X176638305Y-122573660D01*
X176620603Y-122574592D01*
X176587748Y-122585741D01*
X176556229Y-122614096D01*
X176547739Y-122624122D01*
X176527990Y-122652756D01*
X176520099Y-122673195D01*
X176386626Y-122673195D01*
X176387166Y-122667424D01*
X176395113Y-122625499D01*
X176403822Y-122602029D01*
X176434444Y-122550979D01*
X176475453Y-122504616D01*
X176518822Y-122472847D01*
X176531353Y-122466947D01*
X176604315Y-122447379D01*
X176678822Y-122449442D01*
X176748871Y-122472264D01*
X176808461Y-122514972D01*
X176840692Y-122554358D01*
X176867046Y-122609843D01*
X176881136Y-122676632D01*
X176881676Y-122679194D01*
%TA.AperFunction,EtchedComponent*%
G36*
X176881676Y-122679194D02*
G01*
X176886075Y-122767269D01*
X176884976Y-122805704D01*
X176872580Y-122889700D01*
X176845262Y-122955928D01*
X176801595Y-123007117D01*
X176740149Y-123045996D01*
X176680542Y-123064145D01*
X176605764Y-123067617D01*
X176530318Y-123054263D01*
X176463020Y-123024758D01*
X176438082Y-123008345D01*
X176410605Y-122987306D01*
X176398068Y-122973462D01*
X176398778Y-122967750D01*
X176412812Y-122948288D01*
X176439187Y-122924709D01*
X176484894Y-122889846D01*
X176538453Y-122916595D01*
X176552936Y-122923215D01*
X176595570Y-122937606D01*
X176631303Y-122943343D01*
X176657652Y-122938615D01*
X176699001Y-122915847D01*
X176733758Y-122880503D01*
X176753637Y-122839606D01*
X176761737Y-122805026D01*
X176381783Y-122805026D01*
X176381853Y-122739012D01*
X176382428Y-122718090D01*
X176386626Y-122673195D01*
X176520099Y-122673195D01*
X176520344Y-122675767D01*
X176527258Y-122683776D01*
X176546795Y-122688697D01*
X176583121Y-122691176D01*
X176640402Y-122691858D01*
X176659229Y-122691850D01*
X176708124Y-122691398D01*
X176737517Y-122689446D01*
X176751769Y-122684891D01*
X176755236Y-122676632D01*
X176752279Y-122663566D01*
X176751827Y-122662085D01*
X176726353Y-122616618D01*
X176686193Y-122585314D01*
X176638305Y-122573660D01*
X176620603Y-122574592D01*
X176587748Y-122585741D01*
X176556229Y-122614096D01*
X176547739Y-122624122D01*
X176527990Y-122652756D01*
X176520099Y-122673195D01*
X176386626Y-122673195D01*
X176387166Y-122667424D01*
X176395113Y-122625499D01*
X176403822Y-122602029D01*
X176434444Y-122550979D01*
X176475453Y-122504616D01*
X176518822Y-122472847D01*
X176531353Y-122466947D01*
X176604315Y-122447379D01*
X176678822Y-122449442D01*
X176748871Y-122472264D01*
X176808461Y-122514972D01*
X176840692Y-122554358D01*
X176867046Y-122609843D01*
X176881136Y-122676632D01*
X176881676Y-122679194D01*
G37*
%TD.AperFunction*%
X174464067Y-123846666D02*
X174448898Y-123903752D01*
X174415931Y-123952588D01*
X174365924Y-123987719D01*
X174361016Y-123989854D01*
X174306300Y-124005236D01*
X174244647Y-124011232D01*
X174186030Y-124007566D01*
X174140421Y-123993962D01*
X174122203Y-123985087D01*
X174108833Y-123982970D01*
X174105842Y-123994039D01*
X174100178Y-124004275D01*
X174078261Y-124010371D01*
X174035722Y-124012155D01*
X173965602Y-124012155D01*
X173969707Y-123770101D01*
X173970146Y-123748096D01*
X174105842Y-123748096D01*
X174105842Y-123792106D01*
X174110578Y-123824999D01*
X174130990Y-123861264D01*
X174138525Y-123867930D01*
X174169407Y-123881953D01*
X174215867Y-123885561D01*
X174243744Y-123884152D01*
X174295909Y-123873537D01*
X174328241Y-123853758D01*
X174339146Y-123826157D01*
X174327028Y-123792076D01*
X174319958Y-123783157D01*
X174288378Y-123763151D01*
X174238398Y-123751728D01*
X174167141Y-123748096D01*
X174105842Y-123748096D01*
X173970146Y-123748096D01*
X173970823Y-123714127D01*
X173973760Y-123630329D01*
X173978712Y-123566253D01*
X173986656Y-123518406D01*
X173998571Y-123483295D01*
X174015434Y-123457426D01*
X174038226Y-123437307D01*
X174067923Y-123419443D01*
X174083243Y-123412623D01*
X174136243Y-123399750D01*
X174200167Y-123394428D01*
X174266256Y-123396560D01*
X174325753Y-123406047D01*
X174369901Y-123422794D01*
X174385258Y-123432518D01*
X174420614Y-123461338D01*
X174432580Y-123485470D01*
X174429674Y-123490133D01*
X174411563Y-123506421D01*
X174382326Y-123528150D01*
X174367379Y-123538320D01*
X174341924Y-123552730D01*
X174325382Y-123554106D01*
X174310024Y-123544160D01*
X174271748Y-123524017D01*
X174220244Y-123515733D01*
X174167611Y-123522075D01*
X174166615Y-123522363D01*
X174129492Y-123538491D01*
X174111117Y-123563738D01*
X174106034Y-123605491D01*
X174105842Y-123645212D01*
X174237077Y-123649501D01*
X174257985Y-123650206D01*
X174310697Y-123652659D01*
X174346035Y-123656513D01*
X174369921Y-123663211D01*
X174388278Y-123674197D01*
X174407030Y-123690913D01*
X174437991Y-123729577D01*
X174460683Y-123786789D01*
X174462908Y-123826157D01*
X174464067Y-123846666D01*
%TA.AperFunction,EtchedComponent*%
G36*
X174464067Y-123846666D02*
G01*
X174448898Y-123903752D01*
X174415931Y-123952588D01*
X174365924Y-123987719D01*
X174361016Y-123989854D01*
X174306300Y-124005236D01*
X174244647Y-124011232D01*
X174186030Y-124007566D01*
X174140421Y-123993962D01*
X174122203Y-123985087D01*
X174108833Y-123982970D01*
X174105842Y-123994039D01*
X174100178Y-124004275D01*
X174078261Y-124010371D01*
X174035722Y-124012155D01*
X173965602Y-124012155D01*
X173969707Y-123770101D01*
X173970146Y-123748096D01*
X174105842Y-123748096D01*
X174105842Y-123792106D01*
X174110578Y-123824999D01*
X174130990Y-123861264D01*
X174138525Y-123867930D01*
X174169407Y-123881953D01*
X174215867Y-123885561D01*
X174243744Y-123884152D01*
X174295909Y-123873537D01*
X174328241Y-123853758D01*
X174339146Y-123826157D01*
X174327028Y-123792076D01*
X174319958Y-123783157D01*
X174288378Y-123763151D01*
X174238398Y-123751728D01*
X174167141Y-123748096D01*
X174105842Y-123748096D01*
X173970146Y-123748096D01*
X173970823Y-123714127D01*
X173973760Y-123630329D01*
X173978712Y-123566253D01*
X173986656Y-123518406D01*
X173998571Y-123483295D01*
X174015434Y-123457426D01*
X174038226Y-123437307D01*
X174067923Y-123419443D01*
X174083243Y-123412623D01*
X174136243Y-123399750D01*
X174200167Y-123394428D01*
X174266256Y-123396560D01*
X174325753Y-123406047D01*
X174369901Y-123422794D01*
X174385258Y-123432518D01*
X174420614Y-123461338D01*
X174432580Y-123485470D01*
X174429674Y-123490133D01*
X174411563Y-123506421D01*
X174382326Y-123528150D01*
X174367379Y-123538320D01*
X174341924Y-123552730D01*
X174325382Y-123554106D01*
X174310024Y-123544160D01*
X174271748Y-123524017D01*
X174220244Y-123515733D01*
X174167611Y-123522075D01*
X174166615Y-123522363D01*
X174129492Y-123538491D01*
X174111117Y-123563738D01*
X174106034Y-123605491D01*
X174105842Y-123645212D01*
X174237077Y-123649501D01*
X174257985Y-123650206D01*
X174310697Y-123652659D01*
X174346035Y-123656513D01*
X174369921Y-123663211D01*
X174388278Y-123674197D01*
X174407030Y-123690913D01*
X174437991Y-123729577D01*
X174460683Y-123786789D01*
X174462908Y-123826157D01*
X174464067Y-123846666D01*
G37*
%TD.AperFunction*%
X176881953Y-123844556D02*
X176881811Y-123846215D01*
X176866489Y-123910812D01*
X176832407Y-123959396D01*
X176777872Y-123994405D01*
X176749690Y-124002922D01*
X176701418Y-124009561D01*
X176648632Y-124011146D01*
X176601007Y-124007493D01*
X176568220Y-123998416D01*
X176548306Y-123991146D01*
X176528809Y-123998416D01*
X176521677Y-124002628D01*
X176493211Y-124009459D01*
X176454713Y-124012155D01*
X176394357Y-124012155D01*
X176394357Y-123768817D01*
X176394361Y-123748096D01*
X176532674Y-123748096D01*
X176532674Y-123796444D01*
X176537322Y-123833237D01*
X176555669Y-123865602D01*
X176566168Y-123872607D01*
X176603642Y-123883524D01*
X176650427Y-123886250D01*
X176696306Y-123880712D01*
X176731064Y-123866838D01*
X176748380Y-123848494D01*
X176759010Y-123815899D01*
X176749583Y-123790062D01*
X176718418Y-123767596D01*
X176668321Y-123753183D01*
X176602236Y-123748096D01*
X176532674Y-123748096D01*
X176394361Y-123748096D01*
X176394361Y-123747773D01*
X176394591Y-123668455D01*
X176395451Y-123609487D01*
X176397333Y-123566949D01*
X176400628Y-123536925D01*
X176405727Y-123515496D01*
X176413020Y-123498744D01*
X176422900Y-123482752D01*
X176454677Y-123445281D01*
X176499709Y-123416672D01*
X176558864Y-123400888D01*
X176636815Y-123396036D01*
X176639349Y-123396041D01*
X176693534Y-123398488D01*
X176742034Y-123404589D01*
X176775132Y-123413142D01*
X176784206Y-123417429D01*
X176813087Y-123435581D01*
X176839222Y-123457155D01*
X176856418Y-123476569D01*
X176858479Y-123488242D01*
X176854457Y-123491396D01*
X176810630Y-123525072D01*
X176781325Y-123544933D01*
X176761948Y-123552946D01*
X176747907Y-123551079D01*
X176734611Y-123541298D01*
X176710072Y-123529089D01*
X176668718Y-123520948D01*
X176621980Y-123518836D01*
X176579688Y-123523133D01*
X176551671Y-123534220D01*
X176550197Y-123535569D01*
X176537607Y-123560914D01*
X176532674Y-123598744D01*
X176532674Y-123647502D01*
X176648985Y-123647549D01*
X176702414Y-123648394D01*
X176747389Y-123652073D01*
X176779561Y-123659642D01*
X176805553Y-123672141D01*
X176811602Y-123675980D01*
X176855364Y-123718178D01*
X176878641Y-123773980D01*
X176880609Y-123815899D01*
X176881953Y-123844556D01*
%TA.AperFunction,EtchedComponent*%
G36*
X176881953Y-123844556D02*
G01*
X176881811Y-123846215D01*
X176866489Y-123910812D01*
X176832407Y-123959396D01*
X176777872Y-123994405D01*
X176749690Y-124002922D01*
X176701418Y-124009561D01*
X176648632Y-124011146D01*
X176601007Y-124007493D01*
X176568220Y-123998416D01*
X176548306Y-123991146D01*
X176528809Y-123998416D01*
X176521677Y-124002628D01*
X176493211Y-124009459D01*
X176454713Y-124012155D01*
X176394357Y-124012155D01*
X176394357Y-123768817D01*
X176394361Y-123748096D01*
X176532674Y-123748096D01*
X176532674Y-123796444D01*
X176537322Y-123833237D01*
X176555669Y-123865602D01*
X176566168Y-123872607D01*
X176603642Y-123883524D01*
X176650427Y-123886250D01*
X176696306Y-123880712D01*
X176731064Y-123866838D01*
X176748380Y-123848494D01*
X176759010Y-123815899D01*
X176749583Y-123790062D01*
X176718418Y-123767596D01*
X176668321Y-123753183D01*
X176602236Y-123748096D01*
X176532674Y-123748096D01*
X176394361Y-123748096D01*
X176394361Y-123747773D01*
X176394591Y-123668455D01*
X176395451Y-123609487D01*
X176397333Y-123566949D01*
X176400628Y-123536925D01*
X176405727Y-123515496D01*
X176413020Y-123498744D01*
X176422900Y-123482752D01*
X176454677Y-123445281D01*
X176499709Y-123416672D01*
X176558864Y-123400888D01*
X176636815Y-123396036D01*
X176639349Y-123396041D01*
X176693534Y-123398488D01*
X176742034Y-123404589D01*
X176775132Y-123413142D01*
X176784206Y-123417429D01*
X176813087Y-123435581D01*
X176839222Y-123457155D01*
X176856418Y-123476569D01*
X176858479Y-123488242D01*
X176854457Y-123491396D01*
X176810630Y-123525072D01*
X176781325Y-123544933D01*
X176761948Y-123552946D01*
X176747907Y-123551079D01*
X176734611Y-123541298D01*
X176710072Y-123529089D01*
X176668718Y-123520948D01*
X176621980Y-123518836D01*
X176579688Y-123523133D01*
X176551671Y-123534220D01*
X176550197Y-123535569D01*
X176537607Y-123560914D01*
X176532674Y-123598744D01*
X176532674Y-123647502D01*
X176648985Y-123647549D01*
X176702414Y-123648394D01*
X176747389Y-123652073D01*
X176779561Y-123659642D01*
X176805553Y-123672141D01*
X176811602Y-123675980D01*
X176855364Y-123718178D01*
X176878641Y-123773980D01*
X176880609Y-123815899D01*
X176881953Y-123844556D01*
G37*
%TD.AperFunction*%
X177450594Y-124013469D02*
X177384580Y-124009669D01*
X177318565Y-124005868D01*
X177315426Y-123804680D01*
X177314498Y-123755758D01*
X177311862Y-123682259D01*
X177307337Y-123628324D01*
X177300092Y-123590328D01*
X177289296Y-123564646D01*
X177274116Y-123547653D01*
X177253720Y-123535722D01*
X177215451Y-123523538D01*
X177177392Y-123528273D01*
X177137203Y-123554312D01*
X177098515Y-123586866D01*
X177098515Y-124012155D01*
X176960198Y-124012155D01*
X176960198Y-123781509D01*
X176960331Y-123709215D01*
X176961067Y-123644974D01*
X176962835Y-123597951D01*
X176966065Y-123563881D01*
X176971184Y-123538503D01*
X176978621Y-123517554D01*
X176988804Y-123496769D01*
X176991218Y-123492357D01*
X177023329Y-123449380D01*
X177060910Y-123419346D01*
X177106218Y-123403576D01*
X177166215Y-123396555D01*
X177226297Y-123400358D01*
X177275179Y-123415201D01*
X177312278Y-123434385D01*
X177312278Y-123019192D01*
X177261446Y-123045687D01*
X177240212Y-123055313D01*
X177173190Y-123068925D01*
X177106584Y-123059517D01*
X177044841Y-123028238D01*
X176992411Y-122976235D01*
X176984197Y-122964013D01*
X176976303Y-122946096D01*
X176971154Y-122921737D01*
X176968181Y-122886260D01*
X176966815Y-122834989D01*
X176966569Y-122781569D01*
X177099403Y-122781569D01*
X177099515Y-122826182D01*
X177102926Y-122855934D01*
X177110591Y-122877168D01*
X177123468Y-122896229D01*
X177139825Y-122913950D01*
X177165983Y-122927361D01*
X177205396Y-122930769D01*
X177240213Y-122927804D01*
X177274674Y-122912964D01*
X177296869Y-122882902D01*
X177308751Y-122834587D01*
X177312278Y-122764983D01*
X177311366Y-122727957D01*
X177302263Y-122658061D01*
X177283482Y-122610797D01*
X177255130Y-122586501D01*
X177226494Y-122579665D01*
X177176624Y-122582870D01*
X177134487Y-122602713D01*
X177124403Y-122611813D01*
X177113717Y-122627556D01*
X177107110Y-122650991D01*
X177103186Y-122687937D01*
X177100551Y-122744213D01*
X177099403Y-122781569D01*
X176966569Y-122781569D01*
X176966485Y-122763250D01*
X176966598Y-122730517D01*
X176968526Y-122654377D01*
X176973894Y-122597499D01*
X176984060Y-122555582D01*
X177000379Y-122524329D01*
X177024207Y-122499439D01*
X177056901Y-122476615D01*
X177083413Y-122463517D01*
X177146269Y-122449072D01*
X177212523Y-122451040D01*
X177271411Y-122469766D01*
X177296684Y-122482006D01*
X177309396Y-122483271D01*
X177312278Y-122472131D01*
X177312280Y-122471794D01*
X177318492Y-122460420D01*
X177339914Y-122454589D01*
X177381436Y-122452947D01*
X177450594Y-122452947D01*
X177450594Y-122764983D01*
X177450594Y-124013469D01*
%TA.AperFunction,EtchedComponent*%
G36*
X177450594Y-124013469D02*
G01*
X177384580Y-124009669D01*
X177318565Y-124005868D01*
X177315426Y-123804680D01*
X177314498Y-123755758D01*
X177311862Y-123682259D01*
X177307337Y-123628324D01*
X177300092Y-123590328D01*
X177289296Y-123564646D01*
X177274116Y-123547653D01*
X177253720Y-123535722D01*
X177215451Y-123523538D01*
X177177392Y-123528273D01*
X177137203Y-123554312D01*
X177098515Y-123586866D01*
X177098515Y-124012155D01*
X176960198Y-124012155D01*
X176960198Y-123781509D01*
X176960331Y-123709215D01*
X176961067Y-123644974D01*
X176962835Y-123597951D01*
X176966065Y-123563881D01*
X176971184Y-123538503D01*
X176978621Y-123517554D01*
X176988804Y-123496769D01*
X176991218Y-123492357D01*
X177023329Y-123449380D01*
X177060910Y-123419346D01*
X177106218Y-123403576D01*
X177166215Y-123396555D01*
X177226297Y-123400358D01*
X177275179Y-123415201D01*
X177312278Y-123434385D01*
X177312278Y-123019192D01*
X177261446Y-123045687D01*
X177240212Y-123055313D01*
X177173190Y-123068925D01*
X177106584Y-123059517D01*
X177044841Y-123028238D01*
X176992411Y-122976235D01*
X176984197Y-122964013D01*
X176976303Y-122946096D01*
X176971154Y-122921737D01*
X176968181Y-122886260D01*
X176966815Y-122834989D01*
X176966569Y-122781569D01*
X177099403Y-122781569D01*
X177099515Y-122826182D01*
X177102926Y-122855934D01*
X177110591Y-122877168D01*
X177123468Y-122896229D01*
X177139825Y-122913950D01*
X177165983Y-122927361D01*
X177205396Y-122930769D01*
X177240213Y-122927804D01*
X177274674Y-122912964D01*
X177296869Y-122882902D01*
X177308751Y-122834587D01*
X177312278Y-122764983D01*
X177311366Y-122727957D01*
X177302263Y-122658061D01*
X177283482Y-122610797D01*
X177255130Y-122586501D01*
X177226494Y-122579665D01*
X177176624Y-122582870D01*
X177134487Y-122602713D01*
X177124403Y-122611813D01*
X177113717Y-122627556D01*
X177107110Y-122650991D01*
X177103186Y-122687937D01*
X177100551Y-122744213D01*
X177099403Y-122781569D01*
X176966569Y-122781569D01*
X176966485Y-122763250D01*
X176966598Y-122730517D01*
X176968526Y-122654377D01*
X176973894Y-122597499D01*
X176984060Y-122555582D01*
X177000379Y-122524329D01*
X177024207Y-122499439D01*
X177056901Y-122476615D01*
X177083413Y-122463517D01*
X177146269Y-122449072D01*
X177212523Y-122451040D01*
X177271411Y-122469766D01*
X177296684Y-122482006D01*
X177309396Y-122483271D01*
X177312278Y-122472131D01*
X177312280Y-122471794D01*
X177318492Y-122460420D01*
X177339914Y-122454589D01*
X177381436Y-122452947D01*
X177450594Y-122452947D01*
X177450594Y-122764983D01*
X177450594Y-124013469D01*
G37*
%TD.AperFunction*%
X175539043Y-118284351D02*
X175595891Y-118585903D01*
X175805655Y-118672374D01*
X176015418Y-118758845D01*
X176267064Y-118587728D01*
X176316870Y-118553994D01*
X176382898Y-118509714D01*
X176440064Y-118471894D01*
X176485398Y-118442475D01*
X176515934Y-118423400D01*
X176528700Y-118416611D01*
X176536541Y-118421439D01*
X176559979Y-118441672D01*
X176595448Y-118474876D01*
X176639943Y-118518003D01*
X176690459Y-118568003D01*
X176743990Y-118621828D01*
X176797531Y-118676428D01*
X176848077Y-118728756D01*
X176892622Y-118775761D01*
X176928161Y-118814396D01*
X176951688Y-118841611D01*
X176960198Y-118854357D01*
X176958219Y-118859833D01*
X176944511Y-118884260D01*
X176919479Y-118924462D01*
X176885153Y-118977285D01*
X176843561Y-119039580D01*
X176796733Y-119108195D01*
X176771034Y-119145616D01*
X176726827Y-119210765D01*
X176688926Y-119267622D01*
X176659352Y-119313103D01*
X176640126Y-119344126D01*
X176633268Y-119357607D01*
X176633380Y-119358354D01*
X176639430Y-119375443D01*
X176653308Y-119410339D01*
X176673081Y-119458484D01*
X176696814Y-119515319D01*
X176722572Y-119576286D01*
X176748420Y-119636825D01*
X176772425Y-119692380D01*
X176792652Y-119738390D01*
X176807165Y-119770298D01*
X176814031Y-119783545D01*
X176818093Y-119784720D01*
X176842775Y-119790020D01*
X176886765Y-119798800D01*
X176946541Y-119810373D01*
X177018583Y-119824054D01*
X177099370Y-119839156D01*
X177141948Y-119847163D01*
X177220099Y-119862440D01*
X177288429Y-119876548D01*
X177343205Y-119888678D01*
X177380691Y-119898019D01*
X177397154Y-119903760D01*
X177400111Y-119909452D01*
X177405016Y-119937263D01*
X177408870Y-119983583D01*
X177411675Y-120044053D01*
X177413435Y-120114316D01*
X177414153Y-120190013D01*
X177413831Y-120266786D01*
X177412473Y-120340277D01*
X177410082Y-120406127D01*
X177406660Y-120459978D01*
X177402210Y-120497471D01*
X177396736Y-120514249D01*
X177393414Y-120516142D01*
X177368641Y-120524259D01*
X177325665Y-120534999D01*
X177269456Y-120547186D01*
X177204979Y-120559643D01*
X177183224Y-120563610D01*
X177082747Y-120582062D01*
X177003780Y-120596892D01*
X176943588Y-120608713D01*
X176899432Y-120618142D01*
X176868574Y-120625793D01*
X176848279Y-120632281D01*
X176835808Y-120638221D01*
X176828425Y-120644227D01*
X176827567Y-120645235D01*
X176815492Y-120666252D01*
X176797625Y-120704709D01*
X176775696Y-120756094D01*
X176751438Y-120815896D01*
X176726581Y-120879603D01*
X176702859Y-120942704D01*
X176682001Y-121000688D01*
X176665741Y-121049042D01*
X176655810Y-121083255D01*
X176653939Y-121098816D01*
X176655190Y-121100835D01*
X176668140Y-121120361D01*
X176692494Y-121156375D01*
X176725994Y-121205561D01*
X176766381Y-121264600D01*
X176811399Y-121330175D01*
X176823754Y-121348217D01*
X176867199Y-121412932D01*
X176904745Y-121470809D01*
X176934248Y-121518415D01*
X176953568Y-121552318D01*
X176960559Y-121569085D01*
X176959052Y-121573494D01*
X176943349Y-121595215D01*
X176912368Y-121630687D01*
X176868327Y-121677521D01*
X176813444Y-121733329D01*
X176749940Y-121795725D01*
X176713642Y-121830650D01*
X176656249Y-121885044D01*
X176606015Y-121931635D01*
X176565638Y-121967969D01*
X176537815Y-121991594D01*
X176525244Y-122000057D01*
X176516606Y-121996920D01*
X176490014Y-121982080D01*
X176451395Y-121957810D01*
X176405788Y-121927185D01*
X176373361Y-121904836D01*
X176308624Y-121860455D01*
X176239540Y-121813320D01*
X176176441Y-121770488D01*
X176052832Y-121686880D01*
X175949071Y-121742983D01*
X175924638Y-121755932D01*
X175880206Y-121778082D01*
X175845845Y-121793374D01*
X175827482Y-121799076D01*
X175821472Y-121791754D01*
X175806549Y-121763874D01*
X175784506Y-121717908D01*
X175756571Y-121656774D01*
X175723971Y-121583388D01*
X175687930Y-121500668D01*
X175649677Y-121411530D01*
X175610437Y-121318892D01*
X175571437Y-121225670D01*
X175533903Y-121134783D01*
X175499063Y-121049147D01*
X175468142Y-120971678D01*
X175442368Y-120905295D01*
X175422965Y-120852915D01*
X175411162Y-120817454D01*
X175408185Y-120801829D01*
X175408386Y-120801372D01*
X175422255Y-120786928D01*
X175451265Y-120764307D01*
X175489426Y-120738197D01*
X175501471Y-120730225D01*
X175593123Y-120654589D01*
X175668977Y-120564502D01*
X175727235Y-120463714D01*
X175766102Y-120355973D01*
X175783782Y-120245030D01*
X175778480Y-120134636D01*
X175757001Y-120036448D01*
X175718436Y-119937299D01*
X175662216Y-119848845D01*
X175585064Y-119764820D01*
X175554749Y-119737978D01*
X175456748Y-119671843D01*
X175350881Y-119627303D01*
X175240215Y-119603958D01*
X175127818Y-119601411D01*
X175016759Y-119619262D01*
X174910105Y-119657113D01*
X174810924Y-119714565D01*
X174722285Y-119791220D01*
X174647254Y-119886678D01*
X174632829Y-119910318D01*
X174583797Y-120018367D01*
X174557757Y-120130881D01*
X174554026Y-120244947D01*
X174571922Y-120357651D01*
X174610763Y-120466078D01*
X174669868Y-120567315D01*
X174748554Y-120658447D01*
X174846139Y-120736561D01*
X174849308Y-120738666D01*
X174887065Y-120765273D01*
X174915363Y-120787894D01*
X174928288Y-120801829D01*
X174926657Y-120812754D01*
X174916518Y-120844564D01*
X174898538Y-120893867D01*
X174873946Y-120957746D01*
X174843965Y-121033281D01*
X174809824Y-121117556D01*
X174772746Y-121207653D01*
X174733960Y-121300654D01*
X174694690Y-121393641D01*
X174656163Y-121483697D01*
X174619604Y-121567904D01*
X174586240Y-121643343D01*
X174557297Y-121707098D01*
X174534000Y-121756250D01*
X174517577Y-121787882D01*
X174509252Y-121799076D01*
X174502328Y-121797560D01*
X174475131Y-121786664D01*
X174434934Y-121767561D01*
X174387663Y-121742983D01*
X174283902Y-121686880D01*
X174160293Y-121770488D01*
X174123774Y-121795246D01*
X174055848Y-121841504D01*
X173988129Y-121887836D01*
X173930945Y-121927185D01*
X173899386Y-121948630D01*
X173858368Y-121975272D01*
X173827955Y-121993511D01*
X173813100Y-122000274D01*
X173806719Y-121997403D01*
X173783650Y-121979818D01*
X173748087Y-121948856D01*
X173703125Y-121907564D01*
X173651860Y-121858986D01*
X173597387Y-121806168D01*
X173542802Y-121752156D01*
X173491201Y-121699994D01*
X173445678Y-121652729D01*
X173409329Y-121613405D01*
X173385249Y-121585069D01*
X173376535Y-121570765D01*
X173377037Y-121568044D01*
X173387409Y-121545893D01*
X173409566Y-121507568D01*
X173441366Y-121456533D01*
X173480670Y-121396247D01*
X173525335Y-121330175D01*
X173537861Y-121311950D01*
X173581847Y-121247818D01*
X173620591Y-121191122D01*
X173651836Y-121145177D01*
X173673323Y-121113303D01*
X173682794Y-121098816D01*
X173683027Y-121098195D01*
X173680232Y-121080472D01*
X173669557Y-121044568D01*
X173652735Y-120994995D01*
X173631497Y-120936265D01*
X173607575Y-120872889D01*
X173582700Y-120809379D01*
X173558604Y-120750246D01*
X173537019Y-120700002D01*
X173519677Y-120663159D01*
X173508309Y-120644227D01*
X173507170Y-120643052D01*
X173499030Y-120637106D01*
X173485283Y-120631109D01*
X173463191Y-120624447D01*
X173430017Y-120616506D01*
X173383024Y-120606670D01*
X173319474Y-120594324D01*
X173236630Y-120578853D01*
X173131754Y-120559643D01*
X173110002Y-120555600D01*
X173047690Y-120543102D01*
X172995273Y-120531260D01*
X172957720Y-120521250D01*
X172939997Y-120514249D01*
X172937032Y-120508408D01*
X172932089Y-120480349D01*
X172928172Y-120433833D01*
X172925283Y-120373219D01*
X172923427Y-120302865D01*
X172922606Y-120227129D01*
X172922822Y-120150370D01*
X172924080Y-120076945D01*
X172926382Y-120011213D01*
X172929730Y-119957533D01*
X172934128Y-119920263D01*
X172939580Y-119903760D01*
X172945145Y-119901322D01*
X172972832Y-119893638D01*
X173019633Y-119882769D01*
X173081811Y-119869525D01*
X173155633Y-119854717D01*
X173237364Y-119839156D01*
X173281990Y-119830842D01*
X173358478Y-119816425D01*
X173424314Y-119803800D01*
X173475977Y-119793654D01*
X173509947Y-119786674D01*
X173522702Y-119783545D01*
X173523182Y-119782901D01*
X173531305Y-119766514D01*
X173546791Y-119732185D01*
X173567704Y-119684469D01*
X173592109Y-119627919D01*
X173618070Y-119567091D01*
X173643651Y-119506539D01*
X173666916Y-119450818D01*
X173685931Y-119404483D01*
X173698759Y-119372088D01*
X173703466Y-119358188D01*
X173701390Y-119353298D01*
X173687574Y-119330025D01*
X173662514Y-119290852D01*
X173628222Y-119238853D01*
X173586713Y-119177101D01*
X173540000Y-119108669D01*
X173514372Y-119071193D01*
X173470144Y-119005489D01*
X173432224Y-118947825D01*
X173402634Y-118901347D01*
X173383397Y-118869198D01*
X173376535Y-118854523D01*
X173381303Y-118846563D01*
X173401247Y-118822779D01*
X173433967Y-118786784D01*
X173476459Y-118741628D01*
X173525719Y-118690361D01*
X173578745Y-118636034D01*
X173632531Y-118581697D01*
X173684075Y-118530400D01*
X173730374Y-118485192D01*
X173768423Y-118449125D01*
X173795219Y-118425247D01*
X173807759Y-118416611D01*
X173814720Y-118419969D01*
X173840281Y-118435543D01*
X173881528Y-118462048D01*
X173935491Y-118497543D01*
X173999196Y-118540083D01*
X174069670Y-118587728D01*
X174321316Y-118758845D01*
X174740842Y-118585903D01*
X174797690Y-118284351D01*
X174854539Y-117982799D01*
X175482194Y-117982799D01*
X175539043Y-118284351D01*
%TA.AperFunction,EtchedComponent*%
G36*
X175539043Y-118284351D02*
G01*
X175595891Y-118585903D01*
X175805655Y-118672374D01*
X176015418Y-118758845D01*
X176267064Y-118587728D01*
X176316870Y-118553994D01*
X176382898Y-118509714D01*
X176440064Y-118471894D01*
X176485398Y-118442475D01*
X176515934Y-118423400D01*
X176528700Y-118416611D01*
X176536541Y-118421439D01*
X176559979Y-118441672D01*
X176595448Y-118474876D01*
X176639943Y-118518003D01*
X176690459Y-118568003D01*
X176743990Y-118621828D01*
X176797531Y-118676428D01*
X176848077Y-118728756D01*
X176892622Y-118775761D01*
X176928161Y-118814396D01*
X176951688Y-118841611D01*
X176960198Y-118854357D01*
X176958219Y-118859833D01*
X176944511Y-118884260D01*
X176919479Y-118924462D01*
X176885153Y-118977285D01*
X176843561Y-119039580D01*
X176796733Y-119108195D01*
X176771034Y-119145616D01*
X176726827Y-119210765D01*
X176688926Y-119267622D01*
X176659352Y-119313103D01*
X176640126Y-119344126D01*
X176633268Y-119357607D01*
X176633380Y-119358354D01*
X176639430Y-119375443D01*
X176653308Y-119410339D01*
X176673081Y-119458484D01*
X176696814Y-119515319D01*
X176722572Y-119576286D01*
X176748420Y-119636825D01*
X176772425Y-119692380D01*
X176792652Y-119738390D01*
X176807165Y-119770298D01*
X176814031Y-119783545D01*
X176818093Y-119784720D01*
X176842775Y-119790020D01*
X176886765Y-119798800D01*
X176946541Y-119810373D01*
X177018583Y-119824054D01*
X177099370Y-119839156D01*
X177141948Y-119847163D01*
X177220099Y-119862440D01*
X177288429Y-119876548D01*
X177343205Y-119888678D01*
X177380691Y-119898019D01*
X177397154Y-119903760D01*
X177400111Y-119909452D01*
X177405016Y-119937263D01*
X177408870Y-119983583D01*
X177411675Y-120044053D01*
X177413435Y-120114316D01*
X177414153Y-120190013D01*
X177413831Y-120266786D01*
X177412473Y-120340277D01*
X177410082Y-120406127D01*
X177406660Y-120459978D01*
X177402210Y-120497471D01*
X177396736Y-120514249D01*
X177393414Y-120516142D01*
X177368641Y-120524259D01*
X177325665Y-120534999D01*
X177269456Y-120547186D01*
X177204979Y-120559643D01*
X177183224Y-120563610D01*
X177082747Y-120582062D01*
X177003780Y-120596892D01*
X176943588Y-120608713D01*
X176899432Y-120618142D01*
X176868574Y-120625793D01*
X176848279Y-120632281D01*
X176835808Y-120638221D01*
X176828425Y-120644227D01*
X176827567Y-120645235D01*
X176815492Y-120666252D01*
X176797625Y-120704709D01*
X176775696Y-120756094D01*
X176751438Y-120815896D01*
X176726581Y-120879603D01*
X176702859Y-120942704D01*
X176682001Y-121000688D01*
X176665741Y-121049042D01*
X176655810Y-121083255D01*
X176653939Y-121098816D01*
X176655190Y-121100835D01*
X176668140Y-121120361D01*
X176692494Y-121156375D01*
X176725994Y-121205561D01*
X176766381Y-121264600D01*
X176811399Y-121330175D01*
X176823754Y-121348217D01*
X176867199Y-121412932D01*
X176904745Y-121470809D01*
X176934248Y-121518415D01*
X176953568Y-121552318D01*
X176960559Y-121569085D01*
X176959052Y-121573494D01*
X176943349Y-121595215D01*
X176912368Y-121630687D01*
X176868327Y-121677521D01*
X176813444Y-121733329D01*
X176749940Y-121795725D01*
X176713642Y-121830650D01*
X176656249Y-121885044D01*
X176606015Y-121931635D01*
X176565638Y-121967969D01*
X176537815Y-121991594D01*
X176525244Y-122000057D01*
X176516606Y-121996920D01*
X176490014Y-121982080D01*
X176451395Y-121957810D01*
X176405788Y-121927185D01*
X176373361Y-121904836D01*
X176308624Y-121860455D01*
X176239540Y-121813320D01*
X176176441Y-121770488D01*
X176052832Y-121686880D01*
X175949071Y-121742983D01*
X175924638Y-121755932D01*
X175880206Y-121778082D01*
X175845845Y-121793374D01*
X175827482Y-121799076D01*
X175821472Y-121791754D01*
X175806549Y-121763874D01*
X175784506Y-121717908D01*
X175756571Y-121656774D01*
X175723971Y-121583388D01*
X175687930Y-121500668D01*
X175649677Y-121411530D01*
X175610437Y-121318892D01*
X175571437Y-121225670D01*
X175533903Y-121134783D01*
X175499063Y-121049147D01*
X175468142Y-120971678D01*
X175442368Y-120905295D01*
X175422965Y-120852915D01*
X175411162Y-120817454D01*
X175408185Y-120801829D01*
X175408386Y-120801372D01*
X175422255Y-120786928D01*
X175451265Y-120764307D01*
X175489426Y-120738197D01*
X175501471Y-120730225D01*
X175593123Y-120654589D01*
X175668977Y-120564502D01*
X175727235Y-120463714D01*
X175766102Y-120355973D01*
X175783782Y-120245030D01*
X175778480Y-120134636D01*
X175757001Y-120036448D01*
X175718436Y-119937299D01*
X175662216Y-119848845D01*
X175585064Y-119764820D01*
X175554749Y-119737978D01*
X175456748Y-119671843D01*
X175350881Y-119627303D01*
X175240215Y-119603958D01*
X175127818Y-119601411D01*
X175016759Y-119619262D01*
X174910105Y-119657113D01*
X174810924Y-119714565D01*
X174722285Y-119791220D01*
X174647254Y-119886678D01*
X174632829Y-119910318D01*
X174583797Y-120018367D01*
X174557757Y-120130881D01*
X174554026Y-120244947D01*
X174571922Y-120357651D01*
X174610763Y-120466078D01*
X174669868Y-120567315D01*
X174748554Y-120658447D01*
X174846139Y-120736561D01*
X174849308Y-120738666D01*
X174887065Y-120765273D01*
X174915363Y-120787894D01*
X174928288Y-120801829D01*
X174926657Y-120812754D01*
X174916518Y-120844564D01*
X174898538Y-120893867D01*
X174873946Y-120957746D01*
X174843965Y-121033281D01*
X174809824Y-121117556D01*
X174772746Y-121207653D01*
X174733960Y-121300654D01*
X174694690Y-121393641D01*
X174656163Y-121483697D01*
X174619604Y-121567904D01*
X174586240Y-121643343D01*
X174557297Y-121707098D01*
X174534000Y-121756250D01*
X174517577Y-121787882D01*
X174509252Y-121799076D01*
X174502328Y-121797560D01*
X174475131Y-121786664D01*
X174434934Y-121767561D01*
X174387663Y-121742983D01*
X174283902Y-121686880D01*
X174160293Y-121770488D01*
X174123774Y-121795246D01*
X174055848Y-121841504D01*
X173988129Y-121887836D01*
X173930945Y-121927185D01*
X173899386Y-121948630D01*
X173858368Y-121975272D01*
X173827955Y-121993511D01*
X173813100Y-122000274D01*
X173806719Y-121997403D01*
X173783650Y-121979818D01*
X173748087Y-121948856D01*
X173703125Y-121907564D01*
X173651860Y-121858986D01*
X173597387Y-121806168D01*
X173542802Y-121752156D01*
X173491201Y-121699994D01*
X173445678Y-121652729D01*
X173409329Y-121613405D01*
X173385249Y-121585069D01*
X173376535Y-121570765D01*
X173377037Y-121568044D01*
X173387409Y-121545893D01*
X173409566Y-121507568D01*
X173441366Y-121456533D01*
X173480670Y-121396247D01*
X173525335Y-121330175D01*
X173537861Y-121311950D01*
X173581847Y-121247818D01*
X173620591Y-121191122D01*
X173651836Y-121145177D01*
X173673323Y-121113303D01*
X173682794Y-121098816D01*
X173683027Y-121098195D01*
X173680232Y-121080472D01*
X173669557Y-121044568D01*
X173652735Y-120994995D01*
X173631497Y-120936265D01*
X173607575Y-120872889D01*
X173582700Y-120809379D01*
X173558604Y-120750246D01*
X173537019Y-120700002D01*
X173519677Y-120663159D01*
X173508309Y-120644227D01*
X173507170Y-120643052D01*
X173499030Y-120637106D01*
X173485283Y-120631109D01*
X173463191Y-120624447D01*
X173430017Y-120616506D01*
X173383024Y-120606670D01*
X173319474Y-120594324D01*
X173236630Y-120578853D01*
X173131754Y-120559643D01*
X173110002Y-120555600D01*
X173047690Y-120543102D01*
X172995273Y-120531260D01*
X172957720Y-120521250D01*
X172939997Y-120514249D01*
X172937032Y-120508408D01*
X172932089Y-120480349D01*
X172928172Y-120433833D01*
X172925283Y-120373219D01*
X172923427Y-120302865D01*
X172922606Y-120227129D01*
X172922822Y-120150370D01*
X172924080Y-120076945D01*
X172926382Y-120011213D01*
X172929730Y-119957533D01*
X172934128Y-119920263D01*
X172939580Y-119903760D01*
X172945145Y-119901322D01*
X172972832Y-119893638D01*
X173019633Y-119882769D01*
X173081811Y-119869525D01*
X173155633Y-119854717D01*
X173237364Y-119839156D01*
X173281990Y-119830842D01*
X173358478Y-119816425D01*
X173424314Y-119803800D01*
X173475977Y-119793654D01*
X173509947Y-119786674D01*
X173522702Y-119783545D01*
X173523182Y-119782901D01*
X173531305Y-119766514D01*
X173546791Y-119732185D01*
X173567704Y-119684469D01*
X173592109Y-119627919D01*
X173618070Y-119567091D01*
X173643651Y-119506539D01*
X173666916Y-119450818D01*
X173685931Y-119404483D01*
X173698759Y-119372088D01*
X173703466Y-119358188D01*
X173701390Y-119353298D01*
X173687574Y-119330025D01*
X173662514Y-119290852D01*
X173628222Y-119238853D01*
X173586713Y-119177101D01*
X173540000Y-119108669D01*
X173514372Y-119071193D01*
X173470144Y-119005489D01*
X173432224Y-118947825D01*
X173402634Y-118901347D01*
X173383397Y-118869198D01*
X173376535Y-118854523D01*
X173381303Y-118846563D01*
X173401247Y-118822779D01*
X173433967Y-118786784D01*
X173476459Y-118741628D01*
X173525719Y-118690361D01*
X173578745Y-118636034D01*
X173632531Y-118581697D01*
X173684075Y-118530400D01*
X173730374Y-118485192D01*
X173768423Y-118449125D01*
X173795219Y-118425247D01*
X173807759Y-118416611D01*
X173814720Y-118419969D01*
X173840281Y-118435543D01*
X173881528Y-118462048D01*
X173935491Y-118497543D01*
X173999196Y-118540083D01*
X174069670Y-118587728D01*
X174321316Y-118758845D01*
X174740842Y-118585903D01*
X174797690Y-118284351D01*
X174854539Y-117982799D01*
X175482194Y-117982799D01*
X175539043Y-118284351D01*
G37*
%TD.AperFunction*%
%TD*%
D11*
%TO.P,Bolt2,1,BOLT*%
%TO.N,unconnected-(Bolt2-BOLT-Pad1)*%
X175000000Y-57500000D03*
%TD*%
D12*
%TO.P,J1,S1,SHIELD*%
%TO.N,GND*%
X145680000Y-118600000D03*
X145680000Y-122400000D03*
X154320000Y-118600000D03*
X154320000Y-122400000D03*
%TD*%
D13*
%TO.P,Sx70_Pogopin1,1,V+*%
%TO.N,+6V*%
X133500000Y-61200000D03*
%TO.P,Sx70_Pogopin1,2,V-*%
%TO.N,GND*%
X169500000Y-61200000D03*
%TD*%
D14*
%TO.P,S1,1*%
%TO.N,/RealBat+*%
X119500000Y-100000000D03*
D15*
%TO.P,S1,2*%
%TO.N,/BAT+*%
X119500000Y-102000000D03*
%TO.P,S1,3*%
%TO.N,unconnected-(S1-Pad3)*%
X119500000Y-104000000D03*
D16*
%TO.P,S1,S1,SHIELD*%
%TO.N,GND*%
X119500000Y-97800000D03*
%TO.P,S1,S2,SHIELD*%
X119500000Y-106200000D03*
%TD*%
D17*
%TO.P,Hole1,1,Hol*%
%TO.N,unconnected-(Hole1-Hol-Pad1)*%
X150000000Y-100000000D03*
%TD*%
D11*
%TO.P,Bolt1,1,BOLT*%
%TO.N,unconnected-(Bolt1-BOLT-Pad1)*%
X122000000Y-57500000D03*
%TD*%
D18*
%TO.N,GND*%
X156000000Y-85750000D03*
X150000000Y-116750000D03*
X155750000Y-104750000D03*
X152750000Y-88000000D03*
X144750000Y-80750000D03*
D19*
X170500000Y-101750000D03*
D18*
X148250000Y-84250000D03*
X140500000Y-96500000D03*
X135750000Y-63500000D03*
X149750000Y-78250000D03*
X167500000Y-118000000D03*
X127750000Y-94000000D03*
X129250000Y-113500000D03*
X168750000Y-114250000D03*
X153000000Y-82750000D03*
X158750000Y-97250000D03*
X125750000Y-90750000D03*
D19*
X140750000Y-113500000D03*
D18*
X156000000Y-91000000D03*
X154250000Y-106250000D03*
X141750000Y-101500000D03*
X148500000Y-110750000D03*
D19*
X170000000Y-108750000D03*
D18*
X170500000Y-114250000D03*
X120250000Y-63500000D03*
X152750000Y-110750000D03*
D19*
X172000000Y-106500000D03*
D18*
X124750000Y-63500000D03*
X172750000Y-116500000D03*
X158750000Y-104750000D03*
X166500000Y-91250000D03*
D19*
X159500000Y-116500000D03*
D18*
X173000000Y-63000000D03*
X138750000Y-68000000D03*
X119500000Y-93750000D03*
X174250000Y-107500000D03*
X120250000Y-74250000D03*
D19*
X147500000Y-114500000D03*
D18*
X169250000Y-116250000D03*
X161750000Y-91250000D03*
X129000000Y-95250000D03*
X120000000Y-110800000D03*
X121750000Y-90750000D03*
X166500000Y-98500000D03*
D19*
X132500000Y-107500000D03*
D18*
X141750000Y-98750000D03*
X121500000Y-108250000D03*
X176000000Y-116500000D03*
X159250000Y-89250000D03*
D19*
X128750000Y-107500000D03*
D18*
X131250000Y-63500000D03*
X152250000Y-122500000D03*
X169000000Y-95250000D03*
D19*
X177500000Y-113500000D03*
D18*
X134000000Y-96500000D03*
X140250000Y-76750000D03*
X147750000Y-122500000D03*
X158750000Y-93750000D03*
X154250000Y-109500000D03*
X141750000Y-104000000D03*
X129000000Y-101750000D03*
X130500000Y-112000000D03*
X166500000Y-100750000D03*
D19*
X177500000Y-115000000D03*
D18*
X129000000Y-103750000D03*
X150000000Y-122500000D03*
X142000000Y-71250000D03*
X125750000Y-97000000D03*
X144750000Y-107000000D03*
D19*
X132500000Y-103750000D03*
D18*
X158750000Y-101250000D03*
X131500000Y-67250000D03*
X120250000Y-86750000D03*
X136750000Y-96500000D03*
X134000000Y-70750000D03*
D19*
X132500000Y-110500000D03*
D18*
X123750000Y-93750000D03*
D19*
X173000000Y-104250000D03*
D18*
X135750000Y-65500000D03*
X137000000Y-74000000D03*
X120250000Y-69000000D03*
X131250000Y-95250000D03*
X120250000Y-81000000D03*
D19*
X140750000Y-110500000D03*
X152750000Y-114500000D03*
D18*
X127000000Y-108500000D03*
X145750000Y-74500000D03*
D19*
X140750000Y-107500000D03*
D18*
X125250000Y-106750000D03*
%TO.N,/BAT+*%
X140750000Y-105500000D03*
X165750000Y-112000000D03*
X135250000Y-121000000D03*
X170500000Y-111250000D03*
%TO.N,Net-(D2-K)*%
X122000000Y-119000000D03*
X134250000Y-102250000D03*
%TO.N,Net-(D3-K)*%
X137750000Y-102500000D03*
X124500000Y-119500000D03*
%TO.N,+6V*%
X175600000Y-105800000D03*
X166750000Y-102750000D03*
%TO.N,Net-(D4-K)*%
X139000000Y-99500000D03*
X129225000Y-119250000D03*
%TO.N,Net-(D5-K)*%
X139000000Y-98000000D03*
X131500000Y-119250000D03*
%TO.N,Net-(U4-SS)*%
X167500000Y-113000000D03*
X172750000Y-115000000D03*
%TO.N,Net-(CHG1-K)*%
X120250000Y-108750000D03*
X130500000Y-110500000D03*
%TO.N,Net-(STB1-K)*%
X118500000Y-116000000D03*
X124750000Y-116000000D03*
%TD*%
D20*
%TO.N,/BAT+*%
X170500000Y-111250000D02*
X166500000Y-111250000D01*
X166500000Y-111250000D02*
X165750000Y-112000000D01*
X140750000Y-105500000D02*
X139250000Y-107000000D01*
X139250000Y-107000000D02*
X139250000Y-117000000D01*
X139250000Y-117000000D02*
X135250000Y-121000000D01*
%TO.N,Net-(D2-K)*%
X127250000Y-117750000D02*
X134250000Y-110750000D01*
X122000000Y-119000000D02*
X123250000Y-117750000D01*
X123250000Y-117750000D02*
X127250000Y-117750000D01*
X134250000Y-110750000D02*
X134250000Y-102250000D01*
%TO.N,Net-(D3-K)*%
X135250000Y-105000000D02*
X137750000Y-102500000D01*
X128000000Y-118750000D02*
X135250000Y-111500000D01*
X135250000Y-111500000D02*
X135250000Y-105000000D01*
X124500000Y-119500000D02*
X125250000Y-118750000D01*
X125250000Y-118750000D02*
X128000000Y-118750000D01*
%TO.N,+6V*%
X175600000Y-105800000D02*
X173050000Y-105800000D01*
X173050000Y-105800000D02*
X170000000Y-102750000D01*
X170000000Y-102750000D02*
X166750000Y-102750000D01*
%TO.N,Net-(D4-K)*%
X139000000Y-104000000D02*
X139000000Y-99500000D01*
X129225000Y-119250000D02*
X136250000Y-112225000D01*
X136250000Y-112225000D02*
X136250000Y-106750000D01*
X136250000Y-106750000D02*
X139000000Y-104000000D01*
%TO.N,Net-(D5-K)*%
X140000000Y-99000000D02*
X139000000Y-98000000D01*
X137500000Y-107000000D02*
X140000000Y-104500000D01*
X137500000Y-113250000D02*
X137500000Y-107000000D01*
X131500000Y-119250000D02*
X137500000Y-113250000D01*
X140000000Y-104500000D02*
X140000000Y-99000000D01*
%TO.N,Net-(U4-SS)*%
X170750000Y-113000000D02*
X172750000Y-115000000D01*
X167500000Y-113000000D02*
X170750000Y-113000000D01*
%TO.N,Net-(CHG1-K)*%
X130500000Y-110500000D02*
X122000000Y-110500000D01*
X122000000Y-110500000D02*
X120250000Y-108750000D01*
%TO.N,Net-(STB1-K)*%
X118500000Y-116000000D02*
X124750000Y-116000000D01*
%TD*%
%TA.AperFunction,Conductor*%
%TO.N,GND*%
G36*
X170765931Y-58520002D02*
G01*
X170786905Y-58536905D01*
X174249998Y-61999999D01*
X174250000Y-62000000D01*
X176197810Y-62000000D01*
X176265931Y-62020002D01*
X176286905Y-62036905D01*
X179963095Y-65713095D01*
X179997121Y-65775407D01*
X180000000Y-65802190D01*
X180000000Y-124874000D01*
X179979998Y-124942121D01*
X179926342Y-124988614D01*
X179874000Y-125000000D01*
X138626000Y-125000000D01*
X138557879Y-124979998D01*
X138511386Y-124926342D01*
X138500000Y-124874000D01*
X138500000Y-121995792D01*
X144622000Y-121995792D01*
X144622000Y-122146000D01*
X145380000Y-122146000D01*
X145380000Y-122654000D01*
X144622000Y-122654000D01*
X144622000Y-122804207D01*
X144662659Y-123008607D01*
X144662660Y-123008610D01*
X144742413Y-123201151D01*
X144858195Y-123374431D01*
X144858200Y-123374438D01*
X145005561Y-123521799D01*
X145005568Y-123521804D01*
X145178848Y-123637586D01*
X145371387Y-123717338D01*
X145371392Y-123717340D01*
X145426000Y-123728202D01*
X145426000Y-122860060D01*
X145439940Y-122884205D01*
X145495795Y-122940060D01*
X145564204Y-122979556D01*
X145640504Y-123000000D01*
X145719496Y-123000000D01*
X145795796Y-122979556D01*
X145864205Y-122940060D01*
X145920060Y-122884205D01*
X145934000Y-122860060D01*
X145934000Y-123728201D01*
X145988607Y-123717340D01*
X145988612Y-123717338D01*
X146181151Y-123637586D01*
X146354431Y-123521804D01*
X146354438Y-123521799D01*
X146501799Y-123374438D01*
X146501804Y-123374431D01*
X146617586Y-123201151D01*
X146697339Y-123008610D01*
X146697340Y-123008607D01*
X146737999Y-122804207D01*
X146738000Y-122804204D01*
X146738000Y-122654000D01*
X145980000Y-122654000D01*
X145980000Y-122146000D01*
X146738000Y-122146000D01*
X146738000Y-121995795D01*
X146737999Y-121995792D01*
X153262000Y-121995792D01*
X153262000Y-122146000D01*
X154020000Y-122146000D01*
X154020000Y-122654000D01*
X153262000Y-122654000D01*
X153262000Y-122804207D01*
X153302659Y-123008607D01*
X153302660Y-123008610D01*
X153382413Y-123201151D01*
X153498195Y-123374431D01*
X153498200Y-123374438D01*
X153645561Y-123521799D01*
X153645568Y-123521804D01*
X153818848Y-123637586D01*
X154011387Y-123717338D01*
X154011392Y-123717340D01*
X154066000Y-123728202D01*
X154066000Y-122860060D01*
X154079940Y-122884205D01*
X154135795Y-122940060D01*
X154204204Y-122979556D01*
X154280504Y-123000000D01*
X154359496Y-123000000D01*
X154435796Y-122979556D01*
X154504205Y-122940060D01*
X154560060Y-122884205D01*
X154574000Y-122860060D01*
X154574000Y-123728201D01*
X154628607Y-123717340D01*
X154628612Y-123717338D01*
X154821151Y-123637586D01*
X154994431Y-123521804D01*
X154994438Y-123521799D01*
X155141799Y-123374438D01*
X155141804Y-123374431D01*
X155257586Y-123201151D01*
X155337339Y-123008610D01*
X155337340Y-123008607D01*
X155346015Y-122964995D01*
X171775828Y-122964995D01*
X171795807Y-123104774D01*
X171795810Y-123104783D01*
X171852759Y-123233986D01*
X171852762Y-123233991D01*
X171942459Y-123343040D01*
X171942461Y-123343042D01*
X171942462Y-123343043D01*
X171985699Y-123382990D01*
X172053795Y-123436111D01*
X172111517Y-123473855D01*
X172111520Y-123473856D01*
X172111521Y-123473857D01*
X172111526Y-123473860D01*
X172181160Y-123507039D01*
X172236996Y-123533645D01*
X172265136Y-123542666D01*
X172307977Y-123556400D01*
X172307979Y-123556400D01*
X172307984Y-123556402D01*
X172316630Y-123558125D01*
X172379526Y-123591053D01*
X172414638Y-123652759D01*
X172418005Y-123681827D01*
X172417936Y-123747546D01*
X172417936Y-123747553D01*
X172428779Y-123853583D01*
X172428781Y-123853588D01*
X172432747Y-123864748D01*
X172439980Y-123910183D01*
X172438420Y-123970768D01*
X172473004Y-124107669D01*
X172473006Y-124107673D01*
X172478863Y-124122167D01*
X172481085Y-124127576D01*
X172552700Y-124249273D01*
X172552704Y-124249278D01*
X172552706Y-124249281D01*
X172555822Y-124253227D01*
X172555834Y-124253241D01*
X172634418Y-124333184D01*
X172634425Y-124333191D01*
X172655628Y-124350536D01*
X172715034Y-124392407D01*
X172716344Y-124393330D01*
X172751333Y-124414412D01*
X172785428Y-124433245D01*
X172785436Y-124433249D01*
X172809837Y-124445555D01*
X172888429Y-124477423D01*
X172957694Y-124499104D01*
X173065280Y-124520617D01*
X173141964Y-124527642D01*
X173248310Y-124526431D01*
X173320933Y-124518107D01*
X173407718Y-124500550D01*
X173428057Y-124494589D01*
X173435155Y-124491683D01*
X173505771Y-124484386D01*
X173533088Y-124492723D01*
X173546763Y-124498663D01*
X173576150Y-124511428D01*
X173590425Y-124513390D01*
X173716026Y-124530654D01*
X173716040Y-124530655D01*
X173854354Y-124530655D01*
X173854357Y-124530655D01*
X173902950Y-124525659D01*
X173932985Y-124526171D01*
X173965602Y-124530655D01*
X174035742Y-124530655D01*
X174053827Y-124530275D01*
X174057448Y-124530200D01*
X174081756Y-124529180D01*
X174099990Y-124528416D01*
X174099993Y-124528415D01*
X174117970Y-124525577D01*
X174150078Y-124524979D01*
X174150088Y-124524832D01*
X174151905Y-124524945D01*
X174152641Y-124524932D01*
X174153655Y-124525053D01*
X174153665Y-124525055D01*
X174153674Y-124525055D01*
X174153678Y-124525056D01*
X174202784Y-124528127D01*
X174212282Y-124528721D01*
X174212295Y-124528720D01*
X174212305Y-124528721D01*
X174266531Y-124527785D01*
X174294836Y-124527297D01*
X174356489Y-124521301D01*
X174356501Y-124521298D01*
X174356506Y-124521298D01*
X174396195Y-124513850D01*
X174446623Y-124504387D01*
X174446634Y-124504384D01*
X174451326Y-124503065D01*
X174510653Y-124500913D01*
X174620082Y-124523272D01*
X174620092Y-124523274D01*
X174628673Y-124523832D01*
X174628682Y-124523835D01*
X174628683Y-124523833D01*
X174699101Y-124528415D01*
X174736689Y-124530861D01*
X174865216Y-124523204D01*
X174865559Y-124523089D01*
X174866042Y-124523045D01*
X174873306Y-124521648D01*
X174873443Y-124522362D01*
X174922428Y-124517842D01*
X174947601Y-124521302D01*
X175015647Y-124530655D01*
X175015655Y-124530655D01*
X175131384Y-124530655D01*
X175131390Y-124530655D01*
X175219903Y-124523044D01*
X175223077Y-124522033D01*
X175226395Y-124521748D01*
X175226777Y-124521672D01*
X175226785Y-124521714D01*
X175278455Y-124517269D01*
X175345111Y-124526431D01*
X175375833Y-124530654D01*
X175375842Y-124530655D01*
X175445030Y-124530655D01*
X175460159Y-124530433D01*
X175460190Y-124530432D01*
X175460196Y-124530432D01*
X175500338Y-124529255D01*
X175555063Y-124522147D01*
X175590512Y-124522572D01*
X175615029Y-124526358D01*
X175615028Y-124526358D01*
X175615035Y-124526359D01*
X175683306Y-124527491D01*
X175683572Y-124527495D01*
X175823753Y-124510518D01*
X175879257Y-124495924D01*
X175887201Y-124493541D01*
X175958195Y-124493132D01*
X175973594Y-124498663D01*
X175983729Y-124503065D01*
X176002982Y-124511428D01*
X176045479Y-124517269D01*
X176142858Y-124530654D01*
X176142872Y-124530655D01*
X176268611Y-124530655D01*
X176268614Y-124530655D01*
X176325502Y-124524806D01*
X176355536Y-124525318D01*
X176394357Y-124530655D01*
X176394365Y-124530655D01*
X176454712Y-124530655D01*
X176454713Y-124530655D01*
X176490935Y-124529388D01*
X176529433Y-124526692D01*
X176535318Y-124525785D01*
X176564129Y-124524687D01*
X176567625Y-124524955D01*
X176608978Y-124528127D01*
X176608977Y-124528127D01*
X176613225Y-124528225D01*
X176664194Y-124529412D01*
X176664199Y-124529411D01*
X176664206Y-124529412D01*
X176699384Y-124528355D01*
X176716980Y-124527827D01*
X176772064Y-124523226D01*
X176820336Y-124516587D01*
X176820346Y-124516584D01*
X176821922Y-124516368D01*
X176856246Y-124516367D01*
X176919463Y-124525056D01*
X176960189Y-124530654D01*
X176960198Y-124530655D01*
X177098514Y-124530655D01*
X177098515Y-124530655D01*
X177204007Y-124519810D01*
X177204012Y-124519808D01*
X177208751Y-124518739D01*
X177260798Y-124518014D01*
X177288760Y-124523511D01*
X177354775Y-124527312D01*
X177354783Y-124527312D01*
X177420797Y-124531112D01*
X177556086Y-124521124D01*
X177689138Y-124473837D01*
X177804498Y-124392407D01*
X177893610Y-124282873D01*
X177949867Y-124153359D01*
X177957775Y-124095819D01*
X177969093Y-124013482D01*
X177969094Y-124013469D01*
X177969094Y-123661522D01*
X177989096Y-123593401D01*
X178042752Y-123546908D01*
X178053249Y-123542673D01*
X178085843Y-123531204D01*
X178208085Y-123468948D01*
X178256145Y-123435805D01*
X178346429Y-123356658D01*
X178385709Y-123313204D01*
X178432092Y-123253707D01*
X178432772Y-123252690D01*
X178447379Y-123229545D01*
X178463331Y-123202725D01*
X178501680Y-123123691D01*
X178512046Y-123096721D01*
X178537963Y-123004753D01*
X178544241Y-122970717D01*
X178551322Y-122916336D01*
X178555007Y-122868314D01*
X178556087Y-122850008D01*
X178557711Y-122810629D01*
X178558058Y-122799063D01*
X178558733Y-122763351D01*
X178559540Y-122720775D01*
X178559149Y-122688567D01*
X178556618Y-122630002D01*
X178549580Y-122564390D01*
X178541994Y-122520341D01*
X178513489Y-122418441D01*
X178513488Y-122418438D01*
X178513483Y-122418424D01*
X178499813Y-122383693D01*
X178499807Y-122383680D01*
X178496699Y-122377789D01*
X178446473Y-122282578D01*
X178425657Y-122251881D01*
X178392221Y-122207829D01*
X178392219Y-122207827D01*
X178392214Y-122207820D01*
X178392210Y-122207816D01*
X178384515Y-122198728D01*
X178384513Y-122198726D01*
X178384503Y-122198714D01*
X178344145Y-122156181D01*
X178318219Y-122131782D01*
X178295878Y-122110757D01*
X178292749Y-122107837D01*
X178177030Y-122026925D01*
X178177026Y-122026922D01*
X178125290Y-122000407D01*
X178112904Y-121994267D01*
X178018975Y-121964138D01*
X177978447Y-121951138D01*
X177915147Y-121940024D01*
X177877418Y-121936177D01*
X177840731Y-121932436D01*
X177809866Y-121931528D01*
X177809864Y-121931528D01*
X177809861Y-121931528D01*
X177733627Y-121934903D01*
X177733624Y-121934903D01*
X177733609Y-121934904D01*
X177651984Y-121944572D01*
X177638973Y-121946280D01*
X177638965Y-121946281D01*
X177631432Y-121948445D01*
X177579505Y-121952165D01*
X177533425Y-121945831D01*
X177468663Y-121916741D01*
X177429909Y-121857254D01*
X177429468Y-121786259D01*
X177438012Y-121764402D01*
X177449684Y-121741192D01*
X177451191Y-121736783D01*
X177457498Y-121711050D01*
X177473132Y-121647255D01*
X177473132Y-121647254D01*
X177473133Y-121647251D01*
X177475215Y-121506062D01*
X177439126Y-121369546D01*
X177432135Y-121352779D01*
X177404056Y-121295602D01*
X177384736Y-121261699D01*
X177376630Y-121248065D01*
X177374960Y-121245256D01*
X177364872Y-121228978D01*
X177345990Y-121160539D01*
X177367107Y-121092755D01*
X177421518Y-121047149D01*
X177443355Y-121039899D01*
X177451376Y-121038029D01*
X177494352Y-121027289D01*
X177530085Y-121016984D01*
X177554858Y-121008867D01*
X177650122Y-120966635D01*
X177653440Y-120964744D01*
X177653441Y-120964744D01*
X177653444Y-120964742D01*
X177734342Y-120907777D01*
X177827996Y-120802099D01*
X177889664Y-120675072D01*
X177895138Y-120658294D01*
X177917096Y-120558582D01*
X177921546Y-120521089D01*
X177924116Y-120492860D01*
X177927538Y-120439009D01*
X177928241Y-120424941D01*
X177930632Y-120359091D01*
X177930885Y-120349856D01*
X177931550Y-120313900D01*
X177932242Y-120276419D01*
X177932243Y-120276365D01*
X177932326Y-120268961D01*
X177932648Y-120192188D01*
X177932630Y-120185095D01*
X177932048Y-120123696D01*
X177931913Y-120109436D01*
X177931771Y-120101272D01*
X177930014Y-120031132D01*
X177930012Y-120031069D01*
X177929618Y-120020027D01*
X177926813Y-119959557D01*
X177925585Y-119940590D01*
X177921731Y-119894270D01*
X177915635Y-119847206D01*
X177910730Y-119819395D01*
X177907654Y-119803423D01*
X177860227Y-119670421D01*
X177857270Y-119664729D01*
X177797409Y-119574157D01*
X177693640Y-119478392D01*
X177596539Y-119428808D01*
X177567884Y-119414175D01*
X177551409Y-119408430D01*
X177506089Y-119394912D01*
X177506056Y-119394903D01*
X177468576Y-119385563D01*
X177461506Y-119383899D01*
X177455310Y-119382442D01*
X177447633Y-119380742D01*
X177444392Y-119380024D01*
X177382210Y-119345762D01*
X177348422Y-119283321D01*
X177353756Y-119212525D01*
X177364680Y-119190411D01*
X177384661Y-119158322D01*
X177396677Y-119138008D01*
X177410385Y-119113581D01*
X177445852Y-119036061D01*
X177447831Y-119030585D01*
X177464943Y-118972995D01*
X177478234Y-118832417D01*
X177453104Y-118693467D01*
X177413457Y-118611828D01*
X177391425Y-118566461D01*
X177391417Y-118566447D01*
X177382908Y-118553702D01*
X177343936Y-118502518D01*
X177343934Y-118502516D01*
X177343929Y-118502509D01*
X177320408Y-118475301D01*
X177309778Y-118463382D01*
X177274252Y-118424760D01*
X177268900Y-118419029D01*
X177224481Y-118372157D01*
X177220998Y-118368516D01*
X177170498Y-118316236D01*
X177167810Y-118313475D01*
X177167738Y-118313401D01*
X177114197Y-118258801D01*
X177111628Y-118256199D01*
X177058164Y-118202441D01*
X177055238Y-118199522D01*
X177055207Y-118199491D01*
X177004691Y-118149491D01*
X177000810Y-118145689D01*
X177000754Y-118145634D01*
X176956350Y-118102596D01*
X176956315Y-118102562D01*
X176949798Y-118096354D01*
X176949775Y-118096332D01*
X176924668Y-118072829D01*
X176914329Y-118063150D01*
X176910215Y-118059452D01*
X176898807Y-118049195D01*
X176875359Y-118028953D01*
X176875350Y-118028946D01*
X176808394Y-117979920D01*
X176808392Y-117979919D01*
X176800568Y-117975102D01*
X176800555Y-117975094D01*
X176697097Y-117926218D01*
X176558547Y-117898970D01*
X176417784Y-117910112D01*
X176285243Y-117958821D01*
X176272479Y-117965609D01*
X176241225Y-117983652D01*
X176210769Y-118002677D01*
X176203061Y-118007585D01*
X176192649Y-118014342D01*
X176124617Y-118034642D01*
X176056409Y-118014938D01*
X176009682Y-117961486D01*
X176000248Y-117931987D01*
X175991719Y-117886743D01*
X175989849Y-117877307D01*
X175942562Y-117744255D01*
X175861132Y-117628895D01*
X175751598Y-117539783D01*
X175751596Y-117539782D01*
X175751595Y-117539781D01*
X175751594Y-117539780D01*
X175622085Y-117483526D01*
X175622080Y-117483525D01*
X175482207Y-117464299D01*
X175482194Y-117464299D01*
X174854539Y-117464299D01*
X174844920Y-117464388D01*
X174844916Y-117464388D01*
X174705412Y-117486206D01*
X174594653Y-117536778D01*
X174588074Y-117539783D01*
X174576961Y-117544857D01*
X174469100Y-117635986D01*
X174469099Y-117635987D01*
X174389824Y-117752836D01*
X174345015Y-117886739D01*
X174345012Y-117886749D01*
X174336467Y-117932074D01*
X174304190Y-117995309D01*
X174242850Y-118031056D01*
X174171920Y-118027965D01*
X174144532Y-118014729D01*
X174120636Y-117999373D01*
X174118787Y-117998216D01*
X174110065Y-117992757D01*
X174110006Y-117992720D01*
X174084517Y-117977191D01*
X174084518Y-117977191D01*
X174084504Y-117977183D01*
X174040002Y-117952968D01*
X174033041Y-117949610D01*
X173919119Y-117910211D01*
X173919115Y-117910210D01*
X173778365Y-117898944D01*
X173639792Y-117926071D01*
X173639785Y-117926074D01*
X173513675Y-117989578D01*
X173513673Y-117989579D01*
X173501116Y-117998228D01*
X173450264Y-118038143D01*
X173423489Y-118062003D01*
X173411710Y-118072829D01*
X173373718Y-118108841D01*
X173368079Y-118114265D01*
X173321812Y-118159444D01*
X173318333Y-118162874D01*
X173266865Y-118214096D01*
X173264054Y-118216913D01*
X173210094Y-118271427D01*
X173207755Y-118273806D01*
X173154554Y-118328312D01*
X173151880Y-118331073D01*
X173102684Y-118382274D01*
X173098726Y-118386436D01*
X173056414Y-118431400D01*
X173050293Y-118438019D01*
X173017582Y-118474005D01*
X173003940Y-118489628D01*
X172983996Y-118513413D01*
X172983991Y-118513419D01*
X172936503Y-118580115D01*
X172936490Y-118580134D01*
X172931733Y-118588076D01*
X172931724Y-118588092D01*
X172895438Y-118661165D01*
X172861110Y-118798133D01*
X172865009Y-118939282D01*
X172865010Y-118939287D01*
X172906844Y-119074141D01*
X172913710Y-119088825D01*
X172913714Y-119088833D01*
X172938469Y-119135436D01*
X172957719Y-119167606D01*
X172965229Y-119179770D01*
X172971328Y-119189350D01*
X172991039Y-119257556D01*
X172970746Y-119325591D01*
X172916893Y-119371854D01*
X172893546Y-119379751D01*
X172855520Y-119388582D01*
X172834205Y-119394013D01*
X172806489Y-119401705D01*
X172737084Y-119426397D01*
X172737083Y-119426397D01*
X172731581Y-119428808D01*
X172731545Y-119428823D01*
X172731518Y-119428836D01*
X172728170Y-119430341D01*
X172722409Y-119432931D01*
X172722403Y-119432935D01*
X172603436Y-119508982D01*
X172603431Y-119508986D01*
X172509390Y-119614314D01*
X172447251Y-119741110D01*
X172441799Y-119757612D01*
X172441799Y-119757614D01*
X172419200Y-119859505D01*
X172419199Y-119859509D01*
X172414802Y-119896772D01*
X172412237Y-119925243D01*
X172408887Y-119978949D01*
X172408199Y-119993073D01*
X172405898Y-120058803D01*
X172405656Y-120068029D01*
X172405087Y-120101272D01*
X172404398Y-120141488D01*
X172404398Y-120141518D01*
X172404323Y-120149018D01*
X172404107Y-120225589D01*
X172404119Y-120228443D01*
X172404136Y-120232749D01*
X172404957Y-120308485D01*
X172404958Y-120308566D01*
X172405106Y-120316532D01*
X172406962Y-120386862D01*
X172407372Y-120397940D01*
X172410258Y-120458509D01*
X172411498Y-120477314D01*
X172415419Y-120523870D01*
X172415419Y-120523871D01*
X172421445Y-120570262D01*
X172421452Y-120570305D01*
X172426395Y-120598364D01*
X172427862Y-120606186D01*
X172428513Y-120609656D01*
X172428514Y-120609661D01*
X172474691Y-120743107D01*
X172477493Y-120748626D01*
X172477654Y-120748943D01*
X172526671Y-120827304D01*
X172626459Y-120927210D01*
X172749502Y-120996487D01*
X172767225Y-121003488D01*
X172824173Y-121022257D01*
X172861726Y-121032267D01*
X172881014Y-121037014D01*
X172881021Y-121037015D01*
X172881039Y-121037020D01*
X172892899Y-121039699D01*
X172954939Y-121074219D01*
X172988467Y-121136800D01*
X172982838Y-121207573D01*
X172972079Y-121229230D01*
X172969520Y-121233336D01*
X172960676Y-121248065D01*
X172938529Y-121286374D01*
X172917835Y-121326022D01*
X172907468Y-121348162D01*
X172907467Y-121348166D01*
X172907465Y-121348171D01*
X172905988Y-121352779D01*
X172867141Y-121473975D01*
X172866641Y-121476683D01*
X172866640Y-121476692D01*
X172863965Y-121506062D01*
X172858035Y-121571176D01*
X172877373Y-121711050D01*
X172877373Y-121711051D01*
X172877374Y-121711053D01*
X172911101Y-121788533D01*
X172919950Y-121858976D01*
X172889310Y-121923021D01*
X172829289Y-121960228D01*
X172828342Y-121960491D01*
X172762353Y-121960883D01*
X172706307Y-121946032D01*
X172698719Y-121944152D01*
X172690063Y-121942007D01*
X172549433Y-121929287D01*
X172549432Y-121929287D01*
X172549418Y-121929287D01*
X172472726Y-121932847D01*
X172472723Y-121932847D01*
X172472716Y-121932847D01*
X172472715Y-121932848D01*
X172458377Y-121934903D01*
X172374352Y-121946945D01*
X172374348Y-121946946D01*
X172342167Y-121954763D01*
X172246332Y-121988273D01*
X172246316Y-121988279D01*
X172184605Y-122016912D01*
X172184603Y-122016914D01*
X172184601Y-122016915D01*
X172184595Y-122016918D01*
X172115571Y-122060504D01*
X172071967Y-122088038D01*
X172071966Y-122088038D01*
X172019186Y-122131782D01*
X171924573Y-122234660D01*
X171910217Y-122255272D01*
X171888041Y-122287112D01*
X171888039Y-122287116D01*
X171836530Y-122380153D01*
X171831505Y-122391944D01*
X171802448Y-122482269D01*
X171802441Y-122482293D01*
X171795564Y-122513109D01*
X171795561Y-122513124D01*
X171788535Y-122556000D01*
X171785974Y-122571629D01*
X171781156Y-122617253D01*
X171778618Y-122653267D01*
X171777362Y-122688572D01*
X171776977Y-122699388D01*
X171776649Y-122717825D01*
X171776649Y-122805026D01*
X171784022Y-122876742D01*
X171783599Y-122906110D01*
X171775828Y-122964995D01*
X155346015Y-122964995D01*
X155377999Y-122804207D01*
X155378000Y-122804204D01*
X155378000Y-122654000D01*
X154620000Y-122654000D01*
X154620000Y-122146000D01*
X155378000Y-122146000D01*
X155378000Y-121995795D01*
X155377999Y-121995792D01*
X155337340Y-121791392D01*
X155337339Y-121791389D01*
X155257586Y-121598848D01*
X155141804Y-121425568D01*
X155141799Y-121425561D01*
X154994438Y-121278200D01*
X154994431Y-121278195D01*
X154821151Y-121162413D01*
X154628604Y-121082658D01*
X154628599Y-121082657D01*
X154574001Y-121071795D01*
X154574000Y-121071796D01*
X154574000Y-121939939D01*
X154560060Y-121915795D01*
X154504205Y-121859940D01*
X154435796Y-121820444D01*
X154359496Y-121800000D01*
X154280504Y-121800000D01*
X154204204Y-121820444D01*
X154135795Y-121859940D01*
X154079940Y-121915795D01*
X154066000Y-121939939D01*
X154066000Y-121071796D01*
X154065998Y-121071795D01*
X154011400Y-121082657D01*
X154011395Y-121082658D01*
X153818848Y-121162413D01*
X153645568Y-121278195D01*
X153645561Y-121278200D01*
X153498200Y-121425561D01*
X153498195Y-121425568D01*
X153382413Y-121598848D01*
X153302660Y-121791389D01*
X153302659Y-121791392D01*
X153262000Y-121995792D01*
X146737999Y-121995792D01*
X146697340Y-121791392D01*
X146697339Y-121791389D01*
X146617586Y-121598848D01*
X146501804Y-121425568D01*
X146501799Y-121425561D01*
X146354438Y-121278200D01*
X146354431Y-121278195D01*
X146181151Y-121162413D01*
X145988604Y-121082658D01*
X145988599Y-121082657D01*
X145934001Y-121071795D01*
X145934000Y-121071796D01*
X145934000Y-121939939D01*
X145920060Y-121915795D01*
X145864205Y-121859940D01*
X145795796Y-121820444D01*
X145719496Y-121800000D01*
X145640504Y-121800000D01*
X145564204Y-121820444D01*
X145495795Y-121859940D01*
X145439940Y-121915795D01*
X145426000Y-121939939D01*
X145426000Y-121071796D01*
X145425998Y-121071795D01*
X145371400Y-121082657D01*
X145371395Y-121082658D01*
X145178848Y-121162413D01*
X145005568Y-121278195D01*
X145005561Y-121278200D01*
X144858200Y-121425561D01*
X144858195Y-121425568D01*
X144742413Y-121598848D01*
X144662660Y-121791389D01*
X144662659Y-121791392D01*
X144622000Y-121995792D01*
X138500000Y-121995792D01*
X138500000Y-118700923D01*
X138520002Y-118632802D01*
X138536905Y-118611828D01*
X138952941Y-118195792D01*
X144622000Y-118195792D01*
X144622000Y-118346000D01*
X145380000Y-118346000D01*
X145380000Y-118854000D01*
X144622000Y-118854000D01*
X144622000Y-119004207D01*
X144662659Y-119208607D01*
X144662660Y-119208610D01*
X144742413Y-119401151D01*
X144858195Y-119574431D01*
X144858200Y-119574438D01*
X145005561Y-119721799D01*
X145005568Y-119721804D01*
X145178848Y-119837586D01*
X145371387Y-119917338D01*
X145371392Y-119917340D01*
X145426000Y-119928202D01*
X145426000Y-119060060D01*
X145439940Y-119084205D01*
X145495795Y-119140060D01*
X145564204Y-119179556D01*
X145640504Y-119200000D01*
X145719496Y-119200000D01*
X145795796Y-119179556D01*
X145864205Y-119140060D01*
X145920060Y-119084205D01*
X145934000Y-119060060D01*
X145934000Y-119928201D01*
X145988607Y-119917340D01*
X145988612Y-119917338D01*
X146181151Y-119837586D01*
X146354431Y-119721804D01*
X146354438Y-119721799D01*
X146501799Y-119574438D01*
X146501804Y-119574431D01*
X146617586Y-119401151D01*
X146697339Y-119208610D01*
X146697340Y-119208607D01*
X146737999Y-119004207D01*
X146738000Y-119004204D01*
X146738000Y-118854000D01*
X145980000Y-118854000D01*
X145980000Y-118346000D01*
X146738000Y-118346000D01*
X146738000Y-118195795D01*
X146737999Y-118195792D01*
X153262000Y-118195792D01*
X153262000Y-118346000D01*
X154020000Y-118346000D01*
X154020000Y-118854000D01*
X153262000Y-118854000D01*
X153262000Y-119004207D01*
X153302659Y-119208607D01*
X153302660Y-119208610D01*
X153382413Y-119401151D01*
X153498195Y-119574431D01*
X153498200Y-119574438D01*
X153645561Y-119721799D01*
X153645568Y-119721804D01*
X153818848Y-119837586D01*
X154011387Y-119917338D01*
X154011392Y-119917340D01*
X154066000Y-119928202D01*
X154066000Y-119060060D01*
X154079940Y-119084205D01*
X154135795Y-119140060D01*
X154204204Y-119179556D01*
X154280504Y-119200000D01*
X154359496Y-119200000D01*
X154435796Y-119179556D01*
X154504205Y-119140060D01*
X154560060Y-119084205D01*
X154574000Y-119060060D01*
X154574000Y-119928201D01*
X154628607Y-119917340D01*
X154628612Y-119917338D01*
X154821151Y-119837586D01*
X154994431Y-119721804D01*
X154994438Y-119721799D01*
X155141799Y-119574438D01*
X155141804Y-119574431D01*
X155257586Y-119401151D01*
X155337339Y-119208610D01*
X155337340Y-119208607D01*
X155377999Y-119004207D01*
X155378000Y-119004204D01*
X155378000Y-118854000D01*
X154620000Y-118854000D01*
X154620000Y-118346000D01*
X155378000Y-118346000D01*
X155378000Y-118195795D01*
X155377999Y-118195792D01*
X155337340Y-117991392D01*
X155337339Y-117991389D01*
X155257586Y-117798848D01*
X155141804Y-117625568D01*
X155141799Y-117625561D01*
X154994438Y-117478200D01*
X154994431Y-117478195D01*
X154821151Y-117362413D01*
X154628604Y-117282658D01*
X154628599Y-117282657D01*
X154574001Y-117271795D01*
X154574000Y-117271796D01*
X154574000Y-118139939D01*
X154560060Y-118115795D01*
X154504205Y-118059940D01*
X154435796Y-118020444D01*
X154359496Y-118000000D01*
X154280504Y-118000000D01*
X154204204Y-118020444D01*
X154135795Y-118059940D01*
X154079940Y-118115795D01*
X154066000Y-118139939D01*
X154066000Y-117271796D01*
X154065998Y-117271795D01*
X154011400Y-117282657D01*
X154011395Y-117282658D01*
X153818848Y-117362413D01*
X153645568Y-117478195D01*
X153645561Y-117478200D01*
X153498200Y-117625561D01*
X153498195Y-117625568D01*
X153382413Y-117798848D01*
X153302660Y-117991389D01*
X153302659Y-117991392D01*
X153262000Y-118195792D01*
X146737999Y-118195792D01*
X146697340Y-117991392D01*
X146697339Y-117991389D01*
X146617586Y-117798848D01*
X146501804Y-117625568D01*
X146501799Y-117625561D01*
X146354438Y-117478200D01*
X146354431Y-117478195D01*
X146181151Y-117362413D01*
X145988604Y-117282658D01*
X145988599Y-117282657D01*
X145934001Y-117271795D01*
X145934000Y-117271796D01*
X145934000Y-118139939D01*
X145920060Y-118115795D01*
X145864205Y-118059940D01*
X145795796Y-118020444D01*
X145719496Y-118000000D01*
X145640504Y-118000000D01*
X145564204Y-118020444D01*
X145495795Y-118059940D01*
X145439940Y-118115795D01*
X145426000Y-118139939D01*
X145426000Y-117271796D01*
X145425998Y-117271795D01*
X145371400Y-117282657D01*
X145371395Y-117282658D01*
X145178848Y-117362413D01*
X145005568Y-117478195D01*
X145005561Y-117478200D01*
X144858200Y-117625561D01*
X144858195Y-117625568D01*
X144742413Y-117798848D01*
X144662660Y-117991389D01*
X144662659Y-117991392D01*
X144622000Y-118195792D01*
X138952941Y-118195792D01*
X139134391Y-118014342D01*
X139743625Y-117405108D01*
X139813173Y-117301022D01*
X139861078Y-117185369D01*
X139885500Y-117062591D01*
X139885500Y-116937409D01*
X139885500Y-113000000D01*
X166636771Y-113000000D01*
X166655636Y-113179480D01*
X166711398Y-113351102D01*
X166711401Y-113351108D01*
X166801631Y-113507390D01*
X166801638Y-113507400D01*
X166922384Y-113641502D01*
X166947244Y-113659564D01*
X167068385Y-113747578D01*
X167233248Y-113820980D01*
X167372247Y-113850524D01*
X167409767Y-113858500D01*
X167409768Y-113858500D01*
X167590233Y-113858500D01*
X167621175Y-113851922D01*
X167766752Y-113820980D01*
X167931615Y-113747578D01*
X168052756Y-113659564D01*
X168119624Y-113635705D01*
X168126817Y-113635500D01*
X170434577Y-113635500D01*
X170502698Y-113655502D01*
X170523672Y-113672405D01*
X171859389Y-115008122D01*
X171893415Y-115070434D01*
X171895604Y-115084044D01*
X171905636Y-115179481D01*
X171961398Y-115351102D01*
X171961401Y-115351108D01*
X172051631Y-115507390D01*
X172051638Y-115507400D01*
X172172384Y-115641502D01*
X172172387Y-115641504D01*
X172318385Y-115747578D01*
X172483248Y-115820980D01*
X172622247Y-115850524D01*
X172659767Y-115858500D01*
X172659768Y-115858500D01*
X172840233Y-115858500D01*
X172871175Y-115851922D01*
X173016752Y-115820980D01*
X173181615Y-115747578D01*
X173327613Y-115641504D01*
X173448367Y-115507393D01*
X173538599Y-115351107D01*
X173594365Y-115179475D01*
X173613229Y-115000000D01*
X173594365Y-114820525D01*
X173590612Y-114808975D01*
X173538601Y-114648897D01*
X173538598Y-114648891D01*
X173448368Y-114492609D01*
X173448361Y-114492599D01*
X173327615Y-114358497D01*
X173181615Y-114252422D01*
X173016752Y-114179020D01*
X172840227Y-114141498D01*
X172833670Y-114140810D01*
X172833861Y-114138986D01*
X172774302Y-114121498D01*
X172753328Y-114104595D01*
X171155110Y-112506377D01*
X171155108Y-112506375D01*
X171051022Y-112436827D01*
X170935369Y-112388922D01*
X170812593Y-112364500D01*
X170812591Y-112364500D01*
X168126817Y-112364500D01*
X168058696Y-112344498D01*
X168052756Y-112340436D01*
X167931615Y-112252422D01*
X167766752Y-112179020D01*
X167590233Y-112141500D01*
X167590232Y-112141500D01*
X167409768Y-112141500D01*
X167409767Y-112141500D01*
X167233250Y-112179019D01*
X167068383Y-112252422D01*
X167068383Y-112252423D01*
X166922384Y-112358497D01*
X166801638Y-112492599D01*
X166801631Y-112492609D01*
X166711401Y-112648891D01*
X166711398Y-112648897D01*
X166655636Y-112820519D01*
X166655635Y-112820523D01*
X166655635Y-112820525D01*
X166638162Y-112986767D01*
X166636771Y-113000000D01*
X139885500Y-113000000D01*
X139885500Y-112000000D01*
X164886771Y-112000000D01*
X164905587Y-112179020D01*
X164905636Y-112179480D01*
X164961398Y-112351102D01*
X164961401Y-112351108D01*
X165051631Y-112507390D01*
X165051638Y-112507400D01*
X165172384Y-112641502D01*
X165216723Y-112673716D01*
X165318385Y-112747578D01*
X165483248Y-112820980D01*
X165622247Y-112850524D01*
X165659767Y-112858500D01*
X165659768Y-112858500D01*
X165840233Y-112858500D01*
X165871175Y-112851922D01*
X166016752Y-112820980D01*
X166181615Y-112747578D01*
X166327613Y-112641504D01*
X166397270Y-112564142D01*
X166448361Y-112507400D01*
X166448362Y-112507398D01*
X166448367Y-112507393D01*
X166538599Y-112351107D01*
X166540747Y-112344498D01*
X166594365Y-112179475D01*
X166604395Y-112084048D01*
X166631408Y-112018391D01*
X166640610Y-112008122D01*
X166726329Y-111922404D01*
X166788641Y-111888379D01*
X166815424Y-111885500D01*
X169873183Y-111885500D01*
X169941304Y-111905502D01*
X169947244Y-111909564D01*
X170068385Y-111997578D01*
X170233248Y-112070980D01*
X170372247Y-112100524D01*
X170409767Y-112108500D01*
X170409768Y-112108500D01*
X170590233Y-112108500D01*
X170621175Y-112101922D01*
X170766752Y-112070980D01*
X170931615Y-111997578D01*
X171077613Y-111891504D01*
X171198367Y-111757393D01*
X171288599Y-111601107D01*
X171344365Y-111429475D01*
X171363229Y-111250000D01*
X171344365Y-111070525D01*
X171323855Y-111007400D01*
X171288601Y-110898897D01*
X171288598Y-110898891D01*
X171198368Y-110742609D01*
X171198361Y-110742599D01*
X171077615Y-110608497D01*
X170931615Y-110502422D01*
X170766752Y-110429020D01*
X170590233Y-110391500D01*
X170590232Y-110391500D01*
X170409768Y-110391500D01*
X170409767Y-110391500D01*
X170233250Y-110429019D01*
X170068383Y-110502422D01*
X170068383Y-110502423D01*
X169947244Y-110590436D01*
X169880376Y-110614295D01*
X169873183Y-110614500D01*
X166437406Y-110614500D01*
X166314630Y-110638922D01*
X166314625Y-110638924D01*
X166198977Y-110686827D01*
X166094896Y-110756372D01*
X166094889Y-110756377D01*
X165746672Y-111104595D01*
X165684360Y-111138621D01*
X165666303Y-111140561D01*
X165666330Y-111140810D01*
X165659772Y-111141498D01*
X165483250Y-111179019D01*
X165318383Y-111252422D01*
X165318383Y-111252423D01*
X165172384Y-111358497D01*
X165051638Y-111492599D01*
X165051631Y-111492609D01*
X164961401Y-111648891D01*
X164961398Y-111648897D01*
X164905636Y-111820519D01*
X164905635Y-111820523D01*
X164905635Y-111820525D01*
X164886771Y-112000000D01*
X139885500Y-112000000D01*
X139885500Y-107315423D01*
X139905502Y-107247302D01*
X139922405Y-107226328D01*
X140753328Y-106395405D01*
X140815640Y-106361379D01*
X140833696Y-106359438D01*
X140833670Y-106359190D01*
X140840227Y-106358501D01*
X140840232Y-106358500D01*
X141016752Y-106320980D01*
X141181615Y-106247578D01*
X141327613Y-106141504D01*
X141396583Y-106064905D01*
X141448361Y-106007400D01*
X141448362Y-106007398D01*
X141448367Y-106007393D01*
X141538599Y-105851107D01*
X141555205Y-105800000D01*
X141594363Y-105679480D01*
X141594365Y-105679475D01*
X141613229Y-105500000D01*
X141594365Y-105320525D01*
X141563759Y-105226328D01*
X141538601Y-105148897D01*
X141538598Y-105148891D01*
X141448368Y-104992609D01*
X141448361Y-104992599D01*
X141327615Y-104858497D01*
X141181615Y-104752422D01*
X141016752Y-104679020D01*
X140840233Y-104641500D01*
X140840232Y-104641500D01*
X140761500Y-104641500D01*
X140693379Y-104621498D01*
X140646886Y-104567842D01*
X140635500Y-104515500D01*
X140635500Y-99999988D01*
X144486532Y-99999988D01*
X144486532Y-100000011D01*
X144506392Y-100467549D01*
X144506396Y-100467594D01*
X144565836Y-100931775D01*
X144565836Y-100931776D01*
X144664435Y-101389273D01*
X144801473Y-101836750D01*
X144801474Y-101836753D01*
X144975964Y-102270989D01*
X144975968Y-102270998D01*
X144975971Y-102271004D01*
X145186665Y-102688890D01*
X145224292Y-102750000D01*
X145432036Y-103087399D01*
X145432039Y-103087403D01*
X145710325Y-103463671D01*
X146019518Y-103814983D01*
X146357391Y-104138808D01*
X146721509Y-104432812D01*
X146770267Y-104465767D01*
X147109244Y-104694876D01*
X147109245Y-104694876D01*
X147109249Y-104694879D01*
X147517816Y-104923118D01*
X147944268Y-105115886D01*
X148067073Y-105159276D01*
X148385516Y-105271790D01*
X148385522Y-105271792D01*
X148385531Y-105271795D01*
X148838427Y-105389720D01*
X148838430Y-105389720D01*
X148838432Y-105389721D01*
X148906191Y-105401339D01*
X149299691Y-105468811D01*
X149717382Y-105504361D01*
X149765989Y-105508499D01*
X149765991Y-105508499D01*
X149766002Y-105508500D01*
X149766012Y-105508500D01*
X150233988Y-105508500D01*
X150233998Y-105508500D01*
X150700309Y-105468811D01*
X151161573Y-105389720D01*
X151614469Y-105271795D01*
X152055732Y-105115886D01*
X152482184Y-104923118D01*
X152890751Y-104694879D01*
X153278491Y-104432812D01*
X153642609Y-104138808D01*
X153980482Y-103814983D01*
X154289675Y-103463671D01*
X154567961Y-103087403D01*
X154775708Y-102750000D01*
X165886771Y-102750000D01*
X165899970Y-102875580D01*
X165905636Y-102929480D01*
X165961398Y-103101102D01*
X165961401Y-103101108D01*
X166051631Y-103257390D01*
X166051638Y-103257400D01*
X166172384Y-103391502D01*
X166197244Y-103409564D01*
X166318385Y-103497578D01*
X166483248Y-103570980D01*
X166622247Y-103600524D01*
X166659767Y-103608500D01*
X166659768Y-103608500D01*
X166840233Y-103608500D01*
X166871175Y-103601922D01*
X167016752Y-103570980D01*
X167181615Y-103497578D01*
X167302756Y-103409564D01*
X167369624Y-103385705D01*
X167376817Y-103385500D01*
X169684577Y-103385500D01*
X169752698Y-103405502D01*
X169773672Y-103422405D01*
X172644892Y-106293625D01*
X172748978Y-106363173D01*
X172864631Y-106411078D01*
X172987409Y-106435500D01*
X173112591Y-106435500D01*
X174973183Y-106435500D01*
X175041304Y-106455502D01*
X175047244Y-106459564D01*
X175051936Y-106462973D01*
X175168385Y-106547578D01*
X175333248Y-106620980D01*
X175472247Y-106650524D01*
X175509767Y-106658500D01*
X175509768Y-106658500D01*
X175690233Y-106658500D01*
X175721175Y-106651922D01*
X175866752Y-106620980D01*
X176031615Y-106547578D01*
X176177613Y-106441504D01*
X176205010Y-106411077D01*
X176298361Y-106307400D01*
X176298362Y-106307398D01*
X176298367Y-106307393D01*
X176388599Y-106151107D01*
X176391720Y-106141504D01*
X176428068Y-106029633D01*
X176444365Y-105979475D01*
X176463229Y-105800000D01*
X176444365Y-105620525D01*
X176440612Y-105608975D01*
X176388601Y-105448897D01*
X176388598Y-105448891D01*
X176327707Y-105343425D01*
X176298367Y-105292607D01*
X176298365Y-105292605D01*
X176298361Y-105292599D01*
X176177615Y-105158497D01*
X176031615Y-105052422D01*
X175866752Y-104979020D01*
X175690233Y-104941500D01*
X175690232Y-104941500D01*
X175509768Y-104941500D01*
X175509767Y-104941500D01*
X175333250Y-104979019D01*
X175168383Y-105052422D01*
X175168383Y-105052423D01*
X175047244Y-105140436D01*
X174980376Y-105164295D01*
X174973183Y-105164500D01*
X173365423Y-105164500D01*
X173297302Y-105144498D01*
X173276328Y-105127595D01*
X170405110Y-102256377D01*
X170405108Y-102256375D01*
X170301022Y-102186827D01*
X170185369Y-102138922D01*
X170062593Y-102114500D01*
X170062591Y-102114500D01*
X167376817Y-102114500D01*
X167308696Y-102094498D01*
X167302756Y-102090436D01*
X167181615Y-102002422D01*
X167016752Y-101929020D01*
X166840233Y-101891500D01*
X166840232Y-101891500D01*
X166659768Y-101891500D01*
X166659767Y-101891500D01*
X166483250Y-101929019D01*
X166318383Y-102002422D01*
X166318383Y-102002423D01*
X166172384Y-102108497D01*
X166051638Y-102242599D01*
X166051631Y-102242609D01*
X165961401Y-102398891D01*
X165961398Y-102398897D01*
X165905636Y-102570519D01*
X165905635Y-102570523D01*
X165905635Y-102570525D01*
X165886771Y-102750000D01*
X154775708Y-102750000D01*
X154813335Y-102688890D01*
X155024029Y-102271004D01*
X155198525Y-101836756D01*
X155335565Y-101389273D01*
X155434162Y-100931781D01*
X155493606Y-100467575D01*
X155513468Y-100000000D01*
X155513468Y-99999988D01*
X155493607Y-99532450D01*
X155493606Y-99532425D01*
X155438206Y-99099796D01*
X155434163Y-99068224D01*
X155434163Y-99068223D01*
X155405971Y-98937413D01*
X155335565Y-98610727D01*
X155198525Y-98163244D01*
X155024029Y-97728996D01*
X154813335Y-97311110D01*
X154567961Y-96912597D01*
X154289675Y-96536329D01*
X153980482Y-96185017D01*
X153642609Y-95861192D01*
X153278491Y-95567188D01*
X153278481Y-95567181D01*
X152890755Y-95305123D01*
X152890752Y-95305121D01*
X152890751Y-95305121D01*
X152482184Y-95076882D01*
X152055732Y-94884114D01*
X152055727Y-94884112D01*
X152055722Y-94884110D01*
X151614483Y-94728209D01*
X151614470Y-94728205D01*
X151161578Y-94610281D01*
X151161567Y-94610278D01*
X150700309Y-94531189D01*
X150234010Y-94491500D01*
X150233998Y-94491500D01*
X149766002Y-94491500D01*
X149765989Y-94491500D01*
X149332998Y-94528354D01*
X149299691Y-94531189D01*
X149299689Y-94531189D01*
X148838432Y-94610278D01*
X148838421Y-94610281D01*
X148385529Y-94728205D01*
X148385516Y-94728209D01*
X147944277Y-94884110D01*
X147944261Y-94884117D01*
X147517815Y-95076882D01*
X147109249Y-95305121D01*
X147109244Y-95305123D01*
X146721518Y-95567181D01*
X146721512Y-95567185D01*
X146721509Y-95567188D01*
X146596465Y-95668153D01*
X146357390Y-95861192D01*
X146019526Y-96185008D01*
X145710329Y-96536324D01*
X145432036Y-96912600D01*
X145222800Y-97252423D01*
X145186665Y-97311110D01*
X145016359Y-97648891D01*
X144975970Y-97728998D01*
X144975964Y-97729010D01*
X144801474Y-98163246D01*
X144801473Y-98163249D01*
X144664435Y-98610726D01*
X144565836Y-99068223D01*
X144565836Y-99068224D01*
X144506396Y-99532405D01*
X144506392Y-99532450D01*
X144486532Y-99999988D01*
X140635500Y-99999988D01*
X140635500Y-99068824D01*
X140635501Y-99068803D01*
X140635501Y-98937413D01*
X140635501Y-98937409D01*
X140611078Y-98814632D01*
X140583304Y-98747578D01*
X140563173Y-98698978D01*
X140493625Y-98594892D01*
X140405108Y-98506375D01*
X139890609Y-97991876D01*
X139856583Y-97929564D01*
X139854396Y-97915969D01*
X139844365Y-97820525D01*
X139822725Y-97753922D01*
X139788601Y-97648897D01*
X139788598Y-97648891D01*
X139743483Y-97570750D01*
X139698367Y-97492607D01*
X139698365Y-97492605D01*
X139698361Y-97492599D01*
X139577615Y-97358497D01*
X139431615Y-97252422D01*
X139266752Y-97179020D01*
X139090233Y-97141500D01*
X139090232Y-97141500D01*
X138909768Y-97141500D01*
X138909767Y-97141500D01*
X138733250Y-97179019D01*
X138568383Y-97252422D01*
X138568383Y-97252423D01*
X138422384Y-97358497D01*
X138301638Y-97492599D01*
X138301631Y-97492609D01*
X138211401Y-97648891D01*
X138211400Y-97648894D01*
X138206839Y-97662934D01*
X138166766Y-97721541D01*
X138101370Y-97749178D01*
X138087005Y-97750000D01*
X135249998Y-97750000D01*
X133750000Y-99249998D01*
X133750000Y-101487906D01*
X133729998Y-101556027D01*
X133698062Y-101589841D01*
X133672385Y-101608496D01*
X133672384Y-101608497D01*
X133551638Y-101742599D01*
X133551631Y-101742609D01*
X133461401Y-101898891D01*
X133461398Y-101898897D01*
X133405636Y-102070519D01*
X133405635Y-102070523D01*
X133405635Y-102070525D01*
X133386771Y-102250000D01*
X133404822Y-102421742D01*
X133405636Y-102429480D01*
X133461398Y-102601102D01*
X133461401Y-102601108D01*
X133551631Y-102757391D01*
X133551637Y-102757399D01*
X133582135Y-102791269D01*
X133612853Y-102855276D01*
X133614500Y-102875580D01*
X133614500Y-110434577D01*
X133594498Y-110502698D01*
X133577595Y-110523672D01*
X129388172Y-114713095D01*
X129325860Y-114747121D01*
X129299077Y-114750000D01*
X127552190Y-114750000D01*
X127484069Y-114729998D01*
X127463099Y-114713099D01*
X126750000Y-114000000D01*
X121533272Y-114000000D01*
X121471066Y-113983574D01*
X119163794Y-112673716D01*
X119114429Y-112622690D01*
X119100000Y-112564142D01*
X119100000Y-110082783D01*
X119120002Y-110014662D01*
X119128826Y-110002576D01*
X119242793Y-109864500D01*
X119572489Y-109465059D01*
X119631277Y-109425257D01*
X119702253Y-109423556D01*
X119743718Y-109443329D01*
X119818385Y-109497578D01*
X119983248Y-109570980D01*
X120131560Y-109602504D01*
X120159772Y-109608501D01*
X120166330Y-109609190D01*
X120166138Y-109611013D01*
X120225698Y-109628502D01*
X120246672Y-109645405D01*
X121594892Y-110993625D01*
X121698978Y-111063173D01*
X121814631Y-111111078D01*
X121937409Y-111135500D01*
X122062591Y-111135500D01*
X129873183Y-111135500D01*
X129941304Y-111155502D01*
X129947244Y-111159564D01*
X130068385Y-111247578D01*
X130233248Y-111320980D01*
X130372247Y-111350524D01*
X130409767Y-111358500D01*
X130409768Y-111358500D01*
X130590233Y-111358500D01*
X130621175Y-111351922D01*
X130766752Y-111320980D01*
X130931615Y-111247578D01*
X131077613Y-111141504D01*
X131077616Y-111141501D01*
X131077618Y-111141500D01*
X131198361Y-111007400D01*
X131198362Y-111007398D01*
X131198367Y-111007393D01*
X131288599Y-110851107D01*
X131344365Y-110679475D01*
X131363229Y-110500000D01*
X131344365Y-110320525D01*
X131340612Y-110308975D01*
X131288601Y-110148897D01*
X131288598Y-110148891D01*
X131211100Y-110014662D01*
X131198367Y-109992607D01*
X131198365Y-109992605D01*
X131198361Y-109992599D01*
X131077615Y-109858497D01*
X130931615Y-109752422D01*
X130766752Y-109679020D01*
X130590233Y-109641500D01*
X130590232Y-109641500D01*
X130409768Y-109641500D01*
X130409767Y-109641500D01*
X130233250Y-109679019D01*
X130068383Y-109752422D01*
X130068383Y-109752423D01*
X129947244Y-109840436D01*
X129880376Y-109864295D01*
X129873183Y-109864500D01*
X122315423Y-109864500D01*
X122247302Y-109844498D01*
X122226328Y-109827595D01*
X121140609Y-108741876D01*
X121106583Y-108679564D01*
X121104396Y-108665969D01*
X121094365Y-108570525D01*
X121090612Y-108558975D01*
X121038601Y-108398897D01*
X121038598Y-108398891D01*
X120948368Y-108242609D01*
X120948361Y-108242599D01*
X120827615Y-108108497D01*
X120681615Y-108002422D01*
X120516752Y-107929020D01*
X120340233Y-107891500D01*
X120340232Y-107891500D01*
X120159768Y-107891500D01*
X120159767Y-107891500D01*
X119983245Y-107929020D01*
X119927247Y-107953952D01*
X119856880Y-107963386D01*
X119792584Y-107933279D01*
X119754771Y-107873189D01*
X119750000Y-107838845D01*
X119750000Y-107750000D01*
X115400294Y-107750000D01*
X115332173Y-107729998D01*
X115285680Y-107676342D01*
X115274299Y-107625089D01*
X115187223Y-97546000D01*
X117788230Y-97546000D01*
X118859025Y-97546000D01*
X118819930Y-97585095D01*
X118773852Y-97664905D01*
X118750000Y-97753922D01*
X118750000Y-97846078D01*
X118773852Y-97935095D01*
X118819930Y-98014905D01*
X118859025Y-98054000D01*
X117788231Y-98054000D01*
X117789650Y-98062963D01*
X117789652Y-98062973D01*
X117844275Y-98231082D01*
X117844276Y-98231084D01*
X117924526Y-98388584D01*
X118028425Y-98531588D01*
X118028427Y-98531591D01*
X118153408Y-98656572D01*
X118153411Y-98656574D01*
X118296415Y-98760473D01*
X118418373Y-98822614D01*
X118469988Y-98871362D01*
X118487054Y-98940277D01*
X118464153Y-99007479D01*
X118462039Y-99010389D01*
X118395112Y-99099793D01*
X118395110Y-99099797D01*
X118344011Y-99236795D01*
X118344009Y-99236803D01*
X118337500Y-99297350D01*
X118337500Y-100702649D01*
X118344009Y-100763196D01*
X118344011Y-100763204D01*
X118395110Y-100900202D01*
X118395112Y-100900207D01*
X118482737Y-101017259D01*
X118482738Y-101017259D01*
X118482739Y-101017261D01*
X118539202Y-101059529D01*
X118574798Y-101086176D01*
X118617344Y-101143012D01*
X118622408Y-101213828D01*
X118599838Y-101262976D01*
X118507389Y-101385398D01*
X118411357Y-101578258D01*
X118411354Y-101578266D01*
X118352398Y-101785477D01*
X118352398Y-101785481D01*
X118332520Y-101999995D01*
X118332520Y-102000004D01*
X118352398Y-102214518D01*
X118352398Y-102214522D01*
X118368468Y-102271004D01*
X118411357Y-102421742D01*
X118507388Y-102614599D01*
X118615226Y-102757399D01*
X118637224Y-102786528D01*
X118769248Y-102906885D01*
X118806114Y-102967560D01*
X118804325Y-103038534D01*
X118769248Y-103093115D01*
X118637224Y-103213471D01*
X118507389Y-103385399D01*
X118411357Y-103578258D01*
X118411354Y-103578266D01*
X118352398Y-103785477D01*
X118352398Y-103785481D01*
X118332520Y-103999995D01*
X118332520Y-104000004D01*
X118352398Y-104214518D01*
X118352398Y-104214522D01*
X118370923Y-104279633D01*
X118411357Y-104421742D01*
X118507388Y-104614599D01*
X118637222Y-104786526D01*
X118637223Y-104786527D01*
X118637225Y-104786529D01*
X118637227Y-104786532D01*
X118738602Y-104878947D01*
X118775469Y-104939621D01*
X118773680Y-105010595D01*
X118733804Y-105069335D01*
X118673430Y-105096510D01*
X118622032Y-105104651D01*
X118622026Y-105104652D01*
X118453921Y-105159273D01*
X118453915Y-105159276D01*
X118296415Y-105239526D01*
X118153411Y-105343425D01*
X118153408Y-105343427D01*
X118028427Y-105468408D01*
X118028425Y-105468411D01*
X117924526Y-105611415D01*
X117844276Y-105768915D01*
X117844275Y-105768917D01*
X117789652Y-105937026D01*
X117789650Y-105937036D01*
X117788230Y-105946000D01*
X118859025Y-105946000D01*
X118819930Y-105985095D01*
X118773852Y-106064905D01*
X118750000Y-106153922D01*
X118750000Y-106246078D01*
X118773852Y-106335095D01*
X118819930Y-106414905D01*
X118859025Y-106454000D01*
X117788231Y-106454000D01*
X117789650Y-106462963D01*
X117789652Y-106462973D01*
X117844275Y-106631082D01*
X117844276Y-106631084D01*
X117924526Y-106788584D01*
X118028425Y-106931588D01*
X118028427Y-106931591D01*
X118153408Y-107056572D01*
X118153411Y-107056574D01*
X118296415Y-107160473D01*
X118453915Y-107240723D01*
X118453921Y-107240726D01*
X118622024Y-107295346D01*
X118796621Y-107323000D01*
X119246000Y-107323000D01*
X119246000Y-106550000D01*
X119754000Y-106550000D01*
X119754000Y-107323000D01*
X120203379Y-107323000D01*
X120377975Y-107295346D01*
X120546078Y-107240726D01*
X120546084Y-107240723D01*
X120703584Y-107160473D01*
X120846588Y-107056574D01*
X120846591Y-107056572D01*
X120971572Y-106931591D01*
X120971574Y-106931588D01*
X121075473Y-106788584D01*
X121155723Y-106631084D01*
X121155724Y-106631082D01*
X121210347Y-106462973D01*
X121210349Y-106462963D01*
X121211769Y-106454000D01*
X120140975Y-106454000D01*
X120180070Y-106414905D01*
X120226148Y-106335095D01*
X120250000Y-106246078D01*
X120250000Y-106153922D01*
X120226148Y-106064905D01*
X120180070Y-105985095D01*
X120140975Y-105946000D01*
X121211769Y-105946000D01*
X121210349Y-105937036D01*
X121210347Y-105937026D01*
X121155724Y-105768917D01*
X121155723Y-105768915D01*
X121075473Y-105611415D01*
X120971574Y-105468411D01*
X120971572Y-105468408D01*
X120846591Y-105343427D01*
X120846588Y-105343425D01*
X120703584Y-105239526D01*
X120546084Y-105159276D01*
X120546078Y-105159273D01*
X120377973Y-105104652D01*
X120377968Y-105104651D01*
X120326569Y-105096510D01*
X120262417Y-105066097D01*
X120224891Y-105005829D01*
X120225906Y-104934839D01*
X120261395Y-104878948D01*
X120362778Y-104786526D01*
X120492612Y-104614599D01*
X120588643Y-104421742D01*
X120647601Y-104214524D01*
X120667480Y-104000000D01*
X120647601Y-103785476D01*
X120588643Y-103578258D01*
X120492612Y-103385401D01*
X120362778Y-103213474D01*
X120362776Y-103213471D01*
X120230751Y-103093115D01*
X120193885Y-103032441D01*
X120195674Y-102961467D01*
X120230751Y-102906885D01*
X120362776Y-102786528D01*
X120362778Y-102786526D01*
X120492612Y-102614599D01*
X120588643Y-102421742D01*
X120647601Y-102214524D01*
X120660945Y-102070519D01*
X120667480Y-102000004D01*
X120667480Y-101999995D01*
X120652353Y-101836756D01*
X120647601Y-101785476D01*
X120588643Y-101578258D01*
X120492612Y-101385401D01*
X120400158Y-101262973D01*
X120375070Y-101196561D01*
X120389869Y-101127124D01*
X120425199Y-101086177D01*
X120517261Y-101017261D01*
X120581251Y-100931781D01*
X120604887Y-100900207D01*
X120604887Y-100900206D01*
X120604889Y-100900204D01*
X120655989Y-100763201D01*
X120662500Y-100702638D01*
X120662500Y-99297362D01*
X120662499Y-99297350D01*
X120655990Y-99236803D01*
X120655988Y-99236795D01*
X120604889Y-99099797D01*
X120604887Y-99099792D01*
X120537961Y-99010390D01*
X120513150Y-98943870D01*
X120528241Y-98874496D01*
X120578444Y-98824294D01*
X120581627Y-98822614D01*
X120703581Y-98760475D01*
X120846588Y-98656574D01*
X120846591Y-98656572D01*
X120971572Y-98531591D01*
X120971574Y-98531588D01*
X121075473Y-98388584D01*
X121155723Y-98231084D01*
X121155724Y-98231082D01*
X121210347Y-98062973D01*
X121210349Y-98062963D01*
X121211769Y-98054000D01*
X120140975Y-98054000D01*
X120180070Y-98014905D01*
X120226148Y-97935095D01*
X120250000Y-97846078D01*
X120250000Y-97753922D01*
X120226148Y-97664905D01*
X120180070Y-97585095D01*
X120140975Y-97546000D01*
X121211769Y-97546000D01*
X121210349Y-97537036D01*
X121210347Y-97537026D01*
X121155724Y-97368917D01*
X121155723Y-97368915D01*
X121075473Y-97211415D01*
X120971574Y-97068411D01*
X120971572Y-97068408D01*
X120846591Y-96943427D01*
X120846588Y-96943425D01*
X120703584Y-96839526D01*
X120546084Y-96759276D01*
X120546078Y-96759273D01*
X120377975Y-96704653D01*
X120203379Y-96677000D01*
X119754000Y-96677000D01*
X119754000Y-97450000D01*
X119246000Y-97450000D01*
X119246000Y-96677000D01*
X118796621Y-96677000D01*
X118622024Y-96704653D01*
X118453921Y-96759273D01*
X118453915Y-96759276D01*
X118296415Y-96839526D01*
X118153411Y-96943425D01*
X118153408Y-96943427D01*
X118028427Y-97068408D01*
X118028425Y-97068411D01*
X117924526Y-97211415D01*
X117844276Y-97368915D01*
X117844275Y-97368917D01*
X117789652Y-97537026D01*
X117789650Y-97537036D01*
X117788230Y-97546000D01*
X115187223Y-97546000D01*
X115000005Y-75875578D01*
X115000000Y-75874489D01*
X115000000Y-67302190D01*
X115020002Y-67234069D01*
X115036905Y-67213095D01*
X120213095Y-62036905D01*
X120275407Y-62002879D01*
X120302190Y-62000000D01*
X131858594Y-62000000D01*
X131926715Y-62020002D01*
X131967712Y-62062999D01*
X132042985Y-62193376D01*
X132207314Y-62399438D01*
X132400519Y-62578706D01*
X132400525Y-62578710D01*
X132618275Y-62727170D01*
X132618279Y-62727172D01*
X132618285Y-62727176D01*
X132855746Y-62841532D01*
X132855749Y-62841532D01*
X132855754Y-62841535D01*
X133107589Y-62919215D01*
X133107591Y-62919215D01*
X133107600Y-62919218D01*
X133368219Y-62958500D01*
X133368223Y-62958500D01*
X133631777Y-62958500D01*
X133631781Y-62958500D01*
X133892400Y-62919218D01*
X133892410Y-62919215D01*
X134144245Y-62841535D01*
X134144247Y-62841534D01*
X134144254Y-62841532D01*
X134381716Y-62727176D01*
X134382356Y-62726740D01*
X134414342Y-62704931D01*
X134599481Y-62578706D01*
X134792686Y-62399438D01*
X134957015Y-62193376D01*
X135032287Y-62062999D01*
X135083669Y-62014007D01*
X135141406Y-62000000D01*
X164750000Y-62000000D01*
X165550000Y-61200000D01*
X167737070Y-61200000D01*
X167756760Y-61462754D01*
X167815392Y-61719634D01*
X167815393Y-61719636D01*
X167911651Y-61964900D01*
X167911653Y-61964904D01*
X168043397Y-62193092D01*
X168043400Y-62193097D01*
X168089670Y-62251117D01*
X168089672Y-62251117D01*
X168975017Y-61365772D01*
X168987482Y-61412292D01*
X169059890Y-61537708D01*
X169162292Y-61640110D01*
X169287708Y-61712518D01*
X169334226Y-61724982D01*
X168448437Y-62610770D01*
X168618532Y-62726739D01*
X168618532Y-62726740D01*
X168855923Y-62841062D01*
X169107704Y-62918728D01*
X169107712Y-62918729D01*
X169368260Y-62958000D01*
X169631740Y-62958000D01*
X169892287Y-62918729D01*
X169892295Y-62918728D01*
X170144076Y-62841062D01*
X170381467Y-62726740D01*
X170551561Y-62610770D01*
X169665773Y-61724982D01*
X169712292Y-61712518D01*
X169837708Y-61640110D01*
X169940110Y-61537708D01*
X170012518Y-61412292D01*
X170024982Y-61365773D01*
X170910327Y-62251118D01*
X170956603Y-62193090D01*
X171088346Y-61964904D01*
X171088348Y-61964900D01*
X171184606Y-61719636D01*
X171184607Y-61719634D01*
X171243239Y-61462754D01*
X171262929Y-61200000D01*
X171243239Y-60937245D01*
X171184607Y-60680365D01*
X171184606Y-60680363D01*
X171088348Y-60435099D01*
X171088346Y-60435095D01*
X170956605Y-60206913D01*
X170956600Y-60206905D01*
X170910328Y-60148881D01*
X170910326Y-60148881D01*
X170024982Y-61034225D01*
X170012518Y-60987708D01*
X169940110Y-60862292D01*
X169837708Y-60759890D01*
X169712292Y-60687482D01*
X169665773Y-60675017D01*
X170551560Y-59789229D01*
X170551560Y-59789228D01*
X170381467Y-59673259D01*
X170144076Y-59558937D01*
X169892295Y-59481271D01*
X169892287Y-59481270D01*
X169631740Y-59442000D01*
X169368260Y-59442000D01*
X169107712Y-59481270D01*
X169107704Y-59481271D01*
X168855923Y-59558937D01*
X168618532Y-59673259D01*
X168618525Y-59673263D01*
X168448438Y-59789227D01*
X168448438Y-59789229D01*
X169334226Y-60675017D01*
X169287708Y-60687482D01*
X169162292Y-60759890D01*
X169059890Y-60862292D01*
X168987482Y-60987708D01*
X168975017Y-61034226D01*
X168089671Y-60148880D01*
X168089670Y-60148881D01*
X168043400Y-60206904D01*
X168043397Y-60206907D01*
X167911653Y-60435095D01*
X167911651Y-60435099D01*
X167815393Y-60680363D01*
X167815392Y-60680365D01*
X167756760Y-60937245D01*
X167737070Y-61200000D01*
X165550000Y-61200000D01*
X168213095Y-58536905D01*
X168275407Y-58502879D01*
X168302190Y-58500000D01*
X170697810Y-58500000D01*
X170765931Y-58520002D01*
G37*
%TD.AperFunction*%
%TD*%
M02*
