%TF.GenerationSoftware,KiCad,Pcbnew,(6.0.7)*%
%TF.CreationDate,2023-03-26T23:22:16+08:00*%
%TF.ProjectId,sx70battery,73783730-6261-4747-9465-72792e6b6963,rev?*%
%TF.SameCoordinates,Original*%
%TF.FileFunction,Copper,L1,Top*%
%TF.FilePolarity,Positive*%
%FSLAX46Y46*%
G04 Gerber Fmt 4.6, Leading zero omitted, Abs format (unit mm)*
G04 Created by KiCad (PCBNEW (6.0.7)) date 2023-03-26 23:22:16*
%MOMM*%
%LPD*%
G01*
G04 APERTURE LIST*
G04 Aperture macros list*
%AMRoundRect*
0 Rectangle with rounded corners*
0 $1 Rounding radius*
0 $2 $3 $4 $5 $6 $7 $8 $9 X,Y pos of 4 corners*
0 Add a 4 corners polygon primitive as box body*
4,1,4,$2,$3,$4,$5,$6,$7,$8,$9,$2,$3,0*
0 Add four circle primitives for the rounded corners*
1,1,$1+$1,$2,$3*
1,1,$1+$1,$4,$5*
1,1,$1+$1,$6,$7*
1,1,$1+$1,$8,$9*
0 Add four rect primitives between the rounded corners*
20,1,$1+$1,$2,$3,$4,$5,0*
20,1,$1+$1,$4,$5,$6,$7,0*
20,1,$1+$1,$6,$7,$8,$9,0*
20,1,$1+$1,$8,$9,$2,$3,0*%
G04 Aperture macros list end*
%TA.AperFunction,SMDPad,CuDef*%
%ADD10RoundRect,0.250000X0.337500X0.475000X-0.337500X0.475000X-0.337500X-0.475000X0.337500X-0.475000X0*%
%TD*%
%TA.AperFunction,ComponentPad*%
%ADD11C,2.000000*%
%TD*%
%TA.AperFunction,SMDPad,CuDef*%
%ADD12RoundRect,0.250000X0.450000X-0.350000X0.450000X0.350000X-0.450000X0.350000X-0.450000X-0.350000X0*%
%TD*%
%TA.AperFunction,SMDPad,CuDef*%
%ADD13R,2.000000X0.650000*%
%TD*%
%TA.AperFunction,SMDPad,CuDef*%
%ADD14R,2.200000X3.900000*%
%TD*%
%TA.AperFunction,SMDPad,CuDef*%
%ADD15RoundRect,0.250000X-0.250000X-0.750000X0.250000X-0.750000X0.250000X0.750000X-0.250000X0.750000X0*%
%TD*%
%TA.AperFunction,SMDPad,CuDef*%
%ADD16RoundRect,0.250000X0.475000X-0.337500X0.475000X0.337500X-0.475000X0.337500X-0.475000X-0.337500X0*%
%TD*%
%TA.AperFunction,ComponentPad*%
%ADD17O,1.100000X1.700000*%
%TD*%
%TA.AperFunction,SMDPad,CuDef*%
%ADD18R,0.700000X1.200000*%
%TD*%
%TA.AperFunction,SMDPad,CuDef*%
%ADD19R,0.760000X1.200000*%
%TD*%
%TA.AperFunction,SMDPad,CuDef*%
%ADD20R,0.800000X1.200000*%
%TD*%
%TA.AperFunction,ComponentPad*%
%ADD21RoundRect,1.680000X-0.420000X-0.820000X0.420000X-0.820000X0.420000X0.820000X-0.420000X0.820000X0*%
%TD*%
%TA.AperFunction,SMDPad,CuDef*%
%ADD22RoundRect,0.250000X-0.350000X-0.450000X0.350000X-0.450000X0.350000X0.450000X-0.350000X0.450000X0*%
%TD*%
%TA.AperFunction,SMDPad,CuDef*%
%ADD23RoundRect,0.250000X-0.450000X0.325000X-0.450000X-0.325000X0.450000X-0.325000X0.450000X0.325000X0*%
%TD*%
%TA.AperFunction,ComponentPad*%
%ADD24C,2.500000*%
%TD*%
%TA.AperFunction,SMDPad,CuDef*%
%ADD25R,0.550000X1.200000*%
%TD*%
%TA.AperFunction,SMDPad,CuDef*%
%ADD26RoundRect,0.500000X-0.500000X-1.500000X0.500000X-1.500000X0.500000X1.500000X-0.500000X1.500000X0*%
%TD*%
%TA.AperFunction,SMDPad,CuDef*%
%ADD27RoundRect,0.250000X-0.450000X0.350000X-0.450000X-0.350000X0.450000X-0.350000X0.450000X0.350000X0*%
%TD*%
%TA.AperFunction,ComponentPad*%
%ADD28R,1.308000X1.308000*%
%TD*%
%TA.AperFunction,ComponentPad*%
%ADD29C,1.308000*%
%TD*%
%TA.AperFunction,ComponentPad*%
%ADD30O,2.460000X1.230000*%
%TD*%
%TA.AperFunction,SMDPad,CuDef*%
%ADD31RoundRect,0.250000X0.325000X0.450000X-0.325000X0.450000X-0.325000X-0.450000X0.325000X-0.450000X0*%
%TD*%
%TA.AperFunction,ComponentPad*%
%ADD32C,10.000000*%
%TD*%
%TA.AperFunction,SMDPad,CuDef*%
%ADD33R,0.650000X1.560000*%
%TD*%
%TA.AperFunction,SMDPad,CuDef*%
%ADD34R,1.800000X2.500000*%
%TD*%
%TA.AperFunction,SMDPad,CuDef*%
%ADD35RoundRect,0.250000X0.350000X0.450000X-0.350000X0.450000X-0.350000X-0.450000X0.350000X-0.450000X0*%
%TD*%
%TA.AperFunction,SMDPad,CuDef*%
%ADD36RoundRect,0.250000X-0.337500X-0.475000X0.337500X-0.475000X0.337500X0.475000X-0.337500X0.475000X0*%
%TD*%
%TA.AperFunction,ViaPad*%
%ADD37C,0.800000*%
%TD*%
%TA.AperFunction,Conductor*%
%ADD38C,0.250000*%
%TD*%
%TA.AperFunction,Conductor*%
%ADD39C,0.500000*%
%TD*%
G04 APERTURE END LIST*
D10*
%TO.P,C7,1*%
%TO.N,Net-(C7-Pad1)*%
X126737500Y-95000000D03*
%TO.P,C7,2*%
%TO.N,GND*%
X124662500Y-95000000D03*
%TD*%
D11*
%TO.P,SW1,1,1*%
%TO.N,/BAT+*%
X124900000Y-62200000D03*
X124900000Y-55700000D03*
%TO.P,SW1,2,2*%
%TO.N,Net-(C7-Pad1)*%
X129400000Y-62200000D03*
X129400000Y-55700000D03*
%TD*%
D12*
%TO.P,R4,1*%
%TO.N,Net-(R3-Pad1)*%
X167000000Y-105100000D03*
%TO.P,R4,2*%
%TO.N,GND*%
X167000000Y-103100000D03*
%TD*%
D13*
%TO.P,U2,1,LX*%
%TO.N,Net-(D1-Pad2)*%
X167010000Y-109750000D03*
%TO.P,U2,2,GND*%
%TO.N,GND*%
X167010000Y-108800000D03*
%TO.P,U2,3,FB*%
%TO.N,Net-(R3-Pad1)*%
X167010000Y-107850000D03*
%TO.P,U2,4,EN*%
%TO.N,/BAT+*%
X163590000Y-107850000D03*
%TO.P,U2,5,VIN*%
X163590000Y-108800000D03*
%TO.P,U2,6,OC*%
%TO.N,Net-(R_OC1-Pad1)*%
X163590000Y-109750000D03*
%TD*%
D12*
%TO.P,R_PROG1,1*%
%TO.N,GND*%
X131800000Y-116050000D03*
%TO.P,R_PROG1,2*%
%TO.N,Net-(R_PROG1-Pad2)*%
X131800000Y-114050000D03*
%TD*%
D14*
%TO.P,L1,1,1*%
%TO.N,Net-(D1-Pad2)*%
X166000000Y-114000000D03*
%TO.P,L1,2,2*%
%TO.N,/BAT+*%
X162200000Y-114000000D03*
%TD*%
D15*
%TO.P,5V+1,1,Pin_1*%
%TO.N,+5V*%
X140970000Y-111125000D03*
%TD*%
D16*
%TO.P,C3,1*%
%TO.N,/BAT+*%
X158600000Y-108237500D03*
%TO.P,C3,2*%
%TO.N,GND*%
X158600000Y-106162500D03*
%TD*%
%TO.P,C5,1*%
%TO.N,+6V*%
X174350000Y-106787500D03*
%TO.P,C5,2*%
%TO.N,GND*%
X174350000Y-104712500D03*
%TD*%
D17*
%TO.P,USB1,1,CASE*%
%TO.N,GND*%
X145680000Y-122400000D03*
X154320000Y-122400000D03*
X145680000Y-118600000D03*
X154320000Y-118600000D03*
D18*
%TO.P,USB1,A5,CC1*%
%TO.N,unconnected-(USB1-PadA5)*%
X149500000Y-118450000D03*
D19*
%TO.P,USB1,A9,VBUS*%
%TO.N,+5V*%
X151520000Y-118450000D03*
D20*
%TO.P,USB1,A12,GND*%
%TO.N,GND*%
X152750000Y-118450000D03*
D18*
%TO.P,USB1,B5,CC2*%
%TO.N,unconnected-(USB1-PadB5)*%
X150500000Y-118450000D03*
D19*
%TO.P,USB1,B9,VBUS*%
%TO.N,+5V*%
X148480000Y-118450000D03*
D20*
%TO.P,USB1,B12,GND*%
%TO.N,GND*%
X147250000Y-118450000D03*
%TD*%
D21*
%TO.P,Bolt2,1,BOLT*%
%TO.N,unconnected-(Bolt2-Pad1)*%
X175000000Y-51000000D03*
%TD*%
D16*
%TO.P,C4,1*%
%TO.N,/BAT+*%
X160800000Y-108237500D03*
%TO.P,C4,2*%
%TO.N,GND*%
X160800000Y-106162500D03*
%TD*%
D22*
%TO.P,R1,1*%
%TO.N,Net-(CHARG1-Pad2)*%
X126635000Y-114300000D03*
%TO.P,R1,2*%
%TO.N,+5V*%
X128635000Y-114300000D03*
%TD*%
D23*
%TO.P,STDBY1,1,K*%
%TO.N,Net-(STDBY1-Pad1)*%
X129540000Y-118990000D03*
%TO.P,STDBY1,2,A*%
%TO.N,Net-(CHARG1-Pad2)*%
X129540000Y-121040000D03*
%TD*%
D24*
%TO.P,Sx70_Pogopin1,1,V+*%
%TO.N,+6V*%
X133500000Y-61200000D03*
%TO.P,Sx70_Pogopin1,2,V-*%
%TO.N,GND*%
X169500000Y-61200000D03*
%TD*%
D25*
%TO.P,U1,1,~{CHRG}*%
%TO.N,Net-(CHARG1-Pad1)*%
X132395000Y-109189900D03*
%TO.P,U1,2,GND*%
%TO.N,GND*%
X131445000Y-109189900D03*
%TO.P,U1,3,BAT*%
%TO.N,/BAT+*%
X130495000Y-109189900D03*
%TO.P,U1,4,VCC*%
%TO.N,+5V*%
X130495000Y-111790100D03*
%TO.P,U1,5,~{STDBY}*%
%TO.N,Net-(STDBY1-Pad1)*%
X131445000Y-111790100D03*
%TO.P,U1,6,PROG*%
%TO.N,Net-(R_PROG1-Pad2)*%
X132395000Y-111790100D03*
%TD*%
D26*
%TO.P,BAT-1,1,Pin_1*%
%TO.N,GND*%
X135255000Y-95250000D03*
%TD*%
D27*
%TO.P,R2,1*%
%TO.N,+6V*%
X169100000Y-99200000D03*
%TO.P,R2,2*%
%TO.N,Net-(R2-Pad2)*%
X169100000Y-101200000D03*
%TD*%
D15*
%TO.P,GND1,1,Pin_1*%
%TO.N,GND*%
X138430000Y-111125000D03*
%TD*%
D10*
%TO.P,C1,1*%
%TO.N,+5V*%
X128672500Y-111760000D03*
%TO.P,C1,2*%
%TO.N,GND*%
X126597500Y-111760000D03*
%TD*%
D23*
%TO.P,CHARG1,1,K*%
%TO.N,Net-(CHARG1-Pad1)*%
X132080000Y-118990000D03*
%TO.P,CHARG1,2,A*%
%TO.N,Net-(CHARG1-Pad2)*%
X132080000Y-121040000D03*
%TD*%
D28*
%TO.P,S1,1*%
%TO.N,Net-(BAT+1-Pad1)*%
X130810000Y-97060000D03*
D29*
%TO.P,S1,2*%
%TO.N,/BAT+*%
X130810000Y-99060000D03*
%TO.P,S1,3*%
%TO.N,GND*%
X130810000Y-101060000D03*
D30*
%TO.P,S1,S1,SHIELD*%
X130810000Y-94860000D03*
%TO.P,S1,S2,SHIELD*%
X130810000Y-103260000D03*
%TD*%
D31*
%TO.P,D2,1,K*%
%TO.N,Net-(D2-Pad1)*%
X122625000Y-101100000D03*
%TO.P,D2,2,A*%
%TO.N,Net-(D2-Pad2)*%
X120575000Y-101100000D03*
%TD*%
D32*
%TO.P,Hole1,1,Hol*%
%TO.N,unconnected-(Hole1-Pad1)*%
X150000000Y-100000000D03*
%TD*%
D26*
%TO.P,BAT+1,1,Pin_1*%
%TO.N,Net-(BAT+1-Pad1)*%
X139700000Y-95250000D03*
%TD*%
%TO.P,6V+1,1,Pin_1*%
%TO.N,+6V*%
X166370000Y-95350000D03*
%TD*%
D33*
%TO.P,U3,1,VDD*%
%TO.N,Net-(C7-Pad1)*%
X126750000Y-101050000D03*
%TO.P,U3,2,GND*%
%TO.N,GND*%
X125800000Y-101050000D03*
%TO.P,U3,3,D4*%
%TO.N,Net-(D2-Pad1)*%
X124850000Y-101050000D03*
%TO.P,U3,4,D3*%
%TO.N,Net-(D3-Pad1)*%
X124850000Y-103750000D03*
%TO.P,U3,5,D2*%
%TO.N,Net-(D4-Pad1)*%
X125800000Y-103750000D03*
%TO.P,U3,6,D1*%
%TO.N,Net-(D5-Pad1)*%
X126750000Y-103750000D03*
%TD*%
D12*
%TO.P,R3,1*%
%TO.N,Net-(R3-Pad1)*%
X169100000Y-105100000D03*
%TO.P,R3,2*%
%TO.N,Net-(R2-Pad2)*%
X169100000Y-103100000D03*
%TD*%
D31*
%TO.P,D4,1,K*%
%TO.N,Net-(D4-Pad1)*%
X122625000Y-105900000D03*
%TO.P,D4,2,A*%
%TO.N,Net-(D2-Pad2)*%
X120575000Y-105900000D03*
%TD*%
D21*
%TO.P,Bolt1,1,BOLT*%
%TO.N,unconnected-(Bolt1-Pad1)*%
X122000000Y-51000000D03*
%TD*%
D34*
%TO.P,D1,1,K*%
%TO.N,+6V*%
X171350000Y-109100000D03*
%TO.P,D1,2,A*%
%TO.N,Net-(D1-Pad2)*%
X171350000Y-113100000D03*
%TD*%
D16*
%TO.P,C6,1*%
%TO.N,+6V*%
X176500000Y-106787500D03*
%TO.P,C6,2*%
%TO.N,GND*%
X176500000Y-104712500D03*
%TD*%
D31*
%TO.P,D3,1,K*%
%TO.N,Net-(D3-Pad1)*%
X122625000Y-103500000D03*
%TO.P,D3,2,A*%
%TO.N,Net-(D2-Pad2)*%
X120575000Y-103500000D03*
%TD*%
D35*
%TO.P,R5,1*%
%TO.N,Net-(C7-Pad1)*%
X126700000Y-97200000D03*
%TO.P,R5,2*%
%TO.N,Net-(D2-Pad2)*%
X124700000Y-97200000D03*
%TD*%
D12*
%TO.P,R_OC1,1*%
%TO.N,Net-(R_OC1-Pad1)*%
X163600000Y-105400000D03*
%TO.P,R_OC1,2*%
%TO.N,GND*%
X163600000Y-103400000D03*
%TD*%
D26*
%TO.P,GND2,1,Pin_1*%
%TO.N,GND*%
X162640000Y-95350000D03*
%TD*%
D36*
%TO.P,C2,1*%
%TO.N,GND*%
X126597500Y-109220000D03*
%TO.P,C2,2*%
%TO.N,/BAT+*%
X128672500Y-109220000D03*
%TD*%
D31*
%TO.P,D5,1,K*%
%TO.N,Net-(D5-Pad1)*%
X122625000Y-108200000D03*
%TO.P,D5,2,A*%
%TO.N,Net-(D2-Pad2)*%
X120575000Y-108200000D03*
%TD*%
D37*
%TO.N,+5V*%
X148000000Y-116400000D03*
X129000000Y-116400000D03*
%TO.N,GND*%
X137160000Y-111125000D03*
X125600000Y-109200000D03*
X131800000Y-117400000D03*
X125300000Y-98950000D03*
X122850000Y-98950000D03*
X165300000Y-104800000D03*
X165300000Y-105700000D03*
X165300000Y-106600000D03*
X165300000Y-110300000D03*
X146900000Y-120600000D03*
X125600000Y-111800000D03*
X153100000Y-120500000D03*
X165300000Y-107600000D03*
X165300000Y-108500000D03*
X131400000Y-107100000D03*
X160600000Y-95350000D03*
%TO.N,Net-(R_OC1-Pad1)*%
X163600000Y-106400000D03*
X163600000Y-110700000D03*
%TO.N,+6V*%
X170450000Y-99200000D03*
X176000000Y-108500000D03*
%TO.N,Net-(C7-Pad1)*%
X126700000Y-92700000D03*
%TD*%
D38*
%TO.N,+5V*%
X148480000Y-118450000D02*
X148480000Y-119780000D01*
X129000000Y-116400000D02*
X128635000Y-116035000D01*
X140800000Y-111125000D02*
X140800000Y-113495000D01*
X140800000Y-113495000D02*
X142240000Y-114935000D01*
X151300000Y-120000000D02*
X151520000Y-119780000D01*
X148700000Y-120000000D02*
X151300000Y-120000000D01*
X151520000Y-119780000D02*
X151520000Y-118450000D01*
X148480000Y-119780000D02*
X148700000Y-120000000D01*
X142240000Y-114935000D02*
X146535000Y-114935000D01*
X146535000Y-114935000D02*
X148000000Y-116400000D01*
X128635000Y-116035000D02*
X128635000Y-114300000D01*
X148480000Y-118450000D02*
X148480000Y-117680000D01*
X148480000Y-117680000D02*
X148000000Y-117200000D01*
X148000000Y-117200000D02*
X148000000Y-116400000D01*
%TO.N,GND*%
X152750000Y-118450000D02*
X152750000Y-120150000D01*
X147250000Y-120250000D02*
X146900000Y-120600000D01*
X125350000Y-98950000D02*
X125800000Y-99400000D01*
X138430000Y-111125000D02*
X137160000Y-111125000D01*
X125800000Y-99400000D02*
X125800000Y-101050000D01*
X147250000Y-118450000D02*
X147250000Y-120250000D01*
X125300000Y-98950000D02*
X125350000Y-98950000D01*
X125600000Y-109200000D02*
X125620000Y-109220000D01*
X165300000Y-107600000D02*
X165300000Y-108500000D01*
X152750000Y-120150000D02*
X153100000Y-120500000D01*
X125620000Y-109220000D02*
X126597500Y-109220000D01*
X126597500Y-111760000D02*
X125640000Y-111760000D01*
X122850000Y-98950000D02*
X125300000Y-98950000D01*
X165300000Y-108500000D02*
X165300000Y-110300000D01*
X131445000Y-107145000D02*
X131400000Y-107100000D01*
X165300000Y-108500000D02*
X165600000Y-108800000D01*
X165600000Y-108800000D02*
X167010000Y-108800000D01*
X125640000Y-111760000D02*
X125600000Y-111800000D01*
X131800000Y-116050000D02*
X131800000Y-117400000D01*
X162640000Y-95350000D02*
X160600000Y-95350000D01*
X131445000Y-109189900D02*
X131445000Y-107145000D01*
%TO.N,Net-(CHARG1-Pad1)*%
X133450000Y-117620000D02*
X132080000Y-118990000D01*
X133450000Y-110244900D02*
X133450000Y-117620000D01*
X132395000Y-109189900D02*
X133450000Y-110244900D01*
%TO.N,Net-(CHARG1-Pad2)*%
X126635000Y-114300000D02*
X126635000Y-115635000D01*
X128000000Y-120400000D02*
X128640000Y-121040000D01*
X126635000Y-115635000D02*
X128000000Y-117000000D01*
X128640000Y-121040000D02*
X132080000Y-121040000D01*
X128000000Y-117000000D02*
X128000000Y-120400000D01*
%TO.N,Net-(R_PROG1-Pad2)*%
X132395000Y-111790100D02*
X132395000Y-112605000D01*
X131800000Y-113200000D02*
X131800000Y-114050000D01*
X132395000Y-112605000D02*
X131800000Y-113200000D01*
%TO.N,Net-(STDBY1-Pad1)*%
X130150000Y-116950000D02*
X129540000Y-117560000D01*
X129540000Y-117560000D02*
X129540000Y-118990000D01*
X130150000Y-113650000D02*
X130150000Y-116950000D01*
X131445000Y-111790100D02*
X131445000Y-112355000D01*
X131445000Y-112355000D02*
X130150000Y-113650000D01*
D39*
%TO.N,/BAT+*%
X150950000Y-108150000D02*
X152600000Y-109800000D01*
X132080000Y-99060000D02*
X133985000Y-100965000D01*
X135890000Y-104630000D02*
X135110000Y-105410000D01*
X133985000Y-100965000D02*
X135255000Y-100965000D01*
X152600000Y-109800000D02*
X157037500Y-109800000D01*
X157037500Y-109800000D02*
X158600000Y-108237500D01*
X135890000Y-101600000D02*
X135890000Y-104630000D01*
X130810000Y-99060000D02*
X132080000Y-99060000D01*
X137850000Y-108150000D02*
X150950000Y-108150000D01*
X135255000Y-100965000D02*
X135890000Y-101600000D01*
X135110000Y-105410000D02*
X137850000Y-108150000D01*
X128905000Y-108987500D02*
X128905000Y-107315000D01*
X130810000Y-105410000D02*
X135110000Y-105410000D01*
X128905000Y-107315000D02*
X130810000Y-105410000D01*
D38*
X128672500Y-109220000D02*
X128905000Y-108987500D01*
%TO.N,Net-(R3-Pad1)*%
X167010000Y-107850000D02*
X167010000Y-105110000D01*
X167000000Y-105100000D02*
X169100000Y-105100000D01*
X167010000Y-105110000D02*
X167000000Y-105100000D01*
%TO.N,Net-(R_OC1-Pad1)*%
X163600000Y-106400000D02*
X163600000Y-105400000D01*
X163590000Y-110690000D02*
X163600000Y-110700000D01*
X163590000Y-109750000D02*
X163590000Y-110690000D01*
D39*
%TO.N,+6V*%
X166370000Y-66040000D02*
X161530000Y-61200000D01*
X167850000Y-95250000D02*
X169100000Y-96500000D01*
X169100000Y-96500000D02*
X169100000Y-99200000D01*
X166370000Y-95250000D02*
X166370000Y-66040000D01*
X169100000Y-99200000D02*
X170450000Y-99200000D01*
X166370000Y-95250000D02*
X167850000Y-95250000D01*
X161530000Y-61200000D02*
X133500000Y-61200000D01*
%TO.N,Net-(BAT+1-Pad1)*%
X139700000Y-98425000D02*
X139065000Y-99060000D01*
X139065000Y-99060000D02*
X134620000Y-99060000D01*
X139700000Y-95250000D02*
X139700000Y-98425000D01*
X132620000Y-97060000D02*
X130810000Y-97060000D01*
X134620000Y-99060000D02*
X132620000Y-97060000D01*
D38*
%TO.N,Net-(C7-Pad1)*%
X126700000Y-97200000D02*
X126700000Y-92700000D01*
X126750000Y-101050000D02*
X126750000Y-97250000D01*
X126750000Y-97250000D02*
X126700000Y-97200000D01*
X129400000Y-55700000D02*
X129400000Y-62200000D01*
%TO.N,Net-(D2-Pad1)*%
X124800000Y-101100000D02*
X124850000Y-101050000D01*
X122625000Y-101100000D02*
X124800000Y-101100000D01*
%TO.N,Net-(D2-Pad2)*%
X121700000Y-97200000D02*
X124700000Y-97200000D01*
X120575000Y-98325000D02*
X121700000Y-97200000D01*
X120575000Y-101100000D02*
X120575000Y-98325000D01*
X120575000Y-101100000D02*
X120575000Y-103500000D01*
X120575000Y-103500000D02*
X120575000Y-105900000D01*
X120575000Y-105900000D02*
X120575000Y-108200000D01*
%TO.N,Net-(D3-Pad1)*%
X124600000Y-103500000D02*
X124850000Y-103750000D01*
X122625000Y-103500000D02*
X124600000Y-103500000D01*
%TO.N,Net-(D4-Pad1)*%
X125800000Y-105100000D02*
X125800000Y-103750000D01*
X122625000Y-105900000D02*
X125000000Y-105900000D01*
X125000000Y-105900000D02*
X125800000Y-105100000D01*
%TO.N,Net-(D5-Pad1)*%
X124400000Y-108200000D02*
X126750000Y-105850000D01*
X122625000Y-108200000D02*
X124400000Y-108200000D01*
X126750000Y-105850000D02*
X126750000Y-103750000D01*
%TD*%
%TA.AperFunction,Conductor*%
%TO.N,GND*%
G36*
X179433621Y-45528502D02*
G01*
X179480114Y-45582158D01*
X179491500Y-45634500D01*
X179491500Y-105460500D01*
X179471498Y-105528621D01*
X179417842Y-105575114D01*
X179365500Y-105586500D01*
X177760444Y-105586500D01*
X177692323Y-105566498D01*
X177645830Y-105512842D01*
X177635726Y-105442568D01*
X177653184Y-105394384D01*
X177662816Y-105378757D01*
X177668963Y-105365576D01*
X177720138Y-105211290D01*
X177723005Y-105197914D01*
X177732672Y-105103562D01*
X177733000Y-105097146D01*
X177733000Y-104984615D01*
X177728525Y-104969376D01*
X177727135Y-104968171D01*
X177719452Y-104966500D01*
X173135116Y-104966500D01*
X173119877Y-104970975D01*
X173118672Y-104972365D01*
X173117001Y-104980048D01*
X173117001Y-105097095D01*
X173117338Y-105103614D01*
X173127257Y-105199206D01*
X173130149Y-105212600D01*
X173181588Y-105366784D01*
X173187759Y-105379956D01*
X173206784Y-105410701D01*
X173225621Y-105479153D01*
X173204460Y-105546923D01*
X173150019Y-105592494D01*
X173121692Y-105601059D01*
X173111301Y-105602906D01*
X173111297Y-105602907D01*
X173105049Y-105604018D01*
X173099150Y-105606357D01*
X173099148Y-105606357D01*
X172973353Y-105656222D01*
X172973346Y-105656226D01*
X172969177Y-105657878D01*
X172965279Y-105660111D01*
X172937901Y-105675794D01*
X172907572Y-105693167D01*
X172904036Y-105695928D01*
X172904032Y-105695931D01*
X172795920Y-105780359D01*
X172792377Y-105783126D01*
X172789268Y-105786364D01*
X172789263Y-105786369D01*
X171818329Y-106797759D01*
X171756724Y-106833048D01*
X171727434Y-106836500D01*
X170252190Y-106836500D01*
X170225615Y-106837924D01*
X170199001Y-106839350D01*
X170198991Y-106839351D01*
X170197308Y-106839441D01*
X170170525Y-106842320D01*
X170168868Y-106842588D01*
X170168857Y-106842590D01*
X170122360Y-106850125D01*
X170122355Y-106850126D01*
X170116248Y-106851116D01*
X170110451Y-106853278D01*
X170110448Y-106853279D01*
X169983521Y-106900622D01*
X169983519Y-106900623D01*
X169979307Y-106902194D01*
X169975364Y-106904347D01*
X169975362Y-106904348D01*
X169946074Y-106920341D01*
X169916995Y-106936220D01*
X169913395Y-106938915D01*
X169803598Y-107021109D01*
X169803594Y-107021113D01*
X169799996Y-107023806D01*
X169473806Y-107349996D01*
X169437083Y-107390877D01*
X169436032Y-107392181D01*
X169436027Y-107392187D01*
X169423860Y-107407285D01*
X169420180Y-107411851D01*
X169419190Y-107413224D01*
X169391638Y-107451430D01*
X169391635Y-107451435D01*
X169388018Y-107456451D01*
X169327302Y-107589400D01*
X169326034Y-107593719D01*
X169313889Y-107635082D01*
X169307300Y-107657521D01*
X169306660Y-107661970D01*
X169306659Y-107661976D01*
X169287139Y-107797743D01*
X169286500Y-107802190D01*
X169286500Y-108974000D01*
X169266498Y-109042121D01*
X169212842Y-109088614D01*
X169160500Y-109100000D01*
X168610289Y-109100000D01*
X168542168Y-109079998D01*
X168527777Y-109069225D01*
X168512135Y-109055671D01*
X168504452Y-109054000D01*
X168404910Y-109054000D01*
X168336789Y-109033998D01*
X168329345Y-109028826D01*
X168324647Y-109025305D01*
X168256705Y-108974385D01*
X168120316Y-108923255D01*
X168113010Y-108922461D01*
X168051576Y-108887365D01*
X168018756Y-108824410D01*
X168025182Y-108753705D01*
X168068814Y-108697698D01*
X168112940Y-108677546D01*
X168120316Y-108676745D01*
X168256705Y-108625615D01*
X168329346Y-108571174D01*
X168395851Y-108546326D01*
X168404910Y-108546000D01*
X168499884Y-108546000D01*
X168515123Y-108541525D01*
X168516328Y-108540135D01*
X168517999Y-108532452D01*
X168517999Y-108430331D01*
X168517629Y-108423510D01*
X168512105Y-108372651D01*
X168507965Y-108355236D01*
X168507966Y-108296942D01*
X168508971Y-108292716D01*
X168511745Y-108285316D01*
X168518500Y-108223134D01*
X168518500Y-107476866D01*
X168511745Y-107414684D01*
X168460615Y-107278295D01*
X168373261Y-107161739D01*
X168256705Y-107074385D01*
X168120316Y-107023255D01*
X168058134Y-107016500D01*
X167769500Y-107016500D01*
X167701379Y-106996498D01*
X167654886Y-106942842D01*
X167643500Y-106890500D01*
X167643500Y-106275861D01*
X167663502Y-106207740D01*
X167717158Y-106161247D01*
X167729624Y-106156337D01*
X167759032Y-106146526D01*
X167773946Y-106141550D01*
X167924348Y-106048478D01*
X167929521Y-106043296D01*
X167929526Y-106043292D01*
X167960871Y-106011892D01*
X168023153Y-105977812D01*
X168093973Y-105982815D01*
X168139061Y-106011735D01*
X168147653Y-106020312D01*
X168176697Y-106049305D01*
X168182927Y-106053145D01*
X168182928Y-106053146D01*
X168320090Y-106137694D01*
X168327262Y-106142115D01*
X168404604Y-106167768D01*
X168488611Y-106195632D01*
X168488613Y-106195632D01*
X168495139Y-106197797D01*
X168501975Y-106198497D01*
X168501978Y-106198498D01*
X168545031Y-106202909D01*
X168599600Y-106208500D01*
X169600400Y-106208500D01*
X169603646Y-106208163D01*
X169603650Y-106208163D01*
X169699308Y-106198238D01*
X169699312Y-106198237D01*
X169706166Y-106197526D01*
X169712702Y-106195345D01*
X169712704Y-106195345D01*
X169844806Y-106151272D01*
X169873946Y-106141550D01*
X170024348Y-106048478D01*
X170149305Y-105923303D01*
X170159460Y-105906829D01*
X170238275Y-105778968D01*
X170238276Y-105778966D01*
X170242115Y-105772738D01*
X170278712Y-105662400D01*
X170295632Y-105611389D01*
X170295632Y-105611387D01*
X170297797Y-105604861D01*
X170308500Y-105500400D01*
X170308500Y-104699600D01*
X170307683Y-104691725D01*
X170298238Y-104600692D01*
X170298237Y-104600688D01*
X170297526Y-104593834D01*
X170293888Y-104582928D01*
X170246331Y-104440385D01*
X173117000Y-104440385D01*
X173121475Y-104455624D01*
X173122865Y-104456829D01*
X173130548Y-104458500D01*
X174077885Y-104458500D01*
X174093124Y-104454025D01*
X174094329Y-104452635D01*
X174096000Y-104444952D01*
X174096000Y-104440385D01*
X174604000Y-104440385D01*
X174608475Y-104455624D01*
X174609865Y-104456829D01*
X174617548Y-104458500D01*
X176227885Y-104458500D01*
X176243124Y-104454025D01*
X176244329Y-104452635D01*
X176246000Y-104444952D01*
X176246000Y-104440385D01*
X176754000Y-104440385D01*
X176758475Y-104455624D01*
X176759865Y-104456829D01*
X176767548Y-104458500D01*
X177714884Y-104458500D01*
X177730123Y-104454025D01*
X177731328Y-104452635D01*
X177732999Y-104444952D01*
X177732999Y-104327905D01*
X177732662Y-104321386D01*
X177722743Y-104225794D01*
X177719851Y-104212400D01*
X177668412Y-104058216D01*
X177662239Y-104045038D01*
X177576937Y-103907193D01*
X177567901Y-103895792D01*
X177453171Y-103781261D01*
X177441760Y-103772249D01*
X177303757Y-103687184D01*
X177290576Y-103681037D01*
X177136290Y-103629862D01*
X177122914Y-103626995D01*
X177028562Y-103617328D01*
X177022145Y-103617000D01*
X176772115Y-103617000D01*
X176756876Y-103621475D01*
X176755671Y-103622865D01*
X176754000Y-103630548D01*
X176754000Y-104440385D01*
X176246000Y-104440385D01*
X176246000Y-103635116D01*
X176241525Y-103619877D01*
X176240135Y-103618672D01*
X176232452Y-103617001D01*
X175977905Y-103617001D01*
X175971386Y-103617338D01*
X175875794Y-103627257D01*
X175862400Y-103630149D01*
X175708216Y-103681588D01*
X175695038Y-103687761D01*
X175557193Y-103773063D01*
X175545792Y-103782099D01*
X175514129Y-103813817D01*
X175451846Y-103847896D01*
X175381026Y-103842893D01*
X175335937Y-103813971D01*
X175303171Y-103781261D01*
X175291760Y-103772249D01*
X175153757Y-103687184D01*
X175140576Y-103681037D01*
X174986290Y-103629862D01*
X174972914Y-103626995D01*
X174878562Y-103617328D01*
X174872145Y-103617000D01*
X174622115Y-103617000D01*
X174606876Y-103621475D01*
X174605671Y-103622865D01*
X174604000Y-103630548D01*
X174604000Y-104440385D01*
X174096000Y-104440385D01*
X174096000Y-103635116D01*
X174091525Y-103619877D01*
X174090135Y-103618672D01*
X174082452Y-103617001D01*
X173827905Y-103617001D01*
X173821386Y-103617338D01*
X173725794Y-103627257D01*
X173712400Y-103630149D01*
X173558216Y-103681588D01*
X173545038Y-103687761D01*
X173407193Y-103773063D01*
X173395792Y-103782099D01*
X173281261Y-103896829D01*
X173272249Y-103908240D01*
X173187184Y-104046243D01*
X173181037Y-104059424D01*
X173129862Y-104213710D01*
X173126995Y-104227086D01*
X173117328Y-104321438D01*
X173117000Y-104327855D01*
X173117000Y-104440385D01*
X170246331Y-104440385D01*
X170243868Y-104433002D01*
X170241550Y-104426054D01*
X170148478Y-104275652D01*
X170061891Y-104189216D01*
X170027812Y-104126934D01*
X170032815Y-104056114D01*
X170061736Y-104011025D01*
X170144134Y-103928483D01*
X170149305Y-103923303D01*
X170153146Y-103917072D01*
X170238275Y-103778968D01*
X170238276Y-103778966D01*
X170242115Y-103772738D01*
X170280014Y-103658475D01*
X170295632Y-103611389D01*
X170295632Y-103611387D01*
X170297797Y-103604861D01*
X170308500Y-103500400D01*
X170308500Y-103417791D01*
X170309783Y-103399859D01*
X170312860Y-103378459D01*
X170312861Y-103378444D01*
X170313500Y-103374000D01*
X170313500Y-100976000D01*
X170309222Y-100936206D01*
X170308500Y-100922738D01*
X170308500Y-100799600D01*
X170297526Y-100693834D01*
X170241550Y-100526054D01*
X170148478Y-100375652D01*
X170061891Y-100289216D01*
X170027812Y-100226934D01*
X170032815Y-100156114D01*
X170061733Y-100111029D01*
X170066678Y-100106075D01*
X170128959Y-100071993D01*
X170182051Y-100071842D01*
X170348056Y-100107128D01*
X170348061Y-100107128D01*
X170354513Y-100108500D01*
X170545487Y-100108500D01*
X170551939Y-100107128D01*
X170551944Y-100107128D01*
X170651336Y-100086001D01*
X170732288Y-100068794D01*
X170771082Y-100051522D01*
X170900722Y-99993803D01*
X170900724Y-99993802D01*
X170906752Y-99991118D01*
X170951716Y-99958450D01*
X171022889Y-99906739D01*
X171061253Y-99878866D01*
X171073110Y-99865698D01*
X171184621Y-99741852D01*
X171184622Y-99741851D01*
X171189040Y-99736944D01*
X171259424Y-99615035D01*
X171281223Y-99577279D01*
X171281224Y-99577278D01*
X171284527Y-99571556D01*
X171343542Y-99389928D01*
X171363504Y-99200000D01*
X171350947Y-99080526D01*
X171344232Y-99016635D01*
X171344232Y-99016633D01*
X171343542Y-99010072D01*
X171284527Y-98828444D01*
X171189040Y-98663056D01*
X171125455Y-98592437D01*
X171065675Y-98526045D01*
X171065674Y-98526044D01*
X171061253Y-98521134D01*
X170935005Y-98429409D01*
X170912094Y-98412763D01*
X170912093Y-98412762D01*
X170906752Y-98408882D01*
X170900724Y-98406198D01*
X170900722Y-98406197D01*
X170738319Y-98333891D01*
X170738318Y-98333891D01*
X170732288Y-98331206D01*
X170638887Y-98311353D01*
X170551944Y-98292872D01*
X170551939Y-98292872D01*
X170545487Y-98291500D01*
X170354513Y-98291500D01*
X170348061Y-98292872D01*
X170348056Y-98292872D01*
X170181995Y-98328170D01*
X170111204Y-98322768D01*
X170066781Y-98294096D01*
X170028488Y-98255870D01*
X170028483Y-98255866D01*
X170023303Y-98250695D01*
X170014016Y-98244970D01*
X169944539Y-98202144D01*
X169918383Y-98186021D01*
X169870891Y-98133250D01*
X169858500Y-98078762D01*
X169858500Y-96567070D01*
X169859933Y-96548120D01*
X169862099Y-96533885D01*
X169862099Y-96533881D01*
X169863199Y-96526651D01*
X169860872Y-96498035D01*
X169858915Y-96473982D01*
X169858500Y-96463767D01*
X169858500Y-96455707D01*
X169855209Y-96427480D01*
X169854778Y-96423121D01*
X169854510Y-96419824D01*
X169848860Y-96350364D01*
X169846605Y-96343403D01*
X169845418Y-96337463D01*
X169844029Y-96331588D01*
X169843182Y-96324319D01*
X169818264Y-96255670D01*
X169816847Y-96251542D01*
X169796607Y-96189064D01*
X169796606Y-96189062D01*
X169794351Y-96182101D01*
X169790555Y-96175846D01*
X169788049Y-96170372D01*
X169785330Y-96164942D01*
X169782833Y-96158063D01*
X169778800Y-96151911D01*
X169742814Y-96097024D01*
X169740467Y-96093305D01*
X169702595Y-96030893D01*
X169695197Y-96022516D01*
X169695224Y-96022492D01*
X169692571Y-96019500D01*
X169689868Y-96016267D01*
X169685856Y-96010148D01*
X169629617Y-95956872D01*
X169627175Y-95954494D01*
X168433770Y-94761089D01*
X168421384Y-94746677D01*
X168412851Y-94735082D01*
X168412846Y-94735077D01*
X168408508Y-94729182D01*
X168402930Y-94724443D01*
X168402927Y-94724440D01*
X168368232Y-94694965D01*
X168360716Y-94688035D01*
X168355021Y-94682340D01*
X168348880Y-94677482D01*
X168332749Y-94664719D01*
X168329345Y-94661928D01*
X168279297Y-94619409D01*
X168279295Y-94619408D01*
X168273715Y-94614667D01*
X168267199Y-94611339D01*
X168262150Y-94607972D01*
X168257021Y-94604805D01*
X168251284Y-94600266D01*
X168185125Y-94569345D01*
X168181225Y-94567439D01*
X168116192Y-94534231D01*
X168109084Y-94532492D01*
X168103441Y-94530393D01*
X168097678Y-94528476D01*
X168091050Y-94525378D01*
X168019583Y-94510513D01*
X168015316Y-94509547D01*
X167988558Y-94502999D01*
X167974551Y-94499572D01*
X167913137Y-94463951D01*
X167880730Y-94400782D01*
X167878500Y-94377183D01*
X167878500Y-93753672D01*
X167878192Y-93747592D01*
X167876056Y-93737000D01*
X167840318Y-93559755D01*
X167840317Y-93559752D01*
X167839100Y-93553716D01*
X167763095Y-93371127D01*
X167759668Y-93366008D01*
X167759666Y-93366004D01*
X167656504Y-93211901D01*
X167656500Y-93211896D01*
X167653073Y-93206777D01*
X167513223Y-93066927D01*
X167508104Y-93063500D01*
X167508099Y-93063496D01*
X167353996Y-92960334D01*
X167353992Y-92960332D01*
X167348873Y-92956905D01*
X167343186Y-92954538D01*
X167343179Y-92954534D01*
X167206079Y-92897465D01*
X167150876Y-92852821D01*
X167128500Y-92781141D01*
X167128500Y-66107070D01*
X167129933Y-66088120D01*
X167132099Y-66073885D01*
X167132099Y-66073881D01*
X167133199Y-66066651D01*
X167128915Y-66013982D01*
X167128500Y-66003767D01*
X167128500Y-65995707D01*
X167125209Y-65967480D01*
X167124778Y-65963121D01*
X167119454Y-65897662D01*
X167119453Y-65897659D01*
X167118860Y-65890364D01*
X167116604Y-65883400D01*
X167115417Y-65877461D01*
X167114030Y-65871590D01*
X167113182Y-65864319D01*
X167110686Y-65857443D01*
X167110684Y-65857434D01*
X167088275Y-65795702D01*
X167086865Y-65791598D01*
X167064352Y-65722101D01*
X167060556Y-65715846D01*
X167058057Y-65710387D01*
X167055329Y-65704939D01*
X167052833Y-65698063D01*
X167012805Y-65637010D01*
X167010481Y-65633327D01*
X166975504Y-65575686D01*
X166975501Y-65575682D01*
X166972595Y-65570893D01*
X166968886Y-65566694D01*
X166968883Y-65566689D01*
X166965197Y-65562516D01*
X166965224Y-65562492D01*
X166962571Y-65559500D01*
X166959868Y-65556267D01*
X166955856Y-65550148D01*
X166899617Y-65496872D01*
X166897175Y-65494494D01*
X164011814Y-62609133D01*
X168455612Y-62609133D01*
X168464325Y-62620653D01*
X168562018Y-62692284D01*
X168569928Y-62697227D01*
X168792890Y-62814533D01*
X168801453Y-62818256D01*
X169039304Y-62901318D01*
X169048313Y-62903732D01*
X169295842Y-62950727D01*
X169305098Y-62951781D01*
X169556857Y-62961673D01*
X169566171Y-62961347D01*
X169816615Y-62933920D01*
X169825792Y-62932219D01*
X170069431Y-62868074D01*
X170078251Y-62865037D01*
X170309736Y-62765583D01*
X170318008Y-62761276D01*
X170532249Y-62628700D01*
X170539188Y-62623658D01*
X170547518Y-62611019D01*
X170541456Y-62600666D01*
X169512812Y-61572022D01*
X169498868Y-61564408D01*
X169497035Y-61564539D01*
X169490420Y-61568790D01*
X168462270Y-62596940D01*
X168455612Y-62609133D01*
X164011814Y-62609133D01*
X162561204Y-61158523D01*
X167737898Y-61158523D01*
X167749987Y-61410175D01*
X167751124Y-61419435D01*
X167800274Y-61666535D01*
X167802768Y-61675528D01*
X167887900Y-61912639D01*
X167891700Y-61921174D01*
X168010946Y-62143101D01*
X168015957Y-62150968D01*
X168079446Y-62235990D01*
X168090704Y-62244439D01*
X168103123Y-62237667D01*
X169127978Y-61212812D01*
X169134356Y-61201132D01*
X169864408Y-61201132D01*
X169864539Y-61202965D01*
X169868790Y-61209580D01*
X170899913Y-62240703D01*
X170912293Y-62247463D01*
X170920634Y-62241219D01*
X171046765Y-62045127D01*
X171051212Y-62036936D01*
X171154691Y-61807222D01*
X171157882Y-61798455D01*
X171226269Y-61555976D01*
X171228129Y-61546834D01*
X171260116Y-61295396D01*
X171260597Y-61289108D01*
X171262847Y-61203160D01*
X171262696Y-61196851D01*
X171243912Y-60944074D01*
X171242536Y-60934868D01*
X171186929Y-60689126D01*
X171184205Y-60680215D01*
X171092888Y-60445392D01*
X171088877Y-60436983D01*
X170963854Y-60218240D01*
X170958643Y-60210514D01*
X170921391Y-60163261D01*
X170909466Y-60154790D01*
X170897934Y-60161276D01*
X169872022Y-61187188D01*
X169864408Y-61201132D01*
X169134356Y-61201132D01*
X169135592Y-61198868D01*
X169135461Y-61197035D01*
X169131210Y-61190420D01*
X168101321Y-60160531D01*
X168088013Y-60153264D01*
X168077974Y-60160386D01*
X168067761Y-60172666D01*
X168062346Y-60180258D01*
X167931646Y-60395646D01*
X167927408Y-60403963D01*
X167829981Y-60636299D01*
X167827020Y-60645149D01*
X167765006Y-60889331D01*
X167763384Y-60898528D01*
X167738143Y-61149198D01*
X167737898Y-61158523D01*
X162561204Y-61158523D01*
X162113770Y-60711089D01*
X162101384Y-60696677D01*
X162092851Y-60685082D01*
X162092846Y-60685077D01*
X162088508Y-60679182D01*
X162082930Y-60674443D01*
X162082927Y-60674440D01*
X162048232Y-60644965D01*
X162040716Y-60638035D01*
X162035021Y-60632340D01*
X162028880Y-60627482D01*
X162012749Y-60614719D01*
X162009345Y-60611928D01*
X161959297Y-60569409D01*
X161959295Y-60569408D01*
X161953715Y-60564667D01*
X161947199Y-60561339D01*
X161942150Y-60557972D01*
X161937021Y-60554805D01*
X161931284Y-60550266D01*
X161865125Y-60519345D01*
X161861225Y-60517439D01*
X161796192Y-60484231D01*
X161789084Y-60482492D01*
X161783441Y-60480393D01*
X161777678Y-60478476D01*
X161771050Y-60475378D01*
X161699583Y-60460513D01*
X161695299Y-60459543D01*
X161624390Y-60442192D01*
X161618788Y-60441844D01*
X161618785Y-60441844D01*
X161613236Y-60441500D01*
X161613238Y-60441464D01*
X161609245Y-60441225D01*
X161605053Y-60440851D01*
X161597885Y-60439360D01*
X161543805Y-60440823D01*
X161520479Y-60441454D01*
X161517072Y-60441500D01*
X135165147Y-60441500D01*
X135097026Y-60421498D01*
X135055754Y-60378023D01*
X134964270Y-60217960D01*
X134961951Y-60213902D01*
X134800138Y-60008643D01*
X134609763Y-59829557D01*
X134551017Y-59788803D01*
X168453216Y-59788803D01*
X168457789Y-59798579D01*
X169487188Y-60827978D01*
X169501132Y-60835592D01*
X169502965Y-60835461D01*
X169509580Y-60831210D01*
X170538419Y-59802371D01*
X170544803Y-59790681D01*
X170535391Y-59778570D01*
X170398593Y-59683670D01*
X170390565Y-59678942D01*
X170164593Y-59567505D01*
X170155960Y-59564017D01*
X169915998Y-59487205D01*
X169906938Y-59485029D01*
X169658260Y-59444529D01*
X169648973Y-59443717D01*
X169397053Y-59440419D01*
X169387742Y-59440989D01*
X169138097Y-59474964D01*
X169128978Y-59476902D01*
X168887098Y-59547404D01*
X168878367Y-59550667D01*
X168649558Y-59656151D01*
X168641406Y-59660670D01*
X168462353Y-59778062D01*
X168453216Y-59788803D01*
X134551017Y-59788803D01*
X134395009Y-59680576D01*
X134354644Y-59660670D01*
X134164781Y-59567040D01*
X134164778Y-59567039D01*
X134160593Y-59564975D01*
X134114449Y-59550204D01*
X133916123Y-59486720D01*
X133911665Y-59485293D01*
X133653693Y-59443279D01*
X133539942Y-59441790D01*
X133397022Y-59439919D01*
X133397019Y-59439919D01*
X133392345Y-59439858D01*
X133133362Y-59475104D01*
X132882433Y-59548243D01*
X132878180Y-59550203D01*
X132878179Y-59550204D01*
X132827888Y-59573389D01*
X132645072Y-59657668D01*
X132606067Y-59683241D01*
X132430404Y-59798410D01*
X132430399Y-59798414D01*
X132426491Y-59800976D01*
X132231494Y-59975018D01*
X132064363Y-60175970D01*
X131928771Y-60399419D01*
X131827697Y-60640455D01*
X131763359Y-60893783D01*
X131737173Y-61153839D01*
X131737397Y-61158505D01*
X131737397Y-61158511D01*
X131743443Y-61284373D01*
X131749713Y-61414908D01*
X131800704Y-61671256D01*
X131889026Y-61917252D01*
X131891242Y-61921376D01*
X131955753Y-62041437D01*
X132012737Y-62147491D01*
X132015532Y-62151234D01*
X132015534Y-62151237D01*
X132166330Y-62353177D01*
X132166335Y-62353183D01*
X132169122Y-62356915D01*
X132172431Y-62360195D01*
X132172436Y-62360201D01*
X132351426Y-62537635D01*
X132354743Y-62540923D01*
X132358505Y-62543681D01*
X132358508Y-62543684D01*
X132527500Y-62667594D01*
X132565524Y-62695474D01*
X132569667Y-62697654D01*
X132569669Y-62697655D01*
X132792684Y-62814989D01*
X132792689Y-62814991D01*
X132796834Y-62817172D01*
X132933897Y-62865037D01*
X133008767Y-62891183D01*
X133043590Y-62903344D01*
X133048183Y-62904216D01*
X133295785Y-62951224D01*
X133295788Y-62951224D01*
X133300374Y-62952095D01*
X133430958Y-62957226D01*
X133556875Y-62962174D01*
X133556881Y-62962174D01*
X133561543Y-62962357D01*
X133640977Y-62953657D01*
X133816707Y-62934412D01*
X133816712Y-62934411D01*
X133821360Y-62933902D01*
X133934116Y-62904216D01*
X134069594Y-62868548D01*
X134069596Y-62868547D01*
X134074117Y-62867357D01*
X134314262Y-62764182D01*
X134462958Y-62672167D01*
X134532547Y-62629104D01*
X134532548Y-62629104D01*
X134536519Y-62626646D01*
X134540082Y-62623629D01*
X134540087Y-62623626D01*
X134732439Y-62460787D01*
X134732440Y-62460786D01*
X134736005Y-62457768D01*
X134827729Y-62353177D01*
X134905257Y-62264774D01*
X134905261Y-62264769D01*
X134908339Y-62261259D01*
X134950913Y-62195070D01*
X135047208Y-62045363D01*
X135047210Y-62045360D01*
X135049733Y-62041437D01*
X135053646Y-62032751D01*
X135099859Y-61978856D01*
X135168528Y-61958500D01*
X161163629Y-61958500D01*
X161231750Y-61978502D01*
X161252724Y-61995405D01*
X165574595Y-66317276D01*
X165608621Y-66379588D01*
X165611500Y-66406371D01*
X165611500Y-92781141D01*
X165591498Y-92849262D01*
X165533921Y-92897465D01*
X165396821Y-92954534D01*
X165396814Y-92954538D01*
X165391127Y-92956905D01*
X165386008Y-92960332D01*
X165386004Y-92960334D01*
X165231901Y-93063496D01*
X165231896Y-93063500D01*
X165226777Y-93066927D01*
X165086927Y-93206777D01*
X165083500Y-93211896D01*
X165083496Y-93211901D01*
X164980334Y-93366004D01*
X164980332Y-93366008D01*
X164976905Y-93371127D01*
X164900900Y-93553716D01*
X164899683Y-93559752D01*
X164899682Y-93559755D01*
X164863944Y-93737000D01*
X164861808Y-93747592D01*
X164861500Y-93753672D01*
X164861500Y-96946328D01*
X164861808Y-96952408D01*
X164862733Y-96956995D01*
X164862733Y-96956996D01*
X164880737Y-97046284D01*
X164900900Y-97146284D01*
X164976905Y-97328873D01*
X164980332Y-97333992D01*
X164980334Y-97333996D01*
X165083496Y-97488099D01*
X165083500Y-97488104D01*
X165086927Y-97493223D01*
X165226777Y-97633073D01*
X165231896Y-97636500D01*
X165231901Y-97636504D01*
X165386004Y-97739666D01*
X165386008Y-97739668D01*
X165391127Y-97743095D01*
X165573716Y-97819100D01*
X165579752Y-97820317D01*
X165579755Y-97820318D01*
X165763004Y-97857267D01*
X165767592Y-97858192D01*
X165773672Y-97858500D01*
X166966328Y-97858500D01*
X166972408Y-97858192D01*
X166976996Y-97857267D01*
X167160245Y-97820318D01*
X167160248Y-97820317D01*
X167166284Y-97819100D01*
X167348873Y-97743095D01*
X167353992Y-97739668D01*
X167353996Y-97739666D01*
X167508099Y-97636504D01*
X167508104Y-97636500D01*
X167513223Y-97633073D01*
X167653073Y-97493223D01*
X167656500Y-97488104D01*
X167656504Y-97488099D01*
X167759666Y-97333996D01*
X167759668Y-97333992D01*
X167763095Y-97328873D01*
X167839100Y-97146284D01*
X167859264Y-97046284D01*
X167877267Y-96956996D01*
X167877267Y-96956995D01*
X167878192Y-96952408D01*
X167878500Y-96946328D01*
X167878500Y-96655371D01*
X167898502Y-96587250D01*
X167952158Y-96540757D01*
X168022432Y-96530653D01*
X168087012Y-96560147D01*
X168093595Y-96566276D01*
X168304595Y-96777276D01*
X168338621Y-96839588D01*
X168341500Y-96866371D01*
X168341500Y-98078689D01*
X168321498Y-98146810D01*
X168281804Y-98185833D01*
X168175652Y-98251522D01*
X168170479Y-98256704D01*
X168145728Y-98281498D01*
X168050695Y-98376697D01*
X168046855Y-98382927D01*
X168046854Y-98382928D01*
X167969612Y-98508238D01*
X167957885Y-98527262D01*
X167950178Y-98550499D01*
X167923337Y-98631423D01*
X167902203Y-98695139D01*
X167891500Y-98799600D01*
X167891500Y-99600400D01*
X167891837Y-99603646D01*
X167891837Y-99603650D01*
X167897568Y-99658878D01*
X167902474Y-99706166D01*
X167904655Y-99712702D01*
X167904655Y-99712704D01*
X167936934Y-99809454D01*
X167958450Y-99873946D01*
X168051522Y-100024348D01*
X168134447Y-100107128D01*
X168138109Y-100110784D01*
X168172188Y-100173066D01*
X168167185Y-100243886D01*
X168138264Y-100288975D01*
X168112019Y-100315266D01*
X168050695Y-100376697D01*
X168046855Y-100382927D01*
X168046854Y-100382928D01*
X167989429Y-100476089D01*
X167957885Y-100527262D01*
X167955581Y-100534209D01*
X167904444Y-100688384D01*
X167902203Y-100695139D01*
X167891500Y-100799600D01*
X167891500Y-100932209D01*
X167890217Y-100950141D01*
X167887140Y-100971541D01*
X167887139Y-100971556D01*
X167886500Y-100976000D01*
X167886500Y-101921603D01*
X167866498Y-101989724D01*
X167812842Y-102036217D01*
X167742568Y-102046321D01*
X167720832Y-102041196D01*
X167611290Y-102004862D01*
X167597914Y-102001995D01*
X167503562Y-101992328D01*
X167497145Y-101992000D01*
X167272115Y-101992000D01*
X167256876Y-101996475D01*
X167255671Y-101997865D01*
X167254000Y-102005548D01*
X167254000Y-103228000D01*
X167233998Y-103296121D01*
X167180342Y-103342614D01*
X167128000Y-103354000D01*
X165810116Y-103354000D01*
X165794877Y-103358475D01*
X165793672Y-103359865D01*
X165792001Y-103367548D01*
X165792001Y-103497095D01*
X165792338Y-103503614D01*
X165802257Y-103599206D01*
X165805149Y-103612600D01*
X165856588Y-103766784D01*
X165862761Y-103779962D01*
X165948063Y-103917807D01*
X165957099Y-103929208D01*
X166038462Y-104010430D01*
X166072541Y-104072713D01*
X166067538Y-104143533D01*
X166038617Y-104188620D01*
X165955870Y-104271512D01*
X165955866Y-104271517D01*
X165950695Y-104276697D01*
X165946855Y-104282927D01*
X165946854Y-104282928D01*
X165862580Y-104419646D01*
X165857885Y-104427262D01*
X165849469Y-104452635D01*
X165806717Y-104581531D01*
X165802203Y-104595139D01*
X165801503Y-104601975D01*
X165801502Y-104601978D01*
X165799958Y-104617050D01*
X165791500Y-104699600D01*
X165791500Y-105500400D01*
X165791837Y-105503646D01*
X165791837Y-105503650D01*
X165800800Y-105590030D01*
X165802474Y-105606166D01*
X165804655Y-105612702D01*
X165804655Y-105612704D01*
X165821235Y-105662400D01*
X165858450Y-105773946D01*
X165951522Y-105924348D01*
X166076697Y-106049305D01*
X166082927Y-106053145D01*
X166082928Y-106053146D01*
X166220090Y-106137694D01*
X166227262Y-106142115D01*
X166284943Y-106161247D01*
X166290168Y-106162980D01*
X166348528Y-106203411D01*
X166375764Y-106268975D01*
X166376500Y-106282573D01*
X166376500Y-106890500D01*
X166356498Y-106958621D01*
X166302842Y-107005114D01*
X166250500Y-107016500D01*
X165961866Y-107016500D01*
X165899684Y-107023255D01*
X165763295Y-107074385D01*
X165646739Y-107161739D01*
X165644712Y-107164444D01*
X165584870Y-107197121D01*
X165558087Y-107200000D01*
X165041913Y-107200000D01*
X164973792Y-107179998D01*
X164956503Y-107166065D01*
X164953261Y-107161739D01*
X164836705Y-107074385D01*
X164700316Y-107023255D01*
X164638134Y-107016500D01*
X164511347Y-107016500D01*
X164443226Y-106996498D01*
X164396733Y-106942842D01*
X164386629Y-106872568D01*
X164402228Y-106827500D01*
X164431223Y-106777279D01*
X164431224Y-106777278D01*
X164434527Y-106771556D01*
X164493542Y-106589928D01*
X164497371Y-106553502D01*
X164513504Y-106400000D01*
X164516298Y-106400294D01*
X164532816Y-106344038D01*
X164549641Y-106323141D01*
X164644134Y-106228483D01*
X164649305Y-106223303D01*
X164658632Y-106208172D01*
X164738275Y-106078968D01*
X164738276Y-106078966D01*
X164742115Y-106072738D01*
X164789962Y-105928483D01*
X164795632Y-105911389D01*
X164795632Y-105911387D01*
X164797797Y-105904861D01*
X164798813Y-105894952D01*
X164808172Y-105803598D01*
X164808500Y-105800400D01*
X164808500Y-104999600D01*
X164806770Y-104982928D01*
X164798238Y-104900692D01*
X164798237Y-104900688D01*
X164797526Y-104893834D01*
X164795306Y-104887178D01*
X164743868Y-104733002D01*
X164741550Y-104726054D01*
X164648478Y-104575652D01*
X164561537Y-104488862D01*
X164527458Y-104426579D01*
X164532461Y-104355759D01*
X164561382Y-104310671D01*
X164643739Y-104228171D01*
X164652751Y-104216760D01*
X164737816Y-104078757D01*
X164743963Y-104065576D01*
X164795138Y-103911290D01*
X164798005Y-103897914D01*
X164807672Y-103803562D01*
X164808000Y-103797146D01*
X164808000Y-103672115D01*
X164803525Y-103656876D01*
X164802135Y-103655671D01*
X164794452Y-103654000D01*
X162410116Y-103654000D01*
X162394877Y-103658475D01*
X162393672Y-103659865D01*
X162392001Y-103667548D01*
X162392001Y-103797095D01*
X162392338Y-103803614D01*
X162402257Y-103899206D01*
X162405149Y-103912600D01*
X162456588Y-104066784D01*
X162462761Y-104079962D01*
X162548063Y-104217807D01*
X162557099Y-104229208D01*
X162638462Y-104310430D01*
X162672541Y-104372713D01*
X162667538Y-104443533D01*
X162638617Y-104488620D01*
X162555870Y-104571512D01*
X162555866Y-104571517D01*
X162550695Y-104576697D01*
X162546855Y-104582927D01*
X162546854Y-104582928D01*
X162466530Y-104713238D01*
X162457885Y-104727262D01*
X162441712Y-104776023D01*
X162404844Y-104887178D01*
X162402203Y-104895139D01*
X162391500Y-104999600D01*
X162391500Y-105800400D01*
X162391837Y-105803646D01*
X162391837Y-105803650D01*
X162400837Y-105890385D01*
X162402474Y-105906166D01*
X162404655Y-105912702D01*
X162404655Y-105912704D01*
X162426377Y-105977812D01*
X162458450Y-106073946D01*
X162551522Y-106224348D01*
X162589120Y-106261880D01*
X162650204Y-106322858D01*
X162684283Y-106385140D01*
X162685894Y-106400063D01*
X162686496Y-106400000D01*
X162702630Y-106553502D01*
X162706458Y-106589928D01*
X162765473Y-106771556D01*
X162780453Y-106797501D01*
X162797190Y-106866495D01*
X162773970Y-106933587D01*
X162718163Y-106977474D01*
X162671333Y-106986500D01*
X162086813Y-106986500D01*
X162018692Y-106966498D01*
X161972199Y-106912842D01*
X161962095Y-106842568D01*
X161967220Y-106820833D01*
X162020137Y-106661293D01*
X162023005Y-106647914D01*
X162032672Y-106553562D01*
X162033000Y-106547146D01*
X162033000Y-106434615D01*
X162028525Y-106419376D01*
X162027135Y-106418171D01*
X162019452Y-106416500D01*
X157385116Y-106416500D01*
X157369877Y-106420975D01*
X157368672Y-106422365D01*
X157367001Y-106430048D01*
X157367001Y-106547095D01*
X157367338Y-106553614D01*
X157377257Y-106649206D01*
X157380149Y-106662600D01*
X157432869Y-106820624D01*
X157435453Y-106891574D01*
X157399269Y-106952658D01*
X157335805Y-106984482D01*
X157313345Y-106986500D01*
X156456116Y-106986500D01*
X156432203Y-106988097D01*
X156389919Y-106990921D01*
X156389911Y-106990922D01*
X156387827Y-106991061D01*
X156354610Y-106995518D01*
X156352562Y-106995933D01*
X156352552Y-106995935D01*
X156307291Y-107005114D01*
X156287527Y-107009122D01*
X156281465Y-107011754D01*
X156281464Y-107011754D01*
X156173903Y-107058450D01*
X156153458Y-107067326D01*
X156149627Y-107069688D01*
X156149622Y-107069690D01*
X156096853Y-107102216D01*
X156096849Y-107102219D01*
X156093020Y-107104579D01*
X155980779Y-107198197D01*
X155977773Y-107201537D01*
X155977772Y-107201538D01*
X155151503Y-108119614D01*
X155151489Y-108119631D01*
X155150663Y-108120548D01*
X155124180Y-108152478D01*
X155111837Y-108168647D01*
X155088018Y-108202612D01*
X155085622Y-108207859D01*
X155085620Y-108207862D01*
X155073766Y-108233819D01*
X155027302Y-108335561D01*
X155007300Y-108403682D01*
X155006660Y-108408131D01*
X155006659Y-108408137D01*
X154987139Y-108543904D01*
X154986500Y-108548351D01*
X154986500Y-108674350D01*
X154966498Y-108742471D01*
X154934610Y-108776251D01*
X154603029Y-109017401D01*
X154536172Y-109041291D01*
X154528919Y-109041500D01*
X152966371Y-109041500D01*
X152898250Y-109021498D01*
X152877276Y-109004595D01*
X151533770Y-107661089D01*
X151521384Y-107646677D01*
X151512851Y-107635082D01*
X151512846Y-107635077D01*
X151508508Y-107629182D01*
X151502930Y-107624443D01*
X151502927Y-107624440D01*
X151468232Y-107594965D01*
X151460716Y-107588035D01*
X151455021Y-107582340D01*
X151435000Y-107566500D01*
X151432749Y-107564719D01*
X151429345Y-107561928D01*
X151379297Y-107519409D01*
X151379295Y-107519408D01*
X151373715Y-107514667D01*
X151367199Y-107511339D01*
X151362150Y-107507972D01*
X151357021Y-107504805D01*
X151351284Y-107500266D01*
X151285125Y-107469345D01*
X151281225Y-107467439D01*
X151270732Y-107462081D01*
X151216192Y-107434231D01*
X151209084Y-107432492D01*
X151203441Y-107430393D01*
X151197678Y-107428476D01*
X151191050Y-107425378D01*
X151119583Y-107410513D01*
X151115299Y-107409543D01*
X151106071Y-107407285D01*
X151044390Y-107392192D01*
X151038788Y-107391844D01*
X151038785Y-107391844D01*
X151033236Y-107391500D01*
X151033238Y-107391464D01*
X151029245Y-107391225D01*
X151025053Y-107390851D01*
X151017885Y-107389360D01*
X150951675Y-107391151D01*
X150940479Y-107391454D01*
X150937072Y-107391500D01*
X138216371Y-107391500D01*
X138148250Y-107371498D01*
X138127276Y-107354595D01*
X136663066Y-105890385D01*
X157367000Y-105890385D01*
X157371475Y-105905624D01*
X157372865Y-105906829D01*
X157380548Y-105908500D01*
X158327885Y-105908500D01*
X158343124Y-105904025D01*
X158344329Y-105902635D01*
X158346000Y-105894952D01*
X158346000Y-105890385D01*
X158854000Y-105890385D01*
X158858475Y-105905624D01*
X158859865Y-105906829D01*
X158867548Y-105908500D01*
X160527885Y-105908500D01*
X160543124Y-105904025D01*
X160544329Y-105902635D01*
X160546000Y-105894952D01*
X160546000Y-105890385D01*
X161054000Y-105890385D01*
X161058475Y-105905624D01*
X161059865Y-105906829D01*
X161067548Y-105908500D01*
X162014884Y-105908500D01*
X162030123Y-105904025D01*
X162031328Y-105902635D01*
X162032999Y-105894952D01*
X162032999Y-105777905D01*
X162032662Y-105771386D01*
X162022743Y-105675794D01*
X162019851Y-105662400D01*
X161968412Y-105508216D01*
X161962239Y-105495038D01*
X161876937Y-105357193D01*
X161867901Y-105345792D01*
X161753171Y-105231261D01*
X161741760Y-105222249D01*
X161603757Y-105137184D01*
X161590576Y-105131037D01*
X161436290Y-105079862D01*
X161422914Y-105076995D01*
X161328562Y-105067328D01*
X161322145Y-105067000D01*
X161072115Y-105067000D01*
X161056876Y-105071475D01*
X161055671Y-105072865D01*
X161054000Y-105080548D01*
X161054000Y-105890385D01*
X160546000Y-105890385D01*
X160546000Y-105085116D01*
X160541525Y-105069877D01*
X160540135Y-105068672D01*
X160532452Y-105067001D01*
X160277905Y-105067001D01*
X160271386Y-105067338D01*
X160175794Y-105077257D01*
X160162400Y-105080149D01*
X160008216Y-105131588D01*
X159995038Y-105137761D01*
X159857193Y-105223063D01*
X159845792Y-105232099D01*
X159789173Y-105288817D01*
X159726891Y-105322896D01*
X159656071Y-105317893D01*
X159610982Y-105288972D01*
X159553171Y-105231261D01*
X159541760Y-105222249D01*
X159403757Y-105137184D01*
X159390576Y-105131037D01*
X159236290Y-105079862D01*
X159222914Y-105076995D01*
X159128562Y-105067328D01*
X159122145Y-105067000D01*
X158872115Y-105067000D01*
X158856876Y-105071475D01*
X158855671Y-105072865D01*
X158854000Y-105080548D01*
X158854000Y-105890385D01*
X158346000Y-105890385D01*
X158346000Y-105085116D01*
X158341525Y-105069877D01*
X158340135Y-105068672D01*
X158332452Y-105067001D01*
X158077905Y-105067001D01*
X158071386Y-105067338D01*
X157975794Y-105077257D01*
X157962400Y-105080149D01*
X157808216Y-105131588D01*
X157795038Y-105137761D01*
X157657193Y-105223063D01*
X157645792Y-105232099D01*
X157531261Y-105346829D01*
X157522249Y-105358240D01*
X157437184Y-105496243D01*
X157431037Y-105509424D01*
X157379862Y-105663710D01*
X157376995Y-105677086D01*
X157367328Y-105771438D01*
X157367000Y-105777855D01*
X157367000Y-105890385D01*
X136663066Y-105890385D01*
X136271776Y-105499095D01*
X136237750Y-105436783D01*
X136242815Y-105365968D01*
X136271776Y-105320905D01*
X136378911Y-105213770D01*
X136393323Y-105201384D01*
X136404918Y-105192851D01*
X136404923Y-105192846D01*
X136410818Y-105188508D01*
X136415557Y-105182930D01*
X136415560Y-105182927D01*
X136445035Y-105148232D01*
X136451965Y-105140716D01*
X136457661Y-105135020D01*
X136459924Y-105132159D01*
X136459929Y-105132154D01*
X136475285Y-105112744D01*
X136478074Y-105109342D01*
X136520596Y-105059291D01*
X136520597Y-105059290D01*
X136525333Y-105053715D01*
X136528661Y-105047198D01*
X136532027Y-105042150D01*
X136535190Y-105037028D01*
X136539735Y-105031284D01*
X136570664Y-104965105D01*
X136572563Y-104961221D01*
X136605769Y-104896192D01*
X136607510Y-104889077D01*
X136609613Y-104883422D01*
X136611522Y-104877683D01*
X136614622Y-104871050D01*
X136629491Y-104799565D01*
X136630461Y-104795282D01*
X136647808Y-104724390D01*
X136648500Y-104713236D01*
X136648535Y-104713238D01*
X136648775Y-104709266D01*
X136649152Y-104705045D01*
X136650641Y-104697885D01*
X136648546Y-104620458D01*
X136648500Y-104617050D01*
X136648500Y-101667070D01*
X136649933Y-101648120D01*
X136652099Y-101633885D01*
X136652099Y-101633881D01*
X136653199Y-101626651D01*
X136652482Y-101617829D01*
X136648915Y-101573982D01*
X136648500Y-101563767D01*
X136648500Y-101555707D01*
X136645209Y-101527480D01*
X136644778Y-101523121D01*
X136644528Y-101520041D01*
X136641264Y-101479917D01*
X136639454Y-101457662D01*
X136639453Y-101457659D01*
X136638860Y-101450364D01*
X136636604Y-101443400D01*
X136635417Y-101437461D01*
X136634030Y-101431590D01*
X136633182Y-101424319D01*
X136630686Y-101417443D01*
X136630684Y-101417434D01*
X136608275Y-101355702D01*
X136606865Y-101351598D01*
X136584352Y-101282101D01*
X136580556Y-101275846D01*
X136578057Y-101270387D01*
X136575329Y-101264939D01*
X136572833Y-101258063D01*
X136532805Y-101197010D01*
X136530481Y-101193327D01*
X136495500Y-101135680D01*
X136495499Y-101135679D01*
X136492595Y-101130893D01*
X136485198Y-101122517D01*
X136485225Y-101122493D01*
X136482570Y-101119499D01*
X136479868Y-101116268D01*
X136475856Y-101110148D01*
X136419617Y-101056872D01*
X136417175Y-101054494D01*
X135838770Y-100476089D01*
X135826384Y-100461677D01*
X135817851Y-100450082D01*
X135817846Y-100450077D01*
X135813508Y-100444182D01*
X135807930Y-100439443D01*
X135807927Y-100439440D01*
X135773232Y-100409965D01*
X135765716Y-100403035D01*
X135760021Y-100397340D01*
X135740480Y-100381880D01*
X135737749Y-100379719D01*
X135734345Y-100376928D01*
X135684297Y-100334409D01*
X135684295Y-100334408D01*
X135678715Y-100329667D01*
X135672199Y-100326339D01*
X135667150Y-100322972D01*
X135662021Y-100319805D01*
X135656284Y-100315266D01*
X135590125Y-100284345D01*
X135586225Y-100282439D01*
X135521192Y-100249231D01*
X135514084Y-100247492D01*
X135508441Y-100245393D01*
X135502678Y-100243476D01*
X135496050Y-100240378D01*
X135450386Y-100230880D01*
X144491368Y-100230880D01*
X144491588Y-100233497D01*
X144491588Y-100233503D01*
X144500573Y-100340500D01*
X144530007Y-100691021D01*
X144530449Y-100693634D01*
X144604407Y-101130893D01*
X144607015Y-101146314D01*
X144638938Y-101270645D01*
X144713070Y-101559371D01*
X144721850Y-101593568D01*
X144873707Y-102029643D01*
X145061522Y-102451482D01*
X145283977Y-102856125D01*
X145285429Y-102858311D01*
X145285433Y-102858317D01*
X145414939Y-103053239D01*
X145539511Y-103240735D01*
X145681999Y-103420510D01*
X145759247Y-103517973D01*
X145826332Y-103602614D01*
X145828145Y-103604544D01*
X145828147Y-103604547D01*
X146116199Y-103911290D01*
X146142429Y-103939222D01*
X146485583Y-104248200D01*
X146590525Y-104327855D01*
X146760442Y-104456829D01*
X146853389Y-104527380D01*
X146855620Y-104528796D01*
X146855626Y-104528800D01*
X147163828Y-104724390D01*
X147243266Y-104774803D01*
X147245593Y-104776019D01*
X147245599Y-104776023D01*
X147650142Y-104987513D01*
X147650147Y-104987515D01*
X147652480Y-104988735D01*
X148078159Y-105167674D01*
X148080667Y-105168489D01*
X148080670Y-105168490D01*
X148514804Y-105309549D01*
X148514808Y-105309550D01*
X148517319Y-105310366D01*
X148838502Y-105385699D01*
X148964303Y-105415205D01*
X148964307Y-105415206D01*
X148966879Y-105415809D01*
X148969496Y-105416196D01*
X148969499Y-105416196D01*
X149421064Y-105482878D01*
X149421068Y-105482878D01*
X149423686Y-105483265D01*
X149884535Y-105512259D01*
X149887167Y-105512204D01*
X149887174Y-105512204D01*
X150063193Y-105508516D01*
X150346194Y-105502588D01*
X150805424Y-105454321D01*
X151259005Y-105367796D01*
X151261534Y-105367090D01*
X151261542Y-105367088D01*
X151701221Y-105244328D01*
X151701232Y-105244324D01*
X151703755Y-105243620D01*
X151988401Y-105137761D01*
X152134082Y-105083583D01*
X152134088Y-105083580D01*
X152136555Y-105082663D01*
X152554368Y-104886055D01*
X152954264Y-104655175D01*
X153333438Y-104391642D01*
X153689230Y-104097305D01*
X153943919Y-103847896D01*
X154017256Y-103776079D01*
X154017258Y-103776077D01*
X154019145Y-103774229D01*
X154026429Y-103765791D01*
X154319134Y-103426688D01*
X154320869Y-103424678D01*
X154536502Y-103127885D01*
X162392000Y-103127885D01*
X162396475Y-103143124D01*
X162397865Y-103144329D01*
X162405548Y-103146000D01*
X163327885Y-103146000D01*
X163343124Y-103141525D01*
X163344329Y-103140135D01*
X163346000Y-103132452D01*
X163346000Y-103127885D01*
X163854000Y-103127885D01*
X163858475Y-103143124D01*
X163859865Y-103144329D01*
X163867548Y-103146000D01*
X164789884Y-103146000D01*
X164805123Y-103141525D01*
X164806328Y-103140135D01*
X164807999Y-103132452D01*
X164807999Y-103002905D01*
X164807662Y-102996386D01*
X164797743Y-102900794D01*
X164794851Y-102887400D01*
X164774996Y-102827885D01*
X165792000Y-102827885D01*
X165796475Y-102843124D01*
X165797865Y-102844329D01*
X165805548Y-102846000D01*
X166727885Y-102846000D01*
X166743124Y-102841525D01*
X166744329Y-102840135D01*
X166746000Y-102832452D01*
X166746000Y-102010116D01*
X166741525Y-101994877D01*
X166740135Y-101993672D01*
X166732452Y-101992001D01*
X166502905Y-101992001D01*
X166496386Y-101992338D01*
X166400794Y-102002257D01*
X166387400Y-102005149D01*
X166233216Y-102056588D01*
X166220038Y-102062761D01*
X166082193Y-102148063D01*
X166070792Y-102157099D01*
X165956261Y-102271829D01*
X165947249Y-102283240D01*
X165862184Y-102421243D01*
X165856037Y-102434424D01*
X165804862Y-102588710D01*
X165801995Y-102602086D01*
X165792328Y-102696438D01*
X165792000Y-102702855D01*
X165792000Y-102827885D01*
X164774996Y-102827885D01*
X164743412Y-102733216D01*
X164737239Y-102720038D01*
X164651937Y-102582193D01*
X164642901Y-102570792D01*
X164528171Y-102456261D01*
X164516760Y-102447249D01*
X164378757Y-102362184D01*
X164365576Y-102356037D01*
X164211290Y-102304862D01*
X164197914Y-102301995D01*
X164103562Y-102292328D01*
X164097145Y-102292000D01*
X163872115Y-102292000D01*
X163856876Y-102296475D01*
X163855671Y-102297865D01*
X163854000Y-102305548D01*
X163854000Y-103127885D01*
X163346000Y-103127885D01*
X163346000Y-102310116D01*
X163341525Y-102294877D01*
X163340135Y-102293672D01*
X163332452Y-102292001D01*
X163102905Y-102292001D01*
X163096386Y-102292338D01*
X163000794Y-102302257D01*
X162987400Y-102305149D01*
X162833216Y-102356588D01*
X162820038Y-102362761D01*
X162682193Y-102448063D01*
X162670792Y-102457099D01*
X162556261Y-102571829D01*
X162547249Y-102583240D01*
X162462184Y-102721243D01*
X162456037Y-102734424D01*
X162404862Y-102888710D01*
X162401995Y-102902086D01*
X162392328Y-102996438D01*
X162392000Y-103002855D01*
X162392000Y-103127885D01*
X154536502Y-103127885D01*
X154592285Y-103051107D01*
X154621508Y-103002855D01*
X154704272Y-102866194D01*
X154831489Y-102656133D01*
X154854342Y-102610097D01*
X155035630Y-102244894D01*
X155036804Y-102242529D01*
X155206789Y-101813196D01*
X155340252Y-101371144D01*
X155343535Y-101355702D01*
X155417119Y-101009514D01*
X155436258Y-100919474D01*
X155494131Y-100461355D01*
X155494604Y-100450082D01*
X155513357Y-100002648D01*
X155513468Y-100000000D01*
X155508391Y-99878866D01*
X155494242Y-99541291D01*
X155494242Y-99541289D01*
X155494131Y-99538645D01*
X155436258Y-99080526D01*
X155406247Y-98939337D01*
X155340798Y-98631423D01*
X155340796Y-98631415D01*
X155340252Y-98628856D01*
X155206789Y-98186804D01*
X155036804Y-97757471D01*
X154831489Y-97343867D01*
X154654712Y-97051972D01*
X154593651Y-96951148D01*
X154593647Y-96951142D01*
X154592285Y-96948893D01*
X154589225Y-96944681D01*
X161132000Y-96944681D01*
X161132077Y-96947733D01*
X161133233Y-96956945D01*
X161170162Y-97140091D01*
X161173752Y-97151833D01*
X161244978Y-97322943D01*
X161250778Y-97333759D01*
X161353885Y-97487779D01*
X161361678Y-97497266D01*
X161492734Y-97628322D01*
X161502221Y-97636115D01*
X161656241Y-97739222D01*
X161667057Y-97745022D01*
X161838167Y-97816248D01*
X161849909Y-97819838D01*
X162033055Y-97856767D01*
X162042267Y-97857923D01*
X162045319Y-97858000D01*
X162367885Y-97858000D01*
X162383124Y-97853525D01*
X162384329Y-97852135D01*
X162386000Y-97844452D01*
X162386000Y-97839885D01*
X162894000Y-97839885D01*
X162898475Y-97855124D01*
X162899865Y-97856329D01*
X162907548Y-97858000D01*
X163234681Y-97858000D01*
X163237733Y-97857923D01*
X163246945Y-97856767D01*
X163430091Y-97819838D01*
X163441833Y-97816248D01*
X163612943Y-97745022D01*
X163623759Y-97739222D01*
X163777779Y-97636115D01*
X163787266Y-97628322D01*
X163918322Y-97497266D01*
X163926115Y-97487779D01*
X164029222Y-97333759D01*
X164035022Y-97322943D01*
X164106248Y-97151833D01*
X164109838Y-97140091D01*
X164146767Y-96956945D01*
X164147923Y-96947733D01*
X164148000Y-96944681D01*
X164148000Y-95622115D01*
X164143525Y-95606876D01*
X164142135Y-95605671D01*
X164134452Y-95604000D01*
X162912115Y-95604000D01*
X162896876Y-95608475D01*
X162895671Y-95609865D01*
X162894000Y-95617548D01*
X162894000Y-97839885D01*
X162386000Y-97839885D01*
X162386000Y-95622115D01*
X162381525Y-95606876D01*
X162380135Y-95605671D01*
X162372452Y-95604000D01*
X161150115Y-95604000D01*
X161134876Y-95608475D01*
X161133671Y-95609865D01*
X161132000Y-95617548D01*
X161132000Y-96944681D01*
X154589225Y-96944681D01*
X154320869Y-96575322D01*
X154186647Y-96419824D01*
X154020874Y-96227774D01*
X154020873Y-96227773D01*
X154019145Y-96225771D01*
X153689230Y-95902695D01*
X153333438Y-95608358D01*
X152954264Y-95344825D01*
X152554368Y-95113945D01*
X152477737Y-95077885D01*
X161132000Y-95077885D01*
X161136475Y-95093124D01*
X161137865Y-95094329D01*
X161145548Y-95096000D01*
X162367885Y-95096000D01*
X162383124Y-95091525D01*
X162384329Y-95090135D01*
X162386000Y-95082452D01*
X162386000Y-95077885D01*
X162894000Y-95077885D01*
X162898475Y-95093124D01*
X162899865Y-95094329D01*
X162907548Y-95096000D01*
X164129885Y-95096000D01*
X164145124Y-95091525D01*
X164146329Y-95090135D01*
X164148000Y-95082452D01*
X164148000Y-93755319D01*
X164147923Y-93752267D01*
X164146767Y-93743055D01*
X164109838Y-93559909D01*
X164106248Y-93548167D01*
X164035022Y-93377057D01*
X164029222Y-93366241D01*
X163926115Y-93212221D01*
X163918322Y-93202734D01*
X163787266Y-93071678D01*
X163777779Y-93063885D01*
X163623759Y-92960778D01*
X163612943Y-92954978D01*
X163441833Y-92883752D01*
X163430091Y-92880162D01*
X163246945Y-92843233D01*
X163237733Y-92842077D01*
X163234681Y-92842000D01*
X162912115Y-92842000D01*
X162896876Y-92846475D01*
X162895671Y-92847865D01*
X162894000Y-92855548D01*
X162894000Y-95077885D01*
X162386000Y-95077885D01*
X162386000Y-92860115D01*
X162381525Y-92844876D01*
X162380135Y-92843671D01*
X162372452Y-92842000D01*
X162045319Y-92842000D01*
X162042267Y-92842077D01*
X162033055Y-92843233D01*
X161849909Y-92880162D01*
X161838167Y-92883752D01*
X161667057Y-92954978D01*
X161656241Y-92960778D01*
X161502221Y-93063885D01*
X161492734Y-93071678D01*
X161361678Y-93202734D01*
X161353885Y-93212221D01*
X161250778Y-93366241D01*
X161244978Y-93377057D01*
X161173752Y-93548167D01*
X161170162Y-93559909D01*
X161133233Y-93743055D01*
X161132077Y-93752267D01*
X161132000Y-93755319D01*
X161132000Y-95077885D01*
X152477737Y-95077885D01*
X152136555Y-94917337D01*
X152134088Y-94916420D01*
X152134082Y-94916417D01*
X151905773Y-94831510D01*
X151703755Y-94756380D01*
X151701232Y-94755676D01*
X151701221Y-94755672D01*
X151261542Y-94632912D01*
X151261534Y-94632910D01*
X151259005Y-94632204D01*
X150805424Y-94545679D01*
X150346194Y-94497412D01*
X150063193Y-94491484D01*
X149887174Y-94487796D01*
X149887167Y-94487796D01*
X149884535Y-94487741D01*
X149423686Y-94516735D01*
X149421068Y-94517122D01*
X149421064Y-94517122D01*
X148969499Y-94583804D01*
X148969496Y-94583804D01*
X148966879Y-94584191D01*
X148964307Y-94584794D01*
X148964303Y-94584795D01*
X148865488Y-94607972D01*
X148517319Y-94689634D01*
X148514808Y-94690450D01*
X148514804Y-94690451D01*
X148080670Y-94831510D01*
X148078159Y-94832326D01*
X147652480Y-95011265D01*
X147650147Y-95012485D01*
X147650142Y-95012487D01*
X147245599Y-95223977D01*
X147245593Y-95223981D01*
X147243266Y-95225197D01*
X147241038Y-95226611D01*
X146855626Y-95471200D01*
X146855620Y-95471204D01*
X146853389Y-95472620D01*
X146851282Y-95474219D01*
X146851281Y-95474220D01*
X146804270Y-95509903D01*
X146485583Y-95751800D01*
X146142429Y-96060778D01*
X146140626Y-96062698D01*
X146140625Y-96062699D01*
X145845064Y-96377439D01*
X145826332Y-96397386D01*
X145824683Y-96399467D01*
X145824680Y-96399470D01*
X145802466Y-96427497D01*
X145539511Y-96759265D01*
X145538048Y-96761467D01*
X145286389Y-97140245D01*
X145283977Y-97143875D01*
X145061522Y-97548518D01*
X144873707Y-97970357D01*
X144721850Y-98406432D01*
X144721195Y-98408983D01*
X144721192Y-98408993D01*
X144686251Y-98545082D01*
X144607015Y-98853686D01*
X144606573Y-98856301D01*
X144606571Y-98856309D01*
X144568647Y-99080526D01*
X144530007Y-99308979D01*
X144510499Y-99541291D01*
X144491935Y-99762371D01*
X144491368Y-99769120D01*
X144491368Y-100230880D01*
X135450386Y-100230880D01*
X135424583Y-100225513D01*
X135420299Y-100224543D01*
X135395476Y-100218469D01*
X135349390Y-100207192D01*
X135343788Y-100206844D01*
X135343785Y-100206844D01*
X135338236Y-100206500D01*
X135338238Y-100206464D01*
X135334245Y-100206225D01*
X135330053Y-100205851D01*
X135322885Y-100204360D01*
X135256675Y-100206151D01*
X135245479Y-100206454D01*
X135242072Y-100206500D01*
X134351371Y-100206500D01*
X134283250Y-100186498D01*
X134262276Y-100169595D01*
X132663770Y-98571089D01*
X132651384Y-98556677D01*
X132642851Y-98545082D01*
X132642846Y-98545077D01*
X132638508Y-98539182D01*
X132632930Y-98534443D01*
X132632927Y-98534440D01*
X132598232Y-98504965D01*
X132590716Y-98498035D01*
X132585021Y-98492340D01*
X132576466Y-98485572D01*
X132562749Y-98474719D01*
X132559345Y-98471928D01*
X132509297Y-98429409D01*
X132509295Y-98429408D01*
X132503715Y-98424667D01*
X132497199Y-98421339D01*
X132492150Y-98417972D01*
X132487021Y-98414805D01*
X132481284Y-98410266D01*
X132415125Y-98379345D01*
X132411225Y-98377439D01*
X132409772Y-98376697D01*
X132346192Y-98344231D01*
X132339084Y-98342492D01*
X132333441Y-98340393D01*
X132327678Y-98338476D01*
X132321050Y-98335378D01*
X132300993Y-98331206D01*
X132249588Y-98320514D01*
X132245299Y-98319543D01*
X132217885Y-98312835D01*
X132174390Y-98302192D01*
X132168788Y-98301844D01*
X132168785Y-98301844D01*
X132163236Y-98301500D01*
X132163238Y-98301464D01*
X132159245Y-98301225D01*
X132155053Y-98300851D01*
X132147885Y-98299360D01*
X132081675Y-98301151D01*
X132070479Y-98301454D01*
X132067072Y-98301500D01*
X131905413Y-98301500D01*
X131837292Y-98281498D01*
X131790799Y-98227842D01*
X131780695Y-98157568D01*
X131810189Y-98092988D01*
X131816318Y-98086405D01*
X131820081Y-98082642D01*
X131827261Y-98077261D01*
X131914615Y-97960705D01*
X131917768Y-97952295D01*
X131937271Y-97900271D01*
X131979912Y-97843506D01*
X132046474Y-97818806D01*
X132055253Y-97818500D01*
X132253629Y-97818500D01*
X132321750Y-97838502D01*
X132342724Y-97855405D01*
X134036230Y-99548911D01*
X134048616Y-99563323D01*
X134057149Y-99574918D01*
X134057154Y-99574923D01*
X134061492Y-99580818D01*
X134067070Y-99585557D01*
X134067073Y-99585560D01*
X134101768Y-99615035D01*
X134109284Y-99621965D01*
X134114979Y-99627660D01*
X134117861Y-99629940D01*
X134137251Y-99645281D01*
X134140655Y-99648072D01*
X134190703Y-99690591D01*
X134196285Y-99695333D01*
X134202801Y-99698661D01*
X134207850Y-99702028D01*
X134212979Y-99705195D01*
X134218716Y-99709734D01*
X134284875Y-99740655D01*
X134288769Y-99742558D01*
X134353808Y-99775769D01*
X134360916Y-99777508D01*
X134366559Y-99779607D01*
X134372322Y-99781524D01*
X134378950Y-99784622D01*
X134386112Y-99786112D01*
X134386113Y-99786112D01*
X134450412Y-99799486D01*
X134454696Y-99800456D01*
X134525610Y-99817808D01*
X134531212Y-99818156D01*
X134531215Y-99818156D01*
X134536764Y-99818500D01*
X134536762Y-99818536D01*
X134540755Y-99818775D01*
X134544947Y-99819149D01*
X134552115Y-99820640D01*
X134629520Y-99818546D01*
X134632928Y-99818500D01*
X138997930Y-99818500D01*
X139016880Y-99819933D01*
X139031115Y-99822099D01*
X139031119Y-99822099D01*
X139038349Y-99823199D01*
X139045641Y-99822606D01*
X139045644Y-99822606D01*
X139091018Y-99818915D01*
X139101233Y-99818500D01*
X139109293Y-99818500D01*
X139126680Y-99816473D01*
X139137507Y-99815211D01*
X139141882Y-99814778D01*
X139207339Y-99809454D01*
X139207342Y-99809453D01*
X139214637Y-99808860D01*
X139221601Y-99806604D01*
X139227560Y-99805413D01*
X139233415Y-99804029D01*
X139240681Y-99803182D01*
X139309327Y-99778265D01*
X139313455Y-99776848D01*
X139375936Y-99756607D01*
X139375938Y-99756606D01*
X139382899Y-99754351D01*
X139389154Y-99750555D01*
X139394628Y-99748049D01*
X139400058Y-99745330D01*
X139406937Y-99742833D01*
X139413525Y-99738514D01*
X139467976Y-99702814D01*
X139471680Y-99700477D01*
X139534107Y-99662595D01*
X139542484Y-99655197D01*
X139542508Y-99655224D01*
X139545500Y-99652571D01*
X139548733Y-99649868D01*
X139554852Y-99645856D01*
X139608128Y-99589617D01*
X139610506Y-99587175D01*
X140188911Y-99008770D01*
X140203323Y-98996384D01*
X140214918Y-98987851D01*
X140214923Y-98987846D01*
X140220818Y-98983508D01*
X140225557Y-98977930D01*
X140225560Y-98977927D01*
X140255035Y-98943232D01*
X140261965Y-98935716D01*
X140267661Y-98930020D01*
X140269924Y-98927159D01*
X140269929Y-98927154D01*
X140285285Y-98907744D01*
X140288074Y-98904342D01*
X140330596Y-98854291D01*
X140330597Y-98854290D01*
X140335333Y-98848715D01*
X140338661Y-98842198D01*
X140342027Y-98837150D01*
X140345190Y-98832028D01*
X140349735Y-98826284D01*
X140380664Y-98760105D01*
X140382563Y-98756221D01*
X140415769Y-98691192D01*
X140417510Y-98684077D01*
X140419613Y-98678422D01*
X140421522Y-98672683D01*
X140424622Y-98666050D01*
X140439491Y-98594565D01*
X140440461Y-98590282D01*
X140457808Y-98519390D01*
X140458500Y-98508236D01*
X140458535Y-98508238D01*
X140458775Y-98504266D01*
X140459152Y-98500045D01*
X140460641Y-98492885D01*
X140458546Y-98415458D01*
X140458500Y-98412050D01*
X140458500Y-97818859D01*
X140478502Y-97750738D01*
X140536079Y-97702535D01*
X140673179Y-97645466D01*
X140673186Y-97645462D01*
X140678873Y-97643095D01*
X140683992Y-97639668D01*
X140683996Y-97639666D01*
X140838099Y-97536504D01*
X140838104Y-97536500D01*
X140843223Y-97533073D01*
X140983073Y-97393223D01*
X140986500Y-97388104D01*
X140986504Y-97388099D01*
X141089666Y-97233996D01*
X141089668Y-97233992D01*
X141093095Y-97228873D01*
X141169100Y-97046284D01*
X141187104Y-96956996D01*
X141207267Y-96856996D01*
X141207267Y-96856995D01*
X141208192Y-96852408D01*
X141208500Y-96846328D01*
X141208500Y-93653672D01*
X141208192Y-93647592D01*
X141190481Y-93559755D01*
X141170318Y-93459755D01*
X141170317Y-93459752D01*
X141169100Y-93453716D01*
X141093095Y-93271127D01*
X141089668Y-93266008D01*
X141089666Y-93266004D01*
X140986504Y-93111901D01*
X140986500Y-93111896D01*
X140983073Y-93106777D01*
X140843223Y-92966927D01*
X140838104Y-92963500D01*
X140838099Y-92963496D01*
X140683996Y-92860334D01*
X140683992Y-92860332D01*
X140678873Y-92856905D01*
X140496284Y-92780900D01*
X140490248Y-92779683D01*
X140490245Y-92779682D01*
X140306996Y-92742733D01*
X140306995Y-92742733D01*
X140302408Y-92741808D01*
X140296328Y-92741500D01*
X139103672Y-92741500D01*
X139097592Y-92741808D01*
X139093005Y-92742733D01*
X139093004Y-92742733D01*
X138909755Y-92779682D01*
X138909752Y-92779683D01*
X138903716Y-92780900D01*
X138721127Y-92856905D01*
X138716008Y-92860332D01*
X138716004Y-92860334D01*
X138561901Y-92963496D01*
X138561896Y-92963500D01*
X138556777Y-92966927D01*
X138416927Y-93106777D01*
X138413500Y-93111896D01*
X138413496Y-93111901D01*
X138310334Y-93266004D01*
X138310332Y-93266008D01*
X138306905Y-93271127D01*
X138230900Y-93453716D01*
X138229683Y-93459752D01*
X138229682Y-93459755D01*
X138209519Y-93559755D01*
X138191808Y-93647592D01*
X138191500Y-93653672D01*
X138191500Y-96846328D01*
X138191808Y-96852408D01*
X138192733Y-96856995D01*
X138192733Y-96856996D01*
X138212897Y-96956996D01*
X138230900Y-97046284D01*
X138306905Y-97228873D01*
X138310332Y-97233992D01*
X138310334Y-97233996D01*
X138413496Y-97388099D01*
X138413500Y-97388104D01*
X138416927Y-97393223D01*
X138556777Y-97533073D01*
X138561896Y-97536500D01*
X138561901Y-97536504D01*
X138716004Y-97639666D01*
X138716008Y-97639668D01*
X138721127Y-97643095D01*
X138726814Y-97645462D01*
X138726821Y-97645466D01*
X138863921Y-97702535D01*
X138919124Y-97747179D01*
X138941500Y-97818859D01*
X138941500Y-98058629D01*
X138921498Y-98126750D01*
X138904595Y-98147724D01*
X138787724Y-98264595D01*
X138725412Y-98298621D01*
X138698629Y-98301500D01*
X134986371Y-98301500D01*
X134918250Y-98281498D01*
X134897276Y-98264595D01*
X134605776Y-97973095D01*
X134571750Y-97910783D01*
X134576815Y-97839968D01*
X134619362Y-97783132D01*
X134685882Y-97758321D01*
X134694871Y-97758000D01*
X134982885Y-97758000D01*
X134998124Y-97753525D01*
X134999329Y-97752135D01*
X135001000Y-97744452D01*
X135001000Y-97739885D01*
X135509000Y-97739885D01*
X135513475Y-97755124D01*
X135514865Y-97756329D01*
X135522548Y-97758000D01*
X135849681Y-97758000D01*
X135852733Y-97757923D01*
X135861945Y-97756767D01*
X136045091Y-97719838D01*
X136056833Y-97716248D01*
X136227943Y-97645022D01*
X136238759Y-97639222D01*
X136392779Y-97536115D01*
X136402266Y-97528322D01*
X136533322Y-97397266D01*
X136541115Y-97387779D01*
X136644222Y-97233759D01*
X136650022Y-97222943D01*
X136721248Y-97051833D01*
X136724838Y-97040091D01*
X136761767Y-96856945D01*
X136762923Y-96847733D01*
X136763000Y-96844681D01*
X136763000Y-95522115D01*
X136758525Y-95506876D01*
X136757135Y-95505671D01*
X136749452Y-95504000D01*
X135527115Y-95504000D01*
X135511876Y-95508475D01*
X135510671Y-95509865D01*
X135509000Y-95517548D01*
X135509000Y-97739885D01*
X135001000Y-97739885D01*
X135001000Y-95522115D01*
X134996525Y-95506876D01*
X134995135Y-95505671D01*
X134987452Y-95504000D01*
X133765115Y-95504000D01*
X133749876Y-95508475D01*
X133748671Y-95509865D01*
X133747000Y-95517548D01*
X133747000Y-96810129D01*
X133726998Y-96878250D01*
X133673342Y-96924743D01*
X133603068Y-96934847D01*
X133538488Y-96905353D01*
X133531905Y-96899224D01*
X133203770Y-96571089D01*
X133191384Y-96556677D01*
X133182851Y-96545082D01*
X133182846Y-96545077D01*
X133178508Y-96539182D01*
X133172930Y-96534443D01*
X133172927Y-96534440D01*
X133138232Y-96504965D01*
X133130716Y-96498035D01*
X133125021Y-96492340D01*
X133109636Y-96480168D01*
X133102749Y-96474719D01*
X133099345Y-96471928D01*
X133049297Y-96429409D01*
X133049295Y-96429408D01*
X133043715Y-96424667D01*
X133037199Y-96421339D01*
X133032150Y-96417972D01*
X133027021Y-96414805D01*
X133021284Y-96410266D01*
X132955125Y-96379345D01*
X132951225Y-96377439D01*
X132886192Y-96344231D01*
X132879084Y-96342492D01*
X132873441Y-96340393D01*
X132867678Y-96338476D01*
X132861050Y-96335378D01*
X132789583Y-96320513D01*
X132785299Y-96319543D01*
X132714390Y-96302192D01*
X132708788Y-96301844D01*
X132708785Y-96301844D01*
X132703236Y-96301500D01*
X132703238Y-96301464D01*
X132699245Y-96301225D01*
X132695053Y-96300851D01*
X132687885Y-96299360D01*
X132621675Y-96301151D01*
X132610479Y-96301454D01*
X132607072Y-96301500D01*
X132055253Y-96301500D01*
X131987132Y-96281498D01*
X131940639Y-96227842D01*
X131937271Y-96219729D01*
X131917768Y-96167705D01*
X131917767Y-96167703D01*
X131914615Y-96159295D01*
X131909230Y-96152110D01*
X131909229Y-96152108D01*
X131848161Y-96070625D01*
X131823313Y-96004118D01*
X131838366Y-95934736D01*
X131891295Y-95883044D01*
X132029118Y-95812061D01*
X132039166Y-95805610D01*
X132198248Y-95680650D01*
X132206897Y-95672413D01*
X132339478Y-95519627D01*
X132346414Y-95509903D01*
X132447711Y-95334806D01*
X132452685Y-95323942D01*
X132519048Y-95132836D01*
X132519934Y-95129199D01*
X132518336Y-95117993D01*
X132504767Y-95114000D01*
X129119168Y-95114000D01*
X129105637Y-95117973D01*
X129104282Y-95127398D01*
X129126947Y-95221443D01*
X129130836Y-95232738D01*
X129214567Y-95416893D01*
X129220514Y-95427235D01*
X129337562Y-95592243D01*
X129345355Y-95601272D01*
X129491489Y-95741165D01*
X129500864Y-95748569D01*
X129670804Y-95858297D01*
X129681412Y-95863796D01*
X129717886Y-95878495D01*
X129773592Y-95922510D01*
X129796659Y-95989655D01*
X129779762Y-96058612D01*
X129771614Y-96070926D01*
X129705385Y-96159295D01*
X129654255Y-96295684D01*
X129647500Y-96357866D01*
X129647500Y-97762134D01*
X129654255Y-97824316D01*
X129705385Y-97960705D01*
X129792739Y-98077261D01*
X129866865Y-98132815D01*
X129885286Y-98146621D01*
X129927801Y-98203480D01*
X129932827Y-98274299D01*
X129908671Y-98325453D01*
X129872202Y-98371714D01*
X129830869Y-98424145D01*
X129828180Y-98429256D01*
X129828178Y-98429259D01*
X129777889Y-98524844D01*
X129731389Y-98613225D01*
X129729675Y-98618746D01*
X129729673Y-98618750D01*
X129672519Y-98802817D01*
X129668032Y-98817267D01*
X129642920Y-99029439D01*
X129656894Y-99242634D01*
X129709485Y-99449713D01*
X129798933Y-99643740D01*
X129802266Y-99648456D01*
X129911615Y-99803182D01*
X129922241Y-99818218D01*
X129926383Y-99822253D01*
X129999390Y-99893373D01*
X130075281Y-99967302D01*
X130080084Y-99970512D01*
X130080085Y-99970512D01*
X130142655Y-100012320D01*
X130189004Y-100068727D01*
X130196875Y-100087665D01*
X130797188Y-100687978D01*
X130811132Y-100695592D01*
X130812965Y-100695461D01*
X130819580Y-100691210D01*
X131419435Y-100091355D01*
X131434928Y-100062983D01*
X131471514Y-100022447D01*
X131471268Y-100022151D01*
X131473325Y-100020440D01*
X131475703Y-100018462D01*
X131475708Y-100018459D01*
X131601403Y-99913919D01*
X131635533Y-99885533D01*
X131639226Y-99881093D01*
X131643314Y-99877005D01*
X131644879Y-99878570D01*
X131695778Y-99844400D01*
X131766760Y-99842978D01*
X131822785Y-99875466D01*
X133401227Y-101453907D01*
X133413613Y-101468319D01*
X133422149Y-101479917D01*
X133426492Y-101485818D01*
X133432070Y-101490557D01*
X133432073Y-101490560D01*
X133466775Y-101520041D01*
X133474291Y-101526971D01*
X133479980Y-101532660D01*
X133482834Y-101534918D01*
X133482844Y-101534927D01*
X133502242Y-101550274D01*
X133505642Y-101553062D01*
X133555707Y-101595595D01*
X133555711Y-101595598D01*
X133561285Y-101600333D01*
X133567800Y-101603660D01*
X133572837Y-101607019D01*
X133577975Y-101610192D01*
X133583716Y-101614734D01*
X133649875Y-101645655D01*
X133653769Y-101647558D01*
X133718808Y-101680769D01*
X133725917Y-101682508D01*
X133731551Y-101684604D01*
X133737321Y-101686523D01*
X133743950Y-101689622D01*
X133751113Y-101691112D01*
X133751116Y-101691113D01*
X133801830Y-101701661D01*
X133815435Y-101704491D01*
X133819701Y-101705457D01*
X133890610Y-101722808D01*
X133896212Y-101723156D01*
X133896215Y-101723156D01*
X133901764Y-101723500D01*
X133901762Y-101723535D01*
X133905734Y-101723775D01*
X133909955Y-101724152D01*
X133917115Y-101725641D01*
X133994542Y-101723546D01*
X133997950Y-101723500D01*
X134888629Y-101723500D01*
X134956750Y-101743502D01*
X134977724Y-101760405D01*
X135094595Y-101877276D01*
X135128621Y-101939588D01*
X135131500Y-101966371D01*
X135131500Y-104263629D01*
X135111498Y-104331750D01*
X135094595Y-104352724D01*
X134832724Y-104614595D01*
X134770412Y-104648621D01*
X134743629Y-104651500D01*
X130877070Y-104651500D01*
X130858120Y-104650067D01*
X130843885Y-104647901D01*
X130843881Y-104647901D01*
X130836651Y-104646801D01*
X130829359Y-104647394D01*
X130829356Y-104647394D01*
X130783982Y-104651085D01*
X130773767Y-104651500D01*
X130765707Y-104651500D01*
X130762073Y-104651924D01*
X130762067Y-104651924D01*
X130749042Y-104653443D01*
X130737480Y-104654791D01*
X130733132Y-104655221D01*
X130660364Y-104661140D01*
X130653403Y-104663395D01*
X130647463Y-104664582D01*
X130641588Y-104665971D01*
X130634319Y-104666818D01*
X130565670Y-104691736D01*
X130561542Y-104693153D01*
X130499064Y-104713393D01*
X130499062Y-104713394D01*
X130492101Y-104715649D01*
X130485846Y-104719445D01*
X130480372Y-104721951D01*
X130474942Y-104724670D01*
X130468063Y-104727167D01*
X130461943Y-104731180D01*
X130461942Y-104731180D01*
X130407024Y-104767186D01*
X130403320Y-104769523D01*
X130340893Y-104807405D01*
X130332516Y-104814803D01*
X130332492Y-104814776D01*
X130329500Y-104817429D01*
X130326267Y-104820132D01*
X130320148Y-104824144D01*
X130282501Y-104863885D01*
X130266872Y-104880383D01*
X130264494Y-104882825D01*
X128416089Y-106731230D01*
X128401677Y-106743616D01*
X128390082Y-106752149D01*
X128390077Y-106752154D01*
X128384182Y-106756492D01*
X128379443Y-106762070D01*
X128379440Y-106762073D01*
X128349965Y-106796768D01*
X128343035Y-106804284D01*
X128337340Y-106809979D01*
X128335060Y-106812861D01*
X128319719Y-106832251D01*
X128316928Y-106835655D01*
X128285568Y-106872568D01*
X128269667Y-106891285D01*
X128266339Y-106897801D01*
X128262972Y-106902850D01*
X128259805Y-106907979D01*
X128255266Y-106913716D01*
X128224345Y-106979875D01*
X128222442Y-106983769D01*
X128189231Y-107048808D01*
X128187492Y-107055916D01*
X128185393Y-107061559D01*
X128183476Y-107067322D01*
X128180378Y-107073950D01*
X128178888Y-107081112D01*
X128178888Y-107081113D01*
X128165514Y-107145412D01*
X128164544Y-107149696D01*
X128147192Y-107220610D01*
X128146500Y-107231764D01*
X128146464Y-107231762D01*
X128146225Y-107235755D01*
X128145851Y-107239947D01*
X128144360Y-107247115D01*
X128145329Y-107282928D01*
X128146454Y-107324521D01*
X128146500Y-107327928D01*
X128146500Y-107917471D01*
X128126498Y-107985592D01*
X128072842Y-108032085D01*
X128060376Y-108036995D01*
X128011054Y-108053450D01*
X127860652Y-108146522D01*
X127735695Y-108271697D01*
X127732898Y-108276235D01*
X127675647Y-108316824D01*
X127604724Y-108320054D01*
X127543313Y-108284428D01*
X127535938Y-108275932D01*
X127527902Y-108265793D01*
X127413171Y-108151261D01*
X127401760Y-108142249D01*
X127263757Y-108057184D01*
X127250576Y-108051037D01*
X127096290Y-107999862D01*
X127082914Y-107996995D01*
X126988562Y-107987328D01*
X126982145Y-107987000D01*
X126869615Y-107987000D01*
X126854376Y-107991475D01*
X126853171Y-107992865D01*
X126851500Y-108000548D01*
X126851500Y-110434882D01*
X126855643Y-110448992D01*
X126857868Y-110511273D01*
X126851500Y-110540547D01*
X126851500Y-111888000D01*
X126831498Y-111956121D01*
X126777842Y-112002614D01*
X126725500Y-112014000D01*
X125520116Y-112014000D01*
X125504877Y-112018475D01*
X125503672Y-112019865D01*
X125502001Y-112027548D01*
X125502001Y-112282095D01*
X125502338Y-112288614D01*
X125512257Y-112384206D01*
X125515149Y-112397600D01*
X125566588Y-112551784D01*
X125572761Y-112564962D01*
X125658063Y-112702807D01*
X125667099Y-112714208D01*
X125781829Y-112828739D01*
X125793240Y-112837751D01*
X125931243Y-112922816D01*
X125951057Y-112932056D01*
X125950219Y-112933852D01*
X126000364Y-112968593D01*
X126027599Y-113034158D01*
X126015064Y-113104039D01*
X125966738Y-113156050D01*
X125964172Y-113157410D01*
X125961054Y-113158450D01*
X125954834Y-113162299D01*
X125954832Y-113162300D01*
X125840008Y-113233356D01*
X125810652Y-113251522D01*
X125685695Y-113376697D01*
X125681855Y-113382927D01*
X125681854Y-113382928D01*
X125605409Y-113506945D01*
X125592885Y-113527262D01*
X125537203Y-113695139D01*
X125536503Y-113701975D01*
X125536502Y-113701978D01*
X125532506Y-113740983D01*
X125526500Y-113799600D01*
X125526500Y-114800400D01*
X125537474Y-114906166D01*
X125593450Y-115073946D01*
X125686522Y-115224348D01*
X125811697Y-115349305D01*
X125817927Y-115353145D01*
X125817928Y-115353146D01*
X125941616Y-115429389D01*
X125989110Y-115482162D01*
X126001500Y-115536649D01*
X126001500Y-115556233D01*
X126000973Y-115567416D01*
X125999298Y-115574909D01*
X125999547Y-115582835D01*
X125999547Y-115582836D01*
X126001438Y-115642986D01*
X126001500Y-115646945D01*
X126001500Y-115674856D01*
X126001997Y-115678790D01*
X126001997Y-115678791D01*
X126002005Y-115678856D01*
X126002938Y-115690693D01*
X126004327Y-115734889D01*
X126009978Y-115754339D01*
X126013987Y-115773700D01*
X126016526Y-115793797D01*
X126019445Y-115801168D01*
X126019445Y-115801170D01*
X126032804Y-115834912D01*
X126036649Y-115846142D01*
X126048982Y-115888593D01*
X126053015Y-115895412D01*
X126053017Y-115895417D01*
X126059293Y-115906028D01*
X126067988Y-115923776D01*
X126075448Y-115942617D01*
X126080110Y-115949033D01*
X126080110Y-115949034D01*
X126101436Y-115978387D01*
X126107952Y-115988307D01*
X126130458Y-116026362D01*
X126144779Y-116040683D01*
X126157619Y-116055716D01*
X126169528Y-116072107D01*
X126175634Y-116077158D01*
X126203605Y-116100298D01*
X126212384Y-116108288D01*
X127329595Y-117225499D01*
X127363621Y-117287811D01*
X127366500Y-117314594D01*
X127366500Y-120321233D01*
X127365973Y-120332416D01*
X127364298Y-120339909D01*
X127364547Y-120347835D01*
X127364547Y-120347836D01*
X127366438Y-120407986D01*
X127366500Y-120411945D01*
X127366500Y-120439856D01*
X127366997Y-120443790D01*
X127366997Y-120443791D01*
X127367005Y-120443856D01*
X127367938Y-120455693D01*
X127369327Y-120499889D01*
X127374178Y-120516586D01*
X127374978Y-120519339D01*
X127378987Y-120538700D01*
X127381526Y-120558797D01*
X127384445Y-120566168D01*
X127384445Y-120566170D01*
X127397804Y-120599912D01*
X127401649Y-120611142D01*
X127409299Y-120637474D01*
X127413982Y-120653593D01*
X127418015Y-120660412D01*
X127418017Y-120660417D01*
X127424293Y-120671028D01*
X127432988Y-120688776D01*
X127440448Y-120707617D01*
X127445110Y-120714033D01*
X127445110Y-120714034D01*
X127466436Y-120743387D01*
X127472952Y-120753307D01*
X127495458Y-120791362D01*
X127509779Y-120805683D01*
X127522619Y-120820716D01*
X127534528Y-120837107D01*
X127540634Y-120842158D01*
X127568605Y-120865298D01*
X127577384Y-120873288D01*
X128136343Y-121432247D01*
X128143887Y-121440537D01*
X128148000Y-121447018D01*
X128153777Y-121452443D01*
X128197667Y-121493658D01*
X128200509Y-121496413D01*
X128220231Y-121516135D01*
X128223355Y-121518558D01*
X128223359Y-121518562D01*
X128223424Y-121518612D01*
X128232445Y-121526317D01*
X128264679Y-121556586D01*
X128271627Y-121560405D01*
X128271629Y-121560407D01*
X128282432Y-121566346D01*
X128298959Y-121577202D01*
X128308698Y-121584757D01*
X128308700Y-121584758D01*
X128314960Y-121589614D01*
X128322233Y-121592761D01*
X128329059Y-121596798D01*
X128328393Y-121597925D01*
X128376711Y-121638128D01*
X128391621Y-121668479D01*
X128396130Y-121681995D01*
X128396133Y-121682002D01*
X128398450Y-121688946D01*
X128491522Y-121839348D01*
X128616697Y-121964305D01*
X128622927Y-121968145D01*
X128622928Y-121968146D01*
X128760090Y-122052694D01*
X128767262Y-122057115D01*
X128847005Y-122083564D01*
X128928611Y-122110632D01*
X128928613Y-122110632D01*
X128935139Y-122112797D01*
X128941975Y-122113497D01*
X128941978Y-122113498D01*
X128985031Y-122117909D01*
X129039600Y-122123500D01*
X130040400Y-122123500D01*
X130043646Y-122123163D01*
X130043650Y-122123163D01*
X130139308Y-122113238D01*
X130139312Y-122113237D01*
X130146166Y-122112526D01*
X130152702Y-122110345D01*
X130152704Y-122110345D01*
X130284806Y-122066272D01*
X130313946Y-122056550D01*
X130464348Y-121963478D01*
X130589305Y-121838303D01*
X130653979Y-121733383D01*
X130706750Y-121685891D01*
X130761238Y-121673500D01*
X130858689Y-121673500D01*
X130926810Y-121693502D01*
X130965833Y-121733196D01*
X131031522Y-121839348D01*
X131156697Y-121964305D01*
X131162927Y-121968145D01*
X131162928Y-121968146D01*
X131300090Y-122052694D01*
X131307262Y-122057115D01*
X131387005Y-122083564D01*
X131468611Y-122110632D01*
X131468613Y-122110632D01*
X131475139Y-122112797D01*
X131481975Y-122113497D01*
X131481978Y-122113498D01*
X131525031Y-122117909D01*
X131579600Y-122123500D01*
X132580400Y-122123500D01*
X132583646Y-122123163D01*
X132583650Y-122123163D01*
X132679308Y-122113238D01*
X132679312Y-122113237D01*
X132686166Y-122112526D01*
X132692702Y-122110345D01*
X132692704Y-122110345D01*
X132824806Y-122066272D01*
X132853946Y-122056550D01*
X133004348Y-121963478D01*
X133129305Y-121838303D01*
X133222115Y-121687738D01*
X133248564Y-121607995D01*
X133275632Y-121526389D01*
X133275632Y-121526387D01*
X133277797Y-121519861D01*
X133279125Y-121506905D01*
X133282909Y-121469969D01*
X133288500Y-121415400D01*
X133288500Y-120664600D01*
X133287358Y-120653593D01*
X133278238Y-120565692D01*
X133278237Y-120565688D01*
X133277526Y-120558834D01*
X133266922Y-120527048D01*
X133223868Y-120398002D01*
X133221550Y-120391054D01*
X133128478Y-120240652D01*
X133003303Y-120115695D01*
X132999084Y-120113094D01*
X132958583Y-120055970D01*
X132955351Y-119985047D01*
X132990976Y-119923635D01*
X132998530Y-119917078D01*
X133004348Y-119913478D01*
X133129305Y-119788303D01*
X133149193Y-119756039D01*
X133218275Y-119643968D01*
X133218276Y-119643966D01*
X133222115Y-119637738D01*
X133261713Y-119518352D01*
X133275632Y-119476389D01*
X133275632Y-119476387D01*
X133277797Y-119469861D01*
X133288500Y-119365400D01*
X133288500Y-118949124D01*
X144622000Y-118949124D01*
X144622301Y-118955272D01*
X144636527Y-119100361D01*
X144638910Y-119112396D01*
X144695317Y-119299223D01*
X144699992Y-119310565D01*
X144791612Y-119482879D01*
X144798399Y-119493095D01*
X144921747Y-119644335D01*
X144930391Y-119653039D01*
X145080763Y-119777438D01*
X145090931Y-119784297D01*
X145262607Y-119877121D01*
X145273907Y-119881871D01*
X145408693Y-119923595D01*
X145422795Y-119923801D01*
X145426000Y-119917045D01*
X145426000Y-119910047D01*
X145934000Y-119910047D01*
X145937973Y-119923578D01*
X145945768Y-119924698D01*
X146072342Y-119887446D01*
X146083710Y-119882853D01*
X146256666Y-119792434D01*
X146266928Y-119785718D01*
X146419020Y-119663432D01*
X146427785Y-119654849D01*
X146511281Y-119555343D01*
X146570391Y-119516016D01*
X146641379Y-119514890D01*
X146652033Y-119518352D01*
X146732394Y-119548478D01*
X146747649Y-119552105D01*
X146798514Y-119557631D01*
X146805328Y-119558000D01*
X146977885Y-119558000D01*
X146993124Y-119553525D01*
X146994329Y-119552135D01*
X146996000Y-119544452D01*
X146996000Y-118722115D01*
X146991525Y-118706876D01*
X146990135Y-118705671D01*
X146982452Y-118704000D01*
X146796115Y-118704000D01*
X146780876Y-118708475D01*
X146779671Y-118709865D01*
X146778000Y-118717548D01*
X146778000Y-118728000D01*
X146757998Y-118796121D01*
X146704342Y-118842614D01*
X146652000Y-118854000D01*
X145952115Y-118854000D01*
X145936876Y-118858475D01*
X145935671Y-118859865D01*
X145934000Y-118867548D01*
X145934000Y-119910047D01*
X145426000Y-119910047D01*
X145426000Y-118872115D01*
X145421525Y-118856876D01*
X145420135Y-118855671D01*
X145412452Y-118854000D01*
X144640115Y-118854000D01*
X144624876Y-118858475D01*
X144623671Y-118859865D01*
X144622000Y-118867548D01*
X144622000Y-118949124D01*
X133288500Y-118949124D01*
X133288500Y-118729594D01*
X133308502Y-118661473D01*
X133325405Y-118640499D01*
X133638019Y-118327885D01*
X144622000Y-118327885D01*
X144626475Y-118343124D01*
X144627865Y-118344329D01*
X144635548Y-118346000D01*
X145407885Y-118346000D01*
X145423124Y-118341525D01*
X145424329Y-118340135D01*
X145426000Y-118332452D01*
X145426000Y-118327885D01*
X145934000Y-118327885D01*
X145938475Y-118343124D01*
X145939865Y-118344329D01*
X145947548Y-118346000D01*
X146283885Y-118346000D01*
X146299124Y-118341525D01*
X146300329Y-118340135D01*
X146302000Y-118332452D01*
X146302000Y-118322000D01*
X146322002Y-118253879D01*
X146375658Y-118207386D01*
X146428000Y-118196000D01*
X146977885Y-118196000D01*
X146993124Y-118191525D01*
X146994329Y-118190135D01*
X146996000Y-118182452D01*
X146996000Y-117360116D01*
X146991525Y-117344877D01*
X146990135Y-117343672D01*
X146982452Y-117342001D01*
X146805331Y-117342001D01*
X146798510Y-117342371D01*
X146747648Y-117347895D01*
X146732396Y-117351521D01*
X146611946Y-117396676D01*
X146596351Y-117405214D01*
X146498380Y-117478639D01*
X146431873Y-117503487D01*
X146362491Y-117488434D01*
X146342499Y-117474898D01*
X146279230Y-117422558D01*
X146269069Y-117415703D01*
X146097393Y-117322879D01*
X146086093Y-117318129D01*
X145951307Y-117276405D01*
X145937205Y-117276199D01*
X145934000Y-117282955D01*
X145934000Y-118327885D01*
X145426000Y-118327885D01*
X145426000Y-117289953D01*
X145422027Y-117276422D01*
X145414232Y-117275302D01*
X145287658Y-117312554D01*
X145276290Y-117317147D01*
X145103334Y-117407566D01*
X145093072Y-117414282D01*
X144940980Y-117536568D01*
X144932214Y-117545152D01*
X144806764Y-117694656D01*
X144799840Y-117704767D01*
X144705816Y-117875798D01*
X144700988Y-117887062D01*
X144641975Y-118073095D01*
X144639427Y-118085084D01*
X144622393Y-118236947D01*
X144622000Y-118243971D01*
X144622000Y-118327885D01*
X133638019Y-118327885D01*
X133842247Y-118123657D01*
X133850537Y-118116113D01*
X133857018Y-118112000D01*
X133903659Y-118062332D01*
X133906413Y-118059491D01*
X133926135Y-118039769D01*
X133928612Y-118036576D01*
X133936317Y-118027555D01*
X133961159Y-118001100D01*
X133966586Y-117995321D01*
X133970407Y-117988371D01*
X133976346Y-117977568D01*
X133987202Y-117961041D01*
X133994757Y-117951302D01*
X133994758Y-117951300D01*
X133999614Y-117945040D01*
X134017174Y-117904460D01*
X134022391Y-117893812D01*
X134039875Y-117862009D01*
X134039876Y-117862007D01*
X134043695Y-117855060D01*
X134048733Y-117835437D01*
X134055137Y-117816734D01*
X134060033Y-117805420D01*
X134060033Y-117805419D01*
X134063181Y-117798145D01*
X134064420Y-117790322D01*
X134064423Y-117790312D01*
X134070099Y-117754476D01*
X134072505Y-117742856D01*
X134081528Y-117707711D01*
X134081528Y-117707710D01*
X134083500Y-117700030D01*
X134083500Y-117679776D01*
X134085051Y-117660065D01*
X134086980Y-117647886D01*
X134088220Y-117640057D01*
X134084059Y-117596038D01*
X134083500Y-117584181D01*
X134083500Y-111922095D01*
X137422001Y-111922095D01*
X137422338Y-111928614D01*
X137432257Y-112024206D01*
X137435149Y-112037600D01*
X137486588Y-112191784D01*
X137492761Y-112204962D01*
X137578063Y-112342807D01*
X137587099Y-112354208D01*
X137701829Y-112468739D01*
X137713240Y-112477751D01*
X137851243Y-112562816D01*
X137864424Y-112568963D01*
X138018710Y-112620138D01*
X138032086Y-112623005D01*
X138126438Y-112632672D01*
X138132854Y-112633000D01*
X138157885Y-112633000D01*
X138173124Y-112628525D01*
X138174329Y-112627135D01*
X138176000Y-112619452D01*
X138176000Y-112614884D01*
X138684000Y-112614884D01*
X138688475Y-112630123D01*
X138689865Y-112631328D01*
X138697548Y-112632999D01*
X138727095Y-112632999D01*
X138733614Y-112632662D01*
X138829206Y-112622743D01*
X138842600Y-112619851D01*
X138996784Y-112568412D01*
X139009962Y-112562239D01*
X139147807Y-112476937D01*
X139159208Y-112467901D01*
X139273739Y-112353171D01*
X139282751Y-112341760D01*
X139367816Y-112203757D01*
X139373963Y-112190576D01*
X139425138Y-112036290D01*
X139428005Y-112022914D01*
X139437672Y-111928562D01*
X139437834Y-111925400D01*
X139961500Y-111925400D01*
X139961837Y-111928646D01*
X139961837Y-111928650D01*
X139971752Y-112024206D01*
X139972474Y-112031166D01*
X140028450Y-112198946D01*
X140121522Y-112349348D01*
X140126704Y-112354521D01*
X140126708Y-112354526D01*
X140129517Y-112357330D01*
X140130825Y-112359721D01*
X140131251Y-112360258D01*
X140131159Y-112360331D01*
X140163597Y-112419612D01*
X140166500Y-112446503D01*
X140166500Y-113416233D01*
X140165973Y-113427416D01*
X140164298Y-113434909D01*
X140164547Y-113442835D01*
X140164547Y-113442836D01*
X140166438Y-113502986D01*
X140166500Y-113506945D01*
X140166500Y-113534856D01*
X140166997Y-113538790D01*
X140166997Y-113538791D01*
X140167005Y-113538856D01*
X140167938Y-113550693D01*
X140169327Y-113594889D01*
X140174978Y-113614339D01*
X140178987Y-113633700D01*
X140181526Y-113653797D01*
X140184445Y-113661168D01*
X140184445Y-113661170D01*
X140197804Y-113694912D01*
X140201649Y-113706142D01*
X140213982Y-113748593D01*
X140218015Y-113755412D01*
X140218017Y-113755417D01*
X140224293Y-113766028D01*
X140232988Y-113783776D01*
X140240448Y-113802617D01*
X140245110Y-113809033D01*
X140245110Y-113809034D01*
X140266436Y-113838387D01*
X140272952Y-113848307D01*
X140295458Y-113886362D01*
X140309779Y-113900683D01*
X140322619Y-113915716D01*
X140334528Y-113932107D01*
X140340634Y-113937158D01*
X140368605Y-113960298D01*
X140377384Y-113968288D01*
X141736343Y-115327247D01*
X141743887Y-115335537D01*
X141748000Y-115342018D01*
X141753777Y-115347443D01*
X141797667Y-115388658D01*
X141800509Y-115391413D01*
X141820231Y-115411135D01*
X141823355Y-115413558D01*
X141823359Y-115413562D01*
X141823424Y-115413612D01*
X141832445Y-115421317D01*
X141864679Y-115451586D01*
X141871627Y-115455405D01*
X141871629Y-115455407D01*
X141882432Y-115461346D01*
X141898959Y-115472202D01*
X141908698Y-115479757D01*
X141908700Y-115479758D01*
X141914960Y-115484614D01*
X141955540Y-115502174D01*
X141966188Y-115507391D01*
X142004940Y-115528695D01*
X142012616Y-115530666D01*
X142012619Y-115530667D01*
X142024562Y-115533733D01*
X142043267Y-115540137D01*
X142061855Y-115548181D01*
X142069678Y-115549420D01*
X142069688Y-115549423D01*
X142105524Y-115555099D01*
X142117144Y-115557505D01*
X142152289Y-115566528D01*
X142159970Y-115568500D01*
X142180224Y-115568500D01*
X142199934Y-115570051D01*
X142219943Y-115573220D01*
X142227835Y-115572474D01*
X142263961Y-115569059D01*
X142275819Y-115568500D01*
X146220405Y-115568500D01*
X146288526Y-115588502D01*
X146309501Y-115605405D01*
X147052879Y-116348784D01*
X147086904Y-116411096D01*
X147089093Y-116424709D01*
X147106458Y-116589928D01*
X147165473Y-116771556D01*
X147260960Y-116936944D01*
X147334137Y-117018215D01*
X147364853Y-117082221D01*
X147366500Y-117102524D01*
X147366500Y-117121233D01*
X147365973Y-117132416D01*
X147364298Y-117139909D01*
X147364547Y-117147835D01*
X147364547Y-117147836D01*
X147366438Y-117207986D01*
X147366500Y-117211945D01*
X147366500Y-117239856D01*
X147366997Y-117243790D01*
X147366997Y-117243791D01*
X147367005Y-117243856D01*
X147367938Y-117255693D01*
X147369327Y-117299889D01*
X147374978Y-117319339D01*
X147378987Y-117338700D01*
X147379451Y-117342369D01*
X147381526Y-117358797D01*
X147384445Y-117366168D01*
X147384445Y-117366170D01*
X147397804Y-117399912D01*
X147401649Y-117411142D01*
X147413982Y-117453593D01*
X147418015Y-117460412D01*
X147418017Y-117460417D01*
X147424293Y-117471028D01*
X147432988Y-117488776D01*
X147440448Y-117507617D01*
X147445110Y-117514033D01*
X147445110Y-117514034D01*
X147466436Y-117543387D01*
X147472953Y-117553308D01*
X147486454Y-117576137D01*
X147504000Y-117640276D01*
X147504000Y-119539884D01*
X147508475Y-119555123D01*
X147509865Y-119556328D01*
X147517548Y-119557999D01*
X147694669Y-119557999D01*
X147701475Y-119557630D01*
X147706889Y-119557042D01*
X147776771Y-119569568D01*
X147828788Y-119617888D01*
X147846500Y-119682305D01*
X147846500Y-119701233D01*
X147845973Y-119712416D01*
X147844298Y-119719909D01*
X147844547Y-119727835D01*
X147844547Y-119727836D01*
X147846438Y-119787986D01*
X147846500Y-119791945D01*
X147846500Y-119819856D01*
X147846997Y-119823790D01*
X147846997Y-119823791D01*
X147847005Y-119823856D01*
X147847938Y-119835693D01*
X147849327Y-119879889D01*
X147854978Y-119899339D01*
X147858987Y-119918700D01*
X147861526Y-119938797D01*
X147864445Y-119946168D01*
X147864445Y-119946170D01*
X147877804Y-119979912D01*
X147881649Y-119991142D01*
X147888597Y-120015058D01*
X147893982Y-120033593D01*
X147898015Y-120040412D01*
X147898017Y-120040417D01*
X147904293Y-120051028D01*
X147912988Y-120068776D01*
X147920448Y-120087617D01*
X147925110Y-120094033D01*
X147925110Y-120094034D01*
X147946436Y-120123387D01*
X147952952Y-120133307D01*
X147961862Y-120148372D01*
X147975458Y-120171362D01*
X147989782Y-120185686D01*
X148002617Y-120200713D01*
X148014528Y-120217107D01*
X148020636Y-120222160D01*
X148048597Y-120245292D01*
X148057375Y-120253280D01*
X148196352Y-120392256D01*
X148203888Y-120400538D01*
X148208000Y-120407018D01*
X148213779Y-120412445D01*
X148213780Y-120412446D01*
X148257652Y-120453644D01*
X148260494Y-120456399D01*
X148280230Y-120476135D01*
X148283427Y-120478615D01*
X148292447Y-120486318D01*
X148324679Y-120516586D01*
X148331625Y-120520405D01*
X148331628Y-120520407D01*
X148342434Y-120526348D01*
X148358953Y-120537199D01*
X148374959Y-120549614D01*
X148382228Y-120552759D01*
X148382232Y-120552762D01*
X148415537Y-120567174D01*
X148426187Y-120572391D01*
X148464940Y-120593695D01*
X148472615Y-120595666D01*
X148472616Y-120595666D01*
X148484562Y-120598733D01*
X148503266Y-120605137D01*
X148503946Y-120605431D01*
X148521855Y-120613181D01*
X148529678Y-120614420D01*
X148529688Y-120614423D01*
X148565524Y-120620099D01*
X148577144Y-120622505D01*
X148608959Y-120630673D01*
X148619970Y-120633500D01*
X148640224Y-120633500D01*
X148659934Y-120635051D01*
X148679943Y-120638220D01*
X148687835Y-120637474D01*
X148706580Y-120635702D01*
X148723962Y-120634059D01*
X148735819Y-120633500D01*
X151221233Y-120633500D01*
X151232416Y-120634027D01*
X151239909Y-120635702D01*
X151247835Y-120635453D01*
X151247836Y-120635453D01*
X151307986Y-120633562D01*
X151311945Y-120633500D01*
X151339856Y-120633500D01*
X151343791Y-120633003D01*
X151343856Y-120632995D01*
X151355693Y-120632062D01*
X151387951Y-120631048D01*
X151391970Y-120630922D01*
X151399889Y-120630673D01*
X151419343Y-120625021D01*
X151438700Y-120621013D01*
X151450930Y-120619468D01*
X151450931Y-120619468D01*
X151458797Y-120618474D01*
X151466168Y-120615555D01*
X151466170Y-120615555D01*
X151499912Y-120602196D01*
X151511142Y-120598351D01*
X151545983Y-120588229D01*
X151545984Y-120588229D01*
X151553593Y-120586018D01*
X151560412Y-120581985D01*
X151560417Y-120581983D01*
X151571028Y-120575707D01*
X151588776Y-120567012D01*
X151607617Y-120559552D01*
X151619485Y-120550930D01*
X151643387Y-120533564D01*
X151653307Y-120527048D01*
X151684535Y-120508580D01*
X151684538Y-120508578D01*
X151691362Y-120504542D01*
X151705686Y-120490218D01*
X151720713Y-120477383D01*
X151737107Y-120465472D01*
X151765292Y-120431403D01*
X151773280Y-120422625D01*
X151912256Y-120283648D01*
X151920538Y-120276112D01*
X151927018Y-120272000D01*
X151973645Y-120222347D01*
X151976399Y-120219506D01*
X151996135Y-120199770D01*
X151998615Y-120196573D01*
X152006320Y-120187551D01*
X152036586Y-120155321D01*
X152040405Y-120148375D01*
X152040407Y-120148372D01*
X152046348Y-120137566D01*
X152057199Y-120121047D01*
X152061350Y-120115695D01*
X152069614Y-120105041D01*
X152072759Y-120097772D01*
X152072762Y-120097768D01*
X152087174Y-120064463D01*
X152092391Y-120053813D01*
X152113695Y-120015060D01*
X152118733Y-119995437D01*
X152125137Y-119976734D01*
X152130033Y-119965420D01*
X152130033Y-119965419D01*
X152133181Y-119958145D01*
X152134420Y-119950322D01*
X152134423Y-119950312D01*
X152140099Y-119914476D01*
X152142505Y-119902856D01*
X152151528Y-119867711D01*
X152151528Y-119867710D01*
X152153500Y-119860030D01*
X152153500Y-119839776D01*
X152155051Y-119820065D01*
X152156980Y-119807886D01*
X152158220Y-119800057D01*
X152154059Y-119756038D01*
X152153500Y-119744181D01*
X152153500Y-119682307D01*
X152173502Y-119614186D01*
X152227158Y-119567693D01*
X152293104Y-119557044D01*
X152298504Y-119557630D01*
X152305328Y-119558000D01*
X152477885Y-119558000D01*
X152493124Y-119553525D01*
X152494329Y-119552135D01*
X152496000Y-119544452D01*
X152496000Y-119539884D01*
X153004000Y-119539884D01*
X153008475Y-119555123D01*
X153009865Y-119556328D01*
X153017548Y-119557999D01*
X153194669Y-119557999D01*
X153201490Y-119557629D01*
X153252352Y-119552105D01*
X153267604Y-119548479D01*
X153348298Y-119518228D01*
X153419105Y-119513045D01*
X153481474Y-119546966D01*
X153490171Y-119556574D01*
X153561747Y-119644335D01*
X153570391Y-119653039D01*
X153720763Y-119777438D01*
X153730931Y-119784297D01*
X153902607Y-119877121D01*
X153913907Y-119881871D01*
X154048693Y-119923595D01*
X154062795Y-119923801D01*
X154066000Y-119917045D01*
X154066000Y-119910047D01*
X154574000Y-119910047D01*
X154577973Y-119923578D01*
X154585768Y-119924698D01*
X154712342Y-119887446D01*
X154723710Y-119882853D01*
X154896666Y-119792434D01*
X154906928Y-119785718D01*
X155059020Y-119663432D01*
X155067786Y-119654848D01*
X155193236Y-119505344D01*
X155200160Y-119495233D01*
X155294184Y-119324202D01*
X155299012Y-119312938D01*
X155358025Y-119126905D01*
X155360573Y-119114916D01*
X155377607Y-118963053D01*
X155378000Y-118956029D01*
X155378000Y-118872115D01*
X155373525Y-118856876D01*
X155372135Y-118855671D01*
X155364452Y-118854000D01*
X154592115Y-118854000D01*
X154576876Y-118858475D01*
X154575671Y-118859865D01*
X154574000Y-118867548D01*
X154574000Y-119910047D01*
X154066000Y-119910047D01*
X154066000Y-118872115D01*
X154061525Y-118856876D01*
X154060135Y-118855671D01*
X154052452Y-118854000D01*
X153348000Y-118854000D01*
X153279879Y-118833998D01*
X153233386Y-118780342D01*
X153222000Y-118728000D01*
X153222000Y-118722115D01*
X153217525Y-118706876D01*
X153216135Y-118705671D01*
X153208452Y-118704000D01*
X153022115Y-118704000D01*
X153006876Y-118708475D01*
X153005671Y-118709865D01*
X153004000Y-118717548D01*
X153004000Y-119539884D01*
X152496000Y-119539884D01*
X152496000Y-118177885D01*
X153004000Y-118177885D01*
X153008475Y-118193124D01*
X153009865Y-118194329D01*
X153017548Y-118196000D01*
X153572000Y-118196000D01*
X153640121Y-118216002D01*
X153686614Y-118269658D01*
X153698000Y-118322000D01*
X153698000Y-118327885D01*
X153702475Y-118343124D01*
X153703865Y-118344329D01*
X153711548Y-118346000D01*
X154047885Y-118346000D01*
X154063124Y-118341525D01*
X154064329Y-118340135D01*
X154066000Y-118332452D01*
X154066000Y-118327885D01*
X154574000Y-118327885D01*
X154578475Y-118343124D01*
X154579865Y-118344329D01*
X154587548Y-118346000D01*
X155359885Y-118346000D01*
X155375124Y-118341525D01*
X155376329Y-118340135D01*
X155378000Y-118332452D01*
X155378000Y-118250876D01*
X155377699Y-118244728D01*
X155363473Y-118099639D01*
X155361090Y-118087604D01*
X155304683Y-117900777D01*
X155300008Y-117889435D01*
X155208388Y-117717121D01*
X155201601Y-117706905D01*
X155078253Y-117555665D01*
X155069609Y-117546961D01*
X154919237Y-117422562D01*
X154909069Y-117415703D01*
X154737393Y-117322879D01*
X154726093Y-117318129D01*
X154591307Y-117276405D01*
X154577205Y-117276199D01*
X154574000Y-117282955D01*
X154574000Y-118327885D01*
X154066000Y-118327885D01*
X154066000Y-117289953D01*
X154062027Y-117276422D01*
X154054232Y-117275302D01*
X153927658Y-117312554D01*
X153916290Y-117317147D01*
X153743334Y-117407566D01*
X153733072Y-117414282D01*
X153656221Y-117476072D01*
X153590599Y-117503169D01*
X153520745Y-117490486D01*
X153501704Y-117478702D01*
X153403649Y-117405214D01*
X153388054Y-117396676D01*
X153267606Y-117351522D01*
X153252351Y-117347895D01*
X153201486Y-117342369D01*
X153194672Y-117342000D01*
X153022115Y-117342000D01*
X153006876Y-117346475D01*
X153005671Y-117347865D01*
X153004000Y-117355548D01*
X153004000Y-118177885D01*
X152496000Y-118177885D01*
X152496000Y-117360116D01*
X152491525Y-117344877D01*
X152490135Y-117343672D01*
X152482452Y-117342001D01*
X152305331Y-117342001D01*
X152298510Y-117342371D01*
X152247650Y-117347895D01*
X152232393Y-117351522D01*
X152169941Y-117374934D01*
X152099134Y-117380117D01*
X152081483Y-117374934D01*
X152017711Y-117351027D01*
X152017709Y-117351027D01*
X152010316Y-117348255D01*
X152002468Y-117347402D01*
X152002466Y-117347402D01*
X151951531Y-117341869D01*
X151948134Y-117341500D01*
X151091866Y-117341500D01*
X151088469Y-117341869D01*
X151083848Y-117342371D01*
X151029684Y-117348255D01*
X151023466Y-117350586D01*
X150966534Y-117350586D01*
X150960316Y-117348255D01*
X150906152Y-117342371D01*
X150901531Y-117341869D01*
X150898134Y-117341500D01*
X150101866Y-117341500D01*
X150039684Y-117348255D01*
X150032285Y-117351029D01*
X150029146Y-117351775D01*
X149970854Y-117351775D01*
X149967715Y-117351029D01*
X149960316Y-117348255D01*
X149898134Y-117341500D01*
X149101866Y-117341500D01*
X149098469Y-117341869D01*
X149095072Y-117342053D01*
X149095000Y-117340723D01*
X149030404Y-117329120D01*
X148987813Y-117294170D01*
X148984542Y-117288638D01*
X148970221Y-117274317D01*
X148957380Y-117259283D01*
X148950132Y-117249307D01*
X148945472Y-117242893D01*
X148911407Y-117214712D01*
X148902626Y-117206722D01*
X148768536Y-117072631D01*
X148734511Y-117010319D01*
X148739576Y-116939503D01*
X148748513Y-116920536D01*
X148831223Y-116777279D01*
X148831224Y-116777278D01*
X148834527Y-116771556D01*
X148893542Y-116589928D01*
X148903194Y-116498100D01*
X148912814Y-116406565D01*
X148913504Y-116400000D01*
X148893542Y-116210072D01*
X148834527Y-116028444D01*
X148829384Y-116019535D01*
X148797314Y-115963990D01*
X148739040Y-115863056D01*
X148718669Y-115840431D01*
X148615675Y-115726045D01*
X148615674Y-115726044D01*
X148611253Y-115721134D01*
X148503692Y-115642986D01*
X148462094Y-115612763D01*
X148462093Y-115612762D01*
X148456752Y-115608882D01*
X148450724Y-115606198D01*
X148450722Y-115606197D01*
X148288319Y-115533891D01*
X148288318Y-115533891D01*
X148282288Y-115531206D01*
X148170248Y-115507391D01*
X148101944Y-115492872D01*
X148101939Y-115492872D01*
X148095487Y-115491500D01*
X148039595Y-115491500D01*
X147971474Y-115471498D01*
X147950499Y-115454595D01*
X147495210Y-114999305D01*
X147038647Y-114542742D01*
X147031113Y-114534463D01*
X147027000Y-114527982D01*
X146977348Y-114481356D01*
X146974507Y-114478602D01*
X146954770Y-114458865D01*
X146951573Y-114456385D01*
X146942551Y-114448680D01*
X146916100Y-114423841D01*
X146910321Y-114418414D01*
X146903375Y-114414595D01*
X146903372Y-114414593D01*
X146892566Y-114408652D01*
X146876047Y-114397801D01*
X146875583Y-114397441D01*
X146860041Y-114385386D01*
X146852772Y-114382241D01*
X146852768Y-114382238D01*
X146819463Y-114367826D01*
X146808813Y-114362609D01*
X146770060Y-114341305D01*
X146750437Y-114336267D01*
X146731734Y-114329863D01*
X146720420Y-114324967D01*
X146720419Y-114324967D01*
X146713145Y-114321819D01*
X146705322Y-114320580D01*
X146705312Y-114320577D01*
X146669476Y-114314901D01*
X146657856Y-114312495D01*
X146622711Y-114303472D01*
X146622710Y-114303472D01*
X146615030Y-114301500D01*
X146594776Y-114301500D01*
X146575065Y-114299949D01*
X146562886Y-114298020D01*
X146555057Y-114296780D01*
X146547165Y-114297526D01*
X146511039Y-114300941D01*
X146499181Y-114301500D01*
X142554594Y-114301500D01*
X142486473Y-114281498D01*
X142465499Y-114264595D01*
X141470405Y-113269500D01*
X141436379Y-113207188D01*
X141433500Y-113180405D01*
X141433500Y-112694188D01*
X141453502Y-112626067D01*
X141507158Y-112579574D01*
X141519623Y-112574665D01*
X141537002Y-112568867D01*
X141537004Y-112568866D01*
X141543946Y-112566550D01*
X141550913Y-112562239D01*
X141688120Y-112477332D01*
X141694348Y-112473478D01*
X141819305Y-112348303D01*
X141858079Y-112285400D01*
X141908275Y-112203968D01*
X141908276Y-112203966D01*
X141912115Y-112197738D01*
X141967797Y-112029861D01*
X141978500Y-111925400D01*
X141978500Y-110324600D01*
X141978108Y-110320818D01*
X141968238Y-110225692D01*
X141968237Y-110225688D01*
X141967526Y-110218834D01*
X141962926Y-110205044D01*
X141913868Y-110058002D01*
X141911550Y-110051054D01*
X141818478Y-109900652D01*
X141693303Y-109775695D01*
X141687072Y-109771854D01*
X141548968Y-109686725D01*
X141548966Y-109686724D01*
X141542738Y-109682885D01*
X141462995Y-109656436D01*
X141381389Y-109629368D01*
X141381387Y-109629368D01*
X141374861Y-109627203D01*
X141368025Y-109626503D01*
X141368022Y-109626502D01*
X141324969Y-109622091D01*
X141270400Y-109616500D01*
X140669600Y-109616500D01*
X140666354Y-109616837D01*
X140666350Y-109616837D01*
X140570692Y-109626762D01*
X140570688Y-109626763D01*
X140563834Y-109627474D01*
X140557298Y-109629655D01*
X140557296Y-109629655D01*
X140540928Y-109635116D01*
X140396054Y-109683450D01*
X140245652Y-109776522D01*
X140120695Y-109901697D01*
X140116855Y-109907927D01*
X140116854Y-109907928D01*
X140039284Y-110033770D01*
X140027885Y-110052262D01*
X140010151Y-110105728D01*
X139982465Y-110189201D01*
X139972203Y-110220139D01*
X139961500Y-110324600D01*
X139961500Y-111925400D01*
X139437834Y-111925400D01*
X139438000Y-111922146D01*
X139438000Y-111397115D01*
X139433525Y-111381876D01*
X139432135Y-111380671D01*
X139424452Y-111379000D01*
X138702115Y-111379000D01*
X138686876Y-111383475D01*
X138685671Y-111384865D01*
X138684000Y-111392548D01*
X138684000Y-112614884D01*
X138176000Y-112614884D01*
X138176000Y-111397115D01*
X138171525Y-111381876D01*
X138170135Y-111380671D01*
X138162452Y-111379000D01*
X137440116Y-111379000D01*
X137424877Y-111383475D01*
X137423672Y-111384865D01*
X137422001Y-111392548D01*
X137422001Y-111922095D01*
X134083500Y-111922095D01*
X134083500Y-110852885D01*
X137422000Y-110852885D01*
X137426475Y-110868124D01*
X137427865Y-110869329D01*
X137435548Y-110871000D01*
X138157885Y-110871000D01*
X138173124Y-110866525D01*
X138174329Y-110865135D01*
X138176000Y-110857452D01*
X138176000Y-110852885D01*
X138684000Y-110852885D01*
X138688475Y-110868124D01*
X138689865Y-110869329D01*
X138697548Y-110871000D01*
X139419884Y-110871000D01*
X139435123Y-110866525D01*
X139436328Y-110865135D01*
X139437999Y-110857452D01*
X139437999Y-110327905D01*
X139437662Y-110321386D01*
X139427743Y-110225794D01*
X139424851Y-110212400D01*
X139373412Y-110058216D01*
X139367239Y-110045038D01*
X139281937Y-109907193D01*
X139272901Y-109895792D01*
X139158171Y-109781261D01*
X139146760Y-109772249D01*
X139008757Y-109687184D01*
X138995576Y-109681037D01*
X138841290Y-109629862D01*
X138827914Y-109626995D01*
X138733562Y-109617328D01*
X138727145Y-109617000D01*
X138702115Y-109617000D01*
X138686876Y-109621475D01*
X138685671Y-109622865D01*
X138684000Y-109630548D01*
X138684000Y-110852885D01*
X138176000Y-110852885D01*
X138176000Y-109635116D01*
X138171525Y-109619877D01*
X138170135Y-109618672D01*
X138162452Y-109617001D01*
X138132905Y-109617001D01*
X138126386Y-109617338D01*
X138030794Y-109627257D01*
X138017400Y-109630149D01*
X137863216Y-109681588D01*
X137850038Y-109687761D01*
X137712193Y-109773063D01*
X137700792Y-109782099D01*
X137586261Y-109896829D01*
X137577249Y-109908240D01*
X137492184Y-110046243D01*
X137486037Y-110059424D01*
X137434862Y-110213710D01*
X137431995Y-110227086D01*
X137422328Y-110321438D01*
X137422000Y-110327855D01*
X137422000Y-110852885D01*
X134083500Y-110852885D01*
X134083500Y-110323667D01*
X134084027Y-110312484D01*
X134085702Y-110304991D01*
X134085283Y-110291645D01*
X134083562Y-110236914D01*
X134083500Y-110232955D01*
X134083500Y-110205044D01*
X134082995Y-110201044D01*
X134082062Y-110189201D01*
X134081233Y-110162807D01*
X134080673Y-110145010D01*
X134075022Y-110125558D01*
X134071014Y-110106206D01*
X134069467Y-110093963D01*
X134068474Y-110086103D01*
X134065050Y-110077454D01*
X134052200Y-110044997D01*
X134048355Y-110033770D01*
X134041967Y-110011784D01*
X134036018Y-109991307D01*
X134031984Y-109984485D01*
X134031981Y-109984479D01*
X134025706Y-109973868D01*
X134017010Y-109956118D01*
X134012472Y-109944656D01*
X134012469Y-109944651D01*
X134009552Y-109937283D01*
X133992755Y-109914164D01*
X133983573Y-109901525D01*
X133977057Y-109891607D01*
X133958575Y-109860357D01*
X133954542Y-109853537D01*
X133940218Y-109839213D01*
X133927376Y-109824178D01*
X133915472Y-109807793D01*
X133881406Y-109779611D01*
X133872627Y-109771622D01*
X133215405Y-109114400D01*
X133181379Y-109052088D01*
X133178500Y-109025305D01*
X133178500Y-108541766D01*
X133171745Y-108479584D01*
X133120615Y-108343195D01*
X133033261Y-108226639D01*
X132916705Y-108139285D01*
X132780316Y-108088155D01*
X132718134Y-108081400D01*
X132071866Y-108081400D01*
X132009684Y-108088155D01*
X131990230Y-108095448D01*
X131963518Y-108105462D01*
X131892711Y-108110645D01*
X131875058Y-108105462D01*
X131837606Y-108091422D01*
X131822351Y-108087795D01*
X131771486Y-108082269D01*
X131764672Y-108081900D01*
X131717115Y-108081900D01*
X131701876Y-108086375D01*
X131700671Y-108087765D01*
X131699000Y-108095448D01*
X131699000Y-108261704D01*
X131678998Y-108329825D01*
X131675026Y-108335543D01*
X131674772Y-108336008D01*
X131669385Y-108343195D01*
X131618255Y-108479584D01*
X131611500Y-108541766D01*
X131611500Y-109317900D01*
X131591498Y-109386021D01*
X131537842Y-109432514D01*
X131485500Y-109443900D01*
X131404500Y-109443900D01*
X131336379Y-109423898D01*
X131289886Y-109370242D01*
X131278500Y-109317900D01*
X131278500Y-108541766D01*
X131271745Y-108479584D01*
X131220615Y-108343195D01*
X131215229Y-108336008D01*
X131210921Y-108328140D01*
X131212449Y-108327303D01*
X131191326Y-108270759D01*
X131191000Y-108261704D01*
X131191000Y-108100016D01*
X131186525Y-108084777D01*
X131185135Y-108083572D01*
X131177452Y-108081901D01*
X131125331Y-108081901D01*
X131118510Y-108082271D01*
X131067648Y-108087795D01*
X131052396Y-108091421D01*
X131014942Y-108105462D01*
X130944135Y-108110645D01*
X130926482Y-108105462D01*
X130899770Y-108095448D01*
X130880316Y-108088155D01*
X130818134Y-108081400D01*
X130171866Y-108081400D01*
X130109684Y-108088155D01*
X129973295Y-108139285D01*
X129895104Y-108197886D01*
X129865065Y-108220399D01*
X129798559Y-108245247D01*
X129729176Y-108230194D01*
X129678946Y-108180020D01*
X129663500Y-108119573D01*
X129663500Y-107681371D01*
X129683502Y-107613250D01*
X129700405Y-107592276D01*
X131087275Y-106205405D01*
X131149587Y-106171380D01*
X131176370Y-106168500D01*
X134743629Y-106168500D01*
X134811750Y-106188502D01*
X134832724Y-106205405D01*
X137266230Y-108638911D01*
X137278616Y-108653323D01*
X137287149Y-108664918D01*
X137287154Y-108664923D01*
X137291492Y-108670818D01*
X137297070Y-108675557D01*
X137297073Y-108675560D01*
X137331768Y-108705035D01*
X137339284Y-108711965D01*
X137344979Y-108717660D01*
X137347861Y-108719940D01*
X137367251Y-108735281D01*
X137370655Y-108738072D01*
X137420703Y-108780591D01*
X137426285Y-108785333D01*
X137432801Y-108788661D01*
X137437850Y-108792028D01*
X137442979Y-108795195D01*
X137448716Y-108799734D01*
X137514875Y-108830655D01*
X137518769Y-108832558D01*
X137583808Y-108865769D01*
X137590916Y-108867508D01*
X137596559Y-108869607D01*
X137602322Y-108871524D01*
X137608950Y-108874622D01*
X137670215Y-108887365D01*
X137680412Y-108889486D01*
X137684696Y-108890456D01*
X137755610Y-108907808D01*
X137761212Y-108908156D01*
X137761215Y-108908156D01*
X137766764Y-108908500D01*
X137766762Y-108908536D01*
X137770755Y-108908775D01*
X137774947Y-108909149D01*
X137782115Y-108910640D01*
X137859520Y-108908546D01*
X137862928Y-108908500D01*
X150583629Y-108908500D01*
X150651750Y-108928502D01*
X150672724Y-108945405D01*
X152016230Y-110288911D01*
X152028616Y-110303323D01*
X152037149Y-110314918D01*
X152037154Y-110314923D01*
X152041492Y-110320818D01*
X152047070Y-110325557D01*
X152047073Y-110325560D01*
X152081768Y-110355035D01*
X152089284Y-110361965D01*
X152094979Y-110367660D01*
X152097861Y-110369940D01*
X152117251Y-110385281D01*
X152120655Y-110388072D01*
X152170703Y-110430591D01*
X152176285Y-110435333D01*
X152182801Y-110438661D01*
X152187850Y-110442028D01*
X152192979Y-110445195D01*
X152198716Y-110449734D01*
X152264875Y-110480655D01*
X152268769Y-110482558D01*
X152333808Y-110515769D01*
X152340916Y-110517508D01*
X152346559Y-110519607D01*
X152352322Y-110521524D01*
X152358950Y-110524622D01*
X152366112Y-110526112D01*
X152366113Y-110526112D01*
X152389652Y-110531008D01*
X152420739Y-110537474D01*
X152430412Y-110539486D01*
X152434696Y-110540456D01*
X152505610Y-110557808D01*
X152511212Y-110558156D01*
X152511215Y-110558156D01*
X152516764Y-110558500D01*
X152516762Y-110558536D01*
X152520755Y-110558775D01*
X152524947Y-110559149D01*
X152532115Y-110560640D01*
X152609520Y-110558546D01*
X152612928Y-110558500D01*
X154562067Y-110558500D01*
X154633046Y-110580395D01*
X154931481Y-110783873D01*
X154976496Y-110838774D01*
X154986500Y-110887977D01*
X154986500Y-115240291D01*
X154992811Y-115320553D01*
X154998967Y-115359454D01*
X155017741Y-115437725D01*
X155020816Y-115443983D01*
X155020817Y-115443987D01*
X155075963Y-115556233D01*
X155082189Y-115568906D01*
X155122245Y-115627524D01*
X155221044Y-115735237D01*
X155224525Y-115738085D01*
X155224526Y-115738086D01*
X155970935Y-116348784D01*
X156240022Y-116568946D01*
X156263306Y-116586908D01*
X156274973Y-116595387D01*
X156275684Y-116595873D01*
X156275712Y-116595893D01*
X156294786Y-116608937D01*
X156299239Y-116611982D01*
X156432188Y-116672698D01*
X156455942Y-116679673D01*
X156495986Y-116691431D01*
X156495990Y-116691432D01*
X156500309Y-116692700D01*
X156504758Y-116693340D01*
X156504764Y-116693341D01*
X156640531Y-116712861D01*
X156640536Y-116712861D01*
X156644978Y-116713500D01*
X163047810Y-116713500D01*
X163074385Y-116712076D01*
X163100999Y-116710650D01*
X163101009Y-116710649D01*
X163102692Y-116710559D01*
X163129475Y-116707680D01*
X163131132Y-116707412D01*
X163131143Y-116707410D01*
X163162939Y-116702257D01*
X163183752Y-116698884D01*
X163241744Y-116677254D01*
X163274104Y-116669851D01*
X164983214Y-116510864D01*
X165012816Y-116511605D01*
X165021543Y-116512860D01*
X165021554Y-116512861D01*
X165026000Y-116513500D01*
X172012334Y-116513500D01*
X172073807Y-116529513D01*
X172104525Y-116546682D01*
X172100000Y-116550000D01*
X172110215Y-116549862D01*
X172423804Y-116545624D01*
X175706305Y-116501266D01*
X175725935Y-116502537D01*
X175797731Y-116512860D01*
X175797746Y-116512861D01*
X175802190Y-116513500D01*
X179365500Y-116513500D01*
X179433621Y-116533502D01*
X179480114Y-116587158D01*
X179491500Y-116639500D01*
X179491500Y-124365500D01*
X179471498Y-124433621D01*
X179417842Y-124480114D01*
X179365500Y-124491500D01*
X117634500Y-124491500D01*
X117566379Y-124471498D01*
X117519886Y-124417842D01*
X117508500Y-124365500D01*
X117508500Y-122749124D01*
X144622000Y-122749124D01*
X144622301Y-122755272D01*
X144636527Y-122900361D01*
X144638910Y-122912396D01*
X144695317Y-123099223D01*
X144699992Y-123110565D01*
X144791612Y-123282879D01*
X144798399Y-123293095D01*
X144921747Y-123444335D01*
X144930391Y-123453039D01*
X145080763Y-123577438D01*
X145090931Y-123584297D01*
X145262607Y-123677121D01*
X145273907Y-123681871D01*
X145408693Y-123723595D01*
X145422795Y-123723801D01*
X145426000Y-123717045D01*
X145426000Y-123710047D01*
X145934000Y-123710047D01*
X145937973Y-123723578D01*
X145945768Y-123724698D01*
X146072342Y-123687446D01*
X146083710Y-123682853D01*
X146256666Y-123592434D01*
X146266928Y-123585718D01*
X146419020Y-123463432D01*
X146427786Y-123454848D01*
X146553236Y-123305344D01*
X146560160Y-123295233D01*
X146654184Y-123124202D01*
X146659012Y-123112938D01*
X146718025Y-122926905D01*
X146720573Y-122914916D01*
X146737607Y-122763053D01*
X146738000Y-122756029D01*
X146738000Y-122749124D01*
X153262000Y-122749124D01*
X153262301Y-122755272D01*
X153276527Y-122900361D01*
X153278910Y-122912396D01*
X153335317Y-123099223D01*
X153339992Y-123110565D01*
X153431612Y-123282879D01*
X153438399Y-123293095D01*
X153561747Y-123444335D01*
X153570391Y-123453039D01*
X153720763Y-123577438D01*
X153730931Y-123584297D01*
X153902607Y-123677121D01*
X153913907Y-123681871D01*
X154048693Y-123723595D01*
X154062795Y-123723801D01*
X154066000Y-123717045D01*
X154066000Y-123710047D01*
X154574000Y-123710047D01*
X154577973Y-123723578D01*
X154585768Y-123724698D01*
X154712342Y-123687446D01*
X154723710Y-123682853D01*
X154896666Y-123592434D01*
X154906928Y-123585718D01*
X155059020Y-123463432D01*
X155067786Y-123454848D01*
X155193236Y-123305344D01*
X155200160Y-123295233D01*
X155294184Y-123124202D01*
X155299012Y-123112938D01*
X155358025Y-122926905D01*
X155360573Y-122914916D01*
X155377607Y-122763053D01*
X155378000Y-122756029D01*
X155378000Y-122672115D01*
X155373525Y-122656876D01*
X155372135Y-122655671D01*
X155364452Y-122654000D01*
X154592115Y-122654000D01*
X154576876Y-122658475D01*
X154575671Y-122659865D01*
X154574000Y-122667548D01*
X154574000Y-123710047D01*
X154066000Y-123710047D01*
X154066000Y-122672115D01*
X154061525Y-122656876D01*
X154060135Y-122655671D01*
X154052452Y-122654000D01*
X153280115Y-122654000D01*
X153264876Y-122658475D01*
X153263671Y-122659865D01*
X153262000Y-122667548D01*
X153262000Y-122749124D01*
X146738000Y-122749124D01*
X146738000Y-122672115D01*
X146733525Y-122656876D01*
X146732135Y-122655671D01*
X146724452Y-122654000D01*
X145952115Y-122654000D01*
X145936876Y-122658475D01*
X145935671Y-122659865D01*
X145934000Y-122667548D01*
X145934000Y-123710047D01*
X145426000Y-123710047D01*
X145426000Y-122672115D01*
X145421525Y-122656876D01*
X145420135Y-122655671D01*
X145412452Y-122654000D01*
X144640115Y-122654000D01*
X144624876Y-122658475D01*
X144623671Y-122659865D01*
X144622000Y-122667548D01*
X144622000Y-122749124D01*
X117508500Y-122749124D01*
X117508500Y-122127885D01*
X144622000Y-122127885D01*
X144626475Y-122143124D01*
X144627865Y-122144329D01*
X144635548Y-122146000D01*
X145407885Y-122146000D01*
X145423124Y-122141525D01*
X145424329Y-122140135D01*
X145426000Y-122132452D01*
X145426000Y-122127885D01*
X145934000Y-122127885D01*
X145938475Y-122143124D01*
X145939865Y-122144329D01*
X145947548Y-122146000D01*
X146719885Y-122146000D01*
X146735124Y-122141525D01*
X146736329Y-122140135D01*
X146738000Y-122132452D01*
X146738000Y-122127885D01*
X153262000Y-122127885D01*
X153266475Y-122143124D01*
X153267865Y-122144329D01*
X153275548Y-122146000D01*
X154047885Y-122146000D01*
X154063124Y-122141525D01*
X154064329Y-122140135D01*
X154066000Y-122132452D01*
X154066000Y-122127885D01*
X154574000Y-122127885D01*
X154578475Y-122143124D01*
X154579865Y-122144329D01*
X154587548Y-122146000D01*
X155359885Y-122146000D01*
X155375124Y-122141525D01*
X155376329Y-122140135D01*
X155378000Y-122132452D01*
X155378000Y-122050876D01*
X155377699Y-122044728D01*
X155363473Y-121899639D01*
X155361090Y-121887604D01*
X155304683Y-121700777D01*
X155300008Y-121689435D01*
X155208388Y-121517121D01*
X155201601Y-121506905D01*
X155078253Y-121355665D01*
X155069609Y-121346961D01*
X154919237Y-121222562D01*
X154909069Y-121215703D01*
X154737393Y-121122879D01*
X154726093Y-121118129D01*
X154591307Y-121076405D01*
X154577205Y-121076199D01*
X154574000Y-121082955D01*
X154574000Y-122127885D01*
X154066000Y-122127885D01*
X154066000Y-121089953D01*
X154062027Y-121076422D01*
X154054232Y-121075302D01*
X153927658Y-121112554D01*
X153916290Y-121117147D01*
X153743334Y-121207566D01*
X153733072Y-121214282D01*
X153580980Y-121336568D01*
X153572214Y-121345152D01*
X153446764Y-121494656D01*
X153439840Y-121504767D01*
X153345816Y-121675798D01*
X153340988Y-121687062D01*
X153281975Y-121873095D01*
X153279427Y-121885084D01*
X153262393Y-122036947D01*
X153262000Y-122043971D01*
X153262000Y-122127885D01*
X146738000Y-122127885D01*
X146738000Y-122050876D01*
X146737699Y-122044728D01*
X146723473Y-121899639D01*
X146721090Y-121887604D01*
X146664683Y-121700777D01*
X146660008Y-121689435D01*
X146568388Y-121517121D01*
X146561601Y-121506905D01*
X146438253Y-121355665D01*
X146429609Y-121346961D01*
X146279237Y-121222562D01*
X146269069Y-121215703D01*
X146097393Y-121122879D01*
X146086093Y-121118129D01*
X145951307Y-121076405D01*
X145937205Y-121076199D01*
X145934000Y-121082955D01*
X145934000Y-122127885D01*
X145426000Y-122127885D01*
X145426000Y-121089953D01*
X145422027Y-121076422D01*
X145414232Y-121075302D01*
X145287658Y-121112554D01*
X145276290Y-121117147D01*
X145103334Y-121207566D01*
X145093072Y-121214282D01*
X144940980Y-121336568D01*
X144932214Y-121345152D01*
X144806764Y-121494656D01*
X144799840Y-121504767D01*
X144705816Y-121675798D01*
X144700988Y-121687062D01*
X144641975Y-121873095D01*
X144639427Y-121885084D01*
X144622393Y-122036947D01*
X144622000Y-122043971D01*
X144622000Y-122127885D01*
X117508500Y-122127885D01*
X117508500Y-111487885D01*
X125502000Y-111487885D01*
X125506475Y-111503124D01*
X125507865Y-111504329D01*
X125515548Y-111506000D01*
X126325385Y-111506000D01*
X126340624Y-111501525D01*
X126341829Y-111500135D01*
X126343500Y-111492452D01*
X126343500Y-110545118D01*
X126339357Y-110531008D01*
X126337132Y-110468727D01*
X126343500Y-110439453D01*
X126343500Y-109492115D01*
X126339025Y-109476876D01*
X126337635Y-109475671D01*
X126329952Y-109474000D01*
X125520116Y-109474000D01*
X125504877Y-109478475D01*
X125503672Y-109479865D01*
X125502001Y-109487548D01*
X125502001Y-109742095D01*
X125502338Y-109748614D01*
X125512257Y-109844206D01*
X125515149Y-109857600D01*
X125566588Y-110011784D01*
X125572761Y-110024962D01*
X125658063Y-110162807D01*
X125667099Y-110174208D01*
X125781829Y-110288739D01*
X125793240Y-110297751D01*
X125930983Y-110382657D01*
X125978476Y-110435429D01*
X125989900Y-110505501D01*
X125961626Y-110570625D01*
X125931170Y-110597061D01*
X125792193Y-110683063D01*
X125780792Y-110692099D01*
X125666261Y-110806829D01*
X125657249Y-110818240D01*
X125572184Y-110956243D01*
X125566037Y-110969424D01*
X125514862Y-111123710D01*
X125511995Y-111137086D01*
X125502328Y-111231438D01*
X125502000Y-111237855D01*
X125502000Y-111487885D01*
X117508500Y-111487885D01*
X117508500Y-108700400D01*
X119491500Y-108700400D01*
X119491837Y-108703646D01*
X119491837Y-108703650D01*
X119500613Y-108788229D01*
X119502474Y-108806166D01*
X119504655Y-108812702D01*
X119504655Y-108812704D01*
X119536501Y-108908156D01*
X119558450Y-108973946D01*
X119651522Y-109124348D01*
X119776697Y-109249305D01*
X119782927Y-109253145D01*
X119782928Y-109253146D01*
X119920090Y-109337694D01*
X119927262Y-109342115D01*
X120007005Y-109368564D01*
X120088611Y-109395632D01*
X120088613Y-109395632D01*
X120095139Y-109397797D01*
X120101975Y-109398497D01*
X120101978Y-109398498D01*
X120145031Y-109402909D01*
X120199600Y-109408500D01*
X120950400Y-109408500D01*
X120953646Y-109408163D01*
X120953650Y-109408163D01*
X121049308Y-109398238D01*
X121049312Y-109398237D01*
X121056166Y-109397526D01*
X121062702Y-109395345D01*
X121062704Y-109395345D01*
X121194806Y-109351272D01*
X121223946Y-109341550D01*
X121374348Y-109248478D01*
X121499305Y-109123303D01*
X121501906Y-109119084D01*
X121559030Y-109078583D01*
X121629953Y-109075351D01*
X121691365Y-109110976D01*
X121697922Y-109118530D01*
X121701522Y-109124348D01*
X121826697Y-109249305D01*
X121832927Y-109253145D01*
X121832928Y-109253146D01*
X121970090Y-109337694D01*
X121977262Y-109342115D01*
X122057005Y-109368564D01*
X122138611Y-109395632D01*
X122138613Y-109395632D01*
X122145139Y-109397797D01*
X122151975Y-109398497D01*
X122151978Y-109398498D01*
X122195031Y-109402909D01*
X122249600Y-109408500D01*
X123000400Y-109408500D01*
X123003646Y-109408163D01*
X123003650Y-109408163D01*
X123099308Y-109398238D01*
X123099312Y-109398237D01*
X123106166Y-109397526D01*
X123112702Y-109395345D01*
X123112704Y-109395345D01*
X123244806Y-109351272D01*
X123273946Y-109341550D01*
X123424348Y-109248478D01*
X123549305Y-109123303D01*
X123599347Y-109042121D01*
X123638275Y-108978968D01*
X123638276Y-108978966D01*
X123642115Y-108972738D01*
X123650358Y-108947885D01*
X125502000Y-108947885D01*
X125506475Y-108963124D01*
X125507865Y-108964329D01*
X125515548Y-108966000D01*
X126325385Y-108966000D01*
X126340624Y-108961525D01*
X126341829Y-108960135D01*
X126343500Y-108952452D01*
X126343500Y-108005116D01*
X126339025Y-107989877D01*
X126337635Y-107988672D01*
X126329952Y-107987001D01*
X126212905Y-107987001D01*
X126206386Y-107987338D01*
X126110794Y-107997257D01*
X126097400Y-108000149D01*
X125943216Y-108051588D01*
X125930038Y-108057761D01*
X125792193Y-108143063D01*
X125780792Y-108152099D01*
X125666261Y-108266829D01*
X125657249Y-108278240D01*
X125572184Y-108416243D01*
X125566037Y-108429424D01*
X125514862Y-108583710D01*
X125511995Y-108597086D01*
X125502328Y-108691438D01*
X125502000Y-108697855D01*
X125502000Y-108947885D01*
X123650358Y-108947885D01*
X123659663Y-108919832D01*
X123700094Y-108861473D01*
X123765658Y-108834236D01*
X123779256Y-108833500D01*
X124321233Y-108833500D01*
X124332416Y-108834027D01*
X124339909Y-108835702D01*
X124347835Y-108835453D01*
X124347836Y-108835453D01*
X124407986Y-108833562D01*
X124411945Y-108833500D01*
X124439856Y-108833500D01*
X124443791Y-108833003D01*
X124443856Y-108832995D01*
X124455693Y-108832062D01*
X124487951Y-108831048D01*
X124491970Y-108830922D01*
X124499889Y-108830673D01*
X124519343Y-108825021D01*
X124538700Y-108821013D01*
X124550930Y-108819468D01*
X124550931Y-108819468D01*
X124558797Y-108818474D01*
X124566168Y-108815555D01*
X124566170Y-108815555D01*
X124599912Y-108802196D01*
X124611142Y-108798351D01*
X124645983Y-108788229D01*
X124645984Y-108788229D01*
X124653593Y-108786018D01*
X124660412Y-108781985D01*
X124660417Y-108781983D01*
X124671028Y-108775707D01*
X124688776Y-108767012D01*
X124707617Y-108759552D01*
X124743387Y-108733564D01*
X124753307Y-108727048D01*
X124784535Y-108708580D01*
X124784538Y-108708578D01*
X124791362Y-108704542D01*
X124805683Y-108690221D01*
X124820717Y-108677380D01*
X124823222Y-108675560D01*
X124837107Y-108665472D01*
X124865298Y-108631395D01*
X124873288Y-108622616D01*
X127142253Y-106353652D01*
X127150539Y-106346112D01*
X127157018Y-106342000D01*
X127203644Y-106292348D01*
X127206398Y-106289507D01*
X127226135Y-106269770D01*
X127228615Y-106266573D01*
X127236320Y-106257551D01*
X127261159Y-106231100D01*
X127266586Y-106225321D01*
X127270405Y-106218375D01*
X127270407Y-106218372D01*
X127276348Y-106207566D01*
X127287199Y-106191047D01*
X127294758Y-106181301D01*
X127299614Y-106175041D01*
X127302759Y-106167772D01*
X127302762Y-106167768D01*
X127317174Y-106134463D01*
X127322391Y-106123813D01*
X127343695Y-106085060D01*
X127348733Y-106065437D01*
X127355137Y-106046734D01*
X127360033Y-106035420D01*
X127360033Y-106035419D01*
X127363181Y-106028145D01*
X127364420Y-106020322D01*
X127364423Y-106020312D01*
X127370099Y-105984476D01*
X127372505Y-105972856D01*
X127381528Y-105937711D01*
X127381528Y-105937710D01*
X127383500Y-105930030D01*
X127383500Y-105909776D01*
X127385051Y-105890065D01*
X127386980Y-105877886D01*
X127388220Y-105870057D01*
X127384059Y-105826038D01*
X127383500Y-105814181D01*
X127383500Y-104997329D01*
X127403502Y-104929208D01*
X127425407Y-104905668D01*
X127424731Y-104904992D01*
X127431081Y-104898642D01*
X127438261Y-104893261D01*
X127525615Y-104776705D01*
X127576745Y-104640316D01*
X127583500Y-104578134D01*
X127583500Y-103527398D01*
X129104282Y-103527398D01*
X129126947Y-103621443D01*
X129130836Y-103632738D01*
X129214567Y-103816893D01*
X129220514Y-103827235D01*
X129337562Y-103992243D01*
X129345355Y-104001272D01*
X129491489Y-104141165D01*
X129500864Y-104148569D01*
X129670804Y-104258297D01*
X129681412Y-104263796D01*
X129869031Y-104339408D01*
X129880490Y-104342802D01*
X130080470Y-104381856D01*
X130089332Y-104382932D01*
X130092111Y-104383000D01*
X130537885Y-104383000D01*
X130553124Y-104378525D01*
X130554329Y-104377135D01*
X130556000Y-104369452D01*
X130556000Y-104364885D01*
X131064000Y-104364885D01*
X131068475Y-104380124D01*
X131069865Y-104381329D01*
X131077548Y-104383000D01*
X131475544Y-104383000D01*
X131481520Y-104382715D01*
X131632343Y-104368325D01*
X131644077Y-104366066D01*
X131838195Y-104309118D01*
X131849271Y-104304688D01*
X132029118Y-104212061D01*
X132039164Y-104205611D01*
X132198248Y-104080650D01*
X132206897Y-104072413D01*
X132339478Y-103919627D01*
X132346414Y-103909903D01*
X132447711Y-103734806D01*
X132452685Y-103723942D01*
X132519048Y-103532836D01*
X132519934Y-103529199D01*
X132518336Y-103517993D01*
X132504767Y-103514000D01*
X131082115Y-103514000D01*
X131066876Y-103518475D01*
X131065671Y-103519865D01*
X131064000Y-103527548D01*
X131064000Y-104364885D01*
X130556000Y-104364885D01*
X130556000Y-103532115D01*
X130551525Y-103516876D01*
X130550135Y-103515671D01*
X130542452Y-103514000D01*
X129119168Y-103514000D01*
X129105637Y-103517973D01*
X129104282Y-103527398D01*
X127583500Y-103527398D01*
X127583500Y-102990801D01*
X129100066Y-102990801D01*
X129101664Y-103002007D01*
X129115233Y-103006000D01*
X132500832Y-103006000D01*
X132514363Y-103002027D01*
X132515718Y-102992602D01*
X132493053Y-102898557D01*
X132489164Y-102887262D01*
X132405433Y-102703107D01*
X132399486Y-102692765D01*
X132282438Y-102527757D01*
X132274645Y-102518728D01*
X132128511Y-102378835D01*
X132119136Y-102371431D01*
X131949196Y-102261703D01*
X131938588Y-102256204D01*
X131750969Y-102180592D01*
X131739510Y-102177198D01*
X131539534Y-102138145D01*
X131536305Y-102137753D01*
X131535290Y-102137316D01*
X131535084Y-102137276D01*
X131535093Y-102137231D01*
X131471092Y-102109687D01*
X131433914Y-102057965D01*
X131424615Y-102033825D01*
X130822812Y-101432022D01*
X130808868Y-101424408D01*
X130807035Y-101424539D01*
X130800420Y-101428790D01*
X130200328Y-102028882D01*
X130176355Y-102072784D01*
X130175189Y-102078144D01*
X130124988Y-102128348D01*
X130076566Y-102143192D01*
X129987657Y-102151675D01*
X129975923Y-102153934D01*
X129781805Y-102210882D01*
X129770729Y-102215312D01*
X129590882Y-102307939D01*
X129580836Y-102314389D01*
X129421752Y-102439350D01*
X129413103Y-102447587D01*
X129280522Y-102600373D01*
X129273586Y-102610097D01*
X129172289Y-102785194D01*
X129167315Y-102796058D01*
X129100952Y-102987164D01*
X129100066Y-102990801D01*
X127583500Y-102990801D01*
X127583500Y-102921866D01*
X127576745Y-102859684D01*
X127525615Y-102723295D01*
X127438261Y-102606739D01*
X127321705Y-102519385D01*
X127313297Y-102516233D01*
X127305425Y-102511923D01*
X127306728Y-102509543D01*
X127261196Y-102475336D01*
X127236499Y-102408773D01*
X127251709Y-102339425D01*
X127301997Y-102289309D01*
X127309097Y-102286067D01*
X127313299Y-102283766D01*
X127321705Y-102280615D01*
X127438261Y-102193261D01*
X127525615Y-102076705D01*
X127576745Y-101940316D01*
X127583500Y-101878134D01*
X127583500Y-101035218D01*
X129643800Y-101035218D01*
X129657011Y-101236789D01*
X129658811Y-101248156D01*
X129708537Y-101443950D01*
X129712375Y-101454788D01*
X129796950Y-101638246D01*
X129802698Y-101648202D01*
X129817042Y-101668499D01*
X129827630Y-101676887D01*
X129840931Y-101669859D01*
X130437978Y-101072812D01*
X130444356Y-101061132D01*
X131174408Y-101061132D01*
X131174539Y-101062965D01*
X131178790Y-101069580D01*
X131779910Y-101670700D01*
X131792290Y-101677460D01*
X131798870Y-101672534D01*
X131873267Y-101539688D01*
X131877943Y-101529185D01*
X131942878Y-101337894D01*
X131945563Y-101326712D01*
X131974846Y-101124749D01*
X131975476Y-101117366D01*
X131976881Y-101063704D01*
X131976638Y-101056305D01*
X131957966Y-100853092D01*
X131955868Y-100841771D01*
X131901038Y-100647357D01*
X131896913Y-100636610D01*
X131807567Y-100455438D01*
X131803663Y-100449066D01*
X131793453Y-100441404D01*
X131781033Y-100448177D01*
X131182022Y-101047188D01*
X131174408Y-101061132D01*
X130444356Y-101061132D01*
X130445592Y-101058868D01*
X130445461Y-101057035D01*
X130441210Y-101050420D01*
X129838558Y-100447768D01*
X129826178Y-100441008D01*
X129820212Y-100445474D01*
X129734546Y-100608298D01*
X129730138Y-100618941D01*
X129670235Y-100811857D01*
X129667845Y-100823101D01*
X129644101Y-101023717D01*
X129643800Y-101035218D01*
X127583500Y-101035218D01*
X127583500Y-100221866D01*
X127576745Y-100159684D01*
X127525615Y-100023295D01*
X127438261Y-99906739D01*
X127431081Y-99901358D01*
X127424731Y-99895008D01*
X127426366Y-99893373D01*
X127391421Y-99846641D01*
X127383500Y-99802671D01*
X127383500Y-98405840D01*
X127403502Y-98337719D01*
X127443197Y-98298696D01*
X127445754Y-98297114D01*
X127524348Y-98248478D01*
X127649305Y-98123303D01*
X127669870Y-98089940D01*
X127738275Y-97978968D01*
X127738276Y-97978966D01*
X127742115Y-97972738D01*
X127780726Y-97856329D01*
X127795632Y-97811389D01*
X127795632Y-97811387D01*
X127797797Y-97804861D01*
X127800024Y-97783132D01*
X127803986Y-97744452D01*
X127808500Y-97700400D01*
X127808500Y-96699600D01*
X127801210Y-96629341D01*
X127798238Y-96600692D01*
X127798237Y-96600688D01*
X127797526Y-96593834D01*
X127795330Y-96587250D01*
X127743868Y-96433002D01*
X127741550Y-96426054D01*
X127648478Y-96275652D01*
X127600585Y-96227842D01*
X127586913Y-96214194D01*
X127552834Y-96151911D01*
X127557837Y-96081091D01*
X127586758Y-96036003D01*
X127669134Y-95953483D01*
X127674305Y-95948303D01*
X127705621Y-95897500D01*
X127763275Y-95803968D01*
X127763276Y-95803966D01*
X127767115Y-95797738D01*
X127822797Y-95629861D01*
X127825276Y-95605671D01*
X127827909Y-95579969D01*
X127833500Y-95525400D01*
X127833500Y-94977885D01*
X133747000Y-94977885D01*
X133751475Y-94993124D01*
X133752865Y-94994329D01*
X133760548Y-94996000D01*
X134982885Y-94996000D01*
X134998124Y-94991525D01*
X134999329Y-94990135D01*
X135001000Y-94982452D01*
X135001000Y-94977885D01*
X135509000Y-94977885D01*
X135513475Y-94993124D01*
X135514865Y-94994329D01*
X135522548Y-94996000D01*
X136744885Y-94996000D01*
X136760124Y-94991525D01*
X136761329Y-94990135D01*
X136763000Y-94982452D01*
X136763000Y-93655319D01*
X136762923Y-93652267D01*
X136761767Y-93643055D01*
X136724838Y-93459909D01*
X136721248Y-93448167D01*
X136650022Y-93277057D01*
X136644222Y-93266241D01*
X136541115Y-93112221D01*
X136533322Y-93102734D01*
X136402266Y-92971678D01*
X136392779Y-92963885D01*
X136238759Y-92860778D01*
X136227943Y-92854978D01*
X136056833Y-92783752D01*
X136045091Y-92780162D01*
X135861945Y-92743233D01*
X135852733Y-92742077D01*
X135849681Y-92742000D01*
X135527115Y-92742000D01*
X135511876Y-92746475D01*
X135510671Y-92747865D01*
X135509000Y-92755548D01*
X135509000Y-94977885D01*
X135001000Y-94977885D01*
X135001000Y-92760115D01*
X134996525Y-92744876D01*
X134995135Y-92743671D01*
X134987452Y-92742000D01*
X134660319Y-92742000D01*
X134657267Y-92742077D01*
X134648055Y-92743233D01*
X134464909Y-92780162D01*
X134453167Y-92783752D01*
X134282057Y-92854978D01*
X134271241Y-92860778D01*
X134117221Y-92963885D01*
X134107734Y-92971678D01*
X133976678Y-93102734D01*
X133968885Y-93112221D01*
X133865778Y-93266241D01*
X133859978Y-93277057D01*
X133788752Y-93448167D01*
X133785162Y-93459909D01*
X133748233Y-93643055D01*
X133747077Y-93652267D01*
X133747000Y-93655319D01*
X133747000Y-94977885D01*
X127833500Y-94977885D01*
X127833500Y-94590801D01*
X129100066Y-94590801D01*
X129101664Y-94602007D01*
X129115233Y-94606000D01*
X130537885Y-94606000D01*
X130553124Y-94601525D01*
X130554329Y-94600135D01*
X130556000Y-94592452D01*
X130556000Y-94587885D01*
X131064000Y-94587885D01*
X131068475Y-94603124D01*
X131069865Y-94604329D01*
X131077548Y-94606000D01*
X132500832Y-94606000D01*
X132514363Y-94602027D01*
X132515718Y-94592602D01*
X132493053Y-94498557D01*
X132489164Y-94487262D01*
X132405433Y-94303107D01*
X132399486Y-94292765D01*
X132282438Y-94127757D01*
X132274645Y-94118728D01*
X132128511Y-93978835D01*
X132119136Y-93971431D01*
X131949196Y-93861703D01*
X131938588Y-93856204D01*
X131750969Y-93780592D01*
X131739510Y-93777198D01*
X131539530Y-93738144D01*
X131530668Y-93737068D01*
X131527889Y-93737000D01*
X131082115Y-93737000D01*
X131066876Y-93741475D01*
X131065671Y-93742865D01*
X131064000Y-93750548D01*
X131064000Y-94587885D01*
X130556000Y-94587885D01*
X130556000Y-93755115D01*
X130551525Y-93739876D01*
X130550135Y-93738671D01*
X130542452Y-93737000D01*
X130144456Y-93737000D01*
X130138480Y-93737285D01*
X129987657Y-93751675D01*
X129975923Y-93753934D01*
X129781805Y-93810882D01*
X129770729Y-93815312D01*
X129590882Y-93907939D01*
X129580836Y-93914389D01*
X129421752Y-94039350D01*
X129413103Y-94047587D01*
X129280522Y-94200373D01*
X129273586Y-94210097D01*
X129172289Y-94385194D01*
X129167315Y-94396058D01*
X129100952Y-94587164D01*
X129100066Y-94590801D01*
X127833500Y-94590801D01*
X127833500Y-94474600D01*
X127825351Y-94396058D01*
X127823238Y-94375692D01*
X127823237Y-94375688D01*
X127822526Y-94368834D01*
X127766550Y-94201054D01*
X127673478Y-94050652D01*
X127548303Y-93925695D01*
X127529962Y-93914389D01*
X127397738Y-93832885D01*
X127398774Y-93831205D01*
X127352969Y-93790879D01*
X127333500Y-93723595D01*
X127333500Y-93402524D01*
X127353502Y-93334403D01*
X127365858Y-93318221D01*
X127439040Y-93236944D01*
X127534527Y-93071556D01*
X127593542Y-92889928D01*
X127594569Y-92880162D01*
X127612814Y-92706565D01*
X127613504Y-92700000D01*
X127593542Y-92510072D01*
X127534527Y-92328444D01*
X127439040Y-92163056D01*
X127311253Y-92021134D01*
X127156752Y-91908882D01*
X127150724Y-91906198D01*
X127150722Y-91906197D01*
X126988319Y-91833891D01*
X126988318Y-91833891D01*
X126982288Y-91831206D01*
X126888888Y-91811353D01*
X126801944Y-91792872D01*
X126801939Y-91792872D01*
X126795487Y-91791500D01*
X126604513Y-91791500D01*
X126598061Y-91792872D01*
X126598056Y-91792872D01*
X126511112Y-91811353D01*
X126417712Y-91831206D01*
X126411682Y-91833891D01*
X126411681Y-91833891D01*
X126249278Y-91906197D01*
X126249276Y-91906198D01*
X126243248Y-91908882D01*
X126088747Y-92021134D01*
X125960960Y-92163056D01*
X125865473Y-92328444D01*
X125806458Y-92510072D01*
X125786496Y-92700000D01*
X125787186Y-92706565D01*
X125805432Y-92880162D01*
X125806458Y-92889928D01*
X125865473Y-93071556D01*
X125960960Y-93236944D01*
X126034137Y-93318215D01*
X126064853Y-93382221D01*
X126066500Y-93402524D01*
X126066500Y-93769160D01*
X126046498Y-93837281D01*
X126006803Y-93876304D01*
X125925652Y-93926522D01*
X125800695Y-94051697D01*
X125797898Y-94056235D01*
X125740647Y-94096824D01*
X125669724Y-94100054D01*
X125608313Y-94064428D01*
X125600938Y-94055932D01*
X125592902Y-94045793D01*
X125478171Y-93931261D01*
X125466760Y-93922249D01*
X125328757Y-93837184D01*
X125315576Y-93831037D01*
X125161290Y-93779862D01*
X125147914Y-93776995D01*
X125053562Y-93767328D01*
X125047145Y-93767000D01*
X124934615Y-93767000D01*
X124919376Y-93771475D01*
X124918171Y-93772865D01*
X124916500Y-93780548D01*
X124916500Y-95128000D01*
X124896498Y-95196121D01*
X124842842Y-95242614D01*
X124790500Y-95254000D01*
X123585116Y-95254000D01*
X123569877Y-95258475D01*
X123568672Y-95259865D01*
X123567001Y-95267548D01*
X123567001Y-95522095D01*
X123567338Y-95528614D01*
X123577257Y-95624206D01*
X123580149Y-95637600D01*
X123631588Y-95791784D01*
X123637761Y-95804962D01*
X123723063Y-95942807D01*
X123732099Y-95954208D01*
X123813484Y-96035452D01*
X123847563Y-96097735D01*
X123842560Y-96168555D01*
X123813639Y-96213643D01*
X123750695Y-96276697D01*
X123746855Y-96282927D01*
X123746854Y-96282928D01*
X123663239Y-96418577D01*
X123657885Y-96427262D01*
X123647235Y-96459371D01*
X123640337Y-96480168D01*
X123599906Y-96538527D01*
X123534342Y-96565764D01*
X123520744Y-96566500D01*
X121778767Y-96566500D01*
X121767584Y-96565973D01*
X121760091Y-96564298D01*
X121752165Y-96564547D01*
X121752164Y-96564547D01*
X121692014Y-96566438D01*
X121688055Y-96566500D01*
X121660144Y-96566500D01*
X121656210Y-96566997D01*
X121656209Y-96566997D01*
X121656144Y-96567005D01*
X121644307Y-96567938D01*
X121612490Y-96568938D01*
X121608029Y-96569078D01*
X121600110Y-96569327D01*
X121586393Y-96573312D01*
X121580658Y-96574978D01*
X121561306Y-96578986D01*
X121554235Y-96579880D01*
X121541203Y-96581526D01*
X121533834Y-96584443D01*
X121533832Y-96584444D01*
X121500097Y-96597800D01*
X121488869Y-96601645D01*
X121446407Y-96613982D01*
X121439585Y-96618016D01*
X121439579Y-96618019D01*
X121428968Y-96624294D01*
X121411218Y-96632990D01*
X121399756Y-96637528D01*
X121399751Y-96637531D01*
X121392383Y-96640448D01*
X121385968Y-96645109D01*
X121356625Y-96666427D01*
X121346707Y-96672943D01*
X121328019Y-96683995D01*
X121308637Y-96695458D01*
X121294313Y-96709782D01*
X121279281Y-96722621D01*
X121262893Y-96734528D01*
X121242429Y-96759265D01*
X121234712Y-96768593D01*
X121226722Y-96777373D01*
X120182747Y-97821348D01*
X120174461Y-97828888D01*
X120167982Y-97833000D01*
X120162557Y-97838777D01*
X120121357Y-97882651D01*
X120118602Y-97885493D01*
X120098865Y-97905230D01*
X120096385Y-97908427D01*
X120088682Y-97917447D01*
X120058414Y-97949679D01*
X120054595Y-97956625D01*
X120054593Y-97956628D01*
X120048652Y-97967434D01*
X120037801Y-97983953D01*
X120025386Y-97999959D01*
X120022241Y-98007228D01*
X120022238Y-98007232D01*
X120007826Y-98040537D01*
X120002609Y-98051187D01*
X119981305Y-98089940D01*
X119979334Y-98097615D01*
X119979334Y-98097616D01*
X119976267Y-98109562D01*
X119969863Y-98128266D01*
X119967895Y-98132815D01*
X119961819Y-98146855D01*
X119960580Y-98154678D01*
X119960577Y-98154688D01*
X119954901Y-98190524D01*
X119952495Y-98202144D01*
X119943472Y-98237289D01*
X119941500Y-98244970D01*
X119941500Y-98265224D01*
X119939949Y-98284934D01*
X119936780Y-98304943D01*
X119937526Y-98312835D01*
X119940941Y-98348961D01*
X119941500Y-98360819D01*
X119941500Y-99878689D01*
X119921498Y-99946810D01*
X119881804Y-99985833D01*
X119775652Y-100051522D01*
X119650695Y-100176697D01*
X119646855Y-100182927D01*
X119646854Y-100182928D01*
X119581486Y-100288975D01*
X119557885Y-100327262D01*
X119553494Y-100340500D01*
X119508522Y-100476089D01*
X119502203Y-100495139D01*
X119491500Y-100599600D01*
X119491500Y-101600400D01*
X119491837Y-101603646D01*
X119491837Y-101603650D01*
X119500237Y-101684604D01*
X119502474Y-101706166D01*
X119504655Y-101712702D01*
X119504655Y-101712704D01*
X119520926Y-101761473D01*
X119558450Y-101873946D01*
X119651522Y-102024348D01*
X119656704Y-102029521D01*
X119703970Y-102076705D01*
X119776697Y-102149305D01*
X119782927Y-102153145D01*
X119782928Y-102153146D01*
X119789341Y-102157099D01*
X119847171Y-102192746D01*
X119894663Y-102245517D01*
X119906087Y-102315589D01*
X119877813Y-102380712D01*
X119847359Y-102407148D01*
X119775652Y-102451522D01*
X119650695Y-102576697D01*
X119557885Y-102727262D01*
X119549942Y-102751209D01*
X119504816Y-102887262D01*
X119502203Y-102895139D01*
X119501503Y-102901975D01*
X119501502Y-102901978D01*
X119499114Y-102925283D01*
X119491500Y-102999600D01*
X119491500Y-104000400D01*
X119491837Y-104003646D01*
X119491837Y-104003650D01*
X119501730Y-104098991D01*
X119502474Y-104106166D01*
X119504655Y-104112702D01*
X119504655Y-104112704D01*
X119536168Y-104207158D01*
X119558450Y-104273946D01*
X119651522Y-104424348D01*
X119776697Y-104549305D01*
X119847171Y-104592746D01*
X119894663Y-104645517D01*
X119906087Y-104715589D01*
X119877813Y-104780712D01*
X119847359Y-104807148D01*
X119775652Y-104851522D01*
X119650695Y-104976697D01*
X119646855Y-104982927D01*
X119646854Y-104982928D01*
X119588709Y-105077257D01*
X119557885Y-105127262D01*
X119502203Y-105295139D01*
X119501503Y-105301975D01*
X119501502Y-105301978D01*
X119499563Y-105320905D01*
X119491500Y-105399600D01*
X119491500Y-106400400D01*
X119502474Y-106506166D01*
X119504655Y-106512702D01*
X119504655Y-106512704D01*
X119518304Y-106553614D01*
X119558450Y-106673946D01*
X119651522Y-106824348D01*
X119776697Y-106949305D01*
X119780916Y-106951906D01*
X119821417Y-107009030D01*
X119824649Y-107079953D01*
X119789024Y-107141365D01*
X119781470Y-107147922D01*
X119775652Y-107151522D01*
X119650695Y-107276697D01*
X119646855Y-107282927D01*
X119646854Y-107282928D01*
X119567385Y-107411851D01*
X119557885Y-107427262D01*
X119546336Y-107462081D01*
X119513219Y-107561928D01*
X119502203Y-107595139D01*
X119491500Y-107699600D01*
X119491500Y-108700400D01*
X117508500Y-108700400D01*
X117508500Y-94727885D01*
X123567000Y-94727885D01*
X123571475Y-94743124D01*
X123572865Y-94744329D01*
X123580548Y-94746000D01*
X124390385Y-94746000D01*
X124405624Y-94741525D01*
X124406829Y-94740135D01*
X124408500Y-94732452D01*
X124408500Y-93785116D01*
X124404025Y-93769877D01*
X124402635Y-93768672D01*
X124394952Y-93767001D01*
X124277905Y-93767001D01*
X124271386Y-93767338D01*
X124175794Y-93777257D01*
X124162400Y-93780149D01*
X124008216Y-93831588D01*
X123995038Y-93837761D01*
X123857193Y-93923063D01*
X123845792Y-93932099D01*
X123731261Y-94046829D01*
X123722249Y-94058240D01*
X123637184Y-94196243D01*
X123631037Y-94209424D01*
X123579862Y-94363710D01*
X123576995Y-94377086D01*
X123567328Y-94471438D01*
X123567000Y-94477855D01*
X123567000Y-94727885D01*
X117508500Y-94727885D01*
X117508500Y-62200000D01*
X123386835Y-62200000D01*
X123405465Y-62436711D01*
X123406619Y-62441518D01*
X123406620Y-62441524D01*
X123430484Y-62540923D01*
X123460895Y-62667594D01*
X123462788Y-62672165D01*
X123462789Y-62672167D01*
X123523492Y-62818717D01*
X123551760Y-62886963D01*
X123554346Y-62891183D01*
X123673241Y-63085202D01*
X123673245Y-63085208D01*
X123675824Y-63089416D01*
X123830031Y-63269969D01*
X124010584Y-63424176D01*
X124014792Y-63426755D01*
X124014798Y-63426759D01*
X124208817Y-63545654D01*
X124213037Y-63548240D01*
X124217607Y-63550133D01*
X124217611Y-63550135D01*
X124427833Y-63637211D01*
X124432406Y-63639105D01*
X124512609Y-63658360D01*
X124658476Y-63693380D01*
X124658482Y-63693381D01*
X124663289Y-63694535D01*
X124900000Y-63713165D01*
X125136711Y-63694535D01*
X125141518Y-63693381D01*
X125141524Y-63693380D01*
X125287391Y-63658360D01*
X125367594Y-63639105D01*
X125372167Y-63637211D01*
X125582389Y-63550135D01*
X125582393Y-63550133D01*
X125586963Y-63548240D01*
X125591183Y-63545654D01*
X125785202Y-63426759D01*
X125785208Y-63426755D01*
X125789416Y-63424176D01*
X125969969Y-63269969D01*
X126124176Y-63089416D01*
X126126755Y-63085208D01*
X126126759Y-63085202D01*
X126245654Y-62891183D01*
X126248240Y-62886963D01*
X126276509Y-62818717D01*
X126337211Y-62672167D01*
X126337212Y-62672165D01*
X126339105Y-62667594D01*
X126369516Y-62540923D01*
X126393380Y-62441524D01*
X126393381Y-62441518D01*
X126394535Y-62436711D01*
X126413165Y-62200000D01*
X127886835Y-62200000D01*
X127905465Y-62436711D01*
X127906619Y-62441518D01*
X127906620Y-62441524D01*
X127930484Y-62540923D01*
X127960895Y-62667594D01*
X127962788Y-62672165D01*
X127962789Y-62672167D01*
X128023492Y-62818717D01*
X128051760Y-62886963D01*
X128054346Y-62891183D01*
X128173241Y-63085202D01*
X128173245Y-63085208D01*
X128175824Y-63089416D01*
X128330031Y-63269969D01*
X128510584Y-63424176D01*
X128514792Y-63426755D01*
X128514798Y-63426759D01*
X128708817Y-63545654D01*
X128713037Y-63548240D01*
X128717607Y-63550133D01*
X128717611Y-63550135D01*
X128927833Y-63637211D01*
X128932406Y-63639105D01*
X129012609Y-63658360D01*
X129158476Y-63693380D01*
X129158482Y-63693381D01*
X129163289Y-63694535D01*
X129400000Y-63713165D01*
X129636711Y-63694535D01*
X129641518Y-63693381D01*
X129641524Y-63693380D01*
X129787391Y-63658360D01*
X129867594Y-63639105D01*
X129872167Y-63637211D01*
X130082389Y-63550135D01*
X130082393Y-63550133D01*
X130086963Y-63548240D01*
X130091183Y-63545654D01*
X130285202Y-63426759D01*
X130285208Y-63426755D01*
X130289416Y-63424176D01*
X130469969Y-63269969D01*
X130624176Y-63089416D01*
X130626755Y-63085208D01*
X130626759Y-63085202D01*
X130745654Y-62891183D01*
X130748240Y-62886963D01*
X130776509Y-62818717D01*
X130837211Y-62672167D01*
X130837212Y-62672165D01*
X130839105Y-62667594D01*
X130869516Y-62540923D01*
X130893380Y-62441524D01*
X130893381Y-62441518D01*
X130894535Y-62436711D01*
X130913165Y-62200000D01*
X130894535Y-61963289D01*
X130882426Y-61912848D01*
X130840260Y-61737218D01*
X130839105Y-61732406D01*
X130837211Y-61727833D01*
X130750135Y-61517611D01*
X130750133Y-61517607D01*
X130748240Y-61513037D01*
X130690918Y-61419496D01*
X130626759Y-61314798D01*
X130626755Y-61314792D01*
X130624176Y-61310584D01*
X130469969Y-61130031D01*
X130289416Y-60975824D01*
X130285208Y-60973245D01*
X130285202Y-60973241D01*
X130093665Y-60855867D01*
X130046034Y-60803219D01*
X130033500Y-60748434D01*
X130033500Y-57151566D01*
X130053502Y-57083445D01*
X130093665Y-57044133D01*
X130285202Y-56926759D01*
X130285208Y-56926755D01*
X130289416Y-56924176D01*
X130469969Y-56769969D01*
X130624176Y-56589416D01*
X130626755Y-56585208D01*
X130626759Y-56585202D01*
X130745654Y-56391183D01*
X130748240Y-56386963D01*
X130839105Y-56167594D01*
X130894535Y-55936711D01*
X130913165Y-55700000D01*
X130894535Y-55463289D01*
X130839105Y-55232406D01*
X130748240Y-55013037D01*
X130745654Y-55008817D01*
X130626759Y-54814798D01*
X130626755Y-54814792D01*
X130624176Y-54810584D01*
X130469969Y-54630031D01*
X130289416Y-54475824D01*
X130285208Y-54473245D01*
X130285202Y-54473241D01*
X130091183Y-54354346D01*
X130086963Y-54351760D01*
X130082393Y-54349867D01*
X130082389Y-54349865D01*
X129872167Y-54262789D01*
X129872165Y-54262788D01*
X129867594Y-54260895D01*
X129787391Y-54241640D01*
X129641524Y-54206620D01*
X129641518Y-54206619D01*
X129636711Y-54205465D01*
X129400000Y-54186835D01*
X129163289Y-54205465D01*
X129158482Y-54206619D01*
X129158476Y-54206620D01*
X129012609Y-54241640D01*
X128932406Y-54260895D01*
X128927835Y-54262788D01*
X128927833Y-54262789D01*
X128717611Y-54349865D01*
X128717607Y-54349867D01*
X128713037Y-54351760D01*
X128708817Y-54354346D01*
X128514798Y-54473241D01*
X128514792Y-54473245D01*
X128510584Y-54475824D01*
X128330031Y-54630031D01*
X128175824Y-54810584D01*
X128173245Y-54814792D01*
X128173241Y-54814798D01*
X128054346Y-55008817D01*
X128051760Y-55013037D01*
X127960895Y-55232406D01*
X127905465Y-55463289D01*
X127886835Y-55700000D01*
X127905465Y-55936711D01*
X127960895Y-56167594D01*
X128051760Y-56386963D01*
X128054346Y-56391183D01*
X128173241Y-56585202D01*
X128173245Y-56585208D01*
X128175824Y-56589416D01*
X128330031Y-56769969D01*
X128510584Y-56924176D01*
X128514792Y-56926755D01*
X128514798Y-56926759D01*
X128706335Y-57044133D01*
X128753966Y-57096781D01*
X128766500Y-57151566D01*
X128766500Y-60748434D01*
X128746498Y-60816555D01*
X128706335Y-60855867D01*
X128514798Y-60973241D01*
X128514792Y-60973245D01*
X128510584Y-60975824D01*
X128330031Y-61130031D01*
X128175824Y-61310584D01*
X128173245Y-61314792D01*
X128173241Y-61314798D01*
X128109082Y-61419496D01*
X128051760Y-61513037D01*
X128049867Y-61517607D01*
X128049865Y-61517611D01*
X127962789Y-61727833D01*
X127960895Y-61732406D01*
X127959740Y-61737218D01*
X127917575Y-61912848D01*
X127905465Y-61963289D01*
X127886835Y-62200000D01*
X126413165Y-62200000D01*
X126394535Y-61963289D01*
X126382426Y-61912848D01*
X126340260Y-61737218D01*
X126339105Y-61732406D01*
X126337211Y-61727833D01*
X126250135Y-61517611D01*
X126250133Y-61517607D01*
X126248240Y-61513037D01*
X126190918Y-61419496D01*
X126126759Y-61314798D01*
X126126755Y-61314792D01*
X126124176Y-61310584D01*
X125969969Y-61130031D01*
X125789416Y-60975824D01*
X125785208Y-60973245D01*
X125785202Y-60973241D01*
X125591183Y-60854346D01*
X125586963Y-60851760D01*
X125582393Y-60849867D01*
X125582389Y-60849865D01*
X125372167Y-60762789D01*
X125372165Y-60762788D01*
X125367594Y-60760895D01*
X125287391Y-60741640D01*
X125141524Y-60706620D01*
X125141518Y-60706619D01*
X125136711Y-60705465D01*
X124900000Y-60686835D01*
X124663289Y-60705465D01*
X124658482Y-60706619D01*
X124658476Y-60706620D01*
X124512609Y-60741640D01*
X124432406Y-60760895D01*
X124427835Y-60762788D01*
X124427833Y-60762789D01*
X124217611Y-60849865D01*
X124217607Y-60849867D01*
X124213037Y-60851760D01*
X124208817Y-60854346D01*
X124014798Y-60973241D01*
X124014792Y-60973245D01*
X124010584Y-60975824D01*
X123830031Y-61130031D01*
X123675824Y-61310584D01*
X123673245Y-61314792D01*
X123673241Y-61314798D01*
X123609082Y-61419496D01*
X123551760Y-61513037D01*
X123549867Y-61517607D01*
X123549865Y-61517611D01*
X123462789Y-61727833D01*
X123460895Y-61732406D01*
X123459740Y-61737218D01*
X123417575Y-61912848D01*
X123405465Y-61963289D01*
X123386835Y-62200000D01*
X117508500Y-62200000D01*
X117508500Y-55700000D01*
X123386835Y-55700000D01*
X123405465Y-55936711D01*
X123460895Y-56167594D01*
X123551760Y-56386963D01*
X123554346Y-56391183D01*
X123673241Y-56585202D01*
X123673245Y-56585208D01*
X123675824Y-56589416D01*
X123830031Y-56769969D01*
X124010584Y-56924176D01*
X124014792Y-56926755D01*
X124014798Y-56926759D01*
X124206335Y-57044133D01*
X124213037Y-57048240D01*
X124217607Y-57050133D01*
X124217611Y-57050135D01*
X124427833Y-57137211D01*
X124432406Y-57139105D01*
X124484310Y-57151566D01*
X124658476Y-57193380D01*
X124658482Y-57193381D01*
X124663289Y-57194535D01*
X124900000Y-57213165D01*
X125136711Y-57194535D01*
X125141518Y-57193381D01*
X125141524Y-57193380D01*
X125315690Y-57151566D01*
X125367594Y-57139105D01*
X125372167Y-57137211D01*
X125582389Y-57050135D01*
X125582393Y-57050133D01*
X125586963Y-57048240D01*
X125593665Y-57044133D01*
X125785202Y-56926759D01*
X125785208Y-56926755D01*
X125789416Y-56924176D01*
X125969969Y-56769969D01*
X126124176Y-56589416D01*
X126126755Y-56585208D01*
X126126759Y-56585202D01*
X126245654Y-56391183D01*
X126248240Y-56386963D01*
X126339105Y-56167594D01*
X126394535Y-55936711D01*
X126413165Y-55700000D01*
X126394535Y-55463289D01*
X126339105Y-55232406D01*
X126248240Y-55013037D01*
X126245654Y-55008817D01*
X126126759Y-54814798D01*
X126126755Y-54814792D01*
X126124176Y-54810584D01*
X125969969Y-54630031D01*
X125789416Y-54475824D01*
X125785208Y-54473245D01*
X125785202Y-54473241D01*
X125591183Y-54354346D01*
X125586963Y-54351760D01*
X125582393Y-54349867D01*
X125582389Y-54349865D01*
X125372167Y-54262789D01*
X125372165Y-54262788D01*
X125367594Y-54260895D01*
X125287391Y-54241640D01*
X125141524Y-54206620D01*
X125141518Y-54206619D01*
X125136711Y-54205465D01*
X124900000Y-54186835D01*
X124663289Y-54205465D01*
X124658482Y-54206619D01*
X124658476Y-54206620D01*
X124512609Y-54241640D01*
X124432406Y-54260895D01*
X124427835Y-54262788D01*
X124427833Y-54262789D01*
X124217611Y-54349865D01*
X124217607Y-54349867D01*
X124213037Y-54351760D01*
X124208817Y-54354346D01*
X124014798Y-54473241D01*
X124014792Y-54473245D01*
X124010584Y-54475824D01*
X123830031Y-54630031D01*
X123675824Y-54810584D01*
X123673245Y-54814792D01*
X123673241Y-54814798D01*
X123554346Y-55008817D01*
X123551760Y-55013037D01*
X123460895Y-55232406D01*
X123405465Y-55463289D01*
X123386835Y-55700000D01*
X117508500Y-55700000D01*
X117508500Y-51917580D01*
X119391500Y-51917580D01*
X119398403Y-52049295D01*
X119449706Y-52343250D01*
X119540429Y-52627523D01*
X119668893Y-52896853D01*
X119671242Y-52900430D01*
X119671246Y-52900436D01*
X119830366Y-53142672D01*
X119832721Y-53146257D01*
X120028881Y-53371119D01*
X120253743Y-53567279D01*
X120257327Y-53569633D01*
X120257328Y-53569634D01*
X120499564Y-53728754D01*
X120499570Y-53728758D01*
X120503147Y-53731107D01*
X120630245Y-53791730D01*
X120768608Y-53857726D01*
X120768613Y-53857728D01*
X120772477Y-53859571D01*
X120924231Y-53908002D01*
X121052660Y-53948989D01*
X121052664Y-53948990D01*
X121056750Y-53950294D01*
X121202933Y-53975807D01*
X121346967Y-54000945D01*
X121346973Y-54000946D01*
X121350705Y-54001597D01*
X121354496Y-54001796D01*
X121354499Y-54001796D01*
X121386436Y-54003470D01*
X121482420Y-54008500D01*
X122517580Y-54008500D01*
X122613564Y-54003470D01*
X122645501Y-54001796D01*
X122645504Y-54001796D01*
X122649295Y-54001597D01*
X122653027Y-54000946D01*
X122653033Y-54000945D01*
X122797067Y-53975807D01*
X122943250Y-53950294D01*
X122947336Y-53948990D01*
X122947340Y-53948989D01*
X123075769Y-53908002D01*
X123227523Y-53859571D01*
X123231387Y-53857728D01*
X123231392Y-53857726D01*
X123369755Y-53791730D01*
X123496853Y-53731107D01*
X123500430Y-53728758D01*
X123500436Y-53728754D01*
X123742672Y-53569634D01*
X123742673Y-53569633D01*
X123746257Y-53567279D01*
X123971119Y-53371119D01*
X124167279Y-53146257D01*
X124169634Y-53142672D01*
X124328754Y-52900436D01*
X124328758Y-52900430D01*
X124331107Y-52896853D01*
X124459571Y-52627523D01*
X124550294Y-52343250D01*
X124601597Y-52049295D01*
X124608500Y-51917580D01*
X172391500Y-51917580D01*
X172398403Y-52049295D01*
X172449706Y-52343250D01*
X172540429Y-52627523D01*
X172668893Y-52896853D01*
X172671242Y-52900430D01*
X172671246Y-52900436D01*
X172830366Y-53142672D01*
X172832721Y-53146257D01*
X173028881Y-53371119D01*
X173253743Y-53567279D01*
X173257327Y-53569633D01*
X173257328Y-53569634D01*
X173499564Y-53728754D01*
X173499570Y-53728758D01*
X173503147Y-53731107D01*
X173630245Y-53791730D01*
X173768608Y-53857726D01*
X173768613Y-53857728D01*
X173772477Y-53859571D01*
X173924231Y-53908002D01*
X174052660Y-53948989D01*
X174052664Y-53948990D01*
X174056750Y-53950294D01*
X174202933Y-53975807D01*
X174346967Y-54000945D01*
X174346973Y-54000946D01*
X174350705Y-54001597D01*
X174354496Y-54001796D01*
X174354499Y-54001796D01*
X174386436Y-54003470D01*
X174482420Y-54008500D01*
X175517580Y-54008500D01*
X175613564Y-54003470D01*
X175645501Y-54001796D01*
X175645504Y-54001796D01*
X175649295Y-54001597D01*
X175653027Y-54000946D01*
X175653033Y-54000945D01*
X175797067Y-53975807D01*
X175943250Y-53950294D01*
X175947336Y-53948990D01*
X175947340Y-53948989D01*
X176075769Y-53908002D01*
X176227523Y-53859571D01*
X176231387Y-53857728D01*
X176231392Y-53857726D01*
X176369755Y-53791730D01*
X176496853Y-53731107D01*
X176500430Y-53728758D01*
X176500436Y-53728754D01*
X176742672Y-53569634D01*
X176742673Y-53569633D01*
X176746257Y-53567279D01*
X176971119Y-53371119D01*
X177167279Y-53146257D01*
X177169634Y-53142672D01*
X177328754Y-52900436D01*
X177328758Y-52900430D01*
X177331107Y-52896853D01*
X177459571Y-52627523D01*
X177550294Y-52343250D01*
X177601597Y-52049295D01*
X177608500Y-51917580D01*
X177608500Y-50082420D01*
X177601597Y-49950705D01*
X177550294Y-49656750D01*
X177459571Y-49372477D01*
X177331107Y-49103147D01*
X177328758Y-49099570D01*
X177328754Y-49099564D01*
X177169634Y-48857328D01*
X177169633Y-48857327D01*
X177167279Y-48853743D01*
X176971119Y-48628881D01*
X176746257Y-48432721D01*
X176742672Y-48430366D01*
X176500436Y-48271246D01*
X176500430Y-48271242D01*
X176496853Y-48268893D01*
X176369755Y-48208270D01*
X176231392Y-48142274D01*
X176231387Y-48142272D01*
X176227523Y-48140429D01*
X176075769Y-48091998D01*
X175947340Y-48051011D01*
X175947336Y-48051010D01*
X175943250Y-48049706D01*
X175797067Y-48024193D01*
X175653033Y-47999055D01*
X175653027Y-47999054D01*
X175649295Y-47998403D01*
X175645504Y-47998204D01*
X175645501Y-47998204D01*
X175613564Y-47996530D01*
X175517580Y-47991500D01*
X174482420Y-47991500D01*
X174386436Y-47996530D01*
X174354499Y-47998204D01*
X174354496Y-47998204D01*
X174350705Y-47998403D01*
X174346973Y-47999054D01*
X174346967Y-47999055D01*
X174202933Y-48024193D01*
X174056750Y-48049706D01*
X174052664Y-48051010D01*
X174052660Y-48051011D01*
X173924231Y-48091998D01*
X173772477Y-48140429D01*
X173768613Y-48142272D01*
X173768608Y-48142274D01*
X173630245Y-48208270D01*
X173503147Y-48268893D01*
X173499570Y-48271242D01*
X173499564Y-48271246D01*
X173257328Y-48430366D01*
X173253743Y-48432721D01*
X173028881Y-48628881D01*
X172832721Y-48853743D01*
X172830367Y-48857327D01*
X172830366Y-48857328D01*
X172671246Y-49099564D01*
X172671242Y-49099570D01*
X172668893Y-49103147D01*
X172540429Y-49372477D01*
X172449706Y-49656750D01*
X172398403Y-49950705D01*
X172391500Y-50082420D01*
X172391500Y-51917580D01*
X124608500Y-51917580D01*
X124608500Y-50082420D01*
X124601597Y-49950705D01*
X124550294Y-49656750D01*
X124459571Y-49372477D01*
X124331107Y-49103147D01*
X124328758Y-49099570D01*
X124328754Y-49099564D01*
X124169634Y-48857328D01*
X124169633Y-48857327D01*
X124167279Y-48853743D01*
X123971119Y-48628881D01*
X123746257Y-48432721D01*
X123742672Y-48430366D01*
X123500436Y-48271246D01*
X123500430Y-48271242D01*
X123496853Y-48268893D01*
X123369755Y-48208270D01*
X123231392Y-48142274D01*
X123231387Y-48142272D01*
X123227523Y-48140429D01*
X123075769Y-48091998D01*
X122947340Y-48051011D01*
X122947336Y-48051010D01*
X122943250Y-48049706D01*
X122797067Y-48024193D01*
X122653033Y-47999055D01*
X122653027Y-47999054D01*
X122649295Y-47998403D01*
X122645504Y-47998204D01*
X122645501Y-47998204D01*
X122613564Y-47996530D01*
X122517580Y-47991500D01*
X121482420Y-47991500D01*
X121386436Y-47996530D01*
X121354499Y-47998204D01*
X121354496Y-47998204D01*
X121350705Y-47998403D01*
X121346973Y-47999054D01*
X121346967Y-47999055D01*
X121202933Y-48024193D01*
X121056750Y-48049706D01*
X121052664Y-48051010D01*
X121052660Y-48051011D01*
X120924231Y-48091998D01*
X120772477Y-48140429D01*
X120768613Y-48142272D01*
X120768608Y-48142274D01*
X120630245Y-48208270D01*
X120503147Y-48268893D01*
X120499570Y-48271242D01*
X120499564Y-48271246D01*
X120257328Y-48430366D01*
X120253743Y-48432721D01*
X120028881Y-48628881D01*
X119832721Y-48853743D01*
X119830367Y-48857327D01*
X119830366Y-48857328D01*
X119671246Y-49099564D01*
X119671242Y-49099570D01*
X119668893Y-49103147D01*
X119540429Y-49372477D01*
X119449706Y-49656750D01*
X119398403Y-49950705D01*
X119391500Y-50082420D01*
X119391500Y-51917580D01*
X117508500Y-51917580D01*
X117508500Y-45634500D01*
X117528502Y-45566379D01*
X117582158Y-45519886D01*
X117634500Y-45508500D01*
X179365500Y-45508500D01*
X179433621Y-45528502D01*
G37*
%TD.AperFunction*%
%TA.AperFunction,Conductor*%
G36*
X123588924Y-97853502D02*
G01*
X123635417Y-97907158D01*
X123640326Y-97919623D01*
X123651227Y-97952295D01*
X123658450Y-97973946D01*
X123662301Y-97980170D01*
X123662302Y-97980171D01*
X123674547Y-97999959D01*
X123751522Y-98124348D01*
X123756704Y-98129521D01*
X123785683Y-98158450D01*
X123876697Y-98249305D01*
X123882927Y-98253145D01*
X123882928Y-98253146D01*
X124020090Y-98337694D01*
X124027262Y-98342115D01*
X124083653Y-98360819D01*
X124188611Y-98395632D01*
X124188613Y-98395632D01*
X124195139Y-98397797D01*
X124201975Y-98398497D01*
X124201978Y-98398498D01*
X124245031Y-98402909D01*
X124299600Y-98408500D01*
X125100400Y-98408500D01*
X125103646Y-98408163D01*
X125103650Y-98408163D01*
X125199308Y-98398238D01*
X125199312Y-98398237D01*
X125206166Y-98397526D01*
X125212702Y-98395345D01*
X125212704Y-98395345D01*
X125356073Y-98347513D01*
X125373946Y-98341550D01*
X125524348Y-98248478D01*
X125610784Y-98161891D01*
X125673066Y-98127812D01*
X125743886Y-98132815D01*
X125788975Y-98161736D01*
X125814087Y-98186804D01*
X125876697Y-98249305D01*
X125882927Y-98253145D01*
X125882928Y-98253146D01*
X126020090Y-98337694D01*
X126027262Y-98342115D01*
X126034209Y-98344419D01*
X126040844Y-98347513D01*
X126039801Y-98349749D01*
X126088538Y-98383523D01*
X126115766Y-98449091D01*
X126116500Y-98462672D01*
X126116500Y-99654645D01*
X126096498Y-99722766D01*
X126079714Y-99737309D01*
X126081104Y-99738514D01*
X126055671Y-99767865D01*
X126054000Y-99775548D01*
X126054000Y-99875090D01*
X126033998Y-99943211D01*
X126028829Y-99950650D01*
X125974385Y-100023295D01*
X125923255Y-100159684D01*
X125922461Y-100166990D01*
X125887365Y-100228424D01*
X125824410Y-100261244D01*
X125753705Y-100254818D01*
X125697698Y-100211186D01*
X125677546Y-100167060D01*
X125676745Y-100159684D01*
X125625615Y-100023295D01*
X125571174Y-99950654D01*
X125546326Y-99884149D01*
X125546000Y-99875090D01*
X125546000Y-99780116D01*
X125541525Y-99764877D01*
X125540135Y-99763672D01*
X125532452Y-99762001D01*
X125430331Y-99762001D01*
X125423510Y-99762371D01*
X125372651Y-99767895D01*
X125355236Y-99772035D01*
X125296942Y-99772034D01*
X125292716Y-99771029D01*
X125285316Y-99768255D01*
X125223134Y-99761500D01*
X124476866Y-99761500D01*
X124414684Y-99768255D01*
X124278295Y-99819385D01*
X124161739Y-99906739D01*
X124074385Y-100023295D01*
X124023255Y-100159684D01*
X124016500Y-100221866D01*
X124016500Y-100340500D01*
X123996498Y-100408621D01*
X123942842Y-100455114D01*
X123890500Y-100466500D01*
X123779197Y-100466500D01*
X123711076Y-100446498D01*
X123664583Y-100392842D01*
X123659674Y-100380377D01*
X123643867Y-100332998D01*
X123643866Y-100332996D01*
X123641550Y-100326054D01*
X123574370Y-100217492D01*
X123552332Y-100181880D01*
X123548478Y-100175652D01*
X123423303Y-100050695D01*
X123417072Y-100046854D01*
X123278968Y-99961725D01*
X123278966Y-99961724D01*
X123272738Y-99957885D01*
X123112254Y-99904655D01*
X123111389Y-99904368D01*
X123111387Y-99904368D01*
X123104861Y-99902203D01*
X123098025Y-99901503D01*
X123098022Y-99901502D01*
X123054969Y-99897091D01*
X123000400Y-99891500D01*
X122249600Y-99891500D01*
X122246354Y-99891837D01*
X122246350Y-99891837D01*
X122150692Y-99901762D01*
X122150688Y-99901763D01*
X122143834Y-99902474D01*
X122137298Y-99904655D01*
X122137296Y-99904655D01*
X122131050Y-99906739D01*
X121976054Y-99958450D01*
X121825652Y-100051522D01*
X121700695Y-100176697D01*
X121698094Y-100180916D01*
X121640970Y-100221417D01*
X121570047Y-100224649D01*
X121508635Y-100189024D01*
X121502078Y-100181470D01*
X121498478Y-100175652D01*
X121373303Y-100050695D01*
X121268383Y-99986021D01*
X121220891Y-99933250D01*
X121208500Y-99878762D01*
X121208500Y-98639594D01*
X121228502Y-98571473D01*
X121245405Y-98550499D01*
X121925499Y-97870405D01*
X121987811Y-97836379D01*
X122014594Y-97833500D01*
X123520803Y-97833500D01*
X123588924Y-97853502D01*
G37*
%TD.AperFunction*%
%TD*%
%TA.AperFunction,Conductor*%
%TO.N,+5V*%
G36*
X130604614Y-111020002D02*
G01*
X130651107Y-111073658D01*
X130661033Y-111135117D01*
X130662053Y-111135172D01*
X130661869Y-111138569D01*
X130661500Y-111141966D01*
X130661500Y-112190405D01*
X130641498Y-112258526D01*
X130624595Y-112279501D01*
X129757742Y-113146353D01*
X129749463Y-113153887D01*
X129742982Y-113158000D01*
X129696357Y-113207651D01*
X129693602Y-113210493D01*
X129673865Y-113230230D01*
X129671385Y-113233427D01*
X129663682Y-113242447D01*
X129633414Y-113274679D01*
X129629595Y-113281625D01*
X129629593Y-113281628D01*
X129623652Y-113292434D01*
X129612801Y-113308953D01*
X129600386Y-113324959D01*
X129597241Y-113332228D01*
X129597238Y-113332232D01*
X129582826Y-113365537D01*
X129577609Y-113376187D01*
X129556305Y-113414940D01*
X129554334Y-113422615D01*
X129554334Y-113422616D01*
X129551267Y-113434562D01*
X129544863Y-113453266D01*
X129536819Y-113471855D01*
X129535580Y-113479678D01*
X129535577Y-113479688D01*
X129529901Y-113515524D01*
X129527495Y-113527144D01*
X129516500Y-113569970D01*
X129516500Y-113590224D01*
X129514949Y-113609934D01*
X129511780Y-113629943D01*
X129512526Y-113637835D01*
X129515941Y-113673961D01*
X129516500Y-113685819D01*
X129516500Y-114831311D01*
X129496498Y-114899432D01*
X129479595Y-114920406D01*
X129336905Y-115063096D01*
X129274593Y-115097122D01*
X129247810Y-115100001D01*
X128900000Y-115100001D01*
X128892469Y-115107532D01*
X128892468Y-115107532D01*
X128689095Y-115310905D01*
X128626783Y-115344931D01*
X128555968Y-115339866D01*
X128510905Y-115310905D01*
X128036905Y-114836905D01*
X128002879Y-114774593D01*
X128000000Y-114747810D01*
X128000000Y-111252190D01*
X128020002Y-111184069D01*
X128036905Y-111163095D01*
X128163095Y-111036905D01*
X128225407Y-111002879D01*
X128252190Y-111000000D01*
X130536493Y-111000000D01*
X130604614Y-111020002D01*
G37*
%TD.AperFunction*%
%TD*%
%TA.AperFunction,Conductor*%
%TO.N,/BAT+*%
G36*
X128948651Y-107860414D02*
G01*
X128993541Y-107889661D01*
X129300000Y-108200000D01*
X129947810Y-108200000D01*
X130015931Y-108220002D01*
X130036905Y-108236905D01*
X130363095Y-108563095D01*
X130397121Y-108625407D01*
X130400000Y-108652190D01*
X130400000Y-109747810D01*
X130379998Y-109815931D01*
X130363095Y-109836905D01*
X129936905Y-110263095D01*
X129874593Y-110297121D01*
X129847810Y-110300000D01*
X128263000Y-110300000D01*
X128194879Y-110279998D01*
X128162200Y-110249600D01*
X127925200Y-109933600D01*
X127900329Y-109867102D01*
X127900000Y-109858000D01*
X127900000Y-108642000D01*
X127920002Y-108573879D01*
X127925200Y-108566400D01*
X128162200Y-108250400D01*
X128219074Y-108207905D01*
X128263000Y-108200000D01*
X128500000Y-108200000D01*
X128513053Y-108187109D01*
X128815346Y-107888547D01*
X128877868Y-107854910D01*
X128948651Y-107860414D01*
G37*
%TD.AperFunction*%
%TD*%
%TA.AperFunction,Conductor*%
%TO.N,Net-(R2-Pad2)*%
G36*
X169742121Y-100870002D02*
G01*
X169788614Y-100923658D01*
X169800000Y-100976000D01*
X169800000Y-103374000D01*
X169779998Y-103442121D01*
X169726342Y-103488614D01*
X169674000Y-103500000D01*
X168526000Y-103500000D01*
X168457879Y-103479998D01*
X168411386Y-103426342D01*
X168400000Y-103374000D01*
X168400000Y-100976000D01*
X168420002Y-100907879D01*
X168473658Y-100861386D01*
X168526000Y-100850000D01*
X169674000Y-100850000D01*
X169742121Y-100870002D01*
G37*
%TD.AperFunction*%
%TD*%
%TA.AperFunction,Conductor*%
%TO.N,/BAT+*%
G36*
X164330655Y-107520002D02*
G01*
X164377148Y-107573658D01*
X164387844Y-107612829D01*
X164406458Y-107789928D01*
X164465473Y-107971556D01*
X164468776Y-107977277D01*
X164474389Y-107986998D01*
X164491128Y-108055993D01*
X164474390Y-108113000D01*
X164465473Y-108128444D01*
X164406458Y-108310072D01*
X164386496Y-108500000D01*
X164406458Y-108689928D01*
X164408497Y-108696203D01*
X164426485Y-108751563D01*
X164428513Y-108822531D01*
X164391850Y-108883329D01*
X164328138Y-108914655D01*
X164306652Y-108916500D01*
X162541866Y-108916500D01*
X162479684Y-108923255D01*
X162343295Y-108974385D01*
X162226739Y-109061739D01*
X162139385Y-109178295D01*
X162088255Y-109314684D01*
X162087402Y-109322536D01*
X162087401Y-109322540D01*
X162083394Y-109359432D01*
X162058931Y-109421425D01*
X162000000Y-109500000D01*
X162000000Y-110800000D01*
X162600000Y-111300000D01*
X162603629Y-111302268D01*
X162603633Y-111302271D01*
X163340780Y-111762988D01*
X163387945Y-111816054D01*
X163400000Y-111869836D01*
X163400000Y-115847810D01*
X163379998Y-115915931D01*
X163363095Y-115936905D01*
X163136905Y-116163095D01*
X163074593Y-116197121D01*
X163047810Y-116200000D01*
X156644978Y-116200000D01*
X156576857Y-116179998D01*
X156565190Y-116171519D01*
X155546212Y-115337810D01*
X155506156Y-115279192D01*
X155500000Y-115240291D01*
X155500000Y-110550000D01*
X154547812Y-109900781D01*
X154502797Y-109845881D01*
X154494610Y-109775358D01*
X154525850Y-109711603D01*
X154544683Y-109694776D01*
X155485351Y-109010654D01*
X155500000Y-109000000D01*
X155500000Y-108548351D01*
X155520002Y-108480230D01*
X155532345Y-108464061D01*
X155665029Y-108316635D01*
X156362461Y-107541710D01*
X156422899Y-107504457D01*
X156456116Y-107500000D01*
X164262534Y-107500000D01*
X164330655Y-107520002D01*
G37*
%TD.AperFunction*%
%TD*%
%TA.AperFunction,Conductor*%
%TO.N,Net-(D1-Pad2)*%
G36*
X168313485Y-109632993D02*
G01*
X168320193Y-109640225D01*
X170000000Y-111600000D01*
X172360283Y-111600000D01*
X172432538Y-111622777D01*
X172846256Y-111912379D01*
X172890593Y-111967830D01*
X172900000Y-112015602D01*
X172900000Y-115197810D01*
X172879998Y-115265931D01*
X172863095Y-115286905D01*
X172186905Y-115963095D01*
X172124593Y-115997121D01*
X172097810Y-116000000D01*
X165026000Y-116000000D01*
X164957879Y-115979998D01*
X164911386Y-115926342D01*
X164900000Y-115874000D01*
X164900000Y-111939134D01*
X164922171Y-111867751D01*
X165343497Y-111254914D01*
X165398572Y-111210112D01*
X165421129Y-111203050D01*
X165575831Y-111170167D01*
X165575836Y-111170166D01*
X165582288Y-111168794D01*
X165588319Y-111166109D01*
X165750722Y-111093803D01*
X165750724Y-111093802D01*
X165756752Y-111091118D01*
X165911253Y-110978866D01*
X166039040Y-110836944D01*
X166134527Y-110671556D01*
X166193542Y-110489928D01*
X166198973Y-110438261D01*
X166212814Y-110306565D01*
X166213504Y-110300000D01*
X166193542Y-110110072D01*
X166134527Y-109928444D01*
X166073360Y-109822500D01*
X166056622Y-109753505D01*
X166079842Y-109686413D01*
X166135649Y-109642526D01*
X166182479Y-109633500D01*
X168058134Y-109633500D01*
X168120316Y-109626745D01*
X168127712Y-109623973D01*
X168127718Y-109623971D01*
X168180309Y-109604255D01*
X168251116Y-109599072D01*
X168313485Y-109632993D01*
G37*
%TD.AperFunction*%
%TD*%
%TA.AperFunction,Conductor*%
%TO.N,+6V*%
G36*
X179433621Y-106120002D02*
G01*
X179480114Y-106173658D01*
X179491500Y-106226000D01*
X179491500Y-115874000D01*
X179471498Y-115942121D01*
X179417842Y-115988614D01*
X179365500Y-116000000D01*
X175802190Y-116000000D01*
X175734069Y-115979998D01*
X175713095Y-115963095D01*
X175036905Y-115286905D01*
X175002879Y-115224593D01*
X175000000Y-115197810D01*
X175000000Y-110050000D01*
X174992673Y-110043162D01*
X174992673Y-110043161D01*
X174263244Y-109362361D01*
X174250000Y-109350000D01*
X173350000Y-109350000D01*
X172437818Y-110550240D01*
X172380675Y-110592373D01*
X172337502Y-110600000D01*
X170252190Y-110600000D01*
X170184069Y-110579998D01*
X170163095Y-110563095D01*
X169836905Y-110236905D01*
X169802879Y-110174593D01*
X169800000Y-110147810D01*
X169800000Y-107802190D01*
X169820002Y-107734069D01*
X169836905Y-107713095D01*
X170163095Y-107386905D01*
X170225407Y-107352879D01*
X170252190Y-107350000D01*
X172000000Y-107350000D01*
X173079040Y-106226000D01*
X173162809Y-106138741D01*
X173224414Y-106103452D01*
X173253704Y-106100000D01*
X179365500Y-106100000D01*
X179433621Y-106120002D01*
G37*
%TD.AperFunction*%
%TD*%
M02*
