%TF.GenerationSoftware,KiCad,Pcbnew,8.0.4*%
%TF.CreationDate,2024-09-10T22:23:10+08:00*%
%TF.ProjectId,sx70battery,73783730-6261-4747-9465-72792e6b6963,2*%
%TF.SameCoordinates,Original*%
%TF.FileFunction,Soldermask,Top*%
%TF.FilePolarity,Negative*%
%FSLAX46Y46*%
G04 Gerber Fmt 4.6, Leading zero omitted, Abs format (unit mm)*
G04 Created by KiCad (PCBNEW 8.0.4) date 2024-09-10 22:23:10*
%MOMM*%
%LPD*%
G01*
G04 APERTURE LIST*
G04 Aperture macros list*
%AMRoundRect*
0 Rectangle with rounded corners*
0 $1 Rounding radius*
0 $2 $3 $4 $5 $6 $7 $8 $9 X,Y pos of 4 corners*
0 Add a 4 corners polygon primitive as box body*
4,1,4,$2,$3,$4,$5,$6,$7,$8,$9,$2,$3,0*
0 Add four circle primitives for the rounded corners*
1,1,$1+$1,$2,$3*
1,1,$1+$1,$4,$5*
1,1,$1+$1,$6,$7*
1,1,$1+$1,$8,$9*
0 Add four rect primitives between the rounded corners*
20,1,$1+$1,$2,$3,$4,$5,0*
20,1,$1+$1,$4,$5,$6,$7,0*
20,1,$1+$1,$6,$7,$8,$9,0*
20,1,$1+$1,$8,$9,$2,$3,0*%
G04 Aperture macros list end*
%ADD10RoundRect,0.250000X-0.475000X0.337500X-0.475000X-0.337500X0.475000X-0.337500X0.475000X0.337500X0*%
%ADD11RoundRect,0.237500X-0.300000X-0.237500X0.300000X-0.237500X0.300000X0.237500X-0.300000X0.237500X0*%
%ADD12RoundRect,0.250000X-0.337500X-0.475000X0.337500X-0.475000X0.337500X0.475000X-0.337500X0.475000X0*%
%ADD13R,5.700000X2.400000*%
%ADD14R,5.000000X10.000000*%
%ADD15RoundRect,0.250000X-0.650000X1.000000X-0.650000X-1.000000X0.650000X-1.000000X0.650000X1.000000X0*%
%ADD16C,6.400000*%
%ADD17RoundRect,0.237500X0.250000X0.237500X-0.250000X0.237500X-0.250000X-0.237500X0.250000X-0.237500X0*%
%ADD18RoundRect,0.237500X-0.250000X-0.237500X0.250000X-0.237500X0.250000X0.237500X-0.250000X0.237500X0*%
%ADD19RoundRect,0.175000X-0.175000X-0.425000X0.175000X-0.425000X0.175000X0.425000X-0.175000X0.425000X0*%
%ADD20RoundRect,0.190000X0.190000X0.410000X-0.190000X0.410000X-0.190000X-0.410000X0.190000X-0.410000X0*%
%ADD21RoundRect,0.200000X0.200000X0.400000X-0.200000X0.400000X-0.200000X-0.400000X0.200000X-0.400000X0*%
%ADD22RoundRect,0.175000X0.175000X0.425000X-0.175000X0.425000X-0.175000X-0.425000X0.175000X-0.425000X0*%
%ADD23RoundRect,0.190000X-0.190000X-0.410000X0.190000X-0.410000X0.190000X0.410000X-0.190000X0.410000X0*%
%ADD24RoundRect,0.200000X-0.200000X-0.400000X0.200000X-0.400000X0.200000X0.400000X-0.200000X0.400000X0*%
%ADD25O,1.100000X1.700000*%
%ADD26C,2.500000*%
%ADD27RoundRect,0.150000X-0.150000X0.512500X-0.150000X-0.512500X0.150000X-0.512500X0.150000X0.512500X0*%
%ADD28RoundRect,0.500000X-0.500000X-1.500000X0.500000X-1.500000X0.500000X1.500000X-0.500000X1.500000X0*%
%ADD29RoundRect,0.250000X-0.450000X-0.425000X0.450000X-0.425000X0.450000X0.425000X-0.450000X0.425000X0*%
%ADD30RoundRect,0.237500X0.237500X-0.250000X0.237500X0.250000X-0.237500X0.250000X-0.237500X-0.250000X0*%
%ADD31R,10.000000X5.000000*%
%ADD32R,1.308000X1.308000*%
%ADD33C,1.308000*%
%ADD34O,2.460000X1.230000*%
%ADD35RoundRect,0.250000X-0.325000X-0.450000X0.325000X-0.450000X0.325000X0.450000X-0.325000X0.450000X0*%
%ADD36C,10.000000*%
%ADD37RoundRect,0.237500X-0.237500X0.250000X-0.237500X-0.250000X0.237500X-0.250000X0.237500X0.250000X0*%
%ADD38RoundRect,0.250000X0.450000X-0.325000X0.450000X0.325000X-0.450000X0.325000X-0.450000X-0.325000X0*%
%ADD39RoundRect,0.500000X0.500000X1.500000X-0.500000X1.500000X-0.500000X-1.500000X0.500000X-1.500000X0*%
%ADD40R,1.450000X0.450000*%
%ADD41R,1.560000X0.650000*%
%ADD42RoundRect,0.250000X-0.450000X0.325000X-0.450000X-0.325000X0.450000X-0.325000X0.450000X0.325000X0*%
G04 APERTURE END LIST*
D10*
%TO.C,C7*%
X129000000Y-97962500D03*
X129000000Y-100037500D03*
%TD*%
D11*
%TO.C,C9*%
X165637500Y-114250000D03*
X167362500Y-114250000D03*
%TD*%
%TO.C,C10*%
X174137500Y-115000000D03*
X175862500Y-115000000D03*
%TD*%
D12*
%TO.C,C13*%
X167962500Y-106500000D03*
X170037500Y-106500000D03*
%TD*%
D13*
%TO.C,L2*%
X159000000Y-112600000D03*
X159000000Y-108400000D03*
%TD*%
D14*
%TO.C,5V+1*%
X141000000Y-119750000D03*
%TD*%
D15*
%TO.C,D6*%
X164250000Y-104750000D03*
X164250000Y-108750000D03*
%TD*%
D16*
%TO.C,Bolt2*%
X175000000Y-57500000D03*
%TD*%
D17*
%TO.C,R_PRG1*%
X129162500Y-112000000D03*
X127337500Y-112000000D03*
%TD*%
D18*
%TO.C,R1*%
X127337500Y-110500000D03*
X129162500Y-110500000D03*
%TD*%
%TO.C,R4*%
X135837500Y-99500000D03*
X137662500Y-99500000D03*
%TD*%
D19*
%TO.C,J1*%
X149500000Y-118520000D03*
D20*
X151520000Y-118520000D03*
D21*
X152750000Y-118520000D03*
D22*
X150500000Y-118520000D03*
D23*
X148480000Y-118520000D03*
D24*
X147250000Y-118520000D03*
D25*
X145680000Y-118600000D03*
X145680000Y-122400000D03*
X154320000Y-118600000D03*
X154320000Y-122400000D03*
%TD*%
D26*
%TO.C,Sx70_Pogopin1*%
X133500000Y-61200000D03*
X169500000Y-61200000D03*
%TD*%
D27*
%TO.C,U1*%
X125700000Y-110612500D03*
X124750000Y-110612500D03*
X123800000Y-110612500D03*
X123800000Y-112887500D03*
X124750000Y-112887500D03*
X125700000Y-112887500D03*
%TD*%
D28*
%TO.C,BAT-1*%
X125750000Y-93750000D03*
%TD*%
D29*
%TO.C,C12*%
X167900000Y-104250000D03*
X170600000Y-104250000D03*
%TD*%
D30*
%TO.C,R8*%
X174250000Y-110412500D03*
X174250000Y-108587500D03*
%TD*%
D31*
%TO.C,GND1*%
X161750000Y-122250000D03*
%TD*%
D10*
%TO.C,C1*%
X121500000Y-110712500D03*
X121500000Y-112787500D03*
%TD*%
D32*
%TO.C,S1*%
X119500000Y-100000000D03*
D33*
X119500000Y-102000000D03*
X119500000Y-104000000D03*
D34*
X119500000Y-97800000D03*
X119500000Y-106200000D03*
%TD*%
D35*
%TO.C,D2*%
X119475000Y-121000000D03*
X121525000Y-121000000D03*
%TD*%
D36*
%TO.C,Hole1*%
X150000000Y-100000000D03*
%TD*%
D37*
%TO.C,R7*%
X175750000Y-108587500D03*
X175750000Y-110412500D03*
%TD*%
D28*
%TO.C,BAT+1*%
X121750000Y-94000000D03*
%TD*%
D18*
%TO.C,R3*%
X135837500Y-98000000D03*
X137662500Y-98000000D03*
%TD*%
D38*
%TO.C,STB1*%
X118500000Y-114662500D03*
X118500000Y-112612500D03*
%TD*%
D39*
%TO.C,6V+1*%
X162630000Y-95250000D03*
%TD*%
D17*
%TO.C,R9*%
X126412500Y-114637500D03*
X124587500Y-114637500D03*
%TD*%
D40*
%TO.C,U4*%
X171950000Y-112225000D03*
X171950000Y-111575000D03*
X171950000Y-110925000D03*
X171950000Y-110275000D03*
X167550000Y-110275000D03*
X167550000Y-110925000D03*
X167550000Y-111575000D03*
X167550000Y-112225000D03*
%TD*%
D41*
%TO.C,U3*%
X131150000Y-98550000D03*
X131150000Y-99500000D03*
X131150000Y-100450000D03*
X133850000Y-100450000D03*
X133850000Y-99500000D03*
X133850000Y-98550000D03*
%TD*%
D29*
%TO.C,C8*%
X164900000Y-116250000D03*
X167600000Y-116250000D03*
%TD*%
D11*
%TO.C,C11*%
X174137500Y-113500000D03*
X175862500Y-113500000D03*
%TD*%
D35*
%TO.C,D4*%
X127475000Y-121000000D03*
X129525000Y-121000000D03*
%TD*%
D16*
%TO.C,Bolt1*%
X122000000Y-57500000D03*
%TD*%
D42*
%TO.C,CHG1*%
X118500000Y-108862500D03*
X118500000Y-110912500D03*
%TD*%
D35*
%TO.C,D3*%
X123475000Y-121000000D03*
X125525000Y-121000000D03*
%TD*%
D18*
%TO.C,R5*%
X135837500Y-101000000D03*
X137662500Y-101000000D03*
%TD*%
%TO.C,R6*%
X174087500Y-112000000D03*
X175912500Y-112000000D03*
%TD*%
D39*
%TO.C,GND2*%
X166360000Y-95250000D03*
%TD*%
D18*
%TO.C,R2*%
X131087500Y-102250000D03*
X132912500Y-102250000D03*
%TD*%
D12*
%TO.C,C2*%
X123212500Y-108500000D03*
X125287500Y-108500000D03*
%TD*%
D35*
%TO.C,D5*%
X131475000Y-121000000D03*
X133525000Y-121000000D03*
%TD*%
M02*
